G04 #@! TF.GenerationSoftware,KiCad,Pcbnew,(5.0.2)-1*
G04 #@! TF.CreationDate,2020-03-10T14:07:47-07:00*
G04 #@! TF.ProjectId,ring_illuminator,72696e67-5f69-46c6-9c75-6d696e61746f,rev?*
G04 #@! TF.SameCoordinates,Original*
G04 #@! TF.FileFunction,Copper,L2,Bot*
G04 #@! TF.FilePolarity,Positive*
%FSLAX46Y46*%
G04 Gerber Fmt 4.6, Leading zero omitted, Abs format (unit mm)*
G04 Created by KiCad (PCBNEW (5.0.2)-1) date 3/10/2020 2:07:47 PM*
%MOMM*%
%LPD*%
G01*
G04 APERTURE LIST*
G04 #@! TA.AperFunction,Conductor*
%ADD10C,0.100000*%
G04 #@! TD*
G04 #@! TA.AperFunction,SMDPad,CuDef*
%ADD11C,0.875000*%
G04 #@! TD*
G04 #@! TA.AperFunction,ComponentPad*
%ADD12C,1.600000*%
G04 #@! TD*
G04 #@! TA.AperFunction,ComponentPad*
%ADD13R,1.600000X1.600000*%
G04 #@! TD*
G04 #@! TA.AperFunction,SMDPad,CuDef*
%ADD14C,0.975000*%
G04 #@! TD*
G04 #@! TA.AperFunction,ComponentPad*
%ADD15O,2.200000X1.700000*%
G04 #@! TD*
G04 #@! TA.AperFunction,ComponentPad*
%ADD16C,1.417157*%
G04 #@! TD*
G04 #@! TA.AperFunction,ComponentPad*
%ADD17C,1.400000*%
G04 #@! TD*
G04 #@! TA.AperFunction,ComponentPad*
%ADD18C,3.260000*%
G04 #@! TD*
G04 #@! TA.AperFunction,ViaPad*
%ADD19C,0.800000*%
G04 #@! TD*
G04 #@! TA.AperFunction,Conductor*
%ADD20C,1.000000*%
G04 #@! TD*
G04 #@! TA.AperFunction,Conductor*
%ADD21C,0.254000*%
G04 #@! TD*
G04 APERTURE END LIST*
D10*
G04 #@! TO.N,PGND*
G04 #@! TO.C,C3*
G36*
X22084191Y4029947D02*
X22105426Y4026797D01*
X22126250Y4021581D01*
X22146462Y4014349D01*
X22165868Y4005170D01*
X22184281Y3994134D01*
X22201524Y3981346D01*
X22217430Y3966930D01*
X22231846Y3951024D01*
X22244634Y3933781D01*
X22255670Y3915368D01*
X22264849Y3895962D01*
X22272081Y3875750D01*
X22277297Y3854926D01*
X22280447Y3833691D01*
X22281500Y3812250D01*
X22281500Y3299750D01*
X22280447Y3278309D01*
X22277297Y3257074D01*
X22272081Y3236250D01*
X22264849Y3216038D01*
X22255670Y3196632D01*
X22244634Y3178219D01*
X22231846Y3160976D01*
X22217430Y3145070D01*
X22201524Y3130654D01*
X22184281Y3117866D01*
X22165868Y3106830D01*
X22146462Y3097651D01*
X22126250Y3090419D01*
X22105426Y3085203D01*
X22084191Y3082053D01*
X22062750Y3081000D01*
X21625250Y3081000D01*
X21603809Y3082053D01*
X21582574Y3085203D01*
X21561750Y3090419D01*
X21541538Y3097651D01*
X21522132Y3106830D01*
X21503719Y3117866D01*
X21486476Y3130654D01*
X21470570Y3145070D01*
X21456154Y3160976D01*
X21443366Y3178219D01*
X21432330Y3196632D01*
X21423151Y3216038D01*
X21415919Y3236250D01*
X21410703Y3257074D01*
X21407553Y3278309D01*
X21406500Y3299750D01*
X21406500Y3812250D01*
X21407553Y3833691D01*
X21410703Y3854926D01*
X21415919Y3875750D01*
X21423151Y3895962D01*
X21432330Y3915368D01*
X21443366Y3933781D01*
X21456154Y3951024D01*
X21470570Y3966930D01*
X21486476Y3981346D01*
X21503719Y3994134D01*
X21522132Y4005170D01*
X21541538Y4014349D01*
X21561750Y4021581D01*
X21582574Y4026797D01*
X21603809Y4029947D01*
X21625250Y4031000D01*
X22062750Y4031000D01*
X22084191Y4029947D01*
X22084191Y4029947D01*
G37*
D11*
G04 #@! TD*
G04 #@! TO.P,C3,2*
G04 #@! TO.N,PGND*
X21844000Y3556000D03*
D10*
G04 #@! TO.N,VLED1*
G04 #@! TO.C,C3*
G36*
X20509191Y4029947D02*
X20530426Y4026797D01*
X20551250Y4021581D01*
X20571462Y4014349D01*
X20590868Y4005170D01*
X20609281Y3994134D01*
X20626524Y3981346D01*
X20642430Y3966930D01*
X20656846Y3951024D01*
X20669634Y3933781D01*
X20680670Y3915368D01*
X20689849Y3895962D01*
X20697081Y3875750D01*
X20702297Y3854926D01*
X20705447Y3833691D01*
X20706500Y3812250D01*
X20706500Y3299750D01*
X20705447Y3278309D01*
X20702297Y3257074D01*
X20697081Y3236250D01*
X20689849Y3216038D01*
X20680670Y3196632D01*
X20669634Y3178219D01*
X20656846Y3160976D01*
X20642430Y3145070D01*
X20626524Y3130654D01*
X20609281Y3117866D01*
X20590868Y3106830D01*
X20571462Y3097651D01*
X20551250Y3090419D01*
X20530426Y3085203D01*
X20509191Y3082053D01*
X20487750Y3081000D01*
X20050250Y3081000D01*
X20028809Y3082053D01*
X20007574Y3085203D01*
X19986750Y3090419D01*
X19966538Y3097651D01*
X19947132Y3106830D01*
X19928719Y3117866D01*
X19911476Y3130654D01*
X19895570Y3145070D01*
X19881154Y3160976D01*
X19868366Y3178219D01*
X19857330Y3196632D01*
X19848151Y3216038D01*
X19840919Y3236250D01*
X19835703Y3257074D01*
X19832553Y3278309D01*
X19831500Y3299750D01*
X19831500Y3812250D01*
X19832553Y3833691D01*
X19835703Y3854926D01*
X19840919Y3875750D01*
X19848151Y3895962D01*
X19857330Y3915368D01*
X19868366Y3933781D01*
X19881154Y3951024D01*
X19895570Y3966930D01*
X19911476Y3981346D01*
X19928719Y3994134D01*
X19947132Y4005170D01*
X19966538Y4014349D01*
X19986750Y4021581D01*
X20007574Y4026797D01*
X20028809Y4029947D01*
X20050250Y4031000D01*
X20487750Y4031000D01*
X20509191Y4029947D01*
X20509191Y4029947D01*
G37*
D11*
G04 #@! TD*
G04 #@! TO.P,C3,1*
G04 #@! TO.N,VLED1*
X20269000Y3556000D03*
D10*
G04 #@! TO.N,VLED2*
G04 #@! TO.C,C4*
G36*
X-21654809Y-3590053D02*
X-21633574Y-3593203D01*
X-21612750Y-3598419D01*
X-21592538Y-3605651D01*
X-21573132Y-3614830D01*
X-21554719Y-3625866D01*
X-21537476Y-3638654D01*
X-21521570Y-3653070D01*
X-21507154Y-3668976D01*
X-21494366Y-3686219D01*
X-21483330Y-3704632D01*
X-21474151Y-3724038D01*
X-21466919Y-3744250D01*
X-21461703Y-3765074D01*
X-21458553Y-3786309D01*
X-21457500Y-3807750D01*
X-21457500Y-4320250D01*
X-21458553Y-4341691D01*
X-21461703Y-4362926D01*
X-21466919Y-4383750D01*
X-21474151Y-4403962D01*
X-21483330Y-4423368D01*
X-21494366Y-4441781D01*
X-21507154Y-4459024D01*
X-21521570Y-4474930D01*
X-21537476Y-4489346D01*
X-21554719Y-4502134D01*
X-21573132Y-4513170D01*
X-21592538Y-4522349D01*
X-21612750Y-4529581D01*
X-21633574Y-4534797D01*
X-21654809Y-4537947D01*
X-21676250Y-4539000D01*
X-22113750Y-4539000D01*
X-22135191Y-4537947D01*
X-22156426Y-4534797D01*
X-22177250Y-4529581D01*
X-22197462Y-4522349D01*
X-22216868Y-4513170D01*
X-22235281Y-4502134D01*
X-22252524Y-4489346D01*
X-22268430Y-4474930D01*
X-22282846Y-4459024D01*
X-22295634Y-4441781D01*
X-22306670Y-4423368D01*
X-22315849Y-4403962D01*
X-22323081Y-4383750D01*
X-22328297Y-4362926D01*
X-22331447Y-4341691D01*
X-22332500Y-4320250D01*
X-22332500Y-3807750D01*
X-22331447Y-3786309D01*
X-22328297Y-3765074D01*
X-22323081Y-3744250D01*
X-22315849Y-3724038D01*
X-22306670Y-3704632D01*
X-22295634Y-3686219D01*
X-22282846Y-3668976D01*
X-22268430Y-3653070D01*
X-22252524Y-3638654D01*
X-22235281Y-3625866D01*
X-22216868Y-3614830D01*
X-22197462Y-3605651D01*
X-22177250Y-3598419D01*
X-22156426Y-3593203D01*
X-22135191Y-3590053D01*
X-22113750Y-3589000D01*
X-21676250Y-3589000D01*
X-21654809Y-3590053D01*
X-21654809Y-3590053D01*
G37*
D11*
G04 #@! TD*
G04 #@! TO.P,C4,1*
G04 #@! TO.N,VLED2*
X-21895000Y-4064000D03*
D10*
G04 #@! TO.N,PGND*
G04 #@! TO.C,C4*
G36*
X-20079809Y-3590053D02*
X-20058574Y-3593203D01*
X-20037750Y-3598419D01*
X-20017538Y-3605651D01*
X-19998132Y-3614830D01*
X-19979719Y-3625866D01*
X-19962476Y-3638654D01*
X-19946570Y-3653070D01*
X-19932154Y-3668976D01*
X-19919366Y-3686219D01*
X-19908330Y-3704632D01*
X-19899151Y-3724038D01*
X-19891919Y-3744250D01*
X-19886703Y-3765074D01*
X-19883553Y-3786309D01*
X-19882500Y-3807750D01*
X-19882500Y-4320250D01*
X-19883553Y-4341691D01*
X-19886703Y-4362926D01*
X-19891919Y-4383750D01*
X-19899151Y-4403962D01*
X-19908330Y-4423368D01*
X-19919366Y-4441781D01*
X-19932154Y-4459024D01*
X-19946570Y-4474930D01*
X-19962476Y-4489346D01*
X-19979719Y-4502134D01*
X-19998132Y-4513170D01*
X-20017538Y-4522349D01*
X-20037750Y-4529581D01*
X-20058574Y-4534797D01*
X-20079809Y-4537947D01*
X-20101250Y-4539000D01*
X-20538750Y-4539000D01*
X-20560191Y-4537947D01*
X-20581426Y-4534797D01*
X-20602250Y-4529581D01*
X-20622462Y-4522349D01*
X-20641868Y-4513170D01*
X-20660281Y-4502134D01*
X-20677524Y-4489346D01*
X-20693430Y-4474930D01*
X-20707846Y-4459024D01*
X-20720634Y-4441781D01*
X-20731670Y-4423368D01*
X-20740849Y-4403962D01*
X-20748081Y-4383750D01*
X-20753297Y-4362926D01*
X-20756447Y-4341691D01*
X-20757500Y-4320250D01*
X-20757500Y-3807750D01*
X-20756447Y-3786309D01*
X-20753297Y-3765074D01*
X-20748081Y-3744250D01*
X-20740849Y-3724038D01*
X-20731670Y-3704632D01*
X-20720634Y-3686219D01*
X-20707846Y-3668976D01*
X-20693430Y-3653070D01*
X-20677524Y-3638654D01*
X-20660281Y-3625866D01*
X-20641868Y-3614830D01*
X-20622462Y-3605651D01*
X-20602250Y-3598419D01*
X-20581426Y-3593203D01*
X-20560191Y-3590053D01*
X-20538750Y-3589000D01*
X-20101250Y-3589000D01*
X-20079809Y-3590053D01*
X-20079809Y-3590053D01*
G37*
D11*
G04 #@! TD*
G04 #@! TO.P,C4,2*
G04 #@! TO.N,PGND*
X-20320000Y-4064000D03*
D12*
G04 #@! TO.P,C5,2*
G04 #@! TO.N,PGND*
X19336000Y-5080000D03*
D13*
G04 #@! TO.P,C5,1*
G04 #@! TO.N,VLED1*
X21336000Y-5080000D03*
G04 #@! TD*
G04 #@! TO.P,C6,1*
G04 #@! TO.N,VLED2*
X-21844000Y5588000D03*
D12*
G04 #@! TO.P,C6,2*
G04 #@! TO.N,PGND*
X-19844000Y5588000D03*
G04 #@! TD*
D10*
G04 #@! TO.N,VLED1*
G04 #@! TO.C,C1*
G36*
X20666142Y6286826D02*
X20689803Y6283316D01*
X20713007Y6277504D01*
X20735529Y6269446D01*
X20757153Y6259218D01*
X20777670Y6246921D01*
X20796883Y6232671D01*
X20814607Y6216607D01*
X20830671Y6198883D01*
X20844921Y6179670D01*
X20857218Y6159153D01*
X20867446Y6137529D01*
X20875504Y6115007D01*
X20881316Y6091803D01*
X20884826Y6068142D01*
X20886000Y6044250D01*
X20886000Y5131750D01*
X20884826Y5107858D01*
X20881316Y5084197D01*
X20875504Y5060993D01*
X20867446Y5038471D01*
X20857218Y5016847D01*
X20844921Y4996330D01*
X20830671Y4977117D01*
X20814607Y4959393D01*
X20796883Y4943329D01*
X20777670Y4929079D01*
X20757153Y4916782D01*
X20735529Y4906554D01*
X20713007Y4898496D01*
X20689803Y4892684D01*
X20666142Y4889174D01*
X20642250Y4888000D01*
X20154750Y4888000D01*
X20130858Y4889174D01*
X20107197Y4892684D01*
X20083993Y4898496D01*
X20061471Y4906554D01*
X20039847Y4916782D01*
X20019330Y4929079D01*
X20000117Y4943329D01*
X19982393Y4959393D01*
X19966329Y4977117D01*
X19952079Y4996330D01*
X19939782Y5016847D01*
X19929554Y5038471D01*
X19921496Y5060993D01*
X19915684Y5084197D01*
X19912174Y5107858D01*
X19911000Y5131750D01*
X19911000Y6044250D01*
X19912174Y6068142D01*
X19915684Y6091803D01*
X19921496Y6115007D01*
X19929554Y6137529D01*
X19939782Y6159153D01*
X19952079Y6179670D01*
X19966329Y6198883D01*
X19982393Y6216607D01*
X20000117Y6232671D01*
X20019330Y6246921D01*
X20039847Y6259218D01*
X20061471Y6269446D01*
X20083993Y6277504D01*
X20107197Y6283316D01*
X20130858Y6286826D01*
X20154750Y6288000D01*
X20642250Y6288000D01*
X20666142Y6286826D01*
X20666142Y6286826D01*
G37*
D14*
G04 #@! TD*
G04 #@! TO.P,C1,1*
G04 #@! TO.N,VLED1*
X20398500Y5588000D03*
D10*
G04 #@! TO.N,PGND*
G04 #@! TO.C,C1*
G36*
X22541142Y6286826D02*
X22564803Y6283316D01*
X22588007Y6277504D01*
X22610529Y6269446D01*
X22632153Y6259218D01*
X22652670Y6246921D01*
X22671883Y6232671D01*
X22689607Y6216607D01*
X22705671Y6198883D01*
X22719921Y6179670D01*
X22732218Y6159153D01*
X22742446Y6137529D01*
X22750504Y6115007D01*
X22756316Y6091803D01*
X22759826Y6068142D01*
X22761000Y6044250D01*
X22761000Y5131750D01*
X22759826Y5107858D01*
X22756316Y5084197D01*
X22750504Y5060993D01*
X22742446Y5038471D01*
X22732218Y5016847D01*
X22719921Y4996330D01*
X22705671Y4977117D01*
X22689607Y4959393D01*
X22671883Y4943329D01*
X22652670Y4929079D01*
X22632153Y4916782D01*
X22610529Y4906554D01*
X22588007Y4898496D01*
X22564803Y4892684D01*
X22541142Y4889174D01*
X22517250Y4888000D01*
X22029750Y4888000D01*
X22005858Y4889174D01*
X21982197Y4892684D01*
X21958993Y4898496D01*
X21936471Y4906554D01*
X21914847Y4916782D01*
X21894330Y4929079D01*
X21875117Y4943329D01*
X21857393Y4959393D01*
X21841329Y4977117D01*
X21827079Y4996330D01*
X21814782Y5016847D01*
X21804554Y5038471D01*
X21796496Y5060993D01*
X21790684Y5084197D01*
X21787174Y5107858D01*
X21786000Y5131750D01*
X21786000Y6044250D01*
X21787174Y6068142D01*
X21790684Y6091803D01*
X21796496Y6115007D01*
X21804554Y6137529D01*
X21814782Y6159153D01*
X21827079Y6179670D01*
X21841329Y6198883D01*
X21857393Y6216607D01*
X21875117Y6232671D01*
X21894330Y6246921D01*
X21914847Y6259218D01*
X21936471Y6269446D01*
X21958993Y6277504D01*
X21982197Y6283316D01*
X22005858Y6286826D01*
X22029750Y6288000D01*
X22517250Y6288000D01*
X22541142Y6286826D01*
X22541142Y6286826D01*
G37*
D14*
G04 #@! TD*
G04 #@! TO.P,C1,2*
G04 #@! TO.N,PGND*
X22273500Y5588000D03*
D10*
G04 #@! TO.N,VLED2*
G04 #@! TO.C,C2*
G36*
X-21927358Y-5397174D02*
X-21903697Y-5400684D01*
X-21880493Y-5406496D01*
X-21857971Y-5414554D01*
X-21836347Y-5424782D01*
X-21815830Y-5437079D01*
X-21796617Y-5451329D01*
X-21778893Y-5467393D01*
X-21762829Y-5485117D01*
X-21748579Y-5504330D01*
X-21736282Y-5524847D01*
X-21726054Y-5546471D01*
X-21717996Y-5568993D01*
X-21712184Y-5592197D01*
X-21708674Y-5615858D01*
X-21707500Y-5639750D01*
X-21707500Y-6552250D01*
X-21708674Y-6576142D01*
X-21712184Y-6599803D01*
X-21717996Y-6623007D01*
X-21726054Y-6645529D01*
X-21736282Y-6667153D01*
X-21748579Y-6687670D01*
X-21762829Y-6706883D01*
X-21778893Y-6724607D01*
X-21796617Y-6740671D01*
X-21815830Y-6754921D01*
X-21836347Y-6767218D01*
X-21857971Y-6777446D01*
X-21880493Y-6785504D01*
X-21903697Y-6791316D01*
X-21927358Y-6794826D01*
X-21951250Y-6796000D01*
X-22438750Y-6796000D01*
X-22462642Y-6794826D01*
X-22486303Y-6791316D01*
X-22509507Y-6785504D01*
X-22532029Y-6777446D01*
X-22553653Y-6767218D01*
X-22574170Y-6754921D01*
X-22593383Y-6740671D01*
X-22611107Y-6724607D01*
X-22627171Y-6706883D01*
X-22641421Y-6687670D01*
X-22653718Y-6667153D01*
X-22663946Y-6645529D01*
X-22672004Y-6623007D01*
X-22677816Y-6599803D01*
X-22681326Y-6576142D01*
X-22682500Y-6552250D01*
X-22682500Y-5639750D01*
X-22681326Y-5615858D01*
X-22677816Y-5592197D01*
X-22672004Y-5568993D01*
X-22663946Y-5546471D01*
X-22653718Y-5524847D01*
X-22641421Y-5504330D01*
X-22627171Y-5485117D01*
X-22611107Y-5467393D01*
X-22593383Y-5451329D01*
X-22574170Y-5437079D01*
X-22553653Y-5424782D01*
X-22532029Y-5414554D01*
X-22509507Y-5406496D01*
X-22486303Y-5400684D01*
X-22462642Y-5397174D01*
X-22438750Y-5396000D01*
X-21951250Y-5396000D01*
X-21927358Y-5397174D01*
X-21927358Y-5397174D01*
G37*
D14*
G04 #@! TD*
G04 #@! TO.P,C2,1*
G04 #@! TO.N,VLED2*
X-22195000Y-6096000D03*
D10*
G04 #@! TO.N,PGND*
G04 #@! TO.C,C2*
G36*
X-20052358Y-5397174D02*
X-20028697Y-5400684D01*
X-20005493Y-5406496D01*
X-19982971Y-5414554D01*
X-19961347Y-5424782D01*
X-19940830Y-5437079D01*
X-19921617Y-5451329D01*
X-19903893Y-5467393D01*
X-19887829Y-5485117D01*
X-19873579Y-5504330D01*
X-19861282Y-5524847D01*
X-19851054Y-5546471D01*
X-19842996Y-5568993D01*
X-19837184Y-5592197D01*
X-19833674Y-5615858D01*
X-19832500Y-5639750D01*
X-19832500Y-6552250D01*
X-19833674Y-6576142D01*
X-19837184Y-6599803D01*
X-19842996Y-6623007D01*
X-19851054Y-6645529D01*
X-19861282Y-6667153D01*
X-19873579Y-6687670D01*
X-19887829Y-6706883D01*
X-19903893Y-6724607D01*
X-19921617Y-6740671D01*
X-19940830Y-6754921D01*
X-19961347Y-6767218D01*
X-19982971Y-6777446D01*
X-20005493Y-6785504D01*
X-20028697Y-6791316D01*
X-20052358Y-6794826D01*
X-20076250Y-6796000D01*
X-20563750Y-6796000D01*
X-20587642Y-6794826D01*
X-20611303Y-6791316D01*
X-20634507Y-6785504D01*
X-20657029Y-6777446D01*
X-20678653Y-6767218D01*
X-20699170Y-6754921D01*
X-20718383Y-6740671D01*
X-20736107Y-6724607D01*
X-20752171Y-6706883D01*
X-20766421Y-6687670D01*
X-20778718Y-6667153D01*
X-20788946Y-6645529D01*
X-20797004Y-6623007D01*
X-20802816Y-6599803D01*
X-20806326Y-6576142D01*
X-20807500Y-6552250D01*
X-20807500Y-5639750D01*
X-20806326Y-5615858D01*
X-20802816Y-5592197D01*
X-20797004Y-5568993D01*
X-20788946Y-5546471D01*
X-20778718Y-5524847D01*
X-20766421Y-5504330D01*
X-20752171Y-5485117D01*
X-20736107Y-5467393D01*
X-20718383Y-5451329D01*
X-20699170Y-5437079D01*
X-20678653Y-5424782D01*
X-20657029Y-5414554D01*
X-20634507Y-5406496D01*
X-20611303Y-5400684D01*
X-20587642Y-5397174D01*
X-20563750Y-5396000D01*
X-20076250Y-5396000D01*
X-20052358Y-5397174D01*
X-20052358Y-5397174D01*
G37*
D14*
G04 #@! TD*
G04 #@! TO.P,C2,2*
G04 #@! TO.N,PGND*
X-20320000Y-6096000D03*
D15*
G04 #@! TO.P,J1,2*
G04 #@! TO.N,PGND*
X-27940000Y-976000D03*
D16*
G04 #@! TO.P,J1,1*
G04 #@! TO.N,VLED2*
X-27940000Y1524000D03*
D10*
G04 #@! TD*
G04 #@! TO.N,VLED2*
G04 #@! TO.C,J1*
G36*
X-28838773Y678804D02*
X-28885671Y693030D01*
X-28928893Y716133D01*
X-28966777Y747223D01*
X-28997867Y785107D01*
X-29020970Y828329D01*
X-29035196Y875227D01*
X-29040000Y924000D01*
X-29040000Y2124000D01*
X-29035196Y2172773D01*
X-29020970Y2219671D01*
X-28997867Y2262893D01*
X-28966777Y2300777D01*
X-28928893Y2331867D01*
X-28885671Y2354970D01*
X-28838773Y2369196D01*
X-28790000Y2374000D01*
X-27090000Y2374000D01*
X-27041227Y2369196D01*
X-26994329Y2354970D01*
X-26951107Y2331867D01*
X-26913223Y2300777D01*
X-26882133Y2262893D01*
X-26859030Y2219671D01*
X-26844804Y2172773D01*
X-26840000Y2124000D01*
X-26840000Y1324000D01*
X-26844804Y1275227D01*
X-26859030Y1228329D01*
X-26882133Y1185107D01*
X-26913223Y1147223D01*
X-27313223Y747223D01*
X-27351107Y716133D01*
X-27394329Y693030D01*
X-27441227Y678804D01*
X-27490000Y674000D01*
X-28790000Y674000D01*
X-28838773Y678804D01*
X-28838773Y678804D01*
G37*
D16*
G04 #@! TO.P,J2,1*
G04 #@! TO.N,VLED1*
X27940000Y-1016000D03*
D10*
G04 #@! TD*
G04 #@! TO.N,VLED1*
G04 #@! TO.C,J2*
G36*
X28838773Y-170804D02*
X28885671Y-185030D01*
X28928893Y-208133D01*
X28966777Y-239223D01*
X28997867Y-277107D01*
X29020970Y-320329D01*
X29035196Y-367227D01*
X29040000Y-416000D01*
X29040000Y-1616000D01*
X29035196Y-1664773D01*
X29020970Y-1711671D01*
X28997867Y-1754893D01*
X28966777Y-1792777D01*
X28928893Y-1823867D01*
X28885671Y-1846970D01*
X28838773Y-1861196D01*
X28790000Y-1866000D01*
X27090000Y-1866000D01*
X27041227Y-1861196D01*
X26994329Y-1846970D01*
X26951107Y-1823867D01*
X26913223Y-1792777D01*
X26882133Y-1754893D01*
X26859030Y-1711671D01*
X26844804Y-1664773D01*
X26840000Y-1616000D01*
X26840000Y-816000D01*
X26844804Y-767227D01*
X26859030Y-720329D01*
X26882133Y-677107D01*
X26913223Y-639223D01*
X27313223Y-239223D01*
X27351107Y-208133D01*
X27394329Y-185030D01*
X27441227Y-170804D01*
X27490000Y-166000D01*
X28790000Y-166000D01*
X28838773Y-170804D01*
X28838773Y-170804D01*
G37*
D15*
G04 #@! TO.P,J2,2*
G04 #@! TO.N,PGND*
X27940000Y1484000D03*
G04 #@! TD*
D17*
G04 #@! TO.P,D4,*
G04 #@! TO.N,*
X-10547000Y-24216000D03*
X-2547000Y-24216000D03*
X-2547000Y-16216000D03*
X-10547000Y-16216000D03*
G04 #@! TD*
G04 #@! TO.P,D9,*
G04 #@! TO.N,*
X2515000Y16227000D03*
X10515000Y16227000D03*
X10515000Y24227000D03*
X2515000Y24227000D03*
G04 #@! TD*
G04 #@! TO.P,D8,*
G04 #@! TO.N,*
X-10612000Y16195000D03*
X-2612000Y16195000D03*
X-2612000Y24195000D03*
X-10612000Y24195000D03*
G04 #@! TD*
G04 #@! TO.P,D3,*
G04 #@! TO.N,*
X2579000Y-24206000D03*
X10579000Y-24206000D03*
X10579000Y-16206000D03*
X2579000Y-16206000D03*
G04 #@! TD*
G04 #@! TO.P,D2,*
G04 #@! TO.N,*
X13196000Y-16485000D03*
X21196000Y-16485000D03*
X21196000Y-8485000D03*
X13196000Y-8485000D03*
G04 #@! TD*
G04 #@! TO.P,D1,*
G04 #@! TO.N,*
X17250000Y-4000000D03*
X25250000Y-4000000D03*
X25250000Y4000000D03*
X17250000Y4000000D03*
G04 #@! TD*
G04 #@! TO.P,D5,*
G04 #@! TO.N,*
X-21176000Y-16512000D03*
X-13176000Y-16512000D03*
X-13176000Y-8512000D03*
X-21176000Y-8512000D03*
G04 #@! TD*
G04 #@! TO.P,D6,*
G04 #@! TO.N,*
X-25250000Y-4000000D03*
X-17250000Y-4000000D03*
X-17250000Y4000000D03*
X-25250000Y4000000D03*
G04 #@! TD*
G04 #@! TO.P,D7,*
G04 #@! TO.N,*
X-21216000Y8458000D03*
X-13216000Y8458000D03*
X-13216000Y16458000D03*
X-21216000Y16458000D03*
G04 #@! TD*
G04 #@! TO.P,D10,*
G04 #@! TO.N,*
X13156000Y8540000D03*
X21156000Y8540000D03*
X21156000Y16540000D03*
X13156000Y16540000D03*
G04 #@! TD*
D18*
G04 #@! TO.P,J11,1*
G04 #@! TO.N,Net-(J11-Pad1)*
X-24835000Y-8109000D03*
G04 #@! TD*
G04 #@! TO.P,J10,1*
G04 #@! TO.N,Net-(J10-Pad1)*
X0Y-26125000D03*
G04 #@! TD*
G04 #@! TO.P,J9,1*
G04 #@! TO.N,Net-(J9-Pad1)*
X0Y26125000D03*
G04 #@! TD*
G04 #@! TO.P,J8,1*
G04 #@! TO.N,Net-(J8-Pad1)*
X-15400000Y21104000D03*
G04 #@! TD*
G04 #@! TO.P,J7,1*
G04 #@! TO.N,Net-(J7-Pad1)*
X15433000Y-21079000D03*
G04 #@! TD*
G04 #@! TO.P,J6,1*
G04 #@! TO.N,Net-(J6-Pad1)*
X-24860500Y8029500D03*
G04 #@! TD*
G04 #@! TO.P,J5,1*
G04 #@! TO.N,Net-(J5-Pad1)*
X15299000Y21177000D03*
G04 #@! TD*
G04 #@! TO.P,J4,1*
G04 #@! TO.N,Net-(J4-Pad1)*
X-15332000Y-21153000D03*
G04 #@! TD*
G04 #@! TO.P,J3,1*
G04 #@! TO.N,Net-(J3-Pad1)*
X24873000Y-7990000D03*
G04 #@! TD*
G04 #@! TO.P,J12,1*
G04 #@! TO.N,Net-(J12-Pad1)*
X24821000Y8148000D03*
G04 #@! TD*
D19*
G04 #@! TO.N,VLED2*
X-23950000Y0D03*
G04 #@! TO.N,VLED1*
X19850000Y2160002D03*
G04 #@! TO.N,Net-(D5-Pad1)*
X-17272000Y-8636000D03*
X-16764000Y7620000D03*
X-17272000Y-9652000D03*
X-16475998Y-9652000D03*
X-17780000Y-9144000D03*
G04 #@! TD*
D20*
G04 #@! TO.N,PGND*
X22273500Y3985500D02*
X21844000Y3556000D01*
X22273500Y5588000D02*
X22273500Y3985500D01*
X27940000Y3334000D02*
X27940000Y1484000D01*
X27940000Y3382002D02*
X27940000Y3334000D01*
X25734002Y5588000D02*
X27940000Y3382002D01*
X22273500Y5588000D02*
X25734002Y5588000D01*
X27839999Y1584001D02*
X27940000Y1484000D01*
X24868631Y1584001D02*
X27839999Y1584001D01*
X19336000Y-3948630D02*
X24868631Y1584001D01*
X19336000Y-5080000D02*
X19336000Y-3948630D01*
X-20320000Y-6096000D02*
X-20320000Y-4064000D01*
X-27940000Y-2826000D02*
X-27940000Y-976000D01*
X-25953401Y-10439001D02*
X-27940000Y-8452402D01*
X-21030999Y-10439001D02*
X-25953401Y-10439001D01*
X-19775999Y-9184001D02*
X-21030999Y-10439001D01*
X-27940000Y-8452402D02*
X-27940000Y-2826000D01*
X-19775999Y-4608001D02*
X-19775999Y-9184001D01*
X-20320000Y-4064000D02*
X-19775999Y-4608001D01*
X-19844000Y-3588000D02*
X-20320000Y-4064000D01*
X-19844000Y5588000D02*
X-19844000Y-3588000D01*
G04 #@! TO.N,VLED2*
X-22195000Y-4364000D02*
X-21895000Y-4064000D01*
X-22195000Y-6096000D02*
X-22195000Y-4364000D01*
X-21895000Y-4064000D02*
X-21895000Y-2055000D01*
X-21895000Y-2055000D02*
X-23950000Y0D01*
G04 #@! TO.N,VLED1*
X20398500Y3685500D02*
X20269000Y3556000D01*
X20398500Y5588000D02*
X20398500Y3685500D01*
X20269000Y3556000D02*
X20269000Y2579002D01*
X20269000Y2579002D02*
X19850000Y2160002D01*
G04 #@! TO.N,Net-(D5-Pad1)*
X-15849999Y6705999D02*
X-16764000Y7620000D01*
X-17272000Y-8636000D02*
X-15849999Y-7213999D01*
X-15849999Y-7213999D02*
X-15849999Y6705999D01*
X-17272000Y-9652000D02*
X-17272000Y-8636000D01*
X-17780000Y-9144000D02*
X-17272000Y-8636000D01*
X-17272000Y-8855998D02*
X-16475998Y-9652000D01*
X-17272000Y-8636000D02*
X-17272000Y-8855998D01*
G04 #@! TD*
D21*
G04 #@! TO.N,PGND*
G36*
X1992168Y29222173D02*
X4076380Y29004952D01*
X6139728Y28639271D01*
X8171649Y28127002D01*
X10161745Y27470767D01*
X12099829Y26673924D01*
X13975980Y25740553D01*
X15780596Y24675431D01*
X17504441Y23484009D01*
X19138689Y22172385D01*
X20674978Y20747274D01*
X22105444Y19215969D01*
X23422764Y17586308D01*
X24620196Y15866633D01*
X25691611Y14065746D01*
X26631526Y12192864D01*
X27435128Y10257574D01*
X28098306Y8269781D01*
X28617665Y6239660D01*
X28990546Y4177601D01*
X29162090Y2585571D01*
X28863774Y2818907D01*
X28301639Y2975135D01*
X28067000Y2815491D01*
X28067000Y1611000D01*
X28087000Y1611000D01*
X28087000Y1357000D01*
X28067000Y1357000D01*
X28067000Y1337000D01*
X27813000Y1337000D01*
X27813000Y1357000D01*
X27246706Y1357000D01*
X26855602Y1519000D01*
X26344398Y1519000D01*
X25872106Y1323371D01*
X25510629Y961894D01*
X25315000Y489602D01*
X25315000Y-21602D01*
X25510629Y-493894D01*
X25872106Y-855371D01*
X26192560Y-988107D01*
X26192560Y-1616000D01*
X26195678Y-1679464D01*
X26200482Y-1728237D01*
X26225241Y-1852711D01*
X26239467Y-1899609D01*
X26288041Y-2016876D01*
X26311144Y-2060098D01*
X26381651Y-2165620D01*
X26412741Y-2203504D01*
X26502496Y-2293259D01*
X26540380Y-2324349D01*
X26645902Y-2394856D01*
X26689124Y-2417959D01*
X26806391Y-2466533D01*
X26853289Y-2480759D01*
X26977763Y-2505518D01*
X27026536Y-2510322D01*
X27090000Y-2513440D01*
X28790000Y-2513440D01*
X28853464Y-2510322D01*
X28902237Y-2505518D01*
X29026711Y-2480759D01*
X29073609Y-2466533D01*
X29172165Y-2425710D01*
X29046048Y-3772423D01*
X28701995Y-5839487D01*
X28211032Y-7876662D01*
X27575672Y-9873520D01*
X26799169Y-11819842D01*
X25885495Y-13705664D01*
X24839329Y-15521335D01*
X23666024Y-17257561D01*
X22371586Y-18905456D01*
X20962640Y-20456584D01*
X19446399Y-21903006D01*
X17830622Y-23237319D01*
X16123581Y-24452694D01*
X14334012Y-25542909D01*
X12471075Y-26502384D01*
X10544307Y-27326209D01*
X8563567Y-28010166D01*
X6538996Y-28550755D01*
X4480955Y-28945209D01*
X2399979Y-29191509D01*
X306719Y-29288394D01*
X-1788112Y-29235368D01*
X-3873790Y-29032703D01*
X-5939640Y-28681436D01*
X-7975088Y-28183365D01*
X-9969717Y-27541039D01*
X-11913316Y-26757746D01*
X-13795938Y-25837496D01*
X-15607946Y-24784998D01*
X-16833640Y-23950452D01*
X-11882000Y-23950452D01*
X-11882000Y-24481548D01*
X-11678758Y-24972217D01*
X-11303217Y-25347758D01*
X-10812548Y-25551000D01*
X-10281452Y-25551000D01*
X-9790783Y-25347758D01*
X-9415242Y-24972217D01*
X-9212000Y-24481548D01*
X-9212000Y-23950452D01*
X-3882000Y-23950452D01*
X-3882000Y-24481548D01*
X-3678758Y-24972217D01*
X-3303217Y-25347758D01*
X-2812548Y-25551000D01*
X-2281452Y-25551000D01*
X-2199861Y-25517204D01*
X-2265000Y-25674463D01*
X-2265000Y-26575537D01*
X-1920174Y-27408019D01*
X-1283019Y-28045174D01*
X-450537Y-28390000D01*
X450537Y-28390000D01*
X1283019Y-28045174D01*
X1920174Y-27408019D01*
X2265000Y-26575537D01*
X2265000Y-25674463D01*
X2188234Y-25489133D01*
X2313452Y-25541000D01*
X2844548Y-25541000D01*
X3335217Y-25337758D01*
X3710758Y-24962217D01*
X3914000Y-24471548D01*
X3914000Y-23940452D01*
X9244000Y-23940452D01*
X9244000Y-24471548D01*
X9447242Y-24962217D01*
X9822783Y-25337758D01*
X10313452Y-25541000D01*
X10844548Y-25541000D01*
X11335217Y-25337758D01*
X11710758Y-24962217D01*
X11914000Y-24471548D01*
X11914000Y-23940452D01*
X11710758Y-23449783D01*
X11335217Y-23074242D01*
X10844548Y-22871000D01*
X10313452Y-22871000D01*
X9822783Y-23074242D01*
X9447242Y-23449783D01*
X9244000Y-23940452D01*
X3914000Y-23940452D01*
X3710758Y-23449783D01*
X3335217Y-23074242D01*
X2844548Y-22871000D01*
X2313452Y-22871000D01*
X1822783Y-23074242D01*
X1447242Y-23449783D01*
X1244000Y-23940452D01*
X1244000Y-24188664D01*
X450537Y-23860000D01*
X-450537Y-23860000D01*
X-1212000Y-24175409D01*
X-1212000Y-23950452D01*
X-1415242Y-23459783D01*
X-1790783Y-23084242D01*
X-2281452Y-22881000D01*
X-2812548Y-22881000D01*
X-3303217Y-23084242D01*
X-3678758Y-23459783D01*
X-3882000Y-23950452D01*
X-9212000Y-23950452D01*
X-9415242Y-23459783D01*
X-9790783Y-23084242D01*
X-10281452Y-22881000D01*
X-10812548Y-22881000D01*
X-11303217Y-23084242D01*
X-11678758Y-23459783D01*
X-11882000Y-23950452D01*
X-16833640Y-23950452D01*
X-17340066Y-23605639D01*
X-18983432Y-22305457D01*
X-20529632Y-20891106D01*
X-20708334Y-20702463D01*
X-17597000Y-20702463D01*
X-17597000Y-21603537D01*
X-17252174Y-22436019D01*
X-16615019Y-23073174D01*
X-15782537Y-23418000D01*
X-14881463Y-23418000D01*
X-14048981Y-23073174D01*
X-13411826Y-22436019D01*
X-13067000Y-21603537D01*
X-13067000Y-20702463D01*
X-13097651Y-20628463D01*
X13168000Y-20628463D01*
X13168000Y-21529537D01*
X13512826Y-22362019D01*
X14149981Y-22999174D01*
X14982463Y-23344000D01*
X15883537Y-23344000D01*
X16716019Y-22999174D01*
X17353174Y-22362019D01*
X17698000Y-21529537D01*
X17698000Y-20628463D01*
X17353174Y-19795981D01*
X16716019Y-19158826D01*
X15883537Y-18814000D01*
X14982463Y-18814000D01*
X14149981Y-19158826D01*
X13512826Y-19795981D01*
X13168000Y-20628463D01*
X-13097651Y-20628463D01*
X-13411826Y-19869981D01*
X-14048981Y-19232826D01*
X-14881463Y-18888000D01*
X-15782537Y-18888000D01*
X-16615019Y-19232826D01*
X-17252174Y-19869981D01*
X-17597000Y-20702463D01*
X-20708334Y-20702463D01*
X-21970753Y-19369825D01*
X-23299418Y-17749400D01*
X-24361597Y-16246452D01*
X-22511000Y-16246452D01*
X-22511000Y-16777548D01*
X-22307758Y-17268217D01*
X-21932217Y-17643758D01*
X-21441548Y-17847000D01*
X-20910452Y-17847000D01*
X-20419783Y-17643758D01*
X-20044242Y-17268217D01*
X-19841000Y-16777548D01*
X-19841000Y-16246452D01*
X-14511000Y-16246452D01*
X-14511000Y-16777548D01*
X-14307758Y-17268217D01*
X-13932217Y-17643758D01*
X-13441548Y-17847000D01*
X-12910452Y-17847000D01*
X-12419783Y-17643758D01*
X-12044242Y-17268217D01*
X-11841000Y-16777548D01*
X-11841000Y-16580531D01*
X-11678758Y-16972217D01*
X-11303217Y-17347758D01*
X-10812548Y-17551000D01*
X-10281452Y-17551000D01*
X-9790783Y-17347758D01*
X-9415242Y-16972217D01*
X-9212000Y-16481548D01*
X-9212000Y-15950452D01*
X-3882000Y-15950452D01*
X-3882000Y-16481548D01*
X-3678758Y-16972217D01*
X-3303217Y-17347758D01*
X-2812548Y-17551000D01*
X-2281452Y-17551000D01*
X-1790783Y-17347758D01*
X-1415242Y-16972217D01*
X-1212000Y-16481548D01*
X-1212000Y-15950452D01*
X-1216142Y-15940452D01*
X1244000Y-15940452D01*
X1244000Y-16471548D01*
X1447242Y-16962217D01*
X1822783Y-17337758D01*
X2313452Y-17541000D01*
X2844548Y-17541000D01*
X3335217Y-17337758D01*
X3710758Y-16962217D01*
X3914000Y-16471548D01*
X3914000Y-15940452D01*
X9244000Y-15940452D01*
X9244000Y-16471548D01*
X9447242Y-16962217D01*
X9822783Y-17337758D01*
X10313452Y-17541000D01*
X10844548Y-17541000D01*
X11335217Y-17337758D01*
X11710758Y-16962217D01*
X11861000Y-16599501D01*
X11861000Y-16750548D01*
X12064242Y-17241217D01*
X12439783Y-17616758D01*
X12930452Y-17820000D01*
X13461548Y-17820000D01*
X13952217Y-17616758D01*
X14327758Y-17241217D01*
X14531000Y-16750548D01*
X14531000Y-16219452D01*
X19861000Y-16219452D01*
X19861000Y-16750548D01*
X20064242Y-17241217D01*
X20439783Y-17616758D01*
X20930452Y-17820000D01*
X21461548Y-17820000D01*
X21952217Y-17616758D01*
X22327758Y-17241217D01*
X22531000Y-16750548D01*
X22531000Y-16219452D01*
X22327758Y-15728783D01*
X21952217Y-15353242D01*
X21461548Y-15150000D01*
X20930452Y-15150000D01*
X20439783Y-15353242D01*
X20064242Y-15728783D01*
X19861000Y-16219452D01*
X14531000Y-16219452D01*
X14327758Y-15728783D01*
X13952217Y-15353242D01*
X13461548Y-15150000D01*
X12930452Y-15150000D01*
X12439783Y-15353242D01*
X12064242Y-15728783D01*
X11914000Y-16091499D01*
X11914000Y-15940452D01*
X11710758Y-15449783D01*
X11335217Y-15074242D01*
X10844548Y-14871000D01*
X10313452Y-14871000D01*
X9822783Y-15074242D01*
X9447242Y-15449783D01*
X9244000Y-15940452D01*
X3914000Y-15940452D01*
X3710758Y-15449783D01*
X3335217Y-15074242D01*
X2844548Y-14871000D01*
X2313452Y-14871000D01*
X1822783Y-15074242D01*
X1447242Y-15449783D01*
X1244000Y-15940452D01*
X-1216142Y-15940452D01*
X-1415242Y-15459783D01*
X-1790783Y-15084242D01*
X-2281452Y-14881000D01*
X-2812548Y-14881000D01*
X-3303217Y-15084242D01*
X-3678758Y-15459783D01*
X-3882000Y-15950452D01*
X-9212000Y-15950452D01*
X-9415242Y-15459783D01*
X-9790783Y-15084242D01*
X-10281452Y-14881000D01*
X-10812548Y-14881000D01*
X-11303217Y-15084242D01*
X-11678758Y-15459783D01*
X-11882000Y-15950452D01*
X-11882000Y-16147469D01*
X-12044242Y-15755783D01*
X-12419783Y-15380242D01*
X-12910452Y-15177000D01*
X-13441548Y-15177000D01*
X-13932217Y-15380242D01*
X-14307758Y-15755783D01*
X-14511000Y-16246452D01*
X-19841000Y-16246452D01*
X-20044242Y-15755783D01*
X-20419783Y-15380242D01*
X-20910452Y-15177000D01*
X-21441548Y-15177000D01*
X-21932217Y-15380242D01*
X-22307758Y-15755783D01*
X-22511000Y-16246452D01*
X-24361597Y-16246452D01*
X-24508827Y-16038127D01*
X-25592788Y-14244763D01*
X-26545755Y-12378489D01*
X-27362849Y-10448856D01*
X-28039888Y-8465741D01*
X-28252426Y-7658463D01*
X-27100000Y-7658463D01*
X-27100000Y-8559537D01*
X-26755174Y-9392019D01*
X-26118019Y-10029174D01*
X-25285537Y-10374000D01*
X-24384463Y-10374000D01*
X-23551981Y-10029174D01*
X-22914826Y-9392019D01*
X-22570000Y-8559537D01*
X-22570000Y-7658463D01*
X-22678848Y-7395681D01*
X-22438750Y-7443440D01*
X-21995415Y-7443440D01*
X-22307758Y-7755783D01*
X-22511000Y-8246452D01*
X-22511000Y-8777548D01*
X-22307758Y-9268217D01*
X-21932217Y-9643758D01*
X-21441548Y-9847000D01*
X-20910452Y-9847000D01*
X-20419783Y-9643758D01*
X-20044242Y-9268217D01*
X-19992790Y-9144000D01*
X-18937235Y-9144000D01*
X-18849146Y-9586854D01*
X-18598288Y-9962288D01*
X-18293765Y-10165764D01*
X-18090289Y-10470289D01*
X-17714855Y-10721146D01*
X-17272000Y-10809235D01*
X-16873999Y-10730068D01*
X-16475998Y-10809235D01*
X-16033144Y-10721146D01*
X-15657710Y-10470288D01*
X-15406852Y-10094854D01*
X-15318763Y-9652000D01*
X-15406852Y-9209145D01*
X-15594390Y-8928476D01*
X-15776867Y-8745999D01*
X-15126478Y-8095610D01*
X-15031710Y-8032288D01*
X-14780853Y-7656854D01*
X-14744887Y-7476040D01*
X-14692764Y-7214000D01*
X-14714999Y-7102217D01*
X-14714999Y770909D01*
X-14709813Y770909D01*
X-14708445Y-796581D01*
X-14540517Y-2355050D01*
X-14207931Y-3886850D01*
X-13714452Y-5374635D01*
X-13065670Y-6801557D01*
X-12822597Y-7213391D01*
X-12910452Y-7177000D01*
X-13441548Y-7177000D01*
X-13932217Y-7380242D01*
X-14307758Y-7755783D01*
X-14511000Y-8246452D01*
X-14511000Y-8777548D01*
X-14307758Y-9268217D01*
X-13932217Y-9643758D01*
X-13441548Y-9847000D01*
X-12910452Y-9847000D01*
X-12419783Y-9643758D01*
X-12044242Y-9268217D01*
X-11841000Y-8777548D01*
X-11841000Y-8726616D01*
X-11333255Y-9409050D01*
X-10269242Y-10560093D01*
X-9088938Y-11591553D01*
X-7805711Y-12491748D01*
X-6434090Y-13250486D01*
X-4989610Y-13859174D01*
X-3488626Y-14310919D01*
X-1948137Y-14600605D01*
X-385586Y-14724952D01*
X1181330Y-14682553D01*
X2734869Y-14473886D01*
X4257438Y-14101316D01*
X5731796Y-13569061D01*
X7141246Y-12883148D01*
X8469827Y-12051345D01*
X9702496Y-11083072D01*
X10825292Y-9989292D01*
X11825501Y-8782392D01*
X11861000Y-8728860D01*
X11861000Y-8750548D01*
X12064242Y-9241217D01*
X12439783Y-9616758D01*
X12930452Y-9820000D01*
X13461548Y-9820000D01*
X13952217Y-9616758D01*
X14327758Y-9241217D01*
X14531000Y-8750548D01*
X14531000Y-8219452D01*
X19861000Y-8219452D01*
X19861000Y-8750548D01*
X20064242Y-9241217D01*
X20439783Y-9616758D01*
X20930452Y-9820000D01*
X21461548Y-9820000D01*
X21952217Y-9616758D01*
X22327758Y-9241217D01*
X22531000Y-8750548D01*
X22531000Y-8219452D01*
X22327758Y-7728783D01*
X22138438Y-7539463D01*
X22608000Y-7539463D01*
X22608000Y-8440537D01*
X22952826Y-9273019D01*
X23589981Y-9910174D01*
X24422463Y-10255000D01*
X25323537Y-10255000D01*
X26156019Y-9910174D01*
X26793174Y-9273019D01*
X27138000Y-8440537D01*
X27138000Y-7539463D01*
X26793174Y-6706981D01*
X26156019Y-6069826D01*
X25323537Y-5725000D01*
X24422463Y-5725000D01*
X23589981Y-6069826D01*
X22952826Y-6706981D01*
X22608000Y-7539463D01*
X22138438Y-7539463D01*
X21952217Y-7353242D01*
X21461548Y-7150000D01*
X20930452Y-7150000D01*
X20439783Y-7353242D01*
X20064242Y-7728783D01*
X19861000Y-8219452D01*
X14531000Y-8219452D01*
X14327758Y-7728783D01*
X13952217Y-7353242D01*
X13461548Y-7150000D01*
X12930452Y-7150000D01*
X12842166Y-7186569D01*
X13414370Y-6085028D01*
X13985037Y-4625109D01*
X14227858Y-3734452D01*
X15915000Y-3734452D01*
X15915000Y-4265548D01*
X16118242Y-4756217D01*
X16493783Y-5131758D01*
X16984452Y-5335000D01*
X17515548Y-5335000D01*
X17903859Y-5174156D01*
X17916222Y-5433454D01*
X18082136Y-5834005D01*
X18328255Y-5908139D01*
X19156395Y-5080000D01*
X19142252Y-5065858D01*
X19321858Y-4886252D01*
X19336000Y-4900395D01*
X19350142Y-4886252D01*
X19529748Y-5065858D01*
X19515605Y-5080000D01*
X19529748Y-5094143D01*
X19350142Y-5273748D01*
X19336000Y-5259605D01*
X18507861Y-6087745D01*
X18581995Y-6333864D01*
X19119223Y-6526965D01*
X19689454Y-6499778D01*
X20079067Y-6338395D01*
X20288235Y-6478157D01*
X20536000Y-6527440D01*
X22136000Y-6527440D01*
X22383765Y-6478157D01*
X22593809Y-6337809D01*
X22734157Y-6127765D01*
X22783440Y-5880000D01*
X22783440Y-4280000D01*
X22734157Y-4032235D01*
X22593809Y-3822191D01*
X22462500Y-3734452D01*
X23915000Y-3734452D01*
X23915000Y-4265548D01*
X24118242Y-4756217D01*
X24493783Y-5131758D01*
X24984452Y-5335000D01*
X25515548Y-5335000D01*
X26006217Y-5131758D01*
X26381758Y-4756217D01*
X26585000Y-4265548D01*
X26585000Y-3734452D01*
X26381758Y-3243783D01*
X26006217Y-2868242D01*
X25515548Y-2665000D01*
X24984452Y-2665000D01*
X24493783Y-2868242D01*
X24118242Y-3243783D01*
X23915000Y-3734452D01*
X22462500Y-3734452D01*
X22383765Y-3681843D01*
X22136000Y-3632560D01*
X20536000Y-3632560D01*
X20288235Y-3681843D01*
X20078484Y-3821995D01*
X19552777Y-3633035D01*
X18982546Y-3660222D01*
X18585000Y-3824891D01*
X18585000Y-3734452D01*
X18381758Y-3243783D01*
X18006217Y-2868242D01*
X17515548Y-2665000D01*
X16984452Y-2665000D01*
X16493783Y-2868242D01*
X16118242Y-3243783D01*
X15915000Y-3734452D01*
X14227858Y-3734452D01*
X14397336Y-3112814D01*
X14646598Y-1565270D01*
X14730000Y0D01*
X14729978Y25709D01*
X14643844Y1590831D01*
X14551149Y2160002D01*
X18692765Y2160002D01*
X18780854Y1717148D01*
X19031712Y1341714D01*
X19407146Y1090856D01*
X19850000Y1002767D01*
X20292854Y1090856D01*
X20573523Y1278394D01*
X20992520Y1697391D01*
X21087289Y1760713D01*
X21140861Y1840890D01*
X26248524Y1840890D01*
X26369845Y1611000D01*
X27813000Y1611000D01*
X27813000Y2815491D01*
X27578361Y2975135D01*
X27016226Y2818907D01*
X26556667Y2459451D01*
X26269648Y1951491D01*
X26248524Y1840890D01*
X21140861Y1840890D01*
X21338146Y2136147D01*
X21399779Y2446000D01*
X21558250Y2446000D01*
X21717000Y2604750D01*
X21717000Y3429000D01*
X21971000Y3429000D01*
X21971000Y2604750D01*
X22129750Y2446000D01*
X22407809Y2446000D01*
X22641198Y2542673D01*
X22819827Y2721301D01*
X22916500Y2954690D01*
X22916500Y3270250D01*
X22757750Y3429000D01*
X21971000Y3429000D01*
X21717000Y3429000D01*
X21697000Y3429000D01*
X21697000Y3683000D01*
X21717000Y3683000D01*
X21717000Y3703000D01*
X21971000Y3703000D01*
X21971000Y3683000D01*
X22757750Y3683000D01*
X22916500Y3841750D01*
X22916500Y4157310D01*
X22876864Y4253000D01*
X22887309Y4253000D01*
X22917602Y4265548D01*
X23915000Y4265548D01*
X23915000Y3734452D01*
X24118242Y3243783D01*
X24493783Y2868242D01*
X24984452Y2665000D01*
X25515548Y2665000D01*
X26006217Y2868242D01*
X26381758Y3243783D01*
X26585000Y3734452D01*
X26585000Y4265548D01*
X26381758Y4756217D01*
X26006217Y5131758D01*
X25515548Y5335000D01*
X24984452Y5335000D01*
X24493783Y5131758D01*
X24118242Y4756217D01*
X23915000Y4265548D01*
X22917602Y4265548D01*
X23120698Y4349673D01*
X23299327Y4528301D01*
X23396000Y4761690D01*
X23396000Y5302250D01*
X23237250Y5461000D01*
X22400500Y5461000D01*
X22400500Y5441000D01*
X22146500Y5441000D01*
X22146500Y5461000D01*
X22126500Y5461000D01*
X22126500Y5715000D01*
X22146500Y5715000D01*
X22146500Y6764250D01*
X22400500Y6764250D01*
X22400500Y5715000D01*
X23237250Y5715000D01*
X23396000Y5873750D01*
X23396000Y6369807D01*
X23537981Y6227826D01*
X24370463Y5883000D01*
X25271537Y5883000D01*
X26104019Y6227826D01*
X26741174Y6864981D01*
X27086000Y7697463D01*
X27086000Y8598537D01*
X26741174Y9431019D01*
X26104019Y10068174D01*
X25271537Y10413000D01*
X24370463Y10413000D01*
X23537981Y10068174D01*
X22900826Y9431019D01*
X22556000Y8598537D01*
X22556000Y7697463D01*
X22876794Y6923000D01*
X22559250Y6923000D01*
X22400500Y6764250D01*
X22146500Y6764250D01*
X21987750Y6923000D01*
X21659691Y6923000D01*
X21426302Y6826327D01*
X21273207Y6673233D01*
X21272416Y6674416D01*
X20983294Y6867602D01*
X20642250Y6935440D01*
X20154750Y6935440D01*
X19813706Y6867602D01*
X19524584Y6674416D01*
X19331398Y6385294D01*
X19263560Y6044250D01*
X19263560Y5700084D01*
X19263500Y5699782D01*
X19263501Y4163940D01*
X19249995Y4143727D01*
X19230217Y4044295D01*
X19199855Y3998855D01*
X19199854Y3998854D01*
X19111765Y3556000D01*
X19134000Y3444217D01*
X19134000Y3049133D01*
X18968392Y2883525D01*
X18780854Y2602856D01*
X18692765Y2160002D01*
X14551149Y2160002D01*
X14391881Y3137938D01*
X14082345Y4265548D01*
X15915000Y4265548D01*
X15915000Y3734452D01*
X16118242Y3243783D01*
X16493783Y2868242D01*
X16984452Y2665000D01*
X17515548Y2665000D01*
X18006217Y2868242D01*
X18381758Y3243783D01*
X18585000Y3734452D01*
X18585000Y4265548D01*
X18381758Y4756217D01*
X18006217Y5131758D01*
X17515548Y5335000D01*
X16984452Y5335000D01*
X16493783Y5131758D01*
X16118242Y4756217D01*
X15915000Y4265548D01*
X14082345Y4265548D01*
X13976944Y4649510D01*
X13403730Y6108431D01*
X12815473Y7236057D01*
X12890452Y7205000D01*
X13421548Y7205000D01*
X13912217Y7408242D01*
X14287758Y7783783D01*
X14491000Y8274452D01*
X14491000Y8805548D01*
X19821000Y8805548D01*
X19821000Y8274452D01*
X20024242Y7783783D01*
X20399783Y7408242D01*
X20890452Y7205000D01*
X21421548Y7205000D01*
X21912217Y7408242D01*
X22287758Y7783783D01*
X22491000Y8274452D01*
X22491000Y8805548D01*
X22287758Y9296217D01*
X21912217Y9671758D01*
X21421548Y9875000D01*
X20890452Y9875000D01*
X20399783Y9671758D01*
X20024242Y9296217D01*
X19821000Y8805548D01*
X14491000Y8805548D01*
X14287758Y9296217D01*
X13912217Y9671758D01*
X13421548Y9875000D01*
X12890452Y9875000D01*
X12399783Y9671758D01*
X12024242Y9296217D01*
X11821000Y8805548D01*
X11821000Y8786726D01*
X11810155Y8803018D01*
X10807841Y10008170D01*
X9683137Y11099989D01*
X8448781Y12066110D01*
X7118750Y12895592D01*
X5708105Y13579044D01*
X4232820Y14108725D01*
X2709603Y14478638D01*
X1155702Y14684592D01*
X-411286Y14724257D01*
X-1973617Y14597183D01*
X-3513598Y14304808D01*
X-5013791Y13850444D01*
X-6457207Y13239236D01*
X-7827501Y12478106D01*
X-9109156Y11575672D01*
X-10287657Y10542154D01*
X-11349660Y9389255D01*
X-11881000Y8672499D01*
X-11881000Y8723548D01*
X-12084242Y9214217D01*
X-12459783Y9589758D01*
X-12950452Y9793000D01*
X-13481548Y9793000D01*
X-13972217Y9589758D01*
X-14347758Y9214217D01*
X-14551000Y8723548D01*
X-14551000Y8192452D01*
X-14347758Y7701783D01*
X-13972217Y7326242D01*
X-13481548Y7123000D01*
X-12950452Y7123000D01*
X-12850901Y7164235D01*
X-13077521Y6778743D01*
X-13723812Y5350691D01*
X-14214693Y3862047D01*
X-14544605Y2329668D01*
X-14709813Y770909D01*
X-14714999Y770909D01*
X-14714999Y6594216D01*
X-14692764Y6705999D01*
X-14780853Y7148854D01*
X-14954171Y7408242D01*
X-15031710Y7524288D01*
X-15126478Y7587610D01*
X-16040477Y8501608D01*
X-16321146Y8689146D01*
X-16764000Y8777235D01*
X-17206854Y8689146D01*
X-17582288Y8438288D01*
X-17833146Y8062854D01*
X-17921235Y7620000D01*
X-17833146Y7177146D01*
X-17645608Y6896477D01*
X-16984998Y6235866D01*
X-16984998Y5335000D01*
X-17515548Y5335000D01*
X-18006217Y5131758D01*
X-18381758Y4756217D01*
X-18585000Y4265548D01*
X-18585000Y3734452D01*
X-18381758Y3243783D01*
X-18006217Y2868242D01*
X-17515548Y2665000D01*
X-16984998Y2665000D01*
X-16984999Y-2665000D01*
X-17515548Y-2665000D01*
X-18006217Y-2868242D01*
X-18381758Y-3243783D01*
X-18585000Y-3734452D01*
X-18585000Y-4265548D01*
X-18381758Y-4756217D01*
X-18006217Y-5131758D01*
X-17515548Y-5335000D01*
X-16984999Y-5335000D01*
X-16984999Y-6743867D01*
X-17995518Y-7754387D01*
X-18090289Y-7817711D01*
X-18153609Y-7912477D01*
X-18661608Y-8420477D01*
X-18849146Y-8701146D01*
X-18937235Y-9144000D01*
X-19992790Y-9144000D01*
X-19841000Y-8777548D01*
X-19841000Y-8246452D01*
X-20044242Y-7755783D01*
X-20419783Y-7380242D01*
X-20515390Y-7340640D01*
X-20447000Y-7272250D01*
X-20447000Y-6223000D01*
X-20193000Y-6223000D01*
X-20193000Y-7272250D01*
X-20034250Y-7431000D01*
X-19706191Y-7431000D01*
X-19472802Y-7334327D01*
X-19294173Y-7155699D01*
X-19197500Y-6922310D01*
X-19197500Y-6381750D01*
X-19356250Y-6223000D01*
X-20193000Y-6223000D01*
X-20447000Y-6223000D01*
X-20467000Y-6223000D01*
X-20467000Y-5969000D01*
X-20447000Y-5969000D01*
X-20447000Y-4191000D01*
X-20193000Y-4191000D01*
X-20193000Y-5969000D01*
X-19356250Y-5969000D01*
X-19197500Y-5810250D01*
X-19197500Y-5269690D01*
X-19294173Y-5036301D01*
X-19387974Y-4942500D01*
X-19344173Y-4898699D01*
X-19247500Y-4665310D01*
X-19247500Y-4349750D01*
X-19406250Y-4191000D01*
X-20193000Y-4191000D01*
X-20447000Y-4191000D01*
X-20467000Y-4191000D01*
X-20467000Y-3937000D01*
X-20447000Y-3937000D01*
X-20447000Y-3112750D01*
X-20193000Y-3112750D01*
X-20193000Y-3937000D01*
X-19406250Y-3937000D01*
X-19247500Y-3778250D01*
X-19247500Y-3462690D01*
X-19344173Y-3229301D01*
X-19522802Y-3050673D01*
X-19756191Y-2954000D01*
X-20034250Y-2954000D01*
X-20193000Y-3112750D01*
X-20447000Y-3112750D01*
X-20605750Y-2954000D01*
X-20760000Y-2954000D01*
X-20760000Y-2166783D01*
X-20737765Y-2055000D01*
X-20825854Y-1612145D01*
X-20857175Y-1565270D01*
X-21076711Y-1236711D01*
X-21171479Y-1173389D01*
X-23226477Y881608D01*
X-23507146Y1069146D01*
X-23950000Y1157235D01*
X-24392854Y1069146D01*
X-24768288Y818288D01*
X-25019146Y442854D01*
X-25107235Y0D01*
X-25019146Y-442854D01*
X-24831608Y-723523D01*
X-23029999Y-2525133D01*
X-23030000Y-3570722D01*
X-23188377Y-3807750D01*
X-23264146Y-3921146D01*
X-23352235Y-4364000D01*
X-23330000Y-4475783D01*
X-23330000Y-6207782D01*
X-23329940Y-6208084D01*
X-23329940Y-6410867D01*
X-23551981Y-6188826D01*
X-24384463Y-5844000D01*
X-25285537Y-5844000D01*
X-26118019Y-6188826D01*
X-26755174Y-6825981D01*
X-27100000Y-7658463D01*
X-28252426Y-7658463D01*
X-28573407Y-6439295D01*
X-28960674Y-4379890D01*
X-29034783Y-3734452D01*
X-26585000Y-3734452D01*
X-26585000Y-4265548D01*
X-26381758Y-4756217D01*
X-26006217Y-5131758D01*
X-25515548Y-5335000D01*
X-24984452Y-5335000D01*
X-24493783Y-5131758D01*
X-24118242Y-4756217D01*
X-23915000Y-4265548D01*
X-23915000Y-3734452D01*
X-24118242Y-3243783D01*
X-24493783Y-2868242D01*
X-24984452Y-2665000D01*
X-25515548Y-2665000D01*
X-26006217Y-2868242D01*
X-26381758Y-3243783D01*
X-26585000Y-3734452D01*
X-29034783Y-3734452D01*
X-29199709Y-2298067D01*
X-29210772Y-2039493D01*
X-28863774Y-2310907D01*
X-28301639Y-2467135D01*
X-28067000Y-2307491D01*
X-28067000Y-1103000D01*
X-27813000Y-1103000D01*
X-27813000Y-2307491D01*
X-27578361Y-2467135D01*
X-27016226Y-2310907D01*
X-26556667Y-1951451D01*
X-26269648Y-1443491D01*
X-26248524Y-1332890D01*
X-26369845Y-1103000D01*
X-27813000Y-1103000D01*
X-28067000Y-1103000D01*
X-28087000Y-1103000D01*
X-28087000Y-849000D01*
X-28067000Y-849000D01*
X-28067000Y-829000D01*
X-27813000Y-829000D01*
X-27813000Y-849000D01*
X-27246706Y-849000D01*
X-26855602Y-1011000D01*
X-26344398Y-1011000D01*
X-25872106Y-815371D01*
X-25510629Y-453894D01*
X-25315000Y18398D01*
X-25315000Y529602D01*
X-25510629Y1001894D01*
X-25872106Y1363371D01*
X-26192560Y1496107D01*
X-26192560Y2124000D01*
X-26195678Y2187464D01*
X-26200482Y2236237D01*
X-26225241Y2360711D01*
X-26239467Y2407609D01*
X-26288041Y2524876D01*
X-26311144Y2568098D01*
X-26381651Y2673620D01*
X-26412741Y2711504D01*
X-26502496Y2801259D01*
X-26540380Y2832349D01*
X-26645902Y2902856D01*
X-26689124Y2925959D01*
X-26806391Y2974533D01*
X-26853289Y2988759D01*
X-26977763Y3013518D01*
X-27026536Y3018322D01*
X-27090000Y3021440D01*
X-28790000Y3021440D01*
X-28853464Y3018322D01*
X-28902237Y3013518D01*
X-29026711Y2988759D01*
X-29073609Y2974533D01*
X-29121765Y2954586D01*
X-29019004Y3975109D01*
X-28968576Y4265548D01*
X-26585000Y4265548D01*
X-26585000Y3734452D01*
X-26381758Y3243783D01*
X-26006217Y2868242D01*
X-25515548Y2665000D01*
X-24984452Y2665000D01*
X-24493783Y2868242D01*
X-24118242Y3243783D01*
X-23915000Y3734452D01*
X-23915000Y4265548D01*
X-24118242Y4756217D01*
X-24493783Y5131758D01*
X-24984452Y5335000D01*
X-25515548Y5335000D01*
X-26006217Y5131758D01*
X-26381758Y4756217D01*
X-26585000Y4265548D01*
X-28968576Y4265548D01*
X-28660528Y6039721D01*
X-28155355Y8073418D01*
X-28022845Y8480037D01*
X-27125500Y8480037D01*
X-27125500Y7578963D01*
X-26780674Y6746481D01*
X-26143519Y6109326D01*
X-25311037Y5764500D01*
X-24409963Y5764500D01*
X-23577481Y6109326D01*
X-23289611Y6397196D01*
X-23291440Y6388000D01*
X-23291440Y4788000D01*
X-23242157Y4540235D01*
X-23101809Y4330191D01*
X-22891765Y4189843D01*
X-22644000Y4140560D01*
X-21044000Y4140560D01*
X-20796235Y4189843D01*
X-20586484Y4329995D01*
X-20060777Y4141035D01*
X-19490546Y4168222D01*
X-19089995Y4334136D01*
X-19015861Y4580255D01*
X-19844000Y5408395D01*
X-19858142Y5394252D01*
X-20037748Y5573858D01*
X-20023605Y5588000D01*
X-19664395Y5588000D01*
X-18836255Y4759861D01*
X-18590136Y4833995D01*
X-18397035Y5371223D01*
X-18424222Y5941454D01*
X-18590136Y6342005D01*
X-18836255Y6416139D01*
X-19664395Y5588000D01*
X-20023605Y5588000D01*
X-20037748Y5602143D01*
X-19858142Y5781748D01*
X-19844000Y5767605D01*
X-19015861Y6595745D01*
X-19089995Y6841864D01*
X-19627223Y7034965D01*
X-20197454Y7007778D01*
X-20587067Y6846395D01*
X-20796235Y6986157D01*
X-21044000Y7035440D01*
X-22644000Y7035440D01*
X-22836495Y6997151D01*
X-22595500Y7578963D01*
X-22595500Y8480037D01*
X-22696365Y8723548D01*
X-22551000Y8723548D01*
X-22551000Y8192452D01*
X-22347758Y7701783D01*
X-21972217Y7326242D01*
X-21481548Y7123000D01*
X-20950452Y7123000D01*
X-20459783Y7326242D01*
X-20084242Y7701783D01*
X-19881000Y8192452D01*
X-19881000Y8723548D01*
X-20084242Y9214217D01*
X-20459783Y9589758D01*
X-20950452Y9793000D01*
X-21481548Y9793000D01*
X-21972217Y9589758D01*
X-22347758Y9214217D01*
X-22551000Y8723548D01*
X-22696365Y8723548D01*
X-22940326Y9312519D01*
X-23577481Y9949674D01*
X-24409963Y10294500D01*
X-25311037Y10294500D01*
X-26143519Y9949674D01*
X-26780674Y9312519D01*
X-27125500Y8480037D01*
X-28022845Y8480037D01*
X-27506071Y10065792D01*
X-26715998Y12006646D01*
X-25789182Y13886044D01*
X-24730365Y15694367D01*
X-24024350Y16723548D01*
X-22551000Y16723548D01*
X-22551000Y16192452D01*
X-22347758Y15701783D01*
X-21972217Y15326242D01*
X-21481548Y15123000D01*
X-20950452Y15123000D01*
X-20459783Y15326242D01*
X-20084242Y15701783D01*
X-19881000Y16192452D01*
X-19881000Y16723548D01*
X-14551000Y16723548D01*
X-14551000Y16192452D01*
X-14347758Y15701783D01*
X-13972217Y15326242D01*
X-13481548Y15123000D01*
X-12950452Y15123000D01*
X-12459783Y15326242D01*
X-12084242Y15701783D01*
X-11947000Y16033114D01*
X-11947000Y15929452D01*
X-11743758Y15438783D01*
X-11368217Y15063242D01*
X-10877548Y14860000D01*
X-10346452Y14860000D01*
X-9855783Y15063242D01*
X-9480242Y15438783D01*
X-9277000Y15929452D01*
X-9277000Y16460548D01*
X-3947000Y16460548D01*
X-3947000Y15929452D01*
X-3743758Y15438783D01*
X-3368217Y15063242D01*
X-2877548Y14860000D01*
X-2346452Y14860000D01*
X-1855783Y15063242D01*
X-1480242Y15438783D01*
X-1277000Y15929452D01*
X-1277000Y16460548D01*
X-1290254Y16492548D01*
X1180000Y16492548D01*
X1180000Y15961452D01*
X1383242Y15470783D01*
X1758783Y15095242D01*
X2249452Y14892000D01*
X2780548Y14892000D01*
X3271217Y15095242D01*
X3646758Y15470783D01*
X3850000Y15961452D01*
X3850000Y16492548D01*
X9180000Y16492548D01*
X9180000Y15961452D01*
X9383242Y15470783D01*
X9758783Y15095242D01*
X10249452Y14892000D01*
X10780548Y14892000D01*
X11271217Y15095242D01*
X11646758Y15470783D01*
X11850000Y15961452D01*
X11850000Y16204440D01*
X12024242Y15783783D01*
X12399783Y15408242D01*
X12890452Y15205000D01*
X13421548Y15205000D01*
X13912217Y15408242D01*
X14287758Y15783783D01*
X14491000Y16274452D01*
X14491000Y16805548D01*
X19821000Y16805548D01*
X19821000Y16274452D01*
X20024242Y15783783D01*
X20399783Y15408242D01*
X20890452Y15205000D01*
X21421548Y15205000D01*
X21912217Y15408242D01*
X22287758Y15783783D01*
X22491000Y16274452D01*
X22491000Y16805548D01*
X22287758Y17296217D01*
X21912217Y17671758D01*
X21421548Y17875000D01*
X20890452Y17875000D01*
X20399783Y17671758D01*
X20024242Y17296217D01*
X19821000Y16805548D01*
X14491000Y16805548D01*
X14287758Y17296217D01*
X13912217Y17671758D01*
X13421548Y17875000D01*
X12890452Y17875000D01*
X12399783Y17671758D01*
X12024242Y17296217D01*
X11821000Y16805548D01*
X11821000Y16562560D01*
X11646758Y16983217D01*
X11271217Y17358758D01*
X10780548Y17562000D01*
X10249452Y17562000D01*
X9758783Y17358758D01*
X9383242Y16983217D01*
X9180000Y16492548D01*
X3850000Y16492548D01*
X3646758Y16983217D01*
X3271217Y17358758D01*
X2780548Y17562000D01*
X2249452Y17562000D01*
X1758783Y17358758D01*
X1383242Y16983217D01*
X1180000Y16492548D01*
X-1290254Y16492548D01*
X-1480242Y16951217D01*
X-1855783Y17326758D01*
X-2346452Y17530000D01*
X-2877548Y17530000D01*
X-3368217Y17326758D01*
X-3743758Y16951217D01*
X-3947000Y16460548D01*
X-9277000Y16460548D01*
X-9480242Y16951217D01*
X-9855783Y17326758D01*
X-10346452Y17530000D01*
X-10877548Y17530000D01*
X-11368217Y17326758D01*
X-11743758Y16951217D01*
X-11881000Y16619886D01*
X-11881000Y16723548D01*
X-12084242Y17214217D01*
X-12459783Y17589758D01*
X-12950452Y17793000D01*
X-13481548Y17793000D01*
X-13972217Y17589758D01*
X-14347758Y17214217D01*
X-14551000Y16723548D01*
X-19881000Y16723548D01*
X-20084242Y17214217D01*
X-20459783Y17589758D01*
X-20950452Y17793000D01*
X-21481548Y17793000D01*
X-21972217Y17589758D01*
X-22347758Y17214217D01*
X-22551000Y16723548D01*
X-24024350Y16723548D01*
X-23544967Y17422359D01*
X-22239057Y19061177D01*
X-20819317Y20602431D01*
X-19807199Y21554537D01*
X-17665000Y21554537D01*
X-17665000Y20653463D01*
X-17320174Y19820981D01*
X-16683019Y19183826D01*
X-15850537Y18839000D01*
X-14949463Y18839000D01*
X-14116981Y19183826D01*
X-13479826Y19820981D01*
X-13135000Y20653463D01*
X-13135000Y21554537D01*
X-13165237Y21627537D01*
X13034000Y21627537D01*
X13034000Y20726463D01*
X13378826Y19893981D01*
X14015981Y19256826D01*
X14848463Y18912000D01*
X15749537Y18912000D01*
X16582019Y19256826D01*
X17219174Y19893981D01*
X17564000Y20726463D01*
X17564000Y21627537D01*
X17219174Y22460019D01*
X16582019Y23097174D01*
X15749537Y23442000D01*
X14848463Y23442000D01*
X14015981Y23097174D01*
X13378826Y22460019D01*
X13034000Y21627537D01*
X-13165237Y21627537D01*
X-13479826Y22387019D01*
X-14116981Y23024174D01*
X-14949463Y23369000D01*
X-15850537Y23369000D01*
X-16683019Y23024174D01*
X-17320174Y22387019D01*
X-17665000Y21554537D01*
X-19807199Y21554537D01*
X-19293014Y22038233D01*
X-17667962Y23361233D01*
X-16100890Y24460548D01*
X-11947000Y24460548D01*
X-11947000Y23929452D01*
X-11743758Y23438783D01*
X-11368217Y23063242D01*
X-10877548Y22860000D01*
X-10346452Y22860000D01*
X-9855783Y23063242D01*
X-9480242Y23438783D01*
X-9277000Y23929452D01*
X-9277000Y24460548D01*
X-3947000Y24460548D01*
X-3947000Y23929452D01*
X-3743758Y23438783D01*
X-3368217Y23063242D01*
X-2877548Y22860000D01*
X-2346452Y22860000D01*
X-1855783Y23063242D01*
X-1480242Y23438783D01*
X-1277000Y23929452D01*
X-1277000Y24202333D01*
X-450537Y23860000D01*
X450537Y23860000D01*
X1180000Y24162154D01*
X1180000Y23961452D01*
X1383242Y23470783D01*
X1758783Y23095242D01*
X2249452Y22892000D01*
X2780548Y22892000D01*
X3271217Y23095242D01*
X3646758Y23470783D01*
X3850000Y23961452D01*
X3850000Y24492548D01*
X9180000Y24492548D01*
X9180000Y23961452D01*
X9383242Y23470783D01*
X9758783Y23095242D01*
X10249452Y22892000D01*
X10780548Y22892000D01*
X11271217Y23095242D01*
X11646758Y23470783D01*
X11850000Y23961452D01*
X11850000Y24492548D01*
X11646758Y24983217D01*
X11271217Y25358758D01*
X10780548Y25562000D01*
X10249452Y25562000D01*
X9758783Y25358758D01*
X9383242Y24983217D01*
X9180000Y24492548D01*
X3850000Y24492548D01*
X3646758Y24983217D01*
X3271217Y25358758D01*
X2780548Y25562000D01*
X2249452Y25562000D01*
X2211988Y25546482D01*
X2265000Y25674463D01*
X2265000Y26575537D01*
X1920174Y27408019D01*
X1283019Y28045174D01*
X450537Y28390000D01*
X-450537Y28390000D01*
X-1283019Y28045174D01*
X-1920174Y27408019D01*
X-2265000Y26575537D01*
X-2265000Y25674463D01*
X-2175899Y25459355D01*
X-2346452Y25530000D01*
X-2877548Y25530000D01*
X-3368217Y25326758D01*
X-3743758Y24951217D01*
X-3947000Y24460548D01*
X-9277000Y24460548D01*
X-9480242Y24951217D01*
X-9855783Y25326758D01*
X-10346452Y25530000D01*
X-10877548Y25530000D01*
X-11368217Y25326758D01*
X-11743758Y24951217D01*
X-11947000Y24460548D01*
X-16100890Y24460548D01*
X-15952477Y24564661D01*
X-14155341Y25642356D01*
X-12285751Y26588802D01*
X-10353278Y27399156D01*
X-8367812Y28069268D01*
X-6339516Y28595710D01*
X-4278772Y28975787D01*
X-2196127Y29207553D01*
X-102241Y29289822D01*
X1992168Y29222173D01*
X1992168Y29222173D01*
G37*
X1992168Y29222173D02*
X4076380Y29004952D01*
X6139728Y28639271D01*
X8171649Y28127002D01*
X10161745Y27470767D01*
X12099829Y26673924D01*
X13975980Y25740553D01*
X15780596Y24675431D01*
X17504441Y23484009D01*
X19138689Y22172385D01*
X20674978Y20747274D01*
X22105444Y19215969D01*
X23422764Y17586308D01*
X24620196Y15866633D01*
X25691611Y14065746D01*
X26631526Y12192864D01*
X27435128Y10257574D01*
X28098306Y8269781D01*
X28617665Y6239660D01*
X28990546Y4177601D01*
X29162090Y2585571D01*
X28863774Y2818907D01*
X28301639Y2975135D01*
X28067000Y2815491D01*
X28067000Y1611000D01*
X28087000Y1611000D01*
X28087000Y1357000D01*
X28067000Y1357000D01*
X28067000Y1337000D01*
X27813000Y1337000D01*
X27813000Y1357000D01*
X27246706Y1357000D01*
X26855602Y1519000D01*
X26344398Y1519000D01*
X25872106Y1323371D01*
X25510629Y961894D01*
X25315000Y489602D01*
X25315000Y-21602D01*
X25510629Y-493894D01*
X25872106Y-855371D01*
X26192560Y-988107D01*
X26192560Y-1616000D01*
X26195678Y-1679464D01*
X26200482Y-1728237D01*
X26225241Y-1852711D01*
X26239467Y-1899609D01*
X26288041Y-2016876D01*
X26311144Y-2060098D01*
X26381651Y-2165620D01*
X26412741Y-2203504D01*
X26502496Y-2293259D01*
X26540380Y-2324349D01*
X26645902Y-2394856D01*
X26689124Y-2417959D01*
X26806391Y-2466533D01*
X26853289Y-2480759D01*
X26977763Y-2505518D01*
X27026536Y-2510322D01*
X27090000Y-2513440D01*
X28790000Y-2513440D01*
X28853464Y-2510322D01*
X28902237Y-2505518D01*
X29026711Y-2480759D01*
X29073609Y-2466533D01*
X29172165Y-2425710D01*
X29046048Y-3772423D01*
X28701995Y-5839487D01*
X28211032Y-7876662D01*
X27575672Y-9873520D01*
X26799169Y-11819842D01*
X25885495Y-13705664D01*
X24839329Y-15521335D01*
X23666024Y-17257561D01*
X22371586Y-18905456D01*
X20962640Y-20456584D01*
X19446399Y-21903006D01*
X17830622Y-23237319D01*
X16123581Y-24452694D01*
X14334012Y-25542909D01*
X12471075Y-26502384D01*
X10544307Y-27326209D01*
X8563567Y-28010166D01*
X6538996Y-28550755D01*
X4480955Y-28945209D01*
X2399979Y-29191509D01*
X306719Y-29288394D01*
X-1788112Y-29235368D01*
X-3873790Y-29032703D01*
X-5939640Y-28681436D01*
X-7975088Y-28183365D01*
X-9969717Y-27541039D01*
X-11913316Y-26757746D01*
X-13795938Y-25837496D01*
X-15607946Y-24784998D01*
X-16833640Y-23950452D01*
X-11882000Y-23950452D01*
X-11882000Y-24481548D01*
X-11678758Y-24972217D01*
X-11303217Y-25347758D01*
X-10812548Y-25551000D01*
X-10281452Y-25551000D01*
X-9790783Y-25347758D01*
X-9415242Y-24972217D01*
X-9212000Y-24481548D01*
X-9212000Y-23950452D01*
X-3882000Y-23950452D01*
X-3882000Y-24481548D01*
X-3678758Y-24972217D01*
X-3303217Y-25347758D01*
X-2812548Y-25551000D01*
X-2281452Y-25551000D01*
X-2199861Y-25517204D01*
X-2265000Y-25674463D01*
X-2265000Y-26575537D01*
X-1920174Y-27408019D01*
X-1283019Y-28045174D01*
X-450537Y-28390000D01*
X450537Y-28390000D01*
X1283019Y-28045174D01*
X1920174Y-27408019D01*
X2265000Y-26575537D01*
X2265000Y-25674463D01*
X2188234Y-25489133D01*
X2313452Y-25541000D01*
X2844548Y-25541000D01*
X3335217Y-25337758D01*
X3710758Y-24962217D01*
X3914000Y-24471548D01*
X3914000Y-23940452D01*
X9244000Y-23940452D01*
X9244000Y-24471548D01*
X9447242Y-24962217D01*
X9822783Y-25337758D01*
X10313452Y-25541000D01*
X10844548Y-25541000D01*
X11335217Y-25337758D01*
X11710758Y-24962217D01*
X11914000Y-24471548D01*
X11914000Y-23940452D01*
X11710758Y-23449783D01*
X11335217Y-23074242D01*
X10844548Y-22871000D01*
X10313452Y-22871000D01*
X9822783Y-23074242D01*
X9447242Y-23449783D01*
X9244000Y-23940452D01*
X3914000Y-23940452D01*
X3710758Y-23449783D01*
X3335217Y-23074242D01*
X2844548Y-22871000D01*
X2313452Y-22871000D01*
X1822783Y-23074242D01*
X1447242Y-23449783D01*
X1244000Y-23940452D01*
X1244000Y-24188664D01*
X450537Y-23860000D01*
X-450537Y-23860000D01*
X-1212000Y-24175409D01*
X-1212000Y-23950452D01*
X-1415242Y-23459783D01*
X-1790783Y-23084242D01*
X-2281452Y-22881000D01*
X-2812548Y-22881000D01*
X-3303217Y-23084242D01*
X-3678758Y-23459783D01*
X-3882000Y-23950452D01*
X-9212000Y-23950452D01*
X-9415242Y-23459783D01*
X-9790783Y-23084242D01*
X-10281452Y-22881000D01*
X-10812548Y-22881000D01*
X-11303217Y-23084242D01*
X-11678758Y-23459783D01*
X-11882000Y-23950452D01*
X-16833640Y-23950452D01*
X-17340066Y-23605639D01*
X-18983432Y-22305457D01*
X-20529632Y-20891106D01*
X-20708334Y-20702463D01*
X-17597000Y-20702463D01*
X-17597000Y-21603537D01*
X-17252174Y-22436019D01*
X-16615019Y-23073174D01*
X-15782537Y-23418000D01*
X-14881463Y-23418000D01*
X-14048981Y-23073174D01*
X-13411826Y-22436019D01*
X-13067000Y-21603537D01*
X-13067000Y-20702463D01*
X-13097651Y-20628463D01*
X13168000Y-20628463D01*
X13168000Y-21529537D01*
X13512826Y-22362019D01*
X14149981Y-22999174D01*
X14982463Y-23344000D01*
X15883537Y-23344000D01*
X16716019Y-22999174D01*
X17353174Y-22362019D01*
X17698000Y-21529537D01*
X17698000Y-20628463D01*
X17353174Y-19795981D01*
X16716019Y-19158826D01*
X15883537Y-18814000D01*
X14982463Y-18814000D01*
X14149981Y-19158826D01*
X13512826Y-19795981D01*
X13168000Y-20628463D01*
X-13097651Y-20628463D01*
X-13411826Y-19869981D01*
X-14048981Y-19232826D01*
X-14881463Y-18888000D01*
X-15782537Y-18888000D01*
X-16615019Y-19232826D01*
X-17252174Y-19869981D01*
X-17597000Y-20702463D01*
X-20708334Y-20702463D01*
X-21970753Y-19369825D01*
X-23299418Y-17749400D01*
X-24361597Y-16246452D01*
X-22511000Y-16246452D01*
X-22511000Y-16777548D01*
X-22307758Y-17268217D01*
X-21932217Y-17643758D01*
X-21441548Y-17847000D01*
X-20910452Y-17847000D01*
X-20419783Y-17643758D01*
X-20044242Y-17268217D01*
X-19841000Y-16777548D01*
X-19841000Y-16246452D01*
X-14511000Y-16246452D01*
X-14511000Y-16777548D01*
X-14307758Y-17268217D01*
X-13932217Y-17643758D01*
X-13441548Y-17847000D01*
X-12910452Y-17847000D01*
X-12419783Y-17643758D01*
X-12044242Y-17268217D01*
X-11841000Y-16777548D01*
X-11841000Y-16580531D01*
X-11678758Y-16972217D01*
X-11303217Y-17347758D01*
X-10812548Y-17551000D01*
X-10281452Y-17551000D01*
X-9790783Y-17347758D01*
X-9415242Y-16972217D01*
X-9212000Y-16481548D01*
X-9212000Y-15950452D01*
X-3882000Y-15950452D01*
X-3882000Y-16481548D01*
X-3678758Y-16972217D01*
X-3303217Y-17347758D01*
X-2812548Y-17551000D01*
X-2281452Y-17551000D01*
X-1790783Y-17347758D01*
X-1415242Y-16972217D01*
X-1212000Y-16481548D01*
X-1212000Y-15950452D01*
X-1216142Y-15940452D01*
X1244000Y-15940452D01*
X1244000Y-16471548D01*
X1447242Y-16962217D01*
X1822783Y-17337758D01*
X2313452Y-17541000D01*
X2844548Y-17541000D01*
X3335217Y-17337758D01*
X3710758Y-16962217D01*
X3914000Y-16471548D01*
X3914000Y-15940452D01*
X9244000Y-15940452D01*
X9244000Y-16471548D01*
X9447242Y-16962217D01*
X9822783Y-17337758D01*
X10313452Y-17541000D01*
X10844548Y-17541000D01*
X11335217Y-17337758D01*
X11710758Y-16962217D01*
X11861000Y-16599501D01*
X11861000Y-16750548D01*
X12064242Y-17241217D01*
X12439783Y-17616758D01*
X12930452Y-17820000D01*
X13461548Y-17820000D01*
X13952217Y-17616758D01*
X14327758Y-17241217D01*
X14531000Y-16750548D01*
X14531000Y-16219452D01*
X19861000Y-16219452D01*
X19861000Y-16750548D01*
X20064242Y-17241217D01*
X20439783Y-17616758D01*
X20930452Y-17820000D01*
X21461548Y-17820000D01*
X21952217Y-17616758D01*
X22327758Y-17241217D01*
X22531000Y-16750548D01*
X22531000Y-16219452D01*
X22327758Y-15728783D01*
X21952217Y-15353242D01*
X21461548Y-15150000D01*
X20930452Y-15150000D01*
X20439783Y-15353242D01*
X20064242Y-15728783D01*
X19861000Y-16219452D01*
X14531000Y-16219452D01*
X14327758Y-15728783D01*
X13952217Y-15353242D01*
X13461548Y-15150000D01*
X12930452Y-15150000D01*
X12439783Y-15353242D01*
X12064242Y-15728783D01*
X11914000Y-16091499D01*
X11914000Y-15940452D01*
X11710758Y-15449783D01*
X11335217Y-15074242D01*
X10844548Y-14871000D01*
X10313452Y-14871000D01*
X9822783Y-15074242D01*
X9447242Y-15449783D01*
X9244000Y-15940452D01*
X3914000Y-15940452D01*
X3710758Y-15449783D01*
X3335217Y-15074242D01*
X2844548Y-14871000D01*
X2313452Y-14871000D01*
X1822783Y-15074242D01*
X1447242Y-15449783D01*
X1244000Y-15940452D01*
X-1216142Y-15940452D01*
X-1415242Y-15459783D01*
X-1790783Y-15084242D01*
X-2281452Y-14881000D01*
X-2812548Y-14881000D01*
X-3303217Y-15084242D01*
X-3678758Y-15459783D01*
X-3882000Y-15950452D01*
X-9212000Y-15950452D01*
X-9415242Y-15459783D01*
X-9790783Y-15084242D01*
X-10281452Y-14881000D01*
X-10812548Y-14881000D01*
X-11303217Y-15084242D01*
X-11678758Y-15459783D01*
X-11882000Y-15950452D01*
X-11882000Y-16147469D01*
X-12044242Y-15755783D01*
X-12419783Y-15380242D01*
X-12910452Y-15177000D01*
X-13441548Y-15177000D01*
X-13932217Y-15380242D01*
X-14307758Y-15755783D01*
X-14511000Y-16246452D01*
X-19841000Y-16246452D01*
X-20044242Y-15755783D01*
X-20419783Y-15380242D01*
X-20910452Y-15177000D01*
X-21441548Y-15177000D01*
X-21932217Y-15380242D01*
X-22307758Y-15755783D01*
X-22511000Y-16246452D01*
X-24361597Y-16246452D01*
X-24508827Y-16038127D01*
X-25592788Y-14244763D01*
X-26545755Y-12378489D01*
X-27362849Y-10448856D01*
X-28039888Y-8465741D01*
X-28252426Y-7658463D01*
X-27100000Y-7658463D01*
X-27100000Y-8559537D01*
X-26755174Y-9392019D01*
X-26118019Y-10029174D01*
X-25285537Y-10374000D01*
X-24384463Y-10374000D01*
X-23551981Y-10029174D01*
X-22914826Y-9392019D01*
X-22570000Y-8559537D01*
X-22570000Y-7658463D01*
X-22678848Y-7395681D01*
X-22438750Y-7443440D01*
X-21995415Y-7443440D01*
X-22307758Y-7755783D01*
X-22511000Y-8246452D01*
X-22511000Y-8777548D01*
X-22307758Y-9268217D01*
X-21932217Y-9643758D01*
X-21441548Y-9847000D01*
X-20910452Y-9847000D01*
X-20419783Y-9643758D01*
X-20044242Y-9268217D01*
X-19992790Y-9144000D01*
X-18937235Y-9144000D01*
X-18849146Y-9586854D01*
X-18598288Y-9962288D01*
X-18293765Y-10165764D01*
X-18090289Y-10470289D01*
X-17714855Y-10721146D01*
X-17272000Y-10809235D01*
X-16873999Y-10730068D01*
X-16475998Y-10809235D01*
X-16033144Y-10721146D01*
X-15657710Y-10470288D01*
X-15406852Y-10094854D01*
X-15318763Y-9652000D01*
X-15406852Y-9209145D01*
X-15594390Y-8928476D01*
X-15776867Y-8745999D01*
X-15126478Y-8095610D01*
X-15031710Y-8032288D01*
X-14780853Y-7656854D01*
X-14744887Y-7476040D01*
X-14692764Y-7214000D01*
X-14714999Y-7102217D01*
X-14714999Y770909D01*
X-14709813Y770909D01*
X-14708445Y-796581D01*
X-14540517Y-2355050D01*
X-14207931Y-3886850D01*
X-13714452Y-5374635D01*
X-13065670Y-6801557D01*
X-12822597Y-7213391D01*
X-12910452Y-7177000D01*
X-13441548Y-7177000D01*
X-13932217Y-7380242D01*
X-14307758Y-7755783D01*
X-14511000Y-8246452D01*
X-14511000Y-8777548D01*
X-14307758Y-9268217D01*
X-13932217Y-9643758D01*
X-13441548Y-9847000D01*
X-12910452Y-9847000D01*
X-12419783Y-9643758D01*
X-12044242Y-9268217D01*
X-11841000Y-8777548D01*
X-11841000Y-8726616D01*
X-11333255Y-9409050D01*
X-10269242Y-10560093D01*
X-9088938Y-11591553D01*
X-7805711Y-12491748D01*
X-6434090Y-13250486D01*
X-4989610Y-13859174D01*
X-3488626Y-14310919D01*
X-1948137Y-14600605D01*
X-385586Y-14724952D01*
X1181330Y-14682553D01*
X2734869Y-14473886D01*
X4257438Y-14101316D01*
X5731796Y-13569061D01*
X7141246Y-12883148D01*
X8469827Y-12051345D01*
X9702496Y-11083072D01*
X10825292Y-9989292D01*
X11825501Y-8782392D01*
X11861000Y-8728860D01*
X11861000Y-8750548D01*
X12064242Y-9241217D01*
X12439783Y-9616758D01*
X12930452Y-9820000D01*
X13461548Y-9820000D01*
X13952217Y-9616758D01*
X14327758Y-9241217D01*
X14531000Y-8750548D01*
X14531000Y-8219452D01*
X19861000Y-8219452D01*
X19861000Y-8750548D01*
X20064242Y-9241217D01*
X20439783Y-9616758D01*
X20930452Y-9820000D01*
X21461548Y-9820000D01*
X21952217Y-9616758D01*
X22327758Y-9241217D01*
X22531000Y-8750548D01*
X22531000Y-8219452D01*
X22327758Y-7728783D01*
X22138438Y-7539463D01*
X22608000Y-7539463D01*
X22608000Y-8440537D01*
X22952826Y-9273019D01*
X23589981Y-9910174D01*
X24422463Y-10255000D01*
X25323537Y-10255000D01*
X26156019Y-9910174D01*
X26793174Y-9273019D01*
X27138000Y-8440537D01*
X27138000Y-7539463D01*
X26793174Y-6706981D01*
X26156019Y-6069826D01*
X25323537Y-5725000D01*
X24422463Y-5725000D01*
X23589981Y-6069826D01*
X22952826Y-6706981D01*
X22608000Y-7539463D01*
X22138438Y-7539463D01*
X21952217Y-7353242D01*
X21461548Y-7150000D01*
X20930452Y-7150000D01*
X20439783Y-7353242D01*
X20064242Y-7728783D01*
X19861000Y-8219452D01*
X14531000Y-8219452D01*
X14327758Y-7728783D01*
X13952217Y-7353242D01*
X13461548Y-7150000D01*
X12930452Y-7150000D01*
X12842166Y-7186569D01*
X13414370Y-6085028D01*
X13985037Y-4625109D01*
X14227858Y-3734452D01*
X15915000Y-3734452D01*
X15915000Y-4265548D01*
X16118242Y-4756217D01*
X16493783Y-5131758D01*
X16984452Y-5335000D01*
X17515548Y-5335000D01*
X17903859Y-5174156D01*
X17916222Y-5433454D01*
X18082136Y-5834005D01*
X18328255Y-5908139D01*
X19156395Y-5080000D01*
X19142252Y-5065858D01*
X19321858Y-4886252D01*
X19336000Y-4900395D01*
X19350142Y-4886252D01*
X19529748Y-5065858D01*
X19515605Y-5080000D01*
X19529748Y-5094143D01*
X19350142Y-5273748D01*
X19336000Y-5259605D01*
X18507861Y-6087745D01*
X18581995Y-6333864D01*
X19119223Y-6526965D01*
X19689454Y-6499778D01*
X20079067Y-6338395D01*
X20288235Y-6478157D01*
X20536000Y-6527440D01*
X22136000Y-6527440D01*
X22383765Y-6478157D01*
X22593809Y-6337809D01*
X22734157Y-6127765D01*
X22783440Y-5880000D01*
X22783440Y-4280000D01*
X22734157Y-4032235D01*
X22593809Y-3822191D01*
X22462500Y-3734452D01*
X23915000Y-3734452D01*
X23915000Y-4265548D01*
X24118242Y-4756217D01*
X24493783Y-5131758D01*
X24984452Y-5335000D01*
X25515548Y-5335000D01*
X26006217Y-5131758D01*
X26381758Y-4756217D01*
X26585000Y-4265548D01*
X26585000Y-3734452D01*
X26381758Y-3243783D01*
X26006217Y-2868242D01*
X25515548Y-2665000D01*
X24984452Y-2665000D01*
X24493783Y-2868242D01*
X24118242Y-3243783D01*
X23915000Y-3734452D01*
X22462500Y-3734452D01*
X22383765Y-3681843D01*
X22136000Y-3632560D01*
X20536000Y-3632560D01*
X20288235Y-3681843D01*
X20078484Y-3821995D01*
X19552777Y-3633035D01*
X18982546Y-3660222D01*
X18585000Y-3824891D01*
X18585000Y-3734452D01*
X18381758Y-3243783D01*
X18006217Y-2868242D01*
X17515548Y-2665000D01*
X16984452Y-2665000D01*
X16493783Y-2868242D01*
X16118242Y-3243783D01*
X15915000Y-3734452D01*
X14227858Y-3734452D01*
X14397336Y-3112814D01*
X14646598Y-1565270D01*
X14730000Y0D01*
X14729978Y25709D01*
X14643844Y1590831D01*
X14551149Y2160002D01*
X18692765Y2160002D01*
X18780854Y1717148D01*
X19031712Y1341714D01*
X19407146Y1090856D01*
X19850000Y1002767D01*
X20292854Y1090856D01*
X20573523Y1278394D01*
X20992520Y1697391D01*
X21087289Y1760713D01*
X21140861Y1840890D01*
X26248524Y1840890D01*
X26369845Y1611000D01*
X27813000Y1611000D01*
X27813000Y2815491D01*
X27578361Y2975135D01*
X27016226Y2818907D01*
X26556667Y2459451D01*
X26269648Y1951491D01*
X26248524Y1840890D01*
X21140861Y1840890D01*
X21338146Y2136147D01*
X21399779Y2446000D01*
X21558250Y2446000D01*
X21717000Y2604750D01*
X21717000Y3429000D01*
X21971000Y3429000D01*
X21971000Y2604750D01*
X22129750Y2446000D01*
X22407809Y2446000D01*
X22641198Y2542673D01*
X22819827Y2721301D01*
X22916500Y2954690D01*
X22916500Y3270250D01*
X22757750Y3429000D01*
X21971000Y3429000D01*
X21717000Y3429000D01*
X21697000Y3429000D01*
X21697000Y3683000D01*
X21717000Y3683000D01*
X21717000Y3703000D01*
X21971000Y3703000D01*
X21971000Y3683000D01*
X22757750Y3683000D01*
X22916500Y3841750D01*
X22916500Y4157310D01*
X22876864Y4253000D01*
X22887309Y4253000D01*
X22917602Y4265548D01*
X23915000Y4265548D01*
X23915000Y3734452D01*
X24118242Y3243783D01*
X24493783Y2868242D01*
X24984452Y2665000D01*
X25515548Y2665000D01*
X26006217Y2868242D01*
X26381758Y3243783D01*
X26585000Y3734452D01*
X26585000Y4265548D01*
X26381758Y4756217D01*
X26006217Y5131758D01*
X25515548Y5335000D01*
X24984452Y5335000D01*
X24493783Y5131758D01*
X24118242Y4756217D01*
X23915000Y4265548D01*
X22917602Y4265548D01*
X23120698Y4349673D01*
X23299327Y4528301D01*
X23396000Y4761690D01*
X23396000Y5302250D01*
X23237250Y5461000D01*
X22400500Y5461000D01*
X22400500Y5441000D01*
X22146500Y5441000D01*
X22146500Y5461000D01*
X22126500Y5461000D01*
X22126500Y5715000D01*
X22146500Y5715000D01*
X22146500Y6764250D01*
X22400500Y6764250D01*
X22400500Y5715000D01*
X23237250Y5715000D01*
X23396000Y5873750D01*
X23396000Y6369807D01*
X23537981Y6227826D01*
X24370463Y5883000D01*
X25271537Y5883000D01*
X26104019Y6227826D01*
X26741174Y6864981D01*
X27086000Y7697463D01*
X27086000Y8598537D01*
X26741174Y9431019D01*
X26104019Y10068174D01*
X25271537Y10413000D01*
X24370463Y10413000D01*
X23537981Y10068174D01*
X22900826Y9431019D01*
X22556000Y8598537D01*
X22556000Y7697463D01*
X22876794Y6923000D01*
X22559250Y6923000D01*
X22400500Y6764250D01*
X22146500Y6764250D01*
X21987750Y6923000D01*
X21659691Y6923000D01*
X21426302Y6826327D01*
X21273207Y6673233D01*
X21272416Y6674416D01*
X20983294Y6867602D01*
X20642250Y6935440D01*
X20154750Y6935440D01*
X19813706Y6867602D01*
X19524584Y6674416D01*
X19331398Y6385294D01*
X19263560Y6044250D01*
X19263560Y5700084D01*
X19263500Y5699782D01*
X19263501Y4163940D01*
X19249995Y4143727D01*
X19230217Y4044295D01*
X19199855Y3998855D01*
X19199854Y3998854D01*
X19111765Y3556000D01*
X19134000Y3444217D01*
X19134000Y3049133D01*
X18968392Y2883525D01*
X18780854Y2602856D01*
X18692765Y2160002D01*
X14551149Y2160002D01*
X14391881Y3137938D01*
X14082345Y4265548D01*
X15915000Y4265548D01*
X15915000Y3734452D01*
X16118242Y3243783D01*
X16493783Y2868242D01*
X16984452Y2665000D01*
X17515548Y2665000D01*
X18006217Y2868242D01*
X18381758Y3243783D01*
X18585000Y3734452D01*
X18585000Y4265548D01*
X18381758Y4756217D01*
X18006217Y5131758D01*
X17515548Y5335000D01*
X16984452Y5335000D01*
X16493783Y5131758D01*
X16118242Y4756217D01*
X15915000Y4265548D01*
X14082345Y4265548D01*
X13976944Y4649510D01*
X13403730Y6108431D01*
X12815473Y7236057D01*
X12890452Y7205000D01*
X13421548Y7205000D01*
X13912217Y7408242D01*
X14287758Y7783783D01*
X14491000Y8274452D01*
X14491000Y8805548D01*
X19821000Y8805548D01*
X19821000Y8274452D01*
X20024242Y7783783D01*
X20399783Y7408242D01*
X20890452Y7205000D01*
X21421548Y7205000D01*
X21912217Y7408242D01*
X22287758Y7783783D01*
X22491000Y8274452D01*
X22491000Y8805548D01*
X22287758Y9296217D01*
X21912217Y9671758D01*
X21421548Y9875000D01*
X20890452Y9875000D01*
X20399783Y9671758D01*
X20024242Y9296217D01*
X19821000Y8805548D01*
X14491000Y8805548D01*
X14287758Y9296217D01*
X13912217Y9671758D01*
X13421548Y9875000D01*
X12890452Y9875000D01*
X12399783Y9671758D01*
X12024242Y9296217D01*
X11821000Y8805548D01*
X11821000Y8786726D01*
X11810155Y8803018D01*
X10807841Y10008170D01*
X9683137Y11099989D01*
X8448781Y12066110D01*
X7118750Y12895592D01*
X5708105Y13579044D01*
X4232820Y14108725D01*
X2709603Y14478638D01*
X1155702Y14684592D01*
X-411286Y14724257D01*
X-1973617Y14597183D01*
X-3513598Y14304808D01*
X-5013791Y13850444D01*
X-6457207Y13239236D01*
X-7827501Y12478106D01*
X-9109156Y11575672D01*
X-10287657Y10542154D01*
X-11349660Y9389255D01*
X-11881000Y8672499D01*
X-11881000Y8723548D01*
X-12084242Y9214217D01*
X-12459783Y9589758D01*
X-12950452Y9793000D01*
X-13481548Y9793000D01*
X-13972217Y9589758D01*
X-14347758Y9214217D01*
X-14551000Y8723548D01*
X-14551000Y8192452D01*
X-14347758Y7701783D01*
X-13972217Y7326242D01*
X-13481548Y7123000D01*
X-12950452Y7123000D01*
X-12850901Y7164235D01*
X-13077521Y6778743D01*
X-13723812Y5350691D01*
X-14214693Y3862047D01*
X-14544605Y2329668D01*
X-14709813Y770909D01*
X-14714999Y770909D01*
X-14714999Y6594216D01*
X-14692764Y6705999D01*
X-14780853Y7148854D01*
X-14954171Y7408242D01*
X-15031710Y7524288D01*
X-15126478Y7587610D01*
X-16040477Y8501608D01*
X-16321146Y8689146D01*
X-16764000Y8777235D01*
X-17206854Y8689146D01*
X-17582288Y8438288D01*
X-17833146Y8062854D01*
X-17921235Y7620000D01*
X-17833146Y7177146D01*
X-17645608Y6896477D01*
X-16984998Y6235866D01*
X-16984998Y5335000D01*
X-17515548Y5335000D01*
X-18006217Y5131758D01*
X-18381758Y4756217D01*
X-18585000Y4265548D01*
X-18585000Y3734452D01*
X-18381758Y3243783D01*
X-18006217Y2868242D01*
X-17515548Y2665000D01*
X-16984998Y2665000D01*
X-16984999Y-2665000D01*
X-17515548Y-2665000D01*
X-18006217Y-2868242D01*
X-18381758Y-3243783D01*
X-18585000Y-3734452D01*
X-18585000Y-4265548D01*
X-18381758Y-4756217D01*
X-18006217Y-5131758D01*
X-17515548Y-5335000D01*
X-16984999Y-5335000D01*
X-16984999Y-6743867D01*
X-17995518Y-7754387D01*
X-18090289Y-7817711D01*
X-18153609Y-7912477D01*
X-18661608Y-8420477D01*
X-18849146Y-8701146D01*
X-18937235Y-9144000D01*
X-19992790Y-9144000D01*
X-19841000Y-8777548D01*
X-19841000Y-8246452D01*
X-20044242Y-7755783D01*
X-20419783Y-7380242D01*
X-20515390Y-7340640D01*
X-20447000Y-7272250D01*
X-20447000Y-6223000D01*
X-20193000Y-6223000D01*
X-20193000Y-7272250D01*
X-20034250Y-7431000D01*
X-19706191Y-7431000D01*
X-19472802Y-7334327D01*
X-19294173Y-7155699D01*
X-19197500Y-6922310D01*
X-19197500Y-6381750D01*
X-19356250Y-6223000D01*
X-20193000Y-6223000D01*
X-20447000Y-6223000D01*
X-20467000Y-6223000D01*
X-20467000Y-5969000D01*
X-20447000Y-5969000D01*
X-20447000Y-4191000D01*
X-20193000Y-4191000D01*
X-20193000Y-5969000D01*
X-19356250Y-5969000D01*
X-19197500Y-5810250D01*
X-19197500Y-5269690D01*
X-19294173Y-5036301D01*
X-19387974Y-4942500D01*
X-19344173Y-4898699D01*
X-19247500Y-4665310D01*
X-19247500Y-4349750D01*
X-19406250Y-4191000D01*
X-20193000Y-4191000D01*
X-20447000Y-4191000D01*
X-20467000Y-4191000D01*
X-20467000Y-3937000D01*
X-20447000Y-3937000D01*
X-20447000Y-3112750D01*
X-20193000Y-3112750D01*
X-20193000Y-3937000D01*
X-19406250Y-3937000D01*
X-19247500Y-3778250D01*
X-19247500Y-3462690D01*
X-19344173Y-3229301D01*
X-19522802Y-3050673D01*
X-19756191Y-2954000D01*
X-20034250Y-2954000D01*
X-20193000Y-3112750D01*
X-20447000Y-3112750D01*
X-20605750Y-2954000D01*
X-20760000Y-2954000D01*
X-20760000Y-2166783D01*
X-20737765Y-2055000D01*
X-20825854Y-1612145D01*
X-20857175Y-1565270D01*
X-21076711Y-1236711D01*
X-21171479Y-1173389D01*
X-23226477Y881608D01*
X-23507146Y1069146D01*
X-23950000Y1157235D01*
X-24392854Y1069146D01*
X-24768288Y818288D01*
X-25019146Y442854D01*
X-25107235Y0D01*
X-25019146Y-442854D01*
X-24831608Y-723523D01*
X-23029999Y-2525133D01*
X-23030000Y-3570722D01*
X-23188377Y-3807750D01*
X-23264146Y-3921146D01*
X-23352235Y-4364000D01*
X-23330000Y-4475783D01*
X-23330000Y-6207782D01*
X-23329940Y-6208084D01*
X-23329940Y-6410867D01*
X-23551981Y-6188826D01*
X-24384463Y-5844000D01*
X-25285537Y-5844000D01*
X-26118019Y-6188826D01*
X-26755174Y-6825981D01*
X-27100000Y-7658463D01*
X-28252426Y-7658463D01*
X-28573407Y-6439295D01*
X-28960674Y-4379890D01*
X-29034783Y-3734452D01*
X-26585000Y-3734452D01*
X-26585000Y-4265548D01*
X-26381758Y-4756217D01*
X-26006217Y-5131758D01*
X-25515548Y-5335000D01*
X-24984452Y-5335000D01*
X-24493783Y-5131758D01*
X-24118242Y-4756217D01*
X-23915000Y-4265548D01*
X-23915000Y-3734452D01*
X-24118242Y-3243783D01*
X-24493783Y-2868242D01*
X-24984452Y-2665000D01*
X-25515548Y-2665000D01*
X-26006217Y-2868242D01*
X-26381758Y-3243783D01*
X-26585000Y-3734452D01*
X-29034783Y-3734452D01*
X-29199709Y-2298067D01*
X-29210772Y-2039493D01*
X-28863774Y-2310907D01*
X-28301639Y-2467135D01*
X-28067000Y-2307491D01*
X-28067000Y-1103000D01*
X-27813000Y-1103000D01*
X-27813000Y-2307491D01*
X-27578361Y-2467135D01*
X-27016226Y-2310907D01*
X-26556667Y-1951451D01*
X-26269648Y-1443491D01*
X-26248524Y-1332890D01*
X-26369845Y-1103000D01*
X-27813000Y-1103000D01*
X-28067000Y-1103000D01*
X-28087000Y-1103000D01*
X-28087000Y-849000D01*
X-28067000Y-849000D01*
X-28067000Y-829000D01*
X-27813000Y-829000D01*
X-27813000Y-849000D01*
X-27246706Y-849000D01*
X-26855602Y-1011000D01*
X-26344398Y-1011000D01*
X-25872106Y-815371D01*
X-25510629Y-453894D01*
X-25315000Y18398D01*
X-25315000Y529602D01*
X-25510629Y1001894D01*
X-25872106Y1363371D01*
X-26192560Y1496107D01*
X-26192560Y2124000D01*
X-26195678Y2187464D01*
X-26200482Y2236237D01*
X-26225241Y2360711D01*
X-26239467Y2407609D01*
X-26288041Y2524876D01*
X-26311144Y2568098D01*
X-26381651Y2673620D01*
X-26412741Y2711504D01*
X-26502496Y2801259D01*
X-26540380Y2832349D01*
X-26645902Y2902856D01*
X-26689124Y2925959D01*
X-26806391Y2974533D01*
X-26853289Y2988759D01*
X-26977763Y3013518D01*
X-27026536Y3018322D01*
X-27090000Y3021440D01*
X-28790000Y3021440D01*
X-28853464Y3018322D01*
X-28902237Y3013518D01*
X-29026711Y2988759D01*
X-29073609Y2974533D01*
X-29121765Y2954586D01*
X-29019004Y3975109D01*
X-28968576Y4265548D01*
X-26585000Y4265548D01*
X-26585000Y3734452D01*
X-26381758Y3243783D01*
X-26006217Y2868242D01*
X-25515548Y2665000D01*
X-24984452Y2665000D01*
X-24493783Y2868242D01*
X-24118242Y3243783D01*
X-23915000Y3734452D01*
X-23915000Y4265548D01*
X-24118242Y4756217D01*
X-24493783Y5131758D01*
X-24984452Y5335000D01*
X-25515548Y5335000D01*
X-26006217Y5131758D01*
X-26381758Y4756217D01*
X-26585000Y4265548D01*
X-28968576Y4265548D01*
X-28660528Y6039721D01*
X-28155355Y8073418D01*
X-28022845Y8480037D01*
X-27125500Y8480037D01*
X-27125500Y7578963D01*
X-26780674Y6746481D01*
X-26143519Y6109326D01*
X-25311037Y5764500D01*
X-24409963Y5764500D01*
X-23577481Y6109326D01*
X-23289611Y6397196D01*
X-23291440Y6388000D01*
X-23291440Y4788000D01*
X-23242157Y4540235D01*
X-23101809Y4330191D01*
X-22891765Y4189843D01*
X-22644000Y4140560D01*
X-21044000Y4140560D01*
X-20796235Y4189843D01*
X-20586484Y4329995D01*
X-20060777Y4141035D01*
X-19490546Y4168222D01*
X-19089995Y4334136D01*
X-19015861Y4580255D01*
X-19844000Y5408395D01*
X-19858142Y5394252D01*
X-20037748Y5573858D01*
X-20023605Y5588000D01*
X-19664395Y5588000D01*
X-18836255Y4759861D01*
X-18590136Y4833995D01*
X-18397035Y5371223D01*
X-18424222Y5941454D01*
X-18590136Y6342005D01*
X-18836255Y6416139D01*
X-19664395Y5588000D01*
X-20023605Y5588000D01*
X-20037748Y5602143D01*
X-19858142Y5781748D01*
X-19844000Y5767605D01*
X-19015861Y6595745D01*
X-19089995Y6841864D01*
X-19627223Y7034965D01*
X-20197454Y7007778D01*
X-20587067Y6846395D01*
X-20796235Y6986157D01*
X-21044000Y7035440D01*
X-22644000Y7035440D01*
X-22836495Y6997151D01*
X-22595500Y7578963D01*
X-22595500Y8480037D01*
X-22696365Y8723548D01*
X-22551000Y8723548D01*
X-22551000Y8192452D01*
X-22347758Y7701783D01*
X-21972217Y7326242D01*
X-21481548Y7123000D01*
X-20950452Y7123000D01*
X-20459783Y7326242D01*
X-20084242Y7701783D01*
X-19881000Y8192452D01*
X-19881000Y8723548D01*
X-20084242Y9214217D01*
X-20459783Y9589758D01*
X-20950452Y9793000D01*
X-21481548Y9793000D01*
X-21972217Y9589758D01*
X-22347758Y9214217D01*
X-22551000Y8723548D01*
X-22696365Y8723548D01*
X-22940326Y9312519D01*
X-23577481Y9949674D01*
X-24409963Y10294500D01*
X-25311037Y10294500D01*
X-26143519Y9949674D01*
X-26780674Y9312519D01*
X-27125500Y8480037D01*
X-28022845Y8480037D01*
X-27506071Y10065792D01*
X-26715998Y12006646D01*
X-25789182Y13886044D01*
X-24730365Y15694367D01*
X-24024350Y16723548D01*
X-22551000Y16723548D01*
X-22551000Y16192452D01*
X-22347758Y15701783D01*
X-21972217Y15326242D01*
X-21481548Y15123000D01*
X-20950452Y15123000D01*
X-20459783Y15326242D01*
X-20084242Y15701783D01*
X-19881000Y16192452D01*
X-19881000Y16723548D01*
X-14551000Y16723548D01*
X-14551000Y16192452D01*
X-14347758Y15701783D01*
X-13972217Y15326242D01*
X-13481548Y15123000D01*
X-12950452Y15123000D01*
X-12459783Y15326242D01*
X-12084242Y15701783D01*
X-11947000Y16033114D01*
X-11947000Y15929452D01*
X-11743758Y15438783D01*
X-11368217Y15063242D01*
X-10877548Y14860000D01*
X-10346452Y14860000D01*
X-9855783Y15063242D01*
X-9480242Y15438783D01*
X-9277000Y15929452D01*
X-9277000Y16460548D01*
X-3947000Y16460548D01*
X-3947000Y15929452D01*
X-3743758Y15438783D01*
X-3368217Y15063242D01*
X-2877548Y14860000D01*
X-2346452Y14860000D01*
X-1855783Y15063242D01*
X-1480242Y15438783D01*
X-1277000Y15929452D01*
X-1277000Y16460548D01*
X-1290254Y16492548D01*
X1180000Y16492548D01*
X1180000Y15961452D01*
X1383242Y15470783D01*
X1758783Y15095242D01*
X2249452Y14892000D01*
X2780548Y14892000D01*
X3271217Y15095242D01*
X3646758Y15470783D01*
X3850000Y15961452D01*
X3850000Y16492548D01*
X9180000Y16492548D01*
X9180000Y15961452D01*
X9383242Y15470783D01*
X9758783Y15095242D01*
X10249452Y14892000D01*
X10780548Y14892000D01*
X11271217Y15095242D01*
X11646758Y15470783D01*
X11850000Y15961452D01*
X11850000Y16204440D01*
X12024242Y15783783D01*
X12399783Y15408242D01*
X12890452Y15205000D01*
X13421548Y15205000D01*
X13912217Y15408242D01*
X14287758Y15783783D01*
X14491000Y16274452D01*
X14491000Y16805548D01*
X19821000Y16805548D01*
X19821000Y16274452D01*
X20024242Y15783783D01*
X20399783Y15408242D01*
X20890452Y15205000D01*
X21421548Y15205000D01*
X21912217Y15408242D01*
X22287758Y15783783D01*
X22491000Y16274452D01*
X22491000Y16805548D01*
X22287758Y17296217D01*
X21912217Y17671758D01*
X21421548Y17875000D01*
X20890452Y17875000D01*
X20399783Y17671758D01*
X20024242Y17296217D01*
X19821000Y16805548D01*
X14491000Y16805548D01*
X14287758Y17296217D01*
X13912217Y17671758D01*
X13421548Y17875000D01*
X12890452Y17875000D01*
X12399783Y17671758D01*
X12024242Y17296217D01*
X11821000Y16805548D01*
X11821000Y16562560D01*
X11646758Y16983217D01*
X11271217Y17358758D01*
X10780548Y17562000D01*
X10249452Y17562000D01*
X9758783Y17358758D01*
X9383242Y16983217D01*
X9180000Y16492548D01*
X3850000Y16492548D01*
X3646758Y16983217D01*
X3271217Y17358758D01*
X2780548Y17562000D01*
X2249452Y17562000D01*
X1758783Y17358758D01*
X1383242Y16983217D01*
X1180000Y16492548D01*
X-1290254Y16492548D01*
X-1480242Y16951217D01*
X-1855783Y17326758D01*
X-2346452Y17530000D01*
X-2877548Y17530000D01*
X-3368217Y17326758D01*
X-3743758Y16951217D01*
X-3947000Y16460548D01*
X-9277000Y16460548D01*
X-9480242Y16951217D01*
X-9855783Y17326758D01*
X-10346452Y17530000D01*
X-10877548Y17530000D01*
X-11368217Y17326758D01*
X-11743758Y16951217D01*
X-11881000Y16619886D01*
X-11881000Y16723548D01*
X-12084242Y17214217D01*
X-12459783Y17589758D01*
X-12950452Y17793000D01*
X-13481548Y17793000D01*
X-13972217Y17589758D01*
X-14347758Y17214217D01*
X-14551000Y16723548D01*
X-19881000Y16723548D01*
X-20084242Y17214217D01*
X-20459783Y17589758D01*
X-20950452Y17793000D01*
X-21481548Y17793000D01*
X-21972217Y17589758D01*
X-22347758Y17214217D01*
X-22551000Y16723548D01*
X-24024350Y16723548D01*
X-23544967Y17422359D01*
X-22239057Y19061177D01*
X-20819317Y20602431D01*
X-19807199Y21554537D01*
X-17665000Y21554537D01*
X-17665000Y20653463D01*
X-17320174Y19820981D01*
X-16683019Y19183826D01*
X-15850537Y18839000D01*
X-14949463Y18839000D01*
X-14116981Y19183826D01*
X-13479826Y19820981D01*
X-13135000Y20653463D01*
X-13135000Y21554537D01*
X-13165237Y21627537D01*
X13034000Y21627537D01*
X13034000Y20726463D01*
X13378826Y19893981D01*
X14015981Y19256826D01*
X14848463Y18912000D01*
X15749537Y18912000D01*
X16582019Y19256826D01*
X17219174Y19893981D01*
X17564000Y20726463D01*
X17564000Y21627537D01*
X17219174Y22460019D01*
X16582019Y23097174D01*
X15749537Y23442000D01*
X14848463Y23442000D01*
X14015981Y23097174D01*
X13378826Y22460019D01*
X13034000Y21627537D01*
X-13165237Y21627537D01*
X-13479826Y22387019D01*
X-14116981Y23024174D01*
X-14949463Y23369000D01*
X-15850537Y23369000D01*
X-16683019Y23024174D01*
X-17320174Y22387019D01*
X-17665000Y21554537D01*
X-19807199Y21554537D01*
X-19293014Y22038233D01*
X-17667962Y23361233D01*
X-16100890Y24460548D01*
X-11947000Y24460548D01*
X-11947000Y23929452D01*
X-11743758Y23438783D01*
X-11368217Y23063242D01*
X-10877548Y22860000D01*
X-10346452Y22860000D01*
X-9855783Y23063242D01*
X-9480242Y23438783D01*
X-9277000Y23929452D01*
X-9277000Y24460548D01*
X-3947000Y24460548D01*
X-3947000Y23929452D01*
X-3743758Y23438783D01*
X-3368217Y23063242D01*
X-2877548Y22860000D01*
X-2346452Y22860000D01*
X-1855783Y23063242D01*
X-1480242Y23438783D01*
X-1277000Y23929452D01*
X-1277000Y24202333D01*
X-450537Y23860000D01*
X450537Y23860000D01*
X1180000Y24162154D01*
X1180000Y23961452D01*
X1383242Y23470783D01*
X1758783Y23095242D01*
X2249452Y22892000D01*
X2780548Y22892000D01*
X3271217Y23095242D01*
X3646758Y23470783D01*
X3850000Y23961452D01*
X3850000Y24492548D01*
X9180000Y24492548D01*
X9180000Y23961452D01*
X9383242Y23470783D01*
X9758783Y23095242D01*
X10249452Y22892000D01*
X10780548Y22892000D01*
X11271217Y23095242D01*
X11646758Y23470783D01*
X11850000Y23961452D01*
X11850000Y24492548D01*
X11646758Y24983217D01*
X11271217Y25358758D01*
X10780548Y25562000D01*
X10249452Y25562000D01*
X9758783Y25358758D01*
X9383242Y24983217D01*
X9180000Y24492548D01*
X3850000Y24492548D01*
X3646758Y24983217D01*
X3271217Y25358758D01*
X2780548Y25562000D01*
X2249452Y25562000D01*
X2211988Y25546482D01*
X2265000Y25674463D01*
X2265000Y26575537D01*
X1920174Y27408019D01*
X1283019Y28045174D01*
X450537Y28390000D01*
X-450537Y28390000D01*
X-1283019Y28045174D01*
X-1920174Y27408019D01*
X-2265000Y26575537D01*
X-2265000Y25674463D01*
X-2175899Y25459355D01*
X-2346452Y25530000D01*
X-2877548Y25530000D01*
X-3368217Y25326758D01*
X-3743758Y24951217D01*
X-3947000Y24460548D01*
X-9277000Y24460548D01*
X-9480242Y24951217D01*
X-9855783Y25326758D01*
X-10346452Y25530000D01*
X-10877548Y25530000D01*
X-11368217Y25326758D01*
X-11743758Y24951217D01*
X-11947000Y24460548D01*
X-16100890Y24460548D01*
X-15952477Y24564661D01*
X-14155341Y25642356D01*
X-12285751Y26588802D01*
X-10353278Y27399156D01*
X-8367812Y28069268D01*
X-6339516Y28595710D01*
X-4278772Y28975787D01*
X-2196127Y29207553D01*
X-102241Y29289822D01*
X1992168Y29222173D01*
G04 #@! TD*
M02*
