G04 #@! TF.GenerationSoftware,KiCad,Pcbnew,(5.0.2)-1*
G04 #@! TF.CreationDate,2020-03-10T14:07:47-07:00*
G04 #@! TF.ProjectId,ring_illuminator,72696e67-5f69-46c6-9c75-6d696e61746f,rev?*
G04 #@! TF.SameCoordinates,Original*
G04 #@! TF.FileFunction,Legend,Bot*
G04 #@! TF.FilePolarity,Positive*
%FSLAX46Y46*%
G04 Gerber Fmt 4.6, Leading zero omitted, Abs format (unit mm)*
G04 Created by KiCad (PCBNEW (5.0.2)-1) date 3/10/2020 2:07:47 PM*
%MOMM*%
%LPD*%
G01*
G04 APERTURE LIST*
%ADD10C,0.120000*%
%ADD11C,0.150000*%
G04 APERTURE END LIST*
D10*
G04 #@! TO.C,C3*
X20893721Y4066000D02*
X21219279Y4066000D01*
X20893721Y3046000D02*
X21219279Y3046000D01*
G04 #@! TO.C,C4*
X-21270279Y-4574000D02*
X-20944721Y-4574000D01*
X-21270279Y-3554000D02*
X-20944721Y-3554000D01*
G04 #@! TO.C,C5*
X22890775Y-3355000D02*
X22890775Y-3855000D01*
X23140775Y-3605000D02*
X22640775Y-3605000D01*
X17735000Y-4796000D02*
X17735000Y-5364000D01*
X17775000Y-4562000D02*
X17775000Y-5598000D01*
X17815000Y-4403000D02*
X17815000Y-5757000D01*
X17855000Y-4275000D02*
X17855000Y-5885000D01*
X17895000Y-4165000D02*
X17895000Y-5995000D01*
X17935000Y-4069000D02*
X17935000Y-6091000D01*
X17975000Y-3982000D02*
X17975000Y-6178000D01*
X18015000Y-3902000D02*
X18015000Y-6258000D01*
X18055000Y-3829000D02*
X18055000Y-6331000D01*
X18095000Y-3761000D02*
X18095000Y-6399000D01*
X18135000Y-3697000D02*
X18135000Y-6463000D01*
X18175000Y-3637000D02*
X18175000Y-6523000D01*
X18215000Y-3580000D02*
X18215000Y-6580000D01*
X18255000Y-3526000D02*
X18255000Y-6634000D01*
X18295000Y-3475000D02*
X18295000Y-6685000D01*
X18335000Y-6120000D02*
X18335000Y-6733000D01*
X18335000Y-3427000D02*
X18335000Y-4040000D01*
X18375000Y-6120000D02*
X18375000Y-6779000D01*
X18375000Y-3381000D02*
X18375000Y-4040000D01*
X18415000Y-6120000D02*
X18415000Y-6823000D01*
X18415000Y-3337000D02*
X18415000Y-4040000D01*
X18455000Y-6120000D02*
X18455000Y-6865000D01*
X18455000Y-3295000D02*
X18455000Y-4040000D01*
X18495000Y-6120000D02*
X18495000Y-6906000D01*
X18495000Y-3254000D02*
X18495000Y-4040000D01*
X18535000Y-6120000D02*
X18535000Y-6944000D01*
X18535000Y-3216000D02*
X18535000Y-4040000D01*
X18575000Y-6120000D02*
X18575000Y-6981000D01*
X18575000Y-3179000D02*
X18575000Y-4040000D01*
X18615000Y-6120000D02*
X18615000Y-7017000D01*
X18615000Y-3143000D02*
X18615000Y-4040000D01*
X18655000Y-6120000D02*
X18655000Y-7051000D01*
X18655000Y-3109000D02*
X18655000Y-4040000D01*
X18695000Y-6120000D02*
X18695000Y-7084000D01*
X18695000Y-3076000D02*
X18695000Y-4040000D01*
X18735000Y-6120000D02*
X18735000Y-7115000D01*
X18735000Y-3045000D02*
X18735000Y-4040000D01*
X18775000Y-6120000D02*
X18775000Y-7145000D01*
X18775000Y-3015000D02*
X18775000Y-4040000D01*
X18815000Y-6120000D02*
X18815000Y-7175000D01*
X18815000Y-2985000D02*
X18815000Y-4040000D01*
X18855000Y-6120000D02*
X18855000Y-7202000D01*
X18855000Y-2958000D02*
X18855000Y-4040000D01*
X18895000Y-6120000D02*
X18895000Y-7229000D01*
X18895000Y-2931000D02*
X18895000Y-4040000D01*
X18935000Y-6120000D02*
X18935000Y-7255000D01*
X18935000Y-2905000D02*
X18935000Y-4040000D01*
X18975000Y-6120000D02*
X18975000Y-7280000D01*
X18975000Y-2880000D02*
X18975000Y-4040000D01*
X19015000Y-6120000D02*
X19015000Y-7304000D01*
X19015000Y-2856000D02*
X19015000Y-4040000D01*
X19055000Y-6120000D02*
X19055000Y-7327000D01*
X19055000Y-2833000D02*
X19055000Y-4040000D01*
X19095000Y-6120000D02*
X19095000Y-7348000D01*
X19095000Y-2812000D02*
X19095000Y-4040000D01*
X19135000Y-6120000D02*
X19135000Y-7370000D01*
X19135000Y-2790000D02*
X19135000Y-4040000D01*
X19175000Y-6120000D02*
X19175000Y-7390000D01*
X19175000Y-2770000D02*
X19175000Y-4040000D01*
X19215000Y-6120000D02*
X19215000Y-7409000D01*
X19215000Y-2751000D02*
X19215000Y-4040000D01*
X19255000Y-6120000D02*
X19255000Y-7428000D01*
X19255000Y-2732000D02*
X19255000Y-4040000D01*
X19295000Y-6120000D02*
X19295000Y-7445000D01*
X19295000Y-2715000D02*
X19295000Y-4040000D01*
X19335000Y-6120000D02*
X19335000Y-7462000D01*
X19335000Y-2698000D02*
X19335000Y-4040000D01*
X19375000Y-6120000D02*
X19375000Y-7478000D01*
X19375000Y-2682000D02*
X19375000Y-4040000D01*
X19415000Y-6120000D02*
X19415000Y-7494000D01*
X19415000Y-2666000D02*
X19415000Y-4040000D01*
X19455000Y-6120000D02*
X19455000Y-7508000D01*
X19455000Y-2652000D02*
X19455000Y-4040000D01*
X19495000Y-6120000D02*
X19495000Y-7522000D01*
X19495000Y-2638000D02*
X19495000Y-4040000D01*
X19535000Y-6120000D02*
X19535000Y-7535000D01*
X19535000Y-2625000D02*
X19535000Y-4040000D01*
X19575000Y-6120000D02*
X19575000Y-7548000D01*
X19575000Y-2612000D02*
X19575000Y-4040000D01*
X19615000Y-6120000D02*
X19615000Y-7560000D01*
X19615000Y-2600000D02*
X19615000Y-4040000D01*
X19656000Y-6120000D02*
X19656000Y-7571000D01*
X19656000Y-2589000D02*
X19656000Y-4040000D01*
X19696000Y-6120000D02*
X19696000Y-7581000D01*
X19696000Y-2579000D02*
X19696000Y-4040000D01*
X19736000Y-6120000D02*
X19736000Y-7591000D01*
X19736000Y-2569000D02*
X19736000Y-4040000D01*
X19776000Y-6120000D02*
X19776000Y-7600000D01*
X19776000Y-2560000D02*
X19776000Y-4040000D01*
X19816000Y-6120000D02*
X19816000Y-7608000D01*
X19816000Y-2552000D02*
X19816000Y-4040000D01*
X19856000Y-6120000D02*
X19856000Y-7616000D01*
X19856000Y-2544000D02*
X19856000Y-4040000D01*
X19896000Y-6120000D02*
X19896000Y-7623000D01*
X19896000Y-2537000D02*
X19896000Y-4040000D01*
X19936000Y-6120000D02*
X19936000Y-7630000D01*
X19936000Y-2530000D02*
X19936000Y-4040000D01*
X19976000Y-6120000D02*
X19976000Y-7636000D01*
X19976000Y-2524000D02*
X19976000Y-4040000D01*
X20016000Y-6120000D02*
X20016000Y-7641000D01*
X20016000Y-2519000D02*
X20016000Y-4040000D01*
X20056000Y-6120000D02*
X20056000Y-7645000D01*
X20056000Y-2515000D02*
X20056000Y-4040000D01*
X20096000Y-6120000D02*
X20096000Y-7649000D01*
X20096000Y-2511000D02*
X20096000Y-4040000D01*
X20136000Y-6120000D02*
X20136000Y-7653000D01*
X20136000Y-2507000D02*
X20136000Y-4040000D01*
X20176000Y-6120000D02*
X20176000Y-7656000D01*
X20176000Y-2504000D02*
X20176000Y-4040000D01*
X20216000Y-6120000D02*
X20216000Y-7658000D01*
X20216000Y-2502000D02*
X20216000Y-4040000D01*
X20256000Y-6120000D02*
X20256000Y-7659000D01*
X20256000Y-2501000D02*
X20256000Y-4040000D01*
X20296000Y-2500000D02*
X20296000Y-4040000D01*
X20296000Y-6120000D02*
X20296000Y-7660000D01*
X20336000Y-2500000D02*
X20336000Y-4040000D01*
X20336000Y-6120000D02*
X20336000Y-7660000D01*
X22956000Y-5080000D02*
G75*
G03X22956000Y-5080000I-2620000J0D01*
G01*
G04 #@! TO.C,C6*
X-18224000Y5588000D02*
G75*
G03X-18224000Y5588000I-2620000J0D01*
G01*
X-20844000Y6628000D02*
X-20844000Y8168000D01*
X-20844000Y3008000D02*
X-20844000Y4548000D01*
X-20804000Y6628000D02*
X-20804000Y8168000D01*
X-20804000Y3008000D02*
X-20804000Y4548000D01*
X-20764000Y3009000D02*
X-20764000Y4548000D01*
X-20764000Y6628000D02*
X-20764000Y8167000D01*
X-20724000Y3010000D02*
X-20724000Y4548000D01*
X-20724000Y6628000D02*
X-20724000Y8166000D01*
X-20684000Y3012000D02*
X-20684000Y4548000D01*
X-20684000Y6628000D02*
X-20684000Y8164000D01*
X-20644000Y3015000D02*
X-20644000Y4548000D01*
X-20644000Y6628000D02*
X-20644000Y8161000D01*
X-20604000Y3019000D02*
X-20604000Y4548000D01*
X-20604000Y6628000D02*
X-20604000Y8157000D01*
X-20564000Y3023000D02*
X-20564000Y4548000D01*
X-20564000Y6628000D02*
X-20564000Y8153000D01*
X-20524000Y3027000D02*
X-20524000Y4548000D01*
X-20524000Y6628000D02*
X-20524000Y8149000D01*
X-20484000Y3032000D02*
X-20484000Y4548000D01*
X-20484000Y6628000D02*
X-20484000Y8144000D01*
X-20444000Y3038000D02*
X-20444000Y4548000D01*
X-20444000Y6628000D02*
X-20444000Y8138000D01*
X-20404000Y3045000D02*
X-20404000Y4548000D01*
X-20404000Y6628000D02*
X-20404000Y8131000D01*
X-20364000Y3052000D02*
X-20364000Y4548000D01*
X-20364000Y6628000D02*
X-20364000Y8124000D01*
X-20324000Y3060000D02*
X-20324000Y4548000D01*
X-20324000Y6628000D02*
X-20324000Y8116000D01*
X-20284000Y3068000D02*
X-20284000Y4548000D01*
X-20284000Y6628000D02*
X-20284000Y8108000D01*
X-20244000Y3077000D02*
X-20244000Y4548000D01*
X-20244000Y6628000D02*
X-20244000Y8099000D01*
X-20204000Y3087000D02*
X-20204000Y4548000D01*
X-20204000Y6628000D02*
X-20204000Y8089000D01*
X-20164000Y3097000D02*
X-20164000Y4548000D01*
X-20164000Y6628000D02*
X-20164000Y8079000D01*
X-20123000Y3108000D02*
X-20123000Y4548000D01*
X-20123000Y6628000D02*
X-20123000Y8068000D01*
X-20083000Y3120000D02*
X-20083000Y4548000D01*
X-20083000Y6628000D02*
X-20083000Y8056000D01*
X-20043000Y3133000D02*
X-20043000Y4548000D01*
X-20043000Y6628000D02*
X-20043000Y8043000D01*
X-20003000Y3146000D02*
X-20003000Y4548000D01*
X-20003000Y6628000D02*
X-20003000Y8030000D01*
X-19963000Y3160000D02*
X-19963000Y4548000D01*
X-19963000Y6628000D02*
X-19963000Y8016000D01*
X-19923000Y3174000D02*
X-19923000Y4548000D01*
X-19923000Y6628000D02*
X-19923000Y8002000D01*
X-19883000Y3190000D02*
X-19883000Y4548000D01*
X-19883000Y6628000D02*
X-19883000Y7986000D01*
X-19843000Y3206000D02*
X-19843000Y4548000D01*
X-19843000Y6628000D02*
X-19843000Y7970000D01*
X-19803000Y3223000D02*
X-19803000Y4548000D01*
X-19803000Y6628000D02*
X-19803000Y7953000D01*
X-19763000Y3240000D02*
X-19763000Y4548000D01*
X-19763000Y6628000D02*
X-19763000Y7936000D01*
X-19723000Y3259000D02*
X-19723000Y4548000D01*
X-19723000Y6628000D02*
X-19723000Y7917000D01*
X-19683000Y3278000D02*
X-19683000Y4548000D01*
X-19683000Y6628000D02*
X-19683000Y7898000D01*
X-19643000Y3298000D02*
X-19643000Y4548000D01*
X-19643000Y6628000D02*
X-19643000Y7878000D01*
X-19603000Y3320000D02*
X-19603000Y4548000D01*
X-19603000Y6628000D02*
X-19603000Y7856000D01*
X-19563000Y3341000D02*
X-19563000Y4548000D01*
X-19563000Y6628000D02*
X-19563000Y7835000D01*
X-19523000Y3364000D02*
X-19523000Y4548000D01*
X-19523000Y6628000D02*
X-19523000Y7812000D01*
X-19483000Y3388000D02*
X-19483000Y4548000D01*
X-19483000Y6628000D02*
X-19483000Y7788000D01*
X-19443000Y3413000D02*
X-19443000Y4548000D01*
X-19443000Y6628000D02*
X-19443000Y7763000D01*
X-19403000Y3439000D02*
X-19403000Y4548000D01*
X-19403000Y6628000D02*
X-19403000Y7737000D01*
X-19363000Y3466000D02*
X-19363000Y4548000D01*
X-19363000Y6628000D02*
X-19363000Y7710000D01*
X-19323000Y3493000D02*
X-19323000Y4548000D01*
X-19323000Y6628000D02*
X-19323000Y7683000D01*
X-19283000Y3523000D02*
X-19283000Y4548000D01*
X-19283000Y6628000D02*
X-19283000Y7653000D01*
X-19243000Y3553000D02*
X-19243000Y4548000D01*
X-19243000Y6628000D02*
X-19243000Y7623000D01*
X-19203000Y3584000D02*
X-19203000Y4548000D01*
X-19203000Y6628000D02*
X-19203000Y7592000D01*
X-19163000Y3617000D02*
X-19163000Y4548000D01*
X-19163000Y6628000D02*
X-19163000Y7559000D01*
X-19123000Y3651000D02*
X-19123000Y4548000D01*
X-19123000Y6628000D02*
X-19123000Y7525000D01*
X-19083000Y3687000D02*
X-19083000Y4548000D01*
X-19083000Y6628000D02*
X-19083000Y7489000D01*
X-19043000Y3724000D02*
X-19043000Y4548000D01*
X-19043000Y6628000D02*
X-19043000Y7452000D01*
X-19003000Y3762000D02*
X-19003000Y4548000D01*
X-19003000Y6628000D02*
X-19003000Y7414000D01*
X-18963000Y3803000D02*
X-18963000Y4548000D01*
X-18963000Y6628000D02*
X-18963000Y7373000D01*
X-18923000Y3845000D02*
X-18923000Y4548000D01*
X-18923000Y6628000D02*
X-18923000Y7331000D01*
X-18883000Y3889000D02*
X-18883000Y4548000D01*
X-18883000Y6628000D02*
X-18883000Y7287000D01*
X-18843000Y3935000D02*
X-18843000Y4548000D01*
X-18843000Y6628000D02*
X-18843000Y7241000D01*
X-18803000Y3983000D02*
X-18803000Y7193000D01*
X-18763000Y4034000D02*
X-18763000Y7142000D01*
X-18723000Y4088000D02*
X-18723000Y7088000D01*
X-18683000Y4145000D02*
X-18683000Y7031000D01*
X-18643000Y4205000D02*
X-18643000Y6971000D01*
X-18603000Y4269000D02*
X-18603000Y6907000D01*
X-18563000Y4337000D02*
X-18563000Y6839000D01*
X-18523000Y4410000D02*
X-18523000Y6766000D01*
X-18483000Y4490000D02*
X-18483000Y6686000D01*
X-18443000Y4577000D02*
X-18443000Y6599000D01*
X-18403000Y4673000D02*
X-18403000Y6503000D01*
X-18363000Y4783000D02*
X-18363000Y6393000D01*
X-18323000Y4911000D02*
X-18323000Y6265000D01*
X-18283000Y5070000D02*
X-18283000Y6106000D01*
X-18243000Y5304000D02*
X-18243000Y5872000D01*
X-23648775Y4113000D02*
X-23148775Y4113000D01*
X-23398775Y3863000D02*
X-23398775Y4363000D01*
G04 #@! TO.C,C1*
X21077422Y4878000D02*
X21594578Y4878000D01*
X21077422Y6298000D02*
X21594578Y6298000D01*
G04 #@! TO.C,C2*
X-21516078Y-6806000D02*
X-20998922Y-6806000D01*
X-21516078Y-5386000D02*
X-20998922Y-5386000D01*
G04 #@! TO.C,J1*
X-25790000Y3654000D02*
X-25790000Y2984000D01*
X-27940000Y3654000D02*
X-25790000Y3654000D01*
X-23230000Y-2436000D02*
X-23230000Y274000D01*
X-26090000Y-2436000D02*
X-23230000Y-2436000D01*
X-26090000Y-2806000D02*
X-26090000Y-2436000D01*
X-29790000Y-2806000D02*
X-26090000Y-2806000D01*
X-29790000Y274000D02*
X-29790000Y-2806000D01*
X-23230000Y2984000D02*
X-23230000Y274000D01*
X-26090000Y2984000D02*
X-23230000Y2984000D01*
X-26090000Y3354000D02*
X-26090000Y2984000D01*
X-29790000Y3354000D02*
X-26090000Y3354000D01*
X-29790000Y274000D02*
X-29790000Y3354000D01*
G04 #@! TO.C,J2*
X29790000Y234000D02*
X29790000Y-2846000D01*
X29790000Y-2846000D02*
X26090000Y-2846000D01*
X26090000Y-2846000D02*
X26090000Y-2476000D01*
X26090000Y-2476000D02*
X23230000Y-2476000D01*
X23230000Y-2476000D02*
X23230000Y234000D01*
X29790000Y234000D02*
X29790000Y3314000D01*
X29790000Y3314000D02*
X26090000Y3314000D01*
X26090000Y3314000D02*
X26090000Y2944000D01*
X26090000Y2944000D02*
X23230000Y2944000D01*
X23230000Y2944000D02*
X23230000Y234000D01*
X27940000Y-3146000D02*
X25790000Y-3146000D01*
X25790000Y-3146000D02*
X25790000Y-2476000D01*
G04 #@! TO.C,C3*
D11*
X21223166Y1768857D02*
X21270785Y1721238D01*
X21413642Y1673619D01*
X21508880Y1673619D01*
X21651738Y1721238D01*
X21746976Y1816476D01*
X21794595Y1911714D01*
X21842214Y2102190D01*
X21842214Y2245047D01*
X21794595Y2435523D01*
X21746976Y2530761D01*
X21651738Y2626000D01*
X21508880Y2673619D01*
X21413642Y2673619D01*
X21270785Y2626000D01*
X21223166Y2578380D01*
X20889833Y2673619D02*
X20270785Y2673619D01*
X20604119Y2292666D01*
X20461261Y2292666D01*
X20366023Y2245047D01*
X20318404Y2197428D01*
X20270785Y2102190D01*
X20270785Y1864095D01*
X20318404Y1768857D01*
X20366023Y1721238D01*
X20461261Y1673619D01*
X20746976Y1673619D01*
X20842214Y1721238D01*
X20889833Y1768857D01*
G04 #@! TO.C,C4*
X-18629333Y-3405142D02*
X-18581714Y-3452761D01*
X-18438857Y-3500380D01*
X-18343619Y-3500380D01*
X-18200761Y-3452761D01*
X-18105523Y-3357523D01*
X-18057904Y-3262285D01*
X-18010285Y-3071809D01*
X-18010285Y-2928952D01*
X-18057904Y-2738476D01*
X-18105523Y-2643238D01*
X-18200761Y-2548000D01*
X-18343619Y-2500380D01*
X-18438857Y-2500380D01*
X-18581714Y-2548000D01*
X-18629333Y-2595619D01*
X-19486476Y-2833714D02*
X-19486476Y-3500380D01*
X-19248380Y-2452761D02*
X-19010285Y-3167047D01*
X-19629333Y-3167047D01*
G04 #@! TO.C,C5*
X20502666Y-1687142D02*
X20550285Y-1734761D01*
X20693142Y-1782380D01*
X20788380Y-1782380D01*
X20931238Y-1734761D01*
X21026476Y-1639523D01*
X21074095Y-1544285D01*
X21121714Y-1353809D01*
X21121714Y-1210952D01*
X21074095Y-1020476D01*
X21026476Y-925238D01*
X20931238Y-830000D01*
X20788380Y-782380D01*
X20693142Y-782380D01*
X20550285Y-830000D01*
X20502666Y-877619D01*
X19597904Y-782380D02*
X20074095Y-782380D01*
X20121714Y-1258571D01*
X20074095Y-1210952D01*
X19978857Y-1163333D01*
X19740761Y-1163333D01*
X19645523Y-1210952D01*
X19597904Y-1258571D01*
X19550285Y-1353809D01*
X19550285Y-1591904D01*
X19597904Y-1687142D01*
X19645523Y-1734761D01*
X19740761Y-1782380D01*
X19978857Y-1782380D01*
X20074095Y-1734761D01*
X20121714Y-1687142D01*
G04 #@! TO.C,C6*
X-20677333Y1480857D02*
X-20629714Y1433238D01*
X-20486857Y1385619D01*
X-20391619Y1385619D01*
X-20248761Y1433238D01*
X-20153523Y1528476D01*
X-20105904Y1623714D01*
X-20058285Y1814190D01*
X-20058285Y1957047D01*
X-20105904Y2147523D01*
X-20153523Y2242761D01*
X-20248761Y2338000D01*
X-20391619Y2385619D01*
X-20486857Y2385619D01*
X-20629714Y2338000D01*
X-20677333Y2290380D01*
X-21534476Y2385619D02*
X-21344000Y2385619D01*
X-21248761Y2338000D01*
X-21201142Y2290380D01*
X-21105904Y2147523D01*
X-21058285Y1957047D01*
X-21058285Y1576095D01*
X-21105904Y1480857D01*
X-21153523Y1433238D01*
X-21248761Y1385619D01*
X-21439238Y1385619D01*
X-21534476Y1433238D01*
X-21582095Y1480857D01*
X-21629714Y1576095D01*
X-21629714Y1814190D01*
X-21582095Y1909428D01*
X-21534476Y1957047D01*
X-21439238Y2004666D01*
X-21248761Y2004666D01*
X-21153523Y1957047D01*
X-21105904Y1909428D01*
X-21058285Y1814190D01*
G04 #@! TO.C,C1*
X18454666Y5230857D02*
X18502285Y5183238D01*
X18645142Y5135619D01*
X18740380Y5135619D01*
X18883238Y5183238D01*
X18978476Y5278476D01*
X19026095Y5373714D01*
X19073714Y5564190D01*
X19073714Y5707047D01*
X19026095Y5897523D01*
X18978476Y5992761D01*
X18883238Y6088000D01*
X18740380Y6135619D01*
X18645142Y6135619D01*
X18502285Y6088000D01*
X18454666Y6040380D01*
X17502285Y5135619D02*
X18073714Y5135619D01*
X17788000Y5135619D02*
X17788000Y6135619D01*
X17883238Y5992761D01*
X17978476Y5897523D01*
X18073714Y5849904D01*
G04 #@! TO.C,C2*
X-21090833Y-8103142D02*
X-21043214Y-8150761D01*
X-20900357Y-8198380D01*
X-20805119Y-8198380D01*
X-20662261Y-8150761D01*
X-20567023Y-8055523D01*
X-20519404Y-7960285D01*
X-20471785Y-7769809D01*
X-20471785Y-7626952D01*
X-20519404Y-7436476D01*
X-20567023Y-7341238D01*
X-20662261Y-7246000D01*
X-20805119Y-7198380D01*
X-20900357Y-7198380D01*
X-21043214Y-7246000D01*
X-21090833Y-7293619D01*
X-21471785Y-7293619D02*
X-21519404Y-7246000D01*
X-21614642Y-7198380D01*
X-21852738Y-7198380D01*
X-21947976Y-7246000D01*
X-21995595Y-7293619D01*
X-22043214Y-7388857D01*
X-22043214Y-7484095D01*
X-21995595Y-7626952D01*
X-21424166Y-8198380D01*
X-22043214Y-8198380D01*
G04 #@! TO.C,J1*
X-27606666Y4991619D02*
X-27606666Y4277333D01*
X-27559047Y4134476D01*
X-27463809Y4039238D01*
X-27320952Y3991619D01*
X-27225714Y3991619D01*
X-28606666Y3991619D02*
X-28035238Y3991619D01*
X-28320952Y3991619D02*
X-28320952Y4991619D01*
X-28225714Y4848761D01*
X-28130476Y4753523D01*
X-28035238Y4705904D01*
G04 #@! TO.C,J2*
X28273333Y-3388380D02*
X28273333Y-4102666D01*
X28320952Y-4245523D01*
X28416190Y-4340761D01*
X28559047Y-4388380D01*
X28654285Y-4388380D01*
X27844761Y-3483619D02*
X27797142Y-3436000D01*
X27701904Y-3388380D01*
X27463809Y-3388380D01*
X27368571Y-3436000D01*
X27320952Y-3483619D01*
X27273333Y-3578857D01*
X27273333Y-3674095D01*
X27320952Y-3816952D01*
X27892380Y-4388380D01*
X27273333Y-4388380D01*
G04 #@! TD*
M02*
