G04 #@! TF.GenerationSoftware,KiCad,Pcbnew,(5.0.0)*
G04 #@! TF.CreationDate,2020-03-19T11:29:46-07:00*
G04 #@! TF.ProjectId,ring_illuminator,72696E675F696C6C756D696E61746F72,rev?*
G04 #@! TF.SameCoordinates,Original*
G04 #@! TF.FileFunction,Copper,L1,Top,Signal*
G04 #@! TF.FilePolarity,Positive*
%FSLAX46Y46*%
G04 Gerber Fmt 4.6, Leading zero omitted, Abs format (unit mm)*
G04 Created by KiCad (PCBNEW (5.0.0)) date 03/19/20 11:29:46*
%MOMM*%
%LPD*%
G01*
G04 APERTURE LIST*
G04 #@! TA.AperFunction,Conductor*
%ADD10C,0.100000*%
G04 #@! TD*
G04 #@! TA.AperFunction,SMDPad,CuDef*
%ADD11C,1.524000*%
G04 #@! TD*
G04 #@! TA.AperFunction,ComponentPad*
%ADD12C,1.400000*%
G04 #@! TD*
G04 #@! TA.AperFunction,SMDPad,CuDef*
%ADD13R,1.300000X3.300000*%
G04 #@! TD*
G04 #@! TA.AperFunction,SMDPad,CuDef*
%ADD14R,0.600000X3.300000*%
G04 #@! TD*
G04 #@! TA.AperFunction,ComponentPad*
%ADD15C,3.260000*%
G04 #@! TD*
G04 #@! TA.AperFunction,Conductor*
%ADD16C,1.000000*%
G04 #@! TD*
G04 APERTURE END LIST*
D10*
G04 #@! TO.N,LED2-*
G04 #@! TO.C,J14*
G36*
X-6593655Y-25239835D02*
X-6556671Y-25245321D01*
X-6520402Y-25254406D01*
X-6485198Y-25267002D01*
X-6451398Y-25282988D01*
X-6419328Y-25302210D01*
X-6389296Y-25324483D01*
X-6361592Y-25349592D01*
X-6336483Y-25377296D01*
X-6314210Y-25407328D01*
X-6294988Y-25439398D01*
X-6279002Y-25473198D01*
X-6266406Y-25508402D01*
X-6257321Y-25544671D01*
X-6251835Y-25581655D01*
X-6250000Y-25619000D01*
X-6250000Y-26381000D01*
X-6251835Y-26418345D01*
X-6257321Y-26455329D01*
X-6266406Y-26491598D01*
X-6279002Y-26526802D01*
X-6294988Y-26560602D01*
X-6314210Y-26592672D01*
X-6336483Y-26622704D01*
X-6361592Y-26650408D01*
X-6389296Y-26675517D01*
X-6419328Y-26697790D01*
X-6451398Y-26717012D01*
X-6485198Y-26732998D01*
X-6520402Y-26745594D01*
X-6556671Y-26754679D01*
X-6593655Y-26760165D01*
X-6631000Y-26762000D01*
X-9369000Y-26762000D01*
X-9406345Y-26760165D01*
X-9443329Y-26754679D01*
X-9479598Y-26745594D01*
X-9514802Y-26732998D01*
X-9548602Y-26717012D01*
X-9580672Y-26697790D01*
X-9610704Y-26675517D01*
X-9638408Y-26650408D01*
X-9663517Y-26622704D01*
X-9685790Y-26592672D01*
X-9705012Y-26560602D01*
X-9720998Y-26526802D01*
X-9733594Y-26491598D01*
X-9742679Y-26455329D01*
X-9748165Y-26418345D01*
X-9750000Y-26381000D01*
X-9750000Y-25619000D01*
X-9748165Y-25581655D01*
X-9742679Y-25544671D01*
X-9733594Y-25508402D01*
X-9720998Y-25473198D01*
X-9705012Y-25439398D01*
X-9685790Y-25407328D01*
X-9663517Y-25377296D01*
X-9638408Y-25349592D01*
X-9610704Y-25324483D01*
X-9580672Y-25302210D01*
X-9548602Y-25282988D01*
X-9514802Y-25267002D01*
X-9479598Y-25254406D01*
X-9443329Y-25245321D01*
X-9406345Y-25239835D01*
X-9369000Y-25238000D01*
X-6631000Y-25238000D01*
X-6593655Y-25239835D01*
X-6593655Y-25239835D01*
G37*
D11*
G04 #@! TD*
G04 #@! TO.P,J14,1*
G04 #@! TO.N,LED2-*
X-8000000Y-26000000D03*
D10*
G04 #@! TO.N,LED2+*
G04 #@! TO.C,J13*
G36*
X-26581655Y1748165D02*
X-26544671Y1742679D01*
X-26508402Y1733594D01*
X-26473198Y1720998D01*
X-26439398Y1705012D01*
X-26407328Y1685790D01*
X-26377296Y1663517D01*
X-26349592Y1638408D01*
X-26324483Y1610704D01*
X-26302210Y1580672D01*
X-26282988Y1548602D01*
X-26267002Y1514802D01*
X-26254406Y1479598D01*
X-26245321Y1443329D01*
X-26239835Y1406345D01*
X-26238000Y1369000D01*
X-26238000Y-1369000D01*
X-26239835Y-1406345D01*
X-26245321Y-1443329D01*
X-26254406Y-1479598D01*
X-26267002Y-1514802D01*
X-26282988Y-1548602D01*
X-26302210Y-1580672D01*
X-26324483Y-1610704D01*
X-26349592Y-1638408D01*
X-26377296Y-1663517D01*
X-26407328Y-1685790D01*
X-26439398Y-1705012D01*
X-26473198Y-1720998D01*
X-26508402Y-1733594D01*
X-26544671Y-1742679D01*
X-26581655Y-1748165D01*
X-26619000Y-1750000D01*
X-27381000Y-1750000D01*
X-27418345Y-1748165D01*
X-27455329Y-1742679D01*
X-27491598Y-1733594D01*
X-27526802Y-1720998D01*
X-27560602Y-1705012D01*
X-27592672Y-1685790D01*
X-27622704Y-1663517D01*
X-27650408Y-1638408D01*
X-27675517Y-1610704D01*
X-27697790Y-1580672D01*
X-27717012Y-1548602D01*
X-27732998Y-1514802D01*
X-27745594Y-1479598D01*
X-27754679Y-1443329D01*
X-27760165Y-1406345D01*
X-27762000Y-1369000D01*
X-27762000Y1369000D01*
X-27760165Y1406345D01*
X-27754679Y1443329D01*
X-27745594Y1479598D01*
X-27732998Y1514802D01*
X-27717012Y1548602D01*
X-27697790Y1580672D01*
X-27675517Y1610704D01*
X-27650408Y1638408D01*
X-27622704Y1663517D01*
X-27592672Y1685790D01*
X-27560602Y1705012D01*
X-27526802Y1720998D01*
X-27491598Y1733594D01*
X-27455329Y1742679D01*
X-27418345Y1748165D01*
X-27381000Y1750000D01*
X-26619000Y1750000D01*
X-26581655Y1748165D01*
X-26581655Y1748165D01*
G37*
D11*
G04 #@! TD*
G04 #@! TO.P,J13,1*
G04 #@! TO.N,LED2+*
X-27000000Y0D03*
D10*
G04 #@! TO.N,LED1+*
G04 #@! TO.C,J1*
G36*
X27418345Y1748165D02*
X27455329Y1742679D01*
X27491598Y1733594D01*
X27526802Y1720998D01*
X27560602Y1705012D01*
X27592672Y1685790D01*
X27622704Y1663517D01*
X27650408Y1638408D01*
X27675517Y1610704D01*
X27697790Y1580672D01*
X27717012Y1548602D01*
X27732998Y1514802D01*
X27745594Y1479598D01*
X27754679Y1443329D01*
X27760165Y1406345D01*
X27762000Y1369000D01*
X27762000Y-1369000D01*
X27760165Y-1406345D01*
X27754679Y-1443329D01*
X27745594Y-1479598D01*
X27732998Y-1514802D01*
X27717012Y-1548602D01*
X27697790Y-1580672D01*
X27675517Y-1610704D01*
X27650408Y-1638408D01*
X27622704Y-1663517D01*
X27592672Y-1685790D01*
X27560602Y-1705012D01*
X27526802Y-1720998D01*
X27491598Y-1733594D01*
X27455329Y-1742679D01*
X27418345Y-1748165D01*
X27381000Y-1750000D01*
X26619000Y-1750000D01*
X26581655Y-1748165D01*
X26544671Y-1742679D01*
X26508402Y-1733594D01*
X26473198Y-1720998D01*
X26439398Y-1705012D01*
X26407328Y-1685790D01*
X26377296Y-1663517D01*
X26349592Y-1638408D01*
X26324483Y-1610704D01*
X26302210Y-1580672D01*
X26282988Y-1548602D01*
X26267002Y-1514802D01*
X26254406Y-1479598D01*
X26245321Y-1443329D01*
X26239835Y-1406345D01*
X26238000Y-1369000D01*
X26238000Y1369000D01*
X26239835Y1406345D01*
X26245321Y1443329D01*
X26254406Y1479598D01*
X26267002Y1514802D01*
X26282988Y1548602D01*
X26302210Y1580672D01*
X26324483Y1610704D01*
X26349592Y1638408D01*
X26377296Y1663517D01*
X26407328Y1685790D01*
X26439398Y1705012D01*
X26473198Y1720998D01*
X26508402Y1733594D01*
X26544671Y1742679D01*
X26581655Y1748165D01*
X26619000Y1750000D01*
X27381000Y1750000D01*
X27418345Y1748165D01*
X27418345Y1748165D01*
G37*
D11*
G04 #@! TD*
G04 #@! TO.P,J1,1*
G04 #@! TO.N,LED1+*
X27000000Y0D03*
D10*
G04 #@! TO.N,LED1-*
G04 #@! TO.C,J2*
G36*
X9406345Y26760165D02*
X9443329Y26754679D01*
X9479598Y26745594D01*
X9514802Y26732998D01*
X9548602Y26717012D01*
X9580672Y26697790D01*
X9610704Y26675517D01*
X9638408Y26650408D01*
X9663517Y26622704D01*
X9685790Y26592672D01*
X9705012Y26560602D01*
X9720998Y26526802D01*
X9733594Y26491598D01*
X9742679Y26455329D01*
X9748165Y26418345D01*
X9750000Y26381000D01*
X9750000Y25619000D01*
X9748165Y25581655D01*
X9742679Y25544671D01*
X9733594Y25508402D01*
X9720998Y25473198D01*
X9705012Y25439398D01*
X9685790Y25407328D01*
X9663517Y25377296D01*
X9638408Y25349592D01*
X9610704Y25324483D01*
X9580672Y25302210D01*
X9548602Y25282988D01*
X9514802Y25267002D01*
X9479598Y25254406D01*
X9443329Y25245321D01*
X9406345Y25239835D01*
X9369000Y25238000D01*
X6631000Y25238000D01*
X6593655Y25239835D01*
X6556671Y25245321D01*
X6520402Y25254406D01*
X6485198Y25267002D01*
X6451398Y25282988D01*
X6419328Y25302210D01*
X6389296Y25324483D01*
X6361592Y25349592D01*
X6336483Y25377296D01*
X6314210Y25407328D01*
X6294988Y25439398D01*
X6279002Y25473198D01*
X6266406Y25508402D01*
X6257321Y25544671D01*
X6251835Y25581655D01*
X6250000Y25619000D01*
X6250000Y26381000D01*
X6251835Y26418345D01*
X6257321Y26455329D01*
X6266406Y26491598D01*
X6279002Y26526802D01*
X6294988Y26560602D01*
X6314210Y26592672D01*
X6336483Y26622704D01*
X6361592Y26650408D01*
X6389296Y26675517D01*
X6419328Y26697790D01*
X6451398Y26717012D01*
X6485198Y26732998D01*
X6520402Y26745594D01*
X6556671Y26754679D01*
X6593655Y26760165D01*
X6631000Y26762000D01*
X9369000Y26762000D01*
X9406345Y26760165D01*
X9406345Y26760165D01*
G37*
D11*
G04 #@! TD*
G04 #@! TO.P,J2,1*
G04 #@! TO.N,LED1-*
X8000000Y26000000D03*
D12*
G04 #@! TO.P,D4,*
G04 #@! TO.N,*
X-10547000Y-24216000D03*
X-2547000Y-24216000D03*
X-2547000Y-16216000D03*
X-10547000Y-16216000D03*
D13*
G04 #@! TO.P,D4,3*
G04 #@! TO.N,N/C*
X-6547000Y-20216000D03*
D14*
G04 #@! TO.P,D4,2*
G04 #@! TO.N,Net-(D2-Pad1)*
X-7947000Y-20216000D03*
G04 #@! TO.P,D4,1*
G04 #@! TO.N,LED2-*
X-5147000Y-20216000D03*
G04 #@! TD*
D12*
G04 #@! TO.P,D9,*
G04 #@! TO.N,*
X2515000Y16227000D03*
X10515000Y16227000D03*
X10515000Y24227000D03*
X2515000Y24227000D03*
D13*
G04 #@! TO.P,D9,3*
G04 #@! TO.N,N/C*
X6515000Y20227000D03*
D14*
G04 #@! TO.P,D9,2*
G04 #@! TO.N,Net-(D7-Pad1)*
X5115000Y20227000D03*
G04 #@! TO.P,D9,1*
G04 #@! TO.N,LED1-*
X7915000Y20227000D03*
G04 #@! TD*
D12*
G04 #@! TO.P,D8,*
G04 #@! TO.N,*
X-10612000Y16195000D03*
X-2612000Y16195000D03*
X-2612000Y24195000D03*
X-10612000Y24195000D03*
D13*
G04 #@! TO.P,D8,3*
G04 #@! TO.N,N/C*
X-6612000Y20195000D03*
D14*
G04 #@! TO.P,D8,2*
G04 #@! TO.N,Net-(D6-Pad1)*
X-8012000Y20195000D03*
G04 #@! TO.P,D8,1*
G04 #@! TO.N,Net-(D10-Pad2)*
X-5212000Y20195000D03*
G04 #@! TD*
D12*
G04 #@! TO.P,D3,*
G04 #@! TO.N,*
X2579000Y-24206000D03*
X10579000Y-24206000D03*
X10579000Y-16206000D03*
X2579000Y-16206000D03*
D13*
G04 #@! TO.P,D3,3*
G04 #@! TO.N,N/C*
X6579000Y-20206000D03*
D14*
G04 #@! TO.P,D3,2*
G04 #@! TO.N,Net-(D1-Pad1)*
X5179000Y-20206000D03*
G04 #@! TO.P,D3,1*
G04 #@! TO.N,Net-(D3-Pad1)*
X7979000Y-20206000D03*
G04 #@! TD*
D12*
G04 #@! TO.P,D2,*
G04 #@! TO.N,*
X13196000Y-16485000D03*
X21196000Y-16485000D03*
X21196000Y-8485000D03*
X13196000Y-8485000D03*
D13*
G04 #@! TO.P,D2,3*
G04 #@! TO.N,N/C*
X17196000Y-12485000D03*
D14*
G04 #@! TO.P,D2,2*
G04 #@! TO.N,Net-(D10-Pad1)*
X15796000Y-12485000D03*
G04 #@! TO.P,D2,1*
G04 #@! TO.N,Net-(D2-Pad1)*
X18596000Y-12485000D03*
G04 #@! TD*
D12*
G04 #@! TO.P,D1,*
G04 #@! TO.N,*
X17250000Y-4000000D03*
X25250000Y-4000000D03*
X25250000Y4000000D03*
X17250000Y4000000D03*
D13*
G04 #@! TO.P,D1,3*
G04 #@! TO.N,N/C*
X21250000Y0D03*
D14*
G04 #@! TO.P,D1,2*
G04 #@! TO.N,LED1+*
X19850000Y0D03*
G04 #@! TO.P,D1,1*
G04 #@! TO.N,Net-(D1-Pad1)*
X22650000Y0D03*
G04 #@! TD*
D12*
G04 #@! TO.P,D5,*
G04 #@! TO.N,*
X-21176000Y-16512000D03*
X-13176000Y-16512000D03*
X-13176000Y-8512000D03*
X-21176000Y-8512000D03*
D13*
G04 #@! TO.P,D5,3*
G04 #@! TO.N,N/C*
X-17176000Y-12512000D03*
D14*
G04 #@! TO.P,D5,2*
G04 #@! TO.N,Net-(D3-Pad1)*
X-18576000Y-12512000D03*
G04 #@! TO.P,D5,1*
G04 #@! TO.N,Net-(D5-Pad1)*
X-15776000Y-12512000D03*
G04 #@! TD*
D12*
G04 #@! TO.P,D6,*
G04 #@! TO.N,*
X-25250000Y-4000000D03*
X-17250000Y-4000000D03*
X-17250000Y4000000D03*
X-25250000Y4000000D03*
D13*
G04 #@! TO.P,D6,3*
G04 #@! TO.N,N/C*
X-21250000Y0D03*
D14*
G04 #@! TO.P,D6,2*
G04 #@! TO.N,LED2+*
X-22650000Y0D03*
G04 #@! TO.P,D6,1*
G04 #@! TO.N,Net-(D6-Pad1)*
X-19850000Y0D03*
G04 #@! TD*
D12*
G04 #@! TO.P,D7,*
G04 #@! TO.N,*
X-21216000Y8458000D03*
X-13216000Y8458000D03*
X-13216000Y16458000D03*
X-21216000Y16458000D03*
D13*
G04 #@! TO.P,D7,3*
G04 #@! TO.N,N/C*
X-17216000Y12458000D03*
D14*
G04 #@! TO.P,D7,2*
G04 #@! TO.N,Net-(D5-Pad1)*
X-18616000Y12458000D03*
G04 #@! TO.P,D7,1*
G04 #@! TO.N,Net-(D7-Pad1)*
X-15816000Y12458000D03*
G04 #@! TD*
D12*
G04 #@! TO.P,D10,*
G04 #@! TO.N,*
X13156000Y8540000D03*
X21156000Y8540000D03*
X21156000Y16540000D03*
X13156000Y16540000D03*
D13*
G04 #@! TO.P,D10,3*
G04 #@! TO.N,N/C*
X17156000Y12540000D03*
D14*
G04 #@! TO.P,D10,2*
G04 #@! TO.N,Net-(D10-Pad2)*
X15756000Y12540000D03*
G04 #@! TO.P,D10,1*
G04 #@! TO.N,Net-(D10-Pad1)*
X18556000Y12540000D03*
G04 #@! TD*
D15*
G04 #@! TO.P,J11,1*
G04 #@! TO.N,Net-(J11-Pad1)*
X-24835000Y-8109000D03*
G04 #@! TD*
G04 #@! TO.P,J10,1*
G04 #@! TO.N,Net-(J10-Pad1)*
X0Y-26125000D03*
G04 #@! TD*
G04 #@! TO.P,J9,1*
G04 #@! TO.N,Net-(J9-Pad1)*
X0Y26125000D03*
G04 #@! TD*
G04 #@! TO.P,J8,1*
G04 #@! TO.N,Net-(J8-Pad1)*
X-15400000Y21104000D03*
G04 #@! TD*
G04 #@! TO.P,J7,1*
G04 #@! TO.N,Net-(J7-Pad1)*
X15433000Y-21079000D03*
G04 #@! TD*
G04 #@! TO.P,J6,1*
G04 #@! TO.N,Net-(J6-Pad1)*
X-24860500Y8029500D03*
G04 #@! TD*
G04 #@! TO.P,J5,1*
G04 #@! TO.N,Net-(J5-Pad1)*
X15299000Y21177000D03*
G04 #@! TD*
G04 #@! TO.P,J4,1*
G04 #@! TO.N,Net-(J4-Pad1)*
X-15332000Y-21153000D03*
G04 #@! TD*
G04 #@! TO.P,J3,1*
G04 #@! TO.N,Net-(J3-Pad1)*
X24873000Y-7990000D03*
G04 #@! TD*
G04 #@! TO.P,J12,1*
G04 #@! TO.N,Net-(J12-Pad1)*
X24821000Y8148000D03*
G04 #@! TD*
D16*
G04 #@! TO.N,Net-(D7-Pad1)*
X3815000Y20227000D02*
X5115000Y20227000D01*
X1496999Y22545001D02*
X3815000Y20227000D01*
X-9201001Y22545001D02*
X1496999Y22545001D01*
X-15816000Y15930002D02*
X-9201001Y22545001D01*
X-15816000Y12458000D02*
X-15816000Y15930002D01*
G04 #@! TO.N,Net-(D6-Pad1)*
X-8012000Y17545000D02*
X-8012000Y20195000D01*
X-8012000Y16722998D02*
X-8012000Y17545000D01*
X-14616001Y10118997D02*
X-8012000Y16722998D01*
X-14616001Y3933999D02*
X-14616001Y10118997D01*
X-18550000Y0D02*
X-14616001Y3933999D01*
X-19850000Y0D02*
X-18550000Y0D01*
G04 #@! TO.N,Net-(D10-Pad2)*
X14456000Y12540000D02*
X15756000Y12540000D01*
X12324988Y14671012D02*
X14456000Y12540000D01*
X1611988Y14671012D02*
X12324988Y14671012D01*
X-3912000Y20195000D02*
X1611988Y14671012D01*
X-5212000Y20195000D02*
X-3912000Y20195000D01*
G04 #@! TO.N,Net-(D2-Pad1)*
X-7947000Y-17566000D02*
X-7947000Y-20216000D01*
X-5186999Y-14805999D02*
X-7947000Y-17566000D01*
X11251001Y-14805999D02*
X-5186999Y-14805999D01*
X11280003Y-14835001D02*
X11251001Y-14805999D01*
X18406001Y-14835001D02*
X11280003Y-14835001D01*
X18596000Y-14645002D02*
X18406001Y-14835001D01*
X18596000Y-12485000D02*
X18596000Y-14645002D01*
G04 #@! TO.N,Net-(D3-Pad1)*
X-18386001Y-14862001D02*
X-18576000Y-14672002D01*
X-18030999Y-14862001D02*
X-18386001Y-14862001D01*
X-13001999Y-19891001D02*
X-18030999Y-14862001D01*
X-18576000Y-14672002D02*
X-18576000Y-12512000D01*
X-13001999Y-24276783D02*
X-13001999Y-19891001D01*
X-9816772Y-27462010D02*
X-13001999Y-24276783D01*
X-2111392Y-27462010D02*
X-9816772Y-27462010D01*
X-1118401Y-28455001D02*
X-2111392Y-27462010D01*
X2379999Y-28455001D02*
X-1118401Y-28455001D01*
X7979000Y-22856000D02*
X2379999Y-28455001D01*
X7979000Y-20206000D02*
X7979000Y-22856000D01*
G04 #@! TO.N,Net-(D1-Pad1)*
X19093060Y-15845012D02*
X19079988Y-15845012D01*
X22650000Y-2160002D02*
X19795999Y-5014003D01*
X22650000Y0D02*
X22650000Y-2160002D01*
X19795999Y-5014003D02*
X19795999Y-11987929D01*
X19795999Y-11987929D02*
X19796010Y-11987940D01*
X19796010Y-11987940D02*
X19796010Y-15142062D01*
X19796010Y-15142062D02*
X19093060Y-15845012D01*
X5179000Y-18045998D02*
X5179000Y-20206000D01*
X5368999Y-17855999D02*
X5179000Y-18045998D01*
X8839001Y-17855999D02*
X5368999Y-17855999D01*
X8868003Y-17885001D02*
X8839001Y-17855999D01*
X17039999Y-17885001D02*
X8868003Y-17885001D01*
X19079988Y-15845012D02*
X17039999Y-17885001D01*
G04 #@! TO.N,Net-(D5-Pad1)*
X-27190501Y7861499D02*
X-27190501Y10401499D01*
X-15776000Y-9862000D02*
X-20237999Y-5400001D01*
X-15776000Y-12512000D02*
X-15776000Y-9862000D01*
X-20237999Y-5400001D02*
X-25922001Y-5400001D01*
X-25922001Y-5400001D02*
X-28462010Y-2859992D01*
X-28462010Y-2859992D02*
X-28462010Y6589990D01*
X-28462010Y6589990D02*
X-27190501Y7861499D01*
X-25134000Y12458000D02*
X-18616000Y12458000D01*
X-27190501Y10401499D02*
X-25134000Y12458000D01*
G04 #@! TO.N,Net-(D10-Pad1)*
X15796000Y-9835000D02*
X15796000Y-12485000D01*
X15796000Y4618002D02*
X15796000Y-9835000D01*
X18556000Y7378002D02*
X15796000Y4618002D01*
X18556000Y12540000D02*
X18556000Y7378002D01*
G04 #@! TO.N,LED2+*
X-27000000Y0D02*
X-22650000Y0D01*
G04 #@! TO.N,LED2-*
X-8000000Y-26000000D02*
X-4826000Y-22826000D01*
X-4826000Y-20537000D02*
X-5147000Y-20216000D01*
X-4826000Y-22826000D02*
X-4826000Y-20537000D01*
G04 #@! TO.N,LED1+*
X19850000Y2160002D02*
X19850000Y0D01*
X20039999Y2350001D02*
X19850000Y2160002D01*
X24649999Y2350001D02*
X20039999Y2350001D01*
X27000000Y0D02*
X24649999Y2350001D01*
G04 #@! TO.N,LED1-*
X8000000Y20312000D02*
X7915000Y20227000D01*
X8000000Y26000000D02*
X8000000Y20312000D01*
G04 #@! TD*
M02*
