G04 #@! TF.GenerationSoftware,KiCad,Pcbnew,(5.0.0)*
G04 #@! TF.CreationDate,2020-03-19T11:29:46-07:00*
G04 #@! TF.ProjectId,ring_illuminator,72696E675F696C6C756D696E61746F72,rev?*
G04 #@! TF.SameCoordinates,Original*
G04 #@! TF.FileFunction,Legend,Top*
G04 #@! TF.FilePolarity,Positive*
%FSLAX46Y46*%
G04 Gerber Fmt 4.6, Leading zero omitted, Abs format (unit mm)*
G04 Created by KiCad (PCBNEW (5.0.0)) date 03/19/20 11:29:46*
%MOMM*%
%LPD*%
G01*
G04 APERTURE LIST*
%ADD10C,0.300000*%
%ADD11C,0.150000*%
G04 APERTURE END LIST*
D10*
X2556142Y28507428D02*
X3056142Y27007428D01*
X3556142Y28507428D01*
X4841857Y27007428D02*
X3984714Y27007428D01*
X4413285Y27007428D02*
X4413285Y28507428D01*
X4270428Y28293142D01*
X4127571Y28150285D01*
X3984714Y28078857D01*
X5484714Y27578857D02*
X6627571Y27578857D01*
X26864571Y-6206857D02*
X28364571Y-5706857D01*
X26864571Y-5206857D01*
X28364571Y-3921142D02*
X28364571Y-4778285D01*
X28364571Y-4349714D02*
X26864571Y-4349714D01*
X27078857Y-4492571D01*
X27221714Y-4635428D01*
X27293142Y-4778285D01*
X27793142Y-3278285D02*
X27793142Y-2135428D01*
X28364571Y-2706857D02*
X27221714Y-2706857D01*
X-6587857Y-27372571D02*
X-6087857Y-28872571D01*
X-5587857Y-27372571D01*
X-5159285Y-27515428D02*
X-5087857Y-27444000D01*
X-4945000Y-27372571D01*
X-4587857Y-27372571D01*
X-4445000Y-27444000D01*
X-4373571Y-27515428D01*
X-4302142Y-27658285D01*
X-4302142Y-27801142D01*
X-4373571Y-28015428D01*
X-5230714Y-28872571D01*
X-4302142Y-28872571D01*
X-3659285Y-28301142D02*
X-2516428Y-28301142D01*
X-28634428Y2175142D02*
X-27134428Y2675142D01*
X-28634428Y3175142D01*
X-28491571Y3603714D02*
X-28563000Y3675142D01*
X-28634428Y3818000D01*
X-28634428Y4175142D01*
X-28563000Y4318000D01*
X-28491571Y4389428D01*
X-28348714Y4460857D01*
X-28205857Y4460857D01*
X-27991571Y4389428D01*
X-27134428Y3532285D01*
X-27134428Y4460857D01*
X-27705857Y5103714D02*
X-27705857Y6246571D01*
X-27134428Y5675142D02*
X-28277285Y5675142D01*
X6686839Y-28064932D02*
X6019005Y-27504395D01*
X5858902Y-28286777D02*
X5470674Y-26837888D01*
X6022631Y-26689992D01*
X6179108Y-26722012D01*
X6266590Y-26772520D01*
X6372558Y-26892022D01*
X6428020Y-27099006D01*
X6395999Y-27255483D01*
X6345491Y-27342965D01*
X6225989Y-27448933D01*
X5674031Y-27596830D01*
X7841261Y-27681657D02*
X7721759Y-27787626D01*
X7445780Y-27861574D01*
X7289304Y-27829554D01*
X7183335Y-27710051D01*
X7035438Y-27158094D01*
X7067459Y-27001617D01*
X7186961Y-26895649D01*
X7462940Y-26821700D01*
X7619417Y-26853721D01*
X7725385Y-26973223D01*
X7762360Y-27111212D01*
X7109387Y-27434073D01*
X8152887Y-26636829D02*
X8756680Y-27510320D01*
X8842834Y-26451959D01*
X9541361Y-25747151D02*
X9679350Y-25710177D01*
X9835827Y-25742197D01*
X9923309Y-25792705D01*
X10029278Y-25912207D01*
X10172221Y-26169699D01*
X10264656Y-26514673D01*
X10269610Y-26809138D01*
X10237589Y-26965615D01*
X10187081Y-27053097D01*
X10067579Y-27159065D01*
X9929590Y-27196040D01*
X9773113Y-27164019D01*
X9685631Y-27113511D01*
X9579663Y-26994009D01*
X9436720Y-26736517D01*
X9344284Y-26391544D01*
X9339331Y-26097078D01*
X9371351Y-25940602D01*
X9421859Y-25853120D01*
X9541361Y-25747151D01*
X10507287Y-25488332D02*
X11404218Y-25248000D01*
X11069152Y-25929367D01*
X11276136Y-25873906D01*
X11432612Y-25905926D01*
X11520094Y-25956434D01*
X11626063Y-26075936D01*
X11718498Y-26420910D01*
X11686478Y-26577386D01*
X11635970Y-26664868D01*
X11516468Y-26770837D01*
X11102500Y-26881759D01*
X10946023Y-26849739D01*
X10858541Y-26799231D01*
X12413399Y-26530505D02*
X12025170Y-25081616D01*
X12173067Y-25633574D02*
X12292569Y-25527605D01*
X12568548Y-25453657D01*
X12725025Y-25485677D01*
X12812506Y-25536185D01*
X12918475Y-25655687D01*
X13029398Y-26069655D01*
X12997377Y-26226132D01*
X12946869Y-26313614D01*
X12827367Y-26419583D01*
X12551388Y-26493531D01*
X12394912Y-26461510D01*
X-25853478Y-10375478D02*
X-26359758Y-12105704D01*
X-25210691Y-11141522D02*
X-27002545Y-11339659D01*
X-25992450Y-12543443D02*
X-24843384Y-11579262D01*
X-24476076Y-12017002D01*
X-24438967Y-12172350D01*
X-24447771Y-12272981D01*
X-24511293Y-12419525D01*
X-24675445Y-12557265D01*
X-24830793Y-12594375D01*
X-24931424Y-12585571D01*
X-25077969Y-12522049D01*
X-25445276Y-12084309D01*
X-24426377Y-13187463D02*
X-24104983Y-13570485D01*
X-24569135Y-14239685D02*
X-25028269Y-13692510D01*
X-23879202Y-12728329D01*
X-23420068Y-13275503D01*
X-23162196Y-13805070D02*
X-23061565Y-13813874D01*
X-22915021Y-13877395D01*
X-22685454Y-14150983D01*
X-22648344Y-14306331D01*
X-22657149Y-14406962D01*
X-22720670Y-14553506D01*
X-22830105Y-14645333D01*
X-23040171Y-14728356D01*
X-24247741Y-14622707D01*
X-23650867Y-15334034D01*
X-20482842Y-19109539D02*
X-20257061Y-18267382D01*
X-21033803Y-18452929D02*
X-19884736Y-17488748D01*
X-19517429Y-17926487D01*
X-19480320Y-18081836D01*
X-19489124Y-18182467D01*
X-19552645Y-18329011D01*
X-19716798Y-18466751D01*
X-19872146Y-18503860D01*
X-19972777Y-18495056D01*
X-20119321Y-18431535D01*
X-20486628Y-17993795D01*
X-20069622Y-19601996D02*
X-19303577Y-18959208D01*
X-18920555Y-18637814D02*
X-19021186Y-18629010D01*
X-19029990Y-18729641D01*
X-18929359Y-18738445D01*
X-18920555Y-18637814D01*
X-19029990Y-18729641D01*
X-18844443Y-19506383D02*
X-19610488Y-20149170D01*
X-18953878Y-19598210D02*
X-18853247Y-19607014D01*
X-18706703Y-19670535D01*
X-18568963Y-19834688D01*
X-18531853Y-19990036D01*
X-18595375Y-20136580D01*
X-19197267Y-20641628D01*
X-17558868Y-21038472D02*
X-18489065Y-21819000D01*
X-18644413Y-21856109D01*
X-18745044Y-21847305D01*
X-18891588Y-21783783D01*
X-19029328Y-21619631D01*
X-19066438Y-21464283D01*
X-18270195Y-21635346D02*
X-18416739Y-21571824D01*
X-18600393Y-21352955D01*
X-18637502Y-21197606D01*
X-18628698Y-21096975D01*
X-18565177Y-20950431D01*
X-18236872Y-20674951D01*
X-18081523Y-20637841D01*
X-17980893Y-20646645D01*
X-17834348Y-20710167D01*
X-17650695Y-20929037D01*
X-17613585Y-21084385D01*
D11*
G04 #@! TO.C,D4*
X-1547000Y-15216000D02*
X-1547000Y-25216000D01*
X-11547000Y-25216000D02*
X-11547000Y-15216000D01*
X-11547000Y-25216000D02*
X-1547000Y-25216000D01*
X-11547000Y-15216000D02*
X-1547000Y-15216000D01*
X-10611000Y-24280000D02*
X-10611000Y-16152000D01*
X-2483000Y-24280000D02*
X-10611000Y-24280000D01*
X-2483000Y-16152000D02*
X-2483000Y-24280000D01*
X-10611000Y-16152000D02*
X-2483000Y-16152000D01*
X-2547000Y-20216000D02*
G75*
G03X-2547000Y-20216000I-4000000J0D01*
G01*
X-8579000Y-21994000D02*
X-8579000Y-18438000D01*
X-8833000Y-21994000D02*
X-8325000Y-21994000D01*
X-8833000Y-18438000D02*
X-8833000Y-21994000D01*
X-8325000Y-18438000D02*
X-8833000Y-18438000D01*
X-8325000Y-18438000D02*
X-8325000Y-21994000D01*
X-4515000Y-21994000D02*
X-8325000Y-21994000D01*
X-8325000Y-18438000D02*
X-4515000Y-18438000D01*
G04 #@! TO.C,D9*
X11515000Y25227000D02*
X11515000Y15227000D01*
X1515000Y15227000D02*
X1515000Y25227000D01*
X1515000Y15227000D02*
X11515000Y15227000D01*
X1515000Y25227000D02*
X11515000Y25227000D01*
X2451000Y16163000D02*
X2451000Y24291000D01*
X10579000Y16163000D02*
X2451000Y16163000D01*
X10579000Y24291000D02*
X10579000Y16163000D01*
X2451000Y24291000D02*
X10579000Y24291000D01*
X10515000Y20227000D02*
G75*
G03X10515000Y20227000I-4000000J0D01*
G01*
X4483000Y18449000D02*
X4483000Y22005000D01*
X4229000Y18449000D02*
X4737000Y18449000D01*
X4229000Y22005000D02*
X4229000Y18449000D01*
X4737000Y22005000D02*
X4229000Y22005000D01*
X4737000Y22005000D02*
X4737000Y18449000D01*
X8547000Y18449000D02*
X4737000Y18449000D01*
X4737000Y22005000D02*
X8547000Y22005000D01*
G04 #@! TO.C,D8*
X-1612000Y25195000D02*
X-1612000Y15195000D01*
X-11612000Y15195000D02*
X-11612000Y25195000D01*
X-11612000Y15195000D02*
X-1612000Y15195000D01*
X-11612000Y25195000D02*
X-1612000Y25195000D01*
X-10676000Y16131000D02*
X-10676000Y24259000D01*
X-2548000Y16131000D02*
X-10676000Y16131000D01*
X-2548000Y24259000D02*
X-2548000Y16131000D01*
X-10676000Y24259000D02*
X-2548000Y24259000D01*
X-2612000Y20195000D02*
G75*
G03X-2612000Y20195000I-4000000J0D01*
G01*
X-8644000Y18417000D02*
X-8644000Y21973000D01*
X-8898000Y18417000D02*
X-8390000Y18417000D01*
X-8898000Y21973000D02*
X-8898000Y18417000D01*
X-8390000Y21973000D02*
X-8898000Y21973000D01*
X-8390000Y21973000D02*
X-8390000Y18417000D01*
X-4580000Y18417000D02*
X-8390000Y18417000D01*
X-8390000Y21973000D02*
X-4580000Y21973000D01*
G04 #@! TO.C,D3*
X11579000Y-15206000D02*
X11579000Y-25206000D01*
X1579000Y-25206000D02*
X1579000Y-15206000D01*
X1579000Y-25206000D02*
X11579000Y-25206000D01*
X1579000Y-15206000D02*
X11579000Y-15206000D01*
X2515000Y-24270000D02*
X2515000Y-16142000D01*
X10643000Y-24270000D02*
X2515000Y-24270000D01*
X10643000Y-16142000D02*
X10643000Y-24270000D01*
X2515000Y-16142000D02*
X10643000Y-16142000D01*
X10579000Y-20206000D02*
G75*
G03X10579000Y-20206000I-4000000J0D01*
G01*
X4547000Y-21984000D02*
X4547000Y-18428000D01*
X4293000Y-21984000D02*
X4801000Y-21984000D01*
X4293000Y-18428000D02*
X4293000Y-21984000D01*
X4801000Y-18428000D02*
X4293000Y-18428000D01*
X4801000Y-18428000D02*
X4801000Y-21984000D01*
X8611000Y-21984000D02*
X4801000Y-21984000D01*
X4801000Y-18428000D02*
X8611000Y-18428000D01*
G04 #@! TO.C,D2*
X22196000Y-7485000D02*
X22196000Y-17485000D01*
X12196000Y-17485000D02*
X12196000Y-7485000D01*
X12196000Y-17485000D02*
X22196000Y-17485000D01*
X12196000Y-7485000D02*
X22196000Y-7485000D01*
X13132000Y-16549000D02*
X13132000Y-8421000D01*
X21260000Y-16549000D02*
X13132000Y-16549000D01*
X21260000Y-8421000D02*
X21260000Y-16549000D01*
X13132000Y-8421000D02*
X21260000Y-8421000D01*
X21196000Y-12485000D02*
G75*
G03X21196000Y-12485000I-4000000J0D01*
G01*
X15164000Y-14263000D02*
X15164000Y-10707000D01*
X14910000Y-14263000D02*
X15418000Y-14263000D01*
X14910000Y-10707000D02*
X14910000Y-14263000D01*
X15418000Y-10707000D02*
X14910000Y-10707000D01*
X15418000Y-10707000D02*
X15418000Y-14263000D01*
X19228000Y-14263000D02*
X15418000Y-14263000D01*
X15418000Y-10707000D02*
X19228000Y-10707000D01*
G04 #@! TO.C,D1*
X26250000Y5000000D02*
X26250000Y-5000000D01*
X16250000Y-5000000D02*
X16250000Y5000000D01*
X16250000Y-5000000D02*
X26250000Y-5000000D01*
X16250000Y5000000D02*
X26250000Y5000000D01*
X17186000Y-4064000D02*
X17186000Y4064000D01*
X25314000Y-4064000D02*
X17186000Y-4064000D01*
X25314000Y4064000D02*
X25314000Y-4064000D01*
X17186000Y4064000D02*
X25314000Y4064000D01*
X25250000Y0D02*
G75*
G03X25250000Y0I-4000000J0D01*
G01*
X19218000Y-1778000D02*
X19218000Y1778000D01*
X18964000Y-1778000D02*
X19472000Y-1778000D01*
X18964000Y1778000D02*
X18964000Y-1778000D01*
X19472000Y1778000D02*
X18964000Y1778000D01*
X19472000Y1778000D02*
X19472000Y-1778000D01*
X23282000Y-1778000D02*
X19472000Y-1778000D01*
X19472000Y1778000D02*
X23282000Y1778000D01*
G04 #@! TO.C,D5*
X-12176000Y-7512000D02*
X-12176000Y-17512000D01*
X-22176000Y-17512000D02*
X-22176000Y-7512000D01*
X-22176000Y-17512000D02*
X-12176000Y-17512000D01*
X-22176000Y-7512000D02*
X-12176000Y-7512000D01*
X-21240000Y-16576000D02*
X-21240000Y-8448000D01*
X-13112000Y-16576000D02*
X-21240000Y-16576000D01*
X-13112000Y-8448000D02*
X-13112000Y-16576000D01*
X-21240000Y-8448000D02*
X-13112000Y-8448000D01*
X-13176000Y-12512000D02*
G75*
G03X-13176000Y-12512000I-4000000J0D01*
G01*
X-19208000Y-14290000D02*
X-19208000Y-10734000D01*
X-19462000Y-14290000D02*
X-18954000Y-14290000D01*
X-19462000Y-10734000D02*
X-19462000Y-14290000D01*
X-18954000Y-10734000D02*
X-19462000Y-10734000D01*
X-18954000Y-10734000D02*
X-18954000Y-14290000D01*
X-15144000Y-14290000D02*
X-18954000Y-14290000D01*
X-18954000Y-10734000D02*
X-15144000Y-10734000D01*
G04 #@! TO.C,D6*
X-16250000Y5000000D02*
X-16250000Y-5000000D01*
X-26250000Y-5000000D02*
X-26250000Y5000000D01*
X-26250000Y-5000000D02*
X-16250000Y-5000000D01*
X-26250000Y5000000D02*
X-16250000Y5000000D01*
X-25314000Y-4064000D02*
X-25314000Y4064000D01*
X-17186000Y-4064000D02*
X-25314000Y-4064000D01*
X-17186000Y4064000D02*
X-17186000Y-4064000D01*
X-25314000Y4064000D02*
X-17186000Y4064000D01*
X-17250000Y0D02*
G75*
G03X-17250000Y0I-4000000J0D01*
G01*
X-23282000Y-1778000D02*
X-23282000Y1778000D01*
X-23536000Y-1778000D02*
X-23028000Y-1778000D01*
X-23536000Y1778000D02*
X-23536000Y-1778000D01*
X-23028000Y1778000D02*
X-23536000Y1778000D01*
X-23028000Y1778000D02*
X-23028000Y-1778000D01*
X-19218000Y-1778000D02*
X-23028000Y-1778000D01*
X-23028000Y1778000D02*
X-19218000Y1778000D01*
G04 #@! TO.C,D7*
X-12216000Y17458000D02*
X-12216000Y7458000D01*
X-22216000Y7458000D02*
X-22216000Y17458000D01*
X-22216000Y7458000D02*
X-12216000Y7458000D01*
X-22216000Y17458000D02*
X-12216000Y17458000D01*
X-21280000Y8394000D02*
X-21280000Y16522000D01*
X-13152000Y8394000D02*
X-21280000Y8394000D01*
X-13152000Y16522000D02*
X-13152000Y8394000D01*
X-21280000Y16522000D02*
X-13152000Y16522000D01*
X-13216000Y12458000D02*
G75*
G03X-13216000Y12458000I-4000000J0D01*
G01*
X-19248000Y10680000D02*
X-19248000Y14236000D01*
X-19502000Y10680000D02*
X-18994000Y10680000D01*
X-19502000Y14236000D02*
X-19502000Y10680000D01*
X-18994000Y14236000D02*
X-19502000Y14236000D01*
X-18994000Y14236000D02*
X-18994000Y10680000D01*
X-15184000Y10680000D02*
X-18994000Y10680000D01*
X-18994000Y14236000D02*
X-15184000Y14236000D01*
G04 #@! TO.C,D10*
X22156000Y17540000D02*
X22156000Y7540000D01*
X12156000Y7540000D02*
X12156000Y17540000D01*
X12156000Y7540000D02*
X22156000Y7540000D01*
X12156000Y17540000D02*
X22156000Y17540000D01*
X13092000Y8476000D02*
X13092000Y16604000D01*
X21220000Y8476000D02*
X13092000Y8476000D01*
X21220000Y16604000D02*
X21220000Y8476000D01*
X13092000Y16604000D02*
X21220000Y16604000D01*
X21156000Y12540000D02*
G75*
G03X21156000Y12540000I-4000000J0D01*
G01*
X15124000Y10762000D02*
X15124000Y14318000D01*
X14870000Y10762000D02*
X15378000Y10762000D01*
X14870000Y14318000D02*
X14870000Y10762000D01*
X15378000Y14318000D02*
X14870000Y14318000D01*
X15378000Y14318000D02*
X15378000Y10762000D01*
X19188000Y10762000D02*
X15378000Y10762000D01*
X15378000Y14318000D02*
X19188000Y14318000D01*
G04 #@! TO.C,J14*
X-12366523Y-25741380D02*
X-12366523Y-26455666D01*
X-12414142Y-26598523D01*
X-12509380Y-26693761D01*
X-12652238Y-26741380D01*
X-12747476Y-26741380D01*
X-11366523Y-26741380D02*
X-11937952Y-26741380D01*
X-11652238Y-26741380D02*
X-11652238Y-25741380D01*
X-11747476Y-25884238D01*
X-11842714Y-25979476D01*
X-11937952Y-26027095D01*
X-10509380Y-26074714D02*
X-10509380Y-26741380D01*
X-10747476Y-25693761D02*
X-10985571Y-26408047D01*
X-10366523Y-26408047D01*
G04 #@! TO.C,J13*
X-28749523Y-2500380D02*
X-28749523Y-3214666D01*
X-28797142Y-3357523D01*
X-28892380Y-3452761D01*
X-29035238Y-3500380D01*
X-29130476Y-3500380D01*
X-27749523Y-3500380D02*
X-28320952Y-3500380D01*
X-28035238Y-3500380D02*
X-28035238Y-2500380D01*
X-28130476Y-2643238D01*
X-28225714Y-2738476D01*
X-28320952Y-2786095D01*
X-27416190Y-2500380D02*
X-26797142Y-2500380D01*
X-27130476Y-2881333D01*
X-26987619Y-2881333D01*
X-26892380Y-2928952D01*
X-26844761Y-2976571D01*
X-26797142Y-3071809D01*
X-26797142Y-3309904D01*
X-26844761Y-3405142D01*
X-26892380Y-3452761D01*
X-26987619Y-3500380D01*
X-27273333Y-3500380D01*
X-27368571Y-3452761D01*
X-27416190Y-3405142D01*
G04 #@! TO.C,J1*
X27479666Y3976619D02*
X27479666Y3262333D01*
X27432047Y3119476D01*
X27336809Y3024238D01*
X27193952Y2976619D01*
X27098714Y2976619D01*
X28479666Y2976619D02*
X27908238Y2976619D01*
X28193952Y2976619D02*
X28193952Y3976619D01*
X28098714Y3833761D01*
X28003476Y3738523D01*
X27908238Y3690904D01*
G04 #@! TO.C,J2*
X10374380Y25574666D02*
X11088666Y25574666D01*
X11231523Y25527047D01*
X11326761Y25431809D01*
X11374380Y25288952D01*
X11374380Y25193714D01*
X10469619Y26003238D02*
X10422000Y26050857D01*
X10374380Y26146095D01*
X10374380Y26384190D01*
X10422000Y26479428D01*
X10469619Y26527047D01*
X10564857Y26574666D01*
X10660095Y26574666D01*
X10802952Y26527047D01*
X11374380Y25955619D01*
X11374380Y26574666D01*
G04 #@! TO.C,D4*
X-7285095Y-23208380D02*
X-7285095Y-22208380D01*
X-7047000Y-22208380D01*
X-6904142Y-22256000D01*
X-6808904Y-22351238D01*
X-6761285Y-22446476D01*
X-6713666Y-22636952D01*
X-6713666Y-22779809D01*
X-6761285Y-22970285D01*
X-6808904Y-23065523D01*
X-6904142Y-23160761D01*
X-7047000Y-23208380D01*
X-7285095Y-23208380D01*
X-5856523Y-22541714D02*
X-5856523Y-23208380D01*
X-6094619Y-22160761D02*
X-6332714Y-22875047D01*
X-5713666Y-22875047D01*
G04 #@! TO.C,D9*
X5776904Y17234619D02*
X5776904Y18234619D01*
X6015000Y18234619D01*
X6157857Y18187000D01*
X6253095Y18091761D01*
X6300714Y17996523D01*
X6348333Y17806047D01*
X6348333Y17663190D01*
X6300714Y17472714D01*
X6253095Y17377476D01*
X6157857Y17282238D01*
X6015000Y17234619D01*
X5776904Y17234619D01*
X6824523Y17234619D02*
X7015000Y17234619D01*
X7110238Y17282238D01*
X7157857Y17329857D01*
X7253095Y17472714D01*
X7300714Y17663190D01*
X7300714Y18044142D01*
X7253095Y18139380D01*
X7205476Y18187000D01*
X7110238Y18234619D01*
X6919761Y18234619D01*
X6824523Y18187000D01*
X6776904Y18139380D01*
X6729285Y18044142D01*
X6729285Y17806047D01*
X6776904Y17710809D01*
X6824523Y17663190D01*
X6919761Y17615571D01*
X7110238Y17615571D01*
X7205476Y17663190D01*
X7253095Y17710809D01*
X7300714Y17806047D01*
G04 #@! TO.C,D8*
X-7350095Y17202619D02*
X-7350095Y18202619D01*
X-7112000Y18202619D01*
X-6969142Y18155000D01*
X-6873904Y18059761D01*
X-6826285Y17964523D01*
X-6778666Y17774047D01*
X-6778666Y17631190D01*
X-6826285Y17440714D01*
X-6873904Y17345476D01*
X-6969142Y17250238D01*
X-7112000Y17202619D01*
X-7350095Y17202619D01*
X-6207238Y17774047D02*
X-6302476Y17821666D01*
X-6350095Y17869285D01*
X-6397714Y17964523D01*
X-6397714Y18012142D01*
X-6350095Y18107380D01*
X-6302476Y18155000D01*
X-6207238Y18202619D01*
X-6016761Y18202619D01*
X-5921523Y18155000D01*
X-5873904Y18107380D01*
X-5826285Y18012142D01*
X-5826285Y17964523D01*
X-5873904Y17869285D01*
X-5921523Y17821666D01*
X-6016761Y17774047D01*
X-6207238Y17774047D01*
X-6302476Y17726428D01*
X-6350095Y17678809D01*
X-6397714Y17583571D01*
X-6397714Y17393095D01*
X-6350095Y17297857D01*
X-6302476Y17250238D01*
X-6207238Y17202619D01*
X-6016761Y17202619D01*
X-5921523Y17250238D01*
X-5873904Y17297857D01*
X-5826285Y17393095D01*
X-5826285Y17583571D01*
X-5873904Y17678809D01*
X-5921523Y17726428D01*
X-6016761Y17774047D01*
G04 #@! TO.C,D3*
X5840904Y-23198380D02*
X5840904Y-22198380D01*
X6079000Y-22198380D01*
X6221857Y-22246000D01*
X6317095Y-22341238D01*
X6364714Y-22436476D01*
X6412333Y-22626952D01*
X6412333Y-22769809D01*
X6364714Y-22960285D01*
X6317095Y-23055523D01*
X6221857Y-23150761D01*
X6079000Y-23198380D01*
X5840904Y-23198380D01*
X6745666Y-22198380D02*
X7364714Y-22198380D01*
X7031380Y-22579333D01*
X7174238Y-22579333D01*
X7269476Y-22626952D01*
X7317095Y-22674571D01*
X7364714Y-22769809D01*
X7364714Y-23007904D01*
X7317095Y-23103142D01*
X7269476Y-23150761D01*
X7174238Y-23198380D01*
X6888523Y-23198380D01*
X6793285Y-23150761D01*
X6745666Y-23103142D01*
G04 #@! TO.C,D2*
X16457904Y-15477380D02*
X16457904Y-14477380D01*
X16696000Y-14477380D01*
X16838857Y-14525000D01*
X16934095Y-14620238D01*
X16981714Y-14715476D01*
X17029333Y-14905952D01*
X17029333Y-15048809D01*
X16981714Y-15239285D01*
X16934095Y-15334523D01*
X16838857Y-15429761D01*
X16696000Y-15477380D01*
X16457904Y-15477380D01*
X17410285Y-14572619D02*
X17457904Y-14525000D01*
X17553142Y-14477380D01*
X17791238Y-14477380D01*
X17886476Y-14525000D01*
X17934095Y-14572619D01*
X17981714Y-14667857D01*
X17981714Y-14763095D01*
X17934095Y-14905952D01*
X17362666Y-15477380D01*
X17981714Y-15477380D01*
G04 #@! TO.C,D1*
X20511904Y-2992380D02*
X20511904Y-1992380D01*
X20750000Y-1992380D01*
X20892857Y-2040000D01*
X20988095Y-2135238D01*
X21035714Y-2230476D01*
X21083333Y-2420952D01*
X21083333Y-2563809D01*
X21035714Y-2754285D01*
X20988095Y-2849523D01*
X20892857Y-2944761D01*
X20750000Y-2992380D01*
X20511904Y-2992380D01*
X22035714Y-2992380D02*
X21464285Y-2992380D01*
X21750000Y-2992380D02*
X21750000Y-1992380D01*
X21654761Y-2135238D01*
X21559523Y-2230476D01*
X21464285Y-2278095D01*
G04 #@! TO.C,D5*
X-17914095Y-15504380D02*
X-17914095Y-14504380D01*
X-17676000Y-14504380D01*
X-17533142Y-14552000D01*
X-17437904Y-14647238D01*
X-17390285Y-14742476D01*
X-17342666Y-14932952D01*
X-17342666Y-15075809D01*
X-17390285Y-15266285D01*
X-17437904Y-15361523D01*
X-17533142Y-15456761D01*
X-17676000Y-15504380D01*
X-17914095Y-15504380D01*
X-16437904Y-14504380D02*
X-16914095Y-14504380D01*
X-16961714Y-14980571D01*
X-16914095Y-14932952D01*
X-16818857Y-14885333D01*
X-16580761Y-14885333D01*
X-16485523Y-14932952D01*
X-16437904Y-14980571D01*
X-16390285Y-15075809D01*
X-16390285Y-15313904D01*
X-16437904Y-15409142D01*
X-16485523Y-15456761D01*
X-16580761Y-15504380D01*
X-16818857Y-15504380D01*
X-16914095Y-15456761D01*
X-16961714Y-15409142D01*
G04 #@! TO.C,D6*
X-21988095Y-2992380D02*
X-21988095Y-1992380D01*
X-21750000Y-1992380D01*
X-21607142Y-2040000D01*
X-21511904Y-2135238D01*
X-21464285Y-2230476D01*
X-21416666Y-2420952D01*
X-21416666Y-2563809D01*
X-21464285Y-2754285D01*
X-21511904Y-2849523D01*
X-21607142Y-2944761D01*
X-21750000Y-2992380D01*
X-21988095Y-2992380D01*
X-20559523Y-1992380D02*
X-20750000Y-1992380D01*
X-20845238Y-2040000D01*
X-20892857Y-2087619D01*
X-20988095Y-2230476D01*
X-21035714Y-2420952D01*
X-21035714Y-2801904D01*
X-20988095Y-2897142D01*
X-20940476Y-2944761D01*
X-20845238Y-2992380D01*
X-20654761Y-2992380D01*
X-20559523Y-2944761D01*
X-20511904Y-2897142D01*
X-20464285Y-2801904D01*
X-20464285Y-2563809D01*
X-20511904Y-2468571D01*
X-20559523Y-2420952D01*
X-20654761Y-2373333D01*
X-20845238Y-2373333D01*
X-20940476Y-2420952D01*
X-20988095Y-2468571D01*
X-21035714Y-2563809D01*
G04 #@! TO.C,D7*
X-17954095Y9465619D02*
X-17954095Y10465619D01*
X-17716000Y10465619D01*
X-17573142Y10418000D01*
X-17477904Y10322761D01*
X-17430285Y10227523D01*
X-17382666Y10037047D01*
X-17382666Y9894190D01*
X-17430285Y9703714D01*
X-17477904Y9608476D01*
X-17573142Y9513238D01*
X-17716000Y9465619D01*
X-17954095Y9465619D01*
X-17049333Y10465619D02*
X-16382666Y10465619D01*
X-16811238Y9465619D01*
G04 #@! TO.C,D10*
X15941714Y9547619D02*
X15941714Y10547619D01*
X16179809Y10547619D01*
X16322666Y10500000D01*
X16417904Y10404761D01*
X16465523Y10309523D01*
X16513142Y10119047D01*
X16513142Y9976190D01*
X16465523Y9785714D01*
X16417904Y9690476D01*
X16322666Y9595238D01*
X16179809Y9547619D01*
X15941714Y9547619D01*
X17465523Y9547619D02*
X16894095Y9547619D01*
X17179809Y9547619D02*
X17179809Y10547619D01*
X17084571Y10404761D01*
X16989333Y10309523D01*
X16894095Y10261904D01*
X18084571Y10547619D02*
X18179809Y10547619D01*
X18275047Y10500000D01*
X18322666Y10452380D01*
X18370285Y10357142D01*
X18417904Y10166666D01*
X18417904Y9928571D01*
X18370285Y9738095D01*
X18322666Y9642857D01*
X18275047Y9595238D01*
X18179809Y9547619D01*
X18084571Y9547619D01*
X17989333Y9595238D01*
X17941714Y9642857D01*
X17894095Y9738095D01*
X17846476Y9928571D01*
X17846476Y10166666D01*
X17894095Y10357142D01*
X17941714Y10452380D01*
X17989333Y10500000D01*
X18084571Y10547619D01*
G04 #@! TO.C,J11*
X-25644523Y-8061380D02*
X-25644523Y-8775666D01*
X-25692142Y-8918523D01*
X-25787380Y-9013761D01*
X-25930238Y-9061380D01*
X-26025476Y-9061380D01*
X-24644523Y-9061380D02*
X-25215952Y-9061380D01*
X-24930238Y-9061380D02*
X-24930238Y-8061380D01*
X-25025476Y-8204238D01*
X-25120714Y-8299476D01*
X-25215952Y-8347095D01*
X-23692142Y-9061380D02*
X-24263571Y-9061380D01*
X-23977857Y-9061380D02*
X-23977857Y-8061380D01*
X-24073095Y-8204238D01*
X-24168333Y-8299476D01*
X-24263571Y-8347095D01*
G04 #@! TO.C,J10*
X-809523Y-26077380D02*
X-809523Y-26791666D01*
X-857142Y-26934523D01*
X-952380Y-27029761D01*
X-1095238Y-27077380D01*
X-1190476Y-27077380D01*
X190476Y-27077380D02*
X-380952Y-27077380D01*
X-95238Y-27077380D02*
X-95238Y-26077380D01*
X-190476Y-26220238D01*
X-285714Y-26315476D01*
X-380952Y-26363095D01*
X809523Y-26077380D02*
X904761Y-26077380D01*
X999999Y-26125000D01*
X1047619Y-26172619D01*
X1095238Y-26267857D01*
X1142857Y-26458333D01*
X1142857Y-26696428D01*
X1095238Y-26886904D01*
X1047619Y-26982142D01*
X999999Y-27029761D01*
X904761Y-27077380D01*
X809523Y-27077380D01*
X714285Y-27029761D01*
X666666Y-26982142D01*
X619047Y-26886904D01*
X571428Y-26696428D01*
X571428Y-26458333D01*
X619047Y-26267857D01*
X666666Y-26172619D01*
X714285Y-26125000D01*
X809523Y-26077380D01*
G04 #@! TO.C,J9*
X-333333Y26172619D02*
X-333333Y25458333D01*
X-380952Y25315476D01*
X-476190Y25220238D01*
X-619047Y25172619D01*
X-714285Y25172619D01*
X190476Y25172619D02*
X380952Y25172619D01*
X476190Y25220238D01*
X523809Y25267857D01*
X619047Y25410714D01*
X666666Y25601190D01*
X666666Y25982142D01*
X619047Y26077380D01*
X571428Y26125000D01*
X476190Y26172619D01*
X285714Y26172619D01*
X190476Y26125000D01*
X142857Y26077380D01*
X95238Y25982142D01*
X95238Y25744047D01*
X142857Y25648809D01*
X190476Y25601190D01*
X285714Y25553571D01*
X476190Y25553571D01*
X571428Y25601190D01*
X619047Y25648809D01*
X666666Y25744047D01*
G04 #@! TO.C,J8*
X-15733333Y21151619D02*
X-15733333Y20437333D01*
X-15780952Y20294476D01*
X-15876190Y20199238D01*
X-16019047Y20151619D01*
X-16114285Y20151619D01*
X-15114285Y20723047D02*
X-15209523Y20770666D01*
X-15257142Y20818285D01*
X-15304761Y20913523D01*
X-15304761Y20961142D01*
X-15257142Y21056380D01*
X-15209523Y21104000D01*
X-15114285Y21151619D01*
X-14923809Y21151619D01*
X-14828571Y21104000D01*
X-14780952Y21056380D01*
X-14733333Y20961142D01*
X-14733333Y20913523D01*
X-14780952Y20818285D01*
X-14828571Y20770666D01*
X-14923809Y20723047D01*
X-15114285Y20723047D01*
X-15209523Y20675428D01*
X-15257142Y20627809D01*
X-15304761Y20532571D01*
X-15304761Y20342095D01*
X-15257142Y20246857D01*
X-15209523Y20199238D01*
X-15114285Y20151619D01*
X-14923809Y20151619D01*
X-14828571Y20199238D01*
X-14780952Y20246857D01*
X-14733333Y20342095D01*
X-14733333Y20532571D01*
X-14780952Y20627809D01*
X-14828571Y20675428D01*
X-14923809Y20723047D01*
G04 #@! TO.C,J7*
X15099666Y-21031380D02*
X15099666Y-21745666D01*
X15052047Y-21888523D01*
X14956809Y-21983761D01*
X14813952Y-22031380D01*
X14718714Y-22031380D01*
X15480619Y-21031380D02*
X16147285Y-21031380D01*
X15718714Y-22031380D01*
G04 #@! TO.C,J6*
X-25193833Y8077119D02*
X-25193833Y7362833D01*
X-25241452Y7219976D01*
X-25336690Y7124738D01*
X-25479547Y7077119D01*
X-25574785Y7077119D01*
X-24289071Y8077119D02*
X-24479547Y8077119D01*
X-24574785Y8029500D01*
X-24622404Y7981880D01*
X-24717642Y7839023D01*
X-24765261Y7648547D01*
X-24765261Y7267595D01*
X-24717642Y7172357D01*
X-24670023Y7124738D01*
X-24574785Y7077119D01*
X-24384309Y7077119D01*
X-24289071Y7124738D01*
X-24241452Y7172357D01*
X-24193833Y7267595D01*
X-24193833Y7505690D01*
X-24241452Y7600928D01*
X-24289071Y7648547D01*
X-24384309Y7696166D01*
X-24574785Y7696166D01*
X-24670023Y7648547D01*
X-24717642Y7600928D01*
X-24765261Y7505690D01*
G04 #@! TO.C,J5*
X14965666Y21224619D02*
X14965666Y20510333D01*
X14918047Y20367476D01*
X14822809Y20272238D01*
X14679952Y20224619D01*
X14584714Y20224619D01*
X15918047Y21224619D02*
X15441857Y21224619D01*
X15394238Y20748428D01*
X15441857Y20796047D01*
X15537095Y20843666D01*
X15775190Y20843666D01*
X15870428Y20796047D01*
X15918047Y20748428D01*
X15965666Y20653190D01*
X15965666Y20415095D01*
X15918047Y20319857D01*
X15870428Y20272238D01*
X15775190Y20224619D01*
X15537095Y20224619D01*
X15441857Y20272238D01*
X15394238Y20319857D01*
G04 #@! TO.C,J4*
X-15665333Y-21105380D02*
X-15665333Y-21819666D01*
X-15712952Y-21962523D01*
X-15808190Y-22057761D01*
X-15951047Y-22105380D01*
X-16046285Y-22105380D01*
X-14760571Y-21438714D02*
X-14760571Y-22105380D01*
X-14998666Y-21057761D02*
X-15236761Y-21772047D01*
X-14617714Y-21772047D01*
G04 #@! TO.C,J3*
X24539666Y-7942380D02*
X24539666Y-8656666D01*
X24492047Y-8799523D01*
X24396809Y-8894761D01*
X24253952Y-8942380D01*
X24158714Y-8942380D01*
X24920619Y-7942380D02*
X25539666Y-7942380D01*
X25206333Y-8323333D01*
X25349190Y-8323333D01*
X25444428Y-8370952D01*
X25492047Y-8418571D01*
X25539666Y-8513809D01*
X25539666Y-8751904D01*
X25492047Y-8847142D01*
X25444428Y-8894761D01*
X25349190Y-8942380D01*
X25063476Y-8942380D01*
X24968238Y-8894761D01*
X24920619Y-8847142D01*
G04 #@! TO.C,J12*
X24011476Y8195619D02*
X24011476Y7481333D01*
X23963857Y7338476D01*
X23868619Y7243238D01*
X23725761Y7195619D01*
X23630523Y7195619D01*
X25011476Y7195619D02*
X24440047Y7195619D01*
X24725761Y7195619D02*
X24725761Y8195619D01*
X24630523Y8052761D01*
X24535285Y7957523D01*
X24440047Y7909904D01*
X25392428Y8100380D02*
X25440047Y8148000D01*
X25535285Y8195619D01*
X25773380Y8195619D01*
X25868619Y8148000D01*
X25916238Y8100380D01*
X25963857Y8005142D01*
X25963857Y7909904D01*
X25916238Y7767047D01*
X25344809Y7195619D01*
X25963857Y7195619D01*
G04 #@! TD*
M02*
