M48
;DRILL file {KiCad (5.0.2)-1} date 3/10/2020 2:07:49 PM
;FORMAT={-:-/ absolute / inch / decimal}
FMAT,2
INCH,TZ
T1C0.0157
T2C0.0315
T3C0.0472
T4C0.0551
T5C0.1283
%
G90
G05
T1
X-0.9429Y0.
X-0.7Y-0.36
X-0.68Y-0.34
X-0.68Y-0.38
X-0.66Y0.3
X-0.6487Y-0.38
X0.7815Y0.085
T2
X-0.86Y0.22
X-0.7813Y0.22
X0.7613Y-0.2
X0.84Y-0.2
T3
X1.1Y0.0584
X1.1Y-0.04
X-1.1Y0.06
X-1.1Y-0.0384
T4
X-0.8353Y0.648
X-0.8353Y0.333
X-0.5203Y0.648
X-0.5203Y0.333
X-0.4178Y0.9526
X-0.4178Y0.6376
X-0.1028Y0.9526
X-0.1028Y0.6376
X-0.4152Y-0.6384
X-0.4152Y-0.9534
X-0.1003Y-0.6384
X-0.1003Y-0.9534
X-0.9941Y0.1575
X-0.9941Y-0.1575
X-0.6791Y0.1575
X-0.6791Y-0.1575
X0.5195Y-0.3341
X0.5195Y-0.649
X0.8345Y-0.3341
X0.8345Y-0.649
X0.6791Y0.1575
X0.6791Y-0.1575
X0.9941Y0.1575
X0.9941Y-0.1575
X0.1015Y-0.638
X0.1015Y-0.953
X0.4165Y-0.638
X0.4165Y-0.953
X0.099Y0.9538
X0.099Y0.6389
X0.414Y0.9538
X0.414Y0.6389
X-0.8337Y-0.3351
X-0.8337Y-0.6501
X-0.5187Y-0.3351
X-0.5187Y-0.6501
X0.518Y0.6512
X0.518Y0.3362
X0.8329Y0.6512
X0.8329Y0.3362
T5
X0.6023Y0.8337
X0.Y-1.0285
X0.9793Y-0.3146
X0.9772Y0.3208
X0.Y1.0285
X-0.6036Y-0.8328
X-0.9788Y0.3161
X0.6076Y-0.8299
X-0.9778Y-0.3193
X-0.6063Y0.8309
T0
M30
