G04 #@! TF.GenerationSoftware,KiCad,Pcbnew,(5.0.0)*
G04 #@! TF.CreationDate,2020-03-19T15:53:23-07:00*
G04 #@! TF.ProjectId,ring_illuminator,72696E675F696C6C756D696E61746F72,rev?*
G04 #@! TF.SameCoordinates,Original*
G04 #@! TF.FileFunction,Soldermask,Top*
G04 #@! TF.FilePolarity,Negative*
%FSLAX46Y46*%
G04 Gerber Fmt 4.6, Leading zero omitted, Abs format (unit mm)*
G04 Created by KiCad (PCBNEW (5.0.0)) date 03/19/20 15:53:23*
%MOMM*%
%LPD*%
G01*
G04 APERTURE LIST*
%ADD10C,0.100000*%
G04 APERTURE END LIST*
D10*
G36*
X327947Y-32641300D02*
X490330Y-32673600D01*
X796252Y-32800317D01*
X1071575Y-32984282D01*
X1305718Y-33218425D01*
X1489683Y-33493748D01*
X1616400Y-33799670D01*
X1681000Y-34124436D01*
X1681000Y-34455564D01*
X1616400Y-34780330D01*
X1489683Y-35086252D01*
X1305718Y-35361575D01*
X1071575Y-35595718D01*
X796252Y-35779683D01*
X490330Y-35906400D01*
X327947Y-35938700D01*
X165565Y-35971000D01*
X-165565Y-35971000D01*
X-327947Y-35938700D01*
X-490330Y-35906400D01*
X-796252Y-35779683D01*
X-1071575Y-35595718D01*
X-1305718Y-35361575D01*
X-1489683Y-35086252D01*
X-1616400Y-34780330D01*
X-1681000Y-34455564D01*
X-1681000Y-34124436D01*
X-1616400Y-33799670D01*
X-1489683Y-33493748D01*
X-1305718Y-33218425D01*
X-1071575Y-32984282D01*
X-796252Y-32800317D01*
X-490330Y-32673600D01*
X-327947Y-32641300D01*
X-165565Y-32609000D01*
X165565Y-32609000D01*
X327947Y-32641300D01*
X327947Y-32641300D01*
G37*
G36*
X-20792053Y-13737050D02*
X-20629670Y-13769350D01*
X-20323748Y-13896067D01*
X-20048425Y-14080032D01*
X-19814282Y-14314175D01*
X-19630317Y-14589498D01*
X-19503600Y-14895420D01*
X-19439000Y-15220186D01*
X-19439000Y-15551314D01*
X-19503600Y-15876080D01*
X-19630317Y-16182002D01*
X-19814282Y-16457325D01*
X-20048425Y-16691468D01*
X-20323748Y-16875433D01*
X-20629670Y-17002150D01*
X-20792053Y-17034450D01*
X-20954435Y-17066750D01*
X-21285565Y-17066750D01*
X-21447947Y-17034450D01*
X-21610330Y-17002150D01*
X-21916252Y-16875433D01*
X-22191575Y-16691468D01*
X-22425718Y-16457325D01*
X-22609683Y-16182002D01*
X-22736400Y-15876080D01*
X-22801000Y-15551314D01*
X-22801000Y-15220186D01*
X-22736400Y-14895420D01*
X-22609683Y-14589498D01*
X-22425718Y-14314175D01*
X-22191575Y-14080032D01*
X-21916252Y-13896067D01*
X-21610330Y-13769350D01*
X-21447947Y-13737050D01*
X-21285565Y-13704750D01*
X-20954435Y-13704750D01*
X-20792053Y-13737050D01*
X-20792053Y-13737050D01*
G37*
G36*
X21429086Y-13617628D02*
X21683630Y-13668260D01*
X21989552Y-13794977D01*
X22264875Y-13978942D01*
X22499018Y-14213085D01*
X22682983Y-14488408D01*
X22809700Y-14794330D01*
X22874300Y-15119096D01*
X22874300Y-15450224D01*
X22809700Y-15774990D01*
X22682983Y-16080912D01*
X22499018Y-16356235D01*
X22264875Y-16590378D01*
X21989552Y-16774343D01*
X21683630Y-16901060D01*
X21521247Y-16933360D01*
X21358865Y-16965660D01*
X21027735Y-16965660D01*
X20865353Y-16933360D01*
X20702970Y-16901060D01*
X20397048Y-16774343D01*
X20121725Y-16590378D01*
X19887582Y-16356235D01*
X19703617Y-16080912D01*
X19576900Y-15774990D01*
X19512300Y-15450224D01*
X19512300Y-15119096D01*
X19576900Y-14794330D01*
X19703617Y-14488408D01*
X19887582Y-14213085D01*
X20121725Y-13978942D01*
X20397048Y-13794977D01*
X20702970Y-13668260D01*
X20957514Y-13617628D01*
X21027735Y-13603660D01*
X21358865Y-13603660D01*
X21429086Y-13617628D01*
X21429086Y-13617628D01*
G37*
G36*
X-14051553Y-12765180D02*
X-13889170Y-12797480D01*
X-13583248Y-12924197D01*
X-13307925Y-13108162D01*
X-13073782Y-13342305D01*
X-12889817Y-13617628D01*
X-12763100Y-13923550D01*
X-12698500Y-14248316D01*
X-12698500Y-14579444D01*
X-12763100Y-14904210D01*
X-12889817Y-15210132D01*
X-13073782Y-15485455D01*
X-13307925Y-15719598D01*
X-13583248Y-15903563D01*
X-13889170Y-16030280D01*
X-14051553Y-16062580D01*
X-14213935Y-16094880D01*
X-14545065Y-16094880D01*
X-14707447Y-16062580D01*
X-14869830Y-16030280D01*
X-15175752Y-15903563D01*
X-15451075Y-15719598D01*
X-15685218Y-15485455D01*
X-15869183Y-15210132D01*
X-15995900Y-14904210D01*
X-16060500Y-14579444D01*
X-16060500Y-14248316D01*
X-15995900Y-13923550D01*
X-15869183Y-13617628D01*
X-15685218Y-13342305D01*
X-15451075Y-13108162D01*
X-15175752Y-12924197D01*
X-14869830Y-12797480D01*
X-14707447Y-12765180D01*
X-14545065Y-12732880D01*
X-14213935Y-12732880D01*
X-14051553Y-12765180D01*
X-14051553Y-12765180D01*
G37*
G36*
X14776137Y-12696310D02*
X14938520Y-12728610D01*
X15244442Y-12855327D01*
X15519765Y-13039292D01*
X15753908Y-13273435D01*
X15937873Y-13548758D01*
X16064590Y-13854680D01*
X16129190Y-14179446D01*
X16129190Y-14510574D01*
X16064590Y-14835340D01*
X15937873Y-15141262D01*
X15753908Y-15416585D01*
X15519765Y-15650728D01*
X15244442Y-15834693D01*
X14938520Y-15961410D01*
X14776137Y-15993710D01*
X14613755Y-16026010D01*
X14282625Y-16026010D01*
X14120243Y-15993710D01*
X13957860Y-15961410D01*
X13651938Y-15834693D01*
X13376615Y-15650728D01*
X13142472Y-15416585D01*
X12958507Y-15141262D01*
X12831790Y-14835340D01*
X12767190Y-14510574D01*
X12767190Y-14179446D01*
X12831790Y-13854680D01*
X12958507Y-13548758D01*
X13142472Y-13273435D01*
X13376615Y-13039292D01*
X13651938Y-12855327D01*
X13957860Y-12728610D01*
X14120243Y-12696310D01*
X14282625Y-12664010D01*
X14613755Y-12664010D01*
X14776137Y-12696310D01*
X14776137Y-12696310D01*
G37*
G36*
X-20931614Y-996919D02*
X-20469680Y-1137045D01*
X-20043965Y-1364595D01*
X-19670824Y-1670824D01*
X-19364595Y-2043965D01*
X-19137045Y-2469680D01*
X-18996919Y-2931614D01*
X-18949000Y-3418140D01*
X-18949000Y-8581860D01*
X-18996919Y-9068386D01*
X-19137045Y-9530320D01*
X-19364595Y-9956035D01*
X-19670824Y-10329176D01*
X-20043965Y-10635405D01*
X-20469680Y-10862955D01*
X-20931614Y-11003081D01*
X-21418140Y-11051000D01*
X-26581860Y-11051000D01*
X-27068386Y-11003081D01*
X-27530320Y-10862955D01*
X-27956035Y-10635405D01*
X-28329176Y-10329176D01*
X-28635405Y-9956035D01*
X-28862955Y-9530320D01*
X-29003081Y-9068386D01*
X-29051000Y-8581860D01*
X-29051000Y-3418140D01*
X-29003081Y-2931614D01*
X-28862955Y-2469680D01*
X-28635405Y-2043965D01*
X-28329176Y-1670824D01*
X-27956035Y-1364595D01*
X-27530320Y-1137045D01*
X-27068386Y-996919D01*
X-26581860Y-949000D01*
X-21418140Y-949000D01*
X-20931614Y-996919D01*
X-20931614Y-996919D01*
G37*
G36*
X24054000Y-7270000D02*
X22428000Y-7270000D01*
X22428000Y-4668000D01*
X24054000Y-4668000D01*
X24054000Y-7270000D01*
X24054000Y-7270000D01*
G37*
G36*
X20879000Y-7270000D02*
X19253000Y-7270000D01*
X19253000Y-4668000D01*
X20879000Y-4668000D01*
X20879000Y-7270000D01*
X20879000Y-7270000D01*
G37*
G36*
X27483000Y-7143000D02*
X25857000Y-7143000D01*
X25857000Y-4541000D01*
X27483000Y-4541000D01*
X27483000Y-7143000D01*
X27483000Y-7143000D01*
G37*
G36*
X30658000Y-7143000D02*
X29032000Y-7143000D01*
X29032000Y-4541000D01*
X30658000Y-4541000D01*
X30658000Y-7143000D01*
X30658000Y-7143000D01*
G37*
G36*
X26016000Y-1833000D02*
X23514000Y-1833000D01*
X23514000Y-281000D01*
X26016000Y-281000D01*
X26016000Y-1833000D01*
X26016000Y-1833000D01*
G37*
G36*
X-33962053Y1648700D02*
X-33799670Y1616400D01*
X-33493748Y1489683D01*
X-33218425Y1305718D01*
X-32984282Y1071575D01*
X-32800317Y796252D01*
X-32673600Y490330D01*
X-32609000Y165564D01*
X-32609000Y-165564D01*
X-32673600Y-490330D01*
X-32800317Y-796252D01*
X-32984282Y-1071575D01*
X-33218425Y-1305718D01*
X-33493748Y-1489683D01*
X-33799670Y-1616400D01*
X-33962053Y-1648700D01*
X-34124435Y-1681000D01*
X-34455565Y-1681000D01*
X-34617947Y-1648700D01*
X-34780330Y-1616400D01*
X-35086252Y-1489683D01*
X-35361575Y-1305718D01*
X-35595718Y-1071575D01*
X-35779683Y-796252D01*
X-35906400Y-490330D01*
X-35971000Y-165564D01*
X-35971000Y165564D01*
X-35906400Y490330D01*
X-35779683Y796252D01*
X-35595718Y1071575D01*
X-35361575Y1305718D01*
X-35086252Y1489683D01*
X-34780330Y1616400D01*
X-34617947Y1648700D01*
X-34455565Y1681000D01*
X-34124435Y1681000D01*
X-33962053Y1648700D01*
X-33962053Y1648700D01*
G37*
G36*
X34617947Y1648700D02*
X34780330Y1616400D01*
X35086252Y1489683D01*
X35361575Y1305718D01*
X35595718Y1071575D01*
X35779683Y796252D01*
X35906400Y490330D01*
X35971000Y165564D01*
X35971000Y-165564D01*
X35906400Y-490330D01*
X35779683Y-796252D01*
X35595718Y-1071575D01*
X35361575Y-1305718D01*
X35086252Y-1489683D01*
X34780330Y-1616400D01*
X34617947Y-1648700D01*
X34455565Y-1681000D01*
X34124435Y-1681000D01*
X33962053Y-1648700D01*
X33799670Y-1616400D01*
X33493748Y-1489683D01*
X33218425Y-1305718D01*
X32984282Y-1071575D01*
X32800317Y-796252D01*
X32673600Y-490330D01*
X32609000Y-165564D01*
X32609000Y165564D01*
X32673600Y490330D01*
X32800317Y796252D01*
X32984282Y1071575D01*
X33218425Y1305718D01*
X33493748Y1489683D01*
X33799670Y1616400D01*
X33962053Y1648700D01*
X34124435Y1681000D01*
X34455565Y1681000D01*
X34617947Y1648700D01*
X34617947Y1648700D01*
G37*
G36*
X-20931614Y11003081D02*
X-20469680Y10862955D01*
X-20043965Y10635405D01*
X-19670824Y10329176D01*
X-19364595Y9956035D01*
X-19137045Y9530320D01*
X-18996919Y9068386D01*
X-18949000Y8581860D01*
X-18949000Y3418140D01*
X-18996919Y2931614D01*
X-19137045Y2469680D01*
X-19364595Y2043965D01*
X-19670824Y1670824D01*
X-20043965Y1364595D01*
X-20469680Y1137045D01*
X-20931614Y996919D01*
X-21418140Y949000D01*
X-26581860Y949000D01*
X-27068386Y996919D01*
X-27530320Y1137045D01*
X-27956035Y1364595D01*
X-28329176Y1670824D01*
X-28635405Y2043965D01*
X-28862955Y2469680D01*
X-29003081Y2931614D01*
X-29051000Y3418140D01*
X-29051000Y8581860D01*
X-29003081Y9068386D01*
X-28862955Y9530320D01*
X-28635405Y9956035D01*
X-28329176Y10329176D01*
X-27956035Y10635405D01*
X-27530320Y10862955D01*
X-27068386Y11003081D01*
X-26581860Y11051000D01*
X-21418140Y11051000D01*
X-20931614Y11003081D01*
X-20931614Y11003081D01*
G37*
G36*
X26016000Y2567000D02*
X23514000Y2567000D01*
X23514000Y4119000D01*
X26016000Y4119000D01*
X26016000Y2567000D01*
X26016000Y2567000D01*
G37*
G36*
X21983091Y4712915D02*
X22017069Y4702607D01*
X22048387Y4685867D01*
X22075839Y4663339D01*
X22098367Y4635887D01*
X22115107Y4604569D01*
X22125415Y4570591D01*
X22129500Y4529110D01*
X22129500Y3852890D01*
X22125415Y3811409D01*
X22115107Y3777431D01*
X22098367Y3746113D01*
X22075839Y3718661D01*
X22048387Y3696133D01*
X22017069Y3679393D01*
X21983091Y3669085D01*
X21941610Y3665000D01*
X21340390Y3665000D01*
X21298909Y3669085D01*
X21264931Y3679393D01*
X21233613Y3696133D01*
X21206161Y3718661D01*
X21183633Y3746113D01*
X21166893Y3777431D01*
X21156585Y3811409D01*
X21152500Y3852890D01*
X21152500Y4529110D01*
X21156585Y4570591D01*
X21166893Y4604569D01*
X21183633Y4635887D01*
X21206161Y4663339D01*
X21233613Y4685867D01*
X21264931Y4702607D01*
X21298909Y4712915D01*
X21340390Y4717000D01*
X21941610Y4717000D01*
X21983091Y4712915D01*
X21983091Y4712915D01*
G37*
G36*
X20408091Y4712915D02*
X20442069Y4702607D01*
X20473387Y4685867D01*
X20500839Y4663339D01*
X20523367Y4635887D01*
X20540107Y4604569D01*
X20550415Y4570591D01*
X20554500Y4529110D01*
X20554500Y3852890D01*
X20550415Y3811409D01*
X20540107Y3777431D01*
X20523367Y3746113D01*
X20500839Y3718661D01*
X20473387Y3696133D01*
X20442069Y3679393D01*
X20408091Y3669085D01*
X20366610Y3665000D01*
X19765390Y3665000D01*
X19723909Y3669085D01*
X19689931Y3679393D01*
X19658613Y3696133D01*
X19631161Y3718661D01*
X19608633Y3746113D01*
X19591893Y3777431D01*
X19581585Y3811409D01*
X19577500Y3852890D01*
X19577500Y4529110D01*
X19581585Y4570591D01*
X19591893Y4604569D01*
X19608633Y4635887D01*
X19631161Y4663339D01*
X19658613Y4685867D01*
X19689931Y4702607D01*
X19723909Y4712915D01*
X19765390Y4717000D01*
X20366610Y4717000D01*
X20408091Y4712915D01*
X20408091Y4712915D01*
G37*
G36*
X20408091Y6363915D02*
X20442069Y6353607D01*
X20473387Y6336867D01*
X20500839Y6314339D01*
X20523367Y6286887D01*
X20540107Y6255569D01*
X20550415Y6221591D01*
X20554500Y6180110D01*
X20554500Y5503890D01*
X20550415Y5462409D01*
X20540107Y5428431D01*
X20523367Y5397113D01*
X20500839Y5369661D01*
X20473387Y5347133D01*
X20442069Y5330393D01*
X20408091Y5320085D01*
X20366610Y5316000D01*
X19765390Y5316000D01*
X19723909Y5320085D01*
X19689931Y5330393D01*
X19658613Y5347133D01*
X19631161Y5369661D01*
X19608633Y5397113D01*
X19591893Y5428431D01*
X19581585Y5462409D01*
X19577500Y5503890D01*
X19577500Y6180110D01*
X19581585Y6221591D01*
X19591893Y6255569D01*
X19608633Y6286887D01*
X19631161Y6314339D01*
X19658613Y6336867D01*
X19689931Y6353607D01*
X19723909Y6363915D01*
X19765390Y6368000D01*
X20366610Y6368000D01*
X20408091Y6363915D01*
X20408091Y6363915D01*
G37*
G36*
X21983091Y6363915D02*
X22017069Y6353607D01*
X22048387Y6336867D01*
X22075839Y6314339D01*
X22098367Y6286887D01*
X22115107Y6255569D01*
X22125415Y6221591D01*
X22129500Y6180110D01*
X22129500Y5503890D01*
X22125415Y5462409D01*
X22115107Y5428431D01*
X22098367Y5397113D01*
X22075839Y5369661D01*
X22048387Y5347133D01*
X22017069Y5330393D01*
X21983091Y5320085D01*
X21941610Y5316000D01*
X21340390Y5316000D01*
X21298909Y5320085D01*
X21264931Y5330393D01*
X21233613Y5347133D01*
X21206161Y5369661D01*
X21183633Y5397113D01*
X21166893Y5428431D01*
X21156585Y5462409D01*
X21152500Y5503890D01*
X21152500Y6180110D01*
X21156585Y6221591D01*
X21166893Y6255569D01*
X21183633Y6286887D01*
X21206161Y6314339D01*
X21233613Y6336867D01*
X21264931Y6353607D01*
X21298909Y6363915D01*
X21340390Y6368000D01*
X21941610Y6368000D01*
X21983091Y6363915D01*
X21983091Y6363915D01*
G37*
G36*
X28282091Y6744915D02*
X28316069Y6734607D01*
X28347387Y6717867D01*
X28374839Y6695339D01*
X28397367Y6667887D01*
X28414107Y6636569D01*
X28424415Y6602591D01*
X28428500Y6561110D01*
X28428500Y5884890D01*
X28424415Y5843409D01*
X28414107Y5809431D01*
X28397367Y5778113D01*
X28374839Y5750661D01*
X28347387Y5728133D01*
X28316069Y5711393D01*
X28282091Y5701085D01*
X28240610Y5697000D01*
X27639390Y5697000D01*
X27597909Y5701085D01*
X27563931Y5711393D01*
X27532613Y5728133D01*
X27505161Y5750661D01*
X27482633Y5778113D01*
X27465893Y5809431D01*
X27455585Y5843409D01*
X27451500Y5884890D01*
X27451500Y6561110D01*
X27455585Y6602591D01*
X27465893Y6636569D01*
X27482633Y6667887D01*
X27505161Y6695339D01*
X27532613Y6717867D01*
X27563931Y6734607D01*
X27597909Y6744915D01*
X27639390Y6749000D01*
X28240610Y6749000D01*
X28282091Y6744915D01*
X28282091Y6744915D01*
G37*
G36*
X29857091Y6744915D02*
X29891069Y6734607D01*
X29922387Y6717867D01*
X29949839Y6695339D01*
X29972367Y6667887D01*
X29989107Y6636569D01*
X29999415Y6602591D01*
X30003500Y6561110D01*
X30003500Y5884890D01*
X29999415Y5843409D01*
X29989107Y5809431D01*
X29972367Y5778113D01*
X29949839Y5750661D01*
X29922387Y5728133D01*
X29891069Y5711393D01*
X29857091Y5701085D01*
X29815610Y5697000D01*
X29214390Y5697000D01*
X29172909Y5701085D01*
X29138931Y5711393D01*
X29107613Y5728133D01*
X29080161Y5750661D01*
X29057633Y5778113D01*
X29040893Y5809431D01*
X29030585Y5843409D01*
X29026500Y5884890D01*
X29026500Y6561110D01*
X29030585Y6602591D01*
X29040893Y6636569D01*
X29057633Y6667887D01*
X29080161Y6695339D01*
X29107613Y6717867D01*
X29138931Y6734607D01*
X29172909Y6744915D01*
X29214390Y6749000D01*
X29815610Y6749000D01*
X29857091Y6744915D01*
X29857091Y6744915D01*
G37*
G36*
X24689000Y5938000D02*
X23063000Y5938000D01*
X23063000Y8540000D01*
X24689000Y8540000D01*
X24689000Y5938000D01*
X24689000Y5938000D01*
G37*
G36*
X-14097353Y16016700D02*
X-13934970Y15984400D01*
X-13629048Y15857683D01*
X-13353725Y15673718D01*
X-13119582Y15439575D01*
X-12935617Y15164252D01*
X-12808900Y14858330D01*
X-12808900Y14858329D01*
X-12762119Y14623149D01*
X-12744300Y14533564D01*
X-12744300Y14202436D01*
X-12808900Y13877670D01*
X-12935617Y13571748D01*
X-13119582Y13296425D01*
X-13353725Y13062282D01*
X-13629048Y12878317D01*
X-13934970Y12751600D01*
X-14097353Y12719300D01*
X-14259735Y12687000D01*
X-14590865Y12687000D01*
X-14753247Y12719300D01*
X-14915630Y12751600D01*
X-15221552Y12878317D01*
X-15496875Y13062282D01*
X-15731018Y13296425D01*
X-15914983Y13571748D01*
X-16041700Y13877670D01*
X-16106300Y14202436D01*
X-16106300Y14533564D01*
X-16088480Y14623149D01*
X-16041700Y14858329D01*
X-16041700Y14858330D01*
X-15914983Y15164252D01*
X-15731018Y15439575D01*
X-15496875Y15673718D01*
X-15221552Y15857683D01*
X-14915630Y15984400D01*
X-14753247Y16016700D01*
X-14590865Y16049000D01*
X-14259735Y16049000D01*
X-14097353Y16016700D01*
X-14097353Y16016700D01*
G37*
G36*
X14684457Y16085500D02*
X14846840Y16053200D01*
X15152762Y15926483D01*
X15428085Y15742518D01*
X15662228Y15508375D01*
X15846193Y15233052D01*
X15879420Y15152835D01*
X15972910Y14927129D01*
X16037510Y14602365D01*
X16037510Y14271235D01*
X16032654Y14246822D01*
X15972910Y13946470D01*
X15846193Y13640548D01*
X15662228Y13365225D01*
X15428085Y13131082D01*
X15152762Y12947117D01*
X14846840Y12820400D01*
X14684457Y12788100D01*
X14522075Y12755800D01*
X14190945Y12755800D01*
X14028563Y12788100D01*
X13866180Y12820400D01*
X13560258Y12947117D01*
X13284935Y13131082D01*
X13050792Y13365225D01*
X12866827Y13640548D01*
X12740110Y13946470D01*
X12680366Y14246822D01*
X12675510Y14271235D01*
X12675510Y14602365D01*
X12740110Y14927129D01*
X12833600Y15152835D01*
X12866827Y15233052D01*
X13050792Y15508375D01*
X13284935Y15742518D01*
X13560258Y15926483D01*
X13866180Y16053200D01*
X14028563Y16085500D01*
X14190945Y16117800D01*
X14522075Y16117800D01*
X14684457Y16085500D01*
X14684457Y16085500D01*
G37*
G36*
X-20840953Y16967100D02*
X-20678570Y16934800D01*
X-20372648Y16808083D01*
X-20097325Y16624118D01*
X-19863182Y16389975D01*
X-19679217Y16114652D01*
X-19572777Y15857683D01*
X-19552500Y15808729D01*
X-19492755Y15508375D01*
X-19487900Y15483964D01*
X-19487900Y15152836D01*
X-19552500Y14828070D01*
X-19679217Y14522148D01*
X-19863182Y14246825D01*
X-20097325Y14012682D01*
X-20372648Y13828717D01*
X-20678570Y13702000D01*
X-20840953Y13669700D01*
X-21003335Y13637400D01*
X-21334465Y13637400D01*
X-21496847Y13669700D01*
X-21659230Y13702000D01*
X-21965152Y13828717D01*
X-22240475Y14012682D01*
X-22474618Y14246825D01*
X-22658583Y14522148D01*
X-22785300Y14828070D01*
X-22849900Y15152836D01*
X-22849900Y15483964D01*
X-22845044Y15508375D01*
X-22785300Y15808729D01*
X-22765023Y15857683D01*
X-22658583Y16114652D01*
X-22474618Y16389975D01*
X-22240475Y16624118D01*
X-21965152Y16808083D01*
X-21659230Y16934800D01*
X-21496847Y16967100D01*
X-21334465Y16999400D01*
X-21003335Y16999400D01*
X-20840953Y16967100D01*
X-20840953Y16967100D01*
G37*
G36*
X21423447Y17068100D02*
X21585830Y17035800D01*
X21891752Y16909083D01*
X22167075Y16725118D01*
X22401218Y16490975D01*
X22585183Y16215652D01*
X22711900Y15909730D01*
X22711900Y15909729D01*
X22776500Y15584965D01*
X22776500Y15253835D01*
X22756410Y15152836D01*
X22711900Y14929070D01*
X22585183Y14623148D01*
X22401218Y14347825D01*
X22167075Y14113682D01*
X21891752Y13929717D01*
X21585830Y13803000D01*
X21423447Y13770700D01*
X21261065Y13738400D01*
X20929935Y13738400D01*
X20767553Y13770700D01*
X20605170Y13803000D01*
X20299248Y13929717D01*
X20023925Y14113682D01*
X19789782Y14347825D01*
X19605817Y14623148D01*
X19479100Y14929070D01*
X19434590Y15152836D01*
X19414500Y15253835D01*
X19414500Y15584965D01*
X19479100Y15909729D01*
X19479100Y15909730D01*
X19605817Y16215652D01*
X19789782Y16490975D01*
X20023925Y16725118D01*
X20299248Y16909083D01*
X20605170Y17035800D01*
X20767553Y17068100D01*
X20929935Y17100400D01*
X21261065Y17100400D01*
X21423447Y17068100D01*
X21423447Y17068100D01*
G37*
G36*
X327947Y35938700D02*
X490330Y35906400D01*
X796252Y35779683D01*
X1071575Y35595718D01*
X1305718Y35361575D01*
X1489683Y35086252D01*
X1616400Y34780330D01*
X1681000Y34455564D01*
X1681000Y34124436D01*
X1616400Y33799670D01*
X1489683Y33493748D01*
X1305718Y33218425D01*
X1071575Y32984282D01*
X796252Y32800317D01*
X490330Y32673600D01*
X327947Y32641300D01*
X165565Y32609000D01*
X-165565Y32609000D01*
X-327947Y32641300D01*
X-490330Y32673600D01*
X-796252Y32800317D01*
X-1071575Y32984282D01*
X-1305718Y33218425D01*
X-1489683Y33493748D01*
X-1616400Y33799670D01*
X-1681000Y34124436D01*
X-1681000Y34455564D01*
X-1616400Y34780330D01*
X-1489683Y35086252D01*
X-1305718Y35361575D01*
X-1071575Y35595718D01*
X-796252Y35779683D01*
X-490330Y35906400D01*
X-327947Y35938700D01*
X-165565Y35971000D01*
X165565Y35971000D01*
X327947Y35938700D01*
X327947Y35938700D01*
G37*
M02*
