G04 #@! TF.GenerationSoftware,KiCad,Pcbnew,(5.0.2)-1*
G04 #@! TF.CreationDate,2019-05-12T16:54:14-07:00*
G04 #@! TF.ProjectId,controlBoard_rev0401,636f6e74-726f-46c4-926f-6172645f7265,rev?*
G04 #@! TF.SameCoordinates,Original*
G04 #@! TF.FileFunction,Legend,Bot*
G04 #@! TF.FilePolarity,Positive*
%FSLAX46Y46*%
G04 Gerber Fmt 4.6, Leading zero omitted, Abs format (unit mm)*
G04 Created by KiCad (PCBNEW (5.0.2)-1) date 5/12/2019 4:54:14 PM*
%MOMM*%
%LPD*%
G01*
G04 APERTURE LIST*
%ADD10C,0.300000*%
%ADD11C,0.120000*%
%ADD12C,0.100000*%
%ADD13C,0.150000*%
G04 APERTURE END LIST*
D10*
X36301428Y-51986571D02*
X36301428Y-50486571D01*
X35730000Y-50486571D01*
X35587142Y-50558000D01*
X35515714Y-50629428D01*
X35444285Y-50772285D01*
X35444285Y-50986571D01*
X35515714Y-51129428D01*
X35587142Y-51200857D01*
X35730000Y-51272285D01*
X36301428Y-51272285D01*
X34801428Y-51843714D02*
X34730000Y-51915142D01*
X34801428Y-51986571D01*
X34872857Y-51915142D01*
X34801428Y-51843714D01*
X34801428Y-51986571D01*
X32230000Y-51986571D02*
X32944285Y-51986571D01*
X32944285Y-50486571D01*
X31158571Y-51915142D02*
X31301428Y-51986571D01*
X31587142Y-51986571D01*
X31730000Y-51915142D01*
X31801428Y-51772285D01*
X31801428Y-51200857D01*
X31730000Y-51058000D01*
X31587142Y-50986571D01*
X31301428Y-50986571D01*
X31158571Y-51058000D01*
X31087142Y-51200857D01*
X31087142Y-51343714D01*
X31801428Y-51486571D01*
X30444285Y-51986571D02*
X30444285Y-50986571D01*
X30444285Y-51272285D02*
X30372857Y-51129428D01*
X30301428Y-51058000D01*
X30158571Y-50986571D01*
X30015714Y-50986571D01*
X29730000Y-50986571D02*
X29158571Y-50986571D01*
X29515714Y-50486571D02*
X29515714Y-51772285D01*
X29444285Y-51915142D01*
X29301428Y-51986571D01*
X29158571Y-51986571D01*
X28801428Y-50986571D02*
X28444285Y-51986571D01*
X28087142Y-50986571D01*
X27515714Y-51986571D02*
X27515714Y-50986571D01*
X27515714Y-50486571D02*
X27587142Y-50558000D01*
X27515714Y-50629428D01*
X27444285Y-50558000D01*
X27515714Y-50486571D01*
X27515714Y-50629428D01*
X26587142Y-51986571D02*
X26730000Y-51915142D01*
X26801428Y-51772285D01*
X26801428Y-50486571D01*
X25372857Y-51986571D02*
X25372857Y-51200857D01*
X25444285Y-51058000D01*
X25587142Y-50986571D01*
X25872857Y-50986571D01*
X26015714Y-51058000D01*
X25372857Y-51915142D02*
X25515714Y-51986571D01*
X25872857Y-51986571D01*
X26015714Y-51915142D01*
X26087142Y-51772285D01*
X26087142Y-51629428D01*
X26015714Y-51486571D01*
X25872857Y-51415142D01*
X25515714Y-51415142D01*
X25372857Y-51343714D01*
X24658571Y-51986571D02*
X24658571Y-50986571D01*
X24658571Y-50486571D02*
X24730000Y-50558000D01*
X24658571Y-50629428D01*
X24587142Y-50558000D01*
X24658571Y-50486571D01*
X24658571Y-50629428D01*
X34967714Y-45128571D02*
X34967714Y-43628571D01*
X34467714Y-44700000D01*
X33967714Y-43628571D01*
X33967714Y-45128571D01*
X32610571Y-45128571D02*
X32610571Y-44342857D01*
X32682000Y-44200000D01*
X32824857Y-44128571D01*
X33110571Y-44128571D01*
X33253428Y-44200000D01*
X32610571Y-45057142D02*
X32753428Y-45128571D01*
X33110571Y-45128571D01*
X33253428Y-45057142D01*
X33324857Y-44914285D01*
X33324857Y-44771428D01*
X33253428Y-44628571D01*
X33110571Y-44557142D01*
X32753428Y-44557142D01*
X32610571Y-44485714D01*
X32039142Y-44128571D02*
X31682000Y-45128571D01*
X31324857Y-44128571D02*
X31682000Y-45128571D01*
X31824857Y-45485714D01*
X31896285Y-45557142D01*
X32039142Y-45628571D01*
X28824857Y-45128571D02*
X29682000Y-45128571D01*
X29253428Y-45128571D02*
X29253428Y-43628571D01*
X29396285Y-43842857D01*
X29539142Y-43985714D01*
X29682000Y-44057142D01*
X28253428Y-43771428D02*
X28182000Y-43700000D01*
X28039142Y-43628571D01*
X27682000Y-43628571D01*
X27539142Y-43700000D01*
X27467714Y-43771428D01*
X27396285Y-43914285D01*
X27396285Y-44057142D01*
X27467714Y-44271428D01*
X28324857Y-45128571D01*
X27396285Y-45128571D01*
X26682000Y-45057142D02*
X26682000Y-45128571D01*
X26753428Y-45271428D01*
X26824857Y-45342857D01*
X24967714Y-43771428D02*
X24896285Y-43700000D01*
X24753428Y-43628571D01*
X24396285Y-43628571D01*
X24253428Y-43700000D01*
X24182000Y-43771428D01*
X24110571Y-43914285D01*
X24110571Y-44057142D01*
X24182000Y-44271428D01*
X25039142Y-45128571D01*
X24110571Y-45128571D01*
X23182000Y-43628571D02*
X23039142Y-43628571D01*
X22896285Y-43700000D01*
X22824857Y-43771428D01*
X22753428Y-43914285D01*
X22682000Y-44200000D01*
X22682000Y-44557142D01*
X22753428Y-44842857D01*
X22824857Y-44985714D01*
X22896285Y-45057142D01*
X23039142Y-45128571D01*
X23182000Y-45128571D01*
X23324857Y-45057142D01*
X23396285Y-44985714D01*
X23467714Y-44842857D01*
X23539142Y-44557142D01*
X23539142Y-44200000D01*
X23467714Y-43914285D01*
X23396285Y-43771428D01*
X23324857Y-43700000D01*
X23182000Y-43628571D01*
X21253428Y-45128571D02*
X22110571Y-45128571D01*
X21682000Y-45128571D02*
X21682000Y-43628571D01*
X21824857Y-43842857D01*
X21967714Y-43985714D01*
X22110571Y-44057142D01*
X20539142Y-45128571D02*
X20253428Y-45128571D01*
X20110571Y-45057142D01*
X20039142Y-44985714D01*
X19896285Y-44771428D01*
X19824857Y-44485714D01*
X19824857Y-43914285D01*
X19896285Y-43771428D01*
X19967714Y-43700000D01*
X20110571Y-43628571D01*
X20396285Y-43628571D01*
X20539142Y-43700000D01*
X20610571Y-43771428D01*
X20682000Y-43914285D01*
X20682000Y-44271428D01*
X20610571Y-44414285D01*
X20539142Y-44485714D01*
X20396285Y-44557142D01*
X20110571Y-44557142D01*
X19967714Y-44485714D01*
X19896285Y-44414285D01*
X19824857Y-44271428D01*
X37098000Y-39032571D02*
X37098000Y-37532571D01*
X36526571Y-37532571D01*
X36383714Y-37604000D01*
X36312285Y-37675428D01*
X36240857Y-37818285D01*
X36240857Y-38032571D01*
X36312285Y-38175428D01*
X36383714Y-38246857D01*
X36526571Y-38318285D01*
X37098000Y-38318285D01*
X35598000Y-37532571D02*
X35598000Y-38746857D01*
X35526571Y-38889714D01*
X35455142Y-38961142D01*
X35312285Y-39032571D01*
X35026571Y-39032571D01*
X34883714Y-38961142D01*
X34812285Y-38889714D01*
X34740857Y-38746857D01*
X34740857Y-37532571D01*
X34026571Y-38246857D02*
X33526571Y-38246857D01*
X33312285Y-39032571D02*
X34026571Y-39032571D01*
X34026571Y-37532571D01*
X33312285Y-37532571D01*
X30669428Y-38889714D02*
X30740857Y-38961142D01*
X30955142Y-39032571D01*
X31098000Y-39032571D01*
X31312285Y-38961142D01*
X31455142Y-38818285D01*
X31526571Y-38675428D01*
X31598000Y-38389714D01*
X31598000Y-38175428D01*
X31526571Y-37889714D01*
X31455142Y-37746857D01*
X31312285Y-37604000D01*
X31098000Y-37532571D01*
X30955142Y-37532571D01*
X30740857Y-37604000D01*
X30669428Y-37675428D01*
X29812285Y-39032571D02*
X29955142Y-38961142D01*
X30026571Y-38889714D01*
X30098000Y-38746857D01*
X30098000Y-38318285D01*
X30026571Y-38175428D01*
X29955142Y-38104000D01*
X29812285Y-38032571D01*
X29598000Y-38032571D01*
X29455142Y-38104000D01*
X29383714Y-38175428D01*
X29312285Y-38318285D01*
X29312285Y-38746857D01*
X29383714Y-38889714D01*
X29455142Y-38961142D01*
X29598000Y-39032571D01*
X29812285Y-39032571D01*
X28669428Y-38032571D02*
X28669428Y-39032571D01*
X28669428Y-38175428D02*
X28598000Y-38104000D01*
X28455142Y-38032571D01*
X28240857Y-38032571D01*
X28098000Y-38104000D01*
X28026571Y-38246857D01*
X28026571Y-39032571D01*
X27526571Y-38032571D02*
X26955142Y-38032571D01*
X27312285Y-37532571D02*
X27312285Y-38818285D01*
X27240857Y-38961142D01*
X27098000Y-39032571D01*
X26955142Y-39032571D01*
X26455142Y-39032571D02*
X26455142Y-38032571D01*
X26455142Y-38318285D02*
X26383714Y-38175428D01*
X26312285Y-38104000D01*
X26169428Y-38032571D01*
X26026571Y-38032571D01*
X25312285Y-39032571D02*
X25455142Y-38961142D01*
X25526571Y-38889714D01*
X25597999Y-38746857D01*
X25597999Y-38318285D01*
X25526571Y-38175428D01*
X25455142Y-38104000D01*
X25312285Y-38032571D01*
X25097999Y-38032571D01*
X24955142Y-38104000D01*
X24883714Y-38175428D01*
X24812285Y-38318285D01*
X24812285Y-38746857D01*
X24883714Y-38889714D01*
X24955142Y-38961142D01*
X25097999Y-39032571D01*
X25312285Y-39032571D01*
X23955142Y-39032571D02*
X24097999Y-38961142D01*
X24169428Y-38818285D01*
X24169428Y-37532571D01*
X21740857Y-38246857D02*
X21526571Y-38318285D01*
X21455142Y-38389714D01*
X21383714Y-38532571D01*
X21383714Y-38746857D01*
X21455142Y-38889714D01*
X21526571Y-38961142D01*
X21669428Y-39032571D01*
X22240857Y-39032571D01*
X22240857Y-37532571D01*
X21740857Y-37532571D01*
X21597999Y-37604000D01*
X21526571Y-37675428D01*
X21455142Y-37818285D01*
X21455142Y-37961142D01*
X21526571Y-38104000D01*
X21597999Y-38175428D01*
X21740857Y-38246857D01*
X22240857Y-38246857D01*
X20526571Y-39032571D02*
X20669428Y-38961142D01*
X20740857Y-38889714D01*
X20812285Y-38746857D01*
X20812285Y-38318285D01*
X20740857Y-38175428D01*
X20669428Y-38104000D01*
X20526571Y-38032571D01*
X20312285Y-38032571D01*
X20169428Y-38104000D01*
X20097999Y-38175428D01*
X20026571Y-38318285D01*
X20026571Y-38746857D01*
X20097999Y-38889714D01*
X20169428Y-38961142D01*
X20312285Y-39032571D01*
X20526571Y-39032571D01*
X18740857Y-39032571D02*
X18740857Y-38246857D01*
X18812285Y-38104000D01*
X18955142Y-38032571D01*
X19240857Y-38032571D01*
X19383714Y-38104000D01*
X18740857Y-38961142D02*
X18883714Y-39032571D01*
X19240857Y-39032571D01*
X19383714Y-38961142D01*
X19455142Y-38818285D01*
X19455142Y-38675428D01*
X19383714Y-38532571D01*
X19240857Y-38461142D01*
X18883714Y-38461142D01*
X18740857Y-38389714D01*
X18026571Y-39032571D02*
X18026571Y-38032571D01*
X18026571Y-38318285D02*
X17955142Y-38175428D01*
X17883714Y-38104000D01*
X17740857Y-38032571D01*
X17597999Y-38032571D01*
X16455142Y-39032571D02*
X16455142Y-37532571D01*
X16455142Y-38961142D02*
X16597999Y-39032571D01*
X16883714Y-39032571D01*
X17026571Y-38961142D01*
X17097999Y-38889714D01*
X17169428Y-38746857D01*
X17169428Y-38318285D01*
X17097999Y-38175428D01*
X17026571Y-38104000D01*
X16883714Y-38032571D01*
X16597999Y-38032571D01*
X16455142Y-38104000D01*
X14597999Y-39032571D02*
X14597999Y-38032571D01*
X14597999Y-38318285D02*
X14526571Y-38175428D01*
X14455142Y-38104000D01*
X14312285Y-38032571D01*
X14169428Y-38032571D01*
X13097999Y-38961142D02*
X13240857Y-39032571D01*
X13526571Y-39032571D01*
X13669428Y-38961142D01*
X13740857Y-38818285D01*
X13740857Y-38246857D01*
X13669428Y-38104000D01*
X13526571Y-38032571D01*
X13240857Y-38032571D01*
X13097999Y-38104000D01*
X13026571Y-38246857D01*
X13026571Y-38389714D01*
X13740857Y-38532571D01*
X12526571Y-38032571D02*
X12169428Y-39032571D01*
X11812285Y-38032571D01*
X10955142Y-37532571D02*
X10812285Y-37532571D01*
X10669428Y-37604000D01*
X10597999Y-37675428D01*
X10526571Y-37818285D01*
X10455142Y-38104000D01*
X10455142Y-38461142D01*
X10526571Y-38746857D01*
X10597999Y-38889714D01*
X10669428Y-38961142D01*
X10812285Y-39032571D01*
X10955142Y-39032571D01*
X11097999Y-38961142D01*
X11169428Y-38889714D01*
X11240857Y-38746857D01*
X11312285Y-38461142D01*
X11312285Y-38104000D01*
X11240857Y-37818285D01*
X11169428Y-37675428D01*
X11097999Y-37604000D01*
X10955142Y-37532571D01*
X9169428Y-38032571D02*
X9169428Y-39032571D01*
X9526571Y-37461142D02*
X9883714Y-38532571D01*
X8955142Y-38532571D01*
X8383714Y-38889714D02*
X8312285Y-38961142D01*
X8383714Y-39032571D01*
X8455142Y-38961142D01*
X8383714Y-38889714D01*
X8383714Y-39032571D01*
X7026571Y-38961142D02*
X7169428Y-39032571D01*
X7455142Y-39032571D01*
X7597999Y-38961142D01*
X7669428Y-38889714D01*
X7740857Y-38746857D01*
X7740857Y-38318285D01*
X7669428Y-38175428D01*
X7597999Y-38104000D01*
X7455142Y-38032571D01*
X7169428Y-38032571D01*
X7026571Y-38104000D01*
D11*
G04 #@! TO.C,R8*
X38610000Y-12537221D02*
X38610000Y-12862779D01*
X37590000Y-12537221D02*
X37590000Y-12862779D01*
G04 #@! TO.C,R7*
X36992779Y-8253000D02*
X36667221Y-8253000D01*
X36992779Y-9273000D02*
X36667221Y-9273000D01*
G04 #@! TO.C,C15*
X26160000Y-21198721D02*
X26160000Y-21524279D01*
X27180000Y-21198721D02*
X27180000Y-21524279D01*
G04 #@! TO.C,C12*
X27523221Y-12698000D02*
X27848779Y-12698000D01*
X27523221Y-13718000D02*
X27848779Y-13718000D01*
G04 #@! TO.C,C11*
X27497721Y-15496000D02*
X27823279Y-15496000D01*
X27497721Y-14476000D02*
X27823279Y-14476000D01*
G04 #@! TO.C,C16*
X24636000Y-21198721D02*
X24636000Y-21524279D01*
X25656000Y-21198721D02*
X25656000Y-21524279D01*
D12*
G04 #@! TO.C,U10*
X27850000Y-22686000D02*
X27850000Y-22536000D01*
X27860000Y-22686000D02*
X28010000Y-22686000D01*
X27860000Y-19986000D02*
X28010000Y-19986000D01*
X27860000Y-19986000D02*
X27860000Y-20136000D01*
X30560000Y-20136000D02*
X30560000Y-19986000D01*
X30560000Y-19986000D02*
X30410000Y-19986000D01*
X30410000Y-22686000D02*
X30660000Y-22686000D01*
D13*
G04 #@! TO.C,U9*
X25611000Y-11973000D02*
X25611000Y-11923000D01*
X29761000Y-11973000D02*
X29761000Y-11828000D01*
X29761000Y-6823000D02*
X29761000Y-6968000D01*
X25611000Y-6823000D02*
X25611000Y-6968000D01*
X25611000Y-11973000D02*
X29761000Y-11973000D01*
X25611000Y-6823000D02*
X29761000Y-6823000D01*
X25611000Y-11923000D02*
X24211000Y-11923000D01*
D11*
G04 #@! TO.C,R9*
X35143221Y-10666000D02*
X35468779Y-10666000D01*
X35143221Y-11686000D02*
X35468779Y-11686000D01*
G04 #@! TO.C,R10*
X35117721Y-13718000D02*
X35443279Y-13718000D01*
X35117721Y-12698000D02*
X35443279Y-12698000D01*
G04 #@! TO.C,R28*
X22096000Y-11292721D02*
X22096000Y-11618279D01*
X23116000Y-11292721D02*
X23116000Y-11618279D01*
G04 #@! TO.C,R29*
X22096000Y-8544779D02*
X22096000Y-8219221D01*
X23116000Y-8544779D02*
X23116000Y-8219221D01*
G04 #@! TO.C,R30*
X27269221Y-19560000D02*
X27594779Y-19560000D01*
X27269221Y-18540000D02*
X27594779Y-18540000D01*
G04 #@! TO.C,R8*
D13*
X38552380Y-15073333D02*
X38076190Y-14740000D01*
X38552380Y-14501904D02*
X37552380Y-14501904D01*
X37552380Y-14882857D01*
X37600000Y-14978095D01*
X37647619Y-15025714D01*
X37742857Y-15073333D01*
X37885714Y-15073333D01*
X37980952Y-15025714D01*
X38028571Y-14978095D01*
X38076190Y-14882857D01*
X38076190Y-14501904D01*
X37980952Y-15644761D02*
X37933333Y-15549523D01*
X37885714Y-15501904D01*
X37790476Y-15454285D01*
X37742857Y-15454285D01*
X37647619Y-15501904D01*
X37600000Y-15549523D01*
X37552380Y-15644761D01*
X37552380Y-15835238D01*
X37600000Y-15930476D01*
X37647619Y-15978095D01*
X37742857Y-16025714D01*
X37790476Y-16025714D01*
X37885714Y-15978095D01*
X37933333Y-15930476D01*
X37980952Y-15835238D01*
X37980952Y-15644761D01*
X38028571Y-15549523D01*
X38076190Y-15501904D01*
X38171428Y-15454285D01*
X38361904Y-15454285D01*
X38457142Y-15501904D01*
X38504761Y-15549523D01*
X38552380Y-15644761D01*
X38552380Y-15835238D01*
X38504761Y-15930476D01*
X38457142Y-15978095D01*
X38361904Y-16025714D01*
X38171428Y-16025714D01*
X38076190Y-15978095D01*
X38028571Y-15930476D01*
X37980952Y-15835238D01*
G04 #@! TO.C,R7*
X36996666Y-7785380D02*
X37330000Y-7309190D01*
X37568095Y-7785380D02*
X37568095Y-6785380D01*
X37187142Y-6785380D01*
X37091904Y-6833000D01*
X37044285Y-6880619D01*
X36996666Y-6975857D01*
X36996666Y-7118714D01*
X37044285Y-7213952D01*
X37091904Y-7261571D01*
X37187142Y-7309190D01*
X37568095Y-7309190D01*
X36663333Y-6785380D02*
X35996666Y-6785380D01*
X36425238Y-7785380D01*
G04 #@! TO.C,U7*
X10882380Y-17653095D02*
X11691904Y-17653095D01*
X11787142Y-17700714D01*
X11834761Y-17748333D01*
X11882380Y-17843571D01*
X11882380Y-18034047D01*
X11834761Y-18129285D01*
X11787142Y-18176904D01*
X11691904Y-18224523D01*
X10882380Y-18224523D01*
X10882380Y-18605476D02*
X10882380Y-19272142D01*
X11882380Y-18843571D01*
G04 #@! TO.C,C15*
X27281142Y-23766642D02*
X27328761Y-23719023D01*
X27376380Y-23576166D01*
X27376380Y-23480928D01*
X27328761Y-23338071D01*
X27233523Y-23242833D01*
X27138285Y-23195214D01*
X26947809Y-23147595D01*
X26804952Y-23147595D01*
X26614476Y-23195214D01*
X26519238Y-23242833D01*
X26424000Y-23338071D01*
X26376380Y-23480928D01*
X26376380Y-23576166D01*
X26424000Y-23719023D01*
X26471619Y-23766642D01*
X27376380Y-24719023D02*
X27376380Y-24147595D01*
X27376380Y-24433309D02*
X26376380Y-24433309D01*
X26519238Y-24338071D01*
X26614476Y-24242833D01*
X26662095Y-24147595D01*
X26376380Y-25623785D02*
X26376380Y-25147595D01*
X26852571Y-25099976D01*
X26804952Y-25147595D01*
X26757333Y-25242833D01*
X26757333Y-25480928D01*
X26804952Y-25576166D01*
X26852571Y-25623785D01*
X26947809Y-25671404D01*
X27185904Y-25671404D01*
X27281142Y-25623785D01*
X27328761Y-25576166D01*
X27376380Y-25480928D01*
X27376380Y-25242833D01*
X27328761Y-25147595D01*
X27281142Y-25099976D01*
G04 #@! TO.C,C12*
X31630857Y-13819142D02*
X31678476Y-13866761D01*
X31821333Y-13914380D01*
X31916571Y-13914380D01*
X32059428Y-13866761D01*
X32154666Y-13771523D01*
X32202285Y-13676285D01*
X32249904Y-13485809D01*
X32249904Y-13342952D01*
X32202285Y-13152476D01*
X32154666Y-13057238D01*
X32059428Y-12962000D01*
X31916571Y-12914380D01*
X31821333Y-12914380D01*
X31678476Y-12962000D01*
X31630857Y-13009619D01*
X30678476Y-13914380D02*
X31249904Y-13914380D01*
X30964190Y-13914380D02*
X30964190Y-12914380D01*
X31059428Y-13057238D01*
X31154666Y-13152476D01*
X31249904Y-13200095D01*
X30297523Y-13009619D02*
X30249904Y-12962000D01*
X30154666Y-12914380D01*
X29916571Y-12914380D01*
X29821333Y-12962000D01*
X29773714Y-13009619D01*
X29726095Y-13104857D01*
X29726095Y-13200095D01*
X29773714Y-13342952D01*
X30345142Y-13914380D01*
X29726095Y-13914380D01*
G04 #@! TO.C,C11*
X28303357Y-16773142D02*
X28350976Y-16820761D01*
X28493833Y-16868380D01*
X28589071Y-16868380D01*
X28731928Y-16820761D01*
X28827166Y-16725523D01*
X28874785Y-16630285D01*
X28922404Y-16439809D01*
X28922404Y-16296952D01*
X28874785Y-16106476D01*
X28827166Y-16011238D01*
X28731928Y-15916000D01*
X28589071Y-15868380D01*
X28493833Y-15868380D01*
X28350976Y-15916000D01*
X28303357Y-15963619D01*
X27350976Y-16868380D02*
X27922404Y-16868380D01*
X27636690Y-16868380D02*
X27636690Y-15868380D01*
X27731928Y-16011238D01*
X27827166Y-16106476D01*
X27922404Y-16154095D01*
X26398595Y-16868380D02*
X26970023Y-16868380D01*
X26684309Y-16868380D02*
X26684309Y-15868380D01*
X26779547Y-16011238D01*
X26874785Y-16106476D01*
X26970023Y-16154095D01*
G04 #@! TO.C,C16*
X25503142Y-23792142D02*
X25550761Y-23744523D01*
X25598380Y-23601666D01*
X25598380Y-23506428D01*
X25550761Y-23363571D01*
X25455523Y-23268333D01*
X25360285Y-23220714D01*
X25169809Y-23173095D01*
X25026952Y-23173095D01*
X24836476Y-23220714D01*
X24741238Y-23268333D01*
X24646000Y-23363571D01*
X24598380Y-23506428D01*
X24598380Y-23601666D01*
X24646000Y-23744523D01*
X24693619Y-23792142D01*
X25598380Y-24744523D02*
X25598380Y-24173095D01*
X25598380Y-24458809D02*
X24598380Y-24458809D01*
X24741238Y-24363571D01*
X24836476Y-24268333D01*
X24884095Y-24173095D01*
X24598380Y-25601666D02*
X24598380Y-25411190D01*
X24646000Y-25315952D01*
X24693619Y-25268333D01*
X24836476Y-25173095D01*
X25026952Y-25125476D01*
X25407904Y-25125476D01*
X25503142Y-25173095D01*
X25550761Y-25220714D01*
X25598380Y-25315952D01*
X25598380Y-25506428D01*
X25550761Y-25601666D01*
X25503142Y-25649285D01*
X25407904Y-25696904D01*
X25169809Y-25696904D01*
X25074571Y-25649285D01*
X25026952Y-25601666D01*
X24979333Y-25506428D01*
X24979333Y-25315952D01*
X25026952Y-25220714D01*
X25074571Y-25173095D01*
X25169809Y-25125476D01*
G04 #@! TO.C,U10*
X31127380Y-20082904D02*
X31936904Y-20082904D01*
X32032142Y-20130523D01*
X32079761Y-20178142D01*
X32127380Y-20273380D01*
X32127380Y-20463857D01*
X32079761Y-20559095D01*
X32032142Y-20606714D01*
X31936904Y-20654333D01*
X31127380Y-20654333D01*
X32127380Y-21654333D02*
X32127380Y-21082904D01*
X32127380Y-21368619D02*
X31127380Y-21368619D01*
X31270238Y-21273380D01*
X31365476Y-21178142D01*
X31413095Y-21082904D01*
X31127380Y-22273380D02*
X31127380Y-22368619D01*
X31175000Y-22463857D01*
X31222619Y-22511476D01*
X31317857Y-22559095D01*
X31508333Y-22606714D01*
X31746428Y-22606714D01*
X31936904Y-22559095D01*
X32032142Y-22511476D01*
X32079761Y-22463857D01*
X32127380Y-22368619D01*
X32127380Y-22273380D01*
X32079761Y-22178142D01*
X32032142Y-22130523D01*
X31936904Y-22082904D01*
X31746428Y-22035285D01*
X31508333Y-22035285D01*
X31317857Y-22082904D01*
X31222619Y-22130523D01*
X31175000Y-22178142D01*
X31127380Y-22273380D01*
G04 #@! TO.C,U9*
X28447904Y-12350380D02*
X28447904Y-13159904D01*
X28400285Y-13255142D01*
X28352666Y-13302761D01*
X28257428Y-13350380D01*
X28066952Y-13350380D01*
X27971714Y-13302761D01*
X27924095Y-13255142D01*
X27876476Y-13159904D01*
X27876476Y-12350380D01*
X27352666Y-13350380D02*
X27162190Y-13350380D01*
X27066952Y-13302761D01*
X27019333Y-13255142D01*
X26924095Y-13112285D01*
X26876476Y-12921809D01*
X26876476Y-12540857D01*
X26924095Y-12445619D01*
X26971714Y-12398000D01*
X27066952Y-12350380D01*
X27257428Y-12350380D01*
X27352666Y-12398000D01*
X27400285Y-12445619D01*
X27447904Y-12540857D01*
X27447904Y-12778952D01*
X27400285Y-12874190D01*
X27352666Y-12921809D01*
X27257428Y-12969428D01*
X27066952Y-12969428D01*
X26971714Y-12921809D01*
X26924095Y-12874190D01*
X26876476Y-12778952D01*
G04 #@! TO.C,R9*
X38139666Y-11120380D02*
X38473000Y-10644190D01*
X38711095Y-11120380D02*
X38711095Y-10120380D01*
X38330142Y-10120380D01*
X38234904Y-10168000D01*
X38187285Y-10215619D01*
X38139666Y-10310857D01*
X38139666Y-10453714D01*
X38187285Y-10548952D01*
X38234904Y-10596571D01*
X38330142Y-10644190D01*
X38711095Y-10644190D01*
X37663476Y-11120380D02*
X37473000Y-11120380D01*
X37377761Y-11072761D01*
X37330142Y-11025142D01*
X37234904Y-10882285D01*
X37187285Y-10691809D01*
X37187285Y-10310857D01*
X37234904Y-10215619D01*
X37282523Y-10168000D01*
X37377761Y-10120380D01*
X37568238Y-10120380D01*
X37663476Y-10168000D01*
X37711095Y-10215619D01*
X37758714Y-10310857D01*
X37758714Y-10548952D01*
X37711095Y-10644190D01*
X37663476Y-10691809D01*
X37568238Y-10739428D01*
X37377761Y-10739428D01*
X37282523Y-10691809D01*
X37234904Y-10644190D01*
X37187285Y-10548952D01*
G04 #@! TO.C,R10*
X35923357Y-15184380D02*
X36256690Y-14708190D01*
X36494785Y-15184380D02*
X36494785Y-14184380D01*
X36113833Y-14184380D01*
X36018595Y-14232000D01*
X35970976Y-14279619D01*
X35923357Y-14374857D01*
X35923357Y-14517714D01*
X35970976Y-14612952D01*
X36018595Y-14660571D01*
X36113833Y-14708190D01*
X36494785Y-14708190D01*
X34970976Y-15184380D02*
X35542404Y-15184380D01*
X35256690Y-15184380D02*
X35256690Y-14184380D01*
X35351928Y-14327238D01*
X35447166Y-14422476D01*
X35542404Y-14470095D01*
X34351928Y-14184380D02*
X34256690Y-14184380D01*
X34161452Y-14232000D01*
X34113833Y-14279619D01*
X34066214Y-14374857D01*
X34018595Y-14565333D01*
X34018595Y-14803428D01*
X34066214Y-14993904D01*
X34113833Y-15089142D01*
X34161452Y-15136761D01*
X34256690Y-15184380D01*
X34351928Y-15184380D01*
X34447166Y-15136761D01*
X34494785Y-15089142D01*
X34542404Y-14993904D01*
X34590023Y-14803428D01*
X34590023Y-14565333D01*
X34542404Y-14374857D01*
X34494785Y-14279619D01*
X34447166Y-14232000D01*
X34351928Y-14184380D01*
G04 #@! TO.C,R28*
X21628380Y-10812642D02*
X21152190Y-10479309D01*
X21628380Y-10241214D02*
X20628380Y-10241214D01*
X20628380Y-10622166D01*
X20676000Y-10717404D01*
X20723619Y-10765023D01*
X20818857Y-10812642D01*
X20961714Y-10812642D01*
X21056952Y-10765023D01*
X21104571Y-10717404D01*
X21152190Y-10622166D01*
X21152190Y-10241214D01*
X20723619Y-11193595D02*
X20676000Y-11241214D01*
X20628380Y-11336452D01*
X20628380Y-11574547D01*
X20676000Y-11669785D01*
X20723619Y-11717404D01*
X20818857Y-11765023D01*
X20914095Y-11765023D01*
X21056952Y-11717404D01*
X21628380Y-11145976D01*
X21628380Y-11765023D01*
X21056952Y-12336452D02*
X21009333Y-12241214D01*
X20961714Y-12193595D01*
X20866476Y-12145976D01*
X20818857Y-12145976D01*
X20723619Y-12193595D01*
X20676000Y-12241214D01*
X20628380Y-12336452D01*
X20628380Y-12526928D01*
X20676000Y-12622166D01*
X20723619Y-12669785D01*
X20818857Y-12717404D01*
X20866476Y-12717404D01*
X20961714Y-12669785D01*
X21009333Y-12622166D01*
X21056952Y-12526928D01*
X21056952Y-12336452D01*
X21104571Y-12241214D01*
X21152190Y-12193595D01*
X21247428Y-12145976D01*
X21437904Y-12145976D01*
X21533142Y-12193595D01*
X21580761Y-12241214D01*
X21628380Y-12336452D01*
X21628380Y-12526928D01*
X21580761Y-12622166D01*
X21533142Y-12669785D01*
X21437904Y-12717404D01*
X21247428Y-12717404D01*
X21152190Y-12669785D01*
X21104571Y-12622166D01*
X21056952Y-12526928D01*
G04 #@! TO.C,R29*
X23312380Y-4437142D02*
X22836190Y-4103809D01*
X23312380Y-3865714D02*
X22312380Y-3865714D01*
X22312380Y-4246666D01*
X22360000Y-4341904D01*
X22407619Y-4389523D01*
X22502857Y-4437142D01*
X22645714Y-4437142D01*
X22740952Y-4389523D01*
X22788571Y-4341904D01*
X22836190Y-4246666D01*
X22836190Y-3865714D01*
X22407619Y-4818095D02*
X22360000Y-4865714D01*
X22312380Y-4960952D01*
X22312380Y-5199047D01*
X22360000Y-5294285D01*
X22407619Y-5341904D01*
X22502857Y-5389523D01*
X22598095Y-5389523D01*
X22740952Y-5341904D01*
X23312380Y-4770476D01*
X23312380Y-5389523D01*
X23312380Y-5865714D02*
X23312380Y-6056190D01*
X23264761Y-6151428D01*
X23217142Y-6199047D01*
X23074285Y-6294285D01*
X22883809Y-6341904D01*
X22502857Y-6341904D01*
X22407619Y-6294285D01*
X22360000Y-6246666D01*
X22312380Y-6151428D01*
X22312380Y-5960952D01*
X22360000Y-5865714D01*
X22407619Y-5818095D01*
X22502857Y-5770476D01*
X22740952Y-5770476D01*
X22836190Y-5818095D01*
X22883809Y-5865714D01*
X22931428Y-5960952D01*
X22931428Y-6151428D01*
X22883809Y-6246666D01*
X22836190Y-6294285D01*
X22740952Y-6341904D01*
G04 #@! TO.C,R30*
X31402357Y-19502380D02*
X31735690Y-19026190D01*
X31973785Y-19502380D02*
X31973785Y-18502380D01*
X31592833Y-18502380D01*
X31497595Y-18550000D01*
X31449976Y-18597619D01*
X31402357Y-18692857D01*
X31402357Y-18835714D01*
X31449976Y-18930952D01*
X31497595Y-18978571D01*
X31592833Y-19026190D01*
X31973785Y-19026190D01*
X31069023Y-18502380D02*
X30449976Y-18502380D01*
X30783309Y-18883333D01*
X30640452Y-18883333D01*
X30545214Y-18930952D01*
X30497595Y-18978571D01*
X30449976Y-19073809D01*
X30449976Y-19311904D01*
X30497595Y-19407142D01*
X30545214Y-19454761D01*
X30640452Y-19502380D01*
X30926166Y-19502380D01*
X31021404Y-19454761D01*
X31069023Y-19407142D01*
X29830928Y-18502380D02*
X29735690Y-18502380D01*
X29640452Y-18550000D01*
X29592833Y-18597619D01*
X29545214Y-18692857D01*
X29497595Y-18883333D01*
X29497595Y-19121428D01*
X29545214Y-19311904D01*
X29592833Y-19407142D01*
X29640452Y-19454761D01*
X29735690Y-19502380D01*
X29830928Y-19502380D01*
X29926166Y-19454761D01*
X29973785Y-19407142D01*
X30021404Y-19311904D01*
X30069023Y-19121428D01*
X30069023Y-18883333D01*
X30021404Y-18692857D01*
X29973785Y-18597619D01*
X29926166Y-18550000D01*
X29830928Y-18502380D01*
G04 #@! TD*
M02*
