G04 #@! TF.GenerationSoftware,KiCad,Pcbnew,(5.0.2)-1*
G04 #@! TF.CreationDate,2019-05-12T16:54:14-07:00*
G04 #@! TF.ProjectId,controlBoard_rev0401,636f6e74-726f-46c4-926f-6172645f7265,rev?*
G04 #@! TF.SameCoordinates,Original*
G04 #@! TF.FileFunction,Legend,Top*
G04 #@! TF.FilePolarity,Positive*
%FSLAX46Y46*%
G04 Gerber Fmt 4.6, Leading zero omitted, Abs format (unit mm)*
G04 Created by KiCad (PCBNEW (5.0.2)-1) date 5/12/2019 4:54:14 PM*
%MOMM*%
%LPD*%
G01*
G04 APERTURE LIST*
%ADD10C,0.120000*%
%ADD11C,0.100000*%
%ADD12C,0.150000*%
G04 APERTURE END LIST*
D10*
G04 #@! TO.C,R3*
X35158000Y-11143064D02*
X35158000Y-9938936D01*
X36978000Y-11143064D02*
X36978000Y-9938936D01*
G04 #@! TO.C,Q1*
X26916000Y-7882000D02*
X23146000Y-7882000D01*
X23376000Y-11422000D02*
X26916000Y-11422000D01*
X26916000Y-7882000D02*
X26916000Y-8252000D01*
X26916000Y-11422000D02*
X26916000Y-11052000D01*
X23376000Y-11422000D02*
X23376000Y-11052000D01*
G04 #@! TO.C,Q3*
X34663000Y-22614000D02*
X34663000Y-22984000D01*
X31123000Y-22614000D02*
X31123000Y-22984000D01*
X31123000Y-26154000D02*
X31123000Y-25784000D01*
X34663000Y-22614000D02*
X31123000Y-22614000D01*
X31123000Y-26154000D02*
X34893000Y-26154000D01*
G04 #@! TO.C,Q2*
X21969000Y-14915000D02*
X21969000Y-13985000D01*
X21969000Y-11755000D02*
X21969000Y-12685000D01*
X21969000Y-11755000D02*
X19809000Y-11755000D01*
X21969000Y-14915000D02*
X20509000Y-14915000D01*
G04 #@! TO.C,R6*
X20030221Y-8126000D02*
X20355779Y-8126000D01*
X20030221Y-9146000D02*
X20355779Y-9146000D01*
G04 #@! TO.C,C18*
X16508000Y-51496279D02*
X16508000Y-51170721D01*
X17528000Y-51496279D02*
X17528000Y-51170721D01*
G04 #@! TO.C,C9*
X35254000Y-18546578D02*
X35254000Y-18029422D01*
X33834000Y-18546578D02*
X33834000Y-18029422D01*
G04 #@! TO.C,C17*
X36120000Y-19816578D02*
X36120000Y-19299422D01*
X37540000Y-19816578D02*
X37540000Y-19299422D01*
G04 #@! TO.C,C8*
X38040000Y-1210000D02*
X38040000Y-3870000D01*
X40640000Y-1210000D02*
X38040000Y-1210000D01*
X40640000Y-3870000D02*
X38040000Y-3870000D01*
X40640000Y-1210000D02*
X40640000Y-3870000D01*
X41910000Y-1210000D02*
X43240000Y-1210000D01*
X43240000Y-1210000D02*
X43240000Y-2540000D01*
G04 #@! TO.C,U8*
X1464000Y-54042000D02*
X1464000Y-56702000D01*
X14224000Y-54042000D02*
X1464000Y-54042000D01*
X14224000Y-56702000D02*
X1464000Y-56702000D01*
X14224000Y-54042000D02*
X14224000Y-56702000D01*
X15494000Y-54042000D02*
X16824000Y-54042000D01*
X16824000Y-54042000D02*
X16824000Y-55372000D01*
D11*
G04 #@! TO.C,U5*
X41402000Y-8636000D02*
X38608000Y-8636000D01*
X41402000Y-5588000D02*
X41402000Y-8636000D01*
X38608000Y-5588000D02*
X43942000Y-5588000D01*
X38608000Y-57150000D02*
X38608000Y-5588000D01*
X39116000Y-57150000D02*
X38608000Y-57150000D01*
X43942000Y-57150000D02*
X39116000Y-57150000D01*
X43942000Y-5588000D02*
X43942000Y-57150000D01*
D10*
G04 #@! TO.C,Y1*
X15334000Y-25930000D02*
X21234000Y-25930000D01*
X21234000Y-25930000D02*
X21234000Y-22330000D01*
X21234000Y-22330000D02*
X15334000Y-22330000D01*
G04 #@! TO.C,U4*
X25695000Y-3588000D02*
X25695000Y-5388000D01*
X28915000Y-5388000D02*
X28915000Y-2938000D01*
G04 #@! TO.C,R2*
X22839000Y-5050064D02*
X22839000Y-3845936D01*
X24659000Y-5050064D02*
X24659000Y-3845936D01*
D12*
G04 #@! TO.C,J4*
X28194000Y-57404000D02*
X28194000Y-54610000D01*
X28194000Y-54610000D02*
X19050000Y-54610000D01*
X19050000Y-54610000D02*
X19050000Y-57404000D01*
X19050000Y-57404000D02*
X28194000Y-57404000D01*
D10*
G04 #@! TO.C,C1*
X22976721Y-25910000D02*
X23302279Y-25910000D01*
X22976721Y-24890000D02*
X23302279Y-24890000D01*
G04 #@! TO.C,C14*
X5399721Y-38102000D02*
X5725279Y-38102000D01*
X5399721Y-37082000D02*
X5725279Y-37082000D01*
G04 #@! TO.C,C13*
X5450721Y-35558000D02*
X5776279Y-35558000D01*
X5450721Y-36578000D02*
X5776279Y-36578000D01*
G04 #@! TO.C,C10*
X8092221Y-23497000D02*
X8417779Y-23497000D01*
X8092221Y-22477000D02*
X8417779Y-22477000D01*
G04 #@! TO.C,C7*
X8092221Y-20699000D02*
X8417779Y-20699000D01*
X8092221Y-21719000D02*
X8417779Y-21719000D01*
G04 #@! TO.C,C4*
X15377279Y-20318000D02*
X15051721Y-20318000D01*
X15377279Y-21338000D02*
X15051721Y-21338000D01*
G04 #@! TO.C,C3*
X20690721Y-20318000D02*
X21016279Y-20318000D01*
X20690721Y-21338000D02*
X21016279Y-21338000D01*
G04 #@! TO.C,C2*
X22925721Y-24386000D02*
X23251279Y-24386000D01*
X22925721Y-23366000D02*
X23251279Y-23366000D01*
G04 #@! TO.C,C5*
X32595078Y-8434000D02*
X32077922Y-8434000D01*
X32595078Y-9854000D02*
X32077922Y-9854000D01*
G04 #@! TO.C,J15*
X15822000Y-49354000D02*
X15822000Y-48104000D01*
X14572000Y-49354000D02*
X15822000Y-49354000D01*
X12462000Y-44944000D02*
X12462000Y-45444000D01*
X12362000Y-45444000D02*
X12362000Y-44944000D01*
X12562000Y-45444000D02*
X12362000Y-45444000D01*
X12562000Y-44944000D02*
X12562000Y-45444000D01*
X9402000Y-46444000D02*
X10012000Y-46444000D01*
X9402000Y-47744000D02*
X10012000Y-47744000D01*
X15522000Y-46444000D02*
X14912000Y-46444000D01*
X15522000Y-47744000D02*
X14912000Y-47744000D01*
X11962000Y-48444000D02*
X11962000Y-49054000D01*
X10012000Y-48444000D02*
X11962000Y-48444000D01*
X10012000Y-44944000D02*
X10012000Y-48444000D01*
X14912000Y-44944000D02*
X10012000Y-44944000D01*
X14912000Y-48444000D02*
X14912000Y-44944000D01*
X12962000Y-48444000D02*
X14912000Y-48444000D01*
X12962000Y-49054000D02*
X12962000Y-48444000D01*
X13762000Y-49154000D02*
X14062000Y-49154000D01*
X14062000Y-49254000D02*
X14062000Y-49054000D01*
X13762000Y-49254000D02*
X14062000Y-49254000D01*
X13762000Y-49054000D02*
X13762000Y-49254000D01*
X9402000Y-49054000D02*
X15522000Y-49054000D01*
X9402000Y-44334000D02*
X9402000Y-49054000D01*
X15522000Y-44334000D02*
X9402000Y-44334000D01*
X15522000Y-49054000D02*
X15522000Y-44334000D01*
G04 #@! TO.C,J12*
X20038000Y-45434000D02*
X20038000Y-50154000D01*
X20038000Y-50154000D02*
X26158000Y-50154000D01*
X26158000Y-50154000D02*
X26158000Y-45434000D01*
X26158000Y-45434000D02*
X20038000Y-45434000D01*
X21798000Y-45434000D02*
X21798000Y-45234000D01*
X21798000Y-45234000D02*
X21498000Y-45234000D01*
X21498000Y-45234000D02*
X21498000Y-45434000D01*
X21798000Y-45334000D02*
X21498000Y-45334000D01*
X22598000Y-45434000D02*
X22598000Y-46044000D01*
X22598000Y-46044000D02*
X20648000Y-46044000D01*
X20648000Y-46044000D02*
X20648000Y-49544000D01*
X20648000Y-49544000D02*
X25548000Y-49544000D01*
X25548000Y-49544000D02*
X25548000Y-46044000D01*
X25548000Y-46044000D02*
X23598000Y-46044000D01*
X23598000Y-46044000D02*
X23598000Y-45434000D01*
X20038000Y-46744000D02*
X20648000Y-46744000D01*
X20038000Y-48044000D02*
X20648000Y-48044000D01*
X26158000Y-46744000D02*
X25548000Y-46744000D01*
X26158000Y-48044000D02*
X25548000Y-48044000D01*
X22998000Y-49544000D02*
X22998000Y-49044000D01*
X22998000Y-49044000D02*
X23198000Y-49044000D01*
X23198000Y-49044000D02*
X23198000Y-49544000D01*
X23098000Y-49544000D02*
X23098000Y-49044000D01*
X20988000Y-45134000D02*
X19738000Y-45134000D01*
X19738000Y-45134000D02*
X19738000Y-46384000D01*
G04 #@! TO.C,J11*
X20038000Y-39592000D02*
X20038000Y-44312000D01*
X20038000Y-44312000D02*
X26158000Y-44312000D01*
X26158000Y-44312000D02*
X26158000Y-39592000D01*
X26158000Y-39592000D02*
X20038000Y-39592000D01*
X21798000Y-39592000D02*
X21798000Y-39392000D01*
X21798000Y-39392000D02*
X21498000Y-39392000D01*
X21498000Y-39392000D02*
X21498000Y-39592000D01*
X21798000Y-39492000D02*
X21498000Y-39492000D01*
X22598000Y-39592000D02*
X22598000Y-40202000D01*
X22598000Y-40202000D02*
X20648000Y-40202000D01*
X20648000Y-40202000D02*
X20648000Y-43702000D01*
X20648000Y-43702000D02*
X25548000Y-43702000D01*
X25548000Y-43702000D02*
X25548000Y-40202000D01*
X25548000Y-40202000D02*
X23598000Y-40202000D01*
X23598000Y-40202000D02*
X23598000Y-39592000D01*
X20038000Y-40902000D02*
X20648000Y-40902000D01*
X20038000Y-42202000D02*
X20648000Y-42202000D01*
X26158000Y-40902000D02*
X25548000Y-40902000D01*
X26158000Y-42202000D02*
X25548000Y-42202000D01*
X22998000Y-43702000D02*
X22998000Y-43202000D01*
X22998000Y-43202000D02*
X23198000Y-43202000D01*
X23198000Y-43202000D02*
X23198000Y-43702000D01*
X23098000Y-43702000D02*
X23098000Y-43202000D01*
X20988000Y-39292000D02*
X19738000Y-39292000D01*
X19738000Y-39292000D02*
X19738000Y-40542000D01*
G04 #@! TO.C,J14*
X6555000Y-2085000D02*
X5305000Y-2085000D01*
X6555000Y-3335000D02*
X6555000Y-2085000D01*
X2145000Y-7445000D02*
X2645000Y-7445000D01*
X2645000Y-7545000D02*
X2145000Y-7545000D01*
X2645000Y-7345000D02*
X2645000Y-7545000D01*
X2145000Y-7345000D02*
X2645000Y-7345000D01*
X2145000Y-5445000D02*
X2645000Y-5445000D01*
X2645000Y-5545000D02*
X2145000Y-5545000D01*
X2645000Y-5345000D02*
X2645000Y-5545000D01*
X2145000Y-5345000D02*
X2645000Y-5345000D01*
X3645000Y-10505000D02*
X3645000Y-9895000D01*
X4945000Y-10505000D02*
X4945000Y-9895000D01*
X3645000Y-2385000D02*
X3645000Y-2995000D01*
X4945000Y-2385000D02*
X4945000Y-2995000D01*
X5645000Y-7945000D02*
X6255000Y-7945000D01*
X5645000Y-9895000D02*
X5645000Y-7945000D01*
X2145000Y-9895000D02*
X5645000Y-9895000D01*
X2145000Y-2995000D02*
X2145000Y-9895000D01*
X5645000Y-2995000D02*
X2145000Y-2995000D01*
X5645000Y-4945000D02*
X5645000Y-2995000D01*
X6255000Y-4945000D02*
X5645000Y-4945000D01*
X6355000Y-4145000D02*
X6355000Y-3845000D01*
X6455000Y-3845000D02*
X6255000Y-3845000D01*
X6455000Y-4145000D02*
X6455000Y-3845000D01*
X6255000Y-4145000D02*
X6455000Y-4145000D01*
X6255000Y-10505000D02*
X6255000Y-2385000D01*
X1535000Y-10505000D02*
X6255000Y-10505000D01*
X1535000Y-2385000D02*
X1535000Y-10505000D01*
X6255000Y-2385000D02*
X1535000Y-2385000D01*
G04 #@! TO.C,J6*
X1065000Y-23569000D02*
X2315000Y-23569000D01*
X1065000Y-22319000D02*
X1065000Y-23569000D01*
X5475000Y-16209000D02*
X4975000Y-16209000D01*
X4975000Y-16109000D02*
X5475000Y-16109000D01*
X4975000Y-16309000D02*
X4975000Y-16109000D01*
X5475000Y-16309000D02*
X4975000Y-16309000D01*
X5475000Y-18209000D02*
X4975000Y-18209000D01*
X4975000Y-18109000D02*
X5475000Y-18109000D01*
X4975000Y-18309000D02*
X4975000Y-18109000D01*
X5475000Y-18309000D02*
X4975000Y-18309000D01*
X5475000Y-20209000D02*
X4975000Y-20209000D01*
X4975000Y-20109000D02*
X5475000Y-20109000D01*
X4975000Y-20309000D02*
X4975000Y-20109000D01*
X5475000Y-20309000D02*
X4975000Y-20309000D01*
X3975000Y-13149000D02*
X3975000Y-13759000D01*
X2675000Y-13149000D02*
X2675000Y-13759000D01*
X3975000Y-23269000D02*
X3975000Y-22659000D01*
X2675000Y-23269000D02*
X2675000Y-22659000D01*
X1975000Y-15709000D02*
X1365000Y-15709000D01*
X1975000Y-13759000D02*
X1975000Y-15709000D01*
X5475000Y-13759000D02*
X1975000Y-13759000D01*
X5475000Y-22659000D02*
X5475000Y-13759000D01*
X1975000Y-22659000D02*
X5475000Y-22659000D01*
X1975000Y-20709000D02*
X1975000Y-22659000D01*
X1365000Y-20709000D02*
X1975000Y-20709000D01*
X1265000Y-21509000D02*
X1265000Y-21809000D01*
X1165000Y-21809000D02*
X1365000Y-21809000D01*
X1165000Y-21509000D02*
X1165000Y-21809000D01*
X1365000Y-21509000D02*
X1165000Y-21509000D01*
X1365000Y-13149000D02*
X1365000Y-23269000D01*
X6085000Y-13149000D02*
X1365000Y-13149000D01*
X6085000Y-23269000D02*
X6085000Y-13149000D01*
X1365000Y-23269000D02*
X6085000Y-23269000D01*
G04 #@! TO.C,J7*
X1111000Y-34699000D02*
X5831000Y-34699000D01*
X5831000Y-34699000D02*
X5831000Y-24579000D01*
X5831000Y-24579000D02*
X1111000Y-24579000D01*
X1111000Y-24579000D02*
X1111000Y-34699000D01*
X1111000Y-32939000D02*
X911000Y-32939000D01*
X911000Y-32939000D02*
X911000Y-33239000D01*
X911000Y-33239000D02*
X1111000Y-33239000D01*
X1011000Y-32939000D02*
X1011000Y-33239000D01*
X1111000Y-32139000D02*
X1721000Y-32139000D01*
X1721000Y-32139000D02*
X1721000Y-34089000D01*
X1721000Y-34089000D02*
X5221000Y-34089000D01*
X5221000Y-34089000D02*
X5221000Y-25189000D01*
X5221000Y-25189000D02*
X1721000Y-25189000D01*
X1721000Y-25189000D02*
X1721000Y-27139000D01*
X1721000Y-27139000D02*
X1111000Y-27139000D01*
X2421000Y-34699000D02*
X2421000Y-34089000D01*
X3721000Y-34699000D02*
X3721000Y-34089000D01*
X2421000Y-24579000D02*
X2421000Y-25189000D01*
X3721000Y-24579000D02*
X3721000Y-25189000D01*
X5221000Y-31739000D02*
X4721000Y-31739000D01*
X4721000Y-31739000D02*
X4721000Y-31539000D01*
X4721000Y-31539000D02*
X5221000Y-31539000D01*
X5221000Y-31639000D02*
X4721000Y-31639000D01*
X5221000Y-29739000D02*
X4721000Y-29739000D01*
X4721000Y-29739000D02*
X4721000Y-29539000D01*
X4721000Y-29539000D02*
X5221000Y-29539000D01*
X5221000Y-29639000D02*
X4721000Y-29639000D01*
X5221000Y-27739000D02*
X4721000Y-27739000D01*
X4721000Y-27739000D02*
X4721000Y-27539000D01*
X4721000Y-27539000D02*
X5221000Y-27539000D01*
X5221000Y-27639000D02*
X4721000Y-27639000D01*
X811000Y-33749000D02*
X811000Y-34999000D01*
X811000Y-34999000D02*
X2061000Y-34999000D01*
G04 #@! TO.C,J2*
X32706000Y-6918000D02*
X35366000Y-6918000D01*
X32706000Y-4318000D02*
X32706000Y-6918000D01*
X35366000Y-4318000D02*
X35366000Y-6918000D01*
X32706000Y-4318000D02*
X35366000Y-4318000D01*
X32706000Y-3048000D02*
X32706000Y-1718000D01*
X32706000Y-1718000D02*
X34036000Y-1718000D01*
G04 #@! TO.C,U6*
X4378000Y-40326000D02*
X1718000Y-40326000D01*
X4378000Y-48006000D02*
X4378000Y-40326000D01*
X1718000Y-48006000D02*
X1718000Y-40326000D01*
X4378000Y-48006000D02*
X1718000Y-48006000D01*
X4378000Y-49276000D02*
X4378000Y-50606000D01*
X4378000Y-50606000D02*
X3048000Y-50606000D01*
G04 #@! TO.C,J1*
X7560000Y-36128000D02*
X12760000Y-36128000D01*
X7560000Y-30988000D02*
X7560000Y-36128000D01*
X12760000Y-28388000D02*
X12760000Y-36128000D01*
X7560000Y-30988000D02*
X10160000Y-30988000D01*
X10160000Y-30988000D02*
X10160000Y-28388000D01*
X10160000Y-28388000D02*
X12760000Y-28388000D01*
X7560000Y-29718000D02*
X7560000Y-28388000D01*
X7560000Y-28388000D02*
X8890000Y-28388000D01*
G04 #@! TO.C,D1*
X27698500Y-19077000D02*
X25413500Y-19077000D01*
X25413500Y-19077000D02*
X25413500Y-20547000D01*
X25413500Y-20547000D02*
X27698500Y-20547000D01*
G04 #@! TO.C,D3*
X30036500Y-16229000D02*
X32321500Y-16229000D01*
X30036500Y-14759000D02*
X30036500Y-16229000D01*
X32321500Y-14759000D02*
X30036500Y-14759000D01*
G04 #@! TO.C,D7*
X35572500Y-54891000D02*
X33287500Y-54891000D01*
X33287500Y-54891000D02*
X33287500Y-56361000D01*
X33287500Y-56361000D02*
X35572500Y-56361000D01*
D12*
G04 #@! TO.C,U1*
X26485000Y-28125000D02*
X26260000Y-28125000D01*
X26485000Y-35375000D02*
X26160000Y-35375000D01*
X19235000Y-35375000D02*
X19560000Y-35375000D01*
X19235000Y-28125000D02*
X19560000Y-28125000D01*
X26485000Y-28125000D02*
X26485000Y-28450000D01*
X19235000Y-28125000D02*
X19235000Y-28450000D01*
X19235000Y-35375000D02*
X19235000Y-35050000D01*
X26485000Y-35375000D02*
X26485000Y-35050000D01*
X26260000Y-28125000D02*
X26260000Y-26700000D01*
D10*
G04 #@! TO.C,U3*
X30648000Y-11292000D02*
X30648000Y-13092000D01*
X33868000Y-13092000D02*
X33868000Y-10642000D01*
G04 #@! TO.C,R24*
X29529721Y-50548000D02*
X29855279Y-50548000D01*
X29529721Y-49528000D02*
X29855279Y-49528000D01*
G04 #@! TO.C,R18*
X32603221Y-35812000D02*
X32928779Y-35812000D01*
X32603221Y-36832000D02*
X32928779Y-36832000D01*
G04 #@! TO.C,R19*
X35304000Y-23332221D02*
X35304000Y-23657779D01*
X36324000Y-23332221D02*
X36324000Y-23657779D01*
G04 #@! TO.C,R20*
X9489221Y-7872000D02*
X9814779Y-7872000D01*
X9489221Y-8892000D02*
X9814779Y-8892000D01*
G04 #@! TO.C,R21*
X36002279Y-26922000D02*
X35676721Y-26922000D01*
X36002279Y-27942000D02*
X35676721Y-27942000D01*
G04 #@! TO.C,R22*
X13714000Y-41564779D02*
X13714000Y-41239221D01*
X14734000Y-41564779D02*
X14734000Y-41239221D01*
G04 #@! TO.C,R25*
X11174000Y-40959721D02*
X11174000Y-41285279D01*
X12194000Y-40959721D02*
X12194000Y-41285279D01*
G04 #@! TO.C,R1*
X27061279Y-22100000D02*
X26735721Y-22100000D01*
X27061279Y-21080000D02*
X26735721Y-21080000D01*
G04 #@! TO.C,R13*
X31358721Y-17782000D02*
X31684279Y-17782000D01*
X31358721Y-16762000D02*
X31684279Y-16762000D01*
G04 #@! TO.C,R11*
X30291721Y-30228000D02*
X30617279Y-30228000D01*
X30291721Y-29208000D02*
X30617279Y-29208000D01*
G04 #@! TO.C,R27*
X33365221Y-20318000D02*
X33690779Y-20318000D01*
X33365221Y-21338000D02*
X33690779Y-21338000D01*
G04 #@! TO.C,R5*
X30317221Y-30986000D02*
X30642779Y-30986000D01*
X30317221Y-32006000D02*
X30642779Y-32006000D01*
G04 #@! TO.C,R4*
X24475221Y-14734000D02*
X24800779Y-14734000D01*
X24475221Y-13714000D02*
X24800779Y-13714000D01*
G04 #@! TO.C,R23*
X29783721Y-45210000D02*
X30109279Y-45210000D01*
X29783721Y-46230000D02*
X30109279Y-46230000D01*
G04 #@! TO.C,R12*
X31333221Y-55116000D02*
X31658779Y-55116000D01*
X31333221Y-56136000D02*
X31658779Y-56136000D01*
D12*
G04 #@! TO.C,SW1*
X35220000Y-42142000D02*
X30648000Y-42142000D01*
X30648000Y-42142000D02*
X30648000Y-38586000D01*
X30648000Y-38586000D02*
X35220000Y-38586000D01*
X35220000Y-38586000D02*
X35220000Y-42142000D01*
G04 #@! TO.C,Q6*
X9036000Y-42848000D02*
G75*
G03X9036000Y-42848000I-100000J0D01*
G01*
X8386000Y-42598000D02*
X8886000Y-42598000D01*
X8386000Y-39698000D02*
X8386000Y-42598000D01*
X8886000Y-39698000D02*
X8386000Y-39698000D01*
X8886000Y-42598000D02*
X8886000Y-39698000D01*
G04 #@! TO.C,J3*
X11176000Y-730000D02*
X11176000Y-3524000D01*
X11176000Y-3524000D02*
X20320000Y-3524000D01*
X20320000Y-3524000D02*
X20320000Y-730000D01*
X20320000Y-730000D02*
X11176000Y-730000D01*
G04 #@! TO.C,R3*
X36393380Y-7405666D02*
X35917190Y-7739000D01*
X36393380Y-7977095D02*
X35393380Y-7977095D01*
X35393380Y-7596142D01*
X35441000Y-7500904D01*
X35488619Y-7453285D01*
X35583857Y-7405666D01*
X35726714Y-7405666D01*
X35821952Y-7453285D01*
X35869571Y-7500904D01*
X35917190Y-7596142D01*
X35917190Y-7977095D01*
X35393380Y-7072333D02*
X35393380Y-6453285D01*
X35774333Y-6786619D01*
X35774333Y-6643761D01*
X35821952Y-6548523D01*
X35869571Y-6500904D01*
X35964809Y-6453285D01*
X36202904Y-6453285D01*
X36298142Y-6500904D01*
X36345761Y-6548523D01*
X36393380Y-6643761D01*
X36393380Y-6929476D01*
X36345761Y-7024714D01*
X36298142Y-7072333D01*
G04 #@! TO.C,Q1*
X22002761Y-7786619D02*
X21907523Y-7739000D01*
X21812285Y-7643761D01*
X21669428Y-7500904D01*
X21574190Y-7453285D01*
X21478952Y-7453285D01*
X21526571Y-7691380D02*
X21431333Y-7643761D01*
X21336095Y-7548523D01*
X21288476Y-7358047D01*
X21288476Y-7024714D01*
X21336095Y-6834238D01*
X21431333Y-6739000D01*
X21526571Y-6691380D01*
X21717047Y-6691380D01*
X21812285Y-6739000D01*
X21907523Y-6834238D01*
X21955142Y-7024714D01*
X21955142Y-7358047D01*
X21907523Y-7548523D01*
X21812285Y-7643761D01*
X21717047Y-7691380D01*
X21526571Y-7691380D01*
X22907523Y-7691380D02*
X22336095Y-7691380D01*
X22621809Y-7691380D02*
X22621809Y-6691380D01*
X22526571Y-6834238D01*
X22431333Y-6929476D01*
X22336095Y-6977095D01*
G04 #@! TO.C,Q3*
X29622761Y-24677619D02*
X29527523Y-24630000D01*
X29432285Y-24534761D01*
X29289428Y-24391904D01*
X29194190Y-24344285D01*
X29098952Y-24344285D01*
X29146571Y-24582380D02*
X29051333Y-24534761D01*
X28956095Y-24439523D01*
X28908476Y-24249047D01*
X28908476Y-23915714D01*
X28956095Y-23725238D01*
X29051333Y-23630000D01*
X29146571Y-23582380D01*
X29337047Y-23582380D01*
X29432285Y-23630000D01*
X29527523Y-23725238D01*
X29575142Y-23915714D01*
X29575142Y-24249047D01*
X29527523Y-24439523D01*
X29432285Y-24534761D01*
X29337047Y-24582380D01*
X29146571Y-24582380D01*
X29908476Y-23582380D02*
X30527523Y-23582380D01*
X30194190Y-23963333D01*
X30337047Y-23963333D01*
X30432285Y-24010952D01*
X30479904Y-24058571D01*
X30527523Y-24153809D01*
X30527523Y-24391904D01*
X30479904Y-24487142D01*
X30432285Y-24534761D01*
X30337047Y-24582380D01*
X30051333Y-24582380D01*
X29956095Y-24534761D01*
X29908476Y-24487142D01*
G04 #@! TO.C,Q2*
X21113761Y-11382619D02*
X21018523Y-11335000D01*
X20923285Y-11239761D01*
X20780428Y-11096904D01*
X20685190Y-11049285D01*
X20589952Y-11049285D01*
X20637571Y-11287380D02*
X20542333Y-11239761D01*
X20447095Y-11144523D01*
X20399476Y-10954047D01*
X20399476Y-10620714D01*
X20447095Y-10430238D01*
X20542333Y-10335000D01*
X20637571Y-10287380D01*
X20828047Y-10287380D01*
X20923285Y-10335000D01*
X21018523Y-10430238D01*
X21066142Y-10620714D01*
X21066142Y-10954047D01*
X21018523Y-11144523D01*
X20923285Y-11239761D01*
X20828047Y-11287380D01*
X20637571Y-11287380D01*
X21447095Y-10382619D02*
X21494714Y-10335000D01*
X21589952Y-10287380D01*
X21828047Y-10287380D01*
X21923285Y-10335000D01*
X21970904Y-10382619D01*
X22018523Y-10477857D01*
X22018523Y-10573095D01*
X21970904Y-10715952D01*
X21399476Y-11287380D01*
X22018523Y-11287380D01*
G04 #@! TO.C,R6*
X20026333Y-7658380D02*
X19693000Y-7182190D01*
X19454904Y-7658380D02*
X19454904Y-6658380D01*
X19835857Y-6658380D01*
X19931095Y-6706000D01*
X19978714Y-6753619D01*
X20026333Y-6848857D01*
X20026333Y-6991714D01*
X19978714Y-7086952D01*
X19931095Y-7134571D01*
X19835857Y-7182190D01*
X19454904Y-7182190D01*
X20883476Y-6658380D02*
X20693000Y-6658380D01*
X20597761Y-6706000D01*
X20550142Y-6753619D01*
X20454904Y-6896476D01*
X20407285Y-7086952D01*
X20407285Y-7467904D01*
X20454904Y-7563142D01*
X20502523Y-7610761D01*
X20597761Y-7658380D01*
X20788238Y-7658380D01*
X20883476Y-7610761D01*
X20931095Y-7563142D01*
X20978714Y-7467904D01*
X20978714Y-7229809D01*
X20931095Y-7134571D01*
X20883476Y-7086952D01*
X20788238Y-7039333D01*
X20597761Y-7039333D01*
X20502523Y-7086952D01*
X20454904Y-7134571D01*
X20407285Y-7229809D01*
G04 #@! TO.C,C18*
X15945142Y-51976357D02*
X15992761Y-52023976D01*
X16040380Y-52166833D01*
X16040380Y-52262071D01*
X15992761Y-52404928D01*
X15897523Y-52500166D01*
X15802285Y-52547785D01*
X15611809Y-52595404D01*
X15468952Y-52595404D01*
X15278476Y-52547785D01*
X15183238Y-52500166D01*
X15088000Y-52404928D01*
X15040380Y-52262071D01*
X15040380Y-52166833D01*
X15088000Y-52023976D01*
X15135619Y-51976357D01*
X16040380Y-51023976D02*
X16040380Y-51595404D01*
X16040380Y-51309690D02*
X15040380Y-51309690D01*
X15183238Y-51404928D01*
X15278476Y-51500166D01*
X15326095Y-51595404D01*
X15468952Y-50452547D02*
X15421333Y-50547785D01*
X15373714Y-50595404D01*
X15278476Y-50643023D01*
X15230857Y-50643023D01*
X15135619Y-50595404D01*
X15088000Y-50547785D01*
X15040380Y-50452547D01*
X15040380Y-50262071D01*
X15088000Y-50166833D01*
X15135619Y-50119214D01*
X15230857Y-50071595D01*
X15278476Y-50071595D01*
X15373714Y-50119214D01*
X15421333Y-50166833D01*
X15468952Y-50262071D01*
X15468952Y-50452547D01*
X15516571Y-50547785D01*
X15564190Y-50595404D01*
X15659428Y-50643023D01*
X15849904Y-50643023D01*
X15945142Y-50595404D01*
X15992761Y-50547785D01*
X16040380Y-50452547D01*
X16040380Y-50262071D01*
X15992761Y-50166833D01*
X15945142Y-50119214D01*
X15849904Y-50071595D01*
X15659428Y-50071595D01*
X15564190Y-50119214D01*
X15516571Y-50166833D01*
X15468952Y-50262071D01*
G04 #@! TO.C,C9*
X35917142Y-15914666D02*
X35964761Y-15962285D01*
X36012380Y-16105142D01*
X36012380Y-16200380D01*
X35964761Y-16343238D01*
X35869523Y-16438476D01*
X35774285Y-16486095D01*
X35583809Y-16533714D01*
X35440952Y-16533714D01*
X35250476Y-16486095D01*
X35155238Y-16438476D01*
X35060000Y-16343238D01*
X35012380Y-16200380D01*
X35012380Y-16105142D01*
X35060000Y-15962285D01*
X35107619Y-15914666D01*
X36012380Y-15438476D02*
X36012380Y-15248000D01*
X35964761Y-15152761D01*
X35917142Y-15105142D01*
X35774285Y-15009904D01*
X35583809Y-14962285D01*
X35202857Y-14962285D01*
X35107619Y-15009904D01*
X35060000Y-15057523D01*
X35012380Y-15152761D01*
X35012380Y-15343238D01*
X35060000Y-15438476D01*
X35107619Y-15486095D01*
X35202857Y-15533714D01*
X35440952Y-15533714D01*
X35536190Y-15486095D01*
X35583809Y-15438476D01*
X35631428Y-15343238D01*
X35631428Y-15152761D01*
X35583809Y-15057523D01*
X35536190Y-15009904D01*
X35440952Y-14962285D01*
G04 #@! TO.C,C17*
X38203142Y-17152857D02*
X38250761Y-17200476D01*
X38298380Y-17343333D01*
X38298380Y-17438571D01*
X38250761Y-17581428D01*
X38155523Y-17676666D01*
X38060285Y-17724285D01*
X37869809Y-17771904D01*
X37726952Y-17771904D01*
X37536476Y-17724285D01*
X37441238Y-17676666D01*
X37346000Y-17581428D01*
X37298380Y-17438571D01*
X37298380Y-17343333D01*
X37346000Y-17200476D01*
X37393619Y-17152857D01*
X38298380Y-16200476D02*
X38298380Y-16771904D01*
X38298380Y-16486190D02*
X37298380Y-16486190D01*
X37441238Y-16581428D01*
X37536476Y-16676666D01*
X37584095Y-16771904D01*
X37298380Y-15867142D02*
X37298380Y-15200476D01*
X38298380Y-15629047D01*
G04 #@! TO.C,C8*
X37187142Y-1436666D02*
X37234761Y-1484285D01*
X37282380Y-1627142D01*
X37282380Y-1722380D01*
X37234761Y-1865238D01*
X37139523Y-1960476D01*
X37044285Y-2008095D01*
X36853809Y-2055714D01*
X36710952Y-2055714D01*
X36520476Y-2008095D01*
X36425238Y-1960476D01*
X36330000Y-1865238D01*
X36282380Y-1722380D01*
X36282380Y-1627142D01*
X36330000Y-1484285D01*
X36377619Y-1436666D01*
X36710952Y-865238D02*
X36663333Y-960476D01*
X36615714Y-1008095D01*
X36520476Y-1055714D01*
X36472857Y-1055714D01*
X36377619Y-1008095D01*
X36330000Y-960476D01*
X36282380Y-865238D01*
X36282380Y-674761D01*
X36330000Y-579523D01*
X36377619Y-531904D01*
X36472857Y-484285D01*
X36520476Y-484285D01*
X36615714Y-531904D01*
X36663333Y-579523D01*
X36710952Y-674761D01*
X36710952Y-865238D01*
X36758571Y-960476D01*
X36806190Y-1008095D01*
X36901428Y-1055714D01*
X37091904Y-1055714D01*
X37187142Y-1008095D01*
X37234761Y-960476D01*
X37282380Y-865238D01*
X37282380Y-674761D01*
X37234761Y-579523D01*
X37187142Y-531904D01*
X37091904Y-484285D01*
X36901428Y-484285D01*
X36806190Y-531904D01*
X36758571Y-579523D01*
X36710952Y-674761D01*
G04 #@! TO.C,U8*
X17276380Y-56133904D02*
X18085904Y-56133904D01*
X18181142Y-56086285D01*
X18228761Y-56038666D01*
X18276380Y-55943428D01*
X18276380Y-55752952D01*
X18228761Y-55657714D01*
X18181142Y-55610095D01*
X18085904Y-55562476D01*
X17276380Y-55562476D01*
X17704952Y-54943428D02*
X17657333Y-55038666D01*
X17609714Y-55086285D01*
X17514476Y-55133904D01*
X17466857Y-55133904D01*
X17371619Y-55086285D01*
X17324000Y-55038666D01*
X17276380Y-54943428D01*
X17276380Y-54752952D01*
X17324000Y-54657714D01*
X17371619Y-54610095D01*
X17466857Y-54562476D01*
X17514476Y-54562476D01*
X17609714Y-54610095D01*
X17657333Y-54657714D01*
X17704952Y-54752952D01*
X17704952Y-54943428D01*
X17752571Y-55038666D01*
X17800190Y-55086285D01*
X17895428Y-55133904D01*
X18085904Y-55133904D01*
X18181142Y-55086285D01*
X18228761Y-55038666D01*
X18276380Y-54943428D01*
X18276380Y-54752952D01*
X18228761Y-54657714D01*
X18181142Y-54610095D01*
X18085904Y-54562476D01*
X17895428Y-54562476D01*
X17800190Y-54610095D01*
X17752571Y-54657714D01*
X17704952Y-54752952D01*
G04 #@! TO.C,U5*
X37552380Y-7365904D02*
X38361904Y-7365904D01*
X38457142Y-7318285D01*
X38504761Y-7270666D01*
X38552380Y-7175428D01*
X38552380Y-6984952D01*
X38504761Y-6889714D01*
X38457142Y-6842095D01*
X38361904Y-6794476D01*
X37552380Y-6794476D01*
X37552380Y-5842095D02*
X37552380Y-6318285D01*
X38028571Y-6365904D01*
X37980952Y-6318285D01*
X37933333Y-6223047D01*
X37933333Y-5984952D01*
X37980952Y-5889714D01*
X38028571Y-5842095D01*
X38123809Y-5794476D01*
X38361904Y-5794476D01*
X38457142Y-5842095D01*
X38504761Y-5889714D01*
X38552380Y-5984952D01*
X38552380Y-6223047D01*
X38504761Y-6318285D01*
X38457142Y-6365904D01*
G04 #@! TO.C,Y1*
X17811809Y-24106190D02*
X17811809Y-24582380D01*
X17478476Y-23582380D02*
X17811809Y-24106190D01*
X18145142Y-23582380D01*
X19002285Y-24582380D02*
X18430857Y-24582380D01*
X18716571Y-24582380D02*
X18716571Y-23582380D01*
X18621333Y-23725238D01*
X18526095Y-23820476D01*
X18430857Y-23868095D01*
G04 #@! TO.C,U4*
X29657380Y-5249904D02*
X30466904Y-5249904D01*
X30562142Y-5202285D01*
X30609761Y-5154666D01*
X30657380Y-5059428D01*
X30657380Y-4868952D01*
X30609761Y-4773714D01*
X30562142Y-4726095D01*
X30466904Y-4678476D01*
X29657380Y-4678476D01*
X29990714Y-3773714D02*
X30657380Y-3773714D01*
X29609761Y-4011809D02*
X30324047Y-4249904D01*
X30324047Y-3630857D01*
G04 #@! TO.C,R2*
X22381380Y-4614666D02*
X21905190Y-4948000D01*
X22381380Y-5186095D02*
X21381380Y-5186095D01*
X21381380Y-4805142D01*
X21429000Y-4709904D01*
X21476619Y-4662285D01*
X21571857Y-4614666D01*
X21714714Y-4614666D01*
X21809952Y-4662285D01*
X21857571Y-4709904D01*
X21905190Y-4805142D01*
X21905190Y-5186095D01*
X21476619Y-4233714D02*
X21429000Y-4186095D01*
X21381380Y-4090857D01*
X21381380Y-3852761D01*
X21429000Y-3757523D01*
X21476619Y-3709904D01*
X21571857Y-3662285D01*
X21667095Y-3662285D01*
X21809952Y-3709904D01*
X22381380Y-4281333D01*
X22381380Y-3662285D01*
G04 #@! TO.C,J4*
D11*
X23201333Y-54844190D02*
X23201333Y-55201333D01*
X23177523Y-55272761D01*
X23129904Y-55320380D01*
X23058476Y-55344190D01*
X23010857Y-55344190D01*
X23653714Y-55010857D02*
X23653714Y-55344190D01*
X23534666Y-54820380D02*
X23415619Y-55177523D01*
X23725142Y-55177523D01*
G04 #@! TO.C,C1*
D12*
X25487333Y-26011142D02*
X25439714Y-26058761D01*
X25296857Y-26106380D01*
X25201619Y-26106380D01*
X25058761Y-26058761D01*
X24963523Y-25963523D01*
X24915904Y-25868285D01*
X24868285Y-25677809D01*
X24868285Y-25534952D01*
X24915904Y-25344476D01*
X24963523Y-25249238D01*
X25058761Y-25154000D01*
X25201619Y-25106380D01*
X25296857Y-25106380D01*
X25439714Y-25154000D01*
X25487333Y-25201619D01*
X26439714Y-26106380D02*
X25868285Y-26106380D01*
X26154000Y-26106380D02*
X26154000Y-25106380D01*
X26058761Y-25249238D01*
X25963523Y-25344476D01*
X25868285Y-25392095D01*
G04 #@! TO.C,C14*
X1643142Y-37949142D02*
X1595523Y-37996761D01*
X1452666Y-38044380D01*
X1357428Y-38044380D01*
X1214571Y-37996761D01*
X1119333Y-37901523D01*
X1071714Y-37806285D01*
X1024095Y-37615809D01*
X1024095Y-37472952D01*
X1071714Y-37282476D01*
X1119333Y-37187238D01*
X1214571Y-37092000D01*
X1357428Y-37044380D01*
X1452666Y-37044380D01*
X1595523Y-37092000D01*
X1643142Y-37139619D01*
X2595523Y-38044380D02*
X2024095Y-38044380D01*
X2309809Y-38044380D02*
X2309809Y-37044380D01*
X2214571Y-37187238D01*
X2119333Y-37282476D01*
X2024095Y-37330095D01*
X3452666Y-37377714D02*
X3452666Y-38044380D01*
X3214571Y-36996761D02*
X2976476Y-37711047D01*
X3595523Y-37711047D01*
G04 #@! TO.C,C13*
X1389142Y-36425142D02*
X1341523Y-36472761D01*
X1198666Y-36520380D01*
X1103428Y-36520380D01*
X960571Y-36472761D01*
X865333Y-36377523D01*
X817714Y-36282285D01*
X770095Y-36091809D01*
X770095Y-35948952D01*
X817714Y-35758476D01*
X865333Y-35663238D01*
X960571Y-35568000D01*
X1103428Y-35520380D01*
X1198666Y-35520380D01*
X1341523Y-35568000D01*
X1389142Y-35615619D01*
X2341523Y-36520380D02*
X1770095Y-36520380D01*
X2055809Y-36520380D02*
X2055809Y-35520380D01*
X1960571Y-35663238D01*
X1865333Y-35758476D01*
X1770095Y-35806095D01*
X2674857Y-35520380D02*
X3293904Y-35520380D01*
X2960571Y-35901333D01*
X3103428Y-35901333D01*
X3198666Y-35948952D01*
X3246285Y-35996571D01*
X3293904Y-36091809D01*
X3293904Y-36329904D01*
X3246285Y-36425142D01*
X3198666Y-36472761D01*
X3103428Y-36520380D01*
X2817714Y-36520380D01*
X2722476Y-36472761D01*
X2674857Y-36425142D01*
G04 #@! TO.C,C10*
X10660142Y-23344142D02*
X10612523Y-23391761D01*
X10469666Y-23439380D01*
X10374428Y-23439380D01*
X10231571Y-23391761D01*
X10136333Y-23296523D01*
X10088714Y-23201285D01*
X10041095Y-23010809D01*
X10041095Y-22867952D01*
X10088714Y-22677476D01*
X10136333Y-22582238D01*
X10231571Y-22487000D01*
X10374428Y-22439380D01*
X10469666Y-22439380D01*
X10612523Y-22487000D01*
X10660142Y-22534619D01*
X11612523Y-23439380D02*
X11041095Y-23439380D01*
X11326809Y-23439380D02*
X11326809Y-22439380D01*
X11231571Y-22582238D01*
X11136333Y-22677476D01*
X11041095Y-22725095D01*
X12231571Y-22439380D02*
X12326809Y-22439380D01*
X12422047Y-22487000D01*
X12469666Y-22534619D01*
X12517285Y-22629857D01*
X12564904Y-22820333D01*
X12564904Y-23058428D01*
X12517285Y-23248904D01*
X12469666Y-23344142D01*
X12422047Y-23391761D01*
X12326809Y-23439380D01*
X12231571Y-23439380D01*
X12136333Y-23391761D01*
X12088714Y-23344142D01*
X12041095Y-23248904D01*
X11993476Y-23058428D01*
X11993476Y-22820333D01*
X12041095Y-22629857D01*
X12088714Y-22534619D01*
X12136333Y-22487000D01*
X12231571Y-22439380D01*
G04 #@! TO.C,C7*
X10628333Y-21820142D02*
X10580714Y-21867761D01*
X10437857Y-21915380D01*
X10342619Y-21915380D01*
X10199761Y-21867761D01*
X10104523Y-21772523D01*
X10056904Y-21677285D01*
X10009285Y-21486809D01*
X10009285Y-21343952D01*
X10056904Y-21153476D01*
X10104523Y-21058238D01*
X10199761Y-20963000D01*
X10342619Y-20915380D01*
X10437857Y-20915380D01*
X10580714Y-20963000D01*
X10628333Y-21010619D01*
X10961666Y-20915380D02*
X11628333Y-20915380D01*
X11199761Y-21915380D01*
G04 #@! TO.C,C4*
X17359333Y-21185142D02*
X17311714Y-21232761D01*
X17168857Y-21280380D01*
X17073619Y-21280380D01*
X16930761Y-21232761D01*
X16835523Y-21137523D01*
X16787904Y-21042285D01*
X16740285Y-20851809D01*
X16740285Y-20708952D01*
X16787904Y-20518476D01*
X16835523Y-20423238D01*
X16930761Y-20328000D01*
X17073619Y-20280380D01*
X17168857Y-20280380D01*
X17311714Y-20328000D01*
X17359333Y-20375619D01*
X18216476Y-20613714D02*
X18216476Y-21280380D01*
X17978380Y-20232761D02*
X17740285Y-20947047D01*
X18359333Y-20947047D01*
G04 #@! TO.C,C3*
X23201333Y-21185142D02*
X23153714Y-21232761D01*
X23010857Y-21280380D01*
X22915619Y-21280380D01*
X22772761Y-21232761D01*
X22677523Y-21137523D01*
X22629904Y-21042285D01*
X22582285Y-20851809D01*
X22582285Y-20708952D01*
X22629904Y-20518476D01*
X22677523Y-20423238D01*
X22772761Y-20328000D01*
X22915619Y-20280380D01*
X23010857Y-20280380D01*
X23153714Y-20328000D01*
X23201333Y-20375619D01*
X23534666Y-20280380D02*
X24153714Y-20280380D01*
X23820380Y-20661333D01*
X23963238Y-20661333D01*
X24058476Y-20708952D01*
X24106095Y-20756571D01*
X24153714Y-20851809D01*
X24153714Y-21089904D01*
X24106095Y-21185142D01*
X24058476Y-21232761D01*
X23963238Y-21280380D01*
X23677523Y-21280380D01*
X23582285Y-21232761D01*
X23534666Y-21185142D01*
G04 #@! TO.C,C2*
X25487333Y-24233142D02*
X25439714Y-24280761D01*
X25296857Y-24328380D01*
X25201619Y-24328380D01*
X25058761Y-24280761D01*
X24963523Y-24185523D01*
X24915904Y-24090285D01*
X24868285Y-23899809D01*
X24868285Y-23756952D01*
X24915904Y-23566476D01*
X24963523Y-23471238D01*
X25058761Y-23376000D01*
X25201619Y-23328380D01*
X25296857Y-23328380D01*
X25439714Y-23376000D01*
X25487333Y-23423619D01*
X25868285Y-23423619D02*
X25915904Y-23376000D01*
X26011142Y-23328380D01*
X26249238Y-23328380D01*
X26344476Y-23376000D01*
X26392095Y-23423619D01*
X26439714Y-23518857D01*
X26439714Y-23614095D01*
X26392095Y-23756952D01*
X25820666Y-24328380D01*
X26439714Y-24328380D01*
G04 #@! TO.C,C5*
X29375833Y-9501142D02*
X29328214Y-9548761D01*
X29185357Y-9596380D01*
X29090119Y-9596380D01*
X28947261Y-9548761D01*
X28852023Y-9453523D01*
X28804404Y-9358285D01*
X28756785Y-9167809D01*
X28756785Y-9024952D01*
X28804404Y-8834476D01*
X28852023Y-8739238D01*
X28947261Y-8644000D01*
X29090119Y-8596380D01*
X29185357Y-8596380D01*
X29328214Y-8644000D01*
X29375833Y-8691619D01*
X30280595Y-8596380D02*
X29804404Y-8596380D01*
X29756785Y-9072571D01*
X29804404Y-9024952D01*
X29899642Y-8977333D01*
X30137738Y-8977333D01*
X30232976Y-9024952D01*
X30280595Y-9072571D01*
X30328214Y-9167809D01*
X30328214Y-9405904D01*
X30280595Y-9501142D01*
X30232976Y-9548761D01*
X30137738Y-9596380D01*
X29899642Y-9596380D01*
X29804404Y-9548761D01*
X29756785Y-9501142D01*
G04 #@! TO.C,J15*
X6556476Y-45045380D02*
X6556476Y-45759666D01*
X6508857Y-45902523D01*
X6413619Y-45997761D01*
X6270761Y-46045380D01*
X6175523Y-46045380D01*
X7556476Y-46045380D02*
X6985047Y-46045380D01*
X7270761Y-46045380D02*
X7270761Y-45045380D01*
X7175523Y-45188238D01*
X7080285Y-45283476D01*
X6985047Y-45331095D01*
X8461238Y-45045380D02*
X7985047Y-45045380D01*
X7937428Y-45521571D01*
X7985047Y-45473952D01*
X8080285Y-45426333D01*
X8318380Y-45426333D01*
X8413619Y-45473952D01*
X8461238Y-45521571D01*
X8508857Y-45616809D01*
X8508857Y-45854904D01*
X8461238Y-45950142D01*
X8413619Y-45997761D01*
X8318380Y-46045380D01*
X8080285Y-46045380D01*
X7985047Y-45997761D01*
X7937428Y-45950142D01*
G04 #@! TO.C,J12*
X22304476Y-48474380D02*
X22304476Y-49188666D01*
X22256857Y-49331523D01*
X22161619Y-49426761D01*
X22018761Y-49474380D01*
X21923523Y-49474380D01*
X23304476Y-49474380D02*
X22733047Y-49474380D01*
X23018761Y-49474380D02*
X23018761Y-48474380D01*
X22923523Y-48617238D01*
X22828285Y-48712476D01*
X22733047Y-48760095D01*
X23685428Y-48569619D02*
X23733047Y-48522000D01*
X23828285Y-48474380D01*
X24066380Y-48474380D01*
X24161619Y-48522000D01*
X24209238Y-48569619D01*
X24256857Y-48664857D01*
X24256857Y-48760095D01*
X24209238Y-48902952D01*
X23637809Y-49474380D01*
X24256857Y-49474380D01*
G04 #@! TO.C,J11*
X22304476Y-42378380D02*
X22304476Y-43092666D01*
X22256857Y-43235523D01*
X22161619Y-43330761D01*
X22018761Y-43378380D01*
X21923523Y-43378380D01*
X23304476Y-43378380D02*
X22733047Y-43378380D01*
X23018761Y-43378380D02*
X23018761Y-42378380D01*
X22923523Y-42521238D01*
X22828285Y-42616476D01*
X22733047Y-42664095D01*
X24256857Y-43378380D02*
X23685428Y-43378380D01*
X23971142Y-43378380D02*
X23971142Y-42378380D01*
X23875904Y-42521238D01*
X23780666Y-42616476D01*
X23685428Y-42664095D01*
G04 #@! TO.C,J14*
X6797380Y-7254523D02*
X7511666Y-7254523D01*
X7654523Y-7302142D01*
X7749761Y-7397380D01*
X7797380Y-7540238D01*
X7797380Y-7635476D01*
X7797380Y-6254523D02*
X7797380Y-6825952D01*
X7797380Y-6540238D02*
X6797380Y-6540238D01*
X6940238Y-6635476D01*
X7035476Y-6730714D01*
X7083095Y-6825952D01*
X7130714Y-5397380D02*
X7797380Y-5397380D01*
X6749761Y-5635476D02*
X7464047Y-5873571D01*
X7464047Y-5254523D01*
G04 #@! TO.C,J6*
X4913380Y-14938333D02*
X5627666Y-14938333D01*
X5770523Y-14985952D01*
X5865761Y-15081190D01*
X5913380Y-15224047D01*
X5913380Y-15319285D01*
X4913380Y-14033571D02*
X4913380Y-14224047D01*
X4961000Y-14319285D01*
X5008619Y-14366904D01*
X5151476Y-14462142D01*
X5341952Y-14509761D01*
X5722904Y-14509761D01*
X5818142Y-14462142D01*
X5865761Y-14414523D01*
X5913380Y-14319285D01*
X5913380Y-14128809D01*
X5865761Y-14033571D01*
X5818142Y-13985952D01*
X5722904Y-13938333D01*
X5484809Y-13938333D01*
X5389571Y-13985952D01*
X5341952Y-14033571D01*
X5294333Y-14128809D01*
X5294333Y-14319285D01*
X5341952Y-14414523D01*
X5389571Y-14462142D01*
X5484809Y-14509761D01*
G04 #@! TO.C,J7*
X4405380Y-26114333D02*
X5119666Y-26114333D01*
X5262523Y-26161952D01*
X5357761Y-26257190D01*
X5405380Y-26400047D01*
X5405380Y-26495285D01*
X4405380Y-25733380D02*
X4405380Y-25066714D01*
X5405380Y-25495285D01*
G04 #@! TO.C,J2*
X33702666Y-170380D02*
X33702666Y-884666D01*
X33655047Y-1027523D01*
X33559809Y-1122761D01*
X33416952Y-1170380D01*
X33321714Y-1170380D01*
X34131238Y-265619D02*
X34178857Y-218000D01*
X34274095Y-170380D01*
X34512190Y-170380D01*
X34607428Y-218000D01*
X34655047Y-265619D01*
X34702666Y-360857D01*
X34702666Y-456095D01*
X34655047Y-598952D01*
X34083619Y-1170380D01*
X34702666Y-1170380D01*
G04 #@! TO.C,U6*
X2286095Y-51058380D02*
X2286095Y-51867904D01*
X2333714Y-51963142D01*
X2381333Y-52010761D01*
X2476571Y-52058380D01*
X2667047Y-52058380D01*
X2762285Y-52010761D01*
X2809904Y-51963142D01*
X2857523Y-51867904D01*
X2857523Y-51058380D01*
X3762285Y-51058380D02*
X3571809Y-51058380D01*
X3476571Y-51106000D01*
X3428952Y-51153619D01*
X3333714Y-51296476D01*
X3286095Y-51486952D01*
X3286095Y-51867904D01*
X3333714Y-51963142D01*
X3381333Y-52010761D01*
X3476571Y-52058380D01*
X3667047Y-52058380D01*
X3762285Y-52010761D01*
X3809904Y-51963142D01*
X3857523Y-51867904D01*
X3857523Y-51629809D01*
X3809904Y-51534571D01*
X3762285Y-51486952D01*
X3667047Y-51439333D01*
X3476571Y-51439333D01*
X3381333Y-51486952D01*
X3333714Y-51534571D01*
X3286095Y-51629809D01*
G04 #@! TO.C,J1*
X9826666Y-26840380D02*
X9826666Y-27554666D01*
X9779047Y-27697523D01*
X9683809Y-27792761D01*
X9540952Y-27840380D01*
X9445714Y-27840380D01*
X10826666Y-27840380D02*
X10255238Y-27840380D01*
X10540952Y-27840380D02*
X10540952Y-26840380D01*
X10445714Y-26983238D01*
X10350476Y-27078476D01*
X10255238Y-27126095D01*
G04 #@! TO.C,D1*
X26160404Y-18834380D02*
X26160404Y-17834380D01*
X26398500Y-17834380D01*
X26541357Y-17882000D01*
X26636595Y-17977238D01*
X26684214Y-18072476D01*
X26731833Y-18262952D01*
X26731833Y-18405809D01*
X26684214Y-18596285D01*
X26636595Y-18691523D01*
X26541357Y-18786761D01*
X26398500Y-18834380D01*
X26160404Y-18834380D01*
X27684214Y-18834380D02*
X27112785Y-18834380D01*
X27398500Y-18834380D02*
X27398500Y-17834380D01*
X27303261Y-17977238D01*
X27208023Y-18072476D01*
X27112785Y-18120095D01*
G04 #@! TO.C,D3*
X27989404Y-15946380D02*
X27989404Y-14946380D01*
X28227500Y-14946380D01*
X28370357Y-14994000D01*
X28465595Y-15089238D01*
X28513214Y-15184476D01*
X28560833Y-15374952D01*
X28560833Y-15517809D01*
X28513214Y-15708285D01*
X28465595Y-15803523D01*
X28370357Y-15898761D01*
X28227500Y-15946380D01*
X27989404Y-15946380D01*
X28894166Y-14946380D02*
X29513214Y-14946380D01*
X29179880Y-15327333D01*
X29322738Y-15327333D01*
X29417976Y-15374952D01*
X29465595Y-15422571D01*
X29513214Y-15517809D01*
X29513214Y-15755904D01*
X29465595Y-15851142D01*
X29417976Y-15898761D01*
X29322738Y-15946380D01*
X29037023Y-15946380D01*
X28941785Y-15898761D01*
X28894166Y-15851142D01*
G04 #@! TO.C,D7*
X34034404Y-54648380D02*
X34034404Y-53648380D01*
X34272500Y-53648380D01*
X34415357Y-53696000D01*
X34510595Y-53791238D01*
X34558214Y-53886476D01*
X34605833Y-54076952D01*
X34605833Y-54219809D01*
X34558214Y-54410285D01*
X34510595Y-54505523D01*
X34415357Y-54600761D01*
X34272500Y-54648380D01*
X34034404Y-54648380D01*
X34939166Y-53648380D02*
X35605833Y-53648380D01*
X35177261Y-54648380D01*
G04 #@! TO.C,U1*
X24090380Y-33019904D02*
X24899904Y-33019904D01*
X24995142Y-32972285D01*
X25042761Y-32924666D01*
X25090380Y-32829428D01*
X25090380Y-32638952D01*
X25042761Y-32543714D01*
X24995142Y-32496095D01*
X24899904Y-32448476D01*
X24090380Y-32448476D01*
X25090380Y-31448476D02*
X25090380Y-32019904D01*
X25090380Y-31734190D02*
X24090380Y-31734190D01*
X24233238Y-31829428D01*
X24328476Y-31924666D01*
X24376095Y-32019904D01*
G04 #@! TO.C,U3*
X29043380Y-13334904D02*
X29852904Y-13334904D01*
X29948142Y-13287285D01*
X29995761Y-13239666D01*
X30043380Y-13144428D01*
X30043380Y-12953952D01*
X29995761Y-12858714D01*
X29948142Y-12811095D01*
X29852904Y-12763476D01*
X29043380Y-12763476D01*
X29043380Y-12382523D02*
X29043380Y-11763476D01*
X29424333Y-12096809D01*
X29424333Y-11953952D01*
X29471952Y-11858714D01*
X29519571Y-11811095D01*
X29614809Y-11763476D01*
X29852904Y-11763476D01*
X29948142Y-11811095D01*
X29995761Y-11858714D01*
X30043380Y-11953952D01*
X30043380Y-12239666D01*
X29995761Y-12334904D01*
X29948142Y-12382523D01*
G04 #@! TO.C,R24*
X29049642Y-49060380D02*
X28716309Y-48584190D01*
X28478214Y-49060380D02*
X28478214Y-48060380D01*
X28859166Y-48060380D01*
X28954404Y-48108000D01*
X29002023Y-48155619D01*
X29049642Y-48250857D01*
X29049642Y-48393714D01*
X29002023Y-48488952D01*
X28954404Y-48536571D01*
X28859166Y-48584190D01*
X28478214Y-48584190D01*
X29430595Y-48155619D02*
X29478214Y-48108000D01*
X29573452Y-48060380D01*
X29811547Y-48060380D01*
X29906785Y-48108000D01*
X29954404Y-48155619D01*
X30002023Y-48250857D01*
X30002023Y-48346095D01*
X29954404Y-48488952D01*
X29382976Y-49060380D01*
X30002023Y-49060380D01*
X30859166Y-48393714D02*
X30859166Y-49060380D01*
X30621071Y-48012761D02*
X30382976Y-48727047D01*
X31002023Y-48727047D01*
G04 #@! TO.C,R18*
X32377142Y-35250380D02*
X32043809Y-34774190D01*
X31805714Y-35250380D02*
X31805714Y-34250380D01*
X32186666Y-34250380D01*
X32281904Y-34298000D01*
X32329523Y-34345619D01*
X32377142Y-34440857D01*
X32377142Y-34583714D01*
X32329523Y-34678952D01*
X32281904Y-34726571D01*
X32186666Y-34774190D01*
X31805714Y-34774190D01*
X33329523Y-35250380D02*
X32758095Y-35250380D01*
X33043809Y-35250380D02*
X33043809Y-34250380D01*
X32948571Y-34393238D01*
X32853333Y-34488476D01*
X32758095Y-34536095D01*
X33900952Y-34678952D02*
X33805714Y-34631333D01*
X33758095Y-34583714D01*
X33710476Y-34488476D01*
X33710476Y-34440857D01*
X33758095Y-34345619D01*
X33805714Y-34298000D01*
X33900952Y-34250380D01*
X34091428Y-34250380D01*
X34186666Y-34298000D01*
X34234285Y-34345619D01*
X34281904Y-34440857D01*
X34281904Y-34488476D01*
X34234285Y-34583714D01*
X34186666Y-34631333D01*
X34091428Y-34678952D01*
X33900952Y-34678952D01*
X33805714Y-34726571D01*
X33758095Y-34774190D01*
X33710476Y-34869428D01*
X33710476Y-35059904D01*
X33758095Y-35155142D01*
X33805714Y-35202761D01*
X33900952Y-35250380D01*
X34091428Y-35250380D01*
X34186666Y-35202761D01*
X34234285Y-35155142D01*
X34281904Y-35059904D01*
X34281904Y-34869428D01*
X34234285Y-34774190D01*
X34186666Y-34726571D01*
X34091428Y-34678952D01*
G04 #@! TO.C,R19*
X34917142Y-21686880D02*
X34583809Y-21210690D01*
X34345714Y-21686880D02*
X34345714Y-20686880D01*
X34726666Y-20686880D01*
X34821904Y-20734500D01*
X34869523Y-20782119D01*
X34917142Y-20877357D01*
X34917142Y-21020214D01*
X34869523Y-21115452D01*
X34821904Y-21163071D01*
X34726666Y-21210690D01*
X34345714Y-21210690D01*
X35869523Y-21686880D02*
X35298095Y-21686880D01*
X35583809Y-21686880D02*
X35583809Y-20686880D01*
X35488571Y-20829738D01*
X35393333Y-20924976D01*
X35298095Y-20972595D01*
X36345714Y-21686880D02*
X36536190Y-21686880D01*
X36631428Y-21639261D01*
X36679047Y-21591642D01*
X36774285Y-21448785D01*
X36821904Y-21258309D01*
X36821904Y-20877357D01*
X36774285Y-20782119D01*
X36726666Y-20734500D01*
X36631428Y-20686880D01*
X36440952Y-20686880D01*
X36345714Y-20734500D01*
X36298095Y-20782119D01*
X36250476Y-20877357D01*
X36250476Y-21115452D01*
X36298095Y-21210690D01*
X36345714Y-21258309D01*
X36440952Y-21305928D01*
X36631428Y-21305928D01*
X36726666Y-21258309D01*
X36774285Y-21210690D01*
X36821904Y-21115452D01*
G04 #@! TO.C,R20*
X9009142Y-7404380D02*
X8675809Y-6928190D01*
X8437714Y-7404380D02*
X8437714Y-6404380D01*
X8818666Y-6404380D01*
X8913904Y-6452000D01*
X8961523Y-6499619D01*
X9009142Y-6594857D01*
X9009142Y-6737714D01*
X8961523Y-6832952D01*
X8913904Y-6880571D01*
X8818666Y-6928190D01*
X8437714Y-6928190D01*
X9390095Y-6499619D02*
X9437714Y-6452000D01*
X9532952Y-6404380D01*
X9771047Y-6404380D01*
X9866285Y-6452000D01*
X9913904Y-6499619D01*
X9961523Y-6594857D01*
X9961523Y-6690095D01*
X9913904Y-6832952D01*
X9342476Y-7404380D01*
X9961523Y-7404380D01*
X10580571Y-6404380D02*
X10675809Y-6404380D01*
X10771047Y-6452000D01*
X10818666Y-6499619D01*
X10866285Y-6594857D01*
X10913904Y-6785333D01*
X10913904Y-7023428D01*
X10866285Y-7213904D01*
X10818666Y-7309142D01*
X10771047Y-7356761D01*
X10675809Y-7404380D01*
X10580571Y-7404380D01*
X10485333Y-7356761D01*
X10437714Y-7309142D01*
X10390095Y-7213904D01*
X10342476Y-7023428D01*
X10342476Y-6785333D01*
X10390095Y-6594857D01*
X10437714Y-6499619D01*
X10485333Y-6452000D01*
X10580571Y-6404380D01*
G04 #@! TO.C,R21*
X32377142Y-27884380D02*
X32043809Y-27408190D01*
X31805714Y-27884380D02*
X31805714Y-26884380D01*
X32186666Y-26884380D01*
X32281904Y-26932000D01*
X32329523Y-26979619D01*
X32377142Y-27074857D01*
X32377142Y-27217714D01*
X32329523Y-27312952D01*
X32281904Y-27360571D01*
X32186666Y-27408190D01*
X31805714Y-27408190D01*
X32758095Y-26979619D02*
X32805714Y-26932000D01*
X32900952Y-26884380D01*
X33139047Y-26884380D01*
X33234285Y-26932000D01*
X33281904Y-26979619D01*
X33329523Y-27074857D01*
X33329523Y-27170095D01*
X33281904Y-27312952D01*
X32710476Y-27884380D01*
X33329523Y-27884380D01*
X34281904Y-27884380D02*
X33710476Y-27884380D01*
X33996190Y-27884380D02*
X33996190Y-26884380D01*
X33900952Y-27027238D01*
X33805714Y-27122476D01*
X33710476Y-27170095D01*
G04 #@! TO.C,R22*
X16375142Y-43886380D02*
X16041809Y-43410190D01*
X15803714Y-43886380D02*
X15803714Y-42886380D01*
X16184666Y-42886380D01*
X16279904Y-42934000D01*
X16327523Y-42981619D01*
X16375142Y-43076857D01*
X16375142Y-43219714D01*
X16327523Y-43314952D01*
X16279904Y-43362571D01*
X16184666Y-43410190D01*
X15803714Y-43410190D01*
X16756095Y-42981619D02*
X16803714Y-42934000D01*
X16898952Y-42886380D01*
X17137047Y-42886380D01*
X17232285Y-42934000D01*
X17279904Y-42981619D01*
X17327523Y-43076857D01*
X17327523Y-43172095D01*
X17279904Y-43314952D01*
X16708476Y-43886380D01*
X17327523Y-43886380D01*
X17708476Y-42981619D02*
X17756095Y-42934000D01*
X17851333Y-42886380D01*
X18089428Y-42886380D01*
X18184666Y-42934000D01*
X18232285Y-42981619D01*
X18279904Y-43076857D01*
X18279904Y-43172095D01*
X18232285Y-43314952D01*
X17660857Y-43886380D01*
X18279904Y-43886380D01*
G04 #@! TO.C,R25*
X10787142Y-39314380D02*
X10453809Y-38838190D01*
X10215714Y-39314380D02*
X10215714Y-38314380D01*
X10596666Y-38314380D01*
X10691904Y-38362000D01*
X10739523Y-38409619D01*
X10787142Y-38504857D01*
X10787142Y-38647714D01*
X10739523Y-38742952D01*
X10691904Y-38790571D01*
X10596666Y-38838190D01*
X10215714Y-38838190D01*
X11168095Y-38409619D02*
X11215714Y-38362000D01*
X11310952Y-38314380D01*
X11549047Y-38314380D01*
X11644285Y-38362000D01*
X11691904Y-38409619D01*
X11739523Y-38504857D01*
X11739523Y-38600095D01*
X11691904Y-38742952D01*
X11120476Y-39314380D01*
X11739523Y-39314380D01*
X12644285Y-38314380D02*
X12168095Y-38314380D01*
X12120476Y-38790571D01*
X12168095Y-38742952D01*
X12263333Y-38695333D01*
X12501428Y-38695333D01*
X12596666Y-38742952D01*
X12644285Y-38790571D01*
X12691904Y-38885809D01*
X12691904Y-39123904D01*
X12644285Y-39219142D01*
X12596666Y-39266761D01*
X12501428Y-39314380D01*
X12263333Y-39314380D01*
X12168095Y-39266761D01*
X12120476Y-39219142D01*
G04 #@! TO.C,R1*
X29246333Y-22042380D02*
X28913000Y-21566190D01*
X28674904Y-22042380D02*
X28674904Y-21042380D01*
X29055857Y-21042380D01*
X29151095Y-21090000D01*
X29198714Y-21137619D01*
X29246333Y-21232857D01*
X29246333Y-21375714D01*
X29198714Y-21470952D01*
X29151095Y-21518571D01*
X29055857Y-21566190D01*
X28674904Y-21566190D01*
X30198714Y-22042380D02*
X29627285Y-22042380D01*
X29913000Y-22042380D02*
X29913000Y-21042380D01*
X29817761Y-21185238D01*
X29722523Y-21280476D01*
X29627285Y-21328095D01*
G04 #@! TO.C,R13*
X27856142Y-17724380D02*
X27522809Y-17248190D01*
X27284714Y-17724380D02*
X27284714Y-16724380D01*
X27665666Y-16724380D01*
X27760904Y-16772000D01*
X27808523Y-16819619D01*
X27856142Y-16914857D01*
X27856142Y-17057714D01*
X27808523Y-17152952D01*
X27760904Y-17200571D01*
X27665666Y-17248190D01*
X27284714Y-17248190D01*
X28808523Y-17724380D02*
X28237095Y-17724380D01*
X28522809Y-17724380D02*
X28522809Y-16724380D01*
X28427571Y-16867238D01*
X28332333Y-16962476D01*
X28237095Y-17010095D01*
X29141857Y-16724380D02*
X29760904Y-16724380D01*
X29427571Y-17105333D01*
X29570428Y-17105333D01*
X29665666Y-17152952D01*
X29713285Y-17200571D01*
X29760904Y-17295809D01*
X29760904Y-17533904D01*
X29713285Y-17629142D01*
X29665666Y-17676761D01*
X29570428Y-17724380D01*
X29284714Y-17724380D01*
X29189476Y-17676761D01*
X29141857Y-17629142D01*
G04 #@! TO.C,R11*
X32885142Y-30170380D02*
X32551809Y-29694190D01*
X32313714Y-30170380D02*
X32313714Y-29170380D01*
X32694666Y-29170380D01*
X32789904Y-29218000D01*
X32837523Y-29265619D01*
X32885142Y-29360857D01*
X32885142Y-29503714D01*
X32837523Y-29598952D01*
X32789904Y-29646571D01*
X32694666Y-29694190D01*
X32313714Y-29694190D01*
X33837523Y-30170380D02*
X33266095Y-30170380D01*
X33551809Y-30170380D02*
X33551809Y-29170380D01*
X33456571Y-29313238D01*
X33361333Y-29408476D01*
X33266095Y-29456095D01*
X34789904Y-30170380D02*
X34218476Y-30170380D01*
X34504190Y-30170380D02*
X34504190Y-29170380D01*
X34408952Y-29313238D01*
X34313714Y-29408476D01*
X34218476Y-29456095D01*
G04 #@! TO.C,R27*
X31694380Y-21470857D02*
X31218190Y-21804190D01*
X31694380Y-22042285D02*
X30694380Y-22042285D01*
X30694380Y-21661333D01*
X30742000Y-21566095D01*
X30789619Y-21518476D01*
X30884857Y-21470857D01*
X31027714Y-21470857D01*
X31122952Y-21518476D01*
X31170571Y-21566095D01*
X31218190Y-21661333D01*
X31218190Y-22042285D01*
X30789619Y-21089904D02*
X30742000Y-21042285D01*
X30694380Y-20947047D01*
X30694380Y-20708952D01*
X30742000Y-20613714D01*
X30789619Y-20566095D01*
X30884857Y-20518476D01*
X30980095Y-20518476D01*
X31122952Y-20566095D01*
X31694380Y-21137523D01*
X31694380Y-20518476D01*
X30694380Y-20185142D02*
X30694380Y-19518476D01*
X31694380Y-19947047D01*
G04 #@! TO.C,R5*
X32853333Y-32202380D02*
X32520000Y-31726190D01*
X32281904Y-32202380D02*
X32281904Y-31202380D01*
X32662857Y-31202380D01*
X32758095Y-31250000D01*
X32805714Y-31297619D01*
X32853333Y-31392857D01*
X32853333Y-31535714D01*
X32805714Y-31630952D01*
X32758095Y-31678571D01*
X32662857Y-31726190D01*
X32281904Y-31726190D01*
X33758095Y-31202380D02*
X33281904Y-31202380D01*
X33234285Y-31678571D01*
X33281904Y-31630952D01*
X33377142Y-31583333D01*
X33615238Y-31583333D01*
X33710476Y-31630952D01*
X33758095Y-31678571D01*
X33805714Y-31773809D01*
X33805714Y-32011904D01*
X33758095Y-32107142D01*
X33710476Y-32154761D01*
X33615238Y-32202380D01*
X33377142Y-32202380D01*
X33281904Y-32154761D01*
X33234285Y-32107142D01*
G04 #@! TO.C,R4*
X24471333Y-13246380D02*
X24138000Y-12770190D01*
X23899904Y-13246380D02*
X23899904Y-12246380D01*
X24280857Y-12246380D01*
X24376095Y-12294000D01*
X24423714Y-12341619D01*
X24471333Y-12436857D01*
X24471333Y-12579714D01*
X24423714Y-12674952D01*
X24376095Y-12722571D01*
X24280857Y-12770190D01*
X23899904Y-12770190D01*
X25328476Y-12579714D02*
X25328476Y-13246380D01*
X25090380Y-12198761D02*
X24852285Y-12913047D01*
X25471333Y-12913047D01*
G04 #@! TO.C,R23*
X29303642Y-44742380D02*
X28970309Y-44266190D01*
X28732214Y-44742380D02*
X28732214Y-43742380D01*
X29113166Y-43742380D01*
X29208404Y-43790000D01*
X29256023Y-43837619D01*
X29303642Y-43932857D01*
X29303642Y-44075714D01*
X29256023Y-44170952D01*
X29208404Y-44218571D01*
X29113166Y-44266190D01*
X28732214Y-44266190D01*
X29684595Y-43837619D02*
X29732214Y-43790000D01*
X29827452Y-43742380D01*
X30065547Y-43742380D01*
X30160785Y-43790000D01*
X30208404Y-43837619D01*
X30256023Y-43932857D01*
X30256023Y-44028095D01*
X30208404Y-44170952D01*
X29636976Y-44742380D01*
X30256023Y-44742380D01*
X30589357Y-43742380D02*
X31208404Y-43742380D01*
X30875071Y-44123333D01*
X31017928Y-44123333D01*
X31113166Y-44170952D01*
X31160785Y-44218571D01*
X31208404Y-44313809D01*
X31208404Y-44551904D01*
X31160785Y-44647142D01*
X31113166Y-44694761D01*
X31017928Y-44742380D01*
X30732214Y-44742380D01*
X30636976Y-44694761D01*
X30589357Y-44647142D01*
G04 #@! TO.C,R12*
X30853142Y-54648380D02*
X30519809Y-54172190D01*
X30281714Y-54648380D02*
X30281714Y-53648380D01*
X30662666Y-53648380D01*
X30757904Y-53696000D01*
X30805523Y-53743619D01*
X30853142Y-53838857D01*
X30853142Y-53981714D01*
X30805523Y-54076952D01*
X30757904Y-54124571D01*
X30662666Y-54172190D01*
X30281714Y-54172190D01*
X31805523Y-54648380D02*
X31234095Y-54648380D01*
X31519809Y-54648380D02*
X31519809Y-53648380D01*
X31424571Y-53791238D01*
X31329333Y-53886476D01*
X31234095Y-53934095D01*
X32186476Y-53743619D02*
X32234095Y-53696000D01*
X32329333Y-53648380D01*
X32567428Y-53648380D01*
X32662666Y-53696000D01*
X32710285Y-53743619D01*
X32757904Y-53838857D01*
X32757904Y-53934095D01*
X32710285Y-54076952D01*
X32138857Y-54648380D01*
X32757904Y-54648380D01*
G04 #@! TO.C,SW1*
X30584666Y-39498761D02*
X30727523Y-39546380D01*
X30965619Y-39546380D01*
X31060857Y-39498761D01*
X31108476Y-39451142D01*
X31156095Y-39355904D01*
X31156095Y-39260666D01*
X31108476Y-39165428D01*
X31060857Y-39117809D01*
X30965619Y-39070190D01*
X30775142Y-39022571D01*
X30679904Y-38974952D01*
X30632285Y-38927333D01*
X30584666Y-38832095D01*
X30584666Y-38736857D01*
X30632285Y-38641619D01*
X30679904Y-38594000D01*
X30775142Y-38546380D01*
X31013238Y-38546380D01*
X31156095Y-38594000D01*
X31489428Y-38546380D02*
X31727523Y-39546380D01*
X31918000Y-38832095D01*
X32108476Y-39546380D01*
X32346571Y-38546380D01*
X33251333Y-39546380D02*
X32679904Y-39546380D01*
X32965619Y-39546380D02*
X32965619Y-38546380D01*
X32870380Y-38689238D01*
X32775142Y-38784476D01*
X32679904Y-38832095D01*
G04 #@! TO.C,Q6*
X7778761Y-44235619D02*
X7683523Y-44188000D01*
X7588285Y-44092761D01*
X7445428Y-43949904D01*
X7350190Y-43902285D01*
X7254952Y-43902285D01*
X7302571Y-44140380D02*
X7207333Y-44092761D01*
X7112095Y-43997523D01*
X7064476Y-43807047D01*
X7064476Y-43473714D01*
X7112095Y-43283238D01*
X7207333Y-43188000D01*
X7302571Y-43140380D01*
X7493047Y-43140380D01*
X7588285Y-43188000D01*
X7683523Y-43283238D01*
X7731142Y-43473714D01*
X7731142Y-43807047D01*
X7683523Y-43997523D01*
X7588285Y-44092761D01*
X7493047Y-44140380D01*
X7302571Y-44140380D01*
X8588285Y-43140380D02*
X8397809Y-43140380D01*
X8302571Y-43188000D01*
X8254952Y-43235619D01*
X8159714Y-43378476D01*
X8112095Y-43568952D01*
X8112095Y-43949904D01*
X8159714Y-44045142D01*
X8207333Y-44092761D01*
X8302571Y-44140380D01*
X8493047Y-44140380D01*
X8588285Y-44092761D01*
X8635904Y-44045142D01*
X8683523Y-43949904D01*
X8683523Y-43711809D01*
X8635904Y-43616571D01*
X8588285Y-43568952D01*
X8493047Y-43521333D01*
X8302571Y-43521333D01*
X8207333Y-43568952D01*
X8159714Y-43616571D01*
X8112095Y-43711809D01*
G04 #@! TO.C,J3*
D11*
X15835333Y-2742190D02*
X15835333Y-3099333D01*
X15811523Y-3170761D01*
X15763904Y-3218380D01*
X15692476Y-3242190D01*
X15644857Y-3242190D01*
X16025809Y-2742190D02*
X16335333Y-2742190D01*
X16168666Y-2932666D01*
X16240095Y-2932666D01*
X16287714Y-2956476D01*
X16311523Y-2980285D01*
X16335333Y-3027904D01*
X16335333Y-3146952D01*
X16311523Y-3194571D01*
X16287714Y-3218380D01*
X16240095Y-3242190D01*
X16097238Y-3242190D01*
X16049619Y-3218380D01*
X16025809Y-3194571D01*
G04 #@! TD*
M02*
