M48
;DRILL file {KiCad (5.0.2)-1} date 5/12/2019 4:54:16 PM
;FORMAT={-:-/ absolute / inch / decimal}
FMAT,2
INCH,TZ
T1C0.0157
T2C0.0295
T3C0.0394
T4C0.0433
%
G90
G05
T1
X0.3Y-1.08
X0.4Y-0.45
X0.48Y-0.37
X0.4915Y-0.44
X0.52Y-1.21
X0.57Y-1.29
X0.5905Y-1.25
X0.6298Y-1.4702
X0.6298Y-1.25
X0.63Y-1.1303
X0.65Y-0.725
X0.6584Y-1.2102
X0.7Y-1.62
X0.73Y-1.52
X0.7585Y-1.6
X0.79Y-1.48
X0.8385Y-1.3312
X0.8421Y-1.1415
X0.8663Y-1.9941
X0.8729Y-2.0329
X0.88Y-1.94
X0.882Y-1.2426
X0.895Y-0.18
X0.8952Y-1.2797
X0.9006Y-1.51
X0.9115Y-1.3624
X0.9153Y-1.1706
X0.9188Y-0.6755
X0.92Y-0.94
X0.9244Y-0.8295
X0.9385Y-0.8934
X0.94Y-1.51
X0.9409Y-1.2832
X0.95Y-1.19
X0.955Y-0.66
X0.98Y-1.51
X0.9855Y-1.0091
X0.9989Y-0.6376
X1.Y-1.15
X1.0123Y-1.2219
X1.0157Y-1.2958
X1.0183Y-0.9368
X1.02Y-1.6
X1.0263Y-1.5082
X1.0315Y-0.71
X1.0347Y-1.8285
X1.0591Y-1.5301
X1.07Y-0.9
X1.0785Y-1.03
X1.09Y-1.82
X1.09Y-1.94
X1.095Y-0.07
X1.0983Y-1.5268
X1.11Y-0.46
X1.1128Y-1.7615
X1.1144Y-1.0138
X1.1148Y-0.6758
X1.13Y-1.14
X1.1444Y-0.9883
X1.1488Y-0.1509
X1.1695Y-1.13
X1.17Y-2.21
X1.18Y-0.19
X1.18Y-0.9
X1.19Y-1.86
X1.2Y-0.75
X1.2037Y-1.3711
X1.2081Y-1.121
X1.218Y-1.3316
X1.23Y-1.94
X1.2527Y-1.0673
X1.26Y-0.33
X1.26Y-1.74
X1.3Y-1.74
X1.31Y-1.49
X1.33Y-1.2892
X1.3535Y-1.0333
X1.355Y-0.585
X1.39Y-1.75
X1.41Y-0.66
X1.4466Y-1.717
X1.45Y-0.705
X1.46Y-1.68
T2
X0.115Y-1.0488
X0.115Y-1.1275
X0.115Y-1.2063
X0.115Y-1.285
X0.125Y-0.5988
X0.125Y-0.6775
X0.125Y-0.7563
X0.125Y-0.835
X0.87Y-1.86
X0.9487Y-1.86
X0.47Y-0.0787
X0.5291Y-0.0787
X0.5881Y-0.0787
X0.6472Y-0.0787
X0.7062Y-0.0787
X0.7653Y-0.0787
X0.175Y-0.175
X0.175Y-0.2537
X0.175Y-0.3325
X0.4513Y-1.86
X0.53Y-1.86
X0.87Y-1.63
X0.9487Y-1.63
X0.7847Y-2.21
X0.8438Y-2.21
X0.9028Y-2.21
X0.9619Y-2.21
X1.0209Y-2.21
X1.08Y-2.21
T3
X1.34Y-0.12
X1.34Y-0.22
X0.11Y-2.18
X0.21Y-2.18
X0.31Y-2.18
X0.41Y-2.18
X0.51Y-2.18
X0.61Y-2.18
X0.12Y-1.64
X0.12Y-1.74
X0.12Y-1.84
X0.12Y-1.94
X1.55Y-0.1
X1.65Y-0.1
X0.35Y-1.17
X0.35Y-1.27
X0.35Y-1.37
X0.45Y-1.17
X0.45Y-1.27
X0.45Y-1.37
T4
X1.58Y-0.29
X1.58Y-0.39
X1.58Y-0.49
X1.58Y-0.59
X1.58Y-0.69
X1.58Y-0.79
X1.58Y-0.89
X1.58Y-0.99
X1.58Y-1.09
X1.58Y-1.19
X1.58Y-1.29
X1.58Y-1.39
X1.58Y-1.49
X1.58Y-1.59
X1.58Y-1.69
X1.58Y-1.79
X1.58Y-1.89
X1.58Y-1.99
X1.58Y-2.09
X1.58Y-2.19
X1.68Y-0.29
X1.68Y-0.39
X1.68Y-0.49
X1.68Y-0.59
X1.68Y-0.69
X1.68Y-0.79
X1.68Y-0.89
X1.68Y-0.99
X1.68Y-1.09
X1.68Y-1.19
X1.68Y-1.29
X1.68Y-1.39
X1.68Y-1.49
X1.68Y-1.59
X1.68Y-1.69
X1.68Y-1.79
X1.68Y-1.89
X1.68Y-1.99
X1.68Y-2.09
X1.68Y-2.19
T0
M30
