G04 #@! TF.GenerationSoftware,KiCad,Pcbnew,(5.0.2)-1*
G04 #@! TF.CreationDate,2019-05-12T16:54:14-07:00*
G04 #@! TF.ProjectId,controlBoard_rev0401,636f6e74-726f-46c4-926f-6172645f7265,rev?*
G04 #@! TF.SameCoordinates,Original*
G04 #@! TF.FileFunction,Copper,L2,Bot*
G04 #@! TF.FilePolarity,Positive*
%FSLAX46Y46*%
G04 Gerber Fmt 4.6, Leading zero omitted, Abs format (unit mm)*
G04 Created by KiCad (PCBNEW (5.0.2)-1) date 5/12/2019 4:54:14 PM*
%MOMM*%
%LPD*%
G01*
G04 APERTURE LIST*
G04 #@! TA.AperFunction,Conductor*
%ADD10C,0.100000*%
G04 #@! TD*
G04 #@! TA.AperFunction,SMDPad,CuDef*
%ADD11C,0.875000*%
G04 #@! TD*
G04 #@! TA.AperFunction,ComponentPad*
%ADD12R,1.700000X1.700000*%
G04 #@! TD*
G04 #@! TA.AperFunction,ComponentPad*
%ADD13O,1.700000X1.700000*%
G04 #@! TD*
G04 #@! TA.AperFunction,ComponentPad*
%ADD14R,1.500000X1.500000*%
G04 #@! TD*
G04 #@! TA.AperFunction,ComponentPad*
%ADD15O,1.500000X1.500000*%
G04 #@! TD*
G04 #@! TA.AperFunction,BGAPad,CuDef*
%ADD16C,8.130000*%
G04 #@! TD*
G04 #@! TA.AperFunction,SMDPad,CuDef*
%ADD17R,4.000000X4.000000*%
G04 #@! TD*
G04 #@! TA.AperFunction,ComponentPad*
%ADD18C,1.200000*%
G04 #@! TD*
G04 #@! TA.AperFunction,ComponentPad*
%ADD19O,1.200000X1.750000*%
G04 #@! TD*
G04 #@! TA.AperFunction,ComponentPad*
%ADD20R,1.200000X1.750000*%
G04 #@! TD*
G04 #@! TA.AperFunction,ComponentPad*
%ADD21O,1.750000X1.200000*%
G04 #@! TD*
G04 #@! TA.AperFunction,ComponentPad*
%ADD22R,1.750000X1.200000*%
G04 #@! TD*
G04 #@! TA.AperFunction,SMDPad,CuDef*
%ADD23R,0.500000X0.350000*%
G04 #@! TD*
G04 #@! TA.AperFunction,SMDPad,CuDef*
%ADD24R,1.550000X0.600000*%
G04 #@! TD*
G04 #@! TA.AperFunction,ViaPad*
%ADD25C,0.800000*%
G04 #@! TD*
G04 #@! TA.AperFunction,Conductor*
%ADD26C,0.250000*%
G04 #@! TD*
G04 #@! TA.AperFunction,Conductor*
%ADD27C,1.000000*%
G04 #@! TD*
G04 #@! TA.AperFunction,Conductor*
%ADD28C,0.600000*%
G04 #@! TD*
G04 #@! TA.AperFunction,Conductor*
%ADD29C,0.254000*%
G04 #@! TD*
G04 APERTURE END LIST*
D10*
G04 #@! TO.N,SCL*
G04 #@! TO.C,R8*
G36*
X38377691Y-13051053D02*
X38398926Y-13054203D01*
X38419750Y-13059419D01*
X38439962Y-13066651D01*
X38459368Y-13075830D01*
X38477781Y-13086866D01*
X38495024Y-13099654D01*
X38510930Y-13114070D01*
X38525346Y-13129976D01*
X38538134Y-13147219D01*
X38549170Y-13165632D01*
X38558349Y-13185038D01*
X38565581Y-13205250D01*
X38570797Y-13226074D01*
X38573947Y-13247309D01*
X38575000Y-13268750D01*
X38575000Y-13706250D01*
X38573947Y-13727691D01*
X38570797Y-13748926D01*
X38565581Y-13769750D01*
X38558349Y-13789962D01*
X38549170Y-13809368D01*
X38538134Y-13827781D01*
X38525346Y-13845024D01*
X38510930Y-13860930D01*
X38495024Y-13875346D01*
X38477781Y-13888134D01*
X38459368Y-13899170D01*
X38439962Y-13908349D01*
X38419750Y-13915581D01*
X38398926Y-13920797D01*
X38377691Y-13923947D01*
X38356250Y-13925000D01*
X37843750Y-13925000D01*
X37822309Y-13923947D01*
X37801074Y-13920797D01*
X37780250Y-13915581D01*
X37760038Y-13908349D01*
X37740632Y-13899170D01*
X37722219Y-13888134D01*
X37704976Y-13875346D01*
X37689070Y-13860930D01*
X37674654Y-13845024D01*
X37661866Y-13827781D01*
X37650830Y-13809368D01*
X37641651Y-13789962D01*
X37634419Y-13769750D01*
X37629203Y-13748926D01*
X37626053Y-13727691D01*
X37625000Y-13706250D01*
X37625000Y-13268750D01*
X37626053Y-13247309D01*
X37629203Y-13226074D01*
X37634419Y-13205250D01*
X37641651Y-13185038D01*
X37650830Y-13165632D01*
X37661866Y-13147219D01*
X37674654Y-13129976D01*
X37689070Y-13114070D01*
X37704976Y-13099654D01*
X37722219Y-13086866D01*
X37740632Y-13075830D01*
X37760038Y-13066651D01*
X37780250Y-13059419D01*
X37801074Y-13054203D01*
X37822309Y-13051053D01*
X37843750Y-13050000D01*
X38356250Y-13050000D01*
X38377691Y-13051053D01*
X38377691Y-13051053D01*
G37*
D11*
G04 #@! TD*
G04 #@! TO.P,R8,2*
G04 #@! TO.N,SCL*
X38100000Y-13487500D03*
D10*
G04 #@! TO.N,/Pi_SCL*
G04 #@! TO.C,R8*
G36*
X38377691Y-11476053D02*
X38398926Y-11479203D01*
X38419750Y-11484419D01*
X38439962Y-11491651D01*
X38459368Y-11500830D01*
X38477781Y-11511866D01*
X38495024Y-11524654D01*
X38510930Y-11539070D01*
X38525346Y-11554976D01*
X38538134Y-11572219D01*
X38549170Y-11590632D01*
X38558349Y-11610038D01*
X38565581Y-11630250D01*
X38570797Y-11651074D01*
X38573947Y-11672309D01*
X38575000Y-11693750D01*
X38575000Y-12131250D01*
X38573947Y-12152691D01*
X38570797Y-12173926D01*
X38565581Y-12194750D01*
X38558349Y-12214962D01*
X38549170Y-12234368D01*
X38538134Y-12252781D01*
X38525346Y-12270024D01*
X38510930Y-12285930D01*
X38495024Y-12300346D01*
X38477781Y-12313134D01*
X38459368Y-12324170D01*
X38439962Y-12333349D01*
X38419750Y-12340581D01*
X38398926Y-12345797D01*
X38377691Y-12348947D01*
X38356250Y-12350000D01*
X37843750Y-12350000D01*
X37822309Y-12348947D01*
X37801074Y-12345797D01*
X37780250Y-12340581D01*
X37760038Y-12333349D01*
X37740632Y-12324170D01*
X37722219Y-12313134D01*
X37704976Y-12300346D01*
X37689070Y-12285930D01*
X37674654Y-12270024D01*
X37661866Y-12252781D01*
X37650830Y-12234368D01*
X37641651Y-12214962D01*
X37634419Y-12194750D01*
X37629203Y-12173926D01*
X37626053Y-12152691D01*
X37625000Y-12131250D01*
X37625000Y-11693750D01*
X37626053Y-11672309D01*
X37629203Y-11651074D01*
X37634419Y-11630250D01*
X37641651Y-11610038D01*
X37650830Y-11590632D01*
X37661866Y-11572219D01*
X37674654Y-11554976D01*
X37689070Y-11539070D01*
X37704976Y-11524654D01*
X37722219Y-11511866D01*
X37740632Y-11500830D01*
X37760038Y-11491651D01*
X37780250Y-11484419D01*
X37801074Y-11479203D01*
X37822309Y-11476053D01*
X37843750Y-11475000D01*
X38356250Y-11475000D01*
X38377691Y-11476053D01*
X38377691Y-11476053D01*
G37*
D11*
G04 #@! TD*
G04 #@! TO.P,R8,1*
G04 #@! TO.N,/Pi_SCL*
X38100000Y-11912500D03*
D10*
G04 #@! TO.N,/Pi_SDA*
G04 #@! TO.C,R7*
G36*
X37857691Y-8289053D02*
X37878926Y-8292203D01*
X37899750Y-8297419D01*
X37919962Y-8304651D01*
X37939368Y-8313830D01*
X37957781Y-8324866D01*
X37975024Y-8337654D01*
X37990930Y-8352070D01*
X38005346Y-8367976D01*
X38018134Y-8385219D01*
X38029170Y-8403632D01*
X38038349Y-8423038D01*
X38045581Y-8443250D01*
X38050797Y-8464074D01*
X38053947Y-8485309D01*
X38055000Y-8506750D01*
X38055000Y-9019250D01*
X38053947Y-9040691D01*
X38050797Y-9061926D01*
X38045581Y-9082750D01*
X38038349Y-9102962D01*
X38029170Y-9122368D01*
X38018134Y-9140781D01*
X38005346Y-9158024D01*
X37990930Y-9173930D01*
X37975024Y-9188346D01*
X37957781Y-9201134D01*
X37939368Y-9212170D01*
X37919962Y-9221349D01*
X37899750Y-9228581D01*
X37878926Y-9233797D01*
X37857691Y-9236947D01*
X37836250Y-9238000D01*
X37398750Y-9238000D01*
X37377309Y-9236947D01*
X37356074Y-9233797D01*
X37335250Y-9228581D01*
X37315038Y-9221349D01*
X37295632Y-9212170D01*
X37277219Y-9201134D01*
X37259976Y-9188346D01*
X37244070Y-9173930D01*
X37229654Y-9158024D01*
X37216866Y-9140781D01*
X37205830Y-9122368D01*
X37196651Y-9102962D01*
X37189419Y-9082750D01*
X37184203Y-9061926D01*
X37181053Y-9040691D01*
X37180000Y-9019250D01*
X37180000Y-8506750D01*
X37181053Y-8485309D01*
X37184203Y-8464074D01*
X37189419Y-8443250D01*
X37196651Y-8423038D01*
X37205830Y-8403632D01*
X37216866Y-8385219D01*
X37229654Y-8367976D01*
X37244070Y-8352070D01*
X37259976Y-8337654D01*
X37277219Y-8324866D01*
X37295632Y-8313830D01*
X37315038Y-8304651D01*
X37335250Y-8297419D01*
X37356074Y-8292203D01*
X37377309Y-8289053D01*
X37398750Y-8288000D01*
X37836250Y-8288000D01*
X37857691Y-8289053D01*
X37857691Y-8289053D01*
G37*
D11*
G04 #@! TD*
G04 #@! TO.P,R7,1*
G04 #@! TO.N,/Pi_SDA*
X37617500Y-8763000D03*
D10*
G04 #@! TO.N,SDA*
G04 #@! TO.C,R7*
G36*
X36282691Y-8289053D02*
X36303926Y-8292203D01*
X36324750Y-8297419D01*
X36344962Y-8304651D01*
X36364368Y-8313830D01*
X36382781Y-8324866D01*
X36400024Y-8337654D01*
X36415930Y-8352070D01*
X36430346Y-8367976D01*
X36443134Y-8385219D01*
X36454170Y-8403632D01*
X36463349Y-8423038D01*
X36470581Y-8443250D01*
X36475797Y-8464074D01*
X36478947Y-8485309D01*
X36480000Y-8506750D01*
X36480000Y-9019250D01*
X36478947Y-9040691D01*
X36475797Y-9061926D01*
X36470581Y-9082750D01*
X36463349Y-9102962D01*
X36454170Y-9122368D01*
X36443134Y-9140781D01*
X36430346Y-9158024D01*
X36415930Y-9173930D01*
X36400024Y-9188346D01*
X36382781Y-9201134D01*
X36364368Y-9212170D01*
X36344962Y-9221349D01*
X36324750Y-9228581D01*
X36303926Y-9233797D01*
X36282691Y-9236947D01*
X36261250Y-9238000D01*
X35823750Y-9238000D01*
X35802309Y-9236947D01*
X35781074Y-9233797D01*
X35760250Y-9228581D01*
X35740038Y-9221349D01*
X35720632Y-9212170D01*
X35702219Y-9201134D01*
X35684976Y-9188346D01*
X35669070Y-9173930D01*
X35654654Y-9158024D01*
X35641866Y-9140781D01*
X35630830Y-9122368D01*
X35621651Y-9102962D01*
X35614419Y-9082750D01*
X35609203Y-9061926D01*
X35606053Y-9040691D01*
X35605000Y-9019250D01*
X35605000Y-8506750D01*
X35606053Y-8485309D01*
X35609203Y-8464074D01*
X35614419Y-8443250D01*
X35621651Y-8423038D01*
X35630830Y-8403632D01*
X35641866Y-8385219D01*
X35654654Y-8367976D01*
X35669070Y-8352070D01*
X35684976Y-8337654D01*
X35702219Y-8324866D01*
X35720632Y-8313830D01*
X35740038Y-8304651D01*
X35760250Y-8297419D01*
X35781074Y-8292203D01*
X35802309Y-8289053D01*
X35823750Y-8288000D01*
X36261250Y-8288000D01*
X36282691Y-8289053D01*
X36282691Y-8289053D01*
G37*
D11*
G04 #@! TD*
G04 #@! TO.P,R7,2*
G04 #@! TO.N,SDA*
X36042500Y-8763000D03*
D12*
G04 #@! TO.P,C8,1*
G04 #@! TO.N,Vpi*
X41910000Y-2540000D03*
D13*
G04 #@! TO.P,C8,2*
G04 #@! TO.N,GND*
X39370000Y-2540000D03*
G04 #@! TD*
D12*
G04 #@! TO.P,U8,1*
G04 #@! TO.N,Net-(C18-Pad1)*
X15494000Y-55372000D03*
D13*
G04 #@! TO.P,U8,2*
G04 #@! TO.N,TXD*
X12954000Y-55372000D03*
G04 #@! TO.P,U8,3*
G04 #@! TO.N,RXD*
X10414000Y-55372000D03*
G04 #@! TO.P,U8,4*
G04 #@! TO.N,3.3V_ARD*
X7874000Y-55372000D03*
G04 #@! TO.P,U8,5*
G04 #@! TO.N,GND*
X5334000Y-55372000D03*
G04 #@! TO.P,U8,6*
X2794000Y-55372000D03*
G04 #@! TD*
D14*
G04 #@! TO.P,U5,1*
G04 #@! TO.N,Net-(U5-Pad1)*
X40132000Y-7366000D03*
D15*
G04 #@! TO.P,U5,2*
G04 #@! TO.N,/Pi_SDA*
X40132000Y-9906000D03*
G04 #@! TO.P,U5,3*
G04 #@! TO.N,/Pi_SCL*
X40132000Y-12446000D03*
G04 #@! TO.P,U5,4*
G04 #@! TO.N,GPIO4*
X40132000Y-14986000D03*
G04 #@! TO.P,U5,5*
G04 #@! TO.N,GND*
X40132000Y-17526000D03*
G04 #@! TO.P,U5,6*
G04 #@! TO.N,3.3V_CTL*
X40132000Y-20066000D03*
G04 #@! TO.P,U5,7*
G04 #@! TO.N,GPIO27*
X40132000Y-22606000D03*
G04 #@! TO.P,U5,8*
G04 #@! TO.N,Net-(U5-Pad8)*
X40132000Y-25146000D03*
G04 #@! TO.P,U5,9*
G04 #@! TO.N,Net-(U5-Pad9)*
X40132000Y-27686000D03*
G04 #@! TO.P,U5,10*
G04 #@! TO.N,PUSH*
X40132000Y-30226000D03*
G04 #@! TO.P,U5,11*
G04 #@! TO.N,PUSH2*
X40132000Y-32766000D03*
G04 #@! TO.P,U5,12*
G04 #@! TO.N,Vhall*
X40132000Y-35306000D03*
G04 #@! TO.P,U5,13*
G04 #@! TO.N,Net-(U5-Pad13)*
X40132000Y-37846000D03*
G04 #@! TO.P,U5,14*
G04 #@! TO.N,Net-(U5-Pad14)*
X40132000Y-40386000D03*
G04 #@! TO.P,U5,15*
G04 #@! TO.N,Net-(U5-Pad15)*
X40132000Y-42926000D03*
G04 #@! TO.P,U5,16*
G04 #@! TO.N,Net-(U5-Pad16)*
X40132000Y-45466000D03*
G04 #@! TO.P,U5,17*
G04 #@! TO.N,Net-(U5-Pad17)*
X40132000Y-48006000D03*
G04 #@! TO.P,U5,18*
G04 #@! TO.N,Torch*
X40132000Y-50546000D03*
G04 #@! TO.P,U5,19*
G04 #@! TO.N,Flash*
X40132000Y-53086000D03*
G04 #@! TO.P,U5,20*
G04 #@! TO.N,GND*
X40132000Y-55626000D03*
G04 #@! TO.P,U5,21*
G04 #@! TO.N,Net-(D7-Pad2)*
X42672000Y-55626000D03*
G04 #@! TO.P,U5,22*
G04 #@! TO.N,Net-(U5-Pad22)*
X42672000Y-53086000D03*
G04 #@! TO.P,U5,23*
G04 #@! TO.N,Net-(U5-Pad23)*
X42672000Y-50546000D03*
G04 #@! TO.P,U5,24*
G04 #@! TO.N,GND*
X42672000Y-48006000D03*
G04 #@! TO.P,U5,25*
G04 #@! TO.N,FAN_CTL*
X42672000Y-45466000D03*
G04 #@! TO.P,U5,26*
G04 #@! TO.N,Net-(U5-Pad26)*
X42672000Y-42926000D03*
G04 #@! TO.P,U5,27*
G04 #@! TO.N,Net-(U5-Pad27)*
X42672000Y-40386000D03*
G04 #@! TO.P,U5,28*
G04 #@! TO.N,Net-(U5-Pad28)*
X42672000Y-37846000D03*
G04 #@! TO.P,U5,29*
G04 #@! TO.N,Net-(U5-Pad29)*
X42672000Y-35306000D03*
G04 #@! TO.P,U5,30*
G04 #@! TO.N,Net-(U5-Pad30)*
X42672000Y-32766000D03*
G04 #@! TO.P,U5,31*
G04 #@! TO.N,Net-(U5-Pad31)*
X42672000Y-30226000D03*
G04 #@! TO.P,U5,32*
G04 #@! TO.N,PI_SIG*
X42672000Y-27686000D03*
G04 #@! TO.P,U5,33*
G04 #@! TO.N,RST*
X42672000Y-25146000D03*
G04 #@! TO.P,U5,34*
G04 #@! TO.N,Net-(U5-Pad34)*
X42672000Y-22606000D03*
G04 #@! TO.P,U5,35*
G04 #@! TO.N,LED_EN*
X42672000Y-20066000D03*
G04 #@! TO.P,U5,36*
G04 #@! TO.N,Net-(R11-Pad2)*
X42672000Y-17526000D03*
G04 #@! TO.P,U5,37*
G04 #@! TO.N,Net-(R5-Pad2)*
X42672000Y-14986000D03*
G04 #@! TO.P,U5,38*
G04 #@! TO.N,GND*
X42672000Y-12446000D03*
G04 #@! TO.P,U5,39*
G04 #@! TO.N,Vpi*
X42672000Y-9906000D03*
G04 #@! TO.P,U5,40*
X42672000Y-7366000D03*
G04 #@! TD*
D16*
G04 #@! TO.P,U7,1*
G04 #@! TO.N,GND*
X16510000Y-18415000D03*
D17*
G04 #@! TO.P,U7,2*
G04 #@! TO.N,Net-(U7-Pad2)*
X16510000Y-26110000D03*
G04 #@! TO.P,U7,3*
G04 #@! TO.N,Net-(U7-Pad3)*
X16510000Y-10720000D03*
G04 #@! TD*
D18*
G04 #@! TO.P,J4,1*
G04 #@! TO.N,GND*
X27432000Y-56134000D03*
G04 #@! TO.P,J4,2*
G04 #@! TO.N,I_LED*
X25932000Y-56134000D03*
G04 #@! TO.P,J4,3*
G04 #@! TO.N,Flash*
X24432000Y-56134000D03*
G04 #@! TO.P,J4,4*
G04 #@! TO.N,Torch*
X22932000Y-56134000D03*
G04 #@! TO.P,J4,5*
G04 #@! TO.N,LED_EN*
X21432000Y-56134000D03*
G04 #@! TO.P,J4,6*
G04 #@! TO.N,LED_SENSE*
X19932000Y-56134000D03*
G04 #@! TD*
D10*
G04 #@! TO.N,3.3V_out*
G04 #@! TO.C,C15*
G36*
X26947691Y-20137553D02*
X26968926Y-20140703D01*
X26989750Y-20145919D01*
X27009962Y-20153151D01*
X27029368Y-20162330D01*
X27047781Y-20173366D01*
X27065024Y-20186154D01*
X27080930Y-20200570D01*
X27095346Y-20216476D01*
X27108134Y-20233719D01*
X27119170Y-20252132D01*
X27128349Y-20271538D01*
X27135581Y-20291750D01*
X27140797Y-20312574D01*
X27143947Y-20333809D01*
X27145000Y-20355250D01*
X27145000Y-20792750D01*
X27143947Y-20814191D01*
X27140797Y-20835426D01*
X27135581Y-20856250D01*
X27128349Y-20876462D01*
X27119170Y-20895868D01*
X27108134Y-20914281D01*
X27095346Y-20931524D01*
X27080930Y-20947430D01*
X27065024Y-20961846D01*
X27047781Y-20974634D01*
X27029368Y-20985670D01*
X27009962Y-20994849D01*
X26989750Y-21002081D01*
X26968926Y-21007297D01*
X26947691Y-21010447D01*
X26926250Y-21011500D01*
X26413750Y-21011500D01*
X26392309Y-21010447D01*
X26371074Y-21007297D01*
X26350250Y-21002081D01*
X26330038Y-20994849D01*
X26310632Y-20985670D01*
X26292219Y-20974634D01*
X26274976Y-20961846D01*
X26259070Y-20947430D01*
X26244654Y-20931524D01*
X26231866Y-20914281D01*
X26220830Y-20895868D01*
X26211651Y-20876462D01*
X26204419Y-20856250D01*
X26199203Y-20835426D01*
X26196053Y-20814191D01*
X26195000Y-20792750D01*
X26195000Y-20355250D01*
X26196053Y-20333809D01*
X26199203Y-20312574D01*
X26204419Y-20291750D01*
X26211651Y-20271538D01*
X26220830Y-20252132D01*
X26231866Y-20233719D01*
X26244654Y-20216476D01*
X26259070Y-20200570D01*
X26274976Y-20186154D01*
X26292219Y-20173366D01*
X26310632Y-20162330D01*
X26330038Y-20153151D01*
X26350250Y-20145919D01*
X26371074Y-20140703D01*
X26392309Y-20137553D01*
X26413750Y-20136500D01*
X26926250Y-20136500D01*
X26947691Y-20137553D01*
X26947691Y-20137553D01*
G37*
D11*
G04 #@! TD*
G04 #@! TO.P,C15,1*
G04 #@! TO.N,3.3V_out*
X26670000Y-20574000D03*
D10*
G04 #@! TO.N,GND*
G04 #@! TO.C,C15*
G36*
X26947691Y-21712553D02*
X26968926Y-21715703D01*
X26989750Y-21720919D01*
X27009962Y-21728151D01*
X27029368Y-21737330D01*
X27047781Y-21748366D01*
X27065024Y-21761154D01*
X27080930Y-21775570D01*
X27095346Y-21791476D01*
X27108134Y-21808719D01*
X27119170Y-21827132D01*
X27128349Y-21846538D01*
X27135581Y-21866750D01*
X27140797Y-21887574D01*
X27143947Y-21908809D01*
X27145000Y-21930250D01*
X27145000Y-22367750D01*
X27143947Y-22389191D01*
X27140797Y-22410426D01*
X27135581Y-22431250D01*
X27128349Y-22451462D01*
X27119170Y-22470868D01*
X27108134Y-22489281D01*
X27095346Y-22506524D01*
X27080930Y-22522430D01*
X27065024Y-22536846D01*
X27047781Y-22549634D01*
X27029368Y-22560670D01*
X27009962Y-22569849D01*
X26989750Y-22577081D01*
X26968926Y-22582297D01*
X26947691Y-22585447D01*
X26926250Y-22586500D01*
X26413750Y-22586500D01*
X26392309Y-22585447D01*
X26371074Y-22582297D01*
X26350250Y-22577081D01*
X26330038Y-22569849D01*
X26310632Y-22560670D01*
X26292219Y-22549634D01*
X26274976Y-22536846D01*
X26259070Y-22522430D01*
X26244654Y-22506524D01*
X26231866Y-22489281D01*
X26220830Y-22470868D01*
X26211651Y-22451462D01*
X26204419Y-22431250D01*
X26199203Y-22410426D01*
X26196053Y-22389191D01*
X26195000Y-22367750D01*
X26195000Y-21930250D01*
X26196053Y-21908809D01*
X26199203Y-21887574D01*
X26204419Y-21866750D01*
X26211651Y-21846538D01*
X26220830Y-21827132D01*
X26231866Y-21808719D01*
X26244654Y-21791476D01*
X26259070Y-21775570D01*
X26274976Y-21761154D01*
X26292219Y-21748366D01*
X26310632Y-21737330D01*
X26330038Y-21728151D01*
X26350250Y-21720919D01*
X26371074Y-21715703D01*
X26392309Y-21712553D01*
X26413750Y-21711500D01*
X26926250Y-21711500D01*
X26947691Y-21712553D01*
X26947691Y-21712553D01*
G37*
D11*
G04 #@! TD*
G04 #@! TO.P,C15,2*
G04 #@! TO.N,GND*
X26670000Y-22149000D03*
D10*
G04 #@! TO.N,GND*
G04 #@! TO.C,C12*
G36*
X28713691Y-12734053D02*
X28734926Y-12737203D01*
X28755750Y-12742419D01*
X28775962Y-12749651D01*
X28795368Y-12758830D01*
X28813781Y-12769866D01*
X28831024Y-12782654D01*
X28846930Y-12797070D01*
X28861346Y-12812976D01*
X28874134Y-12830219D01*
X28885170Y-12848632D01*
X28894349Y-12868038D01*
X28901581Y-12888250D01*
X28906797Y-12909074D01*
X28909947Y-12930309D01*
X28911000Y-12951750D01*
X28911000Y-13464250D01*
X28909947Y-13485691D01*
X28906797Y-13506926D01*
X28901581Y-13527750D01*
X28894349Y-13547962D01*
X28885170Y-13567368D01*
X28874134Y-13585781D01*
X28861346Y-13603024D01*
X28846930Y-13618930D01*
X28831024Y-13633346D01*
X28813781Y-13646134D01*
X28795368Y-13657170D01*
X28775962Y-13666349D01*
X28755750Y-13673581D01*
X28734926Y-13678797D01*
X28713691Y-13681947D01*
X28692250Y-13683000D01*
X28254750Y-13683000D01*
X28233309Y-13681947D01*
X28212074Y-13678797D01*
X28191250Y-13673581D01*
X28171038Y-13666349D01*
X28151632Y-13657170D01*
X28133219Y-13646134D01*
X28115976Y-13633346D01*
X28100070Y-13618930D01*
X28085654Y-13603024D01*
X28072866Y-13585781D01*
X28061830Y-13567368D01*
X28052651Y-13547962D01*
X28045419Y-13527750D01*
X28040203Y-13506926D01*
X28037053Y-13485691D01*
X28036000Y-13464250D01*
X28036000Y-12951750D01*
X28037053Y-12930309D01*
X28040203Y-12909074D01*
X28045419Y-12888250D01*
X28052651Y-12868038D01*
X28061830Y-12848632D01*
X28072866Y-12830219D01*
X28085654Y-12812976D01*
X28100070Y-12797070D01*
X28115976Y-12782654D01*
X28133219Y-12769866D01*
X28151632Y-12758830D01*
X28171038Y-12749651D01*
X28191250Y-12742419D01*
X28212074Y-12737203D01*
X28233309Y-12734053D01*
X28254750Y-12733000D01*
X28692250Y-12733000D01*
X28713691Y-12734053D01*
X28713691Y-12734053D01*
G37*
D11*
G04 #@! TD*
G04 #@! TO.P,C12,2*
G04 #@! TO.N,GND*
X28473500Y-13208000D03*
D10*
G04 #@! TO.N,3.3V_out*
G04 #@! TO.C,C12*
G36*
X27138691Y-12734053D02*
X27159926Y-12737203D01*
X27180750Y-12742419D01*
X27200962Y-12749651D01*
X27220368Y-12758830D01*
X27238781Y-12769866D01*
X27256024Y-12782654D01*
X27271930Y-12797070D01*
X27286346Y-12812976D01*
X27299134Y-12830219D01*
X27310170Y-12848632D01*
X27319349Y-12868038D01*
X27326581Y-12888250D01*
X27331797Y-12909074D01*
X27334947Y-12930309D01*
X27336000Y-12951750D01*
X27336000Y-13464250D01*
X27334947Y-13485691D01*
X27331797Y-13506926D01*
X27326581Y-13527750D01*
X27319349Y-13547962D01*
X27310170Y-13567368D01*
X27299134Y-13585781D01*
X27286346Y-13603024D01*
X27271930Y-13618930D01*
X27256024Y-13633346D01*
X27238781Y-13646134D01*
X27220368Y-13657170D01*
X27200962Y-13666349D01*
X27180750Y-13673581D01*
X27159926Y-13678797D01*
X27138691Y-13681947D01*
X27117250Y-13683000D01*
X26679750Y-13683000D01*
X26658309Y-13681947D01*
X26637074Y-13678797D01*
X26616250Y-13673581D01*
X26596038Y-13666349D01*
X26576632Y-13657170D01*
X26558219Y-13646134D01*
X26540976Y-13633346D01*
X26525070Y-13618930D01*
X26510654Y-13603024D01*
X26497866Y-13585781D01*
X26486830Y-13567368D01*
X26477651Y-13547962D01*
X26470419Y-13527750D01*
X26465203Y-13506926D01*
X26462053Y-13485691D01*
X26461000Y-13464250D01*
X26461000Y-12951750D01*
X26462053Y-12930309D01*
X26465203Y-12909074D01*
X26470419Y-12888250D01*
X26477651Y-12868038D01*
X26486830Y-12848632D01*
X26497866Y-12830219D01*
X26510654Y-12812976D01*
X26525070Y-12797070D01*
X26540976Y-12782654D01*
X26558219Y-12769866D01*
X26576632Y-12758830D01*
X26596038Y-12749651D01*
X26616250Y-12742419D01*
X26637074Y-12737203D01*
X26658309Y-12734053D01*
X26679750Y-12733000D01*
X27117250Y-12733000D01*
X27138691Y-12734053D01*
X27138691Y-12734053D01*
G37*
D11*
G04 #@! TD*
G04 #@! TO.P,C12,1*
G04 #@! TO.N,3.3V_out*
X26898500Y-13208000D03*
D10*
G04 #@! TO.N,3.3V_out*
G04 #@! TO.C,C11*
G36*
X27113191Y-14512053D02*
X27134426Y-14515203D01*
X27155250Y-14520419D01*
X27175462Y-14527651D01*
X27194868Y-14536830D01*
X27213281Y-14547866D01*
X27230524Y-14560654D01*
X27246430Y-14575070D01*
X27260846Y-14590976D01*
X27273634Y-14608219D01*
X27284670Y-14626632D01*
X27293849Y-14646038D01*
X27301081Y-14666250D01*
X27306297Y-14687074D01*
X27309447Y-14708309D01*
X27310500Y-14729750D01*
X27310500Y-15242250D01*
X27309447Y-15263691D01*
X27306297Y-15284926D01*
X27301081Y-15305750D01*
X27293849Y-15325962D01*
X27284670Y-15345368D01*
X27273634Y-15363781D01*
X27260846Y-15381024D01*
X27246430Y-15396930D01*
X27230524Y-15411346D01*
X27213281Y-15424134D01*
X27194868Y-15435170D01*
X27175462Y-15444349D01*
X27155250Y-15451581D01*
X27134426Y-15456797D01*
X27113191Y-15459947D01*
X27091750Y-15461000D01*
X26654250Y-15461000D01*
X26632809Y-15459947D01*
X26611574Y-15456797D01*
X26590750Y-15451581D01*
X26570538Y-15444349D01*
X26551132Y-15435170D01*
X26532719Y-15424134D01*
X26515476Y-15411346D01*
X26499570Y-15396930D01*
X26485154Y-15381024D01*
X26472366Y-15363781D01*
X26461330Y-15345368D01*
X26452151Y-15325962D01*
X26444919Y-15305750D01*
X26439703Y-15284926D01*
X26436553Y-15263691D01*
X26435500Y-15242250D01*
X26435500Y-14729750D01*
X26436553Y-14708309D01*
X26439703Y-14687074D01*
X26444919Y-14666250D01*
X26452151Y-14646038D01*
X26461330Y-14626632D01*
X26472366Y-14608219D01*
X26485154Y-14590976D01*
X26499570Y-14575070D01*
X26515476Y-14560654D01*
X26532719Y-14547866D01*
X26551132Y-14536830D01*
X26570538Y-14527651D01*
X26590750Y-14520419D01*
X26611574Y-14515203D01*
X26632809Y-14512053D01*
X26654250Y-14511000D01*
X27091750Y-14511000D01*
X27113191Y-14512053D01*
X27113191Y-14512053D01*
G37*
D11*
G04 #@! TD*
G04 #@! TO.P,C11,1*
G04 #@! TO.N,3.3V_out*
X26873000Y-14986000D03*
D10*
G04 #@! TO.N,GND*
G04 #@! TO.C,C11*
G36*
X28688191Y-14512053D02*
X28709426Y-14515203D01*
X28730250Y-14520419D01*
X28750462Y-14527651D01*
X28769868Y-14536830D01*
X28788281Y-14547866D01*
X28805524Y-14560654D01*
X28821430Y-14575070D01*
X28835846Y-14590976D01*
X28848634Y-14608219D01*
X28859670Y-14626632D01*
X28868849Y-14646038D01*
X28876081Y-14666250D01*
X28881297Y-14687074D01*
X28884447Y-14708309D01*
X28885500Y-14729750D01*
X28885500Y-15242250D01*
X28884447Y-15263691D01*
X28881297Y-15284926D01*
X28876081Y-15305750D01*
X28868849Y-15325962D01*
X28859670Y-15345368D01*
X28848634Y-15363781D01*
X28835846Y-15381024D01*
X28821430Y-15396930D01*
X28805524Y-15411346D01*
X28788281Y-15424134D01*
X28769868Y-15435170D01*
X28750462Y-15444349D01*
X28730250Y-15451581D01*
X28709426Y-15456797D01*
X28688191Y-15459947D01*
X28666750Y-15461000D01*
X28229250Y-15461000D01*
X28207809Y-15459947D01*
X28186574Y-15456797D01*
X28165750Y-15451581D01*
X28145538Y-15444349D01*
X28126132Y-15435170D01*
X28107719Y-15424134D01*
X28090476Y-15411346D01*
X28074570Y-15396930D01*
X28060154Y-15381024D01*
X28047366Y-15363781D01*
X28036330Y-15345368D01*
X28027151Y-15325962D01*
X28019919Y-15305750D01*
X28014703Y-15284926D01*
X28011553Y-15263691D01*
X28010500Y-15242250D01*
X28010500Y-14729750D01*
X28011553Y-14708309D01*
X28014703Y-14687074D01*
X28019919Y-14666250D01*
X28027151Y-14646038D01*
X28036330Y-14626632D01*
X28047366Y-14608219D01*
X28060154Y-14590976D01*
X28074570Y-14575070D01*
X28090476Y-14560654D01*
X28107719Y-14547866D01*
X28126132Y-14536830D01*
X28145538Y-14527651D01*
X28165750Y-14520419D01*
X28186574Y-14515203D01*
X28207809Y-14512053D01*
X28229250Y-14511000D01*
X28666750Y-14511000D01*
X28688191Y-14512053D01*
X28688191Y-14512053D01*
G37*
D11*
G04 #@! TD*
G04 #@! TO.P,C11,2*
G04 #@! TO.N,GND*
X28448000Y-14986000D03*
D10*
G04 #@! TO.N,3.3V_out*
G04 #@! TO.C,C16*
G36*
X25423691Y-20137553D02*
X25444926Y-20140703D01*
X25465750Y-20145919D01*
X25485962Y-20153151D01*
X25505368Y-20162330D01*
X25523781Y-20173366D01*
X25541024Y-20186154D01*
X25556930Y-20200570D01*
X25571346Y-20216476D01*
X25584134Y-20233719D01*
X25595170Y-20252132D01*
X25604349Y-20271538D01*
X25611581Y-20291750D01*
X25616797Y-20312574D01*
X25619947Y-20333809D01*
X25621000Y-20355250D01*
X25621000Y-20792750D01*
X25619947Y-20814191D01*
X25616797Y-20835426D01*
X25611581Y-20856250D01*
X25604349Y-20876462D01*
X25595170Y-20895868D01*
X25584134Y-20914281D01*
X25571346Y-20931524D01*
X25556930Y-20947430D01*
X25541024Y-20961846D01*
X25523781Y-20974634D01*
X25505368Y-20985670D01*
X25485962Y-20994849D01*
X25465750Y-21002081D01*
X25444926Y-21007297D01*
X25423691Y-21010447D01*
X25402250Y-21011500D01*
X24889750Y-21011500D01*
X24868309Y-21010447D01*
X24847074Y-21007297D01*
X24826250Y-21002081D01*
X24806038Y-20994849D01*
X24786632Y-20985670D01*
X24768219Y-20974634D01*
X24750976Y-20961846D01*
X24735070Y-20947430D01*
X24720654Y-20931524D01*
X24707866Y-20914281D01*
X24696830Y-20895868D01*
X24687651Y-20876462D01*
X24680419Y-20856250D01*
X24675203Y-20835426D01*
X24672053Y-20814191D01*
X24671000Y-20792750D01*
X24671000Y-20355250D01*
X24672053Y-20333809D01*
X24675203Y-20312574D01*
X24680419Y-20291750D01*
X24687651Y-20271538D01*
X24696830Y-20252132D01*
X24707866Y-20233719D01*
X24720654Y-20216476D01*
X24735070Y-20200570D01*
X24750976Y-20186154D01*
X24768219Y-20173366D01*
X24786632Y-20162330D01*
X24806038Y-20153151D01*
X24826250Y-20145919D01*
X24847074Y-20140703D01*
X24868309Y-20137553D01*
X24889750Y-20136500D01*
X25402250Y-20136500D01*
X25423691Y-20137553D01*
X25423691Y-20137553D01*
G37*
D11*
G04 #@! TD*
G04 #@! TO.P,C16,1*
G04 #@! TO.N,3.3V_out*
X25146000Y-20574000D03*
D10*
G04 #@! TO.N,GND*
G04 #@! TO.C,C16*
G36*
X25423691Y-21712553D02*
X25444926Y-21715703D01*
X25465750Y-21720919D01*
X25485962Y-21728151D01*
X25505368Y-21737330D01*
X25523781Y-21748366D01*
X25541024Y-21761154D01*
X25556930Y-21775570D01*
X25571346Y-21791476D01*
X25584134Y-21808719D01*
X25595170Y-21827132D01*
X25604349Y-21846538D01*
X25611581Y-21866750D01*
X25616797Y-21887574D01*
X25619947Y-21908809D01*
X25621000Y-21930250D01*
X25621000Y-22367750D01*
X25619947Y-22389191D01*
X25616797Y-22410426D01*
X25611581Y-22431250D01*
X25604349Y-22451462D01*
X25595170Y-22470868D01*
X25584134Y-22489281D01*
X25571346Y-22506524D01*
X25556930Y-22522430D01*
X25541024Y-22536846D01*
X25523781Y-22549634D01*
X25505368Y-22560670D01*
X25485962Y-22569849D01*
X25465750Y-22577081D01*
X25444926Y-22582297D01*
X25423691Y-22585447D01*
X25402250Y-22586500D01*
X24889750Y-22586500D01*
X24868309Y-22585447D01*
X24847074Y-22582297D01*
X24826250Y-22577081D01*
X24806038Y-22569849D01*
X24786632Y-22560670D01*
X24768219Y-22549634D01*
X24750976Y-22536846D01*
X24735070Y-22522430D01*
X24720654Y-22506524D01*
X24707866Y-22489281D01*
X24696830Y-22470868D01*
X24687651Y-22451462D01*
X24680419Y-22431250D01*
X24675203Y-22410426D01*
X24672053Y-22389191D01*
X24671000Y-22367750D01*
X24671000Y-21930250D01*
X24672053Y-21908809D01*
X24675203Y-21887574D01*
X24680419Y-21866750D01*
X24687651Y-21846538D01*
X24696830Y-21827132D01*
X24707866Y-21808719D01*
X24720654Y-21791476D01*
X24735070Y-21775570D01*
X24750976Y-21761154D01*
X24768219Y-21748366D01*
X24786632Y-21737330D01*
X24806038Y-21728151D01*
X24826250Y-21720919D01*
X24847074Y-21715703D01*
X24868309Y-21712553D01*
X24889750Y-21711500D01*
X25402250Y-21711500D01*
X25423691Y-21712553D01*
X25423691Y-21712553D01*
G37*
D11*
G04 #@! TD*
G04 #@! TO.P,C16,2*
G04 #@! TO.N,GND*
X25146000Y-22149000D03*
D19*
G04 #@! TO.P,J15,2*
G04 #@! TO.N,Net-(J15-Pad2)*
X11462000Y-47244000D03*
D20*
G04 #@! TO.P,J15,1*
G04 #@! TO.N,3.3V_out*
X13462000Y-47244000D03*
G04 #@! TD*
G04 #@! TO.P,J12,1*
G04 #@! TO.N,PUSH2*
X22098000Y-47244000D03*
D19*
G04 #@! TO.P,J12,2*
G04 #@! TO.N,3.3V_ARD*
X24098000Y-47244000D03*
G04 #@! TD*
D20*
G04 #@! TO.P,J11,1*
G04 #@! TO.N,PUSH*
X22098000Y-41402000D03*
D19*
G04 #@! TO.P,J11,2*
G04 #@! TO.N,3.3V_ARD*
X24098000Y-41402000D03*
G04 #@! TD*
D21*
G04 #@! TO.P,J14,3*
G04 #@! TO.N,Vhall*
X4445000Y-8445000D03*
G04 #@! TO.P,J14,2*
G04 #@! TO.N,GND*
X4445000Y-6445000D03*
D22*
G04 #@! TO.P,J14,1*
G04 #@! TO.N,5V*
X4445000Y-4445000D03*
G04 #@! TD*
D21*
G04 #@! TO.P,J6,4*
G04 #@! TO.N,GND*
X3175000Y-15209000D03*
G04 #@! TO.P,J6,3*
G04 #@! TO.N,SDA*
X3175000Y-17209000D03*
G04 #@! TO.P,J6,2*
G04 #@! TO.N,SCL*
X3175000Y-19209000D03*
D22*
G04 #@! TO.P,J6,1*
G04 #@! TO.N,3.3V_out*
X3175000Y-21209000D03*
G04 #@! TD*
G04 #@! TO.P,J7,1*
G04 #@! TO.N,3.3V_out*
X2921000Y-32639000D03*
D21*
G04 #@! TO.P,J7,2*
G04 #@! TO.N,SCL*
X2921000Y-30639000D03*
G04 #@! TO.P,J7,3*
G04 #@! TO.N,SDA*
X2921000Y-28639000D03*
G04 #@! TO.P,J7,4*
G04 #@! TO.N,GND*
X2921000Y-26639000D03*
G04 #@! TD*
D12*
G04 #@! TO.P,J2,1*
G04 #@! TO.N,Vpi*
X34036000Y-3048000D03*
D13*
G04 #@! TO.P,J2,2*
G04 #@! TO.N,5V*
X34036000Y-5588000D03*
G04 #@! TD*
D12*
G04 #@! TO.P,U6,1*
G04 #@! TO.N,3.3V_out*
X3048000Y-49276000D03*
D13*
G04 #@! TO.P,U6,2*
G04 #@! TO.N,GND*
X3048000Y-46736000D03*
G04 #@! TO.P,U6,3*
G04 #@! TO.N,SCL*
X3048000Y-44196000D03*
G04 #@! TO.P,U6,4*
G04 #@! TO.N,SDA*
X3048000Y-41656000D03*
G04 #@! TD*
D12*
G04 #@! TO.P,J1,1*
G04 #@! TO.N,MISO*
X8890000Y-29718000D03*
D13*
G04 #@! TO.P,J1,2*
G04 #@! TO.N,3.3V_ARD*
X11430000Y-29718000D03*
G04 #@! TO.P,J1,3*
G04 #@! TO.N,SCK*
X8890000Y-32258000D03*
G04 #@! TO.P,J1,4*
G04 #@! TO.N,MOSI*
X11430000Y-32258000D03*
G04 #@! TO.P,J1,5*
G04 #@! TO.N,RST*
X8890000Y-34798000D03*
G04 #@! TO.P,J1,6*
G04 #@! TO.N,GND*
X11430000Y-34798000D03*
G04 #@! TD*
D23*
G04 #@! TO.P,U10,4*
G04 #@! TO.N,SCL*
X30235000Y-20361000D03*
G04 #@! TO.P,U10,3*
G04 #@! TO.N,SDA*
X30235000Y-21011000D03*
G04 #@! TO.P,U10,2*
G04 #@! TO.N,Net-(U10-Pad2)*
X30235000Y-21661000D03*
G04 #@! TO.P,U10,1*
G04 #@! TO.N,GND*
X30235000Y-22311000D03*
G04 #@! TO.P,U10,8*
G04 #@! TO.N,3.3V_out*
X28185000Y-22311000D03*
G04 #@! TO.P,U10,7*
G04 #@! TO.N,GND*
X28185000Y-21661000D03*
G04 #@! TO.P,U10,6*
G04 #@! TO.N,3.3V_out*
X28185000Y-21011000D03*
G04 #@! TO.P,U10,5*
G04 #@! TO.N,Net-(R30-Pad2)*
X28185000Y-20361000D03*
G04 #@! TD*
D24*
G04 #@! TO.P,U9,1*
G04 #@! TO.N,Net-(R28-Pad2)*
X24986000Y-11303000D03*
G04 #@! TO.P,U9,2*
G04 #@! TO.N,3.3V_out*
X24986000Y-10033000D03*
G04 #@! TO.P,U9,3*
G04 #@! TO.N,alarm*
X24986000Y-8763000D03*
G04 #@! TO.P,U9,4*
G04 #@! TO.N,Net-(U9-Pad4)*
X24986000Y-7493000D03*
G04 #@! TO.P,U9,5*
G04 #@! TO.N,GND*
X30386000Y-7493000D03*
G04 #@! TO.P,U9,6*
G04 #@! TO.N,Net-(U7-Pad3)*
X30386000Y-8763000D03*
G04 #@! TO.P,U9,7*
G04 #@! TO.N,SDA*
X30386000Y-10033000D03*
G04 #@! TO.P,U9,8*
G04 #@! TO.N,SCL*
X30386000Y-11303000D03*
G04 #@! TD*
D10*
G04 #@! TO.N,SDA*
G04 #@! TO.C,R9*
G36*
X36333691Y-10702053D02*
X36354926Y-10705203D01*
X36375750Y-10710419D01*
X36395962Y-10717651D01*
X36415368Y-10726830D01*
X36433781Y-10737866D01*
X36451024Y-10750654D01*
X36466930Y-10765070D01*
X36481346Y-10780976D01*
X36494134Y-10798219D01*
X36505170Y-10816632D01*
X36514349Y-10836038D01*
X36521581Y-10856250D01*
X36526797Y-10877074D01*
X36529947Y-10898309D01*
X36531000Y-10919750D01*
X36531000Y-11432250D01*
X36529947Y-11453691D01*
X36526797Y-11474926D01*
X36521581Y-11495750D01*
X36514349Y-11515962D01*
X36505170Y-11535368D01*
X36494134Y-11553781D01*
X36481346Y-11571024D01*
X36466930Y-11586930D01*
X36451024Y-11601346D01*
X36433781Y-11614134D01*
X36415368Y-11625170D01*
X36395962Y-11634349D01*
X36375750Y-11641581D01*
X36354926Y-11646797D01*
X36333691Y-11649947D01*
X36312250Y-11651000D01*
X35874750Y-11651000D01*
X35853309Y-11649947D01*
X35832074Y-11646797D01*
X35811250Y-11641581D01*
X35791038Y-11634349D01*
X35771632Y-11625170D01*
X35753219Y-11614134D01*
X35735976Y-11601346D01*
X35720070Y-11586930D01*
X35705654Y-11571024D01*
X35692866Y-11553781D01*
X35681830Y-11535368D01*
X35672651Y-11515962D01*
X35665419Y-11495750D01*
X35660203Y-11474926D01*
X35657053Y-11453691D01*
X35656000Y-11432250D01*
X35656000Y-10919750D01*
X35657053Y-10898309D01*
X35660203Y-10877074D01*
X35665419Y-10856250D01*
X35672651Y-10836038D01*
X35681830Y-10816632D01*
X35692866Y-10798219D01*
X35705654Y-10780976D01*
X35720070Y-10765070D01*
X35735976Y-10750654D01*
X35753219Y-10737866D01*
X35771632Y-10726830D01*
X35791038Y-10717651D01*
X35811250Y-10710419D01*
X35832074Y-10705203D01*
X35853309Y-10702053D01*
X35874750Y-10701000D01*
X36312250Y-10701000D01*
X36333691Y-10702053D01*
X36333691Y-10702053D01*
G37*
D11*
G04 #@! TD*
G04 #@! TO.P,R9,2*
G04 #@! TO.N,SDA*
X36093500Y-11176000D03*
D10*
G04 #@! TO.N,3.3V_ARD*
G04 #@! TO.C,R9*
G36*
X34758691Y-10702053D02*
X34779926Y-10705203D01*
X34800750Y-10710419D01*
X34820962Y-10717651D01*
X34840368Y-10726830D01*
X34858781Y-10737866D01*
X34876024Y-10750654D01*
X34891930Y-10765070D01*
X34906346Y-10780976D01*
X34919134Y-10798219D01*
X34930170Y-10816632D01*
X34939349Y-10836038D01*
X34946581Y-10856250D01*
X34951797Y-10877074D01*
X34954947Y-10898309D01*
X34956000Y-10919750D01*
X34956000Y-11432250D01*
X34954947Y-11453691D01*
X34951797Y-11474926D01*
X34946581Y-11495750D01*
X34939349Y-11515962D01*
X34930170Y-11535368D01*
X34919134Y-11553781D01*
X34906346Y-11571024D01*
X34891930Y-11586930D01*
X34876024Y-11601346D01*
X34858781Y-11614134D01*
X34840368Y-11625170D01*
X34820962Y-11634349D01*
X34800750Y-11641581D01*
X34779926Y-11646797D01*
X34758691Y-11649947D01*
X34737250Y-11651000D01*
X34299750Y-11651000D01*
X34278309Y-11649947D01*
X34257074Y-11646797D01*
X34236250Y-11641581D01*
X34216038Y-11634349D01*
X34196632Y-11625170D01*
X34178219Y-11614134D01*
X34160976Y-11601346D01*
X34145070Y-11586930D01*
X34130654Y-11571024D01*
X34117866Y-11553781D01*
X34106830Y-11535368D01*
X34097651Y-11515962D01*
X34090419Y-11495750D01*
X34085203Y-11474926D01*
X34082053Y-11453691D01*
X34081000Y-11432250D01*
X34081000Y-10919750D01*
X34082053Y-10898309D01*
X34085203Y-10877074D01*
X34090419Y-10856250D01*
X34097651Y-10836038D01*
X34106830Y-10816632D01*
X34117866Y-10798219D01*
X34130654Y-10780976D01*
X34145070Y-10765070D01*
X34160976Y-10750654D01*
X34178219Y-10737866D01*
X34196632Y-10726830D01*
X34216038Y-10717651D01*
X34236250Y-10710419D01*
X34257074Y-10705203D01*
X34278309Y-10702053D01*
X34299750Y-10701000D01*
X34737250Y-10701000D01*
X34758691Y-10702053D01*
X34758691Y-10702053D01*
G37*
D11*
G04 #@! TD*
G04 #@! TO.P,R9,1*
G04 #@! TO.N,3.3V_ARD*
X34518500Y-11176000D03*
D10*
G04 #@! TO.N,3.3V_ARD*
G04 #@! TO.C,R10*
G36*
X34733191Y-12734053D02*
X34754426Y-12737203D01*
X34775250Y-12742419D01*
X34795462Y-12749651D01*
X34814868Y-12758830D01*
X34833281Y-12769866D01*
X34850524Y-12782654D01*
X34866430Y-12797070D01*
X34880846Y-12812976D01*
X34893634Y-12830219D01*
X34904670Y-12848632D01*
X34913849Y-12868038D01*
X34921081Y-12888250D01*
X34926297Y-12909074D01*
X34929447Y-12930309D01*
X34930500Y-12951750D01*
X34930500Y-13464250D01*
X34929447Y-13485691D01*
X34926297Y-13506926D01*
X34921081Y-13527750D01*
X34913849Y-13547962D01*
X34904670Y-13567368D01*
X34893634Y-13585781D01*
X34880846Y-13603024D01*
X34866430Y-13618930D01*
X34850524Y-13633346D01*
X34833281Y-13646134D01*
X34814868Y-13657170D01*
X34795462Y-13666349D01*
X34775250Y-13673581D01*
X34754426Y-13678797D01*
X34733191Y-13681947D01*
X34711750Y-13683000D01*
X34274250Y-13683000D01*
X34252809Y-13681947D01*
X34231574Y-13678797D01*
X34210750Y-13673581D01*
X34190538Y-13666349D01*
X34171132Y-13657170D01*
X34152719Y-13646134D01*
X34135476Y-13633346D01*
X34119570Y-13618930D01*
X34105154Y-13603024D01*
X34092366Y-13585781D01*
X34081330Y-13567368D01*
X34072151Y-13547962D01*
X34064919Y-13527750D01*
X34059703Y-13506926D01*
X34056553Y-13485691D01*
X34055500Y-13464250D01*
X34055500Y-12951750D01*
X34056553Y-12930309D01*
X34059703Y-12909074D01*
X34064919Y-12888250D01*
X34072151Y-12868038D01*
X34081330Y-12848632D01*
X34092366Y-12830219D01*
X34105154Y-12812976D01*
X34119570Y-12797070D01*
X34135476Y-12782654D01*
X34152719Y-12769866D01*
X34171132Y-12758830D01*
X34190538Y-12749651D01*
X34210750Y-12742419D01*
X34231574Y-12737203D01*
X34252809Y-12734053D01*
X34274250Y-12733000D01*
X34711750Y-12733000D01*
X34733191Y-12734053D01*
X34733191Y-12734053D01*
G37*
D11*
G04 #@! TD*
G04 #@! TO.P,R10,1*
G04 #@! TO.N,3.3V_ARD*
X34493000Y-13208000D03*
D10*
G04 #@! TO.N,SCL*
G04 #@! TO.C,R10*
G36*
X36308191Y-12734053D02*
X36329426Y-12737203D01*
X36350250Y-12742419D01*
X36370462Y-12749651D01*
X36389868Y-12758830D01*
X36408281Y-12769866D01*
X36425524Y-12782654D01*
X36441430Y-12797070D01*
X36455846Y-12812976D01*
X36468634Y-12830219D01*
X36479670Y-12848632D01*
X36488849Y-12868038D01*
X36496081Y-12888250D01*
X36501297Y-12909074D01*
X36504447Y-12930309D01*
X36505500Y-12951750D01*
X36505500Y-13464250D01*
X36504447Y-13485691D01*
X36501297Y-13506926D01*
X36496081Y-13527750D01*
X36488849Y-13547962D01*
X36479670Y-13567368D01*
X36468634Y-13585781D01*
X36455846Y-13603024D01*
X36441430Y-13618930D01*
X36425524Y-13633346D01*
X36408281Y-13646134D01*
X36389868Y-13657170D01*
X36370462Y-13666349D01*
X36350250Y-13673581D01*
X36329426Y-13678797D01*
X36308191Y-13681947D01*
X36286750Y-13683000D01*
X35849250Y-13683000D01*
X35827809Y-13681947D01*
X35806574Y-13678797D01*
X35785750Y-13673581D01*
X35765538Y-13666349D01*
X35746132Y-13657170D01*
X35727719Y-13646134D01*
X35710476Y-13633346D01*
X35694570Y-13618930D01*
X35680154Y-13603024D01*
X35667366Y-13585781D01*
X35656330Y-13567368D01*
X35647151Y-13547962D01*
X35639919Y-13527750D01*
X35634703Y-13506926D01*
X35631553Y-13485691D01*
X35630500Y-13464250D01*
X35630500Y-12951750D01*
X35631553Y-12930309D01*
X35634703Y-12909074D01*
X35639919Y-12888250D01*
X35647151Y-12868038D01*
X35656330Y-12848632D01*
X35667366Y-12830219D01*
X35680154Y-12812976D01*
X35694570Y-12797070D01*
X35710476Y-12782654D01*
X35727719Y-12769866D01*
X35746132Y-12758830D01*
X35765538Y-12749651D01*
X35785750Y-12742419D01*
X35806574Y-12737203D01*
X35827809Y-12734053D01*
X35849250Y-12733000D01*
X36286750Y-12733000D01*
X36308191Y-12734053D01*
X36308191Y-12734053D01*
G37*
D11*
G04 #@! TD*
G04 #@! TO.P,R10,2*
G04 #@! TO.N,SCL*
X36068000Y-13208000D03*
D10*
G04 #@! TO.N,3.3V_out*
G04 #@! TO.C,R28*
G36*
X22883691Y-10231553D02*
X22904926Y-10234703D01*
X22925750Y-10239919D01*
X22945962Y-10247151D01*
X22965368Y-10256330D01*
X22983781Y-10267366D01*
X23001024Y-10280154D01*
X23016930Y-10294570D01*
X23031346Y-10310476D01*
X23044134Y-10327719D01*
X23055170Y-10346132D01*
X23064349Y-10365538D01*
X23071581Y-10385750D01*
X23076797Y-10406574D01*
X23079947Y-10427809D01*
X23081000Y-10449250D01*
X23081000Y-10886750D01*
X23079947Y-10908191D01*
X23076797Y-10929426D01*
X23071581Y-10950250D01*
X23064349Y-10970462D01*
X23055170Y-10989868D01*
X23044134Y-11008281D01*
X23031346Y-11025524D01*
X23016930Y-11041430D01*
X23001024Y-11055846D01*
X22983781Y-11068634D01*
X22965368Y-11079670D01*
X22945962Y-11088849D01*
X22925750Y-11096081D01*
X22904926Y-11101297D01*
X22883691Y-11104447D01*
X22862250Y-11105500D01*
X22349750Y-11105500D01*
X22328309Y-11104447D01*
X22307074Y-11101297D01*
X22286250Y-11096081D01*
X22266038Y-11088849D01*
X22246632Y-11079670D01*
X22228219Y-11068634D01*
X22210976Y-11055846D01*
X22195070Y-11041430D01*
X22180654Y-11025524D01*
X22167866Y-11008281D01*
X22156830Y-10989868D01*
X22147651Y-10970462D01*
X22140419Y-10950250D01*
X22135203Y-10929426D01*
X22132053Y-10908191D01*
X22131000Y-10886750D01*
X22131000Y-10449250D01*
X22132053Y-10427809D01*
X22135203Y-10406574D01*
X22140419Y-10385750D01*
X22147651Y-10365538D01*
X22156830Y-10346132D01*
X22167866Y-10327719D01*
X22180654Y-10310476D01*
X22195070Y-10294570D01*
X22210976Y-10280154D01*
X22228219Y-10267366D01*
X22246632Y-10256330D01*
X22266038Y-10247151D01*
X22286250Y-10239919D01*
X22307074Y-10234703D01*
X22328309Y-10231553D01*
X22349750Y-10230500D01*
X22862250Y-10230500D01*
X22883691Y-10231553D01*
X22883691Y-10231553D01*
G37*
D11*
G04 #@! TD*
G04 #@! TO.P,R28,1*
G04 #@! TO.N,3.3V_out*
X22606000Y-10668000D03*
D10*
G04 #@! TO.N,Net-(R28-Pad2)*
G04 #@! TO.C,R28*
G36*
X22883691Y-11806553D02*
X22904926Y-11809703D01*
X22925750Y-11814919D01*
X22945962Y-11822151D01*
X22965368Y-11831330D01*
X22983781Y-11842366D01*
X23001024Y-11855154D01*
X23016930Y-11869570D01*
X23031346Y-11885476D01*
X23044134Y-11902719D01*
X23055170Y-11921132D01*
X23064349Y-11940538D01*
X23071581Y-11960750D01*
X23076797Y-11981574D01*
X23079947Y-12002809D01*
X23081000Y-12024250D01*
X23081000Y-12461750D01*
X23079947Y-12483191D01*
X23076797Y-12504426D01*
X23071581Y-12525250D01*
X23064349Y-12545462D01*
X23055170Y-12564868D01*
X23044134Y-12583281D01*
X23031346Y-12600524D01*
X23016930Y-12616430D01*
X23001024Y-12630846D01*
X22983781Y-12643634D01*
X22965368Y-12654670D01*
X22945962Y-12663849D01*
X22925750Y-12671081D01*
X22904926Y-12676297D01*
X22883691Y-12679447D01*
X22862250Y-12680500D01*
X22349750Y-12680500D01*
X22328309Y-12679447D01*
X22307074Y-12676297D01*
X22286250Y-12671081D01*
X22266038Y-12663849D01*
X22246632Y-12654670D01*
X22228219Y-12643634D01*
X22210976Y-12630846D01*
X22195070Y-12616430D01*
X22180654Y-12600524D01*
X22167866Y-12583281D01*
X22156830Y-12564868D01*
X22147651Y-12545462D01*
X22140419Y-12525250D01*
X22135203Y-12504426D01*
X22132053Y-12483191D01*
X22131000Y-12461750D01*
X22131000Y-12024250D01*
X22132053Y-12002809D01*
X22135203Y-11981574D01*
X22140419Y-11960750D01*
X22147651Y-11940538D01*
X22156830Y-11921132D01*
X22167866Y-11902719D01*
X22180654Y-11885476D01*
X22195070Y-11869570D01*
X22210976Y-11855154D01*
X22228219Y-11842366D01*
X22246632Y-11831330D01*
X22266038Y-11822151D01*
X22286250Y-11814919D01*
X22307074Y-11809703D01*
X22328309Y-11806553D01*
X22349750Y-11805500D01*
X22862250Y-11805500D01*
X22883691Y-11806553D01*
X22883691Y-11806553D01*
G37*
D11*
G04 #@! TD*
G04 #@! TO.P,R28,2*
G04 #@! TO.N,Net-(R28-Pad2)*
X22606000Y-12243000D03*
D10*
G04 #@! TO.N,alarm*
G04 #@! TO.C,R29*
G36*
X22883691Y-7158053D02*
X22904926Y-7161203D01*
X22925750Y-7166419D01*
X22945962Y-7173651D01*
X22965368Y-7182830D01*
X22983781Y-7193866D01*
X23001024Y-7206654D01*
X23016930Y-7221070D01*
X23031346Y-7236976D01*
X23044134Y-7254219D01*
X23055170Y-7272632D01*
X23064349Y-7292038D01*
X23071581Y-7312250D01*
X23076797Y-7333074D01*
X23079947Y-7354309D01*
X23081000Y-7375750D01*
X23081000Y-7813250D01*
X23079947Y-7834691D01*
X23076797Y-7855926D01*
X23071581Y-7876750D01*
X23064349Y-7896962D01*
X23055170Y-7916368D01*
X23044134Y-7934781D01*
X23031346Y-7952024D01*
X23016930Y-7967930D01*
X23001024Y-7982346D01*
X22983781Y-7995134D01*
X22965368Y-8006170D01*
X22945962Y-8015349D01*
X22925750Y-8022581D01*
X22904926Y-8027797D01*
X22883691Y-8030947D01*
X22862250Y-8032000D01*
X22349750Y-8032000D01*
X22328309Y-8030947D01*
X22307074Y-8027797D01*
X22286250Y-8022581D01*
X22266038Y-8015349D01*
X22246632Y-8006170D01*
X22228219Y-7995134D01*
X22210976Y-7982346D01*
X22195070Y-7967930D01*
X22180654Y-7952024D01*
X22167866Y-7934781D01*
X22156830Y-7916368D01*
X22147651Y-7896962D01*
X22140419Y-7876750D01*
X22135203Y-7855926D01*
X22132053Y-7834691D01*
X22131000Y-7813250D01*
X22131000Y-7375750D01*
X22132053Y-7354309D01*
X22135203Y-7333074D01*
X22140419Y-7312250D01*
X22147651Y-7292038D01*
X22156830Y-7272632D01*
X22167866Y-7254219D01*
X22180654Y-7236976D01*
X22195070Y-7221070D01*
X22210976Y-7206654D01*
X22228219Y-7193866D01*
X22246632Y-7182830D01*
X22266038Y-7173651D01*
X22286250Y-7166419D01*
X22307074Y-7161203D01*
X22328309Y-7158053D01*
X22349750Y-7157000D01*
X22862250Y-7157000D01*
X22883691Y-7158053D01*
X22883691Y-7158053D01*
G37*
D11*
G04 #@! TD*
G04 #@! TO.P,R29,2*
G04 #@! TO.N,alarm*
X22606000Y-7594500D03*
D10*
G04 #@! TO.N,3.3V_out*
G04 #@! TO.C,R29*
G36*
X22883691Y-8733053D02*
X22904926Y-8736203D01*
X22925750Y-8741419D01*
X22945962Y-8748651D01*
X22965368Y-8757830D01*
X22983781Y-8768866D01*
X23001024Y-8781654D01*
X23016930Y-8796070D01*
X23031346Y-8811976D01*
X23044134Y-8829219D01*
X23055170Y-8847632D01*
X23064349Y-8867038D01*
X23071581Y-8887250D01*
X23076797Y-8908074D01*
X23079947Y-8929309D01*
X23081000Y-8950750D01*
X23081000Y-9388250D01*
X23079947Y-9409691D01*
X23076797Y-9430926D01*
X23071581Y-9451750D01*
X23064349Y-9471962D01*
X23055170Y-9491368D01*
X23044134Y-9509781D01*
X23031346Y-9527024D01*
X23016930Y-9542930D01*
X23001024Y-9557346D01*
X22983781Y-9570134D01*
X22965368Y-9581170D01*
X22945962Y-9590349D01*
X22925750Y-9597581D01*
X22904926Y-9602797D01*
X22883691Y-9605947D01*
X22862250Y-9607000D01*
X22349750Y-9607000D01*
X22328309Y-9605947D01*
X22307074Y-9602797D01*
X22286250Y-9597581D01*
X22266038Y-9590349D01*
X22246632Y-9581170D01*
X22228219Y-9570134D01*
X22210976Y-9557346D01*
X22195070Y-9542930D01*
X22180654Y-9527024D01*
X22167866Y-9509781D01*
X22156830Y-9491368D01*
X22147651Y-9471962D01*
X22140419Y-9451750D01*
X22135203Y-9430926D01*
X22132053Y-9409691D01*
X22131000Y-9388250D01*
X22131000Y-8950750D01*
X22132053Y-8929309D01*
X22135203Y-8908074D01*
X22140419Y-8887250D01*
X22147651Y-8867038D01*
X22156830Y-8847632D01*
X22167866Y-8829219D01*
X22180654Y-8811976D01*
X22195070Y-8796070D01*
X22210976Y-8781654D01*
X22228219Y-8768866D01*
X22246632Y-8757830D01*
X22266038Y-8748651D01*
X22286250Y-8741419D01*
X22307074Y-8736203D01*
X22328309Y-8733053D01*
X22349750Y-8732000D01*
X22862250Y-8732000D01*
X22883691Y-8733053D01*
X22883691Y-8733053D01*
G37*
D11*
G04 #@! TD*
G04 #@! TO.P,R29,1*
G04 #@! TO.N,3.3V_out*
X22606000Y-9169500D03*
D10*
G04 #@! TO.N,3.3V_out*
G04 #@! TO.C,R30*
G36*
X26884691Y-18576053D02*
X26905926Y-18579203D01*
X26926750Y-18584419D01*
X26946962Y-18591651D01*
X26966368Y-18600830D01*
X26984781Y-18611866D01*
X27002024Y-18624654D01*
X27017930Y-18639070D01*
X27032346Y-18654976D01*
X27045134Y-18672219D01*
X27056170Y-18690632D01*
X27065349Y-18710038D01*
X27072581Y-18730250D01*
X27077797Y-18751074D01*
X27080947Y-18772309D01*
X27082000Y-18793750D01*
X27082000Y-19306250D01*
X27080947Y-19327691D01*
X27077797Y-19348926D01*
X27072581Y-19369750D01*
X27065349Y-19389962D01*
X27056170Y-19409368D01*
X27045134Y-19427781D01*
X27032346Y-19445024D01*
X27017930Y-19460930D01*
X27002024Y-19475346D01*
X26984781Y-19488134D01*
X26966368Y-19499170D01*
X26946962Y-19508349D01*
X26926750Y-19515581D01*
X26905926Y-19520797D01*
X26884691Y-19523947D01*
X26863250Y-19525000D01*
X26425750Y-19525000D01*
X26404309Y-19523947D01*
X26383074Y-19520797D01*
X26362250Y-19515581D01*
X26342038Y-19508349D01*
X26322632Y-19499170D01*
X26304219Y-19488134D01*
X26286976Y-19475346D01*
X26271070Y-19460930D01*
X26256654Y-19445024D01*
X26243866Y-19427781D01*
X26232830Y-19409368D01*
X26223651Y-19389962D01*
X26216419Y-19369750D01*
X26211203Y-19348926D01*
X26208053Y-19327691D01*
X26207000Y-19306250D01*
X26207000Y-18793750D01*
X26208053Y-18772309D01*
X26211203Y-18751074D01*
X26216419Y-18730250D01*
X26223651Y-18710038D01*
X26232830Y-18690632D01*
X26243866Y-18672219D01*
X26256654Y-18654976D01*
X26271070Y-18639070D01*
X26286976Y-18624654D01*
X26304219Y-18611866D01*
X26322632Y-18600830D01*
X26342038Y-18591651D01*
X26362250Y-18584419D01*
X26383074Y-18579203D01*
X26404309Y-18576053D01*
X26425750Y-18575000D01*
X26863250Y-18575000D01*
X26884691Y-18576053D01*
X26884691Y-18576053D01*
G37*
D11*
G04 #@! TD*
G04 #@! TO.P,R30,1*
G04 #@! TO.N,3.3V_out*
X26644500Y-19050000D03*
D10*
G04 #@! TO.N,Net-(R30-Pad2)*
G04 #@! TO.C,R30*
G36*
X28459691Y-18576053D02*
X28480926Y-18579203D01*
X28501750Y-18584419D01*
X28521962Y-18591651D01*
X28541368Y-18600830D01*
X28559781Y-18611866D01*
X28577024Y-18624654D01*
X28592930Y-18639070D01*
X28607346Y-18654976D01*
X28620134Y-18672219D01*
X28631170Y-18690632D01*
X28640349Y-18710038D01*
X28647581Y-18730250D01*
X28652797Y-18751074D01*
X28655947Y-18772309D01*
X28657000Y-18793750D01*
X28657000Y-19306250D01*
X28655947Y-19327691D01*
X28652797Y-19348926D01*
X28647581Y-19369750D01*
X28640349Y-19389962D01*
X28631170Y-19409368D01*
X28620134Y-19427781D01*
X28607346Y-19445024D01*
X28592930Y-19460930D01*
X28577024Y-19475346D01*
X28559781Y-19488134D01*
X28541368Y-19499170D01*
X28521962Y-19508349D01*
X28501750Y-19515581D01*
X28480926Y-19520797D01*
X28459691Y-19523947D01*
X28438250Y-19525000D01*
X28000750Y-19525000D01*
X27979309Y-19523947D01*
X27958074Y-19520797D01*
X27937250Y-19515581D01*
X27917038Y-19508349D01*
X27897632Y-19499170D01*
X27879219Y-19488134D01*
X27861976Y-19475346D01*
X27846070Y-19460930D01*
X27831654Y-19445024D01*
X27818866Y-19427781D01*
X27807830Y-19409368D01*
X27798651Y-19389962D01*
X27791419Y-19369750D01*
X27786203Y-19348926D01*
X27783053Y-19327691D01*
X27782000Y-19306250D01*
X27782000Y-18793750D01*
X27783053Y-18772309D01*
X27786203Y-18751074D01*
X27791419Y-18730250D01*
X27798651Y-18710038D01*
X27807830Y-18690632D01*
X27818866Y-18672219D01*
X27831654Y-18654976D01*
X27846070Y-18639070D01*
X27861976Y-18624654D01*
X27879219Y-18611866D01*
X27897632Y-18600830D01*
X27917038Y-18591651D01*
X27937250Y-18584419D01*
X27958074Y-18579203D01*
X27979309Y-18576053D01*
X28000750Y-18575000D01*
X28438250Y-18575000D01*
X28459691Y-18576053D01*
X28459691Y-18576053D01*
G37*
D11*
G04 #@! TD*
G04 #@! TO.P,R30,2*
G04 #@! TO.N,Net-(R30-Pad2)*
X28219500Y-19050000D03*
D18*
G04 #@! TO.P,J3,1*
G04 #@! TO.N,GND*
X11938000Y-2000000D03*
G04 #@! TO.P,J3,2*
G04 #@! TO.N,V_BATT*
X13438000Y-2000000D03*
G04 #@! TO.P,J3,3*
G04 #@! TO.N,I_BATT*
X14938000Y-2000000D03*
G04 #@! TO.P,J3,4*
G04 #@! TO.N,3.3V_ARD*
X16438000Y-2000000D03*
G04 #@! TO.P,J3,5*
G04 #@! TO.N,5V_EN*
X17938000Y-2000000D03*
G04 #@! TO.P,J3,6*
G04 #@! TO.N,/powerControl/5V_IN*
X19438000Y-2000000D03*
G04 #@! TD*
D25*
G04 #@! TO.N,GND*
X29718000Y-56134000D03*
X32004000Y-8382000D03*
X29180002Y-3832008D03*
X31242000Y-49276000D03*
X30226000Y-47244000D03*
X33274000Y-37846000D03*
X23368000Y-23876000D03*
X27178000Y-22860000D03*
X29972000Y-22860000D03*
X16510000Y-18415000D03*
X28194000Y-11684000D03*
X23150990Y-34604657D03*
X35814000Y-16764000D03*
X13208000Y-30734000D03*
X33020000Y-44196000D03*
X32004000Y-44196000D03*
X36830000Y-17907000D03*
G04 #@! TO.N,V_BATT*
X15997830Y-31750000D03*
X23898404Y-32593813D03*
G04 #@! TO.N,I_BATT*
X16722840Y-30738160D03*
X22737292Y-32505076D03*
G04 #@! TO.N,3.3V_ARD*
X21388677Y-28992990D03*
X22352000Y-49276000D03*
X20066000Y-37592000D03*
X7620000Y-27432000D03*
X22875987Y-38354000D03*
X29972000Y-4826000D03*
X34417000Y-14859000D03*
X34380010Y-26245378D03*
G04 #@! TO.N,3.3V_out*
X15997340Y-37342660D03*
X29068933Y-25103523D03*
X26198990Y-18034000D03*
X25373269Y-16195079D03*
X31818160Y-27109840D03*
G04 #@! TO.N,RST*
X18542000Y-38608000D03*
X26068176Y-38309073D03*
G04 #@! TO.N,SDA*
X25798427Y-32912716D03*
G04 #@! TO.N,SCL*
X30480000Y-19050000D03*
X25711297Y-31035560D03*
X28315104Y-17165628D03*
G04 #@! TO.N,3.3V_CTL*
X25400000Y-29210000D03*
X28306458Y-25750558D03*
G04 #@! TO.N,PUSH*
X35306000Y-44450000D03*
X28265011Y-44740990D03*
G04 #@! TO.N,PUSH2*
X27686000Y-49276000D03*
X36744112Y-43612478D03*
G04 #@! TO.N,Vhall*
X10160000Y-11430000D03*
X28702000Y-28956000D03*
X27395010Y-26162000D03*
X23839010Y-22692326D03*
X30938434Y-33822758D03*
X23337844Y-17157924D03*
G04 #@! TO.N,Flash*
X16002000Y-28710002D03*
X19267010Y-40640000D03*
G04 #@! TO.N,FAN_CTL*
X24130000Y-30226000D03*
X17780000Y-41148000D03*
X30572767Y-34824835D03*
G04 #@! TO.N,LED_EN*
X24892000Y-38354000D03*
X37084000Y-42672000D03*
X23248630Y-29732391D03*
G04 #@! TO.N,Torch*
X22003122Y-50650198D03*
G04 #@! TO.N,PI_CTL*
X23478520Y-21068755D03*
X22403457Y-31562431D03*
G04 #@! TO.N,alarm*
X24257000Y-16764000D03*
G04 #@! TO.N,5V*
X12192000Y-9398000D03*
X22733000Y-4572000D03*
G04 #@! TO.N,RXD*
X27686000Y-46228000D03*
X27896624Y-38780670D03*
X30686563Y-28472375D03*
G04 #@! TO.N,TXD*
X29704500Y-28702000D03*
X26281450Y-46445010D03*
X26900090Y-38863999D03*
G04 #@! TO.N,Net-(R1-Pad2)*
X25864267Y-23795269D03*
X25032733Y-25631607D03*
G04 #@! TO.N,I_LED*
X22171361Y-51635957D03*
G04 #@! TO.N,I_PI*
X27813000Y-1778000D03*
X12483000Y-11176000D03*
X14997817Y-31750000D03*
X21296643Y-33812037D03*
G04 #@! TO.N,PI_SIG*
X14478000Y-32766000D03*
X23876000Y-38354000D03*
X25908000Y-40640000D03*
X33782000Y-32746021D03*
G04 #@! TD*
D26*
G04 #@! TO.N,GND*
X24571000Y-22149000D02*
X25146000Y-22149000D01*
X23710287Y-21755713D02*
X24177713Y-21755713D01*
X22860000Y-22606000D02*
X23710287Y-21755713D01*
X22860000Y-23114000D02*
X22860000Y-22606000D01*
X22968001Y-23476001D02*
X22968001Y-23222001D01*
X23368000Y-23876000D02*
X22968001Y-23476001D01*
X24177713Y-21755713D02*
X24571000Y-22149000D01*
X22968001Y-23222001D02*
X22860000Y-23114000D01*
X27158000Y-21661000D02*
X28185000Y-21661000D01*
X26670000Y-22149000D02*
X27158000Y-21661000D01*
X26670000Y-22149000D02*
X26670000Y-22352000D01*
X26670000Y-22352000D02*
X27178000Y-22860000D01*
X30235000Y-22597000D02*
X29972000Y-22860000D01*
X30235000Y-22311000D02*
X30235000Y-22597000D01*
X11430000Y-34798000D02*
X12279999Y-35647999D01*
X22107648Y-35647999D02*
X22750991Y-35004656D01*
X12279999Y-35647999D02*
X22107648Y-35647999D01*
X22750991Y-35004656D02*
X23150990Y-34604657D01*
X11430000Y-34798000D02*
X13208000Y-33020000D01*
X13208000Y-33020000D02*
X13208000Y-30734000D01*
X33274000Y-37846000D02*
X34798000Y-36322000D01*
D27*
X36068000Y-21590000D02*
X40132000Y-17526000D01*
X33274000Y-37846000D02*
X36068000Y-35052000D01*
X36068000Y-35052000D02*
X36068000Y-21590000D01*
D26*
X31115000Y-7493000D02*
X32004000Y-8382000D01*
X30386000Y-7493000D02*
X31115000Y-7493000D01*
G04 #@! TO.N,V_BATT*
X15997830Y-31750000D02*
X17334865Y-33087035D01*
X22927599Y-33331991D02*
X23181599Y-33077991D01*
X23414226Y-33077991D02*
X23498405Y-32993812D01*
X17334865Y-33087035D02*
X21920643Y-33087035D01*
X23498405Y-32993812D02*
X23898404Y-32593813D01*
X23181599Y-33077991D02*
X23414226Y-33077991D01*
X22165599Y-33331991D02*
X22927599Y-33331991D01*
X21920643Y-33087035D02*
X22165599Y-33331991D01*
G04 #@! TO.N,I_BATT*
X22171607Y-32505076D02*
X22737292Y-32505076D01*
X16722840Y-30738160D02*
X18489756Y-32505076D01*
X18489756Y-32505076D02*
X22171607Y-32505076D01*
D28*
G04 #@! TO.N,3.3V_ARD*
X20221008Y-28992990D02*
X20822992Y-28992990D01*
X11430000Y-29718000D02*
X19495998Y-29718000D01*
X19495998Y-29718000D02*
X20221008Y-28992990D01*
X20822992Y-28992990D02*
X21388677Y-28992990D01*
D26*
X34493000Y-11201500D02*
X34518500Y-11176000D01*
X34493000Y-13208000D02*
X34493000Y-11201500D01*
X16604001Y-56547001D02*
X19050000Y-54101002D01*
X7874000Y-55372000D02*
X9049001Y-56547001D01*
X9049001Y-56547001D02*
X16604001Y-56547001D01*
X19050000Y-54101002D02*
X19050000Y-52578000D01*
X19050000Y-52578000D02*
X22352000Y-49276000D01*
X35690913Y-12010087D02*
X34493000Y-13208000D01*
X36901430Y-12010087D02*
X35690913Y-12010087D01*
D27*
X7874000Y-54169919D02*
X6350000Y-52645919D01*
X7874000Y-55372000D02*
X7874000Y-54169919D01*
X6350000Y-52645919D02*
X6350000Y-28702000D01*
X6350000Y-28702000D02*
X7620000Y-27432000D01*
D26*
X22310302Y-38354000D02*
X22875987Y-38354000D01*
X20066000Y-37592000D02*
X20828000Y-38354000D01*
X20828000Y-38354000D02*
X22310302Y-38354000D01*
X34480989Y-35243421D02*
X34480989Y-34456270D01*
X34507002Y-34430257D02*
X34507002Y-27141002D01*
X28322410Y-41402000D02*
X34480989Y-35243421D01*
X34480989Y-34456270D02*
X34507002Y-34430257D01*
X24098000Y-41402000D02*
X28322410Y-41402000D01*
X36805010Y-8281516D02*
X35889494Y-7366000D01*
X36805010Y-10643516D02*
X36805010Y-8281516D01*
X36901430Y-12010087D02*
X36901430Y-10739936D01*
X36901430Y-10739936D02*
X36805010Y-10643516D01*
X32512000Y-7366000D02*
X29972000Y-4826000D01*
X35889494Y-7366000D02*
X32512000Y-7366000D01*
X34493000Y-14783000D02*
X34417000Y-14859000D01*
X34493000Y-13208000D02*
X34493000Y-14783000D01*
D28*
X34380010Y-26811063D02*
X34380010Y-26245378D01*
X34380010Y-27014010D02*
X34380010Y-26811063D01*
X34507002Y-27141002D02*
X34380010Y-27014010D01*
D26*
G04 #@! TO.N,3.3V_out*
X23469500Y-10033000D02*
X24986000Y-10033000D01*
X22606000Y-9169500D02*
X23469500Y-10033000D01*
X23241000Y-10033000D02*
X23469500Y-10033000D01*
X22606000Y-10668000D02*
X23241000Y-10033000D01*
X25461000Y-10033000D02*
X24986000Y-10033000D01*
X26898500Y-11470500D02*
X25461000Y-10033000D01*
X26898500Y-13208000D02*
X26898500Y-11470500D01*
X26873000Y-13233500D02*
X26898500Y-13208000D01*
X26873000Y-14986000D02*
X26873000Y-13233500D01*
X26644500Y-20548500D02*
X26670000Y-20574000D01*
X26644500Y-19050000D02*
X26644500Y-20548500D01*
X26670000Y-20574000D02*
X25146000Y-20574000D01*
X27107000Y-21011000D02*
X28185000Y-21011000D01*
X26670000Y-20574000D02*
X27107000Y-21011000D01*
X28685000Y-22311000D02*
X28185000Y-22311000D01*
X28760001Y-22235999D02*
X28685000Y-22311000D01*
X28760001Y-21086001D02*
X28760001Y-22235999D01*
X28685000Y-21011000D02*
X28760001Y-21086001D01*
X28185000Y-21011000D02*
X28685000Y-21011000D01*
X28185000Y-22311000D02*
X28185000Y-24219590D01*
X28185000Y-24219590D02*
X28668934Y-24703524D01*
X28668934Y-24703524D02*
X29068933Y-25103523D01*
X26644500Y-19050000D02*
X26644500Y-18475000D01*
X26644500Y-18475000D02*
X26203500Y-18034000D01*
X25663921Y-16195079D02*
X25373269Y-16195079D01*
X26873000Y-14986000D02*
X25663921Y-16195079D01*
X26203500Y-18034000D02*
X26198990Y-18034000D01*
D28*
X26744985Y-40014989D02*
X27935113Y-40014989D01*
X32881998Y-35068104D02*
X32881998Y-28173678D01*
X27935113Y-40014989D02*
X32881998Y-35068104D01*
X32881998Y-28173678D02*
X32218159Y-27509839D01*
X18358693Y-39704013D02*
X26434009Y-39704013D01*
X15997340Y-37342660D02*
X18358693Y-39704013D01*
X32218159Y-27509839D02*
X31818160Y-27109840D01*
X26434009Y-39704013D02*
X26744985Y-40014989D01*
D26*
G04 #@! TO.N,RST*
X8890000Y-34798000D02*
X10704999Y-36612999D01*
X10704999Y-36612999D02*
X16292999Y-36612999D01*
X16292999Y-36612999D02*
X18759002Y-39079002D01*
X18542000Y-38825002D02*
X18796000Y-39079002D01*
X18542000Y-38608000D02*
X18542000Y-38825002D01*
X18759002Y-39079002D02*
X18796000Y-39079002D01*
X18796000Y-39079002D02*
X25298247Y-39079002D01*
X25298247Y-39079002D02*
X25668177Y-38709072D01*
X25668177Y-38709072D02*
X26068176Y-38309073D01*
G04 #@! TO.N,SDA*
X34950500Y-10033000D02*
X30386000Y-10033000D01*
X36093500Y-11176000D02*
X34950500Y-10033000D01*
X29735000Y-21011000D02*
X30235000Y-21011000D01*
X29285999Y-20561999D02*
X29735000Y-21011000D01*
X29361000Y-10033000D02*
X29285999Y-10108001D01*
X30386000Y-10033000D02*
X29361000Y-10033000D01*
X29285999Y-16256000D02*
X29285999Y-20561999D01*
X29285999Y-10108001D02*
X29285999Y-16256000D01*
X2900000Y-17209000D02*
X3175000Y-17209000D01*
X1720990Y-18388010D02*
X2900000Y-17209000D01*
X1720990Y-28563990D02*
X1720990Y-18388010D01*
X1796000Y-28639000D02*
X1720990Y-28563990D01*
X2921000Y-28639000D02*
X1796000Y-28639000D01*
X1720990Y-40328990D02*
X1720990Y-28563990D01*
X3048000Y-41656000D02*
X1720990Y-40328990D01*
X26521575Y-16256000D02*
X29285999Y-16256000D01*
X25023977Y-17812146D02*
X25023977Y-17499598D01*
X9046001Y-22805001D02*
X20031122Y-22805001D01*
X25023977Y-17499598D02*
X25664588Y-16858987D01*
X25664588Y-16858987D02*
X25918588Y-16858987D01*
X3450000Y-17209000D02*
X9046001Y-22805001D01*
X3175000Y-17209000D02*
X3450000Y-17209000D01*
X20031122Y-22805001D02*
X25023977Y-17812146D01*
X25918588Y-16858987D02*
X26521575Y-16256000D01*
X29246998Y-24208586D02*
X29902450Y-24864038D01*
X24855010Y-31204593D02*
X25798427Y-32148010D01*
X24855011Y-30827991D02*
X24855010Y-31204593D01*
X25798427Y-32148010D02*
X25798427Y-32347031D01*
X29285999Y-20561999D02*
X29246998Y-20601000D01*
X25798427Y-32347031D02*
X25798427Y-32912716D01*
X29246998Y-20601000D02*
X29246998Y-24208586D01*
X26125001Y-29361899D02*
X26125001Y-29558001D01*
X29902450Y-25584450D02*
X26125001Y-29361899D01*
X26125001Y-29558001D02*
X24855011Y-30827991D01*
X29902450Y-24864038D02*
X29902450Y-25584450D01*
X36042500Y-11125000D02*
X36093500Y-11176000D01*
X36042500Y-8763000D02*
X36042500Y-11125000D01*
G04 #@! TO.N,SCL*
X30310000Y-20361000D02*
X30235000Y-20361000D01*
X36068000Y-14603000D02*
X30310000Y-20361000D01*
X36068000Y-13208000D02*
X36068000Y-14603000D01*
X30080001Y-19449999D02*
X30080001Y-19920001D01*
X30480000Y-19050000D02*
X30080001Y-19449999D01*
X30235000Y-19936000D02*
X30235000Y-20361000D01*
X30219001Y-19920001D02*
X30235000Y-19936000D01*
X30080001Y-19920001D02*
X30219001Y-19920001D01*
X30735000Y-20361000D02*
X30235000Y-20361000D01*
X30810001Y-20436001D02*
X30735000Y-20361000D01*
X30810001Y-25702205D02*
X30810001Y-20436001D01*
X29653103Y-26859103D02*
X29972000Y-26540206D01*
X29972000Y-26540206D02*
X30810001Y-25702205D01*
X3196000Y-30639000D02*
X2921000Y-30639000D01*
X4223001Y-31666001D02*
X3196000Y-30639000D01*
X4223001Y-43020999D02*
X4223001Y-31666001D01*
X3048000Y-44196000D02*
X4223001Y-43020999D01*
X29972000Y-26540206D02*
X26111296Y-30400910D01*
X26111296Y-30400910D02*
X26111296Y-30635561D01*
X26111296Y-30635561D02*
X25711297Y-31035560D01*
X27749419Y-17165628D02*
X28315104Y-17165628D01*
X20217522Y-23255012D02*
X25473988Y-17998546D01*
X3450000Y-19209000D02*
X7496012Y-23255012D01*
X3175000Y-19209000D02*
X3450000Y-19209000D01*
X25850988Y-17308998D02*
X27606049Y-17308998D01*
X25473988Y-17685998D02*
X25850988Y-17308998D01*
X27606049Y-17308998D02*
X27749419Y-17165628D01*
X25473988Y-17998546D02*
X25473988Y-17685998D01*
X7496012Y-23255012D02*
X20217522Y-23255012D01*
X36605500Y-13208000D02*
X36068000Y-13208000D01*
X36347500Y-13487500D02*
X36068000Y-13208000D01*
X38100000Y-13487500D02*
X36347500Y-13487500D01*
X30386000Y-11901004D02*
X30386000Y-11853000D01*
X30386000Y-11853000D02*
X30386000Y-11303000D01*
X34068998Y-15584002D02*
X30386000Y-11901004D01*
X36068000Y-14281004D02*
X34765002Y-15584002D01*
X36068000Y-13208000D02*
X36068000Y-14281004D01*
X34765002Y-15584002D02*
X34068998Y-15584002D01*
G04 #@! TO.N,3.3V_CTL*
X28306458Y-26303542D02*
X28306458Y-25750558D01*
X25400000Y-29210000D02*
X28306458Y-26303542D01*
G04 #@! TO.N,PUSH*
X22098000Y-41402000D02*
X22098000Y-41677000D01*
X24732978Y-44311978D02*
X27835999Y-44311978D01*
X22098000Y-41677000D02*
X24732978Y-44311978D01*
X27835999Y-44311978D02*
X27865012Y-44340991D01*
X27865012Y-44340991D02*
X28265011Y-44740990D01*
X36893011Y-35393730D02*
X36893011Y-33464989D01*
X36893011Y-33464989D02*
X39382001Y-30975999D01*
X39382001Y-30975999D02*
X40132000Y-30226000D01*
X35306000Y-36980741D02*
X36893011Y-35393730D01*
X35306000Y-44450000D02*
X35306000Y-36980741D01*
G04 #@! TO.N,PUSH2*
X22098000Y-47519000D02*
X22098000Y-47244000D01*
X23855000Y-49276000D02*
X22098000Y-47519000D01*
X27686000Y-49276000D02*
X23855000Y-49276000D01*
X40132000Y-32766000D02*
X39382001Y-33515999D01*
X36344113Y-36579038D02*
X36344113Y-43212479D01*
X39382001Y-33515999D02*
X39382001Y-33541150D01*
X36344113Y-43212479D02*
X36744112Y-43612478D01*
X39382001Y-33541150D02*
X36344113Y-36579038D01*
G04 #@! TO.N,Vhall*
X26005827Y-22911510D02*
X24623879Y-22911510D01*
X24623879Y-22911510D02*
X24404695Y-22692326D01*
X27395010Y-26162000D02*
X27395010Y-24300693D01*
X27395010Y-24300693D02*
X26005827Y-22911510D01*
X24404695Y-22692326D02*
X23839010Y-22692326D01*
X28702000Y-28956000D02*
X28702000Y-31586324D01*
X28702000Y-31586324D02*
X30538435Y-33422759D01*
X30538435Y-33422759D02*
X30938434Y-33822758D01*
X12446000Y-13716000D02*
X19895920Y-13716000D01*
X22937845Y-16757925D02*
X23337844Y-17157924D01*
X19895920Y-13716000D02*
X22937845Y-16757925D01*
X10160000Y-11430000D02*
X12446000Y-13716000D01*
G04 #@! TO.N,Flash*
X16002000Y-28710002D02*
X15436315Y-28710002D01*
X15269312Y-28542999D02*
X10865999Y-28542999D01*
X17780000Y-40386000D02*
X18447325Y-40386000D01*
X7714999Y-33941001D02*
X7714999Y-35362001D01*
X9264003Y-33622999D02*
X8033001Y-33622999D01*
X15436315Y-28710002D02*
X15269312Y-28542999D01*
X18701325Y-40640000D02*
X19267010Y-40640000D01*
X10865999Y-28542999D02*
X10065001Y-29343997D01*
X10065001Y-29343997D02*
X10065001Y-32822001D01*
X10065001Y-32822001D02*
X9264003Y-33622999D01*
X8033001Y-33622999D02*
X7714999Y-33941001D01*
X9690998Y-37338000D02*
X14732000Y-37338000D01*
X18447325Y-40386000D02*
X18701325Y-40640000D01*
X14732000Y-37338000D02*
X17780000Y-40386000D01*
X7714999Y-35362001D02*
X9690998Y-37338000D01*
G04 #@! TO.N,FAN_CTL*
X41922001Y-46215999D02*
X42672000Y-45466000D01*
X27560410Y-45466000D02*
X36000998Y-45466000D01*
X21393989Y-44761989D02*
X26856400Y-44761989D01*
X37075999Y-46541001D02*
X41596999Y-46541001D01*
X17780000Y-41148000D02*
X21393989Y-44761989D01*
X41596999Y-46541001D02*
X41922001Y-46215999D01*
X36000998Y-45466000D02*
X37075999Y-46541001D01*
X26856400Y-44761989D02*
X27560410Y-45466000D01*
X25073417Y-33640819D02*
X29388751Y-33640819D01*
X25073417Y-32059411D02*
X25073417Y-33640819D01*
X24130000Y-30226000D02*
X24130000Y-31115994D01*
X24130000Y-31115994D02*
X25073417Y-32059411D01*
X29388751Y-33640819D02*
X30572767Y-34824835D01*
G04 #@! TO.N,LED_EN*
X41207001Y-21530999D02*
X41207001Y-33282001D01*
X42672000Y-20066000D02*
X41207001Y-21530999D01*
X40258003Y-34230999D02*
X39429001Y-34230999D01*
X41207001Y-33282001D02*
X40258003Y-34230999D01*
X37084000Y-36576000D02*
X37084000Y-42672000D01*
X39429001Y-34230999D02*
X37084000Y-36576000D01*
X23248630Y-30298076D02*
X23248630Y-29732391D01*
X23248630Y-30871035D02*
X23248630Y-30298076D01*
X24623406Y-34526584D02*
X24623406Y-32245811D01*
X25291999Y-37954001D02*
X25291999Y-35195177D01*
X25291999Y-35195177D02*
X24623406Y-34526584D01*
X24892000Y-38354000D02*
X25291999Y-37954001D01*
X24623406Y-32245811D02*
X23248630Y-30871035D01*
G04 #@! TO.N,Torch*
X21349123Y-51304197D02*
X21603123Y-51050197D01*
X22932000Y-56134000D02*
X21349123Y-54551123D01*
X21349123Y-54551123D02*
X21349123Y-51304197D01*
X21603123Y-51050197D02*
X22003122Y-50650198D01*
G04 #@! TO.N,PI_CTL*
X22403457Y-30996746D02*
X22403457Y-31562431D01*
X22403457Y-22143818D02*
X22403457Y-30996746D01*
X23478520Y-21068755D02*
X22403457Y-22143818D01*
G04 #@! TO.N,Net-(R30-Pad2)*
X28219500Y-20326500D02*
X28185000Y-20361000D01*
X28219500Y-19050000D02*
X28219500Y-20326500D01*
G04 #@! TO.N,alarm*
X23774500Y-8763000D02*
X22606000Y-7594500D01*
X24986000Y-8763000D02*
X23774500Y-8763000D01*
X22144388Y-8056112D02*
X22606000Y-7594500D01*
X21805990Y-8394510D02*
X22144388Y-8056112D01*
X21805990Y-14439990D02*
X21805990Y-8394510D01*
X22860000Y-15494000D02*
X21805990Y-14439990D01*
X23716001Y-16419999D02*
X24031501Y-16735499D01*
X23658999Y-16419999D02*
X23716001Y-16419999D01*
X22860000Y-15494000D02*
X22860000Y-15621000D01*
X22860000Y-15621000D02*
X23658999Y-16419999D01*
X24060002Y-16764000D02*
X24257000Y-16764000D01*
X24031501Y-16735499D02*
X24060002Y-16764000D01*
G04 #@! TO.N,Net-(R28-Pad2)*
X23546000Y-11303000D02*
X22606000Y-12243000D01*
X24986000Y-11303000D02*
X23546000Y-11303000D01*
G04 #@! TO.N,5V*
X20828000Y-4572000D02*
X17526000Y-4572000D01*
X17526000Y-4572000D02*
X17018000Y-4572000D01*
X17018000Y-4572000D02*
X12192000Y-9398000D01*
X20828000Y-4572000D02*
X22733000Y-4572000D01*
G04 #@! TO.N,RXD*
X24793572Y-45720000D02*
X24539572Y-45466000D01*
X27178000Y-45720000D02*
X24793572Y-45720000D01*
X20320000Y-45466000D02*
X10414000Y-55372000D01*
X24539572Y-45466000D02*
X20320000Y-45466000D01*
X28296623Y-38380671D02*
X28685533Y-38380671D01*
X27896624Y-38780670D02*
X28296623Y-38380671D01*
X32256987Y-30042799D02*
X31086562Y-28872374D01*
X32256987Y-34809217D02*
X32256987Y-30042799D01*
X28685533Y-38380671D02*
X32256987Y-34809217D01*
X31086562Y-28872374D02*
X30686563Y-28472375D01*
X27178000Y-45720000D02*
X27686000Y-46228000D01*
G04 #@! TO.N,TXD*
X12954000Y-55372000D02*
X12954000Y-54169919D01*
X12954000Y-54169919D02*
X21207908Y-45916011D01*
X25715765Y-46445010D02*
X26281450Y-46445010D01*
X24353172Y-45916011D02*
X24882171Y-46445010D01*
X21207908Y-45916011D02*
X24353172Y-45916011D01*
X24882171Y-46445010D02*
X25715765Y-46445010D01*
X31806976Y-33379231D02*
X31806976Y-34615945D01*
X30449909Y-35973012D02*
X29225392Y-35973012D01*
X29704500Y-31276755D02*
X31806976Y-33379231D01*
X29225392Y-35973012D02*
X26900090Y-38298314D01*
X26900090Y-38298314D02*
X26900090Y-38863999D01*
X31806976Y-34615945D02*
X30449909Y-35973012D01*
X29704500Y-28702000D02*
X29704500Y-31276755D01*
G04 #@! TO.N,Net-(R1-Pad2)*
X25032733Y-25065922D02*
X25032733Y-25631607D01*
X25032733Y-24626803D02*
X25032733Y-25065922D01*
X25864267Y-23795269D02*
X25032733Y-24626803D01*
G04 #@! TO.N,I_LED*
X22171361Y-52373361D02*
X22171361Y-52201642D01*
X25932000Y-56134000D02*
X22171361Y-52373361D01*
X22171361Y-52201642D02*
X22171361Y-51635957D01*
G04 #@! TO.N,I_PI*
X16597039Y-33812037D02*
X20730958Y-33812037D01*
X14997817Y-31750000D02*
X14997817Y-32212815D01*
X20730958Y-33812037D02*
X21296643Y-33812037D01*
X14997817Y-32212815D02*
X16597039Y-33812037D01*
X12483000Y-11176000D02*
X12483000Y-10161998D01*
X27813000Y-2413000D02*
X27813000Y-1778000D01*
X27940000Y-2540000D02*
X27813000Y-2413000D01*
X25146000Y-5334000D02*
X27940000Y-2540000D01*
X17310998Y-5334000D02*
X25146000Y-5334000D01*
X12483000Y-10161998D02*
X17310998Y-5334000D01*
G04 #@! TO.N,Net-(U7-Pad3)*
X16510000Y-8470000D02*
X19138000Y-5842000D01*
X16510000Y-10720000D02*
X16510000Y-8470000D01*
X29911000Y-8763000D02*
X30386000Y-8763000D01*
X26990000Y-5842000D02*
X29911000Y-8763000D01*
X19138000Y-5842000D02*
X26990000Y-5842000D01*
G04 #@! TO.N,PI_SIG*
X23622000Y-33782000D02*
X23876000Y-34036000D01*
X14478000Y-32766000D02*
X16510000Y-34798000D01*
X21884643Y-34798000D02*
X22900643Y-33782000D01*
X16510000Y-34798000D02*
X21884643Y-34798000D01*
X22900643Y-33782000D02*
X23622000Y-33782000D01*
X23876000Y-34036000D02*
X23876000Y-38354000D01*
X28194000Y-40639999D02*
X33746062Y-35087936D01*
X25908000Y-40640000D02*
X28194000Y-40639999D01*
X33746062Y-35087936D02*
X33746062Y-34833938D01*
X33746062Y-34833938D02*
X33782000Y-34798000D01*
X33782000Y-34798000D02*
X33782000Y-32746021D01*
G04 #@! TO.N,/Pi_SDA*
X38989000Y-8763000D02*
X40132000Y-9906000D01*
X37617500Y-8763000D02*
X38989000Y-8763000D01*
G04 #@! TO.N,/Pi_SCL*
X38633500Y-12446000D02*
X38100000Y-11912500D01*
X40132000Y-12446000D02*
X38633500Y-12446000D01*
G04 #@! TD*
D29*
G04 #@! TO.N,GND*
G36*
X42885453Y-740746D02*
X43198534Y-883095D01*
X43459080Y-1107597D01*
X43646145Y-1396202D01*
X43751474Y-1748399D01*
X43765000Y-1930412D01*
X43765000Y-6508857D01*
X43670529Y-6367471D01*
X43212400Y-6061359D01*
X42808407Y-5981000D01*
X42535593Y-5981000D01*
X42131600Y-6061359D01*
X41673471Y-6367471D01*
X41524386Y-6590592D01*
X41480157Y-6368235D01*
X41339809Y-6158191D01*
X41129765Y-6017843D01*
X40882000Y-5968560D01*
X39382000Y-5968560D01*
X39134235Y-6017843D01*
X38924191Y-6158191D01*
X38783843Y-6368235D01*
X38734560Y-6616000D01*
X38734560Y-8003000D01*
X38521396Y-8003000D01*
X38448739Y-7894261D01*
X38167727Y-7706495D01*
X37836250Y-7640560D01*
X37398750Y-7640560D01*
X37265384Y-7667088D01*
X36479825Y-6881530D01*
X36437423Y-6818071D01*
X36186031Y-6650096D01*
X35964346Y-6606000D01*
X35964341Y-6606000D01*
X35889494Y-6591112D01*
X35814647Y-6606000D01*
X35141788Y-6606000D01*
X35434839Y-6167418D01*
X35550092Y-5588000D01*
X35434839Y-5008582D01*
X35106625Y-4517375D01*
X35088381Y-4505184D01*
X35133765Y-4496157D01*
X35343809Y-4355809D01*
X35484157Y-4145765D01*
X35533440Y-3898000D01*
X35533440Y-2896892D01*
X37928514Y-2896892D01*
X38174817Y-3421358D01*
X38603076Y-3811645D01*
X39013110Y-3981476D01*
X39243000Y-3860155D01*
X39243000Y-2667000D01*
X38049181Y-2667000D01*
X37928514Y-2896892D01*
X35533440Y-2896892D01*
X35533440Y-2198000D01*
X35530478Y-2183108D01*
X37928514Y-2183108D01*
X38049181Y-2413000D01*
X39243000Y-2413000D01*
X39243000Y-1219845D01*
X39497000Y-1219845D01*
X39497000Y-2413000D01*
X39517000Y-2413000D01*
X39517000Y-2667000D01*
X39497000Y-2667000D01*
X39497000Y-3860155D01*
X39726890Y-3981476D01*
X40136924Y-3811645D01*
X40441261Y-3534292D01*
X40461843Y-3637765D01*
X40602191Y-3847809D01*
X40812235Y-3988157D01*
X41060000Y-4037440D01*
X42760000Y-4037440D01*
X43007765Y-3988157D01*
X43217809Y-3847809D01*
X43358157Y-3637765D01*
X43407440Y-3390000D01*
X43407440Y-1690000D01*
X43358157Y-1442235D01*
X43217809Y-1232191D01*
X43007765Y-1091843D01*
X42760000Y-1042560D01*
X41060000Y-1042560D01*
X40812235Y-1091843D01*
X40602191Y-1232191D01*
X40461843Y-1442235D01*
X40441261Y-1545708D01*
X40136924Y-1268355D01*
X39726890Y-1098524D01*
X39497000Y-1219845D01*
X39243000Y-1219845D01*
X39013110Y-1098524D01*
X38603076Y-1268355D01*
X38174817Y-1658642D01*
X37928514Y-2183108D01*
X35530478Y-2183108D01*
X35484157Y-1950235D01*
X35343809Y-1740191D01*
X35133765Y-1599843D01*
X34886000Y-1550560D01*
X33186000Y-1550560D01*
X32938235Y-1599843D01*
X32728191Y-1740191D01*
X32587843Y-1950235D01*
X32538560Y-2198000D01*
X32538560Y-3898000D01*
X32587843Y-4145765D01*
X32728191Y-4355809D01*
X32938235Y-4496157D01*
X32983619Y-4505184D01*
X32965375Y-4517375D01*
X32637161Y-5008582D01*
X32521908Y-5588000D01*
X32637161Y-6167418D01*
X32930212Y-6606000D01*
X32826803Y-6606000D01*
X31007000Y-4786199D01*
X31007000Y-4620126D01*
X30849431Y-4239720D01*
X30558280Y-3948569D01*
X30177874Y-3791000D01*
X29766126Y-3791000D01*
X29385720Y-3948569D01*
X29094569Y-4239720D01*
X28937000Y-4620126D01*
X28937000Y-5031874D01*
X29094569Y-5412280D01*
X29385720Y-5703431D01*
X29766126Y-5861000D01*
X29932199Y-5861000D01*
X30650474Y-6579276D01*
X30513000Y-6716750D01*
X30513000Y-7366000D01*
X30533000Y-7366000D01*
X30533000Y-7620000D01*
X30513000Y-7620000D01*
X30513000Y-7640000D01*
X30259000Y-7640000D01*
X30259000Y-7620000D01*
X30239000Y-7620000D01*
X30239000Y-7366000D01*
X30259000Y-7366000D01*
X30259000Y-6716750D01*
X30100250Y-6558000D01*
X29484691Y-6558000D01*
X29251302Y-6654673D01*
X29072673Y-6833301D01*
X29067820Y-6845018D01*
X27580331Y-5357530D01*
X27537929Y-5294071D01*
X27286537Y-5126096D01*
X27064852Y-5082000D01*
X27064847Y-5082000D01*
X26990000Y-5067112D01*
X26915153Y-5082000D01*
X26472801Y-5082000D01*
X28424474Y-3130328D01*
X28487929Y-3087929D01*
X28530329Y-3024473D01*
X28655904Y-2836538D01*
X28714888Y-2540000D01*
X28708492Y-2507842D01*
X28704515Y-2487851D01*
X28681677Y-2373034D01*
X28690431Y-2364280D01*
X28848000Y-1983874D01*
X28848000Y-1572126D01*
X28690431Y-1191720D01*
X28399280Y-900569D01*
X28018874Y-743000D01*
X27607126Y-743000D01*
X27226720Y-900569D01*
X26935569Y-1191720D01*
X26778000Y-1572126D01*
X26778000Y-1983874D01*
X26935569Y-2364280D01*
X26988244Y-2416955D01*
X24831199Y-4574000D01*
X23768000Y-4574000D01*
X23768000Y-4366126D01*
X23610431Y-3985720D01*
X23319280Y-3694569D01*
X22938874Y-3537000D01*
X22527126Y-3537000D01*
X22146720Y-3694569D01*
X22029289Y-3812000D01*
X17092848Y-3812000D01*
X17018000Y-3797112D01*
X16943152Y-3812000D01*
X16943148Y-3812000D01*
X16777246Y-3845000D01*
X16721462Y-3856096D01*
X16534418Y-3981076D01*
X16470071Y-4024071D01*
X16427671Y-4087527D01*
X12152199Y-8363000D01*
X11986126Y-8363000D01*
X11605720Y-8520569D01*
X11314569Y-8811720D01*
X11157000Y-9192126D01*
X11157000Y-9603874D01*
X11314569Y-9984280D01*
X11605720Y-10275431D01*
X11723001Y-10324010D01*
X11723001Y-10472288D01*
X11605569Y-10589720D01*
X11448000Y-10970126D01*
X11448000Y-11381874D01*
X11605569Y-11762280D01*
X11896720Y-12053431D01*
X12277126Y-12211000D01*
X12688874Y-12211000D01*
X13069280Y-12053431D01*
X13360431Y-11762280D01*
X13518000Y-11381874D01*
X13518000Y-10970126D01*
X13360431Y-10589720D01*
X13245255Y-10474544D01*
X13862560Y-9857239D01*
X13862560Y-12720000D01*
X13909503Y-12956000D01*
X12760802Y-12956000D01*
X11195000Y-11390199D01*
X11195000Y-11224126D01*
X11037431Y-10843720D01*
X10746280Y-10552569D01*
X10365874Y-10395000D01*
X9954126Y-10395000D01*
X9573720Y-10552569D01*
X9282569Y-10843720D01*
X9125000Y-11224126D01*
X9125000Y-11635874D01*
X9282569Y-12016280D01*
X9573720Y-12307431D01*
X9954126Y-12465000D01*
X10120199Y-12465000D01*
X11855670Y-14200472D01*
X11898071Y-14263929D01*
X12149463Y-14431904D01*
X12371148Y-14476000D01*
X12371152Y-14476000D01*
X12445999Y-14490888D01*
X12520846Y-14476000D01*
X13788018Y-14476000D01*
X13324776Y-15050171D01*
X16510000Y-18235395D01*
X19695224Y-15050171D01*
X19231982Y-14476000D01*
X19581119Y-14476000D01*
X22302844Y-17197726D01*
X22302844Y-17363798D01*
X22460413Y-17744204D01*
X22751564Y-18035355D01*
X23131970Y-18192924D01*
X23543718Y-18192924D01*
X23585848Y-18175473D01*
X19716321Y-22045001D01*
X19481283Y-22045001D01*
X19695224Y-21779829D01*
X16510000Y-18594605D01*
X13324776Y-21779829D01*
X13538717Y-22045001D01*
X9360803Y-22045001D01*
X6605620Y-19289818D01*
X11798450Y-19289818D01*
X12491874Y-21026259D01*
X12559841Y-21127979D01*
X13145171Y-21600224D01*
X16330395Y-18415000D01*
X16689605Y-18415000D01*
X19874829Y-21600224D01*
X20460159Y-21127979D01*
X21197683Y-19409805D01*
X21221550Y-17540182D01*
X20528126Y-15803741D01*
X20460159Y-15702021D01*
X19874829Y-15229776D01*
X16689605Y-18415000D01*
X16330395Y-18415000D01*
X13145171Y-15229776D01*
X12559841Y-15702021D01*
X11822317Y-17420195D01*
X11798450Y-19289818D01*
X6605620Y-19289818D01*
X4678602Y-17362801D01*
X4709195Y-17209000D01*
X4613344Y-16727127D01*
X4340385Y-16318615D01*
X4162615Y-16199833D01*
X4413080Y-15992474D01*
X4639592Y-15564281D01*
X4643462Y-15526609D01*
X4518731Y-15336000D01*
X3302000Y-15336000D01*
X3302000Y-15356000D01*
X3048000Y-15356000D01*
X3048000Y-15336000D01*
X1831269Y-15336000D01*
X1706538Y-15526609D01*
X1710408Y-15564281D01*
X1936920Y-15992474D01*
X2187385Y-16199833D01*
X2009615Y-16318615D01*
X1736656Y-16727127D01*
X1640805Y-17209000D01*
X1671398Y-17362801D01*
X1236518Y-17797681D01*
X1173062Y-17840081D01*
X1130662Y-17903537D01*
X1130661Y-17903538D01*
X1005087Y-18091473D01*
X946102Y-18388010D01*
X960991Y-18462862D01*
X960990Y-28489143D01*
X946102Y-28563990D01*
X960990Y-28638837D01*
X960990Y-28638841D01*
X960991Y-28638846D01*
X960990Y-40254143D01*
X946102Y-40328990D01*
X960990Y-40403837D01*
X960990Y-40403841D01*
X1005086Y-40625526D01*
X1173061Y-40876919D01*
X1236520Y-40919321D01*
X1606791Y-41289592D01*
X1533908Y-41656000D01*
X1649161Y-42235418D01*
X1977375Y-42726625D01*
X2275761Y-42926000D01*
X1977375Y-43125375D01*
X1649161Y-43616582D01*
X1533908Y-44196000D01*
X1649161Y-44775418D01*
X1977375Y-45266625D01*
X2296478Y-45479843D01*
X2166642Y-45540817D01*
X1776355Y-45969076D01*
X1606524Y-46379110D01*
X1727845Y-46609000D01*
X2921000Y-46609000D01*
X2921000Y-46589000D01*
X3175000Y-46589000D01*
X3175000Y-46609000D01*
X4368155Y-46609000D01*
X4489476Y-46379110D01*
X4319645Y-45969076D01*
X3929358Y-45540817D01*
X3799522Y-45479843D01*
X4118625Y-45266625D01*
X4446839Y-44775418D01*
X4562092Y-44196000D01*
X4489209Y-43829593D01*
X4707477Y-43611326D01*
X4770930Y-43568928D01*
X4813328Y-43505475D01*
X4813330Y-43505473D01*
X4938904Y-43317537D01*
X4938905Y-43317536D01*
X4983001Y-43095851D01*
X4983001Y-43095847D01*
X4997889Y-43021000D01*
X4983001Y-42946153D01*
X4983001Y-31740849D01*
X4997889Y-31666001D01*
X4983001Y-31591153D01*
X4983001Y-31591149D01*
X4940189Y-31375920D01*
X4938905Y-31369463D01*
X4813330Y-31181528D01*
X4770930Y-31118072D01*
X4707474Y-31075672D01*
X4424602Y-30792800D01*
X4455195Y-30639000D01*
X4359344Y-30157127D01*
X4086385Y-29748615D01*
X3922335Y-29639000D01*
X4086385Y-29529385D01*
X4359344Y-29120873D01*
X4455195Y-28639000D01*
X4359344Y-28157127D01*
X4086385Y-27748615D01*
X3908615Y-27629833D01*
X4159080Y-27422474D01*
X4385592Y-26994281D01*
X4389462Y-26956609D01*
X4264731Y-26766000D01*
X3048000Y-26766000D01*
X3048000Y-26786000D01*
X2794000Y-26786000D01*
X2794000Y-26766000D01*
X2774000Y-26766000D01*
X2774000Y-26512000D01*
X2794000Y-26512000D01*
X2794000Y-25404000D01*
X3048000Y-25404000D01*
X3048000Y-26512000D01*
X4264731Y-26512000D01*
X4389462Y-26321391D01*
X4385592Y-26283719D01*
X4159080Y-25855526D01*
X3785947Y-25546610D01*
X3323000Y-25404000D01*
X3048000Y-25404000D01*
X2794000Y-25404000D01*
X2519000Y-25404000D01*
X2480990Y-25415709D01*
X2480990Y-22456440D01*
X4050000Y-22456440D01*
X4297765Y-22407157D01*
X4507809Y-22266809D01*
X4648157Y-22056765D01*
X4697440Y-21809000D01*
X4697440Y-21531241D01*
X6905683Y-23739485D01*
X6948083Y-23802941D01*
X7199475Y-23970916D01*
X7421160Y-24015012D01*
X7421164Y-24015012D01*
X7496011Y-24029900D01*
X7570858Y-24015012D01*
X13881454Y-24015012D01*
X13862560Y-24110000D01*
X13862560Y-27782999D01*
X10940845Y-27782999D01*
X10865998Y-27768111D01*
X10791151Y-27782999D01*
X10791147Y-27782999D01*
X10569462Y-27827095D01*
X10318070Y-27995070D01*
X10275670Y-28058526D01*
X10033676Y-28300520D01*
X9987765Y-28269843D01*
X9740000Y-28220560D01*
X8436572Y-28220560D01*
X8501608Y-28155524D01*
X8689146Y-27874855D01*
X8777235Y-27432001D01*
X8689146Y-26989146D01*
X8438288Y-26613712D01*
X8062854Y-26362854D01*
X7619999Y-26274765D01*
X7177145Y-26362854D01*
X6896476Y-26550392D01*
X5626480Y-27820389D01*
X5531712Y-27883711D01*
X5390988Y-28094319D01*
X5280854Y-28259146D01*
X5192765Y-28702000D01*
X5215001Y-28813788D01*
X5215000Y-52534136D01*
X5192765Y-52645919D01*
X5215000Y-52757701D01*
X5280854Y-53088773D01*
X5531711Y-53464208D01*
X5626481Y-53527532D01*
X6641935Y-54542987D01*
X6590157Y-54620478D01*
X6529183Y-54490642D01*
X6100924Y-54100355D01*
X5690890Y-53930524D01*
X5461000Y-54051845D01*
X5461000Y-55245000D01*
X5481000Y-55245000D01*
X5481000Y-55499000D01*
X5461000Y-55499000D01*
X5461000Y-56692155D01*
X5690890Y-56813476D01*
X6100924Y-56643645D01*
X6529183Y-56253358D01*
X6590157Y-56123522D01*
X6803375Y-56442625D01*
X7294582Y-56770839D01*
X7727744Y-56857000D01*
X8020256Y-56857000D01*
X8240407Y-56813209D01*
X8458674Y-57031477D01*
X8501072Y-57094930D01*
X8508660Y-57100000D01*
X1953803Y-57100000D01*
X1564547Y-57044254D01*
X1251464Y-56901904D01*
X990920Y-56677405D01*
X803856Y-56388799D01*
X698526Y-56036601D01*
X685000Y-55854587D01*
X685000Y-55728892D01*
X1352514Y-55728892D01*
X1598817Y-56253358D01*
X2027076Y-56643645D01*
X2437110Y-56813476D01*
X2667000Y-56692155D01*
X2667000Y-55499000D01*
X2921000Y-55499000D01*
X2921000Y-56692155D01*
X3150890Y-56813476D01*
X3560924Y-56643645D01*
X3989183Y-56253358D01*
X4064000Y-56094046D01*
X4138817Y-56253358D01*
X4567076Y-56643645D01*
X4977110Y-56813476D01*
X5207000Y-56692155D01*
X5207000Y-55499000D01*
X2921000Y-55499000D01*
X2667000Y-55499000D01*
X1473181Y-55499000D01*
X1352514Y-55728892D01*
X685000Y-55728892D01*
X685000Y-55015108D01*
X1352514Y-55015108D01*
X1473181Y-55245000D01*
X2667000Y-55245000D01*
X2667000Y-54051845D01*
X2921000Y-54051845D01*
X2921000Y-55245000D01*
X5207000Y-55245000D01*
X5207000Y-54051845D01*
X4977110Y-53930524D01*
X4567076Y-54100355D01*
X4138817Y-54490642D01*
X4064000Y-54649954D01*
X3989183Y-54490642D01*
X3560924Y-54100355D01*
X3150890Y-53930524D01*
X2921000Y-54051845D01*
X2667000Y-54051845D01*
X2437110Y-53930524D01*
X2027076Y-54100355D01*
X1598817Y-54490642D01*
X1352514Y-55015108D01*
X685000Y-55015108D01*
X685000Y-48426000D01*
X1550560Y-48426000D01*
X1550560Y-50126000D01*
X1599843Y-50373765D01*
X1740191Y-50583809D01*
X1950235Y-50724157D01*
X2198000Y-50773440D01*
X3898000Y-50773440D01*
X4145765Y-50724157D01*
X4355809Y-50583809D01*
X4496157Y-50373765D01*
X4545440Y-50126000D01*
X4545440Y-48426000D01*
X4496157Y-48178235D01*
X4355809Y-47968191D01*
X4145765Y-47827843D01*
X4042292Y-47807261D01*
X4319645Y-47502924D01*
X4489476Y-47092890D01*
X4368155Y-46863000D01*
X3175000Y-46863000D01*
X3175000Y-46883000D01*
X2921000Y-46883000D01*
X2921000Y-46863000D01*
X1727845Y-46863000D01*
X1606524Y-47092890D01*
X1776355Y-47502924D01*
X2053708Y-47807261D01*
X1950235Y-47827843D01*
X1740191Y-47968191D01*
X1599843Y-48178235D01*
X1550560Y-48426000D01*
X685000Y-48426000D01*
X685000Y-14891391D01*
X1706538Y-14891391D01*
X1831269Y-15082000D01*
X3048000Y-15082000D01*
X3048000Y-13974000D01*
X3302000Y-13974000D01*
X3302000Y-15082000D01*
X4518731Y-15082000D01*
X4643462Y-14891391D01*
X4639592Y-14853719D01*
X4413080Y-14425526D01*
X4039947Y-14116610D01*
X3577000Y-13974000D01*
X3302000Y-13974000D01*
X3048000Y-13974000D01*
X2773000Y-13974000D01*
X2310053Y-14116610D01*
X1936920Y-14425526D01*
X1710408Y-14853719D01*
X1706538Y-14891391D01*
X685000Y-14891391D01*
X685000Y-8445000D01*
X2910805Y-8445000D01*
X3006656Y-8926873D01*
X3279615Y-9335385D01*
X3688127Y-9608344D01*
X4048364Y-9680000D01*
X4841636Y-9680000D01*
X5201873Y-9608344D01*
X5610385Y-9335385D01*
X5883344Y-8926873D01*
X5979195Y-8445000D01*
X5883344Y-7963127D01*
X5610385Y-7554615D01*
X5432615Y-7435833D01*
X5683080Y-7228474D01*
X5909592Y-6800281D01*
X5913462Y-6762609D01*
X5788731Y-6572000D01*
X4572000Y-6572000D01*
X4572000Y-6592000D01*
X4318000Y-6592000D01*
X4318000Y-6572000D01*
X3101269Y-6572000D01*
X2976538Y-6762609D01*
X2980408Y-6800281D01*
X3206920Y-7228474D01*
X3457385Y-7435833D01*
X3279615Y-7554615D01*
X3006656Y-7963127D01*
X2910805Y-8445000D01*
X685000Y-8445000D01*
X685000Y-3845000D01*
X2922560Y-3845000D01*
X2922560Y-5045000D01*
X2971843Y-5292765D01*
X3112191Y-5502809D01*
X3270700Y-5608722D01*
X3206920Y-5661526D01*
X2980408Y-6089719D01*
X2976538Y-6127391D01*
X3101269Y-6318000D01*
X4318000Y-6318000D01*
X4318000Y-6298000D01*
X4572000Y-6298000D01*
X4572000Y-6318000D01*
X5788731Y-6318000D01*
X5913462Y-6127391D01*
X5909592Y-6089719D01*
X5683080Y-5661526D01*
X5619300Y-5608722D01*
X5777809Y-5502809D01*
X5918157Y-5292765D01*
X5967440Y-5045000D01*
X5967440Y-3845000D01*
X5918157Y-3597235D01*
X5777809Y-3387191D01*
X5567765Y-3246843D01*
X5320000Y-3197560D01*
X3570000Y-3197560D01*
X3322235Y-3246843D01*
X3112191Y-3387191D01*
X2971843Y-3597235D01*
X2922560Y-3845000D01*
X685000Y-3845000D01*
X685000Y-1953803D01*
X702581Y-1831036D01*
X10690193Y-1831036D01*
X10720518Y-2321413D01*
X10849836Y-2633617D01*
X11075265Y-2683130D01*
X11758395Y-2000000D01*
X11075265Y-1316870D01*
X10849836Y-1366383D01*
X10690193Y-1831036D01*
X702581Y-1831036D01*
X740746Y-1564547D01*
X883095Y-1251466D01*
X981497Y-1137265D01*
X11254870Y-1137265D01*
X11938000Y-1820395D01*
X11952143Y-1806253D01*
X12131748Y-1985858D01*
X12117605Y-2000000D01*
X12131748Y-2014143D01*
X11952143Y-2193748D01*
X11938000Y-2179605D01*
X11254870Y-2862735D01*
X11304383Y-3088164D01*
X11769036Y-3247807D01*
X12259413Y-3217482D01*
X12571617Y-3088164D01*
X12609074Y-2917627D01*
X12738429Y-3046982D01*
X13192343Y-3235000D01*
X13683657Y-3235000D01*
X14137571Y-3046982D01*
X14188000Y-2996553D01*
X14238429Y-3046982D01*
X14692343Y-3235000D01*
X15183657Y-3235000D01*
X15637571Y-3046982D01*
X15688000Y-2996553D01*
X15738429Y-3046982D01*
X16192343Y-3235000D01*
X16683657Y-3235000D01*
X17137571Y-3046982D01*
X17188000Y-2996553D01*
X17238429Y-3046982D01*
X17692343Y-3235000D01*
X18183657Y-3235000D01*
X18637571Y-3046982D01*
X18688000Y-2996553D01*
X18738429Y-3046982D01*
X19192343Y-3235000D01*
X19683657Y-3235000D01*
X20137571Y-3046982D01*
X20484982Y-2699571D01*
X20673000Y-2245657D01*
X20673000Y-1754343D01*
X20484982Y-1300429D01*
X20137571Y-953018D01*
X19683657Y-765000D01*
X19192343Y-765000D01*
X18738429Y-953018D01*
X18688000Y-1003447D01*
X18637571Y-953018D01*
X18183657Y-765000D01*
X17692343Y-765000D01*
X17238429Y-953018D01*
X17188000Y-1003447D01*
X17137571Y-953018D01*
X16683657Y-765000D01*
X16192343Y-765000D01*
X15738429Y-953018D01*
X15688000Y-1003447D01*
X15637571Y-953018D01*
X15183657Y-765000D01*
X14692343Y-765000D01*
X14238429Y-953018D01*
X14188000Y-1003447D01*
X14137571Y-953018D01*
X13683657Y-765000D01*
X13192343Y-765000D01*
X12738429Y-953018D01*
X12609074Y-1082373D01*
X12571617Y-911836D01*
X12106964Y-752193D01*
X11616587Y-782518D01*
X11304383Y-911836D01*
X11254870Y-1137265D01*
X981497Y-1137265D01*
X1107597Y-990920D01*
X1396202Y-803855D01*
X1748399Y-698526D01*
X1930412Y-685000D01*
X42496197Y-685000D01*
X42885453Y-740746D01*
X42885453Y-740746D01*
G37*
X42885453Y-740746D02*
X43198534Y-883095D01*
X43459080Y-1107597D01*
X43646145Y-1396202D01*
X43751474Y-1748399D01*
X43765000Y-1930412D01*
X43765000Y-6508857D01*
X43670529Y-6367471D01*
X43212400Y-6061359D01*
X42808407Y-5981000D01*
X42535593Y-5981000D01*
X42131600Y-6061359D01*
X41673471Y-6367471D01*
X41524386Y-6590592D01*
X41480157Y-6368235D01*
X41339809Y-6158191D01*
X41129765Y-6017843D01*
X40882000Y-5968560D01*
X39382000Y-5968560D01*
X39134235Y-6017843D01*
X38924191Y-6158191D01*
X38783843Y-6368235D01*
X38734560Y-6616000D01*
X38734560Y-8003000D01*
X38521396Y-8003000D01*
X38448739Y-7894261D01*
X38167727Y-7706495D01*
X37836250Y-7640560D01*
X37398750Y-7640560D01*
X37265384Y-7667088D01*
X36479825Y-6881530D01*
X36437423Y-6818071D01*
X36186031Y-6650096D01*
X35964346Y-6606000D01*
X35964341Y-6606000D01*
X35889494Y-6591112D01*
X35814647Y-6606000D01*
X35141788Y-6606000D01*
X35434839Y-6167418D01*
X35550092Y-5588000D01*
X35434839Y-5008582D01*
X35106625Y-4517375D01*
X35088381Y-4505184D01*
X35133765Y-4496157D01*
X35343809Y-4355809D01*
X35484157Y-4145765D01*
X35533440Y-3898000D01*
X35533440Y-2896892D01*
X37928514Y-2896892D01*
X38174817Y-3421358D01*
X38603076Y-3811645D01*
X39013110Y-3981476D01*
X39243000Y-3860155D01*
X39243000Y-2667000D01*
X38049181Y-2667000D01*
X37928514Y-2896892D01*
X35533440Y-2896892D01*
X35533440Y-2198000D01*
X35530478Y-2183108D01*
X37928514Y-2183108D01*
X38049181Y-2413000D01*
X39243000Y-2413000D01*
X39243000Y-1219845D01*
X39497000Y-1219845D01*
X39497000Y-2413000D01*
X39517000Y-2413000D01*
X39517000Y-2667000D01*
X39497000Y-2667000D01*
X39497000Y-3860155D01*
X39726890Y-3981476D01*
X40136924Y-3811645D01*
X40441261Y-3534292D01*
X40461843Y-3637765D01*
X40602191Y-3847809D01*
X40812235Y-3988157D01*
X41060000Y-4037440D01*
X42760000Y-4037440D01*
X43007765Y-3988157D01*
X43217809Y-3847809D01*
X43358157Y-3637765D01*
X43407440Y-3390000D01*
X43407440Y-1690000D01*
X43358157Y-1442235D01*
X43217809Y-1232191D01*
X43007765Y-1091843D01*
X42760000Y-1042560D01*
X41060000Y-1042560D01*
X40812235Y-1091843D01*
X40602191Y-1232191D01*
X40461843Y-1442235D01*
X40441261Y-1545708D01*
X40136924Y-1268355D01*
X39726890Y-1098524D01*
X39497000Y-1219845D01*
X39243000Y-1219845D01*
X39013110Y-1098524D01*
X38603076Y-1268355D01*
X38174817Y-1658642D01*
X37928514Y-2183108D01*
X35530478Y-2183108D01*
X35484157Y-1950235D01*
X35343809Y-1740191D01*
X35133765Y-1599843D01*
X34886000Y-1550560D01*
X33186000Y-1550560D01*
X32938235Y-1599843D01*
X32728191Y-1740191D01*
X32587843Y-1950235D01*
X32538560Y-2198000D01*
X32538560Y-3898000D01*
X32587843Y-4145765D01*
X32728191Y-4355809D01*
X32938235Y-4496157D01*
X32983619Y-4505184D01*
X32965375Y-4517375D01*
X32637161Y-5008582D01*
X32521908Y-5588000D01*
X32637161Y-6167418D01*
X32930212Y-6606000D01*
X32826803Y-6606000D01*
X31007000Y-4786199D01*
X31007000Y-4620126D01*
X30849431Y-4239720D01*
X30558280Y-3948569D01*
X30177874Y-3791000D01*
X29766126Y-3791000D01*
X29385720Y-3948569D01*
X29094569Y-4239720D01*
X28937000Y-4620126D01*
X28937000Y-5031874D01*
X29094569Y-5412280D01*
X29385720Y-5703431D01*
X29766126Y-5861000D01*
X29932199Y-5861000D01*
X30650474Y-6579276D01*
X30513000Y-6716750D01*
X30513000Y-7366000D01*
X30533000Y-7366000D01*
X30533000Y-7620000D01*
X30513000Y-7620000D01*
X30513000Y-7640000D01*
X30259000Y-7640000D01*
X30259000Y-7620000D01*
X30239000Y-7620000D01*
X30239000Y-7366000D01*
X30259000Y-7366000D01*
X30259000Y-6716750D01*
X30100250Y-6558000D01*
X29484691Y-6558000D01*
X29251302Y-6654673D01*
X29072673Y-6833301D01*
X29067820Y-6845018D01*
X27580331Y-5357530D01*
X27537929Y-5294071D01*
X27286537Y-5126096D01*
X27064852Y-5082000D01*
X27064847Y-5082000D01*
X26990000Y-5067112D01*
X26915153Y-5082000D01*
X26472801Y-5082000D01*
X28424474Y-3130328D01*
X28487929Y-3087929D01*
X28530329Y-3024473D01*
X28655904Y-2836538D01*
X28714888Y-2540000D01*
X28708492Y-2507842D01*
X28704515Y-2487851D01*
X28681677Y-2373034D01*
X28690431Y-2364280D01*
X28848000Y-1983874D01*
X28848000Y-1572126D01*
X28690431Y-1191720D01*
X28399280Y-900569D01*
X28018874Y-743000D01*
X27607126Y-743000D01*
X27226720Y-900569D01*
X26935569Y-1191720D01*
X26778000Y-1572126D01*
X26778000Y-1983874D01*
X26935569Y-2364280D01*
X26988244Y-2416955D01*
X24831199Y-4574000D01*
X23768000Y-4574000D01*
X23768000Y-4366126D01*
X23610431Y-3985720D01*
X23319280Y-3694569D01*
X22938874Y-3537000D01*
X22527126Y-3537000D01*
X22146720Y-3694569D01*
X22029289Y-3812000D01*
X17092848Y-3812000D01*
X17018000Y-3797112D01*
X16943152Y-3812000D01*
X16943148Y-3812000D01*
X16777246Y-3845000D01*
X16721462Y-3856096D01*
X16534418Y-3981076D01*
X16470071Y-4024071D01*
X16427671Y-4087527D01*
X12152199Y-8363000D01*
X11986126Y-8363000D01*
X11605720Y-8520569D01*
X11314569Y-8811720D01*
X11157000Y-9192126D01*
X11157000Y-9603874D01*
X11314569Y-9984280D01*
X11605720Y-10275431D01*
X11723001Y-10324010D01*
X11723001Y-10472288D01*
X11605569Y-10589720D01*
X11448000Y-10970126D01*
X11448000Y-11381874D01*
X11605569Y-11762280D01*
X11896720Y-12053431D01*
X12277126Y-12211000D01*
X12688874Y-12211000D01*
X13069280Y-12053431D01*
X13360431Y-11762280D01*
X13518000Y-11381874D01*
X13518000Y-10970126D01*
X13360431Y-10589720D01*
X13245255Y-10474544D01*
X13862560Y-9857239D01*
X13862560Y-12720000D01*
X13909503Y-12956000D01*
X12760802Y-12956000D01*
X11195000Y-11390199D01*
X11195000Y-11224126D01*
X11037431Y-10843720D01*
X10746280Y-10552569D01*
X10365874Y-10395000D01*
X9954126Y-10395000D01*
X9573720Y-10552569D01*
X9282569Y-10843720D01*
X9125000Y-11224126D01*
X9125000Y-11635874D01*
X9282569Y-12016280D01*
X9573720Y-12307431D01*
X9954126Y-12465000D01*
X10120199Y-12465000D01*
X11855670Y-14200472D01*
X11898071Y-14263929D01*
X12149463Y-14431904D01*
X12371148Y-14476000D01*
X12371152Y-14476000D01*
X12445999Y-14490888D01*
X12520846Y-14476000D01*
X13788018Y-14476000D01*
X13324776Y-15050171D01*
X16510000Y-18235395D01*
X19695224Y-15050171D01*
X19231982Y-14476000D01*
X19581119Y-14476000D01*
X22302844Y-17197726D01*
X22302844Y-17363798D01*
X22460413Y-17744204D01*
X22751564Y-18035355D01*
X23131970Y-18192924D01*
X23543718Y-18192924D01*
X23585848Y-18175473D01*
X19716321Y-22045001D01*
X19481283Y-22045001D01*
X19695224Y-21779829D01*
X16510000Y-18594605D01*
X13324776Y-21779829D01*
X13538717Y-22045001D01*
X9360803Y-22045001D01*
X6605620Y-19289818D01*
X11798450Y-19289818D01*
X12491874Y-21026259D01*
X12559841Y-21127979D01*
X13145171Y-21600224D01*
X16330395Y-18415000D01*
X16689605Y-18415000D01*
X19874829Y-21600224D01*
X20460159Y-21127979D01*
X21197683Y-19409805D01*
X21221550Y-17540182D01*
X20528126Y-15803741D01*
X20460159Y-15702021D01*
X19874829Y-15229776D01*
X16689605Y-18415000D01*
X16330395Y-18415000D01*
X13145171Y-15229776D01*
X12559841Y-15702021D01*
X11822317Y-17420195D01*
X11798450Y-19289818D01*
X6605620Y-19289818D01*
X4678602Y-17362801D01*
X4709195Y-17209000D01*
X4613344Y-16727127D01*
X4340385Y-16318615D01*
X4162615Y-16199833D01*
X4413080Y-15992474D01*
X4639592Y-15564281D01*
X4643462Y-15526609D01*
X4518731Y-15336000D01*
X3302000Y-15336000D01*
X3302000Y-15356000D01*
X3048000Y-15356000D01*
X3048000Y-15336000D01*
X1831269Y-15336000D01*
X1706538Y-15526609D01*
X1710408Y-15564281D01*
X1936920Y-15992474D01*
X2187385Y-16199833D01*
X2009615Y-16318615D01*
X1736656Y-16727127D01*
X1640805Y-17209000D01*
X1671398Y-17362801D01*
X1236518Y-17797681D01*
X1173062Y-17840081D01*
X1130662Y-17903537D01*
X1130661Y-17903538D01*
X1005087Y-18091473D01*
X946102Y-18388010D01*
X960991Y-18462862D01*
X960990Y-28489143D01*
X946102Y-28563990D01*
X960990Y-28638837D01*
X960990Y-28638841D01*
X960991Y-28638846D01*
X960990Y-40254143D01*
X946102Y-40328990D01*
X960990Y-40403837D01*
X960990Y-40403841D01*
X1005086Y-40625526D01*
X1173061Y-40876919D01*
X1236520Y-40919321D01*
X1606791Y-41289592D01*
X1533908Y-41656000D01*
X1649161Y-42235418D01*
X1977375Y-42726625D01*
X2275761Y-42926000D01*
X1977375Y-43125375D01*
X1649161Y-43616582D01*
X1533908Y-44196000D01*
X1649161Y-44775418D01*
X1977375Y-45266625D01*
X2296478Y-45479843D01*
X2166642Y-45540817D01*
X1776355Y-45969076D01*
X1606524Y-46379110D01*
X1727845Y-46609000D01*
X2921000Y-46609000D01*
X2921000Y-46589000D01*
X3175000Y-46589000D01*
X3175000Y-46609000D01*
X4368155Y-46609000D01*
X4489476Y-46379110D01*
X4319645Y-45969076D01*
X3929358Y-45540817D01*
X3799522Y-45479843D01*
X4118625Y-45266625D01*
X4446839Y-44775418D01*
X4562092Y-44196000D01*
X4489209Y-43829593D01*
X4707477Y-43611326D01*
X4770930Y-43568928D01*
X4813328Y-43505475D01*
X4813330Y-43505473D01*
X4938904Y-43317537D01*
X4938905Y-43317536D01*
X4983001Y-43095851D01*
X4983001Y-43095847D01*
X4997889Y-43021000D01*
X4983001Y-42946153D01*
X4983001Y-31740849D01*
X4997889Y-31666001D01*
X4983001Y-31591153D01*
X4983001Y-31591149D01*
X4940189Y-31375920D01*
X4938905Y-31369463D01*
X4813330Y-31181528D01*
X4770930Y-31118072D01*
X4707474Y-31075672D01*
X4424602Y-30792800D01*
X4455195Y-30639000D01*
X4359344Y-30157127D01*
X4086385Y-29748615D01*
X3922335Y-29639000D01*
X4086385Y-29529385D01*
X4359344Y-29120873D01*
X4455195Y-28639000D01*
X4359344Y-28157127D01*
X4086385Y-27748615D01*
X3908615Y-27629833D01*
X4159080Y-27422474D01*
X4385592Y-26994281D01*
X4389462Y-26956609D01*
X4264731Y-26766000D01*
X3048000Y-26766000D01*
X3048000Y-26786000D01*
X2794000Y-26786000D01*
X2794000Y-26766000D01*
X2774000Y-26766000D01*
X2774000Y-26512000D01*
X2794000Y-26512000D01*
X2794000Y-25404000D01*
X3048000Y-25404000D01*
X3048000Y-26512000D01*
X4264731Y-26512000D01*
X4389462Y-26321391D01*
X4385592Y-26283719D01*
X4159080Y-25855526D01*
X3785947Y-25546610D01*
X3323000Y-25404000D01*
X3048000Y-25404000D01*
X2794000Y-25404000D01*
X2519000Y-25404000D01*
X2480990Y-25415709D01*
X2480990Y-22456440D01*
X4050000Y-22456440D01*
X4297765Y-22407157D01*
X4507809Y-22266809D01*
X4648157Y-22056765D01*
X4697440Y-21809000D01*
X4697440Y-21531241D01*
X6905683Y-23739485D01*
X6948083Y-23802941D01*
X7199475Y-23970916D01*
X7421160Y-24015012D01*
X7421164Y-24015012D01*
X7496011Y-24029900D01*
X7570858Y-24015012D01*
X13881454Y-24015012D01*
X13862560Y-24110000D01*
X13862560Y-27782999D01*
X10940845Y-27782999D01*
X10865998Y-27768111D01*
X10791151Y-27782999D01*
X10791147Y-27782999D01*
X10569462Y-27827095D01*
X10318070Y-27995070D01*
X10275670Y-28058526D01*
X10033676Y-28300520D01*
X9987765Y-28269843D01*
X9740000Y-28220560D01*
X8436572Y-28220560D01*
X8501608Y-28155524D01*
X8689146Y-27874855D01*
X8777235Y-27432001D01*
X8689146Y-26989146D01*
X8438288Y-26613712D01*
X8062854Y-26362854D01*
X7619999Y-26274765D01*
X7177145Y-26362854D01*
X6896476Y-26550392D01*
X5626480Y-27820389D01*
X5531712Y-27883711D01*
X5390988Y-28094319D01*
X5280854Y-28259146D01*
X5192765Y-28702000D01*
X5215001Y-28813788D01*
X5215000Y-52534136D01*
X5192765Y-52645919D01*
X5215000Y-52757701D01*
X5280854Y-53088773D01*
X5531711Y-53464208D01*
X5626481Y-53527532D01*
X6641935Y-54542987D01*
X6590157Y-54620478D01*
X6529183Y-54490642D01*
X6100924Y-54100355D01*
X5690890Y-53930524D01*
X5461000Y-54051845D01*
X5461000Y-55245000D01*
X5481000Y-55245000D01*
X5481000Y-55499000D01*
X5461000Y-55499000D01*
X5461000Y-56692155D01*
X5690890Y-56813476D01*
X6100924Y-56643645D01*
X6529183Y-56253358D01*
X6590157Y-56123522D01*
X6803375Y-56442625D01*
X7294582Y-56770839D01*
X7727744Y-56857000D01*
X8020256Y-56857000D01*
X8240407Y-56813209D01*
X8458674Y-57031477D01*
X8501072Y-57094930D01*
X8508660Y-57100000D01*
X1953803Y-57100000D01*
X1564547Y-57044254D01*
X1251464Y-56901904D01*
X990920Y-56677405D01*
X803856Y-56388799D01*
X698526Y-56036601D01*
X685000Y-55854587D01*
X685000Y-55728892D01*
X1352514Y-55728892D01*
X1598817Y-56253358D01*
X2027076Y-56643645D01*
X2437110Y-56813476D01*
X2667000Y-56692155D01*
X2667000Y-55499000D01*
X2921000Y-55499000D01*
X2921000Y-56692155D01*
X3150890Y-56813476D01*
X3560924Y-56643645D01*
X3989183Y-56253358D01*
X4064000Y-56094046D01*
X4138817Y-56253358D01*
X4567076Y-56643645D01*
X4977110Y-56813476D01*
X5207000Y-56692155D01*
X5207000Y-55499000D01*
X2921000Y-55499000D01*
X2667000Y-55499000D01*
X1473181Y-55499000D01*
X1352514Y-55728892D01*
X685000Y-55728892D01*
X685000Y-55015108D01*
X1352514Y-55015108D01*
X1473181Y-55245000D01*
X2667000Y-55245000D01*
X2667000Y-54051845D01*
X2921000Y-54051845D01*
X2921000Y-55245000D01*
X5207000Y-55245000D01*
X5207000Y-54051845D01*
X4977110Y-53930524D01*
X4567076Y-54100355D01*
X4138817Y-54490642D01*
X4064000Y-54649954D01*
X3989183Y-54490642D01*
X3560924Y-54100355D01*
X3150890Y-53930524D01*
X2921000Y-54051845D01*
X2667000Y-54051845D01*
X2437110Y-53930524D01*
X2027076Y-54100355D01*
X1598817Y-54490642D01*
X1352514Y-55015108D01*
X685000Y-55015108D01*
X685000Y-48426000D01*
X1550560Y-48426000D01*
X1550560Y-50126000D01*
X1599843Y-50373765D01*
X1740191Y-50583809D01*
X1950235Y-50724157D01*
X2198000Y-50773440D01*
X3898000Y-50773440D01*
X4145765Y-50724157D01*
X4355809Y-50583809D01*
X4496157Y-50373765D01*
X4545440Y-50126000D01*
X4545440Y-48426000D01*
X4496157Y-48178235D01*
X4355809Y-47968191D01*
X4145765Y-47827843D01*
X4042292Y-47807261D01*
X4319645Y-47502924D01*
X4489476Y-47092890D01*
X4368155Y-46863000D01*
X3175000Y-46863000D01*
X3175000Y-46883000D01*
X2921000Y-46883000D01*
X2921000Y-46863000D01*
X1727845Y-46863000D01*
X1606524Y-47092890D01*
X1776355Y-47502924D01*
X2053708Y-47807261D01*
X1950235Y-47827843D01*
X1740191Y-47968191D01*
X1599843Y-48178235D01*
X1550560Y-48426000D01*
X685000Y-48426000D01*
X685000Y-14891391D01*
X1706538Y-14891391D01*
X1831269Y-15082000D01*
X3048000Y-15082000D01*
X3048000Y-13974000D01*
X3302000Y-13974000D01*
X3302000Y-15082000D01*
X4518731Y-15082000D01*
X4643462Y-14891391D01*
X4639592Y-14853719D01*
X4413080Y-14425526D01*
X4039947Y-14116610D01*
X3577000Y-13974000D01*
X3302000Y-13974000D01*
X3048000Y-13974000D01*
X2773000Y-13974000D01*
X2310053Y-14116610D01*
X1936920Y-14425526D01*
X1710408Y-14853719D01*
X1706538Y-14891391D01*
X685000Y-14891391D01*
X685000Y-8445000D01*
X2910805Y-8445000D01*
X3006656Y-8926873D01*
X3279615Y-9335385D01*
X3688127Y-9608344D01*
X4048364Y-9680000D01*
X4841636Y-9680000D01*
X5201873Y-9608344D01*
X5610385Y-9335385D01*
X5883344Y-8926873D01*
X5979195Y-8445000D01*
X5883344Y-7963127D01*
X5610385Y-7554615D01*
X5432615Y-7435833D01*
X5683080Y-7228474D01*
X5909592Y-6800281D01*
X5913462Y-6762609D01*
X5788731Y-6572000D01*
X4572000Y-6572000D01*
X4572000Y-6592000D01*
X4318000Y-6592000D01*
X4318000Y-6572000D01*
X3101269Y-6572000D01*
X2976538Y-6762609D01*
X2980408Y-6800281D01*
X3206920Y-7228474D01*
X3457385Y-7435833D01*
X3279615Y-7554615D01*
X3006656Y-7963127D01*
X2910805Y-8445000D01*
X685000Y-8445000D01*
X685000Y-3845000D01*
X2922560Y-3845000D01*
X2922560Y-5045000D01*
X2971843Y-5292765D01*
X3112191Y-5502809D01*
X3270700Y-5608722D01*
X3206920Y-5661526D01*
X2980408Y-6089719D01*
X2976538Y-6127391D01*
X3101269Y-6318000D01*
X4318000Y-6318000D01*
X4318000Y-6298000D01*
X4572000Y-6298000D01*
X4572000Y-6318000D01*
X5788731Y-6318000D01*
X5913462Y-6127391D01*
X5909592Y-6089719D01*
X5683080Y-5661526D01*
X5619300Y-5608722D01*
X5777809Y-5502809D01*
X5918157Y-5292765D01*
X5967440Y-5045000D01*
X5967440Y-3845000D01*
X5918157Y-3597235D01*
X5777809Y-3387191D01*
X5567765Y-3246843D01*
X5320000Y-3197560D01*
X3570000Y-3197560D01*
X3322235Y-3246843D01*
X3112191Y-3387191D01*
X2971843Y-3597235D01*
X2922560Y-3845000D01*
X685000Y-3845000D01*
X685000Y-1953803D01*
X702581Y-1831036D01*
X10690193Y-1831036D01*
X10720518Y-2321413D01*
X10849836Y-2633617D01*
X11075265Y-2683130D01*
X11758395Y-2000000D01*
X11075265Y-1316870D01*
X10849836Y-1366383D01*
X10690193Y-1831036D01*
X702581Y-1831036D01*
X740746Y-1564547D01*
X883095Y-1251466D01*
X981497Y-1137265D01*
X11254870Y-1137265D01*
X11938000Y-1820395D01*
X11952143Y-1806253D01*
X12131748Y-1985858D01*
X12117605Y-2000000D01*
X12131748Y-2014143D01*
X11952143Y-2193748D01*
X11938000Y-2179605D01*
X11254870Y-2862735D01*
X11304383Y-3088164D01*
X11769036Y-3247807D01*
X12259413Y-3217482D01*
X12571617Y-3088164D01*
X12609074Y-2917627D01*
X12738429Y-3046982D01*
X13192343Y-3235000D01*
X13683657Y-3235000D01*
X14137571Y-3046982D01*
X14188000Y-2996553D01*
X14238429Y-3046982D01*
X14692343Y-3235000D01*
X15183657Y-3235000D01*
X15637571Y-3046982D01*
X15688000Y-2996553D01*
X15738429Y-3046982D01*
X16192343Y-3235000D01*
X16683657Y-3235000D01*
X17137571Y-3046982D01*
X17188000Y-2996553D01*
X17238429Y-3046982D01*
X17692343Y-3235000D01*
X18183657Y-3235000D01*
X18637571Y-3046982D01*
X18688000Y-2996553D01*
X18738429Y-3046982D01*
X19192343Y-3235000D01*
X19683657Y-3235000D01*
X20137571Y-3046982D01*
X20484982Y-2699571D01*
X20673000Y-2245657D01*
X20673000Y-1754343D01*
X20484982Y-1300429D01*
X20137571Y-953018D01*
X19683657Y-765000D01*
X19192343Y-765000D01*
X18738429Y-953018D01*
X18688000Y-1003447D01*
X18637571Y-953018D01*
X18183657Y-765000D01*
X17692343Y-765000D01*
X17238429Y-953018D01*
X17188000Y-1003447D01*
X17137571Y-953018D01*
X16683657Y-765000D01*
X16192343Y-765000D01*
X15738429Y-953018D01*
X15688000Y-1003447D01*
X15637571Y-953018D01*
X15183657Y-765000D01*
X14692343Y-765000D01*
X14238429Y-953018D01*
X14188000Y-1003447D01*
X14137571Y-953018D01*
X13683657Y-765000D01*
X13192343Y-765000D01*
X12738429Y-953018D01*
X12609074Y-1082373D01*
X12571617Y-911836D01*
X12106964Y-752193D01*
X11616587Y-782518D01*
X11304383Y-911836D01*
X11254870Y-1137265D01*
X981497Y-1137265D01*
X1107597Y-990920D01*
X1396202Y-803855D01*
X1748399Y-698526D01*
X1930412Y-685000D01*
X42496197Y-685000D01*
X42885453Y-740746D01*
G36*
X36485670Y-47025474D02*
X36528070Y-47088930D01*
X36779462Y-47256905D01*
X37001147Y-47301001D01*
X37001152Y-47301001D01*
X37075999Y-47315889D01*
X37150846Y-47301001D01*
X38937341Y-47301001D01*
X38827359Y-47465600D01*
X38719867Y-48006000D01*
X38827359Y-48546400D01*
X39133471Y-49004529D01*
X39539756Y-49276000D01*
X39133471Y-49547471D01*
X38827359Y-50005600D01*
X38719867Y-50546000D01*
X38827359Y-51086400D01*
X39133471Y-51544529D01*
X39539756Y-51816000D01*
X39133471Y-52087471D01*
X38827359Y-52545600D01*
X38719867Y-53086000D01*
X38827359Y-53626400D01*
X39133471Y-54084529D01*
X39569013Y-54375549D01*
X39424086Y-54435575D01*
X39022417Y-54797098D01*
X38789672Y-55284813D01*
X38911575Y-55499000D01*
X40005000Y-55499000D01*
X40005000Y-55479000D01*
X40259000Y-55479000D01*
X40259000Y-55499000D01*
X40279000Y-55499000D01*
X40279000Y-55753000D01*
X40259000Y-55753000D01*
X40259000Y-56845656D01*
X40473185Y-56968318D01*
X40839914Y-56816425D01*
X41241583Y-56454902D01*
X41374302Y-56176791D01*
X41673471Y-56624529D01*
X42131600Y-56930641D01*
X42535593Y-57011000D01*
X42808407Y-57011000D01*
X43095993Y-56953796D01*
X43053799Y-56981144D01*
X42701601Y-57086474D01*
X42519587Y-57100000D01*
X28092449Y-57100000D01*
X28115130Y-56996735D01*
X27432000Y-56313605D01*
X27417858Y-56327748D01*
X27238253Y-56148143D01*
X27252395Y-56134000D01*
X27611605Y-56134000D01*
X28294735Y-56817130D01*
X28520164Y-56767617D01*
X28679807Y-56302964D01*
X28659043Y-55967187D01*
X38789672Y-55967187D01*
X39022417Y-56454902D01*
X39424086Y-56816425D01*
X39790815Y-56968318D01*
X40005000Y-56845656D01*
X40005000Y-55753000D01*
X38911575Y-55753000D01*
X38789672Y-55967187D01*
X28659043Y-55967187D01*
X28649482Y-55812587D01*
X28520164Y-55500383D01*
X28294735Y-55450870D01*
X27611605Y-56134000D01*
X27252395Y-56134000D01*
X27238253Y-56119858D01*
X27417858Y-55940253D01*
X27432000Y-55954395D01*
X28115130Y-55271265D01*
X28065617Y-55045836D01*
X27600964Y-54886193D01*
X27110587Y-54916518D01*
X26798383Y-55045836D01*
X26760926Y-55216373D01*
X26631571Y-55087018D01*
X26177657Y-54899000D01*
X25771802Y-54899000D01*
X23062337Y-52189536D01*
X23206361Y-51841831D01*
X23206361Y-51430083D01*
X23048792Y-51049677D01*
X22984542Y-50985427D01*
X23038122Y-50856072D01*
X23038122Y-50444324D01*
X22920654Y-50160732D01*
X22938280Y-50153431D01*
X23229431Y-49862280D01*
X23268949Y-49766875D01*
X23307071Y-49823929D01*
X23558463Y-49991904D01*
X23780148Y-50036000D01*
X23780152Y-50036000D01*
X23854999Y-50050888D01*
X23929846Y-50036000D01*
X26982289Y-50036000D01*
X27099720Y-50153431D01*
X27480126Y-50311000D01*
X27891874Y-50311000D01*
X28272280Y-50153431D01*
X28563431Y-49862280D01*
X28721000Y-49481874D01*
X28721000Y-49070126D01*
X28563431Y-48689720D01*
X28272280Y-48398569D01*
X27891874Y-48241000D01*
X27480126Y-48241000D01*
X27099720Y-48398569D01*
X26982289Y-48516000D01*
X24828824Y-48516000D01*
X24988385Y-48409385D01*
X25261344Y-48000872D01*
X25333000Y-47640635D01*
X25333000Y-47205010D01*
X25577739Y-47205010D01*
X25695170Y-47322441D01*
X26075576Y-47480010D01*
X26487324Y-47480010D01*
X26867730Y-47322441D01*
X27092230Y-47097941D01*
X27099720Y-47105431D01*
X27480126Y-47263000D01*
X27891874Y-47263000D01*
X28272280Y-47105431D01*
X28563431Y-46814280D01*
X28721000Y-46433874D01*
X28721000Y-46226000D01*
X35686197Y-46226000D01*
X36485670Y-47025474D01*
X36485670Y-47025474D01*
G37*
X36485670Y-47025474D02*
X36528070Y-47088930D01*
X36779462Y-47256905D01*
X37001147Y-47301001D01*
X37001152Y-47301001D01*
X37075999Y-47315889D01*
X37150846Y-47301001D01*
X38937341Y-47301001D01*
X38827359Y-47465600D01*
X38719867Y-48006000D01*
X38827359Y-48546400D01*
X39133471Y-49004529D01*
X39539756Y-49276000D01*
X39133471Y-49547471D01*
X38827359Y-50005600D01*
X38719867Y-50546000D01*
X38827359Y-51086400D01*
X39133471Y-51544529D01*
X39539756Y-51816000D01*
X39133471Y-52087471D01*
X38827359Y-52545600D01*
X38719867Y-53086000D01*
X38827359Y-53626400D01*
X39133471Y-54084529D01*
X39569013Y-54375549D01*
X39424086Y-54435575D01*
X39022417Y-54797098D01*
X38789672Y-55284813D01*
X38911575Y-55499000D01*
X40005000Y-55499000D01*
X40005000Y-55479000D01*
X40259000Y-55479000D01*
X40259000Y-55499000D01*
X40279000Y-55499000D01*
X40279000Y-55753000D01*
X40259000Y-55753000D01*
X40259000Y-56845656D01*
X40473185Y-56968318D01*
X40839914Y-56816425D01*
X41241583Y-56454902D01*
X41374302Y-56176791D01*
X41673471Y-56624529D01*
X42131600Y-56930641D01*
X42535593Y-57011000D01*
X42808407Y-57011000D01*
X43095993Y-56953796D01*
X43053799Y-56981144D01*
X42701601Y-57086474D01*
X42519587Y-57100000D01*
X28092449Y-57100000D01*
X28115130Y-56996735D01*
X27432000Y-56313605D01*
X27417858Y-56327748D01*
X27238253Y-56148143D01*
X27252395Y-56134000D01*
X27611605Y-56134000D01*
X28294735Y-56817130D01*
X28520164Y-56767617D01*
X28679807Y-56302964D01*
X28659043Y-55967187D01*
X38789672Y-55967187D01*
X39022417Y-56454902D01*
X39424086Y-56816425D01*
X39790815Y-56968318D01*
X40005000Y-56845656D01*
X40005000Y-55753000D01*
X38911575Y-55753000D01*
X38789672Y-55967187D01*
X28659043Y-55967187D01*
X28649482Y-55812587D01*
X28520164Y-55500383D01*
X28294735Y-55450870D01*
X27611605Y-56134000D01*
X27252395Y-56134000D01*
X27238253Y-56119858D01*
X27417858Y-55940253D01*
X27432000Y-55954395D01*
X28115130Y-55271265D01*
X28065617Y-55045836D01*
X27600964Y-54886193D01*
X27110587Y-54916518D01*
X26798383Y-55045836D01*
X26760926Y-55216373D01*
X26631571Y-55087018D01*
X26177657Y-54899000D01*
X25771802Y-54899000D01*
X23062337Y-52189536D01*
X23206361Y-51841831D01*
X23206361Y-51430083D01*
X23048792Y-51049677D01*
X22984542Y-50985427D01*
X23038122Y-50856072D01*
X23038122Y-50444324D01*
X22920654Y-50160732D01*
X22938280Y-50153431D01*
X23229431Y-49862280D01*
X23268949Y-49766875D01*
X23307071Y-49823929D01*
X23558463Y-49991904D01*
X23780148Y-50036000D01*
X23780152Y-50036000D01*
X23854999Y-50050888D01*
X23929846Y-50036000D01*
X26982289Y-50036000D01*
X27099720Y-50153431D01*
X27480126Y-50311000D01*
X27891874Y-50311000D01*
X28272280Y-50153431D01*
X28563431Y-49862280D01*
X28721000Y-49481874D01*
X28721000Y-49070126D01*
X28563431Y-48689720D01*
X28272280Y-48398569D01*
X27891874Y-48241000D01*
X27480126Y-48241000D01*
X27099720Y-48398569D01*
X26982289Y-48516000D01*
X24828824Y-48516000D01*
X24988385Y-48409385D01*
X25261344Y-48000872D01*
X25333000Y-47640635D01*
X25333000Y-47205010D01*
X25577739Y-47205010D01*
X25695170Y-47322441D01*
X26075576Y-47480010D01*
X26487324Y-47480010D01*
X26867730Y-47322441D01*
X27092230Y-47097941D01*
X27099720Y-47105431D01*
X27480126Y-47263000D01*
X27891874Y-47263000D01*
X28272280Y-47105431D01*
X28563431Y-46814280D01*
X28721000Y-46433874D01*
X28721000Y-46226000D01*
X35686197Y-46226000D01*
X36485670Y-47025474D01*
G36*
X42799000Y-47879000D02*
X42819000Y-47879000D01*
X42819000Y-48133000D01*
X42799000Y-48133000D01*
X42799000Y-48153000D01*
X42545000Y-48153000D01*
X42545000Y-48133000D01*
X42525000Y-48133000D01*
X42525000Y-47879000D01*
X42545000Y-47879000D01*
X42545000Y-47859000D01*
X42799000Y-47859000D01*
X42799000Y-47879000D01*
X42799000Y-47879000D01*
G37*
X42799000Y-47879000D02*
X42819000Y-47879000D01*
X42819000Y-48133000D01*
X42799000Y-48133000D01*
X42799000Y-48153000D01*
X42545000Y-48153000D01*
X42545000Y-48133000D01*
X42525000Y-48133000D01*
X42525000Y-47879000D01*
X42545000Y-47879000D01*
X42545000Y-47859000D01*
X42799000Y-47859000D01*
X42799000Y-47879000D01*
G36*
X37231261Y-14318739D02*
X37512273Y-14506505D01*
X37843750Y-14572440D01*
X38356250Y-14572440D01*
X38687727Y-14506505D01*
X38866462Y-14387078D01*
X38827359Y-14445600D01*
X38719867Y-14986000D01*
X38827359Y-15526400D01*
X39133471Y-15984529D01*
X39569013Y-16275549D01*
X39424086Y-16335575D01*
X39022417Y-16697098D01*
X38789672Y-17184813D01*
X38911575Y-17399000D01*
X40005000Y-17399000D01*
X40005000Y-17379000D01*
X40259000Y-17379000D01*
X40259000Y-17399000D01*
X40279000Y-17399000D01*
X40279000Y-17653000D01*
X40259000Y-17653000D01*
X40259000Y-17673000D01*
X40005000Y-17673000D01*
X40005000Y-17653000D01*
X38911575Y-17653000D01*
X38789672Y-17867187D01*
X39022417Y-18354902D01*
X39424086Y-18716425D01*
X39569013Y-18776451D01*
X39133471Y-19067471D01*
X38827359Y-19525600D01*
X38719867Y-20066000D01*
X38827359Y-20606400D01*
X39133471Y-21064529D01*
X39539756Y-21336000D01*
X39133471Y-21607471D01*
X38827359Y-22065600D01*
X38719867Y-22606000D01*
X38827359Y-23146400D01*
X39133471Y-23604529D01*
X39539756Y-23876000D01*
X39133471Y-24147471D01*
X38827359Y-24605600D01*
X38719867Y-25146000D01*
X38827359Y-25686400D01*
X39133471Y-26144529D01*
X39539756Y-26416000D01*
X39133471Y-26687471D01*
X38827359Y-27145600D01*
X38719867Y-27686000D01*
X38827359Y-28226400D01*
X39133471Y-28684529D01*
X39539756Y-28956000D01*
X39133471Y-29227471D01*
X38827359Y-29685600D01*
X38719867Y-30226000D01*
X38775834Y-30507364D01*
X36408539Y-32874660D01*
X36345083Y-32917060D01*
X36302683Y-32980516D01*
X36302682Y-32980517D01*
X36177108Y-33168452D01*
X36118123Y-33464989D01*
X36133012Y-33539841D01*
X36133011Y-35078927D01*
X34821528Y-36390412D01*
X34758072Y-36432812D01*
X34715672Y-36496268D01*
X34715671Y-36496269D01*
X34590097Y-36684204D01*
X34531112Y-36980741D01*
X34546001Y-37055593D01*
X34546000Y-43746289D01*
X34428569Y-43863720D01*
X34271000Y-44244126D01*
X34271000Y-44655874D01*
X34291763Y-44706000D01*
X29300011Y-44706000D01*
X29300011Y-44535116D01*
X29142442Y-44154710D01*
X28851291Y-43863559D01*
X28470885Y-43705990D01*
X28297037Y-43705990D01*
X28132536Y-43596074D01*
X27910851Y-43551978D01*
X27910846Y-43551978D01*
X27835999Y-43537090D01*
X27761152Y-43551978D01*
X25047780Y-43551978D01*
X24376583Y-42880781D01*
X24579873Y-42840344D01*
X24988385Y-42567385D01*
X25259254Y-42162000D01*
X28247563Y-42162000D01*
X28322410Y-42176888D01*
X28397257Y-42162000D01*
X28397262Y-42162000D01*
X28618947Y-42117904D01*
X28870339Y-41949929D01*
X28912741Y-41886470D01*
X34965462Y-35833750D01*
X35028918Y-35791350D01*
X35196893Y-35539958D01*
X35240989Y-35318273D01*
X35240989Y-35318268D01*
X35255877Y-35243421D01*
X35240989Y-35168574D01*
X35240989Y-34635885D01*
X35267002Y-34505109D01*
X35267002Y-34505104D01*
X35281890Y-34430257D01*
X35267002Y-34355410D01*
X35267002Y-27686536D01*
X35387752Y-27505820D01*
X35460319Y-27141002D01*
X35387752Y-26776184D01*
X35321494Y-26677021D01*
X35415010Y-26451252D01*
X35415010Y-26039504D01*
X35257441Y-25659098D01*
X34966290Y-25367947D01*
X34585884Y-25210378D01*
X34174136Y-25210378D01*
X33793730Y-25367947D01*
X33502579Y-25659098D01*
X33345010Y-26039504D01*
X33345010Y-26451252D01*
X33445010Y-26692674D01*
X33445010Y-26921924D01*
X33426693Y-27014010D01*
X33486706Y-27315714D01*
X33499260Y-27378828D01*
X33705913Y-27688107D01*
X33747003Y-27715562D01*
X33747003Y-27785295D01*
X33629901Y-27610040D01*
X33556095Y-27499581D01*
X33478028Y-27447419D01*
X32795591Y-26764982D01*
X32695591Y-26523560D01*
X32404440Y-26232409D01*
X32024034Y-26074840D01*
X31612286Y-26074840D01*
X31422544Y-26153434D01*
X31525904Y-25998743D01*
X31525905Y-25998742D01*
X31570001Y-25777057D01*
X31570001Y-25777053D01*
X31584889Y-25702206D01*
X31570001Y-25627359D01*
X31570001Y-20510847D01*
X31584889Y-20436000D01*
X31570001Y-20361153D01*
X31570001Y-20361149D01*
X31539250Y-20206552D01*
X36552473Y-15193329D01*
X36615929Y-15150929D01*
X36679430Y-15055893D01*
X36783904Y-14899538D01*
X36798929Y-14824002D01*
X36828000Y-14677852D01*
X36828000Y-14677848D01*
X36842888Y-14603000D01*
X36828000Y-14528152D01*
X36828000Y-14355852D01*
X36842888Y-14281005D01*
X36836223Y-14247500D01*
X37183661Y-14247500D01*
X37231261Y-14318739D01*
X37231261Y-14318739D01*
G37*
X37231261Y-14318739D02*
X37512273Y-14506505D01*
X37843750Y-14572440D01*
X38356250Y-14572440D01*
X38687727Y-14506505D01*
X38866462Y-14387078D01*
X38827359Y-14445600D01*
X38719867Y-14986000D01*
X38827359Y-15526400D01*
X39133471Y-15984529D01*
X39569013Y-16275549D01*
X39424086Y-16335575D01*
X39022417Y-16697098D01*
X38789672Y-17184813D01*
X38911575Y-17399000D01*
X40005000Y-17399000D01*
X40005000Y-17379000D01*
X40259000Y-17379000D01*
X40259000Y-17399000D01*
X40279000Y-17399000D01*
X40279000Y-17653000D01*
X40259000Y-17653000D01*
X40259000Y-17673000D01*
X40005000Y-17673000D01*
X40005000Y-17653000D01*
X38911575Y-17653000D01*
X38789672Y-17867187D01*
X39022417Y-18354902D01*
X39424086Y-18716425D01*
X39569013Y-18776451D01*
X39133471Y-19067471D01*
X38827359Y-19525600D01*
X38719867Y-20066000D01*
X38827359Y-20606400D01*
X39133471Y-21064529D01*
X39539756Y-21336000D01*
X39133471Y-21607471D01*
X38827359Y-22065600D01*
X38719867Y-22606000D01*
X38827359Y-23146400D01*
X39133471Y-23604529D01*
X39539756Y-23876000D01*
X39133471Y-24147471D01*
X38827359Y-24605600D01*
X38719867Y-25146000D01*
X38827359Y-25686400D01*
X39133471Y-26144529D01*
X39539756Y-26416000D01*
X39133471Y-26687471D01*
X38827359Y-27145600D01*
X38719867Y-27686000D01*
X38827359Y-28226400D01*
X39133471Y-28684529D01*
X39539756Y-28956000D01*
X39133471Y-29227471D01*
X38827359Y-29685600D01*
X38719867Y-30226000D01*
X38775834Y-30507364D01*
X36408539Y-32874660D01*
X36345083Y-32917060D01*
X36302683Y-32980516D01*
X36302682Y-32980517D01*
X36177108Y-33168452D01*
X36118123Y-33464989D01*
X36133012Y-33539841D01*
X36133011Y-35078927D01*
X34821528Y-36390412D01*
X34758072Y-36432812D01*
X34715672Y-36496268D01*
X34715671Y-36496269D01*
X34590097Y-36684204D01*
X34531112Y-36980741D01*
X34546001Y-37055593D01*
X34546000Y-43746289D01*
X34428569Y-43863720D01*
X34271000Y-44244126D01*
X34271000Y-44655874D01*
X34291763Y-44706000D01*
X29300011Y-44706000D01*
X29300011Y-44535116D01*
X29142442Y-44154710D01*
X28851291Y-43863559D01*
X28470885Y-43705990D01*
X28297037Y-43705990D01*
X28132536Y-43596074D01*
X27910851Y-43551978D01*
X27910846Y-43551978D01*
X27835999Y-43537090D01*
X27761152Y-43551978D01*
X25047780Y-43551978D01*
X24376583Y-42880781D01*
X24579873Y-42840344D01*
X24988385Y-42567385D01*
X25259254Y-42162000D01*
X28247563Y-42162000D01*
X28322410Y-42176888D01*
X28397257Y-42162000D01*
X28397262Y-42162000D01*
X28618947Y-42117904D01*
X28870339Y-41949929D01*
X28912741Y-41886470D01*
X34965462Y-35833750D01*
X35028918Y-35791350D01*
X35196893Y-35539958D01*
X35240989Y-35318273D01*
X35240989Y-35318268D01*
X35255877Y-35243421D01*
X35240989Y-35168574D01*
X35240989Y-34635885D01*
X35267002Y-34505109D01*
X35267002Y-34505104D01*
X35281890Y-34430257D01*
X35267002Y-34355410D01*
X35267002Y-27686536D01*
X35387752Y-27505820D01*
X35460319Y-27141002D01*
X35387752Y-26776184D01*
X35321494Y-26677021D01*
X35415010Y-26451252D01*
X35415010Y-26039504D01*
X35257441Y-25659098D01*
X34966290Y-25367947D01*
X34585884Y-25210378D01*
X34174136Y-25210378D01*
X33793730Y-25367947D01*
X33502579Y-25659098D01*
X33345010Y-26039504D01*
X33345010Y-26451252D01*
X33445010Y-26692674D01*
X33445010Y-26921924D01*
X33426693Y-27014010D01*
X33486706Y-27315714D01*
X33499260Y-27378828D01*
X33705913Y-27688107D01*
X33747003Y-27715562D01*
X33747003Y-27785295D01*
X33629901Y-27610040D01*
X33556095Y-27499581D01*
X33478028Y-27447419D01*
X32795591Y-26764982D01*
X32695591Y-26523560D01*
X32404440Y-26232409D01*
X32024034Y-26074840D01*
X31612286Y-26074840D01*
X31422544Y-26153434D01*
X31525904Y-25998743D01*
X31525905Y-25998742D01*
X31570001Y-25777057D01*
X31570001Y-25777053D01*
X31584889Y-25702206D01*
X31570001Y-25627359D01*
X31570001Y-20510847D01*
X31584889Y-20436000D01*
X31570001Y-20361153D01*
X31570001Y-20361149D01*
X31539250Y-20206552D01*
X36552473Y-15193329D01*
X36615929Y-15150929D01*
X36679430Y-15055893D01*
X36783904Y-14899538D01*
X36798929Y-14824002D01*
X36828000Y-14677852D01*
X36828000Y-14677848D01*
X36842888Y-14603000D01*
X36828000Y-14528152D01*
X36828000Y-14355852D01*
X36842888Y-14281005D01*
X36836223Y-14247500D01*
X37183661Y-14247500D01*
X37231261Y-14318739D01*
G36*
X15687840Y-30758126D02*
X15497824Y-30836833D01*
X15203691Y-30715000D01*
X14791943Y-30715000D01*
X14411537Y-30872569D01*
X14120386Y-31163720D01*
X13962817Y-31544126D01*
X13962817Y-31859120D01*
X13891720Y-31888569D01*
X13600569Y-32179720D01*
X13443000Y-32560126D01*
X13443000Y-32971874D01*
X13600569Y-33352280D01*
X13891720Y-33643431D01*
X14272126Y-33801000D01*
X14438199Y-33801000D01*
X15919670Y-35282472D01*
X15962071Y-35345929D01*
X16213463Y-35513904D01*
X16435148Y-35558000D01*
X16435153Y-35558000D01*
X16510000Y-35572888D01*
X16584847Y-35558000D01*
X21809796Y-35558000D01*
X21884643Y-35572888D01*
X21959490Y-35558000D01*
X21959495Y-35558000D01*
X22181180Y-35513904D01*
X22432572Y-35345929D01*
X22474974Y-35282470D01*
X23116000Y-34641445D01*
X23116001Y-37333141D01*
X23081861Y-37319000D01*
X22670113Y-37319000D01*
X22289707Y-37476569D01*
X22172276Y-37594000D01*
X21142802Y-37594000D01*
X21101000Y-37552198D01*
X21101000Y-37386126D01*
X20943431Y-37005720D01*
X20652280Y-36714569D01*
X20271874Y-36557000D01*
X19860126Y-36557000D01*
X19479720Y-36714569D01*
X19188569Y-37005720D01*
X19031000Y-37386126D01*
X19031000Y-37690274D01*
X18747874Y-37573000D01*
X18336126Y-37573000D01*
X18330240Y-37575438D01*
X16883330Y-36128529D01*
X16840928Y-36065070D01*
X16589536Y-35897095D01*
X16367851Y-35852999D01*
X16367846Y-35852999D01*
X16292999Y-35838111D01*
X16218152Y-35852999D01*
X12439112Y-35852999D01*
X12701645Y-35564924D01*
X12871476Y-35154890D01*
X12750155Y-34925000D01*
X11557000Y-34925000D01*
X11557000Y-34945000D01*
X11303000Y-34945000D01*
X11303000Y-34925000D01*
X11283000Y-34925000D01*
X11283000Y-34671000D01*
X11303000Y-34671000D01*
X11303000Y-34651000D01*
X11557000Y-34651000D01*
X11557000Y-34671000D01*
X12750155Y-34671000D01*
X12871476Y-34441110D01*
X12701645Y-34031076D01*
X12311358Y-33602817D01*
X12181522Y-33541843D01*
X12500625Y-33328625D01*
X12828839Y-32837418D01*
X12944092Y-32258000D01*
X12828839Y-31678582D01*
X12500625Y-31187375D01*
X12202239Y-30988000D01*
X12500625Y-30788625D01*
X12591247Y-30653000D01*
X15687840Y-30653000D01*
X15687840Y-30758126D01*
X15687840Y-30758126D01*
G37*
X15687840Y-30758126D02*
X15497824Y-30836833D01*
X15203691Y-30715000D01*
X14791943Y-30715000D01*
X14411537Y-30872569D01*
X14120386Y-31163720D01*
X13962817Y-31544126D01*
X13962817Y-31859120D01*
X13891720Y-31888569D01*
X13600569Y-32179720D01*
X13443000Y-32560126D01*
X13443000Y-32971874D01*
X13600569Y-33352280D01*
X13891720Y-33643431D01*
X14272126Y-33801000D01*
X14438199Y-33801000D01*
X15919670Y-35282472D01*
X15962071Y-35345929D01*
X16213463Y-35513904D01*
X16435148Y-35558000D01*
X16435153Y-35558000D01*
X16510000Y-35572888D01*
X16584847Y-35558000D01*
X21809796Y-35558000D01*
X21884643Y-35572888D01*
X21959490Y-35558000D01*
X21959495Y-35558000D01*
X22181180Y-35513904D01*
X22432572Y-35345929D01*
X22474974Y-35282470D01*
X23116000Y-34641445D01*
X23116001Y-37333141D01*
X23081861Y-37319000D01*
X22670113Y-37319000D01*
X22289707Y-37476569D01*
X22172276Y-37594000D01*
X21142802Y-37594000D01*
X21101000Y-37552198D01*
X21101000Y-37386126D01*
X20943431Y-37005720D01*
X20652280Y-36714569D01*
X20271874Y-36557000D01*
X19860126Y-36557000D01*
X19479720Y-36714569D01*
X19188569Y-37005720D01*
X19031000Y-37386126D01*
X19031000Y-37690274D01*
X18747874Y-37573000D01*
X18336126Y-37573000D01*
X18330240Y-37575438D01*
X16883330Y-36128529D01*
X16840928Y-36065070D01*
X16589536Y-35897095D01*
X16367851Y-35852999D01*
X16367846Y-35852999D01*
X16292999Y-35838111D01*
X16218152Y-35852999D01*
X12439112Y-35852999D01*
X12701645Y-35564924D01*
X12871476Y-35154890D01*
X12750155Y-34925000D01*
X11557000Y-34925000D01*
X11557000Y-34945000D01*
X11303000Y-34945000D01*
X11303000Y-34925000D01*
X11283000Y-34925000D01*
X11283000Y-34671000D01*
X11303000Y-34671000D01*
X11303000Y-34651000D01*
X11557000Y-34651000D01*
X11557000Y-34671000D01*
X12750155Y-34671000D01*
X12871476Y-34441110D01*
X12701645Y-34031076D01*
X12311358Y-33602817D01*
X12181522Y-33541843D01*
X12500625Y-33328625D01*
X12828839Y-32837418D01*
X12944092Y-32258000D01*
X12828839Y-31678582D01*
X12500625Y-31187375D01*
X12202239Y-30988000D01*
X12500625Y-30788625D01*
X12591247Y-30653000D01*
X15687840Y-30653000D01*
X15687840Y-30758126D01*
G36*
X23252730Y-23569757D02*
X23633136Y-23727326D01*
X24044884Y-23727326D01*
X24311557Y-23616867D01*
X24327342Y-23627414D01*
X24549027Y-23671510D01*
X24549032Y-23671510D01*
X24623879Y-23686398D01*
X24698726Y-23671510D01*
X24829267Y-23671510D01*
X24829267Y-23755468D01*
X24548263Y-24036472D01*
X24484804Y-24078874D01*
X24316829Y-24330267D01*
X24272733Y-24551952D01*
X24272733Y-24551956D01*
X24257845Y-24626803D01*
X24272733Y-24701650D01*
X24272733Y-24927896D01*
X24155302Y-25045327D01*
X23997733Y-25425733D01*
X23997733Y-25837481D01*
X24155302Y-26217887D01*
X24446453Y-26509038D01*
X24826859Y-26666607D01*
X25238607Y-26666607D01*
X25619013Y-26509038D01*
X25910164Y-26217887D01*
X26067733Y-25837481D01*
X26067733Y-25425733D01*
X25910164Y-25045327D01*
X25799587Y-24934750D01*
X25904068Y-24830269D01*
X26070141Y-24830269D01*
X26450547Y-24672700D01*
X26571381Y-24551866D01*
X26635011Y-24615496D01*
X26635010Y-25458289D01*
X26517579Y-25575720D01*
X26360010Y-25956126D01*
X26360010Y-26367874D01*
X26517579Y-26748280D01*
X26652248Y-26882949D01*
X25360199Y-28175000D01*
X25194126Y-28175000D01*
X24813720Y-28332569D01*
X24522569Y-28623720D01*
X24365000Y-29004126D01*
X24365000Y-29203064D01*
X24335874Y-29191000D01*
X24144655Y-29191000D01*
X24126061Y-29146111D01*
X23834910Y-28854960D01*
X23454504Y-28697391D01*
X23163457Y-28697391D01*
X23163457Y-23480484D01*
X23252730Y-23569757D01*
X23252730Y-23569757D01*
G37*
X23252730Y-23569757D02*
X23633136Y-23727326D01*
X24044884Y-23727326D01*
X24311557Y-23616867D01*
X24327342Y-23627414D01*
X24549027Y-23671510D01*
X24549032Y-23671510D01*
X24623879Y-23686398D01*
X24698726Y-23671510D01*
X24829267Y-23671510D01*
X24829267Y-23755468D01*
X24548263Y-24036472D01*
X24484804Y-24078874D01*
X24316829Y-24330267D01*
X24272733Y-24551952D01*
X24272733Y-24551956D01*
X24257845Y-24626803D01*
X24272733Y-24701650D01*
X24272733Y-24927896D01*
X24155302Y-25045327D01*
X23997733Y-25425733D01*
X23997733Y-25837481D01*
X24155302Y-26217887D01*
X24446453Y-26509038D01*
X24826859Y-26666607D01*
X25238607Y-26666607D01*
X25619013Y-26509038D01*
X25910164Y-26217887D01*
X26067733Y-25837481D01*
X26067733Y-25425733D01*
X25910164Y-25045327D01*
X25799587Y-24934750D01*
X25904068Y-24830269D01*
X26070141Y-24830269D01*
X26450547Y-24672700D01*
X26571381Y-24551866D01*
X26635011Y-24615496D01*
X26635010Y-25458289D01*
X26517579Y-25575720D01*
X26360010Y-25956126D01*
X26360010Y-26367874D01*
X26517579Y-26748280D01*
X26652248Y-26882949D01*
X25360199Y-28175000D01*
X25194126Y-28175000D01*
X24813720Y-28332569D01*
X24522569Y-28623720D01*
X24365000Y-29004126D01*
X24365000Y-29203064D01*
X24335874Y-29191000D01*
X24144655Y-29191000D01*
X24126061Y-29146111D01*
X23834910Y-28854960D01*
X23454504Y-28697391D01*
X23163457Y-28697391D01*
X23163457Y-23480484D01*
X23252730Y-23569757D01*
G36*
X30050001Y-23936788D02*
X30006998Y-23893785D01*
X30006998Y-23065252D01*
X30050002Y-23022248D01*
X30050001Y-23936788D01*
X30050001Y-23936788D01*
G37*
X30050001Y-23936788D02*
X30006998Y-23893785D01*
X30006998Y-23065252D01*
X30050002Y-23022248D01*
X30050001Y-23936788D01*
G36*
X25273000Y-22022000D02*
X26543000Y-22022000D01*
X26543000Y-22002000D01*
X26797000Y-22002000D01*
X26797000Y-22022000D01*
X26817000Y-22022000D01*
X26817000Y-22276000D01*
X26797000Y-22276000D01*
X26797000Y-22296000D01*
X26543000Y-22296000D01*
X26543000Y-22276000D01*
X26422682Y-22276000D01*
X26302364Y-22195606D01*
X26080679Y-22151510D01*
X26080674Y-22151510D01*
X26005827Y-22136622D01*
X25930980Y-22151510D01*
X24999000Y-22151510D01*
X24999000Y-22022000D01*
X25019000Y-22022000D01*
X25019000Y-22002000D01*
X25273000Y-22002000D01*
X25273000Y-22022000D01*
X25273000Y-22022000D01*
G37*
X25273000Y-22022000D02*
X26543000Y-22022000D01*
X26543000Y-22002000D01*
X26797000Y-22002000D01*
X26797000Y-22022000D01*
X26817000Y-22022000D01*
X26817000Y-22276000D01*
X26797000Y-22276000D01*
X26797000Y-22296000D01*
X26543000Y-22296000D01*
X26543000Y-22276000D01*
X26422682Y-22276000D01*
X26302364Y-22195606D01*
X26080679Y-22151510D01*
X26080674Y-22151510D01*
X26005827Y-22136622D01*
X25930980Y-22151510D01*
X24999000Y-22151510D01*
X24999000Y-22022000D01*
X25019000Y-22022000D01*
X25019000Y-22002000D01*
X25273000Y-22002000D01*
X25273000Y-22022000D01*
G36*
X28963560Y-8890362D02*
X28963560Y-9063000D01*
X29012843Y-9310765D01*
X29031701Y-9338987D01*
X28813071Y-9485071D01*
X28783030Y-9530031D01*
X28738070Y-9560072D01*
X28570095Y-9811465D01*
X28525999Y-10033150D01*
X28525999Y-10033154D01*
X28511111Y-10108001D01*
X28525999Y-10182848D01*
X28526000Y-15133000D01*
X28321000Y-15133000D01*
X28321000Y-15113000D01*
X28301000Y-15113000D01*
X28301000Y-14859000D01*
X28321000Y-14859000D01*
X28321000Y-14184750D01*
X28346500Y-14159250D01*
X28346500Y-13335000D01*
X28326500Y-13335000D01*
X28326500Y-13081000D01*
X28346500Y-13081000D01*
X28346500Y-12256750D01*
X28187750Y-12098000D01*
X27909691Y-12098000D01*
X27676302Y-12194673D01*
X27658500Y-12212475D01*
X27658500Y-11545347D01*
X27673388Y-11470500D01*
X27658500Y-11395653D01*
X27658500Y-11395648D01*
X27614404Y-11173963D01*
X27446429Y-10922571D01*
X27382973Y-10880171D01*
X26408440Y-9905639D01*
X26408440Y-9733000D01*
X26359157Y-9485235D01*
X26300868Y-9398000D01*
X26359157Y-9310765D01*
X26408440Y-9063000D01*
X26408440Y-8463000D01*
X26359157Y-8215235D01*
X26300868Y-8128000D01*
X26359157Y-8040765D01*
X26408440Y-7793000D01*
X26408440Y-7193000D01*
X26359157Y-6945235D01*
X26218809Y-6735191D01*
X26019476Y-6602000D01*
X26675199Y-6602000D01*
X28963560Y-8890362D01*
X28963560Y-8890362D01*
G37*
X28963560Y-8890362D02*
X28963560Y-9063000D01*
X29012843Y-9310765D01*
X29031701Y-9338987D01*
X28813071Y-9485071D01*
X28783030Y-9530031D01*
X28738070Y-9560072D01*
X28570095Y-9811465D01*
X28525999Y-10033150D01*
X28525999Y-10033154D01*
X28511111Y-10108001D01*
X28525999Y-10182848D01*
X28526000Y-15133000D01*
X28321000Y-15133000D01*
X28321000Y-15113000D01*
X28301000Y-15113000D01*
X28301000Y-14859000D01*
X28321000Y-14859000D01*
X28321000Y-14184750D01*
X28346500Y-14159250D01*
X28346500Y-13335000D01*
X28326500Y-13335000D01*
X28326500Y-13081000D01*
X28346500Y-13081000D01*
X28346500Y-12256750D01*
X28187750Y-12098000D01*
X27909691Y-12098000D01*
X27676302Y-12194673D01*
X27658500Y-12212475D01*
X27658500Y-11545347D01*
X27673388Y-11470500D01*
X27658500Y-11395653D01*
X27658500Y-11395648D01*
X27614404Y-11173963D01*
X27446429Y-10922571D01*
X27382973Y-10880171D01*
X26408440Y-9905639D01*
X26408440Y-9733000D01*
X26359157Y-9485235D01*
X26300868Y-9398000D01*
X26359157Y-9310765D01*
X26408440Y-9063000D01*
X26408440Y-8463000D01*
X26359157Y-8215235D01*
X26300868Y-8128000D01*
X26359157Y-8040765D01*
X26408440Y-7793000D01*
X26408440Y-7193000D01*
X26359157Y-6945235D01*
X26218809Y-6735191D01*
X26019476Y-6602000D01*
X26675199Y-6602000D01*
X28963560Y-8890362D01*
G36*
X42799000Y-12319000D02*
X42819000Y-12319000D01*
X42819000Y-12573000D01*
X42799000Y-12573000D01*
X42799000Y-12593000D01*
X42545000Y-12593000D01*
X42545000Y-12573000D01*
X42525000Y-12573000D01*
X42525000Y-12319000D01*
X42545000Y-12319000D01*
X42545000Y-12299000D01*
X42799000Y-12299000D01*
X42799000Y-12319000D01*
X42799000Y-12319000D01*
G37*
X42799000Y-12319000D02*
X42819000Y-12319000D01*
X42819000Y-12573000D01*
X42799000Y-12573000D01*
X42799000Y-12593000D01*
X42545000Y-12593000D01*
X42545000Y-12573000D01*
X42525000Y-12573000D01*
X42525000Y-12319000D01*
X42545000Y-12319000D01*
X42545000Y-12299000D01*
X42799000Y-12299000D01*
X42799000Y-12319000D01*
G36*
X31921673Y-7850476D02*
X31964071Y-7913929D01*
X32027524Y-7956327D01*
X32027526Y-7956329D01*
X32097375Y-8003000D01*
X32215463Y-8081904D01*
X32437148Y-8126000D01*
X32437152Y-8126000D01*
X32511999Y-8140888D01*
X32586846Y-8126000D01*
X35056418Y-8126000D01*
X35023495Y-8175273D01*
X34957560Y-8506750D01*
X34957560Y-9019250D01*
X35007321Y-9269414D01*
X34950500Y-9258112D01*
X34875653Y-9273000D01*
X31766669Y-9273000D01*
X31808440Y-9063000D01*
X31808440Y-8463000D01*
X31759157Y-8215235D01*
X31706232Y-8136028D01*
X31796000Y-7919310D01*
X31796000Y-7778750D01*
X31637252Y-7620002D01*
X31691199Y-7620002D01*
X31921673Y-7850476D01*
X31921673Y-7850476D01*
G37*
X31921673Y-7850476D02*
X31964071Y-7913929D01*
X32027524Y-7956327D01*
X32027526Y-7956329D01*
X32097375Y-8003000D01*
X32215463Y-8081904D01*
X32437148Y-8126000D01*
X32437152Y-8126000D01*
X32511999Y-8140888D01*
X32586846Y-8126000D01*
X35056418Y-8126000D01*
X35023495Y-8175273D01*
X34957560Y-8506750D01*
X34957560Y-9019250D01*
X35007321Y-9269414D01*
X34950500Y-9258112D01*
X34875653Y-9273000D01*
X31766669Y-9273000D01*
X31808440Y-9063000D01*
X31808440Y-8463000D01*
X31759157Y-8215235D01*
X31706232Y-8136028D01*
X31796000Y-7919310D01*
X31796000Y-7778750D01*
X31637252Y-7620002D01*
X31691199Y-7620002D01*
X31921673Y-7850476D01*
G04 #@! TD*
M02*
