G04 #@! TF.GenerationSoftware,KiCad,Pcbnew,(5.0.2)-1*
G04 #@! TF.CreationDate,2019-05-12T16:54:14-07:00*
G04 #@! TF.ProjectId,controlBoard_rev0401,636f6e74-726f-46c4-926f-6172645f7265,rev?*
G04 #@! TF.SameCoordinates,Original*
G04 #@! TF.FileFunction,Soldermask,Bot*
G04 #@! TF.FilePolarity,Negative*
%FSLAX46Y46*%
G04 Gerber Fmt 4.6, Leading zero omitted, Abs format (unit mm)*
G04 Created by KiCad (PCBNEW (5.0.2)-1) date 5/12/2019 4:54:14 PM*
%MOMM*%
%LPD*%
G01*
G04 APERTURE LIST*
%ADD10C,0.100000*%
G04 APERTURE END LIST*
D10*
G36*
X20107012Y-55557057D02*
X20216207Y-55602287D01*
X20314481Y-55667952D01*
X20398048Y-55751519D01*
X20463713Y-55849793D01*
X20508943Y-55958988D01*
X20532000Y-56074904D01*
X20532000Y-56193096D01*
X20508943Y-56309012D01*
X20463713Y-56418207D01*
X20398048Y-56516481D01*
X20314481Y-56600048D01*
X20216207Y-56665713D01*
X20107012Y-56710943D01*
X19991096Y-56734000D01*
X19872904Y-56734000D01*
X19756988Y-56710943D01*
X19647793Y-56665713D01*
X19549519Y-56600048D01*
X19465952Y-56516481D01*
X19400287Y-56418207D01*
X19355057Y-56309012D01*
X19332000Y-56193096D01*
X19332000Y-56074904D01*
X19355057Y-55958988D01*
X19400287Y-55849793D01*
X19465952Y-55751519D01*
X19549519Y-55667952D01*
X19647793Y-55602287D01*
X19756988Y-55557057D01*
X19872904Y-55534000D01*
X19991096Y-55534000D01*
X20107012Y-55557057D01*
X20107012Y-55557057D01*
G37*
G36*
X26107012Y-55557057D02*
X26216207Y-55602287D01*
X26314481Y-55667952D01*
X26398048Y-55751519D01*
X26463713Y-55849793D01*
X26508943Y-55958988D01*
X26532000Y-56074904D01*
X26532000Y-56193096D01*
X26508943Y-56309012D01*
X26463713Y-56418207D01*
X26398048Y-56516481D01*
X26314481Y-56600048D01*
X26216207Y-56665713D01*
X26107012Y-56710943D01*
X25991096Y-56734000D01*
X25872904Y-56734000D01*
X25756988Y-56710943D01*
X25647793Y-56665713D01*
X25549519Y-56600048D01*
X25465952Y-56516481D01*
X25400287Y-56418207D01*
X25355057Y-56309012D01*
X25332000Y-56193096D01*
X25332000Y-56074904D01*
X25355057Y-55958988D01*
X25400287Y-55849793D01*
X25465952Y-55751519D01*
X25549519Y-55667952D01*
X25647793Y-55602287D01*
X25756988Y-55557057D01*
X25872904Y-55534000D01*
X25991096Y-55534000D01*
X26107012Y-55557057D01*
X26107012Y-55557057D01*
G37*
G36*
X24607012Y-55557057D02*
X24716207Y-55602287D01*
X24814481Y-55667952D01*
X24898048Y-55751519D01*
X24963713Y-55849793D01*
X25008943Y-55958988D01*
X25032000Y-56074904D01*
X25032000Y-56193096D01*
X25008943Y-56309012D01*
X24963713Y-56418207D01*
X24898048Y-56516481D01*
X24814481Y-56600048D01*
X24716207Y-56665713D01*
X24607012Y-56710943D01*
X24491096Y-56734000D01*
X24372904Y-56734000D01*
X24256988Y-56710943D01*
X24147793Y-56665713D01*
X24049519Y-56600048D01*
X23965952Y-56516481D01*
X23900287Y-56418207D01*
X23855057Y-56309012D01*
X23832000Y-56193096D01*
X23832000Y-56074904D01*
X23855057Y-55958988D01*
X23900287Y-55849793D01*
X23965952Y-55751519D01*
X24049519Y-55667952D01*
X24147793Y-55602287D01*
X24256988Y-55557057D01*
X24372904Y-55534000D01*
X24491096Y-55534000D01*
X24607012Y-55557057D01*
X24607012Y-55557057D01*
G37*
G36*
X23107012Y-55557057D02*
X23216207Y-55602287D01*
X23314481Y-55667952D01*
X23398048Y-55751519D01*
X23463713Y-55849793D01*
X23508943Y-55958988D01*
X23532000Y-56074904D01*
X23532000Y-56193096D01*
X23508943Y-56309012D01*
X23463713Y-56418207D01*
X23398048Y-56516481D01*
X23314481Y-56600048D01*
X23216207Y-56665713D01*
X23107012Y-56710943D01*
X22991096Y-56734000D01*
X22872904Y-56734000D01*
X22756988Y-56710943D01*
X22647793Y-56665713D01*
X22549519Y-56600048D01*
X22465952Y-56516481D01*
X22400287Y-56418207D01*
X22355057Y-56309012D01*
X22332000Y-56193096D01*
X22332000Y-56074904D01*
X22355057Y-55958988D01*
X22400287Y-55849793D01*
X22465952Y-55751519D01*
X22549519Y-55667952D01*
X22647793Y-55602287D01*
X22756988Y-55557057D01*
X22872904Y-55534000D01*
X22991096Y-55534000D01*
X23107012Y-55557057D01*
X23107012Y-55557057D01*
G37*
G36*
X21607012Y-55557057D02*
X21716207Y-55602287D01*
X21814481Y-55667952D01*
X21898048Y-55751519D01*
X21963713Y-55849793D01*
X22008943Y-55958988D01*
X22032000Y-56074904D01*
X22032000Y-56193096D01*
X22008943Y-56309012D01*
X21963713Y-56418207D01*
X21898048Y-56516481D01*
X21814481Y-56600048D01*
X21716207Y-56665713D01*
X21607012Y-56710943D01*
X21491096Y-56734000D01*
X21372904Y-56734000D01*
X21256988Y-56710943D01*
X21147793Y-56665713D01*
X21049519Y-56600048D01*
X20965952Y-56516481D01*
X20900287Y-56418207D01*
X20855057Y-56309012D01*
X20832000Y-56193096D01*
X20832000Y-56074904D01*
X20855057Y-55958988D01*
X20900287Y-55849793D01*
X20965952Y-55751519D01*
X21049519Y-55667952D01*
X21147793Y-55602287D01*
X21256988Y-55557057D01*
X21372904Y-55534000D01*
X21491096Y-55534000D01*
X21607012Y-55557057D01*
X21607012Y-55557057D01*
G37*
G36*
X27607012Y-55557057D02*
X27716207Y-55602287D01*
X27814481Y-55667952D01*
X27898048Y-55751519D01*
X27963713Y-55849793D01*
X28008943Y-55958988D01*
X28032000Y-56074904D01*
X28032000Y-56193096D01*
X28008943Y-56309012D01*
X27963713Y-56418207D01*
X27898048Y-56516481D01*
X27814481Y-56600048D01*
X27716207Y-56665713D01*
X27607012Y-56710943D01*
X27491096Y-56734000D01*
X27372904Y-56734000D01*
X27256988Y-56710943D01*
X27147793Y-56665713D01*
X27049519Y-56600048D01*
X26965952Y-56516481D01*
X26900287Y-56418207D01*
X26855057Y-56309012D01*
X26832000Y-56193096D01*
X26832000Y-56074904D01*
X26855057Y-55958988D01*
X26900287Y-55849793D01*
X26965952Y-55751519D01*
X27049519Y-55667952D01*
X27147793Y-55602287D01*
X27256988Y-55557057D01*
X27372904Y-55534000D01*
X27491096Y-55534000D01*
X27607012Y-55557057D01*
X27607012Y-55557057D01*
G37*
G36*
X42819027Y-54886852D02*
X42960401Y-54929738D01*
X43090694Y-54999380D01*
X43204896Y-55093104D01*
X43298620Y-55207306D01*
X43368262Y-55337599D01*
X43411148Y-55478973D01*
X43425628Y-55626000D01*
X43411148Y-55773027D01*
X43368262Y-55914401D01*
X43298620Y-56044694D01*
X43204896Y-56158896D01*
X43090694Y-56252620D01*
X42960401Y-56322262D01*
X42819027Y-56365148D01*
X42708839Y-56376000D01*
X42635161Y-56376000D01*
X42524973Y-56365148D01*
X42383599Y-56322262D01*
X42253306Y-56252620D01*
X42139104Y-56158896D01*
X42045380Y-56044694D01*
X41975738Y-55914401D01*
X41932852Y-55773027D01*
X41918372Y-55626000D01*
X41932852Y-55478973D01*
X41975738Y-55337599D01*
X42045380Y-55207306D01*
X42139104Y-55093104D01*
X42253306Y-54999380D01*
X42383599Y-54929738D01*
X42524973Y-54886852D01*
X42635161Y-54876000D01*
X42708839Y-54876000D01*
X42819027Y-54886852D01*
X42819027Y-54886852D01*
G37*
G36*
X40279027Y-54886852D02*
X40420401Y-54929738D01*
X40550694Y-54999380D01*
X40664896Y-55093104D01*
X40758620Y-55207306D01*
X40828262Y-55337599D01*
X40871148Y-55478973D01*
X40885628Y-55626000D01*
X40871148Y-55773027D01*
X40828262Y-55914401D01*
X40758620Y-56044694D01*
X40664896Y-56158896D01*
X40550694Y-56252620D01*
X40420401Y-56322262D01*
X40279027Y-56365148D01*
X40168839Y-56376000D01*
X40095161Y-56376000D01*
X39984973Y-56365148D01*
X39843599Y-56322262D01*
X39713306Y-56252620D01*
X39599104Y-56158896D01*
X39505380Y-56044694D01*
X39435738Y-55914401D01*
X39392852Y-55773027D01*
X39378372Y-55626000D01*
X39392852Y-55478973D01*
X39435738Y-55337599D01*
X39505380Y-55207306D01*
X39599104Y-55093104D01*
X39713306Y-54999380D01*
X39843599Y-54929738D01*
X39984973Y-54886852D01*
X40095161Y-54876000D01*
X40168839Y-54876000D01*
X40279027Y-54886852D01*
X40279027Y-54886852D01*
G37*
G36*
X5500630Y-54534299D02*
X5660855Y-54582903D01*
X5808520Y-54661831D01*
X5937949Y-54768051D01*
X6044169Y-54897480D01*
X6123097Y-55045145D01*
X6171701Y-55205370D01*
X6188112Y-55372000D01*
X6171701Y-55538630D01*
X6123097Y-55698855D01*
X6044169Y-55846520D01*
X5937949Y-55975949D01*
X5808520Y-56082169D01*
X5660855Y-56161097D01*
X5500630Y-56209701D01*
X5375752Y-56222000D01*
X5292248Y-56222000D01*
X5167370Y-56209701D01*
X5007145Y-56161097D01*
X4859480Y-56082169D01*
X4730051Y-55975949D01*
X4623831Y-55846520D01*
X4544903Y-55698855D01*
X4496299Y-55538630D01*
X4479888Y-55372000D01*
X4496299Y-55205370D01*
X4544903Y-55045145D01*
X4623831Y-54897480D01*
X4730051Y-54768051D01*
X4859480Y-54661831D01*
X5007145Y-54582903D01*
X5167370Y-54534299D01*
X5292248Y-54522000D01*
X5375752Y-54522000D01*
X5500630Y-54534299D01*
X5500630Y-54534299D01*
G37*
G36*
X8040630Y-54534299D02*
X8200855Y-54582903D01*
X8348520Y-54661831D01*
X8477949Y-54768051D01*
X8584169Y-54897480D01*
X8663097Y-55045145D01*
X8711701Y-55205370D01*
X8728112Y-55372000D01*
X8711701Y-55538630D01*
X8663097Y-55698855D01*
X8584169Y-55846520D01*
X8477949Y-55975949D01*
X8348520Y-56082169D01*
X8200855Y-56161097D01*
X8040630Y-56209701D01*
X7915752Y-56222000D01*
X7832248Y-56222000D01*
X7707370Y-56209701D01*
X7547145Y-56161097D01*
X7399480Y-56082169D01*
X7270051Y-55975949D01*
X7163831Y-55846520D01*
X7084903Y-55698855D01*
X7036299Y-55538630D01*
X7019888Y-55372000D01*
X7036299Y-55205370D01*
X7084903Y-55045145D01*
X7163831Y-54897480D01*
X7270051Y-54768051D01*
X7399480Y-54661831D01*
X7547145Y-54582903D01*
X7707370Y-54534299D01*
X7832248Y-54522000D01*
X7915752Y-54522000D01*
X8040630Y-54534299D01*
X8040630Y-54534299D01*
G37*
G36*
X10580630Y-54534299D02*
X10740855Y-54582903D01*
X10888520Y-54661831D01*
X11017949Y-54768051D01*
X11124169Y-54897480D01*
X11203097Y-55045145D01*
X11251701Y-55205370D01*
X11268112Y-55372000D01*
X11251701Y-55538630D01*
X11203097Y-55698855D01*
X11124169Y-55846520D01*
X11017949Y-55975949D01*
X10888520Y-56082169D01*
X10740855Y-56161097D01*
X10580630Y-56209701D01*
X10455752Y-56222000D01*
X10372248Y-56222000D01*
X10247370Y-56209701D01*
X10087145Y-56161097D01*
X9939480Y-56082169D01*
X9810051Y-55975949D01*
X9703831Y-55846520D01*
X9624903Y-55698855D01*
X9576299Y-55538630D01*
X9559888Y-55372000D01*
X9576299Y-55205370D01*
X9624903Y-55045145D01*
X9703831Y-54897480D01*
X9810051Y-54768051D01*
X9939480Y-54661831D01*
X10087145Y-54582903D01*
X10247370Y-54534299D01*
X10372248Y-54522000D01*
X10455752Y-54522000D01*
X10580630Y-54534299D01*
X10580630Y-54534299D01*
G37*
G36*
X13120630Y-54534299D02*
X13280855Y-54582903D01*
X13428520Y-54661831D01*
X13557949Y-54768051D01*
X13664169Y-54897480D01*
X13743097Y-55045145D01*
X13791701Y-55205370D01*
X13808112Y-55372000D01*
X13791701Y-55538630D01*
X13743097Y-55698855D01*
X13664169Y-55846520D01*
X13557949Y-55975949D01*
X13428520Y-56082169D01*
X13280855Y-56161097D01*
X13120630Y-56209701D01*
X12995752Y-56222000D01*
X12912248Y-56222000D01*
X12787370Y-56209701D01*
X12627145Y-56161097D01*
X12479480Y-56082169D01*
X12350051Y-55975949D01*
X12243831Y-55846520D01*
X12164903Y-55698855D01*
X12116299Y-55538630D01*
X12099888Y-55372000D01*
X12116299Y-55205370D01*
X12164903Y-55045145D01*
X12243831Y-54897480D01*
X12350051Y-54768051D01*
X12479480Y-54661831D01*
X12627145Y-54582903D01*
X12787370Y-54534299D01*
X12912248Y-54522000D01*
X12995752Y-54522000D01*
X13120630Y-54534299D01*
X13120630Y-54534299D01*
G37*
G36*
X16344000Y-56222000D02*
X14644000Y-56222000D01*
X14644000Y-54522000D01*
X16344000Y-54522000D01*
X16344000Y-56222000D01*
X16344000Y-56222000D01*
G37*
G36*
X2960630Y-54534299D02*
X3120855Y-54582903D01*
X3268520Y-54661831D01*
X3397949Y-54768051D01*
X3504169Y-54897480D01*
X3583097Y-55045145D01*
X3631701Y-55205370D01*
X3648112Y-55372000D01*
X3631701Y-55538630D01*
X3583097Y-55698855D01*
X3504169Y-55846520D01*
X3397949Y-55975949D01*
X3268520Y-56082169D01*
X3120855Y-56161097D01*
X2960630Y-56209701D01*
X2835752Y-56222000D01*
X2752248Y-56222000D01*
X2627370Y-56209701D01*
X2467145Y-56161097D01*
X2319480Y-56082169D01*
X2190051Y-55975949D01*
X2083831Y-55846520D01*
X2004903Y-55698855D01*
X1956299Y-55538630D01*
X1939888Y-55372000D01*
X1956299Y-55205370D01*
X2004903Y-55045145D01*
X2083831Y-54897480D01*
X2190051Y-54768051D01*
X2319480Y-54661831D01*
X2467145Y-54582903D01*
X2627370Y-54534299D01*
X2752248Y-54522000D01*
X2835752Y-54522000D01*
X2960630Y-54534299D01*
X2960630Y-54534299D01*
G37*
G36*
X40279027Y-52346852D02*
X40420401Y-52389738D01*
X40550694Y-52459380D01*
X40664896Y-52553104D01*
X40758620Y-52667306D01*
X40828262Y-52797599D01*
X40871148Y-52938973D01*
X40885628Y-53086000D01*
X40871148Y-53233027D01*
X40828262Y-53374401D01*
X40758620Y-53504694D01*
X40664896Y-53618896D01*
X40550694Y-53712620D01*
X40420401Y-53782262D01*
X40279027Y-53825148D01*
X40168839Y-53836000D01*
X40095161Y-53836000D01*
X39984973Y-53825148D01*
X39843599Y-53782262D01*
X39713306Y-53712620D01*
X39599104Y-53618896D01*
X39505380Y-53504694D01*
X39435738Y-53374401D01*
X39392852Y-53233027D01*
X39378372Y-53086000D01*
X39392852Y-52938973D01*
X39435738Y-52797599D01*
X39505380Y-52667306D01*
X39599104Y-52553104D01*
X39713306Y-52459380D01*
X39843599Y-52389738D01*
X39984973Y-52346852D01*
X40095161Y-52336000D01*
X40168839Y-52336000D01*
X40279027Y-52346852D01*
X40279027Y-52346852D01*
G37*
G36*
X42819027Y-52346852D02*
X42960401Y-52389738D01*
X43090694Y-52459380D01*
X43204896Y-52553104D01*
X43298620Y-52667306D01*
X43368262Y-52797599D01*
X43411148Y-52938973D01*
X43425628Y-53086000D01*
X43411148Y-53233027D01*
X43368262Y-53374401D01*
X43298620Y-53504694D01*
X43204896Y-53618896D01*
X43090694Y-53712620D01*
X42960401Y-53782262D01*
X42819027Y-53825148D01*
X42708839Y-53836000D01*
X42635161Y-53836000D01*
X42524973Y-53825148D01*
X42383599Y-53782262D01*
X42253306Y-53712620D01*
X42139104Y-53618896D01*
X42045380Y-53504694D01*
X41975738Y-53374401D01*
X41932852Y-53233027D01*
X41918372Y-53086000D01*
X41932852Y-52938973D01*
X41975738Y-52797599D01*
X42045380Y-52667306D01*
X42139104Y-52553104D01*
X42253306Y-52459380D01*
X42383599Y-52389738D01*
X42524973Y-52346852D01*
X42635161Y-52336000D01*
X42708839Y-52336000D01*
X42819027Y-52346852D01*
X42819027Y-52346852D01*
G37*
G36*
X40279027Y-49806852D02*
X40420401Y-49849738D01*
X40550694Y-49919380D01*
X40664896Y-50013104D01*
X40758620Y-50127306D01*
X40828262Y-50257599D01*
X40871148Y-50398973D01*
X40885628Y-50546000D01*
X40871148Y-50693027D01*
X40828262Y-50834401D01*
X40758620Y-50964694D01*
X40664896Y-51078896D01*
X40550694Y-51172620D01*
X40420401Y-51242262D01*
X40279027Y-51285148D01*
X40168839Y-51296000D01*
X40095161Y-51296000D01*
X39984973Y-51285148D01*
X39843599Y-51242262D01*
X39713306Y-51172620D01*
X39599104Y-51078896D01*
X39505380Y-50964694D01*
X39435738Y-50834401D01*
X39392852Y-50693027D01*
X39378372Y-50546000D01*
X39392852Y-50398973D01*
X39435738Y-50257599D01*
X39505380Y-50127306D01*
X39599104Y-50013104D01*
X39713306Y-49919380D01*
X39843599Y-49849738D01*
X39984973Y-49806852D01*
X40095161Y-49796000D01*
X40168839Y-49796000D01*
X40279027Y-49806852D01*
X40279027Y-49806852D01*
G37*
G36*
X42819027Y-49806852D02*
X42960401Y-49849738D01*
X43090694Y-49919380D01*
X43204896Y-50013104D01*
X43298620Y-50127306D01*
X43368262Y-50257599D01*
X43411148Y-50398973D01*
X43425628Y-50546000D01*
X43411148Y-50693027D01*
X43368262Y-50834401D01*
X43298620Y-50964694D01*
X43204896Y-51078896D01*
X43090694Y-51172620D01*
X42960401Y-51242262D01*
X42819027Y-51285148D01*
X42708839Y-51296000D01*
X42635161Y-51296000D01*
X42524973Y-51285148D01*
X42383599Y-51242262D01*
X42253306Y-51172620D01*
X42139104Y-51078896D01*
X42045380Y-50964694D01*
X41975738Y-50834401D01*
X41932852Y-50693027D01*
X41918372Y-50546000D01*
X41932852Y-50398973D01*
X41975738Y-50257599D01*
X42045380Y-50127306D01*
X42139104Y-50013104D01*
X42253306Y-49919380D01*
X42383599Y-49849738D01*
X42524973Y-49806852D01*
X42635161Y-49796000D01*
X42708839Y-49796000D01*
X42819027Y-49806852D01*
X42819027Y-49806852D01*
G37*
G36*
X3898000Y-50126000D02*
X2198000Y-50126000D01*
X2198000Y-48426000D01*
X3898000Y-48426000D01*
X3898000Y-50126000D01*
X3898000Y-50126000D01*
G37*
G36*
X40279027Y-47266852D02*
X40420401Y-47309738D01*
X40550694Y-47379380D01*
X40664896Y-47473104D01*
X40758620Y-47587306D01*
X40828262Y-47717599D01*
X40871148Y-47858973D01*
X40885628Y-48006000D01*
X40871148Y-48153027D01*
X40828262Y-48294401D01*
X40758620Y-48424694D01*
X40664896Y-48538896D01*
X40550694Y-48632620D01*
X40420401Y-48702262D01*
X40279027Y-48745148D01*
X40168839Y-48756000D01*
X40095161Y-48756000D01*
X39984973Y-48745148D01*
X39843599Y-48702262D01*
X39713306Y-48632620D01*
X39599104Y-48538896D01*
X39505380Y-48424694D01*
X39435738Y-48294401D01*
X39392852Y-48153027D01*
X39378372Y-48006000D01*
X39392852Y-47858973D01*
X39435738Y-47717599D01*
X39505380Y-47587306D01*
X39599104Y-47473104D01*
X39713306Y-47379380D01*
X39843599Y-47309738D01*
X39984973Y-47266852D01*
X40095161Y-47256000D01*
X40168839Y-47256000D01*
X40279027Y-47266852D01*
X40279027Y-47266852D01*
G37*
G36*
X42819027Y-47266852D02*
X42960401Y-47309738D01*
X43090694Y-47379380D01*
X43204896Y-47473104D01*
X43298620Y-47587306D01*
X43368262Y-47717599D01*
X43411148Y-47858973D01*
X43425628Y-48006000D01*
X43411148Y-48153027D01*
X43368262Y-48294401D01*
X43298620Y-48424694D01*
X43204896Y-48538896D01*
X43090694Y-48632620D01*
X42960401Y-48702262D01*
X42819027Y-48745148D01*
X42708839Y-48756000D01*
X42635161Y-48756000D01*
X42524973Y-48745148D01*
X42383599Y-48702262D01*
X42253306Y-48632620D01*
X42139104Y-48538896D01*
X42045380Y-48424694D01*
X41975738Y-48294401D01*
X41932852Y-48153027D01*
X41918372Y-48006000D01*
X41932852Y-47858973D01*
X41975738Y-47717599D01*
X42045380Y-47587306D01*
X42139104Y-47473104D01*
X42253306Y-47379380D01*
X42383599Y-47309738D01*
X42524973Y-47266852D01*
X42635161Y-47256000D01*
X42708839Y-47256000D01*
X42819027Y-47266852D01*
X42819027Y-47266852D01*
G37*
G36*
X11579621Y-46377682D02*
X11692721Y-46411990D01*
X11796955Y-46467704D01*
X11888317Y-46542683D01*
X11963296Y-46634045D01*
X12019010Y-46738279D01*
X12053318Y-46851379D01*
X12062000Y-46939526D01*
X12062000Y-47548474D01*
X12053318Y-47636621D01*
X12019010Y-47749721D01*
X11963296Y-47853955D01*
X11888317Y-47945317D01*
X11796954Y-48020296D01*
X11692720Y-48076010D01*
X11579620Y-48110318D01*
X11462000Y-48121903D01*
X11344379Y-48110318D01*
X11231279Y-48076010D01*
X11127045Y-48020296D01*
X11035683Y-47945317D01*
X10960704Y-47853954D01*
X10904990Y-47749720D01*
X10870682Y-47636620D01*
X10862000Y-47548473D01*
X10862000Y-46939526D01*
X10870682Y-46851379D01*
X10904990Y-46738279D01*
X10960705Y-46634045D01*
X11035684Y-46542683D01*
X11127046Y-46467704D01*
X11231280Y-46411990D01*
X11344380Y-46377682D01*
X11462000Y-46366097D01*
X11579621Y-46377682D01*
X11579621Y-46377682D01*
G37*
G36*
X24215620Y-46377682D02*
X24328720Y-46411990D01*
X24432954Y-46467704D01*
X24524317Y-46542683D01*
X24599296Y-46634045D01*
X24655010Y-46738279D01*
X24689318Y-46851379D01*
X24698000Y-46939526D01*
X24698000Y-47548474D01*
X24689318Y-47636621D01*
X24655010Y-47749721D01*
X24599296Y-47853955D01*
X24524317Y-47945317D01*
X24432955Y-48020296D01*
X24328721Y-48076010D01*
X24215621Y-48110318D01*
X24098000Y-48121903D01*
X23980380Y-48110318D01*
X23867280Y-48076010D01*
X23763046Y-48020296D01*
X23671684Y-47945317D01*
X23596705Y-47853955D01*
X23540990Y-47749721D01*
X23506682Y-47636621D01*
X23498000Y-47548474D01*
X23498000Y-46939527D01*
X23506682Y-46851380D01*
X23540990Y-46738280D01*
X23596704Y-46634046D01*
X23671683Y-46542683D01*
X23763045Y-46467704D01*
X23867279Y-46411990D01*
X23980379Y-46377682D01*
X24098000Y-46366097D01*
X24215620Y-46377682D01*
X24215620Y-46377682D01*
G37*
G36*
X14062000Y-48119000D02*
X12862000Y-48119000D01*
X12862000Y-46369000D01*
X14062000Y-46369000D01*
X14062000Y-48119000D01*
X14062000Y-48119000D01*
G37*
G36*
X22698000Y-48119000D02*
X21498000Y-48119000D01*
X21498000Y-46369000D01*
X22698000Y-46369000D01*
X22698000Y-48119000D01*
X22698000Y-48119000D01*
G37*
G36*
X3214630Y-45898299D02*
X3374855Y-45946903D01*
X3522520Y-46025831D01*
X3651949Y-46132051D01*
X3758169Y-46261480D01*
X3837097Y-46409145D01*
X3885701Y-46569370D01*
X3902112Y-46736000D01*
X3885701Y-46902630D01*
X3837097Y-47062855D01*
X3758169Y-47210520D01*
X3651949Y-47339949D01*
X3522520Y-47446169D01*
X3374855Y-47525097D01*
X3214630Y-47573701D01*
X3089752Y-47586000D01*
X3006248Y-47586000D01*
X2881370Y-47573701D01*
X2721145Y-47525097D01*
X2573480Y-47446169D01*
X2444051Y-47339949D01*
X2337831Y-47210520D01*
X2258903Y-47062855D01*
X2210299Y-46902630D01*
X2193888Y-46736000D01*
X2210299Y-46569370D01*
X2258903Y-46409145D01*
X2337831Y-46261480D01*
X2444051Y-46132051D01*
X2573480Y-46025831D01*
X2721145Y-45946903D01*
X2881370Y-45898299D01*
X3006248Y-45886000D01*
X3089752Y-45886000D01*
X3214630Y-45898299D01*
X3214630Y-45898299D01*
G37*
G36*
X42819027Y-44726852D02*
X42960401Y-44769738D01*
X43090694Y-44839380D01*
X43204896Y-44933104D01*
X43298620Y-45047306D01*
X43368262Y-45177599D01*
X43411148Y-45318973D01*
X43425628Y-45466000D01*
X43411148Y-45613027D01*
X43368262Y-45754401D01*
X43298620Y-45884694D01*
X43204896Y-45998896D01*
X43090694Y-46092620D01*
X42960401Y-46162262D01*
X42819027Y-46205148D01*
X42708839Y-46216000D01*
X42635161Y-46216000D01*
X42524973Y-46205148D01*
X42383599Y-46162262D01*
X42253306Y-46092620D01*
X42139104Y-45998896D01*
X42045380Y-45884694D01*
X41975738Y-45754401D01*
X41932852Y-45613027D01*
X41918372Y-45466000D01*
X41932852Y-45318973D01*
X41975738Y-45177599D01*
X42045380Y-45047306D01*
X42139104Y-44933104D01*
X42253306Y-44839380D01*
X42383599Y-44769738D01*
X42524973Y-44726852D01*
X42635161Y-44716000D01*
X42708839Y-44716000D01*
X42819027Y-44726852D01*
X42819027Y-44726852D01*
G37*
G36*
X40279027Y-44726852D02*
X40420401Y-44769738D01*
X40550694Y-44839380D01*
X40664896Y-44933104D01*
X40758620Y-45047306D01*
X40828262Y-45177599D01*
X40871148Y-45318973D01*
X40885628Y-45466000D01*
X40871148Y-45613027D01*
X40828262Y-45754401D01*
X40758620Y-45884694D01*
X40664896Y-45998896D01*
X40550694Y-46092620D01*
X40420401Y-46162262D01*
X40279027Y-46205148D01*
X40168839Y-46216000D01*
X40095161Y-46216000D01*
X39984973Y-46205148D01*
X39843599Y-46162262D01*
X39713306Y-46092620D01*
X39599104Y-45998896D01*
X39505380Y-45884694D01*
X39435738Y-45754401D01*
X39392852Y-45613027D01*
X39378372Y-45466000D01*
X39392852Y-45318973D01*
X39435738Y-45177599D01*
X39505380Y-45047306D01*
X39599104Y-44933104D01*
X39713306Y-44839380D01*
X39843599Y-44769738D01*
X39984973Y-44726852D01*
X40095161Y-44716000D01*
X40168839Y-44716000D01*
X40279027Y-44726852D01*
X40279027Y-44726852D01*
G37*
G36*
X3214630Y-43358299D02*
X3374855Y-43406903D01*
X3522520Y-43485831D01*
X3651949Y-43592051D01*
X3758169Y-43721480D01*
X3837097Y-43869145D01*
X3885701Y-44029370D01*
X3902112Y-44196000D01*
X3885701Y-44362630D01*
X3837097Y-44522855D01*
X3758169Y-44670520D01*
X3651949Y-44799949D01*
X3522520Y-44906169D01*
X3374855Y-44985097D01*
X3214630Y-45033701D01*
X3089752Y-45046000D01*
X3006248Y-45046000D01*
X2881370Y-45033701D01*
X2721145Y-44985097D01*
X2573480Y-44906169D01*
X2444051Y-44799949D01*
X2337831Y-44670520D01*
X2258903Y-44522855D01*
X2210299Y-44362630D01*
X2193888Y-44196000D01*
X2210299Y-44029370D01*
X2258903Y-43869145D01*
X2337831Y-43721480D01*
X2444051Y-43592051D01*
X2573480Y-43485831D01*
X2721145Y-43406903D01*
X2881370Y-43358299D01*
X3006248Y-43346000D01*
X3089752Y-43346000D01*
X3214630Y-43358299D01*
X3214630Y-43358299D01*
G37*
G36*
X40279027Y-42186852D02*
X40420401Y-42229738D01*
X40550694Y-42299380D01*
X40664896Y-42393104D01*
X40758620Y-42507306D01*
X40828262Y-42637599D01*
X40871148Y-42778973D01*
X40885628Y-42926000D01*
X40871148Y-43073027D01*
X40828262Y-43214401D01*
X40758620Y-43344694D01*
X40664896Y-43458896D01*
X40550694Y-43552620D01*
X40420401Y-43622262D01*
X40279027Y-43665148D01*
X40168839Y-43676000D01*
X40095161Y-43676000D01*
X39984973Y-43665148D01*
X39843599Y-43622262D01*
X39713306Y-43552620D01*
X39599104Y-43458896D01*
X39505380Y-43344694D01*
X39435738Y-43214401D01*
X39392852Y-43073027D01*
X39378372Y-42926000D01*
X39392852Y-42778973D01*
X39435738Y-42637599D01*
X39505380Y-42507306D01*
X39599104Y-42393104D01*
X39713306Y-42299380D01*
X39843599Y-42229738D01*
X39984973Y-42186852D01*
X40095161Y-42176000D01*
X40168839Y-42176000D01*
X40279027Y-42186852D01*
X40279027Y-42186852D01*
G37*
G36*
X42819027Y-42186852D02*
X42960401Y-42229738D01*
X43090694Y-42299380D01*
X43204896Y-42393104D01*
X43298620Y-42507306D01*
X43368262Y-42637599D01*
X43411148Y-42778973D01*
X43425628Y-42926000D01*
X43411148Y-43073027D01*
X43368262Y-43214401D01*
X43298620Y-43344694D01*
X43204896Y-43458896D01*
X43090694Y-43552620D01*
X42960401Y-43622262D01*
X42819027Y-43665148D01*
X42708839Y-43676000D01*
X42635161Y-43676000D01*
X42524973Y-43665148D01*
X42383599Y-43622262D01*
X42253306Y-43552620D01*
X42139104Y-43458896D01*
X42045380Y-43344694D01*
X41975738Y-43214401D01*
X41932852Y-43073027D01*
X41918372Y-42926000D01*
X41932852Y-42778973D01*
X41975738Y-42637599D01*
X42045380Y-42507306D01*
X42139104Y-42393104D01*
X42253306Y-42299380D01*
X42383599Y-42229738D01*
X42524973Y-42186852D01*
X42635161Y-42176000D01*
X42708839Y-42176000D01*
X42819027Y-42186852D01*
X42819027Y-42186852D01*
G37*
G36*
X3214630Y-40818299D02*
X3374855Y-40866903D01*
X3522520Y-40945831D01*
X3651949Y-41052051D01*
X3758169Y-41181480D01*
X3837097Y-41329145D01*
X3885701Y-41489370D01*
X3902112Y-41656000D01*
X3885701Y-41822630D01*
X3837097Y-41982855D01*
X3758169Y-42130520D01*
X3651949Y-42259949D01*
X3522520Y-42366169D01*
X3374855Y-42445097D01*
X3214630Y-42493701D01*
X3089752Y-42506000D01*
X3006248Y-42506000D01*
X2881370Y-42493701D01*
X2721145Y-42445097D01*
X2573480Y-42366169D01*
X2444051Y-42259949D01*
X2337831Y-42130520D01*
X2258903Y-41982855D01*
X2210299Y-41822630D01*
X2193888Y-41656000D01*
X2210299Y-41489370D01*
X2258903Y-41329145D01*
X2337831Y-41181480D01*
X2444051Y-41052051D01*
X2573480Y-40945831D01*
X2721145Y-40866903D01*
X2881370Y-40818299D01*
X3006248Y-40806000D01*
X3089752Y-40806000D01*
X3214630Y-40818299D01*
X3214630Y-40818299D01*
G37*
G36*
X24215620Y-40535682D02*
X24328720Y-40569990D01*
X24432954Y-40625704D01*
X24524317Y-40700683D01*
X24599296Y-40792045D01*
X24655010Y-40896279D01*
X24689318Y-41009379D01*
X24698000Y-41097526D01*
X24698000Y-41706474D01*
X24689318Y-41794621D01*
X24655010Y-41907721D01*
X24599296Y-42011955D01*
X24524317Y-42103317D01*
X24432955Y-42178296D01*
X24328721Y-42234010D01*
X24215621Y-42268318D01*
X24098000Y-42279903D01*
X23980380Y-42268318D01*
X23867280Y-42234010D01*
X23763046Y-42178296D01*
X23671684Y-42103317D01*
X23596705Y-42011955D01*
X23540990Y-41907721D01*
X23506682Y-41794621D01*
X23498000Y-41706474D01*
X23498000Y-41097527D01*
X23506682Y-41009380D01*
X23540990Y-40896280D01*
X23596704Y-40792046D01*
X23671683Y-40700683D01*
X23763045Y-40625704D01*
X23867279Y-40569990D01*
X23980379Y-40535682D01*
X24098000Y-40524097D01*
X24215620Y-40535682D01*
X24215620Y-40535682D01*
G37*
G36*
X22698000Y-42277000D02*
X21498000Y-42277000D01*
X21498000Y-40527000D01*
X22698000Y-40527000D01*
X22698000Y-42277000D01*
X22698000Y-42277000D01*
G37*
G36*
X42819027Y-39646852D02*
X42960401Y-39689738D01*
X43090694Y-39759380D01*
X43204896Y-39853104D01*
X43298620Y-39967306D01*
X43368262Y-40097599D01*
X43411148Y-40238973D01*
X43425628Y-40386000D01*
X43411148Y-40533027D01*
X43368262Y-40674401D01*
X43298620Y-40804694D01*
X43204896Y-40918896D01*
X43090694Y-41012620D01*
X42960401Y-41082262D01*
X42819027Y-41125148D01*
X42708839Y-41136000D01*
X42635161Y-41136000D01*
X42524973Y-41125148D01*
X42383599Y-41082262D01*
X42253306Y-41012620D01*
X42139104Y-40918896D01*
X42045380Y-40804694D01*
X41975738Y-40674401D01*
X41932852Y-40533027D01*
X41918372Y-40386000D01*
X41932852Y-40238973D01*
X41975738Y-40097599D01*
X42045380Y-39967306D01*
X42139104Y-39853104D01*
X42253306Y-39759380D01*
X42383599Y-39689738D01*
X42524973Y-39646852D01*
X42635161Y-39636000D01*
X42708839Y-39636000D01*
X42819027Y-39646852D01*
X42819027Y-39646852D01*
G37*
G36*
X40279027Y-39646852D02*
X40420401Y-39689738D01*
X40550694Y-39759380D01*
X40664896Y-39853104D01*
X40758620Y-39967306D01*
X40828262Y-40097599D01*
X40871148Y-40238973D01*
X40885628Y-40386000D01*
X40871148Y-40533027D01*
X40828262Y-40674401D01*
X40758620Y-40804694D01*
X40664896Y-40918896D01*
X40550694Y-41012620D01*
X40420401Y-41082262D01*
X40279027Y-41125148D01*
X40168839Y-41136000D01*
X40095161Y-41136000D01*
X39984973Y-41125148D01*
X39843599Y-41082262D01*
X39713306Y-41012620D01*
X39599104Y-40918896D01*
X39505380Y-40804694D01*
X39435738Y-40674401D01*
X39392852Y-40533027D01*
X39378372Y-40386000D01*
X39392852Y-40238973D01*
X39435738Y-40097599D01*
X39505380Y-39967306D01*
X39599104Y-39853104D01*
X39713306Y-39759380D01*
X39843599Y-39689738D01*
X39984973Y-39646852D01*
X40095161Y-39636000D01*
X40168839Y-39636000D01*
X40279027Y-39646852D01*
X40279027Y-39646852D01*
G37*
G36*
X42819027Y-37106852D02*
X42960401Y-37149738D01*
X43090694Y-37219380D01*
X43204896Y-37313104D01*
X43298620Y-37427306D01*
X43368262Y-37557599D01*
X43411148Y-37698973D01*
X43425628Y-37846000D01*
X43411148Y-37993027D01*
X43368262Y-38134401D01*
X43298620Y-38264694D01*
X43204896Y-38378896D01*
X43090694Y-38472620D01*
X42960401Y-38542262D01*
X42819027Y-38585148D01*
X42708839Y-38596000D01*
X42635161Y-38596000D01*
X42524973Y-38585148D01*
X42383599Y-38542262D01*
X42253306Y-38472620D01*
X42139104Y-38378896D01*
X42045380Y-38264694D01*
X41975738Y-38134401D01*
X41932852Y-37993027D01*
X41918372Y-37846000D01*
X41932852Y-37698973D01*
X41975738Y-37557599D01*
X42045380Y-37427306D01*
X42139104Y-37313104D01*
X42253306Y-37219380D01*
X42383599Y-37149738D01*
X42524973Y-37106852D01*
X42635161Y-37096000D01*
X42708839Y-37096000D01*
X42819027Y-37106852D01*
X42819027Y-37106852D01*
G37*
G36*
X40279027Y-37106852D02*
X40420401Y-37149738D01*
X40550694Y-37219380D01*
X40664896Y-37313104D01*
X40758620Y-37427306D01*
X40828262Y-37557599D01*
X40871148Y-37698973D01*
X40885628Y-37846000D01*
X40871148Y-37993027D01*
X40828262Y-38134401D01*
X40758620Y-38264694D01*
X40664896Y-38378896D01*
X40550694Y-38472620D01*
X40420401Y-38542262D01*
X40279027Y-38585148D01*
X40168839Y-38596000D01*
X40095161Y-38596000D01*
X39984973Y-38585148D01*
X39843599Y-38542262D01*
X39713306Y-38472620D01*
X39599104Y-38378896D01*
X39505380Y-38264694D01*
X39435738Y-38134401D01*
X39392852Y-37993027D01*
X39378372Y-37846000D01*
X39392852Y-37698973D01*
X39435738Y-37557599D01*
X39505380Y-37427306D01*
X39599104Y-37313104D01*
X39713306Y-37219380D01*
X39843599Y-37149738D01*
X39984973Y-37106852D01*
X40095161Y-37096000D01*
X40168839Y-37096000D01*
X40279027Y-37106852D01*
X40279027Y-37106852D01*
G37*
G36*
X40279027Y-34566852D02*
X40420401Y-34609738D01*
X40550694Y-34679380D01*
X40664896Y-34773104D01*
X40758620Y-34887306D01*
X40828262Y-35017599D01*
X40871148Y-35158973D01*
X40885628Y-35306000D01*
X40871148Y-35453027D01*
X40828262Y-35594401D01*
X40758620Y-35724694D01*
X40664896Y-35838896D01*
X40550694Y-35932620D01*
X40420401Y-36002262D01*
X40279027Y-36045148D01*
X40168839Y-36056000D01*
X40095161Y-36056000D01*
X39984973Y-36045148D01*
X39843599Y-36002262D01*
X39713306Y-35932620D01*
X39599104Y-35838896D01*
X39505380Y-35724694D01*
X39435738Y-35594401D01*
X39392852Y-35453027D01*
X39378372Y-35306000D01*
X39392852Y-35158973D01*
X39435738Y-35017599D01*
X39505380Y-34887306D01*
X39599104Y-34773104D01*
X39713306Y-34679380D01*
X39843599Y-34609738D01*
X39984973Y-34566852D01*
X40095161Y-34556000D01*
X40168839Y-34556000D01*
X40279027Y-34566852D01*
X40279027Y-34566852D01*
G37*
G36*
X42819027Y-34566852D02*
X42960401Y-34609738D01*
X43090694Y-34679380D01*
X43204896Y-34773104D01*
X43298620Y-34887306D01*
X43368262Y-35017599D01*
X43411148Y-35158973D01*
X43425628Y-35306000D01*
X43411148Y-35453027D01*
X43368262Y-35594401D01*
X43298620Y-35724694D01*
X43204896Y-35838896D01*
X43090694Y-35932620D01*
X42960401Y-36002262D01*
X42819027Y-36045148D01*
X42708839Y-36056000D01*
X42635161Y-36056000D01*
X42524973Y-36045148D01*
X42383599Y-36002262D01*
X42253306Y-35932620D01*
X42139104Y-35838896D01*
X42045380Y-35724694D01*
X41975738Y-35594401D01*
X41932852Y-35453027D01*
X41918372Y-35306000D01*
X41932852Y-35158973D01*
X41975738Y-35017599D01*
X42045380Y-34887306D01*
X42139104Y-34773104D01*
X42253306Y-34679380D01*
X42383599Y-34609738D01*
X42524973Y-34566852D01*
X42635161Y-34556000D01*
X42708839Y-34556000D01*
X42819027Y-34566852D01*
X42819027Y-34566852D01*
G37*
G36*
X11596630Y-33960299D02*
X11756855Y-34008903D01*
X11904520Y-34087831D01*
X12033949Y-34194051D01*
X12140169Y-34323480D01*
X12219097Y-34471145D01*
X12267701Y-34631370D01*
X12284112Y-34798000D01*
X12267701Y-34964630D01*
X12219097Y-35124855D01*
X12140169Y-35272520D01*
X12033949Y-35401949D01*
X11904520Y-35508169D01*
X11756855Y-35587097D01*
X11596630Y-35635701D01*
X11471752Y-35648000D01*
X11388248Y-35648000D01*
X11263370Y-35635701D01*
X11103145Y-35587097D01*
X10955480Y-35508169D01*
X10826051Y-35401949D01*
X10719831Y-35272520D01*
X10640903Y-35124855D01*
X10592299Y-34964630D01*
X10575888Y-34798000D01*
X10592299Y-34631370D01*
X10640903Y-34471145D01*
X10719831Y-34323480D01*
X10826051Y-34194051D01*
X10955480Y-34087831D01*
X11103145Y-34008903D01*
X11263370Y-33960299D01*
X11388248Y-33948000D01*
X11471752Y-33948000D01*
X11596630Y-33960299D01*
X11596630Y-33960299D01*
G37*
G36*
X9056630Y-33960299D02*
X9216855Y-34008903D01*
X9364520Y-34087831D01*
X9493949Y-34194051D01*
X9600169Y-34323480D01*
X9679097Y-34471145D01*
X9727701Y-34631370D01*
X9744112Y-34798000D01*
X9727701Y-34964630D01*
X9679097Y-35124855D01*
X9600169Y-35272520D01*
X9493949Y-35401949D01*
X9364520Y-35508169D01*
X9216855Y-35587097D01*
X9056630Y-35635701D01*
X8931752Y-35648000D01*
X8848248Y-35648000D01*
X8723370Y-35635701D01*
X8563145Y-35587097D01*
X8415480Y-35508169D01*
X8286051Y-35401949D01*
X8179831Y-35272520D01*
X8100903Y-35124855D01*
X8052299Y-34964630D01*
X8035888Y-34798000D01*
X8052299Y-34631370D01*
X8100903Y-34471145D01*
X8179831Y-34323480D01*
X8286051Y-34194051D01*
X8415480Y-34087831D01*
X8563145Y-34008903D01*
X8723370Y-33960299D01*
X8848248Y-33948000D01*
X8931752Y-33948000D01*
X9056630Y-33960299D01*
X9056630Y-33960299D01*
G37*
G36*
X42819027Y-32026852D02*
X42960401Y-32069738D01*
X43090694Y-32139380D01*
X43204896Y-32233104D01*
X43298620Y-32347306D01*
X43368262Y-32477599D01*
X43411148Y-32618973D01*
X43425628Y-32766000D01*
X43411148Y-32913027D01*
X43368262Y-33054401D01*
X43298620Y-33184694D01*
X43204896Y-33298896D01*
X43090694Y-33392620D01*
X42960401Y-33462262D01*
X42819027Y-33505148D01*
X42708839Y-33516000D01*
X42635161Y-33516000D01*
X42524973Y-33505148D01*
X42383599Y-33462262D01*
X42253306Y-33392620D01*
X42139104Y-33298896D01*
X42045380Y-33184694D01*
X41975738Y-33054401D01*
X41932852Y-32913027D01*
X41918372Y-32766000D01*
X41932852Y-32618973D01*
X41975738Y-32477599D01*
X42045380Y-32347306D01*
X42139104Y-32233104D01*
X42253306Y-32139380D01*
X42383599Y-32069738D01*
X42524973Y-32026852D01*
X42635161Y-32016000D01*
X42708839Y-32016000D01*
X42819027Y-32026852D01*
X42819027Y-32026852D01*
G37*
G36*
X40279027Y-32026852D02*
X40420401Y-32069738D01*
X40550694Y-32139380D01*
X40664896Y-32233104D01*
X40758620Y-32347306D01*
X40828262Y-32477599D01*
X40871148Y-32618973D01*
X40885628Y-32766000D01*
X40871148Y-32913027D01*
X40828262Y-33054401D01*
X40758620Y-33184694D01*
X40664896Y-33298896D01*
X40550694Y-33392620D01*
X40420401Y-33462262D01*
X40279027Y-33505148D01*
X40168839Y-33516000D01*
X40095161Y-33516000D01*
X39984973Y-33505148D01*
X39843599Y-33462262D01*
X39713306Y-33392620D01*
X39599104Y-33298896D01*
X39505380Y-33184694D01*
X39435738Y-33054401D01*
X39392852Y-32913027D01*
X39378372Y-32766000D01*
X39392852Y-32618973D01*
X39435738Y-32477599D01*
X39505380Y-32347306D01*
X39599104Y-32233104D01*
X39713306Y-32139380D01*
X39843599Y-32069738D01*
X39984973Y-32026852D01*
X40095161Y-32016000D01*
X40168839Y-32016000D01*
X40279027Y-32026852D01*
X40279027Y-32026852D01*
G37*
G36*
X3796000Y-33239000D02*
X2046000Y-33239000D01*
X2046000Y-32039000D01*
X3796000Y-32039000D01*
X3796000Y-33239000D01*
X3796000Y-33239000D01*
G37*
G36*
X11596630Y-31420299D02*
X11756855Y-31468903D01*
X11904520Y-31547831D01*
X12033949Y-31654051D01*
X12140169Y-31783480D01*
X12219097Y-31931145D01*
X12267701Y-32091370D01*
X12284112Y-32258000D01*
X12267701Y-32424630D01*
X12219097Y-32584855D01*
X12140169Y-32732520D01*
X12033949Y-32861949D01*
X11904520Y-32968169D01*
X11756855Y-33047097D01*
X11596630Y-33095701D01*
X11471752Y-33108000D01*
X11388248Y-33108000D01*
X11263370Y-33095701D01*
X11103145Y-33047097D01*
X10955480Y-32968169D01*
X10826051Y-32861949D01*
X10719831Y-32732520D01*
X10640903Y-32584855D01*
X10592299Y-32424630D01*
X10575888Y-32258000D01*
X10592299Y-32091370D01*
X10640903Y-31931145D01*
X10719831Y-31783480D01*
X10826051Y-31654051D01*
X10955480Y-31547831D01*
X11103145Y-31468903D01*
X11263370Y-31420299D01*
X11388248Y-31408000D01*
X11471752Y-31408000D01*
X11596630Y-31420299D01*
X11596630Y-31420299D01*
G37*
G36*
X9056630Y-31420299D02*
X9216855Y-31468903D01*
X9364520Y-31547831D01*
X9493949Y-31654051D01*
X9600169Y-31783480D01*
X9679097Y-31931145D01*
X9727701Y-32091370D01*
X9744112Y-32258000D01*
X9727701Y-32424630D01*
X9679097Y-32584855D01*
X9600169Y-32732520D01*
X9493949Y-32861949D01*
X9364520Y-32968169D01*
X9216855Y-33047097D01*
X9056630Y-33095701D01*
X8931752Y-33108000D01*
X8848248Y-33108000D01*
X8723370Y-33095701D01*
X8563145Y-33047097D01*
X8415480Y-32968169D01*
X8286051Y-32861949D01*
X8179831Y-32732520D01*
X8100903Y-32584855D01*
X8052299Y-32424630D01*
X8035888Y-32258000D01*
X8052299Y-32091370D01*
X8100903Y-31931145D01*
X8179831Y-31783480D01*
X8286051Y-31654051D01*
X8415480Y-31547831D01*
X8563145Y-31468903D01*
X8723370Y-31420299D01*
X8848248Y-31408000D01*
X8931752Y-31408000D01*
X9056630Y-31420299D01*
X9056630Y-31420299D01*
G37*
G36*
X3313621Y-30047682D02*
X3426721Y-30081990D01*
X3530955Y-30137704D01*
X3622317Y-30212683D01*
X3697296Y-30304045D01*
X3753010Y-30408279D01*
X3787318Y-30521379D01*
X3798903Y-30639000D01*
X3787318Y-30756621D01*
X3753010Y-30869721D01*
X3697296Y-30973955D01*
X3622317Y-31065317D01*
X3530955Y-31140296D01*
X3426721Y-31196010D01*
X3313621Y-31230318D01*
X3225474Y-31239000D01*
X2616526Y-31239000D01*
X2528379Y-31230318D01*
X2415279Y-31196010D01*
X2311045Y-31140296D01*
X2219683Y-31065317D01*
X2144704Y-30973955D01*
X2088990Y-30869721D01*
X2054682Y-30756621D01*
X2043097Y-30639000D01*
X2054682Y-30521379D01*
X2088990Y-30408279D01*
X2144704Y-30304045D01*
X2219683Y-30212683D01*
X2311045Y-30137704D01*
X2415279Y-30081990D01*
X2528379Y-30047682D01*
X2616526Y-30039000D01*
X3225474Y-30039000D01*
X3313621Y-30047682D01*
X3313621Y-30047682D01*
G37*
G36*
X42819027Y-29486852D02*
X42960401Y-29529738D01*
X43090694Y-29599380D01*
X43204896Y-29693104D01*
X43298620Y-29807306D01*
X43368262Y-29937599D01*
X43411148Y-30078973D01*
X43425628Y-30226000D01*
X43411148Y-30373027D01*
X43368262Y-30514401D01*
X43298620Y-30644694D01*
X43204896Y-30758896D01*
X43090694Y-30852620D01*
X42960401Y-30922262D01*
X42819027Y-30965148D01*
X42708839Y-30976000D01*
X42635161Y-30976000D01*
X42524973Y-30965148D01*
X42383599Y-30922262D01*
X42253306Y-30852620D01*
X42139104Y-30758896D01*
X42045380Y-30644694D01*
X41975738Y-30514401D01*
X41932852Y-30373027D01*
X41918372Y-30226000D01*
X41932852Y-30078973D01*
X41975738Y-29937599D01*
X42045380Y-29807306D01*
X42139104Y-29693104D01*
X42253306Y-29599380D01*
X42383599Y-29529738D01*
X42524973Y-29486852D01*
X42635161Y-29476000D01*
X42708839Y-29476000D01*
X42819027Y-29486852D01*
X42819027Y-29486852D01*
G37*
G36*
X40279027Y-29486852D02*
X40420401Y-29529738D01*
X40550694Y-29599380D01*
X40664896Y-29693104D01*
X40758620Y-29807306D01*
X40828262Y-29937599D01*
X40871148Y-30078973D01*
X40885628Y-30226000D01*
X40871148Y-30373027D01*
X40828262Y-30514401D01*
X40758620Y-30644694D01*
X40664896Y-30758896D01*
X40550694Y-30852620D01*
X40420401Y-30922262D01*
X40279027Y-30965148D01*
X40168839Y-30976000D01*
X40095161Y-30976000D01*
X39984973Y-30965148D01*
X39843599Y-30922262D01*
X39713306Y-30852620D01*
X39599104Y-30758896D01*
X39505380Y-30644694D01*
X39435738Y-30514401D01*
X39392852Y-30373027D01*
X39378372Y-30226000D01*
X39392852Y-30078973D01*
X39435738Y-29937599D01*
X39505380Y-29807306D01*
X39599104Y-29693104D01*
X39713306Y-29599380D01*
X39843599Y-29529738D01*
X39984973Y-29486852D01*
X40095161Y-29476000D01*
X40168839Y-29476000D01*
X40279027Y-29486852D01*
X40279027Y-29486852D01*
G37*
G36*
X11596630Y-28880299D02*
X11756855Y-28928903D01*
X11904520Y-29007831D01*
X12033949Y-29114051D01*
X12140169Y-29243480D01*
X12219097Y-29391145D01*
X12267701Y-29551370D01*
X12284112Y-29718000D01*
X12267701Y-29884630D01*
X12219097Y-30044855D01*
X12140169Y-30192520D01*
X12033949Y-30321949D01*
X11904520Y-30428169D01*
X11756855Y-30507097D01*
X11596630Y-30555701D01*
X11471752Y-30568000D01*
X11388248Y-30568000D01*
X11263370Y-30555701D01*
X11103145Y-30507097D01*
X10955480Y-30428169D01*
X10826051Y-30321949D01*
X10719831Y-30192520D01*
X10640903Y-30044855D01*
X10592299Y-29884630D01*
X10575888Y-29718000D01*
X10592299Y-29551370D01*
X10640903Y-29391145D01*
X10719831Y-29243480D01*
X10826051Y-29114051D01*
X10955480Y-29007831D01*
X11103145Y-28928903D01*
X11263370Y-28880299D01*
X11388248Y-28868000D01*
X11471752Y-28868000D01*
X11596630Y-28880299D01*
X11596630Y-28880299D01*
G37*
G36*
X9740000Y-30568000D02*
X8040000Y-30568000D01*
X8040000Y-28868000D01*
X9740000Y-28868000D01*
X9740000Y-30568000D01*
X9740000Y-30568000D01*
G37*
G36*
X3313621Y-28047682D02*
X3426721Y-28081990D01*
X3530955Y-28137704D01*
X3622317Y-28212683D01*
X3697296Y-28304045D01*
X3753010Y-28408279D01*
X3787318Y-28521379D01*
X3798903Y-28639000D01*
X3787318Y-28756621D01*
X3753010Y-28869721D01*
X3697296Y-28973955D01*
X3622317Y-29065317D01*
X3530955Y-29140296D01*
X3426721Y-29196010D01*
X3313621Y-29230318D01*
X3225474Y-29239000D01*
X2616526Y-29239000D01*
X2528379Y-29230318D01*
X2415279Y-29196010D01*
X2311045Y-29140296D01*
X2219683Y-29065317D01*
X2144704Y-28973955D01*
X2088990Y-28869721D01*
X2054682Y-28756621D01*
X2043097Y-28639000D01*
X2054682Y-28521379D01*
X2088990Y-28408279D01*
X2144704Y-28304045D01*
X2219683Y-28212683D01*
X2311045Y-28137704D01*
X2415279Y-28081990D01*
X2528379Y-28047682D01*
X2616526Y-28039000D01*
X3225474Y-28039000D01*
X3313621Y-28047682D01*
X3313621Y-28047682D01*
G37*
G36*
X42819027Y-26946852D02*
X42960401Y-26989738D01*
X43090694Y-27059380D01*
X43204896Y-27153104D01*
X43298620Y-27267306D01*
X43368262Y-27397599D01*
X43411148Y-27538973D01*
X43425628Y-27686000D01*
X43411148Y-27833027D01*
X43368262Y-27974401D01*
X43298620Y-28104694D01*
X43204896Y-28218896D01*
X43090694Y-28312620D01*
X42960401Y-28382262D01*
X42819027Y-28425148D01*
X42708839Y-28436000D01*
X42635161Y-28436000D01*
X42524973Y-28425148D01*
X42383599Y-28382262D01*
X42253306Y-28312620D01*
X42139104Y-28218896D01*
X42045380Y-28104694D01*
X41975738Y-27974401D01*
X41932852Y-27833027D01*
X41918372Y-27686000D01*
X41932852Y-27538973D01*
X41975738Y-27397599D01*
X42045380Y-27267306D01*
X42139104Y-27153104D01*
X42253306Y-27059380D01*
X42383599Y-26989738D01*
X42524973Y-26946852D01*
X42635161Y-26936000D01*
X42708839Y-26936000D01*
X42819027Y-26946852D01*
X42819027Y-26946852D01*
G37*
G36*
X40279027Y-26946852D02*
X40420401Y-26989738D01*
X40550694Y-27059380D01*
X40664896Y-27153104D01*
X40758620Y-27267306D01*
X40828262Y-27397599D01*
X40871148Y-27538973D01*
X40885628Y-27686000D01*
X40871148Y-27833027D01*
X40828262Y-27974401D01*
X40758620Y-28104694D01*
X40664896Y-28218896D01*
X40550694Y-28312620D01*
X40420401Y-28382262D01*
X40279027Y-28425148D01*
X40168839Y-28436000D01*
X40095161Y-28436000D01*
X39984973Y-28425148D01*
X39843599Y-28382262D01*
X39713306Y-28312620D01*
X39599104Y-28218896D01*
X39505380Y-28104694D01*
X39435738Y-27974401D01*
X39392852Y-27833027D01*
X39378372Y-27686000D01*
X39392852Y-27538973D01*
X39435738Y-27397599D01*
X39505380Y-27267306D01*
X39599104Y-27153104D01*
X39713306Y-27059380D01*
X39843599Y-26989738D01*
X39984973Y-26946852D01*
X40095161Y-26936000D01*
X40168839Y-26936000D01*
X40279027Y-26946852D01*
X40279027Y-26946852D01*
G37*
G36*
X18510000Y-28110000D02*
X14510000Y-28110000D01*
X14510000Y-24110000D01*
X18510000Y-24110000D01*
X18510000Y-28110000D01*
X18510000Y-28110000D01*
G37*
G36*
X3313621Y-26047682D02*
X3426721Y-26081990D01*
X3530955Y-26137704D01*
X3622317Y-26212683D01*
X3697296Y-26304045D01*
X3753010Y-26408279D01*
X3787318Y-26521379D01*
X3798903Y-26639000D01*
X3787318Y-26756621D01*
X3753010Y-26869721D01*
X3697296Y-26973955D01*
X3622317Y-27065317D01*
X3530955Y-27140296D01*
X3426721Y-27196010D01*
X3313621Y-27230318D01*
X3225474Y-27239000D01*
X2616526Y-27239000D01*
X2528379Y-27230318D01*
X2415279Y-27196010D01*
X2311045Y-27140296D01*
X2219683Y-27065317D01*
X2144704Y-26973955D01*
X2088990Y-26869721D01*
X2054682Y-26756621D01*
X2043097Y-26639000D01*
X2054682Y-26521379D01*
X2088990Y-26408279D01*
X2144704Y-26304045D01*
X2219683Y-26212683D01*
X2311045Y-26137704D01*
X2415279Y-26081990D01*
X2528379Y-26047682D01*
X2616526Y-26039000D01*
X3225474Y-26039000D01*
X3313621Y-26047682D01*
X3313621Y-26047682D01*
G37*
G36*
X42819027Y-24406852D02*
X42960401Y-24449738D01*
X43090694Y-24519380D01*
X43204896Y-24613104D01*
X43298620Y-24727306D01*
X43368262Y-24857599D01*
X43411148Y-24998973D01*
X43425628Y-25146000D01*
X43411148Y-25293027D01*
X43368262Y-25434401D01*
X43298620Y-25564694D01*
X43204896Y-25678896D01*
X43090694Y-25772620D01*
X42960401Y-25842262D01*
X42819027Y-25885148D01*
X42708839Y-25896000D01*
X42635161Y-25896000D01*
X42524973Y-25885148D01*
X42383599Y-25842262D01*
X42253306Y-25772620D01*
X42139104Y-25678896D01*
X42045380Y-25564694D01*
X41975738Y-25434401D01*
X41932852Y-25293027D01*
X41918372Y-25146000D01*
X41932852Y-24998973D01*
X41975738Y-24857599D01*
X42045380Y-24727306D01*
X42139104Y-24613104D01*
X42253306Y-24519380D01*
X42383599Y-24449738D01*
X42524973Y-24406852D01*
X42635161Y-24396000D01*
X42708839Y-24396000D01*
X42819027Y-24406852D01*
X42819027Y-24406852D01*
G37*
G36*
X40279027Y-24406852D02*
X40420401Y-24449738D01*
X40550694Y-24519380D01*
X40664896Y-24613104D01*
X40758620Y-24727306D01*
X40828262Y-24857599D01*
X40871148Y-24998973D01*
X40885628Y-25146000D01*
X40871148Y-25293027D01*
X40828262Y-25434401D01*
X40758620Y-25564694D01*
X40664896Y-25678896D01*
X40550694Y-25772620D01*
X40420401Y-25842262D01*
X40279027Y-25885148D01*
X40168839Y-25896000D01*
X40095161Y-25896000D01*
X39984973Y-25885148D01*
X39843599Y-25842262D01*
X39713306Y-25772620D01*
X39599104Y-25678896D01*
X39505380Y-25564694D01*
X39435738Y-25434401D01*
X39392852Y-25293027D01*
X39378372Y-25146000D01*
X39392852Y-24998973D01*
X39435738Y-24857599D01*
X39505380Y-24727306D01*
X39599104Y-24613104D01*
X39713306Y-24519380D01*
X39843599Y-24449738D01*
X39984973Y-24406852D01*
X40095161Y-24396000D01*
X40168839Y-24396000D01*
X40279027Y-24406852D01*
X40279027Y-24406852D01*
G37*
G36*
X40279027Y-21866852D02*
X40420401Y-21909738D01*
X40550694Y-21979380D01*
X40664896Y-22073104D01*
X40758620Y-22187306D01*
X40828262Y-22317599D01*
X40871148Y-22458973D01*
X40885628Y-22606000D01*
X40871148Y-22753027D01*
X40828262Y-22894401D01*
X40758620Y-23024694D01*
X40664896Y-23138896D01*
X40550694Y-23232620D01*
X40420401Y-23302262D01*
X40279027Y-23345148D01*
X40168839Y-23356000D01*
X40095161Y-23356000D01*
X39984973Y-23345148D01*
X39843599Y-23302262D01*
X39713306Y-23232620D01*
X39599104Y-23138896D01*
X39505380Y-23024694D01*
X39435738Y-22894401D01*
X39392852Y-22753027D01*
X39378372Y-22606000D01*
X39392852Y-22458973D01*
X39435738Y-22317599D01*
X39505380Y-22187306D01*
X39599104Y-22073104D01*
X39713306Y-21979380D01*
X39843599Y-21909738D01*
X39984973Y-21866852D01*
X40095161Y-21856000D01*
X40168839Y-21856000D01*
X40279027Y-21866852D01*
X40279027Y-21866852D01*
G37*
G36*
X42819027Y-21866852D02*
X42960401Y-21909738D01*
X43090694Y-21979380D01*
X43204896Y-22073104D01*
X43298620Y-22187306D01*
X43368262Y-22317599D01*
X43411148Y-22458973D01*
X43425628Y-22606000D01*
X43411148Y-22753027D01*
X43368262Y-22894401D01*
X43298620Y-23024694D01*
X43204896Y-23138896D01*
X43090694Y-23232620D01*
X42960401Y-23302262D01*
X42819027Y-23345148D01*
X42708839Y-23356000D01*
X42635161Y-23356000D01*
X42524973Y-23345148D01*
X42383599Y-23302262D01*
X42253306Y-23232620D01*
X42139104Y-23138896D01*
X42045380Y-23024694D01*
X41975738Y-22894401D01*
X41932852Y-22753027D01*
X41918372Y-22606000D01*
X41932852Y-22458973D01*
X41975738Y-22317599D01*
X42045380Y-22187306D01*
X42139104Y-22073104D01*
X42253306Y-21979380D01*
X42383599Y-21909738D01*
X42524973Y-21866852D01*
X42635161Y-21856000D01*
X42708839Y-21856000D01*
X42819027Y-21866852D01*
X42819027Y-21866852D01*
G37*
G36*
X25495116Y-21715095D02*
X25524313Y-21723952D01*
X25551218Y-21738333D01*
X25574808Y-21757692D01*
X25594167Y-21781282D01*
X25608548Y-21808187D01*
X25617405Y-21837384D01*
X25621000Y-21873890D01*
X25621000Y-22424110D01*
X25617405Y-22460616D01*
X25608548Y-22489813D01*
X25594167Y-22516718D01*
X25574808Y-22540308D01*
X25551218Y-22559667D01*
X25524313Y-22574048D01*
X25495116Y-22582905D01*
X25458610Y-22586500D01*
X24833390Y-22586500D01*
X24796884Y-22582905D01*
X24767687Y-22574048D01*
X24740782Y-22559667D01*
X24717192Y-22540308D01*
X24697833Y-22516718D01*
X24683452Y-22489813D01*
X24674595Y-22460616D01*
X24671000Y-22424110D01*
X24671000Y-21873890D01*
X24674595Y-21837384D01*
X24683452Y-21808187D01*
X24697833Y-21781282D01*
X24717192Y-21757692D01*
X24740782Y-21738333D01*
X24767687Y-21723952D01*
X24796884Y-21715095D01*
X24833390Y-21711500D01*
X25458610Y-21711500D01*
X25495116Y-21715095D01*
X25495116Y-21715095D01*
G37*
G36*
X27019116Y-21715095D02*
X27048313Y-21723952D01*
X27075218Y-21738333D01*
X27098808Y-21757692D01*
X27118167Y-21781282D01*
X27132548Y-21808187D01*
X27141405Y-21837384D01*
X27145000Y-21873890D01*
X27145000Y-22424110D01*
X27141405Y-22460616D01*
X27132548Y-22489813D01*
X27118167Y-22516718D01*
X27098808Y-22540308D01*
X27075218Y-22559667D01*
X27048313Y-22574048D01*
X27019116Y-22582905D01*
X26982610Y-22586500D01*
X26357390Y-22586500D01*
X26320884Y-22582905D01*
X26291687Y-22574048D01*
X26264782Y-22559667D01*
X26241192Y-22540308D01*
X26221833Y-22516718D01*
X26207452Y-22489813D01*
X26198595Y-22460616D01*
X26195000Y-22424110D01*
X26195000Y-21873890D01*
X26198595Y-21837384D01*
X26207452Y-21808187D01*
X26221833Y-21781282D01*
X26241192Y-21757692D01*
X26264782Y-21738333D01*
X26291687Y-21723952D01*
X26320884Y-21715095D01*
X26357390Y-21711500D01*
X26982610Y-21711500D01*
X27019116Y-21715095D01*
X27019116Y-21715095D01*
G37*
G36*
X28435000Y-22486000D02*
X27935000Y-22486000D01*
X27935000Y-22136000D01*
X28435000Y-22136000D01*
X28435000Y-22486000D01*
X28435000Y-22486000D01*
G37*
G36*
X30485000Y-22486000D02*
X29985000Y-22486000D01*
X29985000Y-22136000D01*
X30485000Y-22136000D01*
X30485000Y-22486000D01*
X30485000Y-22486000D01*
G37*
G36*
X17303043Y-14428108D02*
X17695717Y-14506215D01*
X18182153Y-14707704D01*
X18363171Y-14782684D01*
X18435500Y-14812644D01*
X19078452Y-15242250D01*
X19101290Y-15257510D01*
X19667490Y-15823710D01*
X19667492Y-15823713D01*
X20112356Y-16489500D01*
X20418785Y-17229283D01*
X20460644Y-17439722D01*
X20575000Y-18014631D01*
X20575000Y-18815369D01*
X20542595Y-18978278D01*
X20418785Y-19600717D01*
X20350318Y-19766010D01*
X20123924Y-20312574D01*
X20112356Y-20340500D01*
X19781274Y-20836000D01*
X19667490Y-21006290D01*
X19101290Y-21572490D01*
X19101287Y-21572492D01*
X18435500Y-22017356D01*
X18435499Y-22017357D01*
X18435498Y-22017357D01*
X18218823Y-22107107D01*
X17695717Y-22323785D01*
X17474689Y-22367750D01*
X16910369Y-22480000D01*
X16109631Y-22480000D01*
X15545311Y-22367750D01*
X15324283Y-22323785D01*
X14801177Y-22107107D01*
X14584502Y-22017357D01*
X14584501Y-22017357D01*
X14584500Y-22017356D01*
X13918713Y-21572492D01*
X13918710Y-21572490D01*
X13352510Y-21006290D01*
X13238726Y-20836000D01*
X12907644Y-20340500D01*
X12896077Y-20312574D01*
X12669682Y-19766010D01*
X12601215Y-19600717D01*
X12477405Y-18978278D01*
X12445000Y-18815369D01*
X12445000Y-18014631D01*
X12559356Y-17439722D01*
X12601215Y-17229283D01*
X12907644Y-16489500D01*
X13352508Y-15823713D01*
X13352510Y-15823710D01*
X13918710Y-15257510D01*
X13941548Y-15242250D01*
X14584500Y-14812644D01*
X14656830Y-14782684D01*
X14837847Y-14707704D01*
X15324283Y-14506215D01*
X15716957Y-14428108D01*
X16109631Y-14350000D01*
X16910369Y-14350000D01*
X17303043Y-14428108D01*
X17303043Y-14428108D01*
G37*
G36*
X30485000Y-21836000D02*
X29985000Y-21836000D01*
X29985000Y-21486000D01*
X30485000Y-21486000D01*
X30485000Y-21836000D01*
X30485000Y-21836000D01*
G37*
G36*
X28435000Y-21836000D02*
X27935000Y-21836000D01*
X27935000Y-21486000D01*
X28435000Y-21486000D01*
X28435000Y-21836000D01*
X28435000Y-21836000D01*
G37*
G36*
X4050000Y-21809000D02*
X2300000Y-21809000D01*
X2300000Y-20609000D01*
X4050000Y-20609000D01*
X4050000Y-21809000D01*
X4050000Y-21809000D01*
G37*
G36*
X30485000Y-21186000D02*
X29985000Y-21186000D01*
X29985000Y-20836000D01*
X30485000Y-20836000D01*
X30485000Y-21186000D01*
X30485000Y-21186000D01*
G37*
G36*
X28435000Y-21186000D02*
X27935000Y-21186000D01*
X27935000Y-20836000D01*
X28435000Y-20836000D01*
X28435000Y-21186000D01*
X28435000Y-21186000D01*
G37*
G36*
X27019116Y-20140095D02*
X27048313Y-20148952D01*
X27075218Y-20163333D01*
X27098808Y-20182692D01*
X27118167Y-20206282D01*
X27132548Y-20233187D01*
X27141405Y-20262384D01*
X27145000Y-20298890D01*
X27145000Y-20849110D01*
X27141405Y-20885616D01*
X27132548Y-20914813D01*
X27118167Y-20941718D01*
X27098808Y-20965308D01*
X27075218Y-20984667D01*
X27048313Y-20999048D01*
X27019116Y-21007905D01*
X26982610Y-21011500D01*
X26357390Y-21011500D01*
X26320884Y-21007905D01*
X26291687Y-20999048D01*
X26264782Y-20984667D01*
X26241192Y-20965308D01*
X26221833Y-20941718D01*
X26207452Y-20914813D01*
X26198595Y-20885616D01*
X26195000Y-20849110D01*
X26195000Y-20298890D01*
X26198595Y-20262384D01*
X26207452Y-20233187D01*
X26221833Y-20206282D01*
X26241192Y-20182692D01*
X26264782Y-20163333D01*
X26291687Y-20148952D01*
X26320884Y-20140095D01*
X26357390Y-20136500D01*
X26982610Y-20136500D01*
X27019116Y-20140095D01*
X27019116Y-20140095D01*
G37*
G36*
X25495116Y-20140095D02*
X25524313Y-20148952D01*
X25551218Y-20163333D01*
X25574808Y-20182692D01*
X25594167Y-20206282D01*
X25608548Y-20233187D01*
X25617405Y-20262384D01*
X25621000Y-20298890D01*
X25621000Y-20849110D01*
X25617405Y-20885616D01*
X25608548Y-20914813D01*
X25594167Y-20941718D01*
X25574808Y-20965308D01*
X25551218Y-20984667D01*
X25524313Y-20999048D01*
X25495116Y-21007905D01*
X25458610Y-21011500D01*
X24833390Y-21011500D01*
X24796884Y-21007905D01*
X24767687Y-20999048D01*
X24740782Y-20984667D01*
X24717192Y-20965308D01*
X24697833Y-20941718D01*
X24683452Y-20914813D01*
X24674595Y-20885616D01*
X24671000Y-20849110D01*
X24671000Y-20298890D01*
X24674595Y-20262384D01*
X24683452Y-20233187D01*
X24697833Y-20206282D01*
X24717192Y-20182692D01*
X24740782Y-20163333D01*
X24767687Y-20148952D01*
X24796884Y-20140095D01*
X24833390Y-20136500D01*
X25458610Y-20136500D01*
X25495116Y-20140095D01*
X25495116Y-20140095D01*
G37*
G36*
X42819027Y-19326852D02*
X42960401Y-19369738D01*
X43090694Y-19439380D01*
X43204896Y-19533104D01*
X43298620Y-19647306D01*
X43368262Y-19777599D01*
X43411148Y-19918973D01*
X43425628Y-20066000D01*
X43411148Y-20213027D01*
X43368262Y-20354401D01*
X43298620Y-20484694D01*
X43204896Y-20598896D01*
X43090694Y-20692620D01*
X42960401Y-20762262D01*
X42819027Y-20805148D01*
X42708839Y-20816000D01*
X42635161Y-20816000D01*
X42524973Y-20805148D01*
X42383599Y-20762262D01*
X42253306Y-20692620D01*
X42139104Y-20598896D01*
X42045380Y-20484694D01*
X41975738Y-20354401D01*
X41932852Y-20213027D01*
X41918372Y-20066000D01*
X41932852Y-19918973D01*
X41975738Y-19777599D01*
X42045380Y-19647306D01*
X42139104Y-19533104D01*
X42253306Y-19439380D01*
X42383599Y-19369738D01*
X42524973Y-19326852D01*
X42635161Y-19316000D01*
X42708839Y-19316000D01*
X42819027Y-19326852D01*
X42819027Y-19326852D01*
G37*
G36*
X40279027Y-19326852D02*
X40420401Y-19369738D01*
X40550694Y-19439380D01*
X40664896Y-19533104D01*
X40758620Y-19647306D01*
X40828262Y-19777599D01*
X40871148Y-19918973D01*
X40885628Y-20066000D01*
X40871148Y-20213027D01*
X40828262Y-20354401D01*
X40758620Y-20484694D01*
X40664896Y-20598896D01*
X40550694Y-20692620D01*
X40420401Y-20762262D01*
X40279027Y-20805148D01*
X40168839Y-20816000D01*
X40095161Y-20816000D01*
X39984973Y-20805148D01*
X39843599Y-20762262D01*
X39713306Y-20692620D01*
X39599104Y-20598896D01*
X39505380Y-20484694D01*
X39435738Y-20354401D01*
X39392852Y-20213027D01*
X39378372Y-20066000D01*
X39392852Y-19918973D01*
X39435738Y-19777599D01*
X39505380Y-19647306D01*
X39599104Y-19533104D01*
X39713306Y-19439380D01*
X39843599Y-19369738D01*
X39984973Y-19326852D01*
X40095161Y-19316000D01*
X40168839Y-19316000D01*
X40279027Y-19326852D01*
X40279027Y-19326852D01*
G37*
G36*
X28435000Y-20536000D02*
X27935000Y-20536000D01*
X27935000Y-20186000D01*
X28435000Y-20186000D01*
X28435000Y-20536000D01*
X28435000Y-20536000D01*
G37*
G36*
X30485000Y-20536000D02*
X29985000Y-20536000D01*
X29985000Y-20186000D01*
X30485000Y-20186000D01*
X30485000Y-20536000D01*
X30485000Y-20536000D01*
G37*
G36*
X3567621Y-18617682D02*
X3680721Y-18651990D01*
X3784955Y-18707704D01*
X3876317Y-18782683D01*
X3951296Y-18874045D01*
X4007010Y-18978279D01*
X4041318Y-19091379D01*
X4052903Y-19209000D01*
X4041318Y-19326621D01*
X4007010Y-19439721D01*
X3951296Y-19543955D01*
X3876317Y-19635317D01*
X3784955Y-19710296D01*
X3680721Y-19766010D01*
X3567621Y-19800318D01*
X3479474Y-19809000D01*
X2870526Y-19809000D01*
X2782379Y-19800318D01*
X2669279Y-19766010D01*
X2565045Y-19710296D01*
X2473683Y-19635317D01*
X2398704Y-19543955D01*
X2342990Y-19439721D01*
X2308682Y-19326621D01*
X2297097Y-19209000D01*
X2308682Y-19091379D01*
X2342990Y-18978279D01*
X2398704Y-18874045D01*
X2473683Y-18782683D01*
X2565045Y-18707704D01*
X2669279Y-18651990D01*
X2782379Y-18617682D01*
X2870526Y-18609000D01*
X3479474Y-18609000D01*
X3567621Y-18617682D01*
X3567621Y-18617682D01*
G37*
G36*
X28531116Y-18578595D02*
X28560313Y-18587452D01*
X28587218Y-18601833D01*
X28610808Y-18621192D01*
X28630167Y-18644782D01*
X28644548Y-18671687D01*
X28653405Y-18700884D01*
X28657000Y-18737390D01*
X28657000Y-19362610D01*
X28653405Y-19399116D01*
X28644548Y-19428313D01*
X28630167Y-19455218D01*
X28610808Y-19478808D01*
X28587218Y-19498167D01*
X28560313Y-19512548D01*
X28531116Y-19521405D01*
X28494610Y-19525000D01*
X27944390Y-19525000D01*
X27907884Y-19521405D01*
X27878687Y-19512548D01*
X27851782Y-19498167D01*
X27828192Y-19478808D01*
X27808833Y-19455218D01*
X27794452Y-19428313D01*
X27785595Y-19399116D01*
X27782000Y-19362610D01*
X27782000Y-18737390D01*
X27785595Y-18700884D01*
X27794452Y-18671687D01*
X27808833Y-18644782D01*
X27828192Y-18621192D01*
X27851782Y-18601833D01*
X27878687Y-18587452D01*
X27907884Y-18578595D01*
X27944390Y-18575000D01*
X28494610Y-18575000D01*
X28531116Y-18578595D01*
X28531116Y-18578595D01*
G37*
G36*
X26956116Y-18578595D02*
X26985313Y-18587452D01*
X27012218Y-18601833D01*
X27035808Y-18621192D01*
X27055167Y-18644782D01*
X27069548Y-18671687D01*
X27078405Y-18700884D01*
X27082000Y-18737390D01*
X27082000Y-19362610D01*
X27078405Y-19399116D01*
X27069548Y-19428313D01*
X27055167Y-19455218D01*
X27035808Y-19478808D01*
X27012218Y-19498167D01*
X26985313Y-19512548D01*
X26956116Y-19521405D01*
X26919610Y-19525000D01*
X26369390Y-19525000D01*
X26332884Y-19521405D01*
X26303687Y-19512548D01*
X26276782Y-19498167D01*
X26253192Y-19478808D01*
X26233833Y-19455218D01*
X26219452Y-19428313D01*
X26210595Y-19399116D01*
X26207000Y-19362610D01*
X26207000Y-18737390D01*
X26210595Y-18700884D01*
X26219452Y-18671687D01*
X26233833Y-18644782D01*
X26253192Y-18621192D01*
X26276782Y-18601833D01*
X26303687Y-18587452D01*
X26332884Y-18578595D01*
X26369390Y-18575000D01*
X26919610Y-18575000D01*
X26956116Y-18578595D01*
X26956116Y-18578595D01*
G37*
G36*
X40279027Y-16786852D02*
X40420401Y-16829738D01*
X40550694Y-16899380D01*
X40664896Y-16993104D01*
X40758620Y-17107306D01*
X40828262Y-17237599D01*
X40871148Y-17378973D01*
X40885628Y-17526000D01*
X40871148Y-17673027D01*
X40828262Y-17814401D01*
X40758620Y-17944694D01*
X40664896Y-18058896D01*
X40550694Y-18152620D01*
X40420401Y-18222262D01*
X40279027Y-18265148D01*
X40168839Y-18276000D01*
X40095161Y-18276000D01*
X39984973Y-18265148D01*
X39843599Y-18222262D01*
X39713306Y-18152620D01*
X39599104Y-18058896D01*
X39505380Y-17944694D01*
X39435738Y-17814401D01*
X39392852Y-17673027D01*
X39378372Y-17526000D01*
X39392852Y-17378973D01*
X39435738Y-17237599D01*
X39505380Y-17107306D01*
X39599104Y-16993104D01*
X39713306Y-16899380D01*
X39843599Y-16829738D01*
X39984973Y-16786852D01*
X40095161Y-16776000D01*
X40168839Y-16776000D01*
X40279027Y-16786852D01*
X40279027Y-16786852D01*
G37*
G36*
X42819027Y-16786852D02*
X42960401Y-16829738D01*
X43090694Y-16899380D01*
X43204896Y-16993104D01*
X43298620Y-17107306D01*
X43368262Y-17237599D01*
X43411148Y-17378973D01*
X43425628Y-17526000D01*
X43411148Y-17673027D01*
X43368262Y-17814401D01*
X43298620Y-17944694D01*
X43204896Y-18058896D01*
X43090694Y-18152620D01*
X42960401Y-18222262D01*
X42819027Y-18265148D01*
X42708839Y-18276000D01*
X42635161Y-18276000D01*
X42524973Y-18265148D01*
X42383599Y-18222262D01*
X42253306Y-18152620D01*
X42139104Y-18058896D01*
X42045380Y-17944694D01*
X41975738Y-17814401D01*
X41932852Y-17673027D01*
X41918372Y-17526000D01*
X41932852Y-17378973D01*
X41975738Y-17237599D01*
X42045380Y-17107306D01*
X42139104Y-16993104D01*
X42253306Y-16899380D01*
X42383599Y-16829738D01*
X42524973Y-16786852D01*
X42635161Y-16776000D01*
X42708839Y-16776000D01*
X42819027Y-16786852D01*
X42819027Y-16786852D01*
G37*
G36*
X3567621Y-16617682D02*
X3680721Y-16651990D01*
X3784955Y-16707704D01*
X3876317Y-16782683D01*
X3951296Y-16874045D01*
X4007010Y-16978279D01*
X4041318Y-17091379D01*
X4052903Y-17209000D01*
X4041318Y-17326621D01*
X4007010Y-17439721D01*
X3951296Y-17543955D01*
X3876317Y-17635317D01*
X3784955Y-17710296D01*
X3680721Y-17766010D01*
X3567621Y-17800318D01*
X3479474Y-17809000D01*
X2870526Y-17809000D01*
X2782379Y-17800318D01*
X2669279Y-17766010D01*
X2565045Y-17710296D01*
X2473683Y-17635317D01*
X2398704Y-17543955D01*
X2342990Y-17439721D01*
X2308682Y-17326621D01*
X2297097Y-17209000D01*
X2308682Y-17091379D01*
X2342990Y-16978279D01*
X2398704Y-16874045D01*
X2473683Y-16782683D01*
X2565045Y-16707704D01*
X2669279Y-16651990D01*
X2782379Y-16617682D01*
X2870526Y-16609000D01*
X3479474Y-16609000D01*
X3567621Y-16617682D01*
X3567621Y-16617682D01*
G37*
G36*
X3567621Y-14617682D02*
X3680721Y-14651990D01*
X3784955Y-14707704D01*
X3876317Y-14782683D01*
X3951296Y-14874045D01*
X4007010Y-14978279D01*
X4041318Y-15091379D01*
X4052903Y-15209000D01*
X4041318Y-15326621D01*
X4007010Y-15439721D01*
X3951296Y-15543955D01*
X3876317Y-15635317D01*
X3784955Y-15710296D01*
X3680721Y-15766010D01*
X3567621Y-15800318D01*
X3479474Y-15809000D01*
X2870526Y-15809000D01*
X2782379Y-15800318D01*
X2669279Y-15766010D01*
X2565045Y-15710296D01*
X2473683Y-15635317D01*
X2398704Y-15543955D01*
X2342990Y-15439721D01*
X2308682Y-15326621D01*
X2297097Y-15209000D01*
X2308682Y-15091379D01*
X2342990Y-14978279D01*
X2398704Y-14874045D01*
X2473683Y-14782683D01*
X2565045Y-14707704D01*
X2669279Y-14651990D01*
X2782379Y-14617682D01*
X2870526Y-14609000D01*
X3479474Y-14609000D01*
X3567621Y-14617682D01*
X3567621Y-14617682D01*
G37*
G36*
X40279027Y-14246852D02*
X40420401Y-14289738D01*
X40550694Y-14359380D01*
X40664896Y-14453104D01*
X40758620Y-14567306D01*
X40828262Y-14697599D01*
X40871148Y-14838973D01*
X40885628Y-14986000D01*
X40871148Y-15133027D01*
X40828262Y-15274401D01*
X40758620Y-15404694D01*
X40664896Y-15518896D01*
X40550694Y-15612620D01*
X40420401Y-15682262D01*
X40279027Y-15725148D01*
X40168839Y-15736000D01*
X40095161Y-15736000D01*
X39984973Y-15725148D01*
X39843599Y-15682262D01*
X39713306Y-15612620D01*
X39599104Y-15518896D01*
X39505380Y-15404694D01*
X39435738Y-15274401D01*
X39392852Y-15133027D01*
X39378372Y-14986000D01*
X39392852Y-14838973D01*
X39435738Y-14697599D01*
X39505380Y-14567306D01*
X39599104Y-14453104D01*
X39713306Y-14359380D01*
X39843599Y-14289738D01*
X39984973Y-14246852D01*
X40095161Y-14236000D01*
X40168839Y-14236000D01*
X40279027Y-14246852D01*
X40279027Y-14246852D01*
G37*
G36*
X42819027Y-14246852D02*
X42960401Y-14289738D01*
X43090694Y-14359380D01*
X43204896Y-14453104D01*
X43298620Y-14567306D01*
X43368262Y-14697599D01*
X43411148Y-14838973D01*
X43425628Y-14986000D01*
X43411148Y-15133027D01*
X43368262Y-15274401D01*
X43298620Y-15404694D01*
X43204896Y-15518896D01*
X43090694Y-15612620D01*
X42960401Y-15682262D01*
X42819027Y-15725148D01*
X42708839Y-15736000D01*
X42635161Y-15736000D01*
X42524973Y-15725148D01*
X42383599Y-15682262D01*
X42253306Y-15612620D01*
X42139104Y-15518896D01*
X42045380Y-15404694D01*
X41975738Y-15274401D01*
X41932852Y-15133027D01*
X41918372Y-14986000D01*
X41932852Y-14838973D01*
X41975738Y-14697599D01*
X42045380Y-14567306D01*
X42139104Y-14453104D01*
X42253306Y-14359380D01*
X42383599Y-14289738D01*
X42524973Y-14246852D01*
X42635161Y-14236000D01*
X42708839Y-14236000D01*
X42819027Y-14246852D01*
X42819027Y-14246852D01*
G37*
G36*
X28759616Y-14514595D02*
X28788813Y-14523452D01*
X28815718Y-14537833D01*
X28839308Y-14557192D01*
X28858667Y-14580782D01*
X28873048Y-14607687D01*
X28881905Y-14636884D01*
X28885500Y-14673390D01*
X28885500Y-15298610D01*
X28881905Y-15335116D01*
X28873048Y-15364313D01*
X28858667Y-15391218D01*
X28839308Y-15414808D01*
X28815718Y-15434167D01*
X28788813Y-15448548D01*
X28759616Y-15457405D01*
X28723110Y-15461000D01*
X28172890Y-15461000D01*
X28136384Y-15457405D01*
X28107187Y-15448548D01*
X28080282Y-15434167D01*
X28056692Y-15414808D01*
X28037333Y-15391218D01*
X28022952Y-15364313D01*
X28014095Y-15335116D01*
X28010500Y-15298610D01*
X28010500Y-14673390D01*
X28014095Y-14636884D01*
X28022952Y-14607687D01*
X28037333Y-14580782D01*
X28056692Y-14557192D01*
X28080282Y-14537833D01*
X28107187Y-14523452D01*
X28136384Y-14514595D01*
X28172890Y-14511000D01*
X28723110Y-14511000D01*
X28759616Y-14514595D01*
X28759616Y-14514595D01*
G37*
G36*
X27184616Y-14514595D02*
X27213813Y-14523452D01*
X27240718Y-14537833D01*
X27264308Y-14557192D01*
X27283667Y-14580782D01*
X27298048Y-14607687D01*
X27306905Y-14636884D01*
X27310500Y-14673390D01*
X27310500Y-15298610D01*
X27306905Y-15335116D01*
X27298048Y-15364313D01*
X27283667Y-15391218D01*
X27264308Y-15414808D01*
X27240718Y-15434167D01*
X27213813Y-15448548D01*
X27184616Y-15457405D01*
X27148110Y-15461000D01*
X26597890Y-15461000D01*
X26561384Y-15457405D01*
X26532187Y-15448548D01*
X26505282Y-15434167D01*
X26481692Y-15414808D01*
X26462333Y-15391218D01*
X26447952Y-15364313D01*
X26439095Y-15335116D01*
X26435500Y-15298610D01*
X26435500Y-14673390D01*
X26439095Y-14636884D01*
X26447952Y-14607687D01*
X26462333Y-14580782D01*
X26481692Y-14557192D01*
X26505282Y-14537833D01*
X26532187Y-14523452D01*
X26561384Y-14514595D01*
X26597890Y-14511000D01*
X27148110Y-14511000D01*
X27184616Y-14514595D01*
X27184616Y-14514595D01*
G37*
G36*
X38449116Y-13053595D02*
X38478313Y-13062452D01*
X38505218Y-13076833D01*
X38528808Y-13096192D01*
X38548167Y-13119782D01*
X38562548Y-13146687D01*
X38571405Y-13175884D01*
X38575000Y-13212390D01*
X38575000Y-13762610D01*
X38571405Y-13799116D01*
X38562548Y-13828313D01*
X38548167Y-13855218D01*
X38528808Y-13878808D01*
X38505218Y-13898167D01*
X38478313Y-13912548D01*
X38449116Y-13921405D01*
X38412610Y-13925000D01*
X37787390Y-13925000D01*
X37750884Y-13921405D01*
X37721687Y-13912548D01*
X37694782Y-13898167D01*
X37671192Y-13878808D01*
X37651833Y-13855218D01*
X37637452Y-13828313D01*
X37628595Y-13799116D01*
X37625000Y-13762610D01*
X37625000Y-13212390D01*
X37628595Y-13175884D01*
X37637452Y-13146687D01*
X37651833Y-13119782D01*
X37671192Y-13096192D01*
X37694782Y-13076833D01*
X37721687Y-13062452D01*
X37750884Y-13053595D01*
X37787390Y-13050000D01*
X38412610Y-13050000D01*
X38449116Y-13053595D01*
X38449116Y-13053595D01*
G37*
G36*
X27210116Y-12736595D02*
X27239313Y-12745452D01*
X27266218Y-12759833D01*
X27289808Y-12779192D01*
X27309167Y-12802782D01*
X27323548Y-12829687D01*
X27332405Y-12858884D01*
X27336000Y-12895390D01*
X27336000Y-13520610D01*
X27332405Y-13557116D01*
X27323548Y-13586313D01*
X27309167Y-13613218D01*
X27289808Y-13636808D01*
X27266218Y-13656167D01*
X27239313Y-13670548D01*
X27210116Y-13679405D01*
X27173610Y-13683000D01*
X26623390Y-13683000D01*
X26586884Y-13679405D01*
X26557687Y-13670548D01*
X26530782Y-13656167D01*
X26507192Y-13636808D01*
X26487833Y-13613218D01*
X26473452Y-13586313D01*
X26464595Y-13557116D01*
X26461000Y-13520610D01*
X26461000Y-12895390D01*
X26464595Y-12858884D01*
X26473452Y-12829687D01*
X26487833Y-12802782D01*
X26507192Y-12779192D01*
X26530782Y-12759833D01*
X26557687Y-12745452D01*
X26586884Y-12736595D01*
X26623390Y-12733000D01*
X27173610Y-12733000D01*
X27210116Y-12736595D01*
X27210116Y-12736595D01*
G37*
G36*
X36379616Y-12736595D02*
X36408813Y-12745452D01*
X36435718Y-12759833D01*
X36459308Y-12779192D01*
X36478667Y-12802782D01*
X36493048Y-12829687D01*
X36501905Y-12858884D01*
X36505500Y-12895390D01*
X36505500Y-13520610D01*
X36501905Y-13557116D01*
X36493048Y-13586313D01*
X36478667Y-13613218D01*
X36459308Y-13636808D01*
X36435718Y-13656167D01*
X36408813Y-13670548D01*
X36379616Y-13679405D01*
X36343110Y-13683000D01*
X35792890Y-13683000D01*
X35756384Y-13679405D01*
X35727187Y-13670548D01*
X35700282Y-13656167D01*
X35676692Y-13636808D01*
X35657333Y-13613218D01*
X35642952Y-13586313D01*
X35634095Y-13557116D01*
X35630500Y-13520610D01*
X35630500Y-12895390D01*
X35634095Y-12858884D01*
X35642952Y-12829687D01*
X35657333Y-12802782D01*
X35676692Y-12779192D01*
X35700282Y-12759833D01*
X35727187Y-12745452D01*
X35756384Y-12736595D01*
X35792890Y-12733000D01*
X36343110Y-12733000D01*
X36379616Y-12736595D01*
X36379616Y-12736595D01*
G37*
G36*
X28785116Y-12736595D02*
X28814313Y-12745452D01*
X28841218Y-12759833D01*
X28864808Y-12779192D01*
X28884167Y-12802782D01*
X28898548Y-12829687D01*
X28907405Y-12858884D01*
X28911000Y-12895390D01*
X28911000Y-13520610D01*
X28907405Y-13557116D01*
X28898548Y-13586313D01*
X28884167Y-13613218D01*
X28864808Y-13636808D01*
X28841218Y-13656167D01*
X28814313Y-13670548D01*
X28785116Y-13679405D01*
X28748610Y-13683000D01*
X28198390Y-13683000D01*
X28161884Y-13679405D01*
X28132687Y-13670548D01*
X28105782Y-13656167D01*
X28082192Y-13636808D01*
X28062833Y-13613218D01*
X28048452Y-13586313D01*
X28039595Y-13557116D01*
X28036000Y-13520610D01*
X28036000Y-12895390D01*
X28039595Y-12858884D01*
X28048452Y-12829687D01*
X28062833Y-12802782D01*
X28082192Y-12779192D01*
X28105782Y-12759833D01*
X28132687Y-12745452D01*
X28161884Y-12736595D01*
X28198390Y-12733000D01*
X28748610Y-12733000D01*
X28785116Y-12736595D01*
X28785116Y-12736595D01*
G37*
G36*
X34804616Y-12736595D02*
X34833813Y-12745452D01*
X34860718Y-12759833D01*
X34884308Y-12779192D01*
X34903667Y-12802782D01*
X34918048Y-12829687D01*
X34926905Y-12858884D01*
X34930500Y-12895390D01*
X34930500Y-13520610D01*
X34926905Y-13557116D01*
X34918048Y-13586313D01*
X34903667Y-13613218D01*
X34884308Y-13636808D01*
X34860718Y-13656167D01*
X34833813Y-13670548D01*
X34804616Y-13679405D01*
X34768110Y-13683000D01*
X34217890Y-13683000D01*
X34181384Y-13679405D01*
X34152187Y-13670548D01*
X34125282Y-13656167D01*
X34101692Y-13636808D01*
X34082333Y-13613218D01*
X34067952Y-13586313D01*
X34059095Y-13557116D01*
X34055500Y-13520610D01*
X34055500Y-12895390D01*
X34059095Y-12858884D01*
X34067952Y-12829687D01*
X34082333Y-12802782D01*
X34101692Y-12779192D01*
X34125282Y-12759833D01*
X34152187Y-12745452D01*
X34181384Y-12736595D01*
X34217890Y-12733000D01*
X34768110Y-12733000D01*
X34804616Y-12736595D01*
X34804616Y-12736595D01*
G37*
G36*
X40279027Y-11706852D02*
X40420401Y-11749738D01*
X40550694Y-11819380D01*
X40664896Y-11913104D01*
X40758620Y-12027306D01*
X40828262Y-12157599D01*
X40871148Y-12298973D01*
X40885628Y-12446000D01*
X40871148Y-12593027D01*
X40828262Y-12734401D01*
X40758620Y-12864694D01*
X40664896Y-12978896D01*
X40550694Y-13072620D01*
X40420401Y-13142262D01*
X40279027Y-13185148D01*
X40168839Y-13196000D01*
X40095161Y-13196000D01*
X39984973Y-13185148D01*
X39843599Y-13142262D01*
X39713306Y-13072620D01*
X39599104Y-12978896D01*
X39505380Y-12864694D01*
X39435738Y-12734401D01*
X39392852Y-12593027D01*
X39378372Y-12446000D01*
X39392852Y-12298973D01*
X39435738Y-12157599D01*
X39505380Y-12027306D01*
X39599104Y-11913104D01*
X39713306Y-11819380D01*
X39843599Y-11749738D01*
X39984973Y-11706852D01*
X40095161Y-11696000D01*
X40168839Y-11696000D01*
X40279027Y-11706852D01*
X40279027Y-11706852D01*
G37*
G36*
X42819027Y-11706852D02*
X42960401Y-11749738D01*
X43090694Y-11819380D01*
X43204896Y-11913104D01*
X43298620Y-12027306D01*
X43368262Y-12157599D01*
X43411148Y-12298973D01*
X43425628Y-12446000D01*
X43411148Y-12593027D01*
X43368262Y-12734401D01*
X43298620Y-12864694D01*
X43204896Y-12978896D01*
X43090694Y-13072620D01*
X42960401Y-13142262D01*
X42819027Y-13185148D01*
X42708839Y-13196000D01*
X42635161Y-13196000D01*
X42524973Y-13185148D01*
X42383599Y-13142262D01*
X42253306Y-13072620D01*
X42139104Y-12978896D01*
X42045380Y-12864694D01*
X41975738Y-12734401D01*
X41932852Y-12593027D01*
X41918372Y-12446000D01*
X41932852Y-12298973D01*
X41975738Y-12157599D01*
X42045380Y-12027306D01*
X42139104Y-11913104D01*
X42253306Y-11819380D01*
X42383599Y-11749738D01*
X42524973Y-11706852D01*
X42635161Y-11696000D01*
X42708839Y-11696000D01*
X42819027Y-11706852D01*
X42819027Y-11706852D01*
G37*
G36*
X18510000Y-12720000D02*
X14510000Y-12720000D01*
X14510000Y-8720000D01*
X18510000Y-8720000D01*
X18510000Y-12720000D01*
X18510000Y-12720000D01*
G37*
G36*
X22955116Y-11809095D02*
X22984313Y-11817952D01*
X23011218Y-11832333D01*
X23034808Y-11851692D01*
X23054167Y-11875282D01*
X23068548Y-11902187D01*
X23077405Y-11931384D01*
X23081000Y-11967890D01*
X23081000Y-12518110D01*
X23077405Y-12554616D01*
X23068548Y-12583813D01*
X23054167Y-12610718D01*
X23034808Y-12634308D01*
X23011218Y-12653667D01*
X22984313Y-12668048D01*
X22955116Y-12676905D01*
X22918610Y-12680500D01*
X22293390Y-12680500D01*
X22256884Y-12676905D01*
X22227687Y-12668048D01*
X22200782Y-12653667D01*
X22177192Y-12634308D01*
X22157833Y-12610718D01*
X22143452Y-12583813D01*
X22134595Y-12554616D01*
X22131000Y-12518110D01*
X22131000Y-11967890D01*
X22134595Y-11931384D01*
X22143452Y-11902187D01*
X22157833Y-11875282D01*
X22177192Y-11851692D01*
X22200782Y-11832333D01*
X22227687Y-11817952D01*
X22256884Y-11809095D01*
X22293390Y-11805500D01*
X22918610Y-11805500D01*
X22955116Y-11809095D01*
X22955116Y-11809095D01*
G37*
G36*
X38449116Y-11478595D02*
X38478313Y-11487452D01*
X38505218Y-11501833D01*
X38528808Y-11521192D01*
X38548167Y-11544782D01*
X38562548Y-11571687D01*
X38571405Y-11600884D01*
X38575000Y-11637390D01*
X38575000Y-12187610D01*
X38571405Y-12224116D01*
X38562548Y-12253313D01*
X38548167Y-12280218D01*
X38528808Y-12303808D01*
X38505218Y-12323167D01*
X38478313Y-12337548D01*
X38449116Y-12346405D01*
X38412610Y-12350000D01*
X37787390Y-12350000D01*
X37750884Y-12346405D01*
X37721687Y-12337548D01*
X37694782Y-12323167D01*
X37671192Y-12303808D01*
X37651833Y-12280218D01*
X37637452Y-12253313D01*
X37628595Y-12224116D01*
X37625000Y-12187610D01*
X37625000Y-11637390D01*
X37628595Y-11600884D01*
X37637452Y-11571687D01*
X37651833Y-11544782D01*
X37671192Y-11521192D01*
X37694782Y-11501833D01*
X37721687Y-11487452D01*
X37750884Y-11478595D01*
X37787390Y-11475000D01*
X38412610Y-11475000D01*
X38449116Y-11478595D01*
X38449116Y-11478595D01*
G37*
G36*
X34830116Y-10704595D02*
X34859313Y-10713452D01*
X34886218Y-10727833D01*
X34909808Y-10747192D01*
X34929167Y-10770782D01*
X34943548Y-10797687D01*
X34952405Y-10826884D01*
X34956000Y-10863390D01*
X34956000Y-11488610D01*
X34952405Y-11525116D01*
X34943548Y-11554313D01*
X34929167Y-11581218D01*
X34909808Y-11604808D01*
X34886218Y-11624167D01*
X34859313Y-11638548D01*
X34830116Y-11647405D01*
X34793610Y-11651000D01*
X34243390Y-11651000D01*
X34206884Y-11647405D01*
X34177687Y-11638548D01*
X34150782Y-11624167D01*
X34127192Y-11604808D01*
X34107833Y-11581218D01*
X34093452Y-11554313D01*
X34084595Y-11525116D01*
X34081000Y-11488610D01*
X34081000Y-10863390D01*
X34084595Y-10826884D01*
X34093452Y-10797687D01*
X34107833Y-10770782D01*
X34127192Y-10747192D01*
X34150782Y-10727833D01*
X34177687Y-10713452D01*
X34206884Y-10704595D01*
X34243390Y-10701000D01*
X34793610Y-10701000D01*
X34830116Y-10704595D01*
X34830116Y-10704595D01*
G37*
G36*
X36405116Y-10704595D02*
X36434313Y-10713452D01*
X36461218Y-10727833D01*
X36484808Y-10747192D01*
X36504167Y-10770782D01*
X36518548Y-10797687D01*
X36527405Y-10826884D01*
X36531000Y-10863390D01*
X36531000Y-11488610D01*
X36527405Y-11525116D01*
X36518548Y-11554313D01*
X36504167Y-11581218D01*
X36484808Y-11604808D01*
X36461218Y-11624167D01*
X36434313Y-11638548D01*
X36405116Y-11647405D01*
X36368610Y-11651000D01*
X35818390Y-11651000D01*
X35781884Y-11647405D01*
X35752687Y-11638548D01*
X35725782Y-11624167D01*
X35702192Y-11604808D01*
X35682833Y-11581218D01*
X35668452Y-11554313D01*
X35659595Y-11525116D01*
X35656000Y-11488610D01*
X35656000Y-10863390D01*
X35659595Y-10826884D01*
X35668452Y-10797687D01*
X35682833Y-10770782D01*
X35702192Y-10747192D01*
X35725782Y-10727833D01*
X35752687Y-10713452D01*
X35781884Y-10704595D01*
X35818390Y-10701000D01*
X36368610Y-10701000D01*
X36405116Y-10704595D01*
X36405116Y-10704595D01*
G37*
G36*
X31161000Y-11603000D02*
X29611000Y-11603000D01*
X29611000Y-11003000D01*
X31161000Y-11003000D01*
X31161000Y-11603000D01*
X31161000Y-11603000D01*
G37*
G36*
X25761000Y-11603000D02*
X24211000Y-11603000D01*
X24211000Y-11003000D01*
X25761000Y-11003000D01*
X25761000Y-11603000D01*
X25761000Y-11603000D01*
G37*
G36*
X22955116Y-10234095D02*
X22984313Y-10242952D01*
X23011218Y-10257333D01*
X23034808Y-10276692D01*
X23054167Y-10300282D01*
X23068548Y-10327187D01*
X23077405Y-10356384D01*
X23081000Y-10392890D01*
X23081000Y-10943110D01*
X23077405Y-10979616D01*
X23068548Y-11008813D01*
X23054167Y-11035718D01*
X23034808Y-11059308D01*
X23011218Y-11078667D01*
X22984313Y-11093048D01*
X22955116Y-11101905D01*
X22918610Y-11105500D01*
X22293390Y-11105500D01*
X22256884Y-11101905D01*
X22227687Y-11093048D01*
X22200782Y-11078667D01*
X22177192Y-11059308D01*
X22157833Y-11035718D01*
X22143452Y-11008813D01*
X22134595Y-10979616D01*
X22131000Y-10943110D01*
X22131000Y-10392890D01*
X22134595Y-10356384D01*
X22143452Y-10327187D01*
X22157833Y-10300282D01*
X22177192Y-10276692D01*
X22200782Y-10257333D01*
X22227687Y-10242952D01*
X22256884Y-10234095D01*
X22293390Y-10230500D01*
X22918610Y-10230500D01*
X22955116Y-10234095D01*
X22955116Y-10234095D01*
G37*
G36*
X40279027Y-9166852D02*
X40420401Y-9209738D01*
X40550694Y-9279380D01*
X40664896Y-9373104D01*
X40758620Y-9487306D01*
X40828262Y-9617599D01*
X40871148Y-9758973D01*
X40885628Y-9906000D01*
X40871148Y-10053027D01*
X40828262Y-10194401D01*
X40758620Y-10324694D01*
X40664896Y-10438896D01*
X40550694Y-10532620D01*
X40420401Y-10602262D01*
X40279027Y-10645148D01*
X40168839Y-10656000D01*
X40095161Y-10656000D01*
X39984973Y-10645148D01*
X39843599Y-10602262D01*
X39713306Y-10532620D01*
X39599104Y-10438896D01*
X39505380Y-10324694D01*
X39435738Y-10194401D01*
X39392852Y-10053027D01*
X39378372Y-9906000D01*
X39392852Y-9758973D01*
X39435738Y-9617599D01*
X39505380Y-9487306D01*
X39599104Y-9373104D01*
X39713306Y-9279380D01*
X39843599Y-9209738D01*
X39984973Y-9166852D01*
X40095161Y-9156000D01*
X40168839Y-9156000D01*
X40279027Y-9166852D01*
X40279027Y-9166852D01*
G37*
G36*
X42819027Y-9166852D02*
X42960401Y-9209738D01*
X43090694Y-9279380D01*
X43204896Y-9373104D01*
X43298620Y-9487306D01*
X43368262Y-9617599D01*
X43411148Y-9758973D01*
X43425628Y-9906000D01*
X43411148Y-10053027D01*
X43368262Y-10194401D01*
X43298620Y-10324694D01*
X43204896Y-10438896D01*
X43090694Y-10532620D01*
X42960401Y-10602262D01*
X42819027Y-10645148D01*
X42708839Y-10656000D01*
X42635161Y-10656000D01*
X42524973Y-10645148D01*
X42383599Y-10602262D01*
X42253306Y-10532620D01*
X42139104Y-10438896D01*
X42045380Y-10324694D01*
X41975738Y-10194401D01*
X41932852Y-10053027D01*
X41918372Y-9906000D01*
X41932852Y-9758973D01*
X41975738Y-9617599D01*
X42045380Y-9487306D01*
X42139104Y-9373104D01*
X42253306Y-9279380D01*
X42383599Y-9209738D01*
X42524973Y-9166852D01*
X42635161Y-9156000D01*
X42708839Y-9156000D01*
X42819027Y-9166852D01*
X42819027Y-9166852D01*
G37*
G36*
X25761000Y-10333000D02*
X24211000Y-10333000D01*
X24211000Y-9733000D01*
X25761000Y-9733000D01*
X25761000Y-10333000D01*
X25761000Y-10333000D01*
G37*
G36*
X31161000Y-10333000D02*
X29611000Y-10333000D01*
X29611000Y-9733000D01*
X31161000Y-9733000D01*
X31161000Y-10333000D01*
X31161000Y-10333000D01*
G37*
G36*
X22955116Y-8735595D02*
X22984313Y-8744452D01*
X23011218Y-8758833D01*
X23034808Y-8778192D01*
X23054167Y-8801782D01*
X23068548Y-8828687D01*
X23077405Y-8857884D01*
X23081000Y-8894390D01*
X23081000Y-9444610D01*
X23077405Y-9481116D01*
X23068548Y-9510313D01*
X23054167Y-9537218D01*
X23034808Y-9560808D01*
X23011218Y-9580167D01*
X22984313Y-9594548D01*
X22955116Y-9603405D01*
X22918610Y-9607000D01*
X22293390Y-9607000D01*
X22256884Y-9603405D01*
X22227687Y-9594548D01*
X22200782Y-9580167D01*
X22177192Y-9560808D01*
X22157833Y-9537218D01*
X22143452Y-9510313D01*
X22134595Y-9481116D01*
X22131000Y-9444610D01*
X22131000Y-8894390D01*
X22134595Y-8857884D01*
X22143452Y-8828687D01*
X22157833Y-8801782D01*
X22177192Y-8778192D01*
X22200782Y-8758833D01*
X22227687Y-8744452D01*
X22256884Y-8735595D01*
X22293390Y-8732000D01*
X22918610Y-8732000D01*
X22955116Y-8735595D01*
X22955116Y-8735595D01*
G37*
G36*
X37929116Y-8291595D02*
X37958313Y-8300452D01*
X37985218Y-8314833D01*
X38008808Y-8334192D01*
X38028167Y-8357782D01*
X38042548Y-8384687D01*
X38051405Y-8413884D01*
X38055000Y-8450390D01*
X38055000Y-9075610D01*
X38051405Y-9112116D01*
X38042548Y-9141313D01*
X38028167Y-9168218D01*
X38008808Y-9191808D01*
X37985218Y-9211167D01*
X37958313Y-9225548D01*
X37929116Y-9234405D01*
X37892610Y-9238000D01*
X37342390Y-9238000D01*
X37305884Y-9234405D01*
X37276687Y-9225548D01*
X37249782Y-9211167D01*
X37226192Y-9191808D01*
X37206833Y-9168218D01*
X37192452Y-9141313D01*
X37183595Y-9112116D01*
X37180000Y-9075610D01*
X37180000Y-8450390D01*
X37183595Y-8413884D01*
X37192452Y-8384687D01*
X37206833Y-8357782D01*
X37226192Y-8334192D01*
X37249782Y-8314833D01*
X37276687Y-8300452D01*
X37305884Y-8291595D01*
X37342390Y-8288000D01*
X37892610Y-8288000D01*
X37929116Y-8291595D01*
X37929116Y-8291595D01*
G37*
G36*
X36354116Y-8291595D02*
X36383313Y-8300452D01*
X36410218Y-8314833D01*
X36433808Y-8334192D01*
X36453167Y-8357782D01*
X36467548Y-8384687D01*
X36476405Y-8413884D01*
X36480000Y-8450390D01*
X36480000Y-9075610D01*
X36476405Y-9112116D01*
X36467548Y-9141313D01*
X36453167Y-9168218D01*
X36433808Y-9191808D01*
X36410218Y-9211167D01*
X36383313Y-9225548D01*
X36354116Y-9234405D01*
X36317610Y-9238000D01*
X35767390Y-9238000D01*
X35730884Y-9234405D01*
X35701687Y-9225548D01*
X35674782Y-9211167D01*
X35651192Y-9191808D01*
X35631833Y-9168218D01*
X35617452Y-9141313D01*
X35608595Y-9112116D01*
X35605000Y-9075610D01*
X35605000Y-8450390D01*
X35608595Y-8413884D01*
X35617452Y-8384687D01*
X35631833Y-8357782D01*
X35651192Y-8334192D01*
X35674782Y-8314833D01*
X35701687Y-8300452D01*
X35730884Y-8291595D01*
X35767390Y-8288000D01*
X36317610Y-8288000D01*
X36354116Y-8291595D01*
X36354116Y-8291595D01*
G37*
G36*
X25761000Y-9063000D02*
X24211000Y-9063000D01*
X24211000Y-8463000D01*
X25761000Y-8463000D01*
X25761000Y-9063000D01*
X25761000Y-9063000D01*
G37*
G36*
X31161000Y-9063000D02*
X29611000Y-9063000D01*
X29611000Y-8463000D01*
X31161000Y-8463000D01*
X31161000Y-9063000D01*
X31161000Y-9063000D01*
G37*
G36*
X4837621Y-7853682D02*
X4950721Y-7887990D01*
X5054955Y-7943704D01*
X5146317Y-8018683D01*
X5221296Y-8110045D01*
X5277010Y-8214279D01*
X5311318Y-8327379D01*
X5322903Y-8445000D01*
X5311318Y-8562621D01*
X5277010Y-8675721D01*
X5221296Y-8779955D01*
X5146317Y-8871317D01*
X5054955Y-8946296D01*
X4950721Y-9002010D01*
X4837621Y-9036318D01*
X4749474Y-9045000D01*
X4140526Y-9045000D01*
X4052379Y-9036318D01*
X3939279Y-9002010D01*
X3835045Y-8946296D01*
X3743683Y-8871317D01*
X3668704Y-8779955D01*
X3612990Y-8675721D01*
X3578682Y-8562621D01*
X3567097Y-8445000D01*
X3578682Y-8327379D01*
X3612990Y-8214279D01*
X3668704Y-8110045D01*
X3743683Y-8018683D01*
X3835045Y-7943704D01*
X3939279Y-7887990D01*
X4052379Y-7853682D01*
X4140526Y-7845000D01*
X4749474Y-7845000D01*
X4837621Y-7853682D01*
X4837621Y-7853682D01*
G37*
G36*
X40882000Y-8116000D02*
X39382000Y-8116000D01*
X39382000Y-6616000D01*
X40882000Y-6616000D01*
X40882000Y-8116000D01*
X40882000Y-8116000D01*
G37*
G36*
X42819027Y-6626852D02*
X42960401Y-6669738D01*
X43090694Y-6739380D01*
X43204896Y-6833104D01*
X43298620Y-6947306D01*
X43368262Y-7077599D01*
X43411148Y-7218973D01*
X43425628Y-7366000D01*
X43411148Y-7513027D01*
X43368262Y-7654401D01*
X43298620Y-7784694D01*
X43204896Y-7898896D01*
X43090694Y-7992620D01*
X42960401Y-8062262D01*
X42819027Y-8105148D01*
X42708839Y-8116000D01*
X42635161Y-8116000D01*
X42524973Y-8105148D01*
X42383599Y-8062262D01*
X42253306Y-7992620D01*
X42139104Y-7898896D01*
X42045380Y-7784694D01*
X41975738Y-7654401D01*
X41932852Y-7513027D01*
X41918372Y-7366000D01*
X41932852Y-7218973D01*
X41975738Y-7077599D01*
X42045380Y-6947306D01*
X42139104Y-6833104D01*
X42253306Y-6739380D01*
X42383599Y-6669738D01*
X42524973Y-6626852D01*
X42635161Y-6616000D01*
X42708839Y-6616000D01*
X42819027Y-6626852D01*
X42819027Y-6626852D01*
G37*
G36*
X22955116Y-7160595D02*
X22984313Y-7169452D01*
X23011218Y-7183833D01*
X23034808Y-7203192D01*
X23054167Y-7226782D01*
X23068548Y-7253687D01*
X23077405Y-7282884D01*
X23081000Y-7319390D01*
X23081000Y-7869610D01*
X23077405Y-7906116D01*
X23068548Y-7935313D01*
X23054167Y-7962218D01*
X23034808Y-7985808D01*
X23011218Y-8005167D01*
X22984313Y-8019548D01*
X22955116Y-8028405D01*
X22918610Y-8032000D01*
X22293390Y-8032000D01*
X22256884Y-8028405D01*
X22227687Y-8019548D01*
X22200782Y-8005167D01*
X22177192Y-7985808D01*
X22157833Y-7962218D01*
X22143452Y-7935313D01*
X22134595Y-7906116D01*
X22131000Y-7869610D01*
X22131000Y-7319390D01*
X22134595Y-7282884D01*
X22143452Y-7253687D01*
X22157833Y-7226782D01*
X22177192Y-7203192D01*
X22200782Y-7183833D01*
X22227687Y-7169452D01*
X22256884Y-7160595D01*
X22293390Y-7157000D01*
X22918610Y-7157000D01*
X22955116Y-7160595D01*
X22955116Y-7160595D01*
G37*
G36*
X31161000Y-7793000D02*
X29611000Y-7793000D01*
X29611000Y-7193000D01*
X31161000Y-7193000D01*
X31161000Y-7793000D01*
X31161000Y-7793000D01*
G37*
G36*
X25761000Y-7793000D02*
X24211000Y-7793000D01*
X24211000Y-7193000D01*
X25761000Y-7193000D01*
X25761000Y-7793000D01*
X25761000Y-7793000D01*
G37*
G36*
X4837621Y-5853682D02*
X4950721Y-5887990D01*
X5054955Y-5943704D01*
X5146317Y-6018683D01*
X5221296Y-6110045D01*
X5277010Y-6214279D01*
X5311318Y-6327379D01*
X5322903Y-6445000D01*
X5311318Y-6562621D01*
X5277010Y-6675721D01*
X5221296Y-6779955D01*
X5146317Y-6871317D01*
X5054955Y-6946296D01*
X4950721Y-7002010D01*
X4837621Y-7036318D01*
X4749474Y-7045000D01*
X4140526Y-7045000D01*
X4052379Y-7036318D01*
X3939279Y-7002010D01*
X3835045Y-6946296D01*
X3743683Y-6871317D01*
X3668704Y-6779955D01*
X3612990Y-6675721D01*
X3578682Y-6562621D01*
X3567097Y-6445000D01*
X3578682Y-6327379D01*
X3612990Y-6214279D01*
X3668704Y-6110045D01*
X3743683Y-6018683D01*
X3835045Y-5943704D01*
X3939279Y-5887990D01*
X4052379Y-5853682D01*
X4140526Y-5845000D01*
X4749474Y-5845000D01*
X4837621Y-5853682D01*
X4837621Y-5853682D01*
G37*
G36*
X34202630Y-4750299D02*
X34362855Y-4798903D01*
X34510520Y-4877831D01*
X34639949Y-4984051D01*
X34746169Y-5113480D01*
X34825097Y-5261145D01*
X34873701Y-5421370D01*
X34890112Y-5588000D01*
X34873701Y-5754630D01*
X34825097Y-5914855D01*
X34746169Y-6062520D01*
X34639949Y-6191949D01*
X34510520Y-6298169D01*
X34362855Y-6377097D01*
X34202630Y-6425701D01*
X34077752Y-6438000D01*
X33994248Y-6438000D01*
X33869370Y-6425701D01*
X33709145Y-6377097D01*
X33561480Y-6298169D01*
X33432051Y-6191949D01*
X33325831Y-6062520D01*
X33246903Y-5914855D01*
X33198299Y-5754630D01*
X33181888Y-5588000D01*
X33198299Y-5421370D01*
X33246903Y-5261145D01*
X33325831Y-5113480D01*
X33432051Y-4984051D01*
X33561480Y-4877831D01*
X33709145Y-4798903D01*
X33869370Y-4750299D01*
X33994248Y-4738000D01*
X34077752Y-4738000D01*
X34202630Y-4750299D01*
X34202630Y-4750299D01*
G37*
G36*
X5320000Y-5045000D02*
X3570000Y-5045000D01*
X3570000Y-3845000D01*
X5320000Y-3845000D01*
X5320000Y-5045000D01*
X5320000Y-5045000D01*
G37*
G36*
X34886000Y-3898000D02*
X33186000Y-3898000D01*
X33186000Y-2198000D01*
X34886000Y-2198000D01*
X34886000Y-3898000D01*
X34886000Y-3898000D01*
G37*
G36*
X39536630Y-1702299D02*
X39696855Y-1750903D01*
X39844520Y-1829831D01*
X39973949Y-1936051D01*
X40080169Y-2065480D01*
X40159097Y-2213145D01*
X40207701Y-2373370D01*
X40224112Y-2540000D01*
X40207701Y-2706630D01*
X40159097Y-2866855D01*
X40080169Y-3014520D01*
X39973949Y-3143949D01*
X39844520Y-3250169D01*
X39696855Y-3329097D01*
X39536630Y-3377701D01*
X39411752Y-3390000D01*
X39328248Y-3390000D01*
X39203370Y-3377701D01*
X39043145Y-3329097D01*
X38895480Y-3250169D01*
X38766051Y-3143949D01*
X38659831Y-3014520D01*
X38580903Y-2866855D01*
X38532299Y-2706630D01*
X38515888Y-2540000D01*
X38532299Y-2373370D01*
X38580903Y-2213145D01*
X38659831Y-2065480D01*
X38766051Y-1936051D01*
X38895480Y-1829831D01*
X39043145Y-1750903D01*
X39203370Y-1702299D01*
X39328248Y-1690000D01*
X39411752Y-1690000D01*
X39536630Y-1702299D01*
X39536630Y-1702299D01*
G37*
G36*
X42760000Y-3390000D02*
X41060000Y-3390000D01*
X41060000Y-1690000D01*
X42760000Y-1690000D01*
X42760000Y-3390000D01*
X42760000Y-3390000D01*
G37*
G36*
X12113012Y-1423057D02*
X12222207Y-1468287D01*
X12320481Y-1533952D01*
X12404048Y-1617519D01*
X12469713Y-1715793D01*
X12514943Y-1824988D01*
X12538000Y-1940904D01*
X12538000Y-2059096D01*
X12514943Y-2175012D01*
X12469713Y-2284207D01*
X12404048Y-2382481D01*
X12320481Y-2466048D01*
X12222207Y-2531713D01*
X12113012Y-2576943D01*
X11997096Y-2600000D01*
X11878904Y-2600000D01*
X11762988Y-2576943D01*
X11653793Y-2531713D01*
X11555519Y-2466048D01*
X11471952Y-2382481D01*
X11406287Y-2284207D01*
X11361057Y-2175012D01*
X11338000Y-2059096D01*
X11338000Y-1940904D01*
X11361057Y-1824988D01*
X11406287Y-1715793D01*
X11471952Y-1617519D01*
X11555519Y-1533952D01*
X11653793Y-1468287D01*
X11762988Y-1423057D01*
X11878904Y-1400000D01*
X11997096Y-1400000D01*
X12113012Y-1423057D01*
X12113012Y-1423057D01*
G37*
G36*
X13613012Y-1423057D02*
X13722207Y-1468287D01*
X13820481Y-1533952D01*
X13904048Y-1617519D01*
X13969713Y-1715793D01*
X14014943Y-1824988D01*
X14038000Y-1940904D01*
X14038000Y-2059096D01*
X14014943Y-2175012D01*
X13969713Y-2284207D01*
X13904048Y-2382481D01*
X13820481Y-2466048D01*
X13722207Y-2531713D01*
X13613012Y-2576943D01*
X13497096Y-2600000D01*
X13378904Y-2600000D01*
X13262988Y-2576943D01*
X13153793Y-2531713D01*
X13055519Y-2466048D01*
X12971952Y-2382481D01*
X12906287Y-2284207D01*
X12861057Y-2175012D01*
X12838000Y-2059096D01*
X12838000Y-1940904D01*
X12861057Y-1824988D01*
X12906287Y-1715793D01*
X12971952Y-1617519D01*
X13055519Y-1533952D01*
X13153793Y-1468287D01*
X13262988Y-1423057D01*
X13378904Y-1400000D01*
X13497096Y-1400000D01*
X13613012Y-1423057D01*
X13613012Y-1423057D01*
G37*
G36*
X15113012Y-1423057D02*
X15222207Y-1468287D01*
X15320481Y-1533952D01*
X15404048Y-1617519D01*
X15469713Y-1715793D01*
X15514943Y-1824988D01*
X15538000Y-1940904D01*
X15538000Y-2059096D01*
X15514943Y-2175012D01*
X15469713Y-2284207D01*
X15404048Y-2382481D01*
X15320481Y-2466048D01*
X15222207Y-2531713D01*
X15113012Y-2576943D01*
X14997096Y-2600000D01*
X14878904Y-2600000D01*
X14762988Y-2576943D01*
X14653793Y-2531713D01*
X14555519Y-2466048D01*
X14471952Y-2382481D01*
X14406287Y-2284207D01*
X14361057Y-2175012D01*
X14338000Y-2059096D01*
X14338000Y-1940904D01*
X14361057Y-1824988D01*
X14406287Y-1715793D01*
X14471952Y-1617519D01*
X14555519Y-1533952D01*
X14653793Y-1468287D01*
X14762988Y-1423057D01*
X14878904Y-1400000D01*
X14997096Y-1400000D01*
X15113012Y-1423057D01*
X15113012Y-1423057D01*
G37*
G36*
X16613012Y-1423057D02*
X16722207Y-1468287D01*
X16820481Y-1533952D01*
X16904048Y-1617519D01*
X16969713Y-1715793D01*
X17014943Y-1824988D01*
X17038000Y-1940904D01*
X17038000Y-2059096D01*
X17014943Y-2175012D01*
X16969713Y-2284207D01*
X16904048Y-2382481D01*
X16820481Y-2466048D01*
X16722207Y-2531713D01*
X16613012Y-2576943D01*
X16497096Y-2600000D01*
X16378904Y-2600000D01*
X16262988Y-2576943D01*
X16153793Y-2531713D01*
X16055519Y-2466048D01*
X15971952Y-2382481D01*
X15906287Y-2284207D01*
X15861057Y-2175012D01*
X15838000Y-2059096D01*
X15838000Y-1940904D01*
X15861057Y-1824988D01*
X15906287Y-1715793D01*
X15971952Y-1617519D01*
X16055519Y-1533952D01*
X16153793Y-1468287D01*
X16262988Y-1423057D01*
X16378904Y-1400000D01*
X16497096Y-1400000D01*
X16613012Y-1423057D01*
X16613012Y-1423057D01*
G37*
G36*
X18113012Y-1423057D02*
X18222207Y-1468287D01*
X18320481Y-1533952D01*
X18404048Y-1617519D01*
X18469713Y-1715793D01*
X18514943Y-1824988D01*
X18538000Y-1940904D01*
X18538000Y-2059096D01*
X18514943Y-2175012D01*
X18469713Y-2284207D01*
X18404048Y-2382481D01*
X18320481Y-2466048D01*
X18222207Y-2531713D01*
X18113012Y-2576943D01*
X17997096Y-2600000D01*
X17878904Y-2600000D01*
X17762988Y-2576943D01*
X17653793Y-2531713D01*
X17555519Y-2466048D01*
X17471952Y-2382481D01*
X17406287Y-2284207D01*
X17361057Y-2175012D01*
X17338000Y-2059096D01*
X17338000Y-1940904D01*
X17361057Y-1824988D01*
X17406287Y-1715793D01*
X17471952Y-1617519D01*
X17555519Y-1533952D01*
X17653793Y-1468287D01*
X17762988Y-1423057D01*
X17878904Y-1400000D01*
X17997096Y-1400000D01*
X18113012Y-1423057D01*
X18113012Y-1423057D01*
G37*
G36*
X19613012Y-1423057D02*
X19722207Y-1468287D01*
X19820481Y-1533952D01*
X19904048Y-1617519D01*
X19969713Y-1715793D01*
X20014943Y-1824988D01*
X20038000Y-1940904D01*
X20038000Y-2059096D01*
X20014943Y-2175012D01*
X19969713Y-2284207D01*
X19904048Y-2382481D01*
X19820481Y-2466048D01*
X19722207Y-2531713D01*
X19613012Y-2576943D01*
X19497096Y-2600000D01*
X19378904Y-2600000D01*
X19262988Y-2576943D01*
X19153793Y-2531713D01*
X19055519Y-2466048D01*
X18971952Y-2382481D01*
X18906287Y-2284207D01*
X18861057Y-2175012D01*
X18838000Y-2059096D01*
X18838000Y-1940904D01*
X18861057Y-1824988D01*
X18906287Y-1715793D01*
X18971952Y-1617519D01*
X19055519Y-1533952D01*
X19153793Y-1468287D01*
X19262988Y-1423057D01*
X19378904Y-1400000D01*
X19497096Y-1400000D01*
X19613012Y-1423057D01*
X19613012Y-1423057D01*
G37*
M02*
