M48
;DRILL file {KiCad (5.0.2)-1} date 6/25/2019 12:01:13 PM
;FORMAT={-:-/ absolute / inch / decimal}
FMAT,2
INCH,TZ
T1C0.0236
T2C0.0295
T3C0.0394
T4C0.0472
T5C0.1283
%
G90
G05
T1
X3.045Y-2.235
X3.195Y-2.0313
X3.28Y-2.655
X3.29Y-2.485
X3.44Y-2.48
X3.73Y-3.01
X3.945Y-2.815
X3.975Y-2.425
X4.11Y-2.545
X4.145Y-2.2281
X4.1763Y-2.76
T2
X3.7047Y-3.29
X3.7638Y-3.29
X3.8228Y-3.29
X3.8819Y-3.29
X3.9409Y-3.29
X4.Y-3.29
X3.1647Y-3.285
X3.2238Y-3.285
X3.2828Y-3.285
X3.3419Y-3.285
X3.4009Y-3.285
X3.46Y-3.285
T3
X2.975Y-2.315
X2.975Y-2.415
X2.975Y-2.515
X2.97Y-2.765
X2.97Y-2.865
X2.97Y-2.965
X2.97Y-3.065
X3.66Y-1.8881
X3.66Y-2.085
X3.61Y-1.515
X3.71Y-1.515
X3.81Y-1.515
X4.11Y-1.8781
X4.11Y-2.075
T4
X3.145Y-1.8516
X3.145Y-1.95
X3.2434Y-1.8516
X3.2434Y-1.95
X4.0116Y-2.6166
X4.0116Y-2.715
X4.11Y-2.6166
X4.11Y-2.715
T5
X4.252Y-1.4961
X2.9528Y-3.2677
X2.9528Y-1.4961
X4.252Y-3.2677
T0
M30
