G04 #@! TF.GenerationSoftware,KiCad,Pcbnew,(5.0.2)-1*
G04 #@! TF.CreationDate,2019-06-25T12:01:11-07:00*
G04 #@! TF.ProjectId,powerControl,706f7765-7243-46f6-9e74-726f6c2e6b69,rev?*
G04 #@! TF.SameCoordinates,Original*
G04 #@! TF.FileFunction,Legend,Top*
G04 #@! TF.FilePolarity,Positive*
%FSLAX46Y46*%
G04 Gerber Fmt 4.6, Leading zero omitted, Abs format (unit mm)*
G04 Created by KiCad (PCBNEW (5.0.2)-1) date 6/25/2019 12:01:11 PM*
%MOMM*%
%LPD*%
G01*
G04 APERTURE LIST*
%ADD10C,0.200000*%
%ADD11C,0.300000*%
%ADD12C,0.120000*%
%ADD13C,0.127000*%
%ADD14C,0.150000*%
%ADD15C,0.074930*%
%ADD16C,0.076200*%
%ADD17C,0.100000*%
G04 APERTURE END LIST*
D10*
X102711380Y-72715380D02*
X102235190Y-72715380D01*
X102235190Y-71715380D01*
X103044714Y-72191571D02*
X103378047Y-72191571D01*
X103520904Y-72715380D02*
X103044714Y-72715380D01*
X103044714Y-71715380D01*
X103520904Y-71715380D01*
X103949476Y-72715380D02*
X103949476Y-71715380D01*
X104187571Y-71715380D01*
X104330428Y-71763000D01*
X104425666Y-71858238D01*
X104473285Y-71953476D01*
X104520904Y-72143952D01*
X104520904Y-72286809D01*
X104473285Y-72477285D01*
X104425666Y-72572523D01*
X104330428Y-72667761D01*
X104187571Y-72715380D01*
X103949476Y-72715380D01*
X104901857Y-72667761D02*
X104997095Y-72715380D01*
X105187571Y-72715380D01*
X105282809Y-72667761D01*
X105330428Y-72572523D01*
X105330428Y-72524904D01*
X105282809Y-72429666D01*
X105187571Y-72382047D01*
X105044714Y-72382047D01*
X104949476Y-72334428D01*
X104901857Y-72239190D01*
X104901857Y-72191571D01*
X104949476Y-72096333D01*
X105044714Y-72048714D01*
X105187571Y-72048714D01*
X105282809Y-72096333D01*
D11*
X86911571Y-36644000D02*
X86983000Y-36715428D01*
X87054428Y-36858285D01*
X87054428Y-37215428D01*
X86983000Y-37358285D01*
X86911571Y-37429714D01*
X86768714Y-37501142D01*
X86625857Y-37501142D01*
X86411571Y-37429714D01*
X85554428Y-36572571D01*
X85554428Y-37501142D01*
X85625857Y-38072571D02*
X85554428Y-38286857D01*
X85554428Y-38644000D01*
X85625857Y-38786857D01*
X85697285Y-38858285D01*
X85840142Y-38929714D01*
X85983000Y-38929714D01*
X86125857Y-38858285D01*
X86197285Y-38786857D01*
X86268714Y-38644000D01*
X86340142Y-38358285D01*
X86411571Y-38215428D01*
X86483000Y-38144000D01*
X86625857Y-38072571D01*
X86768714Y-38072571D01*
X86911571Y-38144000D01*
X86983000Y-38215428D01*
X87054428Y-38358285D01*
X87054428Y-38715428D01*
X86983000Y-38929714D01*
X86340142Y-41215428D02*
X86268714Y-41429714D01*
X86197285Y-41501142D01*
X86054428Y-41572571D01*
X85840142Y-41572571D01*
X85697285Y-41501142D01*
X85625857Y-41429714D01*
X85554428Y-41286857D01*
X85554428Y-40715428D01*
X87054428Y-40715428D01*
X87054428Y-41215428D01*
X86983000Y-41358285D01*
X86911571Y-41429714D01*
X86768714Y-41501142D01*
X86625857Y-41501142D01*
X86483000Y-41429714D01*
X86411571Y-41358285D01*
X86340142Y-41215428D01*
X86340142Y-40715428D01*
X85983000Y-42144000D02*
X85983000Y-42858285D01*
X85554428Y-42001142D02*
X87054428Y-42501142D01*
X85554428Y-43001142D01*
X87054428Y-43286857D02*
X87054428Y-44144000D01*
X85554428Y-43715428D02*
X87054428Y-43715428D01*
X87054428Y-44429714D02*
X87054428Y-45286857D01*
X85554428Y-44858285D02*
X87054428Y-44858285D01*
X94146571Y-41104428D02*
X95003714Y-41104428D01*
X94575142Y-41104428D02*
X94575142Y-42604428D01*
X94718000Y-42390142D01*
X94860857Y-42247285D01*
X95003714Y-42175857D01*
X93575142Y-42461571D02*
X93503714Y-42533000D01*
X93360857Y-42604428D01*
X93003714Y-42604428D01*
X92860857Y-42533000D01*
X92789428Y-42461571D01*
X92718000Y-42318714D01*
X92718000Y-42175857D01*
X92789428Y-41961571D01*
X93646571Y-41104428D01*
X92718000Y-41104428D01*
X92289428Y-42604428D02*
X91789428Y-41104428D01*
X91289428Y-42604428D01*
X79561428Y-72842714D02*
X79561428Y-73771285D01*
X78990000Y-73271285D01*
X78990000Y-73485571D01*
X78918571Y-73628428D01*
X78847142Y-73699857D01*
X78704285Y-73771285D01*
X78347142Y-73771285D01*
X78204285Y-73699857D01*
X78132857Y-73628428D01*
X78061428Y-73485571D01*
X78061428Y-73057000D01*
X78132857Y-72914142D01*
X78204285Y-72842714D01*
X78204285Y-74414142D02*
X78132857Y-74485571D01*
X78061428Y-74414142D01*
X78132857Y-74342714D01*
X78204285Y-74414142D01*
X78061428Y-74414142D01*
X79561428Y-74985571D02*
X79561428Y-75914142D01*
X78990000Y-75414142D01*
X78990000Y-75628428D01*
X78918571Y-75771285D01*
X78847142Y-75842714D01*
X78704285Y-75914142D01*
X78347142Y-75914142D01*
X78204285Y-75842714D01*
X78132857Y-75771285D01*
X78061428Y-75628428D01*
X78061428Y-75199857D01*
X78132857Y-75057000D01*
X78204285Y-74985571D01*
X79561428Y-76342714D02*
X78061428Y-76842714D01*
X79561428Y-77342714D01*
D10*
X96615380Y-81224380D02*
X96139190Y-81224380D01*
X96139190Y-80224380D01*
X96948714Y-80700571D02*
X97282047Y-80700571D01*
X97424904Y-81224380D02*
X96948714Y-81224380D01*
X96948714Y-80224380D01*
X97424904Y-80224380D01*
X97853476Y-81224380D02*
X97853476Y-80224380D01*
X98091571Y-80224380D01*
X98234428Y-80272000D01*
X98329666Y-80367238D01*
X98377285Y-80462476D01*
X98424904Y-80652952D01*
X98424904Y-80795809D01*
X98377285Y-80986285D01*
X98329666Y-81081523D01*
X98234428Y-81176761D01*
X98091571Y-81224380D01*
X97853476Y-81224380D01*
X98805857Y-81176761D02*
X98901095Y-81224380D01*
X99091571Y-81224380D01*
X99186809Y-81176761D01*
X99234428Y-81081523D01*
X99234428Y-81033904D01*
X99186809Y-80938666D01*
X99091571Y-80891047D01*
X98948714Y-80891047D01*
X98853476Y-80843428D01*
X98805857Y-80748190D01*
X98805857Y-80700571D01*
X98853476Y-80605333D01*
X98948714Y-80557714D01*
X99091571Y-80557714D01*
X99186809Y-80605333D01*
D11*
X79180428Y-60674285D02*
X79180428Y-59960000D01*
X78466142Y-59888571D01*
X78537571Y-59960000D01*
X78609000Y-60102857D01*
X78609000Y-60460000D01*
X78537571Y-60602857D01*
X78466142Y-60674285D01*
X78323285Y-60745714D01*
X77966142Y-60745714D01*
X77823285Y-60674285D01*
X77751857Y-60602857D01*
X77680428Y-60460000D01*
X77680428Y-60102857D01*
X77751857Y-59960000D01*
X77823285Y-59888571D01*
X79180428Y-61174285D02*
X77680428Y-61674285D01*
X79180428Y-62174285D01*
D10*
X81589809Y-81351380D02*
X81589809Y-80351380D01*
X81970761Y-80351380D01*
X82066000Y-80399000D01*
X82113619Y-80446619D01*
X82161238Y-80541857D01*
X82161238Y-80684714D01*
X82113619Y-80779952D01*
X82066000Y-80827571D01*
X81970761Y-80875190D01*
X81589809Y-80875190D01*
X82732666Y-81351380D02*
X82637428Y-81303761D01*
X82589809Y-81256142D01*
X82542190Y-81160904D01*
X82542190Y-80875190D01*
X82589809Y-80779952D01*
X82637428Y-80732333D01*
X82732666Y-80684714D01*
X82875523Y-80684714D01*
X82970761Y-80732333D01*
X83018380Y-80779952D01*
X83066000Y-80875190D01*
X83066000Y-81160904D01*
X83018380Y-81256142D01*
X82970761Y-81303761D01*
X82875523Y-81351380D01*
X82732666Y-81351380D01*
X83399333Y-80684714D02*
X83589809Y-81351380D01*
X83780285Y-80875190D01*
X83970761Y-81351380D01*
X84161238Y-80684714D01*
X84923142Y-81303761D02*
X84827904Y-81351380D01*
X84637428Y-81351380D01*
X84542190Y-81303761D01*
X84494571Y-81208523D01*
X84494571Y-80827571D01*
X84542190Y-80732333D01*
X84637428Y-80684714D01*
X84827904Y-80684714D01*
X84923142Y-80732333D01*
X84970761Y-80827571D01*
X84970761Y-80922809D01*
X84494571Y-81018047D01*
X85399333Y-81351380D02*
X85399333Y-80684714D01*
X85399333Y-80875190D02*
X85446952Y-80779952D01*
X85494571Y-80732333D01*
X85589809Y-80684714D01*
X85685047Y-80684714D01*
D12*
G04 #@! TO.C,C2*
X89589000Y-55438646D02*
X90589000Y-55438646D01*
X90089000Y-55938646D02*
X90089000Y-54938646D01*
X92365000Y-45378000D02*
X93563000Y-45378000D01*
X92102000Y-45418000D02*
X93826000Y-45418000D01*
X91902000Y-45458000D02*
X94026000Y-45458000D01*
X91734000Y-45498000D02*
X94194000Y-45498000D01*
X91586000Y-45538000D02*
X94342000Y-45538000D01*
X91454000Y-45578000D02*
X94474000Y-45578000D01*
X91334000Y-45618000D02*
X94594000Y-45618000D01*
X91222000Y-45658000D02*
X94706000Y-45658000D01*
X91118000Y-45698000D02*
X94810000Y-45698000D01*
X91020000Y-45738000D02*
X94908000Y-45738000D01*
X90927000Y-45778000D02*
X95001000Y-45778000D01*
X90839000Y-45818000D02*
X95089000Y-45818000D01*
X90755000Y-45858000D02*
X95173000Y-45858000D01*
X90675000Y-45898000D02*
X95253000Y-45898000D01*
X90599000Y-45938000D02*
X95329000Y-45938000D01*
X90525000Y-45978000D02*
X95403000Y-45978000D01*
X90454000Y-46018000D02*
X95474000Y-46018000D01*
X90385000Y-46058000D02*
X95543000Y-46058000D01*
X90319000Y-46098000D02*
X95609000Y-46098000D01*
X90255000Y-46138000D02*
X95673000Y-46138000D01*
X90194000Y-46178000D02*
X95734000Y-46178000D01*
X90134000Y-46218000D02*
X95794000Y-46218000D01*
X90075000Y-46258000D02*
X95853000Y-46258000D01*
X90019000Y-46298000D02*
X95909000Y-46298000D01*
X89964000Y-46338000D02*
X95964000Y-46338000D01*
X89910000Y-46378000D02*
X96018000Y-46378000D01*
X89858000Y-46418000D02*
X96070000Y-46418000D01*
X89808000Y-46458000D02*
X96120000Y-46458000D01*
X89758000Y-46498000D02*
X96170000Y-46498000D01*
X89710000Y-46538000D02*
X96218000Y-46538000D01*
X89663000Y-46578000D02*
X96265000Y-46578000D01*
X89617000Y-46618000D02*
X96311000Y-46618000D01*
X89572000Y-46658000D02*
X96356000Y-46658000D01*
X89528000Y-46698000D02*
X96400000Y-46698000D01*
X94205000Y-46738000D02*
X96442000Y-46738000D01*
X89486000Y-46738000D02*
X91723000Y-46738000D01*
X94205000Y-46778000D02*
X96484000Y-46778000D01*
X89444000Y-46778000D02*
X91723000Y-46778000D01*
X94205000Y-46818000D02*
X96525000Y-46818000D01*
X89403000Y-46818000D02*
X91723000Y-46818000D01*
X94205000Y-46858000D02*
X96565000Y-46858000D01*
X89363000Y-46858000D02*
X91723000Y-46858000D01*
X94205000Y-46898000D02*
X96604000Y-46898000D01*
X89324000Y-46898000D02*
X91723000Y-46898000D01*
X94205000Y-46938000D02*
X96643000Y-46938000D01*
X89285000Y-46938000D02*
X91723000Y-46938000D01*
X94205000Y-46978000D02*
X96680000Y-46978000D01*
X89248000Y-46978000D02*
X91723000Y-46978000D01*
X94205000Y-47018000D02*
X96717000Y-47018000D01*
X89211000Y-47018000D02*
X91723000Y-47018000D01*
X94205000Y-47058000D02*
X96753000Y-47058000D01*
X89175000Y-47058000D02*
X91723000Y-47058000D01*
X94205000Y-47098000D02*
X96788000Y-47098000D01*
X89140000Y-47098000D02*
X91723000Y-47098000D01*
X94205000Y-47138000D02*
X96822000Y-47138000D01*
X89106000Y-47138000D02*
X91723000Y-47138000D01*
X94205000Y-47178000D02*
X96856000Y-47178000D01*
X89072000Y-47178000D02*
X91723000Y-47178000D01*
X94205000Y-47218000D02*
X96889000Y-47218000D01*
X89039000Y-47218000D02*
X91723000Y-47218000D01*
X94205000Y-47258000D02*
X96921000Y-47258000D01*
X89007000Y-47258000D02*
X91723000Y-47258000D01*
X94205000Y-47298000D02*
X96953000Y-47298000D01*
X88975000Y-47298000D02*
X91723000Y-47298000D01*
X94205000Y-47338000D02*
X96984000Y-47338000D01*
X88944000Y-47338000D02*
X91723000Y-47338000D01*
X94205000Y-47378000D02*
X97014000Y-47378000D01*
X88914000Y-47378000D02*
X91723000Y-47378000D01*
X94205000Y-47418000D02*
X97044000Y-47418000D01*
X88884000Y-47418000D02*
X91723000Y-47418000D01*
X94205000Y-47458000D02*
X97074000Y-47458000D01*
X88854000Y-47458000D02*
X91723000Y-47458000D01*
X94205000Y-47498000D02*
X97102000Y-47498000D01*
X88826000Y-47498000D02*
X91723000Y-47498000D01*
X94205000Y-47538000D02*
X97130000Y-47538000D01*
X88798000Y-47538000D02*
X91723000Y-47538000D01*
X94205000Y-47578000D02*
X97158000Y-47578000D01*
X88770000Y-47578000D02*
X91723000Y-47578000D01*
X94205000Y-47618000D02*
X97185000Y-47618000D01*
X88743000Y-47618000D02*
X91723000Y-47618000D01*
X94205000Y-47658000D02*
X97211000Y-47658000D01*
X88717000Y-47658000D02*
X91723000Y-47658000D01*
X94205000Y-47698000D02*
X97237000Y-47698000D01*
X88691000Y-47698000D02*
X91723000Y-47698000D01*
X94205000Y-47738000D02*
X97262000Y-47738000D01*
X88666000Y-47738000D02*
X91723000Y-47738000D01*
X94205000Y-47778000D02*
X97287000Y-47778000D01*
X88641000Y-47778000D02*
X91723000Y-47778000D01*
X94205000Y-47818000D02*
X97311000Y-47818000D01*
X88617000Y-47818000D02*
X91723000Y-47818000D01*
X94205000Y-47858000D02*
X97335000Y-47858000D01*
X88593000Y-47858000D02*
X91723000Y-47858000D01*
X94205000Y-47898000D02*
X97359000Y-47898000D01*
X88569000Y-47898000D02*
X91723000Y-47898000D01*
X94205000Y-47938000D02*
X97381000Y-47938000D01*
X88547000Y-47938000D02*
X91723000Y-47938000D01*
X94205000Y-47978000D02*
X97404000Y-47978000D01*
X88524000Y-47978000D02*
X91723000Y-47978000D01*
X94205000Y-48018000D02*
X97426000Y-48018000D01*
X88502000Y-48018000D02*
X91723000Y-48018000D01*
X94205000Y-48058000D02*
X97447000Y-48058000D01*
X88481000Y-48058000D02*
X91723000Y-48058000D01*
X94205000Y-48098000D02*
X97468000Y-48098000D01*
X88460000Y-48098000D02*
X91723000Y-48098000D01*
X94205000Y-48138000D02*
X97489000Y-48138000D01*
X88439000Y-48138000D02*
X91723000Y-48138000D01*
X94205000Y-48178000D02*
X97509000Y-48178000D01*
X88419000Y-48178000D02*
X91723000Y-48178000D01*
X94205000Y-48218000D02*
X97528000Y-48218000D01*
X88400000Y-48218000D02*
X91723000Y-48218000D01*
X94205000Y-48258000D02*
X97548000Y-48258000D01*
X88380000Y-48258000D02*
X91723000Y-48258000D01*
X94205000Y-48298000D02*
X97567000Y-48298000D01*
X88361000Y-48298000D02*
X91723000Y-48298000D01*
X94205000Y-48338000D02*
X97585000Y-48338000D01*
X88343000Y-48338000D02*
X91723000Y-48338000D01*
X94205000Y-48378000D02*
X97603000Y-48378000D01*
X88325000Y-48378000D02*
X91723000Y-48378000D01*
X94205000Y-48418000D02*
X97621000Y-48418000D01*
X88307000Y-48418000D02*
X91723000Y-48418000D01*
X94205000Y-48458000D02*
X97638000Y-48458000D01*
X88290000Y-48458000D02*
X91723000Y-48458000D01*
X94205000Y-48498000D02*
X97654000Y-48498000D01*
X88274000Y-48498000D02*
X91723000Y-48498000D01*
X94205000Y-48538000D02*
X97671000Y-48538000D01*
X88257000Y-48538000D02*
X91723000Y-48538000D01*
X94205000Y-48578000D02*
X97687000Y-48578000D01*
X88241000Y-48578000D02*
X91723000Y-48578000D01*
X94205000Y-48618000D02*
X97702000Y-48618000D01*
X88226000Y-48618000D02*
X91723000Y-48618000D01*
X94205000Y-48658000D02*
X97718000Y-48658000D01*
X88210000Y-48658000D02*
X91723000Y-48658000D01*
X94205000Y-48698000D02*
X97732000Y-48698000D01*
X88196000Y-48698000D02*
X91723000Y-48698000D01*
X94205000Y-48738000D02*
X97747000Y-48738000D01*
X88181000Y-48738000D02*
X91723000Y-48738000D01*
X94205000Y-48778000D02*
X97761000Y-48778000D01*
X88167000Y-48778000D02*
X91723000Y-48778000D01*
X94205000Y-48818000D02*
X97775000Y-48818000D01*
X88153000Y-48818000D02*
X91723000Y-48818000D01*
X94205000Y-48858000D02*
X97788000Y-48858000D01*
X88140000Y-48858000D02*
X91723000Y-48858000D01*
X94205000Y-48898000D02*
X97801000Y-48898000D01*
X88127000Y-48898000D02*
X91723000Y-48898000D01*
X94205000Y-48938000D02*
X97814000Y-48938000D01*
X88114000Y-48938000D02*
X91723000Y-48938000D01*
X94205000Y-48978000D02*
X97826000Y-48978000D01*
X88102000Y-48978000D02*
X91723000Y-48978000D01*
X94205000Y-49018000D02*
X97838000Y-49018000D01*
X88090000Y-49018000D02*
X91723000Y-49018000D01*
X94205000Y-49058000D02*
X97849000Y-49058000D01*
X88079000Y-49058000D02*
X91723000Y-49058000D01*
X94205000Y-49098000D02*
X97861000Y-49098000D01*
X88067000Y-49098000D02*
X91723000Y-49098000D01*
X94205000Y-49138000D02*
X97871000Y-49138000D01*
X88057000Y-49138000D02*
X91723000Y-49138000D01*
X94205000Y-49178000D02*
X97882000Y-49178000D01*
X88046000Y-49178000D02*
X91723000Y-49178000D01*
X88036000Y-49218000D02*
X97892000Y-49218000D01*
X88026000Y-49258000D02*
X97902000Y-49258000D01*
X88017000Y-49298000D02*
X97911000Y-49298000D01*
X88008000Y-49338000D02*
X97920000Y-49338000D01*
X87999000Y-49378000D02*
X97929000Y-49378000D01*
X87990000Y-49418000D02*
X97938000Y-49418000D01*
X87982000Y-49458000D02*
X97946000Y-49458000D01*
X87974000Y-49498000D02*
X97954000Y-49498000D01*
X87967000Y-49538000D02*
X97961000Y-49538000D01*
X87960000Y-49578000D02*
X97968000Y-49578000D01*
X87953000Y-49618000D02*
X97975000Y-49618000D01*
X87946000Y-49658000D02*
X97982000Y-49658000D01*
X87940000Y-49698000D02*
X97988000Y-49698000D01*
X87934000Y-49738000D02*
X97994000Y-49738000D01*
X87929000Y-49779000D02*
X97999000Y-49779000D01*
X87924000Y-49819000D02*
X98004000Y-49819000D01*
X87919000Y-49859000D02*
X98009000Y-49859000D01*
X87914000Y-49899000D02*
X98014000Y-49899000D01*
X87910000Y-49939000D02*
X98018000Y-49939000D01*
X87906000Y-49979000D02*
X98022000Y-49979000D01*
X87902000Y-50019000D02*
X98026000Y-50019000D01*
X87899000Y-50059000D02*
X98029000Y-50059000D01*
X87896000Y-50099000D02*
X98032000Y-50099000D01*
X87894000Y-50139000D02*
X98034000Y-50139000D01*
X87891000Y-50179000D02*
X98037000Y-50179000D01*
X87889000Y-50219000D02*
X98039000Y-50219000D01*
X87887000Y-50259000D02*
X98041000Y-50259000D01*
X87886000Y-50299000D02*
X98042000Y-50299000D01*
X87885000Y-50339000D02*
X98043000Y-50339000D01*
X87884000Y-50379000D02*
X98044000Y-50379000D01*
X87884000Y-50419000D02*
X98044000Y-50419000D01*
X87884000Y-50459000D02*
X98044000Y-50459000D01*
X98084000Y-50459000D02*
G75*
G03X98084000Y-50459000I-5120000J0D01*
G01*
G04 #@! TO.C,C1*
X109514000Y-50205000D02*
G75*
G03X109514000Y-50205000I-5120000J0D01*
G01*
X99314000Y-50205000D02*
X109474000Y-50205000D01*
X99314000Y-50165000D02*
X109474000Y-50165000D01*
X99314000Y-50125000D02*
X109474000Y-50125000D01*
X99315000Y-50085000D02*
X109473000Y-50085000D01*
X99316000Y-50045000D02*
X109472000Y-50045000D01*
X99317000Y-50005000D02*
X109471000Y-50005000D01*
X99319000Y-49965000D02*
X109469000Y-49965000D01*
X99321000Y-49925000D02*
X109467000Y-49925000D01*
X99324000Y-49885000D02*
X109464000Y-49885000D01*
X99326000Y-49845000D02*
X109462000Y-49845000D01*
X99329000Y-49805000D02*
X109459000Y-49805000D01*
X99332000Y-49765000D02*
X109456000Y-49765000D01*
X99336000Y-49725000D02*
X109452000Y-49725000D01*
X99340000Y-49685000D02*
X109448000Y-49685000D01*
X99344000Y-49645000D02*
X109444000Y-49645000D01*
X99349000Y-49605000D02*
X109439000Y-49605000D01*
X99354000Y-49565000D02*
X109434000Y-49565000D01*
X99359000Y-49525000D02*
X109429000Y-49525000D01*
X99364000Y-49484000D02*
X109424000Y-49484000D01*
X99370000Y-49444000D02*
X109418000Y-49444000D01*
X99376000Y-49404000D02*
X109412000Y-49404000D01*
X99383000Y-49364000D02*
X109405000Y-49364000D01*
X99390000Y-49324000D02*
X109398000Y-49324000D01*
X99397000Y-49284000D02*
X109391000Y-49284000D01*
X99404000Y-49244000D02*
X109384000Y-49244000D01*
X99412000Y-49204000D02*
X109376000Y-49204000D01*
X99420000Y-49164000D02*
X109368000Y-49164000D01*
X99429000Y-49124000D02*
X109359000Y-49124000D01*
X99438000Y-49084000D02*
X109350000Y-49084000D01*
X99447000Y-49044000D02*
X109341000Y-49044000D01*
X99456000Y-49004000D02*
X109332000Y-49004000D01*
X99466000Y-48964000D02*
X109322000Y-48964000D01*
X99476000Y-48924000D02*
X103153000Y-48924000D01*
X105635000Y-48924000D02*
X109312000Y-48924000D01*
X99487000Y-48884000D02*
X103153000Y-48884000D01*
X105635000Y-48884000D02*
X109301000Y-48884000D01*
X99497000Y-48844000D02*
X103153000Y-48844000D01*
X105635000Y-48844000D02*
X109291000Y-48844000D01*
X99509000Y-48804000D02*
X103153000Y-48804000D01*
X105635000Y-48804000D02*
X109279000Y-48804000D01*
X99520000Y-48764000D02*
X103153000Y-48764000D01*
X105635000Y-48764000D02*
X109268000Y-48764000D01*
X99532000Y-48724000D02*
X103153000Y-48724000D01*
X105635000Y-48724000D02*
X109256000Y-48724000D01*
X99544000Y-48684000D02*
X103153000Y-48684000D01*
X105635000Y-48684000D02*
X109244000Y-48684000D01*
X99557000Y-48644000D02*
X103153000Y-48644000D01*
X105635000Y-48644000D02*
X109231000Y-48644000D01*
X99570000Y-48604000D02*
X103153000Y-48604000D01*
X105635000Y-48604000D02*
X109218000Y-48604000D01*
X99583000Y-48564000D02*
X103153000Y-48564000D01*
X105635000Y-48564000D02*
X109205000Y-48564000D01*
X99597000Y-48524000D02*
X103153000Y-48524000D01*
X105635000Y-48524000D02*
X109191000Y-48524000D01*
X99611000Y-48484000D02*
X103153000Y-48484000D01*
X105635000Y-48484000D02*
X109177000Y-48484000D01*
X99626000Y-48444000D02*
X103153000Y-48444000D01*
X105635000Y-48444000D02*
X109162000Y-48444000D01*
X99640000Y-48404000D02*
X103153000Y-48404000D01*
X105635000Y-48404000D02*
X109148000Y-48404000D01*
X99656000Y-48364000D02*
X103153000Y-48364000D01*
X105635000Y-48364000D02*
X109132000Y-48364000D01*
X99671000Y-48324000D02*
X103153000Y-48324000D01*
X105635000Y-48324000D02*
X109117000Y-48324000D01*
X99687000Y-48284000D02*
X103153000Y-48284000D01*
X105635000Y-48284000D02*
X109101000Y-48284000D01*
X99704000Y-48244000D02*
X103153000Y-48244000D01*
X105635000Y-48244000D02*
X109084000Y-48244000D01*
X99720000Y-48204000D02*
X103153000Y-48204000D01*
X105635000Y-48204000D02*
X109068000Y-48204000D01*
X99737000Y-48164000D02*
X103153000Y-48164000D01*
X105635000Y-48164000D02*
X109051000Y-48164000D01*
X99755000Y-48124000D02*
X103153000Y-48124000D01*
X105635000Y-48124000D02*
X109033000Y-48124000D01*
X99773000Y-48084000D02*
X103153000Y-48084000D01*
X105635000Y-48084000D02*
X109015000Y-48084000D01*
X99791000Y-48044000D02*
X103153000Y-48044000D01*
X105635000Y-48044000D02*
X108997000Y-48044000D01*
X99810000Y-48004000D02*
X103153000Y-48004000D01*
X105635000Y-48004000D02*
X108978000Y-48004000D01*
X99830000Y-47964000D02*
X103153000Y-47964000D01*
X105635000Y-47964000D02*
X108958000Y-47964000D01*
X99849000Y-47924000D02*
X103153000Y-47924000D01*
X105635000Y-47924000D02*
X108939000Y-47924000D01*
X99869000Y-47884000D02*
X103153000Y-47884000D01*
X105635000Y-47884000D02*
X108919000Y-47884000D01*
X99890000Y-47844000D02*
X103153000Y-47844000D01*
X105635000Y-47844000D02*
X108898000Y-47844000D01*
X99911000Y-47804000D02*
X103153000Y-47804000D01*
X105635000Y-47804000D02*
X108877000Y-47804000D01*
X99932000Y-47764000D02*
X103153000Y-47764000D01*
X105635000Y-47764000D02*
X108856000Y-47764000D01*
X99954000Y-47724000D02*
X103153000Y-47724000D01*
X105635000Y-47724000D02*
X108834000Y-47724000D01*
X99977000Y-47684000D02*
X103153000Y-47684000D01*
X105635000Y-47684000D02*
X108811000Y-47684000D01*
X99999000Y-47644000D02*
X103153000Y-47644000D01*
X105635000Y-47644000D02*
X108789000Y-47644000D01*
X100023000Y-47604000D02*
X103153000Y-47604000D01*
X105635000Y-47604000D02*
X108765000Y-47604000D01*
X100047000Y-47564000D02*
X103153000Y-47564000D01*
X105635000Y-47564000D02*
X108741000Y-47564000D01*
X100071000Y-47524000D02*
X103153000Y-47524000D01*
X105635000Y-47524000D02*
X108717000Y-47524000D01*
X100096000Y-47484000D02*
X103153000Y-47484000D01*
X105635000Y-47484000D02*
X108692000Y-47484000D01*
X100121000Y-47444000D02*
X103153000Y-47444000D01*
X105635000Y-47444000D02*
X108667000Y-47444000D01*
X100147000Y-47404000D02*
X103153000Y-47404000D01*
X105635000Y-47404000D02*
X108641000Y-47404000D01*
X100173000Y-47364000D02*
X103153000Y-47364000D01*
X105635000Y-47364000D02*
X108615000Y-47364000D01*
X100200000Y-47324000D02*
X103153000Y-47324000D01*
X105635000Y-47324000D02*
X108588000Y-47324000D01*
X100228000Y-47284000D02*
X103153000Y-47284000D01*
X105635000Y-47284000D02*
X108560000Y-47284000D01*
X100256000Y-47244000D02*
X103153000Y-47244000D01*
X105635000Y-47244000D02*
X108532000Y-47244000D01*
X100284000Y-47204000D02*
X103153000Y-47204000D01*
X105635000Y-47204000D02*
X108504000Y-47204000D01*
X100314000Y-47164000D02*
X103153000Y-47164000D01*
X105635000Y-47164000D02*
X108474000Y-47164000D01*
X100344000Y-47124000D02*
X103153000Y-47124000D01*
X105635000Y-47124000D02*
X108444000Y-47124000D01*
X100374000Y-47084000D02*
X103153000Y-47084000D01*
X105635000Y-47084000D02*
X108414000Y-47084000D01*
X100405000Y-47044000D02*
X103153000Y-47044000D01*
X105635000Y-47044000D02*
X108383000Y-47044000D01*
X100437000Y-47004000D02*
X103153000Y-47004000D01*
X105635000Y-47004000D02*
X108351000Y-47004000D01*
X100469000Y-46964000D02*
X103153000Y-46964000D01*
X105635000Y-46964000D02*
X108319000Y-46964000D01*
X100502000Y-46924000D02*
X103153000Y-46924000D01*
X105635000Y-46924000D02*
X108286000Y-46924000D01*
X100536000Y-46884000D02*
X103153000Y-46884000D01*
X105635000Y-46884000D02*
X108252000Y-46884000D01*
X100570000Y-46844000D02*
X103153000Y-46844000D01*
X105635000Y-46844000D02*
X108218000Y-46844000D01*
X100605000Y-46804000D02*
X103153000Y-46804000D01*
X105635000Y-46804000D02*
X108183000Y-46804000D01*
X100641000Y-46764000D02*
X103153000Y-46764000D01*
X105635000Y-46764000D02*
X108147000Y-46764000D01*
X100678000Y-46724000D02*
X103153000Y-46724000D01*
X105635000Y-46724000D02*
X108110000Y-46724000D01*
X100715000Y-46684000D02*
X103153000Y-46684000D01*
X105635000Y-46684000D02*
X108073000Y-46684000D01*
X100754000Y-46644000D02*
X103153000Y-46644000D01*
X105635000Y-46644000D02*
X108034000Y-46644000D01*
X100793000Y-46604000D02*
X103153000Y-46604000D01*
X105635000Y-46604000D02*
X107995000Y-46604000D01*
X100833000Y-46564000D02*
X103153000Y-46564000D01*
X105635000Y-46564000D02*
X107955000Y-46564000D01*
X100874000Y-46524000D02*
X103153000Y-46524000D01*
X105635000Y-46524000D02*
X107914000Y-46524000D01*
X100916000Y-46484000D02*
X103153000Y-46484000D01*
X105635000Y-46484000D02*
X107872000Y-46484000D01*
X100958000Y-46444000D02*
X107830000Y-46444000D01*
X101002000Y-46404000D02*
X107786000Y-46404000D01*
X101047000Y-46364000D02*
X107741000Y-46364000D01*
X101093000Y-46324000D02*
X107695000Y-46324000D01*
X101140000Y-46284000D02*
X107648000Y-46284000D01*
X101188000Y-46244000D02*
X107600000Y-46244000D01*
X101238000Y-46204000D02*
X107550000Y-46204000D01*
X101288000Y-46164000D02*
X107500000Y-46164000D01*
X101340000Y-46124000D02*
X107448000Y-46124000D01*
X101394000Y-46084000D02*
X107394000Y-46084000D01*
X101449000Y-46044000D02*
X107339000Y-46044000D01*
X101505000Y-46004000D02*
X107283000Y-46004000D01*
X101564000Y-45964000D02*
X107224000Y-45964000D01*
X101624000Y-45924000D02*
X107164000Y-45924000D01*
X101685000Y-45884000D02*
X107103000Y-45884000D01*
X101749000Y-45844000D02*
X107039000Y-45844000D01*
X101815000Y-45804000D02*
X106973000Y-45804000D01*
X101884000Y-45764000D02*
X106904000Y-45764000D01*
X101955000Y-45724000D02*
X106833000Y-45724000D01*
X102029000Y-45684000D02*
X106759000Y-45684000D01*
X102105000Y-45644000D02*
X106683000Y-45644000D01*
X102185000Y-45604000D02*
X106603000Y-45604000D01*
X102269000Y-45564000D02*
X106519000Y-45564000D01*
X102357000Y-45524000D02*
X106431000Y-45524000D01*
X102450000Y-45484000D02*
X106338000Y-45484000D01*
X102548000Y-45444000D02*
X106240000Y-45444000D01*
X102652000Y-45404000D02*
X106136000Y-45404000D01*
X102764000Y-45364000D02*
X106024000Y-45364000D01*
X102884000Y-45324000D02*
X105904000Y-45324000D01*
X103016000Y-45284000D02*
X105772000Y-45284000D01*
X103164000Y-45244000D02*
X105624000Y-45244000D01*
X103332000Y-45204000D02*
X105456000Y-45204000D01*
X103532000Y-45164000D02*
X105256000Y-45164000D01*
X103795000Y-45124000D02*
X104993000Y-45124000D01*
X101519000Y-55684646D02*
X101519000Y-54684646D01*
X101019000Y-55184646D02*
X102019000Y-55184646D01*
G04 #@! TO.C,J11*
X100044000Y-67711000D02*
X100044000Y-70791000D01*
X100044000Y-70791000D02*
X106244000Y-70791000D01*
X106244000Y-70791000D02*
X106244000Y-70421000D01*
X106244000Y-70421000D02*
X109104000Y-70421000D01*
X109104000Y-70421000D02*
X109104000Y-67711000D01*
X100044000Y-67711000D02*
X100044000Y-64631000D01*
X100044000Y-64631000D02*
X106244000Y-64631000D01*
X106244000Y-64631000D02*
X106244000Y-65001000D01*
X106244000Y-65001000D02*
X109104000Y-65001000D01*
X109104000Y-65001000D02*
X109104000Y-67711000D01*
X104394000Y-71091000D02*
X106544000Y-71091000D01*
X106544000Y-71091000D02*
X106544000Y-70421000D01*
G04 #@! TO.C,J9*
X74108000Y-79181000D02*
X76768000Y-79181000D01*
X74108000Y-71501000D02*
X74108000Y-79181000D01*
X76768000Y-71501000D02*
X76768000Y-79181000D01*
X74108000Y-71501000D02*
X76768000Y-71501000D01*
X74108000Y-70231000D02*
X74108000Y-68901000D01*
X74108000Y-68901000D02*
X75438000Y-68901000D01*
G04 #@! TO.C,D3*
X89626000Y-66024000D02*
X89626000Y-64024000D01*
X89626000Y-64024000D02*
X85726000Y-64024000D01*
X89626000Y-66024000D02*
X85726000Y-66024000D01*
G04 #@! TO.C,Q2*
X94242000Y-69334000D02*
X94242000Y-68964000D01*
X97782000Y-69334000D02*
X97782000Y-68964000D01*
X97782000Y-65794000D02*
X97782000Y-66164000D01*
X94242000Y-69334000D02*
X97782000Y-69334000D01*
X97782000Y-65794000D02*
X94012000Y-65794000D01*
G04 #@! TO.C,Q1*
X106545000Y-61968000D02*
X106545000Y-58198000D01*
X103005000Y-58428000D02*
X103005000Y-61968000D01*
X106545000Y-61968000D02*
X106175000Y-61968000D01*
X103005000Y-61968000D02*
X103375000Y-61968000D01*
X103005000Y-58428000D02*
X103375000Y-58428000D01*
G04 #@! TO.C,Q5*
X83310000Y-63302000D02*
X83310000Y-62372000D01*
X83310000Y-60142000D02*
X83310000Y-61072000D01*
X83310000Y-60142000D02*
X81150000Y-60142000D01*
X83310000Y-63302000D02*
X81850000Y-63302000D01*
G04 #@! TO.C,Q4*
X90226000Y-57533000D02*
X90226000Y-58993000D01*
X87066000Y-57533000D02*
X87066000Y-59693000D01*
X87066000Y-57533000D02*
X87996000Y-57533000D01*
X90226000Y-57533000D02*
X89296000Y-57533000D01*
G04 #@! TO.C,Q3*
X97084000Y-59565000D02*
X96154000Y-59565000D01*
X93924000Y-59565000D02*
X94854000Y-59565000D01*
X93924000Y-59565000D02*
X93924000Y-61725000D01*
X97084000Y-59565000D02*
X97084000Y-61025000D01*
G04 #@! TO.C,R2*
X92073000Y-69814221D02*
X92073000Y-70139779D01*
X93093000Y-69814221D02*
X93093000Y-70139779D01*
G04 #@! TO.C,R3*
X99913221Y-59434000D02*
X100238779Y-59434000D01*
X99913221Y-60454000D02*
X100238779Y-60454000D01*
G04 #@! TO.C,R6*
X99760721Y-57406000D02*
X100086279Y-57406000D01*
X99760721Y-56386000D02*
X100086279Y-56386000D01*
G04 #@! TO.C,R4*
X93093000Y-66512221D02*
X93093000Y-66837779D01*
X92073000Y-66512221D02*
X92073000Y-66837779D01*
G04 #@! TO.C,R7*
X97134000Y-44166064D02*
X97134000Y-42961936D01*
X98954000Y-44166064D02*
X98954000Y-42961936D01*
D13*
G04 #@! TO.C,D1*
X93345000Y-76962000D02*
X93345000Y-77165200D01*
X91440000Y-78486000D02*
X91440000Y-73914000D01*
X91440000Y-73914000D02*
X92075000Y-73914000D01*
X95250000Y-75539600D02*
X91440000Y-75539600D01*
X95250000Y-75209400D02*
X91440000Y-75209400D01*
X94615000Y-78486000D02*
X95250000Y-78486000D01*
X95250000Y-78486000D02*
X95250000Y-73914000D01*
X95250000Y-73914000D02*
X94615000Y-73914000D01*
X92075000Y-78486000D02*
X91440000Y-78486000D01*
X93345000Y-76327000D02*
X92870020Y-76962000D01*
X92870020Y-76962000D02*
X93345000Y-76962000D01*
X93345000Y-76962000D02*
X93819980Y-76962000D01*
X93819980Y-76962000D02*
X93345000Y-76327000D01*
X93345000Y-76327000D02*
X93027500Y-76327000D01*
X93027500Y-76327000D02*
X92870020Y-76484480D01*
X93345000Y-76327000D02*
X93662500Y-76327000D01*
X93662500Y-76327000D02*
X93819980Y-76169520D01*
X93345000Y-76327000D02*
X93345000Y-75217020D01*
G04 #@! TO.C,D2*
X102743000Y-76327000D02*
X102743000Y-75217020D01*
X103060500Y-76327000D02*
X103217980Y-76169520D01*
X102743000Y-76327000D02*
X103060500Y-76327000D01*
X102425500Y-76327000D02*
X102268020Y-76484480D01*
X102743000Y-76327000D02*
X102425500Y-76327000D01*
X103217980Y-76962000D02*
X102743000Y-76327000D01*
X102743000Y-76962000D02*
X103217980Y-76962000D01*
X102268020Y-76962000D02*
X102743000Y-76962000D01*
X102743000Y-76327000D02*
X102268020Y-76962000D01*
X101473000Y-78486000D02*
X100838000Y-78486000D01*
X104648000Y-73914000D02*
X104013000Y-73914000D01*
X104648000Y-78486000D02*
X104648000Y-73914000D01*
X104013000Y-78486000D02*
X104648000Y-78486000D01*
X104648000Y-75209400D02*
X100838000Y-75209400D01*
X104648000Y-75539600D02*
X100838000Y-75539600D01*
X100838000Y-73914000D02*
X101473000Y-73914000D01*
X100838000Y-78486000D02*
X100838000Y-73914000D01*
X102743000Y-76962000D02*
X102743000Y-77165200D01*
G04 #@! TO.C,D4*
X98171000Y-76962000D02*
X98171000Y-77165200D01*
X96266000Y-78486000D02*
X96266000Y-73914000D01*
X96266000Y-73914000D02*
X96901000Y-73914000D01*
X100076000Y-75539600D02*
X96266000Y-75539600D01*
X100076000Y-75209400D02*
X96266000Y-75209400D01*
X99441000Y-78486000D02*
X100076000Y-78486000D01*
X100076000Y-78486000D02*
X100076000Y-73914000D01*
X100076000Y-73914000D02*
X99441000Y-73914000D01*
X96901000Y-78486000D02*
X96266000Y-78486000D01*
X98171000Y-76327000D02*
X97696020Y-76962000D01*
X97696020Y-76962000D02*
X98171000Y-76962000D01*
X98171000Y-76962000D02*
X98645980Y-76962000D01*
X98645980Y-76962000D02*
X98171000Y-76327000D01*
X98171000Y-76327000D02*
X97853500Y-76327000D01*
X97853500Y-76327000D02*
X97696020Y-76484480D01*
X98171000Y-76327000D02*
X98488500Y-76327000D01*
X98488500Y-76327000D02*
X98645980Y-76169520D01*
X98171000Y-76327000D02*
X98171000Y-75217020D01*
D14*
G04 #@! TO.C,J10*
X102362000Y-84836000D02*
X102362000Y-82042000D01*
X93218000Y-82042000D02*
X93218000Y-84836000D01*
X93218000Y-84836000D02*
X102362000Y-84836000D01*
X101600000Y-82042000D02*
X100838000Y-82042000D01*
X99822000Y-82042000D02*
X99314000Y-82042000D01*
X98806000Y-82042000D02*
X98044000Y-82042000D01*
X97028000Y-82042000D02*
X96520000Y-82042000D01*
X95758000Y-82042000D02*
X95250000Y-82042000D01*
X94488000Y-82042000D02*
X93726000Y-82042000D01*
D12*
G04 #@! TO.C,R1*
X80243000Y-54323064D02*
X80243000Y-53118936D01*
X82063000Y-54323064D02*
X82063000Y-53118936D01*
G04 #@! TO.C,J3*
X78053000Y-45220000D02*
X84213000Y-45220000D01*
X84213000Y-45220000D02*
X84213000Y-36540000D01*
X84213000Y-36540000D02*
X78053000Y-36540000D01*
X78053000Y-36540000D02*
X78053000Y-45220000D01*
X80033000Y-45220000D02*
X79733000Y-45220000D01*
X79733000Y-45220000D02*
X79733000Y-45920000D01*
X79733000Y-45920000D02*
X80033000Y-45920000D01*
X80033000Y-45920000D02*
X80033000Y-45220000D01*
X82533000Y-45220000D02*
X82233000Y-45220000D01*
X82233000Y-45220000D02*
X82233000Y-45920000D01*
X82233000Y-45920000D02*
X82533000Y-45920000D01*
X82533000Y-45920000D02*
X82533000Y-45220000D01*
X78773000Y-49530000D02*
X78348736Y-49230000D01*
X78348736Y-49230000D02*
X78348736Y-49830000D01*
X78348736Y-49830000D02*
X78773000Y-49530000D01*
G04 #@! TO.C,J1*
X74235000Y-57471000D02*
X75565000Y-57471000D01*
X74235000Y-58801000D02*
X74235000Y-57471000D01*
X74235000Y-60071000D02*
X76895000Y-60071000D01*
X76895000Y-60071000D02*
X76895000Y-65211000D01*
X74235000Y-60071000D02*
X74235000Y-65211000D01*
X74235000Y-65211000D02*
X76895000Y-65211000D01*
G04 #@! TO.C,J8*
X90364000Y-39811000D02*
X90364000Y-38481000D01*
X91694000Y-39811000D02*
X90364000Y-39811000D01*
X92964000Y-39811000D02*
X92964000Y-37151000D01*
X92964000Y-37151000D02*
X98104000Y-37151000D01*
X92964000Y-39811000D02*
X98104000Y-39811000D01*
X98104000Y-39811000D02*
X98104000Y-37151000D01*
G04 #@! TO.C,R21*
X80901000Y-71155779D02*
X80901000Y-70830221D01*
X79881000Y-71155779D02*
X79881000Y-70830221D01*
G04 #@! TO.C,R22*
X83601779Y-71245000D02*
X83276221Y-71245000D01*
X83601779Y-72265000D02*
X83276221Y-72265000D01*
D14*
G04 #@! TO.C,J2*
X80772000Y-81915000D02*
X80010000Y-81915000D01*
X82042000Y-81915000D02*
X81534000Y-81915000D01*
X83312000Y-81915000D02*
X82804000Y-81915000D01*
X85090000Y-81915000D02*
X84328000Y-81915000D01*
X86106000Y-81915000D02*
X85598000Y-81915000D01*
X87884000Y-81915000D02*
X87122000Y-81915000D01*
X79502000Y-84709000D02*
X88646000Y-84709000D01*
X79502000Y-81915000D02*
X79502000Y-84709000D01*
X88646000Y-84709000D02*
X88646000Y-81915000D01*
D12*
G04 #@! TO.C,R9*
X88356221Y-61978000D02*
X88681779Y-61978000D01*
X88356221Y-60958000D02*
X88681779Y-60958000D01*
G04 #@! TO.C,R8*
X80770000Y-65877221D02*
X80770000Y-66202779D01*
X81790000Y-65877221D02*
X81790000Y-66202779D01*
D14*
G04 #@! TO.C,U1*
X76585000Y-52271000D02*
X76585000Y-55171000D01*
X76585000Y-55171000D02*
X77085000Y-55171000D01*
X77085000Y-55171000D02*
X77085000Y-52271000D01*
X77085000Y-52271000D02*
X76585000Y-52271000D01*
X76635000Y-52021000D02*
G75*
G03X76635000Y-52021000I-100000J0D01*
G01*
G04 #@! TO.C,C2*
X88368142Y-54776666D02*
X88415761Y-54824285D01*
X88463380Y-54967142D01*
X88463380Y-55062380D01*
X88415761Y-55205238D01*
X88320523Y-55300476D01*
X88225285Y-55348095D01*
X88034809Y-55395714D01*
X87891952Y-55395714D01*
X87701476Y-55348095D01*
X87606238Y-55300476D01*
X87511000Y-55205238D01*
X87463380Y-55062380D01*
X87463380Y-54967142D01*
X87511000Y-54824285D01*
X87558619Y-54776666D01*
X87558619Y-54395714D02*
X87511000Y-54348095D01*
X87463380Y-54252857D01*
X87463380Y-54014761D01*
X87511000Y-53919523D01*
X87558619Y-53871904D01*
X87653857Y-53824285D01*
X87749095Y-53824285D01*
X87891952Y-53871904D01*
X88463380Y-54443333D01*
X88463380Y-53824285D01*
G04 #@! TO.C,C1*
X99798142Y-54649666D02*
X99845761Y-54697285D01*
X99893380Y-54840142D01*
X99893380Y-54935380D01*
X99845761Y-55078238D01*
X99750523Y-55173476D01*
X99655285Y-55221095D01*
X99464809Y-55268714D01*
X99321952Y-55268714D01*
X99131476Y-55221095D01*
X99036238Y-55173476D01*
X98941000Y-55078238D01*
X98893380Y-54935380D01*
X98893380Y-54840142D01*
X98941000Y-54697285D01*
X98988619Y-54649666D01*
X99893380Y-53697285D02*
X99893380Y-54268714D01*
X99893380Y-53983000D02*
X98893380Y-53983000D01*
X99036238Y-54078238D01*
X99131476Y-54173476D01*
X99179095Y-54268714D01*
G04 #@! TO.C,J11*
X107521476Y-71588380D02*
X107521476Y-72302666D01*
X107473857Y-72445523D01*
X107378619Y-72540761D01*
X107235761Y-72588380D01*
X107140523Y-72588380D01*
X108521476Y-72588380D02*
X107950047Y-72588380D01*
X108235761Y-72588380D02*
X108235761Y-71588380D01*
X108140523Y-71731238D01*
X108045285Y-71826476D01*
X107950047Y-71874095D01*
X109473857Y-72588380D02*
X108902428Y-72588380D01*
X109188142Y-72588380D02*
X109188142Y-71588380D01*
X109092904Y-71731238D01*
X108997666Y-71826476D01*
X108902428Y-71874095D01*
G04 #@! TO.C,J9*
X75104666Y-67353380D02*
X75104666Y-68067666D01*
X75057047Y-68210523D01*
X74961809Y-68305761D01*
X74818952Y-68353380D01*
X74723714Y-68353380D01*
X75628476Y-68353380D02*
X75818952Y-68353380D01*
X75914190Y-68305761D01*
X75961809Y-68258142D01*
X76057047Y-68115285D01*
X76104666Y-67924809D01*
X76104666Y-67543857D01*
X76057047Y-67448619D01*
X76009428Y-67401000D01*
X75914190Y-67353380D01*
X75723714Y-67353380D01*
X75628476Y-67401000D01*
X75580857Y-67448619D01*
X75533238Y-67543857D01*
X75533238Y-67781952D01*
X75580857Y-67877190D01*
X75628476Y-67924809D01*
X75723714Y-67972428D01*
X75914190Y-67972428D01*
X76009428Y-67924809D01*
X76057047Y-67877190D01*
X76104666Y-67781952D01*
G04 #@! TO.C,D3*
X86637904Y-67476380D02*
X86637904Y-66476380D01*
X86876000Y-66476380D01*
X87018857Y-66524000D01*
X87114095Y-66619238D01*
X87161714Y-66714476D01*
X87209333Y-66904952D01*
X87209333Y-67047809D01*
X87161714Y-67238285D01*
X87114095Y-67333523D01*
X87018857Y-67428761D01*
X86876000Y-67476380D01*
X86637904Y-67476380D01*
X87542666Y-66476380D02*
X88161714Y-66476380D01*
X87828380Y-66857333D01*
X87971238Y-66857333D01*
X88066476Y-66904952D01*
X88114095Y-66952571D01*
X88161714Y-67047809D01*
X88161714Y-67285904D01*
X88114095Y-67381142D01*
X88066476Y-67428761D01*
X87971238Y-67476380D01*
X87685523Y-67476380D01*
X87590285Y-67428761D01*
X87542666Y-67381142D01*
G04 #@! TO.C,Q2*
X95916761Y-65461619D02*
X95821523Y-65414000D01*
X95726285Y-65318761D01*
X95583428Y-65175904D01*
X95488190Y-65128285D01*
X95392952Y-65128285D01*
X95440571Y-65366380D02*
X95345333Y-65318761D01*
X95250095Y-65223523D01*
X95202476Y-65033047D01*
X95202476Y-64699714D01*
X95250095Y-64509238D01*
X95345333Y-64414000D01*
X95440571Y-64366380D01*
X95631047Y-64366380D01*
X95726285Y-64414000D01*
X95821523Y-64509238D01*
X95869142Y-64699714D01*
X95869142Y-65033047D01*
X95821523Y-65223523D01*
X95726285Y-65318761D01*
X95631047Y-65366380D01*
X95440571Y-65366380D01*
X96250095Y-64461619D02*
X96297714Y-64414000D01*
X96392952Y-64366380D01*
X96631047Y-64366380D01*
X96726285Y-64414000D01*
X96773904Y-64461619D01*
X96821523Y-64556857D01*
X96821523Y-64652095D01*
X96773904Y-64794952D01*
X96202476Y-65366380D01*
X96821523Y-65366380D01*
G04 #@! TO.C,Q1*
X107972619Y-60293238D02*
X107925000Y-60388476D01*
X107829761Y-60483714D01*
X107686904Y-60626571D01*
X107639285Y-60721809D01*
X107639285Y-60817047D01*
X107877380Y-60769428D02*
X107829761Y-60864666D01*
X107734523Y-60959904D01*
X107544047Y-61007523D01*
X107210714Y-61007523D01*
X107020238Y-60959904D01*
X106925000Y-60864666D01*
X106877380Y-60769428D01*
X106877380Y-60578952D01*
X106925000Y-60483714D01*
X107020238Y-60388476D01*
X107210714Y-60340857D01*
X107544047Y-60340857D01*
X107734523Y-60388476D01*
X107829761Y-60483714D01*
X107877380Y-60578952D01*
X107877380Y-60769428D01*
X107877380Y-59388476D02*
X107877380Y-59959904D01*
X107877380Y-59674190D02*
X106877380Y-59674190D01*
X107020238Y-59769428D01*
X107115476Y-59864666D01*
X107163095Y-59959904D01*
G04 #@! TO.C,Q5*
X82454761Y-59769619D02*
X82359523Y-59722000D01*
X82264285Y-59626761D01*
X82121428Y-59483904D01*
X82026190Y-59436285D01*
X81930952Y-59436285D01*
X81978571Y-59674380D02*
X81883333Y-59626761D01*
X81788095Y-59531523D01*
X81740476Y-59341047D01*
X81740476Y-59007714D01*
X81788095Y-58817238D01*
X81883333Y-58722000D01*
X81978571Y-58674380D01*
X82169047Y-58674380D01*
X82264285Y-58722000D01*
X82359523Y-58817238D01*
X82407142Y-59007714D01*
X82407142Y-59341047D01*
X82359523Y-59531523D01*
X82264285Y-59626761D01*
X82169047Y-59674380D01*
X81978571Y-59674380D01*
X83311904Y-58674380D02*
X82835714Y-58674380D01*
X82788095Y-59150571D01*
X82835714Y-59102952D01*
X82930952Y-59055333D01*
X83169047Y-59055333D01*
X83264285Y-59102952D01*
X83311904Y-59150571D01*
X83359523Y-59245809D01*
X83359523Y-59483904D01*
X83311904Y-59579142D01*
X83264285Y-59626761D01*
X83169047Y-59674380D01*
X82930952Y-59674380D01*
X82835714Y-59626761D01*
X82788095Y-59579142D01*
G04 #@! TO.C,Q4*
X86693619Y-58388238D02*
X86646000Y-58483476D01*
X86550761Y-58578714D01*
X86407904Y-58721571D01*
X86360285Y-58816809D01*
X86360285Y-58912047D01*
X86598380Y-58864428D02*
X86550761Y-58959666D01*
X86455523Y-59054904D01*
X86265047Y-59102523D01*
X85931714Y-59102523D01*
X85741238Y-59054904D01*
X85646000Y-58959666D01*
X85598380Y-58864428D01*
X85598380Y-58673952D01*
X85646000Y-58578714D01*
X85741238Y-58483476D01*
X85931714Y-58435857D01*
X86265047Y-58435857D01*
X86455523Y-58483476D01*
X86550761Y-58578714D01*
X86598380Y-58673952D01*
X86598380Y-58864428D01*
X85931714Y-57578714D02*
X86598380Y-57578714D01*
X85550761Y-57816809D02*
X86265047Y-58054904D01*
X86265047Y-57435857D01*
G04 #@! TO.C,Q3*
X93551619Y-60420238D02*
X93504000Y-60515476D01*
X93408761Y-60610714D01*
X93265904Y-60753571D01*
X93218285Y-60848809D01*
X93218285Y-60944047D01*
X93456380Y-60896428D02*
X93408761Y-60991666D01*
X93313523Y-61086904D01*
X93123047Y-61134523D01*
X92789714Y-61134523D01*
X92599238Y-61086904D01*
X92504000Y-60991666D01*
X92456380Y-60896428D01*
X92456380Y-60705952D01*
X92504000Y-60610714D01*
X92599238Y-60515476D01*
X92789714Y-60467857D01*
X93123047Y-60467857D01*
X93313523Y-60515476D01*
X93408761Y-60610714D01*
X93456380Y-60705952D01*
X93456380Y-60896428D01*
X92456380Y-60134523D02*
X92456380Y-59515476D01*
X92837333Y-59848809D01*
X92837333Y-59705952D01*
X92884952Y-59610714D01*
X92932571Y-59563095D01*
X93027809Y-59515476D01*
X93265904Y-59515476D01*
X93361142Y-59563095D01*
X93408761Y-59610714D01*
X93456380Y-59705952D01*
X93456380Y-59991666D01*
X93408761Y-60086904D01*
X93361142Y-60134523D01*
G04 #@! TO.C,R2*
X91384380Y-70143666D02*
X90908190Y-70477000D01*
X91384380Y-70715095D02*
X90384380Y-70715095D01*
X90384380Y-70334142D01*
X90432000Y-70238904D01*
X90479619Y-70191285D01*
X90574857Y-70143666D01*
X90717714Y-70143666D01*
X90812952Y-70191285D01*
X90860571Y-70238904D01*
X90908190Y-70334142D01*
X90908190Y-70715095D01*
X90479619Y-69762714D02*
X90432000Y-69715095D01*
X90384380Y-69619857D01*
X90384380Y-69381761D01*
X90432000Y-69286523D01*
X90479619Y-69238904D01*
X90574857Y-69191285D01*
X90670095Y-69191285D01*
X90812952Y-69238904D01*
X91384380Y-69810333D01*
X91384380Y-69191285D01*
G04 #@! TO.C,R3*
X99909333Y-58966380D02*
X99576000Y-58490190D01*
X99337904Y-58966380D02*
X99337904Y-57966380D01*
X99718857Y-57966380D01*
X99814095Y-58014000D01*
X99861714Y-58061619D01*
X99909333Y-58156857D01*
X99909333Y-58299714D01*
X99861714Y-58394952D01*
X99814095Y-58442571D01*
X99718857Y-58490190D01*
X99337904Y-58490190D01*
X100242666Y-57966380D02*
X100861714Y-57966380D01*
X100528380Y-58347333D01*
X100671238Y-58347333D01*
X100766476Y-58394952D01*
X100814095Y-58442571D01*
X100861714Y-58537809D01*
X100861714Y-58775904D01*
X100814095Y-58871142D01*
X100766476Y-58918761D01*
X100671238Y-58966380D01*
X100385523Y-58966380D01*
X100290285Y-58918761D01*
X100242666Y-58871142D01*
G04 #@! TO.C,R6*
X97115333Y-57348380D02*
X96782000Y-56872190D01*
X96543904Y-57348380D02*
X96543904Y-56348380D01*
X96924857Y-56348380D01*
X97020095Y-56396000D01*
X97067714Y-56443619D01*
X97115333Y-56538857D01*
X97115333Y-56681714D01*
X97067714Y-56776952D01*
X97020095Y-56824571D01*
X96924857Y-56872190D01*
X96543904Y-56872190D01*
X97972476Y-56348380D02*
X97782000Y-56348380D01*
X97686761Y-56396000D01*
X97639142Y-56443619D01*
X97543904Y-56586476D01*
X97496285Y-56776952D01*
X97496285Y-57157904D01*
X97543904Y-57253142D01*
X97591523Y-57300761D01*
X97686761Y-57348380D01*
X97877238Y-57348380D01*
X97972476Y-57300761D01*
X98020095Y-57253142D01*
X98067714Y-57157904D01*
X98067714Y-56919809D01*
X98020095Y-56824571D01*
X97972476Y-56776952D01*
X97877238Y-56729333D01*
X97686761Y-56729333D01*
X97591523Y-56776952D01*
X97543904Y-56824571D01*
X97496285Y-56919809D01*
G04 #@! TO.C,R4*
X91511380Y-66968666D02*
X91035190Y-67302000D01*
X91511380Y-67540095D02*
X90511380Y-67540095D01*
X90511380Y-67159142D01*
X90559000Y-67063904D01*
X90606619Y-67016285D01*
X90701857Y-66968666D01*
X90844714Y-66968666D01*
X90939952Y-67016285D01*
X90987571Y-67063904D01*
X91035190Y-67159142D01*
X91035190Y-67540095D01*
X90844714Y-66111523D02*
X91511380Y-66111523D01*
X90463761Y-66349619D02*
X91178047Y-66587714D01*
X91178047Y-65968666D01*
G04 #@! TO.C,R7*
X96676380Y-43730666D02*
X96200190Y-44064000D01*
X96676380Y-44302095D02*
X95676380Y-44302095D01*
X95676380Y-43921142D01*
X95724000Y-43825904D01*
X95771619Y-43778285D01*
X95866857Y-43730666D01*
X96009714Y-43730666D01*
X96104952Y-43778285D01*
X96152571Y-43825904D01*
X96200190Y-43921142D01*
X96200190Y-44302095D01*
X95676380Y-43397333D02*
X95676380Y-42730666D01*
X96676380Y-43159238D01*
G04 #@! TO.C,D1*
D15*
X90930427Y-76370421D02*
X90630707Y-76370421D01*
X90630707Y-76299060D01*
X90644980Y-76256242D01*
X90673524Y-76227698D01*
X90702069Y-76213425D01*
X90759159Y-76199153D01*
X90801976Y-76199153D01*
X90859065Y-76213425D01*
X90887610Y-76227698D01*
X90916155Y-76256242D01*
X90930427Y-76299060D01*
X90930427Y-76370421D01*
X90930427Y-75913705D02*
X90930427Y-76084974D01*
X90930427Y-75999340D02*
X90630707Y-75999340D01*
X90673524Y-76027884D01*
X90702069Y-76056429D01*
X90716341Y-76084974D01*
D16*
D15*
X95015715Y-77305262D02*
X95029987Y-77262445D01*
X95029987Y-77191083D01*
X95015715Y-77162539D01*
X95001442Y-77148266D01*
X94972898Y-77133994D01*
X94944353Y-77133994D01*
X94915808Y-77148266D01*
X94901536Y-77162539D01*
X94887263Y-77191083D01*
X94872991Y-77248173D01*
X94858719Y-77276718D01*
X94844446Y-77290990D01*
X94815901Y-77305262D01*
X94787357Y-77305262D01*
X94758812Y-77290990D01*
X94744540Y-77276718D01*
X94730267Y-77248173D01*
X94730267Y-77176811D01*
X94744540Y-77133994D01*
X95029987Y-77005542D02*
X94730267Y-77005542D01*
X94944353Y-76905636D01*
X94730267Y-76805729D01*
X95029987Y-76805729D01*
X94872991Y-76563099D02*
X94887263Y-76520281D01*
X94901536Y-76506009D01*
X94930080Y-76491737D01*
X94972898Y-76491737D01*
X95001442Y-76506009D01*
X95015715Y-76520281D01*
X95029987Y-76548826D01*
X95029987Y-76663005D01*
X94730267Y-76663005D01*
X94730267Y-76563099D01*
X94744540Y-76534554D01*
X94758812Y-76520281D01*
X94787357Y-76506009D01*
X94815901Y-76506009D01*
X94844446Y-76520281D01*
X94858719Y-76534554D01*
X94872991Y-76563099D01*
X94872991Y-76663005D01*
X94730267Y-76277651D02*
X94944353Y-76277651D01*
X94987170Y-76291923D01*
X95015715Y-76320468D01*
X95029987Y-76363285D01*
X95029987Y-76391830D01*
X94730267Y-75992203D02*
X94730267Y-76134927D01*
X94872991Y-76149200D01*
X94858719Y-76134927D01*
X94844446Y-76106382D01*
X94844446Y-76035020D01*
X94858719Y-76006476D01*
X94872991Y-75992203D01*
X94901536Y-75977931D01*
X94972898Y-75977931D01*
X95001442Y-75992203D01*
X95015715Y-76006476D01*
X95029987Y-76035020D01*
X95029987Y-76106382D01*
X95015715Y-76134927D01*
X95001442Y-76149200D01*
X95001442Y-75849480D02*
X95015715Y-75835207D01*
X95029987Y-75849480D01*
X95015715Y-75863752D01*
X95001442Y-75849480D01*
X95029987Y-75849480D01*
X94730267Y-75649666D02*
X94730267Y-75621121D01*
X94744540Y-75592577D01*
X94758812Y-75578304D01*
X94787357Y-75564032D01*
X94844446Y-75549760D01*
X94915808Y-75549760D01*
X94972898Y-75564032D01*
X95001442Y-75578304D01*
X95015715Y-75592577D01*
X95029987Y-75621121D01*
X95029987Y-75649666D01*
X95015715Y-75678211D01*
X95001442Y-75692483D01*
X94972898Y-75706756D01*
X94915808Y-75721028D01*
X94844446Y-75721028D01*
X94787357Y-75706756D01*
X94758812Y-75692483D01*
X94744540Y-75678211D01*
X94730267Y-75649666D01*
X95001442Y-75250040D02*
X95015715Y-75264312D01*
X95029987Y-75307129D01*
X95029987Y-75335674D01*
X95015715Y-75378491D01*
X94987170Y-75407036D01*
X94958625Y-75421308D01*
X94901536Y-75435580D01*
X94858719Y-75435580D01*
X94801629Y-75421308D01*
X94773084Y-75407036D01*
X94744540Y-75378491D01*
X94730267Y-75335674D01*
X94730267Y-75307129D01*
X94744540Y-75264312D01*
X94758812Y-75250040D01*
X94944353Y-75135860D02*
X94944353Y-74993137D01*
X95029987Y-75164405D02*
X94730267Y-75064499D01*
X95029987Y-74964592D01*
D16*
G04 #@! TO.C,D2*
D15*
X100328427Y-76370421D02*
X100028707Y-76370421D01*
X100028707Y-76299060D01*
X100042980Y-76256242D01*
X100071524Y-76227698D01*
X100100069Y-76213425D01*
X100157159Y-76199153D01*
X100199976Y-76199153D01*
X100257065Y-76213425D01*
X100285610Y-76227698D01*
X100314155Y-76256242D01*
X100328427Y-76299060D01*
X100328427Y-76370421D01*
X100057252Y-76084974D02*
X100042980Y-76070701D01*
X100028707Y-76042157D01*
X100028707Y-75970795D01*
X100042980Y-75942250D01*
X100057252Y-75927978D01*
X100085797Y-75913705D01*
X100114341Y-75913705D01*
X100157159Y-75927978D01*
X100328427Y-76099246D01*
X100328427Y-75913705D01*
D16*
D15*
X104413715Y-77305262D02*
X104427987Y-77262445D01*
X104427987Y-77191083D01*
X104413715Y-77162539D01*
X104399442Y-77148266D01*
X104370898Y-77133994D01*
X104342353Y-77133994D01*
X104313808Y-77148266D01*
X104299536Y-77162539D01*
X104285263Y-77191083D01*
X104270991Y-77248173D01*
X104256719Y-77276718D01*
X104242446Y-77290990D01*
X104213901Y-77305262D01*
X104185357Y-77305262D01*
X104156812Y-77290990D01*
X104142540Y-77276718D01*
X104128267Y-77248173D01*
X104128267Y-77176811D01*
X104142540Y-77133994D01*
X104427987Y-77005542D02*
X104128267Y-77005542D01*
X104342353Y-76905636D01*
X104128267Y-76805729D01*
X104427987Y-76805729D01*
X104270991Y-76563099D02*
X104285263Y-76520281D01*
X104299536Y-76506009D01*
X104328080Y-76491737D01*
X104370898Y-76491737D01*
X104399442Y-76506009D01*
X104413715Y-76520281D01*
X104427987Y-76548826D01*
X104427987Y-76663005D01*
X104128267Y-76663005D01*
X104128267Y-76563099D01*
X104142540Y-76534554D01*
X104156812Y-76520281D01*
X104185357Y-76506009D01*
X104213901Y-76506009D01*
X104242446Y-76520281D01*
X104256719Y-76534554D01*
X104270991Y-76563099D01*
X104270991Y-76663005D01*
X104128267Y-76277651D02*
X104342353Y-76277651D01*
X104385170Y-76291923D01*
X104413715Y-76320468D01*
X104427987Y-76363285D01*
X104427987Y-76391830D01*
X104128267Y-75992203D02*
X104128267Y-76134927D01*
X104270991Y-76149200D01*
X104256719Y-76134927D01*
X104242446Y-76106382D01*
X104242446Y-76035020D01*
X104256719Y-76006476D01*
X104270991Y-75992203D01*
X104299536Y-75977931D01*
X104370898Y-75977931D01*
X104399442Y-75992203D01*
X104413715Y-76006476D01*
X104427987Y-76035020D01*
X104427987Y-76106382D01*
X104413715Y-76134927D01*
X104399442Y-76149200D01*
X104399442Y-75849480D02*
X104413715Y-75835207D01*
X104427987Y-75849480D01*
X104413715Y-75863752D01*
X104399442Y-75849480D01*
X104427987Y-75849480D01*
X104128267Y-75649666D02*
X104128267Y-75621121D01*
X104142540Y-75592577D01*
X104156812Y-75578304D01*
X104185357Y-75564032D01*
X104242446Y-75549760D01*
X104313808Y-75549760D01*
X104370898Y-75564032D01*
X104399442Y-75578304D01*
X104413715Y-75592577D01*
X104427987Y-75621121D01*
X104427987Y-75649666D01*
X104413715Y-75678211D01*
X104399442Y-75692483D01*
X104370898Y-75706756D01*
X104313808Y-75721028D01*
X104242446Y-75721028D01*
X104185357Y-75706756D01*
X104156812Y-75692483D01*
X104142540Y-75678211D01*
X104128267Y-75649666D01*
X104399442Y-75250040D02*
X104413715Y-75264312D01*
X104427987Y-75307129D01*
X104427987Y-75335674D01*
X104413715Y-75378491D01*
X104385170Y-75407036D01*
X104356625Y-75421308D01*
X104299536Y-75435580D01*
X104256719Y-75435580D01*
X104199629Y-75421308D01*
X104171084Y-75407036D01*
X104142540Y-75378491D01*
X104128267Y-75335674D01*
X104128267Y-75307129D01*
X104142540Y-75264312D01*
X104156812Y-75250040D01*
X104342353Y-75135860D02*
X104342353Y-74993137D01*
X104427987Y-75164405D02*
X104128267Y-75064499D01*
X104427987Y-74964592D01*
D16*
G04 #@! TO.C,D4*
D15*
X95756427Y-76370421D02*
X95456707Y-76370421D01*
X95456707Y-76299060D01*
X95470980Y-76256242D01*
X95499524Y-76227698D01*
X95528069Y-76213425D01*
X95585159Y-76199153D01*
X95627976Y-76199153D01*
X95685065Y-76213425D01*
X95713610Y-76227698D01*
X95742155Y-76256242D01*
X95756427Y-76299060D01*
X95756427Y-76370421D01*
X95556614Y-75942250D02*
X95756427Y-75942250D01*
X95442435Y-76013612D02*
X95656520Y-76084974D01*
X95656520Y-75899433D01*
D16*
D15*
X99841715Y-77305262D02*
X99855987Y-77262445D01*
X99855987Y-77191083D01*
X99841715Y-77162539D01*
X99827442Y-77148266D01*
X99798898Y-77133994D01*
X99770353Y-77133994D01*
X99741808Y-77148266D01*
X99727536Y-77162539D01*
X99713263Y-77191083D01*
X99698991Y-77248173D01*
X99684719Y-77276718D01*
X99670446Y-77290990D01*
X99641901Y-77305262D01*
X99613357Y-77305262D01*
X99584812Y-77290990D01*
X99570540Y-77276718D01*
X99556267Y-77248173D01*
X99556267Y-77176811D01*
X99570540Y-77133994D01*
X99855987Y-77005542D02*
X99556267Y-77005542D01*
X99770353Y-76905636D01*
X99556267Y-76805729D01*
X99855987Y-76805729D01*
X99698991Y-76563099D02*
X99713263Y-76520281D01*
X99727536Y-76506009D01*
X99756080Y-76491737D01*
X99798898Y-76491737D01*
X99827442Y-76506009D01*
X99841715Y-76520281D01*
X99855987Y-76548826D01*
X99855987Y-76663005D01*
X99556267Y-76663005D01*
X99556267Y-76563099D01*
X99570540Y-76534554D01*
X99584812Y-76520281D01*
X99613357Y-76506009D01*
X99641901Y-76506009D01*
X99670446Y-76520281D01*
X99684719Y-76534554D01*
X99698991Y-76563099D01*
X99698991Y-76663005D01*
X99556267Y-76277651D02*
X99770353Y-76277651D01*
X99813170Y-76291923D01*
X99841715Y-76320468D01*
X99855987Y-76363285D01*
X99855987Y-76391830D01*
X99556267Y-75992203D02*
X99556267Y-76134927D01*
X99698991Y-76149200D01*
X99684719Y-76134927D01*
X99670446Y-76106382D01*
X99670446Y-76035020D01*
X99684719Y-76006476D01*
X99698991Y-75992203D01*
X99727536Y-75977931D01*
X99798898Y-75977931D01*
X99827442Y-75992203D01*
X99841715Y-76006476D01*
X99855987Y-76035020D01*
X99855987Y-76106382D01*
X99841715Y-76134927D01*
X99827442Y-76149200D01*
X99827442Y-75849480D02*
X99841715Y-75835207D01*
X99855987Y-75849480D01*
X99841715Y-75863752D01*
X99827442Y-75849480D01*
X99855987Y-75849480D01*
X99556267Y-75649666D02*
X99556267Y-75621121D01*
X99570540Y-75592577D01*
X99584812Y-75578304D01*
X99613357Y-75564032D01*
X99670446Y-75549760D01*
X99741808Y-75549760D01*
X99798898Y-75564032D01*
X99827442Y-75578304D01*
X99841715Y-75592577D01*
X99855987Y-75621121D01*
X99855987Y-75649666D01*
X99841715Y-75678211D01*
X99827442Y-75692483D01*
X99798898Y-75706756D01*
X99741808Y-75721028D01*
X99670446Y-75721028D01*
X99613357Y-75706756D01*
X99584812Y-75692483D01*
X99570540Y-75678211D01*
X99556267Y-75649666D01*
X99827442Y-75250040D02*
X99841715Y-75264312D01*
X99855987Y-75307129D01*
X99855987Y-75335674D01*
X99841715Y-75378491D01*
X99813170Y-75407036D01*
X99784625Y-75421308D01*
X99727536Y-75435580D01*
X99684719Y-75435580D01*
X99627629Y-75421308D01*
X99599084Y-75407036D01*
X99570540Y-75378491D01*
X99556267Y-75335674D01*
X99556267Y-75307129D01*
X99570540Y-75264312D01*
X99584812Y-75250040D01*
X99770353Y-75135860D02*
X99770353Y-74993137D01*
X99855987Y-75164405D02*
X99556267Y-75064499D01*
X99855987Y-74964592D01*
D16*
G04 #@! TO.C,J10*
D17*
X97015380Y-81730904D02*
X97015380Y-82302333D01*
X96977285Y-82416619D01*
X96901095Y-82492809D01*
X96786809Y-82530904D01*
X96710619Y-82530904D01*
X97815380Y-82530904D02*
X97358238Y-82530904D01*
X97586809Y-82530904D02*
X97586809Y-81730904D01*
X97510619Y-81845190D01*
X97434428Y-81921380D01*
X97358238Y-81959476D01*
X98310619Y-81730904D02*
X98386809Y-81730904D01*
X98463000Y-81769000D01*
X98501095Y-81807095D01*
X98539190Y-81883285D01*
X98577285Y-82035666D01*
X98577285Y-82226142D01*
X98539190Y-82378523D01*
X98501095Y-82454714D01*
X98463000Y-82492809D01*
X98386809Y-82530904D01*
X98310619Y-82530904D01*
X98234428Y-82492809D01*
X98196333Y-82454714D01*
X98158238Y-82378523D01*
X98120142Y-82226142D01*
X98120142Y-82035666D01*
X98158238Y-81883285D01*
X98196333Y-81807095D01*
X98234428Y-81769000D01*
X98310619Y-81730904D01*
G04 #@! TO.C,R1*
D14*
X84018380Y-53125666D02*
X83542190Y-53459000D01*
X84018380Y-53697095D02*
X83018380Y-53697095D01*
X83018380Y-53316142D01*
X83066000Y-53220904D01*
X83113619Y-53173285D01*
X83208857Y-53125666D01*
X83351714Y-53125666D01*
X83446952Y-53173285D01*
X83494571Y-53220904D01*
X83542190Y-53316142D01*
X83542190Y-53697095D01*
X84018380Y-52173285D02*
X84018380Y-52744714D01*
X84018380Y-52459000D02*
X83018380Y-52459000D01*
X83161238Y-52554238D01*
X83256476Y-52649476D01*
X83304095Y-52744714D01*
G04 #@! TO.C,J3*
X76415380Y-41213333D02*
X77129666Y-41213333D01*
X77272523Y-41260952D01*
X77367761Y-41356190D01*
X77415380Y-41499047D01*
X77415380Y-41594285D01*
X76415380Y-40832380D02*
X76415380Y-40213333D01*
X76796333Y-40546666D01*
X76796333Y-40403809D01*
X76843952Y-40308571D01*
X76891571Y-40260952D01*
X76986809Y-40213333D01*
X77224904Y-40213333D01*
X77320142Y-40260952D01*
X77367761Y-40308571D01*
X77415380Y-40403809D01*
X77415380Y-40689523D01*
X77367761Y-40784761D01*
X77320142Y-40832380D01*
G04 #@! TO.C,J4*
X107666666Y-82952380D02*
X107666666Y-83666666D01*
X107619047Y-83809523D01*
X107523809Y-83904761D01*
X107380952Y-83952380D01*
X107285714Y-83952380D01*
X108571428Y-83285714D02*
X108571428Y-83952380D01*
X108333333Y-82904761D02*
X108095238Y-83619047D01*
X108714285Y-83619047D01*
G04 #@! TO.C,J1*
X75231666Y-55923380D02*
X75231666Y-56637666D01*
X75184047Y-56780523D01*
X75088809Y-56875761D01*
X74945952Y-56923380D01*
X74850714Y-56923380D01*
X76231666Y-56923380D02*
X75660238Y-56923380D01*
X75945952Y-56923380D02*
X75945952Y-55923380D01*
X75850714Y-56066238D01*
X75755476Y-56161476D01*
X75660238Y-56209095D01*
G04 #@! TO.C,J8*
X98536380Y-39392333D02*
X99250666Y-39392333D01*
X99393523Y-39439952D01*
X99488761Y-39535190D01*
X99536380Y-39678047D01*
X99536380Y-39773285D01*
X98964952Y-38773285D02*
X98917333Y-38868523D01*
X98869714Y-38916142D01*
X98774476Y-38963761D01*
X98726857Y-38963761D01*
X98631619Y-38916142D01*
X98584000Y-38868523D01*
X98536380Y-38773285D01*
X98536380Y-38582809D01*
X98584000Y-38487571D01*
X98631619Y-38439952D01*
X98726857Y-38392333D01*
X98774476Y-38392333D01*
X98869714Y-38439952D01*
X98917333Y-38487571D01*
X98964952Y-38582809D01*
X98964952Y-38773285D01*
X99012571Y-38868523D01*
X99060190Y-38916142D01*
X99155428Y-38963761D01*
X99345904Y-38963761D01*
X99441142Y-38916142D01*
X99488761Y-38868523D01*
X99536380Y-38773285D01*
X99536380Y-38582809D01*
X99488761Y-38487571D01*
X99441142Y-38439952D01*
X99345904Y-38392333D01*
X99155428Y-38392333D01*
X99060190Y-38439952D01*
X99012571Y-38487571D01*
X98964952Y-38582809D01*
G04 #@! TO.C,R21*
X79319380Y-71356357D02*
X78843190Y-71689690D01*
X79319380Y-71927785D02*
X78319380Y-71927785D01*
X78319380Y-71546833D01*
X78367000Y-71451595D01*
X78414619Y-71403976D01*
X78509857Y-71356357D01*
X78652714Y-71356357D01*
X78747952Y-71403976D01*
X78795571Y-71451595D01*
X78843190Y-71546833D01*
X78843190Y-71927785D01*
X78414619Y-70975404D02*
X78367000Y-70927785D01*
X78319380Y-70832547D01*
X78319380Y-70594452D01*
X78367000Y-70499214D01*
X78414619Y-70451595D01*
X78509857Y-70403976D01*
X78605095Y-70403976D01*
X78747952Y-70451595D01*
X79319380Y-71023023D01*
X79319380Y-70403976D01*
X79319380Y-69451595D02*
X79319380Y-70023023D01*
X79319380Y-69737309D02*
X78319380Y-69737309D01*
X78462238Y-69832547D01*
X78557476Y-69927785D01*
X78605095Y-70023023D01*
G04 #@! TO.C,R22*
X82796142Y-73637380D02*
X82462809Y-73161190D01*
X82224714Y-73637380D02*
X82224714Y-72637380D01*
X82605666Y-72637380D01*
X82700904Y-72685000D01*
X82748523Y-72732619D01*
X82796142Y-72827857D01*
X82796142Y-72970714D01*
X82748523Y-73065952D01*
X82700904Y-73113571D01*
X82605666Y-73161190D01*
X82224714Y-73161190D01*
X83177095Y-72732619D02*
X83224714Y-72685000D01*
X83319952Y-72637380D01*
X83558047Y-72637380D01*
X83653285Y-72685000D01*
X83700904Y-72732619D01*
X83748523Y-72827857D01*
X83748523Y-72923095D01*
X83700904Y-73065952D01*
X83129476Y-73637380D01*
X83748523Y-73637380D01*
X84129476Y-72732619D02*
X84177095Y-72685000D01*
X84272333Y-72637380D01*
X84510428Y-72637380D01*
X84605666Y-72685000D01*
X84653285Y-72732619D01*
X84700904Y-72827857D01*
X84700904Y-72923095D01*
X84653285Y-73065952D01*
X84081857Y-73637380D01*
X84700904Y-73637380D01*
G04 #@! TO.C,J5*
X107666666Y-37952380D02*
X107666666Y-38666666D01*
X107619047Y-38809523D01*
X107523809Y-38904761D01*
X107380952Y-38952380D01*
X107285714Y-38952380D01*
X108619047Y-37952380D02*
X108142857Y-37952380D01*
X108095238Y-38428571D01*
X108142857Y-38380952D01*
X108238095Y-38333333D01*
X108476190Y-38333333D01*
X108571428Y-38380952D01*
X108619047Y-38428571D01*
X108666666Y-38523809D01*
X108666666Y-38761904D01*
X108619047Y-38857142D01*
X108571428Y-38904761D01*
X108476190Y-38952380D01*
X108238095Y-38952380D01*
X108142857Y-38904761D01*
X108095238Y-38857142D01*
G04 #@! TO.C,J6*
X74666666Y-82952380D02*
X74666666Y-83666666D01*
X74619047Y-83809523D01*
X74523809Y-83904761D01*
X74380952Y-83952380D01*
X74285714Y-83952380D01*
X75571428Y-82952380D02*
X75380952Y-82952380D01*
X75285714Y-83000000D01*
X75238095Y-83047619D01*
X75142857Y-83190476D01*
X75095238Y-83380952D01*
X75095238Y-83761904D01*
X75142857Y-83857142D01*
X75190476Y-83904761D01*
X75285714Y-83952380D01*
X75476190Y-83952380D01*
X75571428Y-83904761D01*
X75619047Y-83857142D01*
X75666666Y-83761904D01*
X75666666Y-83523809D01*
X75619047Y-83428571D01*
X75571428Y-83380952D01*
X75476190Y-83333333D01*
X75285714Y-83333333D01*
X75190476Y-83380952D01*
X75142857Y-83428571D01*
X75095238Y-83523809D01*
G04 #@! TO.C,J7*
X74666666Y-37952380D02*
X74666666Y-38666666D01*
X74619047Y-38809523D01*
X74523809Y-38904761D01*
X74380952Y-38952380D01*
X74285714Y-38952380D01*
X75047619Y-37952380D02*
X75714285Y-37952380D01*
X75285714Y-38952380D01*
G04 #@! TO.C,J2*
D17*
X83653333Y-82149190D02*
X83653333Y-82506333D01*
X83629523Y-82577761D01*
X83581904Y-82625380D01*
X83510476Y-82649190D01*
X83462857Y-82649190D01*
X83867619Y-82196809D02*
X83891428Y-82173000D01*
X83939047Y-82149190D01*
X84058095Y-82149190D01*
X84105714Y-82173000D01*
X84129523Y-82196809D01*
X84153333Y-82244428D01*
X84153333Y-82292047D01*
X84129523Y-82363476D01*
X83843809Y-82649190D01*
X84153333Y-82649190D01*
G04 #@! TO.C,R9*
D14*
X90892333Y-61920380D02*
X90559000Y-61444190D01*
X90320904Y-61920380D02*
X90320904Y-60920380D01*
X90701857Y-60920380D01*
X90797095Y-60968000D01*
X90844714Y-61015619D01*
X90892333Y-61110857D01*
X90892333Y-61253714D01*
X90844714Y-61348952D01*
X90797095Y-61396571D01*
X90701857Y-61444190D01*
X90320904Y-61444190D01*
X91368523Y-61920380D02*
X91559000Y-61920380D01*
X91654238Y-61872761D01*
X91701857Y-61825142D01*
X91797095Y-61682285D01*
X91844714Y-61491809D01*
X91844714Y-61110857D01*
X91797095Y-61015619D01*
X91749476Y-60968000D01*
X91654238Y-60920380D01*
X91463761Y-60920380D01*
X91368523Y-60968000D01*
X91320904Y-61015619D01*
X91273285Y-61110857D01*
X91273285Y-61348952D01*
X91320904Y-61444190D01*
X91368523Y-61491809D01*
X91463761Y-61539428D01*
X91654238Y-61539428D01*
X91749476Y-61491809D01*
X91797095Y-61444190D01*
X91844714Y-61348952D01*
G04 #@! TO.C,R8*
X83162380Y-66206666D02*
X82686190Y-66540000D01*
X83162380Y-66778095D02*
X82162380Y-66778095D01*
X82162380Y-66397142D01*
X82210000Y-66301904D01*
X82257619Y-66254285D01*
X82352857Y-66206666D01*
X82495714Y-66206666D01*
X82590952Y-66254285D01*
X82638571Y-66301904D01*
X82686190Y-66397142D01*
X82686190Y-66778095D01*
X82590952Y-65635238D02*
X82543333Y-65730476D01*
X82495714Y-65778095D01*
X82400476Y-65825714D01*
X82352857Y-65825714D01*
X82257619Y-65778095D01*
X82210000Y-65730476D01*
X82162380Y-65635238D01*
X82162380Y-65444761D01*
X82210000Y-65349523D01*
X82257619Y-65301904D01*
X82352857Y-65254285D01*
X82400476Y-65254285D01*
X82495714Y-65301904D01*
X82543333Y-65349523D01*
X82590952Y-65444761D01*
X82590952Y-65635238D01*
X82638571Y-65730476D01*
X82686190Y-65778095D01*
X82781428Y-65825714D01*
X82971904Y-65825714D01*
X83067142Y-65778095D01*
X83114761Y-65730476D01*
X83162380Y-65635238D01*
X83162380Y-65444761D01*
X83114761Y-65349523D01*
X83067142Y-65301904D01*
X82971904Y-65254285D01*
X82781428Y-65254285D01*
X82686190Y-65301904D01*
X82638571Y-65349523D01*
X82590952Y-65444761D01*
G04 #@! TO.C,U1*
X76023095Y-50623380D02*
X76023095Y-51432904D01*
X76070714Y-51528142D01*
X76118333Y-51575761D01*
X76213571Y-51623380D01*
X76404047Y-51623380D01*
X76499285Y-51575761D01*
X76546904Y-51528142D01*
X76594523Y-51432904D01*
X76594523Y-50623380D01*
X77594523Y-51623380D02*
X77023095Y-51623380D01*
X77308809Y-51623380D02*
X77308809Y-50623380D01*
X77213571Y-50766238D01*
X77118333Y-50861476D01*
X77023095Y-50909095D01*
G04 #@! TD*
M02*
