G04 #@! TF.GenerationSoftware,KiCad,Pcbnew,(5.0.2)-1*
G04 #@! TF.CreationDate,2019-06-25T12:01:11-07:00*
G04 #@! TF.ProjectId,powerControl,706f7765-7243-46f6-9e74-726f6c2e6b69,rev?*
G04 #@! TF.SameCoordinates,Original*
G04 #@! TF.FileFunction,Copper,L2,Bot*
G04 #@! TF.FilePolarity,Positive*
%FSLAX46Y46*%
G04 Gerber Fmt 4.6, Leading zero omitted, Abs format (unit mm)*
G04 Created by KiCad (PCBNEW (5.0.2)-1) date 6/25/2019 12:01:11 PM*
%MOMM*%
%LPD*%
G01*
G04 APERTURE LIST*
G04 #@! TA.AperFunction,ComponentPad*
%ADD10C,2.000000*%
G04 #@! TD*
G04 #@! TA.AperFunction,ComponentPad*
%ADD11R,2.000000X2.000000*%
G04 #@! TD*
G04 #@! TA.AperFunction,ComponentPad*
%ADD12C,1.417157*%
G04 #@! TD*
G04 #@! TA.AperFunction,Conductor*
%ADD13C,0.100000*%
G04 #@! TD*
G04 #@! TA.AperFunction,ComponentPad*
%ADD14C,1.700000*%
G04 #@! TD*
G04 #@! TA.AperFunction,ComponentPad*
%ADD15R,1.700000X1.700000*%
G04 #@! TD*
G04 #@! TA.AperFunction,ComponentPad*
%ADD16O,1.700000X1.700000*%
G04 #@! TD*
G04 #@! TA.AperFunction,ComponentPad*
%ADD17C,1.200000*%
G04 #@! TD*
G04 #@! TA.AperFunction,ComponentPad*
%ADD18C,3.260000*%
G04 #@! TD*
G04 #@! TA.AperFunction,ViaPad*
%ADD19C,1.000000*%
G04 #@! TD*
G04 #@! TA.AperFunction,Conductor*
%ADD20C,1.500000*%
G04 #@! TD*
G04 #@! TA.AperFunction,Conductor*
%ADD21C,1.000000*%
G04 #@! TD*
G04 #@! TA.AperFunction,Conductor*
%ADD22C,0.250000*%
G04 #@! TD*
G04 #@! TA.AperFunction,Conductor*
%ADD23C,2.000000*%
G04 #@! TD*
G04 #@! TA.AperFunction,Conductor*
%ADD24C,0.254000*%
G04 #@! TD*
G04 APERTURE END LIST*
D10*
G04 #@! TO.P,C2,2*
G04 #@! TO.N,GND*
X92964000Y-47959000D03*
D11*
G04 #@! TO.P,C2,1*
G04 #@! TO.N,V_LED*
X92964000Y-52959000D03*
G04 #@! TD*
G04 #@! TO.P,C1,1*
G04 #@! TO.N,V_LED*
X104394000Y-52705000D03*
D10*
G04 #@! TO.P,C1,2*
G04 #@! TO.N,GND*
X104394000Y-47705000D03*
G04 #@! TD*
D12*
G04 #@! TO.P,J11,1*
G04 #@! TO.N,LED+*
X104394000Y-68961000D03*
D13*
G04 #@! TD*
G04 #@! TO.N,LED+*
G04 #@! TO.C,J11*
G36*
X103745227Y-69806196D02*
X103698329Y-69791970D01*
X103655107Y-69768867D01*
X103617223Y-69737777D01*
X103586133Y-69699893D01*
X103563030Y-69656671D01*
X103548804Y-69609773D01*
X103544000Y-69561000D01*
X103544000Y-68361000D01*
X103548804Y-68312227D01*
X103563030Y-68265329D01*
X103586133Y-68222107D01*
X103617223Y-68184223D01*
X103655107Y-68153133D01*
X103698329Y-68130030D01*
X103745227Y-68115804D01*
X103794000Y-68111000D01*
X104594000Y-68111000D01*
X104642773Y-68115804D01*
X104689671Y-68130030D01*
X104732893Y-68153133D01*
X104770777Y-68184223D01*
X105170777Y-68584223D01*
X105201867Y-68622107D01*
X105224970Y-68665329D01*
X105239196Y-68712227D01*
X105244000Y-68761000D01*
X105244000Y-69561000D01*
X105239196Y-69609773D01*
X105224970Y-69656671D01*
X105201867Y-69699893D01*
X105170777Y-69737777D01*
X105132893Y-69768867D01*
X105089671Y-69791970D01*
X105042773Y-69806196D01*
X104994000Y-69811000D01*
X103794000Y-69811000D01*
X103745227Y-69806196D01*
X103745227Y-69806196D01*
G37*
D14*
G04 #@! TO.P,J11,2*
G04 #@! TO.N,LED+*
X104394000Y-66461000D03*
G04 #@! TO.P,J11,3*
G04 #@! TO.N,LED-*
X101894000Y-68961000D03*
G04 #@! TO.P,J11,4*
X101894000Y-66461000D03*
G04 #@! TD*
D15*
G04 #@! TO.P,J9,1*
G04 #@! TO.N,/Vbatt_out*
X75438000Y-70231000D03*
D16*
G04 #@! TO.P,J9,2*
X75438000Y-72771000D03*
G04 #@! TO.P,J9,3*
G04 #@! TO.N,GND*
X75438000Y-75311000D03*
G04 #@! TO.P,J9,4*
G04 #@! TO.N,/3.3V*
X75438000Y-77851000D03*
G04 #@! TD*
D17*
G04 #@! TO.P,J10,1*
G04 #@! TO.N,GND*
X101600000Y-83566000D03*
G04 #@! TO.P,J10,2*
G04 #@! TO.N,I_LED*
X100100000Y-83566000D03*
G04 #@! TO.P,J10,3*
G04 #@! TO.N,Flash*
X98600000Y-83566000D03*
G04 #@! TO.P,J10,4*
G04 #@! TO.N,Torch*
X97100000Y-83566000D03*
G04 #@! TO.P,J10,5*
G04 #@! TO.N,LED_EN*
X95600000Y-83566000D03*
G04 #@! TO.P,J10,6*
G04 #@! TO.N,LED_Sense*
X94100000Y-83566000D03*
G04 #@! TD*
D13*
G04 #@! TO.N,/Vbatt_in*
G04 #@! TO.C,J3*
G36*
X80507504Y-48681204D02*
X80531773Y-48684804D01*
X80555571Y-48690765D01*
X80578671Y-48699030D01*
X80600849Y-48709520D01*
X80621893Y-48722133D01*
X80641598Y-48736747D01*
X80659777Y-48753223D01*
X80676253Y-48771402D01*
X80690867Y-48791107D01*
X80703480Y-48812151D01*
X80713970Y-48834329D01*
X80722235Y-48857429D01*
X80728196Y-48881227D01*
X80731796Y-48905496D01*
X80733000Y-48930000D01*
X80733000Y-50130000D01*
X80731796Y-50154504D01*
X80728196Y-50178773D01*
X80722235Y-50202571D01*
X80713970Y-50225671D01*
X80703480Y-50247849D01*
X80690867Y-50268893D01*
X80676253Y-50288598D01*
X80659777Y-50306777D01*
X80641598Y-50323253D01*
X80621893Y-50337867D01*
X80600849Y-50350480D01*
X80578671Y-50360970D01*
X80555571Y-50369235D01*
X80531773Y-50375196D01*
X80507504Y-50378796D01*
X80483000Y-50380000D01*
X79283000Y-50380000D01*
X79258496Y-50378796D01*
X79234227Y-50375196D01*
X79210429Y-50369235D01*
X79187329Y-50360970D01*
X79165151Y-50350480D01*
X79144107Y-50337867D01*
X79124402Y-50323253D01*
X79106223Y-50306777D01*
X79089747Y-50288598D01*
X79075133Y-50268893D01*
X79062520Y-50247849D01*
X79052030Y-50225671D01*
X79043765Y-50202571D01*
X79037804Y-50178773D01*
X79034204Y-50154504D01*
X79033000Y-50130000D01*
X79033000Y-48930000D01*
X79034204Y-48905496D01*
X79037804Y-48881227D01*
X79043765Y-48857429D01*
X79052030Y-48834329D01*
X79062520Y-48812151D01*
X79075133Y-48791107D01*
X79089747Y-48771402D01*
X79106223Y-48753223D01*
X79124402Y-48736747D01*
X79144107Y-48722133D01*
X79165151Y-48709520D01*
X79187329Y-48699030D01*
X79210429Y-48690765D01*
X79234227Y-48684804D01*
X79258496Y-48681204D01*
X79283000Y-48680000D01*
X80483000Y-48680000D01*
X80507504Y-48681204D01*
X80507504Y-48681204D01*
G37*
D14*
G04 #@! TD*
G04 #@! TO.P,J3,1*
G04 #@! TO.N,/Vbatt_in*
X79883000Y-49530000D03*
G04 #@! TO.P,J3,2*
G04 #@! TO.N,/Vbatt_in*
X82383000Y-49530000D03*
G04 #@! TO.P,J3,3*
G04 #@! TO.N,GND*
X79883000Y-47030000D03*
G04 #@! TO.P,J3,4*
X82383000Y-47030000D03*
G04 #@! TD*
D18*
G04 #@! TO.P,J4,1*
G04 #@! TO.N,Net-(J4-Pad1)*
X108000000Y-83000000D03*
G04 #@! TD*
D16*
G04 #@! TO.P,J1,3*
G04 #@! TO.N,/5V*
X75565000Y-63881000D03*
G04 #@! TO.P,J1,2*
G04 #@! TO.N,GND*
X75565000Y-61341000D03*
D15*
G04 #@! TO.P,J1,1*
G04 #@! TO.N,/Vbatt_out*
X75565000Y-58801000D03*
G04 #@! TD*
D16*
G04 #@! TO.P,J8,3*
G04 #@! TO.N,/12V*
X96774000Y-38481000D03*
G04 #@! TO.P,J8,2*
G04 #@! TO.N,GND*
X94234000Y-38481000D03*
D15*
G04 #@! TO.P,J8,1*
G04 #@! TO.N,/Vbatt_out*
X91694000Y-38481000D03*
G04 #@! TD*
D18*
G04 #@! TO.P,J5,1*
G04 #@! TO.N,Net-(J5-Pad1)*
X108000000Y-38000000D03*
G04 #@! TD*
G04 #@! TO.P,J6,1*
G04 #@! TO.N,Net-(J6-Pad1)*
X75000000Y-83000000D03*
G04 #@! TD*
G04 #@! TO.P,J7,1*
G04 #@! TO.N,Net-(J7-Pad1)*
X75000000Y-38000000D03*
G04 #@! TD*
D17*
G04 #@! TO.P,J2,6*
G04 #@! TO.N,/5V*
X80384000Y-83439000D03*
G04 #@! TO.P,J2,5*
G04 #@! TO.N,/5V_EN*
X81884000Y-83439000D03*
G04 #@! TO.P,J2,4*
G04 #@! TO.N,/3.3V*
X83384000Y-83439000D03*
G04 #@! TO.P,J2,3*
G04 #@! TO.N,/I_batt*
X84884000Y-83439000D03*
G04 #@! TO.P,J2,2*
G04 #@! TO.N,/batt_sense*
X86384000Y-83439000D03*
G04 #@! TO.P,J2,1*
G04 #@! TO.N,GND*
X87884000Y-83439000D03*
G04 #@! TD*
D19*
G04 #@! TO.N,/Vbatt_in*
X81153000Y-51596000D03*
G04 #@! TO.N,/I_batt*
X77343000Y-56769000D03*
G04 #@! TO.N,Flash*
X100203000Y-71501000D03*
X100965000Y-61595000D03*
G04 #@! TO.N,Torch*
X94742000Y-76454000D03*
X83312000Y-67437000D03*
G04 #@! TO.N,V_LED*
X105283000Y-56594000D03*
G04 #@! TO.N,Net-(Q4-Pad1)*
X87376000Y-62992000D03*
X83566000Y-63119000D03*
G04 #@! TO.N,LED+*
X104394000Y-64643000D03*
X106079002Y-70104000D03*
G04 #@! TD*
D20*
G04 #@! TO.N,/Vbatt_in*
X79883000Y-49530000D02*
X82383000Y-49530000D01*
X82383000Y-49530000D02*
X82383000Y-50366000D01*
X82383000Y-50366000D02*
X81153000Y-51596000D01*
X79883000Y-50326000D02*
X81153000Y-51596000D01*
X79883000Y-49530000D02*
X79883000Y-50326000D01*
D21*
G04 #@! TO.N,/5V*
X75565000Y-63881000D02*
X78486000Y-66802000D01*
X78486000Y-81541000D02*
X80384000Y-83439000D01*
X78486000Y-66802000D02*
X78486000Y-81541000D01*
D22*
G04 #@! TO.N,/I_batt*
X77343000Y-56769000D02*
X77343000Y-64008000D01*
X77343000Y-64008000D02*
X79502000Y-66167000D01*
X79502000Y-66167000D02*
X79502000Y-80772000D01*
X82217000Y-80772000D02*
X84884000Y-83439000D01*
X79502000Y-80772000D02*
X82217000Y-80772000D01*
G04 #@! TO.N,Flash*
X100203000Y-71501000D02*
X100203000Y-62357000D01*
X100203000Y-62357000D02*
X100965000Y-61595000D01*
G04 #@! TO.N,Torch*
X94742000Y-76454000D02*
X85725000Y-67437000D01*
X85725000Y-67437000D02*
X83312000Y-67437000D01*
D23*
G04 #@! TO.N,V_LED*
X104140000Y-52959000D02*
X104394000Y-52705000D01*
X92964000Y-52959000D02*
X104140000Y-52959000D01*
X104394000Y-52705000D02*
X104394000Y-55705000D01*
X104394000Y-55705000D02*
X105283000Y-56594000D01*
D22*
G04 #@! TO.N,Net-(Q4-Pad1)*
X87376000Y-62992000D02*
X83693000Y-62992000D01*
X83693000Y-62992000D02*
X83566000Y-63119000D01*
D20*
G04 #@! TO.N,LED+*
X104394000Y-66461000D02*
X104394000Y-64643000D01*
X104394000Y-68961000D02*
X105537000Y-70104000D01*
X105537000Y-70104000D02*
X106079002Y-70104000D01*
G04 #@! TD*
D24*
G04 #@! TO.N,GND*
G36*
X106079826Y-36716981D02*
X105735000Y-37549463D01*
X105735000Y-38450537D01*
X106079826Y-39283019D01*
X106716981Y-39920174D01*
X107549463Y-40265000D01*
X108450537Y-40265000D01*
X109283019Y-39920174D01*
X109755000Y-39448193D01*
X109755001Y-81551808D01*
X109283019Y-81079826D01*
X108450537Y-80735000D01*
X107549463Y-80735000D01*
X106716981Y-81079826D01*
X106079826Y-81716981D01*
X105735000Y-82549463D01*
X105735000Y-83450537D01*
X106079826Y-84283019D01*
X106659807Y-84863000D01*
X76340193Y-84863000D01*
X76920174Y-84283019D01*
X77265000Y-83450537D01*
X77265000Y-82549463D01*
X76920174Y-81716981D01*
X76283019Y-81079826D01*
X75450537Y-80735000D01*
X74549463Y-80735000D01*
X73716981Y-81079826D01*
X73379000Y-81417807D01*
X73379000Y-77851000D01*
X73923908Y-77851000D01*
X74039161Y-78430418D01*
X74367375Y-78921625D01*
X74858582Y-79249839D01*
X75291744Y-79336000D01*
X75584256Y-79336000D01*
X76017418Y-79249839D01*
X76508625Y-78921625D01*
X76836839Y-78430418D01*
X76952092Y-77851000D01*
X76836839Y-77271582D01*
X76508625Y-76780375D01*
X76189522Y-76567157D01*
X76319358Y-76506183D01*
X76709645Y-76077924D01*
X76879476Y-75667890D01*
X76758155Y-75438000D01*
X75565000Y-75438000D01*
X75565000Y-75458000D01*
X75311000Y-75458000D01*
X75311000Y-75438000D01*
X74117845Y-75438000D01*
X73996524Y-75667890D01*
X74166355Y-76077924D01*
X74556642Y-76506183D01*
X74686478Y-76567157D01*
X74367375Y-76780375D01*
X74039161Y-77271582D01*
X73923908Y-77851000D01*
X73379000Y-77851000D01*
X73379000Y-72771000D01*
X73923908Y-72771000D01*
X74039161Y-73350418D01*
X74367375Y-73841625D01*
X74686478Y-74054843D01*
X74556642Y-74115817D01*
X74166355Y-74544076D01*
X73996524Y-74954110D01*
X74117845Y-75184000D01*
X75311000Y-75184000D01*
X75311000Y-75164000D01*
X75565000Y-75164000D01*
X75565000Y-75184000D01*
X76758155Y-75184000D01*
X76879476Y-74954110D01*
X76709645Y-74544076D01*
X76319358Y-74115817D01*
X76189522Y-74054843D01*
X76508625Y-73841625D01*
X76836839Y-73350418D01*
X76952092Y-72771000D01*
X76836839Y-72191582D01*
X76508625Y-71700375D01*
X76490381Y-71688184D01*
X76535765Y-71679157D01*
X76745809Y-71538809D01*
X76886157Y-71328765D01*
X76935440Y-71081000D01*
X76935440Y-69381000D01*
X76886157Y-69133235D01*
X76745809Y-68923191D01*
X76535765Y-68782843D01*
X76288000Y-68733560D01*
X74588000Y-68733560D01*
X74340235Y-68782843D01*
X74130191Y-68923191D01*
X73989843Y-69133235D01*
X73940560Y-69381000D01*
X73940560Y-71081000D01*
X73989843Y-71328765D01*
X74130191Y-71538809D01*
X74340235Y-71679157D01*
X74385619Y-71688184D01*
X74367375Y-71700375D01*
X74039161Y-72191582D01*
X73923908Y-72771000D01*
X73379000Y-72771000D01*
X73379000Y-63881000D01*
X74050908Y-63881000D01*
X74166161Y-64460418D01*
X74494375Y-64951625D01*
X74985582Y-65279839D01*
X75418744Y-65366000D01*
X75444869Y-65366000D01*
X77351000Y-67272132D01*
X77351001Y-81429212D01*
X77328765Y-81541000D01*
X77416854Y-81983854D01*
X77416855Y-81983855D01*
X77667712Y-82359289D01*
X77762480Y-82422611D01*
X79237018Y-83897149D01*
X79337018Y-84138571D01*
X79684429Y-84485982D01*
X80138343Y-84674000D01*
X80629657Y-84674000D01*
X81083571Y-84485982D01*
X81134000Y-84435553D01*
X81184429Y-84485982D01*
X81638343Y-84674000D01*
X82129657Y-84674000D01*
X82583571Y-84485982D01*
X82634000Y-84435553D01*
X82684429Y-84485982D01*
X83138343Y-84674000D01*
X83629657Y-84674000D01*
X84083571Y-84485982D01*
X84134000Y-84435553D01*
X84184429Y-84485982D01*
X84638343Y-84674000D01*
X85129657Y-84674000D01*
X85583571Y-84485982D01*
X85634000Y-84435553D01*
X85684429Y-84485982D01*
X86138343Y-84674000D01*
X86629657Y-84674000D01*
X87083571Y-84485982D01*
X87212926Y-84356627D01*
X87250383Y-84527164D01*
X87715036Y-84686807D01*
X88205413Y-84656482D01*
X88517617Y-84527164D01*
X88567130Y-84301735D01*
X87884000Y-83618605D01*
X87869858Y-83632748D01*
X87690253Y-83453143D01*
X87704395Y-83439000D01*
X88063605Y-83439000D01*
X88746735Y-84122130D01*
X88972164Y-84072617D01*
X89131807Y-83607964D01*
X89114021Y-83320343D01*
X92865000Y-83320343D01*
X92865000Y-83811657D01*
X93053018Y-84265571D01*
X93400429Y-84612982D01*
X93854343Y-84801000D01*
X94345657Y-84801000D01*
X94799571Y-84612982D01*
X94850000Y-84562553D01*
X94900429Y-84612982D01*
X95354343Y-84801000D01*
X95845657Y-84801000D01*
X96299571Y-84612982D01*
X96350000Y-84562553D01*
X96400429Y-84612982D01*
X96854343Y-84801000D01*
X97345657Y-84801000D01*
X97799571Y-84612982D01*
X97850000Y-84562553D01*
X97900429Y-84612982D01*
X98354343Y-84801000D01*
X98845657Y-84801000D01*
X99299571Y-84612982D01*
X99350000Y-84562553D01*
X99400429Y-84612982D01*
X99854343Y-84801000D01*
X100345657Y-84801000D01*
X100799571Y-84612982D01*
X100928926Y-84483627D01*
X100966383Y-84654164D01*
X101431036Y-84813807D01*
X101921413Y-84783482D01*
X102233617Y-84654164D01*
X102283130Y-84428735D01*
X101600000Y-83745605D01*
X101585858Y-83759748D01*
X101406253Y-83580143D01*
X101420395Y-83566000D01*
X101779605Y-83566000D01*
X102462735Y-84249130D01*
X102688164Y-84199617D01*
X102847807Y-83734964D01*
X102817482Y-83244587D01*
X102688164Y-82932383D01*
X102462735Y-82882870D01*
X101779605Y-83566000D01*
X101420395Y-83566000D01*
X101406253Y-83551858D01*
X101585858Y-83372253D01*
X101600000Y-83386395D01*
X102283130Y-82703265D01*
X102233617Y-82477836D01*
X101768964Y-82318193D01*
X101278587Y-82348518D01*
X100966383Y-82477836D01*
X100928926Y-82648373D01*
X100799571Y-82519018D01*
X100345657Y-82331000D01*
X99854343Y-82331000D01*
X99400429Y-82519018D01*
X99350000Y-82569447D01*
X99299571Y-82519018D01*
X98845657Y-82331000D01*
X98354343Y-82331000D01*
X97900429Y-82519018D01*
X97850000Y-82569447D01*
X97799571Y-82519018D01*
X97345657Y-82331000D01*
X96854343Y-82331000D01*
X96400429Y-82519018D01*
X96350000Y-82569447D01*
X96299571Y-82519018D01*
X95845657Y-82331000D01*
X95354343Y-82331000D01*
X94900429Y-82519018D01*
X94850000Y-82569447D01*
X94799571Y-82519018D01*
X94345657Y-82331000D01*
X93854343Y-82331000D01*
X93400429Y-82519018D01*
X93053018Y-82866429D01*
X92865000Y-83320343D01*
X89114021Y-83320343D01*
X89101482Y-83117587D01*
X88972164Y-82805383D01*
X88746735Y-82755870D01*
X88063605Y-83439000D01*
X87704395Y-83439000D01*
X87690253Y-83424858D01*
X87869858Y-83245253D01*
X87884000Y-83259395D01*
X88567130Y-82576265D01*
X88517617Y-82350836D01*
X88052964Y-82191193D01*
X87562587Y-82221518D01*
X87250383Y-82350836D01*
X87212926Y-82521373D01*
X87083571Y-82392018D01*
X86629657Y-82204000D01*
X86138343Y-82204000D01*
X85684429Y-82392018D01*
X85634000Y-82442447D01*
X85583571Y-82392018D01*
X85129657Y-82204000D01*
X84723802Y-82204000D01*
X82807331Y-80287530D01*
X82764929Y-80224071D01*
X82513537Y-80056096D01*
X82291852Y-80012000D01*
X82291847Y-80012000D01*
X82217000Y-79997112D01*
X82142153Y-80012000D01*
X80262000Y-80012000D01*
X80262000Y-67211234D01*
X82177000Y-67211234D01*
X82177000Y-67662766D01*
X82349793Y-68079926D01*
X82669074Y-68399207D01*
X83086234Y-68572000D01*
X83537766Y-68572000D01*
X83954926Y-68399207D01*
X84157133Y-68197000D01*
X85410199Y-68197000D01*
X93607000Y-76393802D01*
X93607000Y-76679766D01*
X93779793Y-77096926D01*
X94099074Y-77416207D01*
X94516234Y-77589000D01*
X94967766Y-77589000D01*
X95384926Y-77416207D01*
X95704207Y-77096926D01*
X95877000Y-76679766D01*
X95877000Y-76228234D01*
X95704207Y-75811074D01*
X95384926Y-75491793D01*
X94967766Y-75319000D01*
X94681802Y-75319000D01*
X90638036Y-71275234D01*
X99068000Y-71275234D01*
X99068000Y-71726766D01*
X99240793Y-72143926D01*
X99560074Y-72463207D01*
X99977234Y-72636000D01*
X100428766Y-72636000D01*
X100845926Y-72463207D01*
X101165207Y-72143926D01*
X101338000Y-71726766D01*
X101338000Y-71275234D01*
X101165207Y-70858074D01*
X100963000Y-70655867D01*
X100963000Y-70130107D01*
X101052815Y-70219922D01*
X101598615Y-70446000D01*
X102189385Y-70446000D01*
X102735185Y-70219922D01*
X102992456Y-69962651D01*
X103015144Y-70005098D01*
X103085651Y-70110620D01*
X103116741Y-70148504D01*
X103206496Y-70238259D01*
X103244380Y-70269349D01*
X103349902Y-70339856D01*
X103393124Y-70362959D01*
X103510391Y-70411533D01*
X103557289Y-70425759D01*
X103681763Y-70450518D01*
X103730536Y-70455322D01*
X103794000Y-70458440D01*
X103932755Y-70458440D01*
X104461202Y-70986888D01*
X104538471Y-71102529D01*
X104996600Y-71408641D01*
X105400593Y-71489000D01*
X105536999Y-71516133D01*
X105673405Y-71489000D01*
X106215409Y-71489000D01*
X106619402Y-71408641D01*
X107077531Y-71102529D01*
X107383643Y-70644400D01*
X107491135Y-70104000D01*
X107383643Y-69563600D01*
X107077531Y-69105471D01*
X106619402Y-68799359D01*
X106488870Y-68773395D01*
X106823371Y-68438894D01*
X107019000Y-67966602D01*
X107019000Y-67455398D01*
X106823371Y-66983106D01*
X106461894Y-66621629D01*
X105989602Y-66426000D01*
X105879000Y-66426000D01*
X105879000Y-66165615D01*
X105779000Y-65924194D01*
X105779000Y-64506593D01*
X105698641Y-64102600D01*
X105392529Y-63644471D01*
X104934400Y-63338359D01*
X104394000Y-63230867D01*
X103853601Y-63338359D01*
X103395472Y-63644471D01*
X103089360Y-64102600D01*
X103009001Y-64506593D01*
X103009001Y-65475894D01*
X102735185Y-65202078D01*
X102189385Y-64976000D01*
X101598615Y-64976000D01*
X101052815Y-65202078D01*
X100963000Y-65291893D01*
X100963000Y-62730000D01*
X101190766Y-62730000D01*
X101607926Y-62557207D01*
X101927207Y-62237926D01*
X102100000Y-61820766D01*
X102100000Y-61369234D01*
X101927207Y-60952074D01*
X101607926Y-60632793D01*
X101190766Y-60460000D01*
X100739234Y-60460000D01*
X100322074Y-60632793D01*
X100002793Y-60952074D01*
X99830000Y-61369234D01*
X99830000Y-61655199D01*
X99718528Y-61766671D01*
X99655072Y-61809071D01*
X99487097Y-62060463D01*
X99455938Y-62217112D01*
X99428112Y-62357000D01*
X99443001Y-62431852D01*
X99443000Y-70655867D01*
X99240793Y-70858074D01*
X99068000Y-71275234D01*
X90638036Y-71275234D01*
X86315331Y-66952530D01*
X86272929Y-66889071D01*
X86021537Y-66721096D01*
X85799852Y-66677000D01*
X85799847Y-66677000D01*
X85725000Y-66662112D01*
X85650153Y-66677000D01*
X84157133Y-66677000D01*
X83954926Y-66474793D01*
X83537766Y-66302000D01*
X83086234Y-66302000D01*
X82669074Y-66474793D01*
X82349793Y-66794074D01*
X82177000Y-67211234D01*
X80262000Y-67211234D01*
X80262000Y-66241846D01*
X80276888Y-66166999D01*
X80262000Y-66092152D01*
X80262000Y-66092148D01*
X80217904Y-65870463D01*
X80049929Y-65619071D01*
X79986473Y-65576671D01*
X78103000Y-63693199D01*
X78103000Y-62893234D01*
X82431000Y-62893234D01*
X82431000Y-63344766D01*
X82603793Y-63761926D01*
X82923074Y-64081207D01*
X83340234Y-64254000D01*
X83791766Y-64254000D01*
X84208926Y-64081207D01*
X84528207Y-63761926D01*
X84532318Y-63752000D01*
X86530867Y-63752000D01*
X86733074Y-63954207D01*
X87150234Y-64127000D01*
X87601766Y-64127000D01*
X88018926Y-63954207D01*
X88338207Y-63634926D01*
X88511000Y-63217766D01*
X88511000Y-62766234D01*
X88338207Y-62349074D01*
X88018926Y-62029793D01*
X87601766Y-61857000D01*
X87150234Y-61857000D01*
X86733074Y-62029793D01*
X86530867Y-62232000D01*
X84284133Y-62232000D01*
X84208926Y-62156793D01*
X83791766Y-61984000D01*
X83340234Y-61984000D01*
X82923074Y-62156793D01*
X82603793Y-62476074D01*
X82431000Y-62893234D01*
X78103000Y-62893234D01*
X78103000Y-57614133D01*
X78305207Y-57411926D01*
X78478000Y-56994766D01*
X78478000Y-56543234D01*
X78305207Y-56126074D01*
X77985926Y-55806793D01*
X77568766Y-55634000D01*
X77117234Y-55634000D01*
X76700074Y-55806793D01*
X76380793Y-56126074D01*
X76208000Y-56543234D01*
X76208000Y-56994766D01*
X76335906Y-57303560D01*
X74715000Y-57303560D01*
X74467235Y-57352843D01*
X74257191Y-57493191D01*
X74116843Y-57703235D01*
X74067560Y-57951000D01*
X74067560Y-59651000D01*
X74116843Y-59898765D01*
X74257191Y-60108809D01*
X74467235Y-60249157D01*
X74570708Y-60269739D01*
X74293355Y-60574076D01*
X74123524Y-60984110D01*
X74244845Y-61214000D01*
X75438000Y-61214000D01*
X75438000Y-61194000D01*
X75692000Y-61194000D01*
X75692000Y-61214000D01*
X75712000Y-61214000D01*
X75712000Y-61468000D01*
X75692000Y-61468000D01*
X75692000Y-61488000D01*
X75438000Y-61488000D01*
X75438000Y-61468000D01*
X74244845Y-61468000D01*
X74123524Y-61697890D01*
X74293355Y-62107924D01*
X74683642Y-62536183D01*
X74813478Y-62597157D01*
X74494375Y-62810375D01*
X74166161Y-63301582D01*
X74050908Y-63881000D01*
X73379000Y-63881000D01*
X73379000Y-48930000D01*
X78385560Y-48930000D01*
X78385560Y-50130000D01*
X78453874Y-50473435D01*
X78519828Y-50572142D01*
X78578359Y-50866400D01*
X78884472Y-51324529D01*
X79000112Y-51401797D01*
X80077206Y-52478892D01*
X80154472Y-52594528D01*
X80270107Y-52671793D01*
X80270111Y-52671797D01*
X80612599Y-52900640D01*
X80612600Y-52900640D01*
X80612601Y-52900641D01*
X80905992Y-52959000D01*
X81152999Y-53008133D01*
X81153000Y-53008133D01*
X81400008Y-52959000D01*
X91296969Y-52959000D01*
X91316560Y-53057491D01*
X91316560Y-53959000D01*
X91365843Y-54206765D01*
X91506191Y-54416809D01*
X91716235Y-54557157D01*
X91964000Y-54606440D01*
X93964000Y-54606440D01*
X94026541Y-54594000D01*
X102759001Y-54594000D01*
X102759001Y-55543966D01*
X102726969Y-55705000D01*
X102829623Y-56221071D01*
X102853865Y-56342945D01*
X103215232Y-56883769D01*
X103351748Y-56974986D01*
X104240747Y-57863985D01*
X104645054Y-58134135D01*
X105283000Y-58261031D01*
X105920945Y-58134135D01*
X106461769Y-57772769D01*
X106823135Y-57231945D01*
X106950031Y-56594000D01*
X106823135Y-55956054D01*
X106552985Y-55551747D01*
X106029000Y-55027762D01*
X106029000Y-53767541D01*
X106041440Y-53705000D01*
X106041440Y-52803487D01*
X106061030Y-52705001D01*
X106041440Y-52606515D01*
X106041440Y-51705000D01*
X105992157Y-51457235D01*
X105851809Y-51247191D01*
X105641765Y-51106843D01*
X105394000Y-51057560D01*
X104492491Y-51057560D01*
X104394000Y-51037969D01*
X104295509Y-51057560D01*
X103394000Y-51057560D01*
X103146235Y-51106843D01*
X102936191Y-51247191D01*
X102884868Y-51324000D01*
X94026541Y-51324000D01*
X93964000Y-51311560D01*
X91964000Y-51311560D01*
X91716235Y-51360843D01*
X91506191Y-51501191D01*
X91365843Y-51711235D01*
X91316560Y-51959000D01*
X91316560Y-52860509D01*
X91296969Y-52959000D01*
X81400008Y-52959000D01*
X81693399Y-52900641D01*
X82035888Y-52671797D01*
X82035890Y-52671795D01*
X82151528Y-52594528D01*
X82228794Y-52478891D01*
X83265888Y-51441798D01*
X83381529Y-51364529D01*
X83687641Y-50906400D01*
X83768000Y-50502406D01*
X83795133Y-50366000D01*
X83768000Y-50229593D01*
X83768000Y-50066806D01*
X83868000Y-49825385D01*
X83868000Y-49234615D01*
X83817018Y-49111532D01*
X91991073Y-49111532D01*
X92089736Y-49378387D01*
X92699461Y-49604908D01*
X93349460Y-49580856D01*
X93838264Y-49378387D01*
X93936927Y-49111532D01*
X92964000Y-48138605D01*
X91991073Y-49111532D01*
X83817018Y-49111532D01*
X83641922Y-48688815D01*
X83224185Y-48271078D01*
X83189037Y-48256519D01*
X83247353Y-48073958D01*
X82383000Y-47209605D01*
X81518647Y-48073958D01*
X81541340Y-48145000D01*
X80892475Y-48145000D01*
X80826435Y-48100874D01*
X80743993Y-48084475D01*
X80747353Y-48073958D01*
X79883000Y-47209605D01*
X79018647Y-48073958D01*
X79022007Y-48084475D01*
X78939565Y-48100874D01*
X78648414Y-48295414D01*
X78453874Y-48586565D01*
X78385560Y-48930000D01*
X73379000Y-48930000D01*
X73379000Y-46801279D01*
X78386282Y-46801279D01*
X78412685Y-47391458D01*
X78587741Y-47814080D01*
X78839042Y-47894353D01*
X79703395Y-47030000D01*
X80062605Y-47030000D01*
X80926958Y-47894353D01*
X81133000Y-47828537D01*
X81339042Y-47894353D01*
X82203395Y-47030000D01*
X82562605Y-47030000D01*
X83426958Y-47894353D01*
X83678259Y-47814080D01*
X83721651Y-47694461D01*
X91318092Y-47694461D01*
X91342144Y-48344460D01*
X91544613Y-48833264D01*
X91811468Y-48931927D01*
X92784395Y-47959000D01*
X93143605Y-47959000D01*
X94116532Y-48931927D01*
X94317749Y-48857532D01*
X103421073Y-48857532D01*
X103519736Y-49124387D01*
X104129461Y-49350908D01*
X104779460Y-49326856D01*
X105268264Y-49124387D01*
X105366927Y-48857532D01*
X104394000Y-47884605D01*
X103421073Y-48857532D01*
X94317749Y-48857532D01*
X94383387Y-48833264D01*
X94609908Y-48223539D01*
X94585856Y-47573540D01*
X94530733Y-47440461D01*
X102748092Y-47440461D01*
X102772144Y-48090460D01*
X102974613Y-48579264D01*
X103241468Y-48677927D01*
X104214395Y-47705000D01*
X104573605Y-47705000D01*
X105546532Y-48677927D01*
X105813387Y-48579264D01*
X106039908Y-47969539D01*
X106015856Y-47319540D01*
X105813387Y-46830736D01*
X105546532Y-46732073D01*
X104573605Y-47705000D01*
X104214395Y-47705000D01*
X103241468Y-46732073D01*
X102974613Y-46830736D01*
X102748092Y-47440461D01*
X94530733Y-47440461D01*
X94383387Y-47084736D01*
X94116532Y-46986073D01*
X93143605Y-47959000D01*
X92784395Y-47959000D01*
X91811468Y-46986073D01*
X91544613Y-47084736D01*
X91318092Y-47694461D01*
X83721651Y-47694461D01*
X83879718Y-47258721D01*
X83859486Y-46806468D01*
X91991073Y-46806468D01*
X92964000Y-47779395D01*
X93936927Y-46806468D01*
X93843017Y-46552468D01*
X103421073Y-46552468D01*
X104394000Y-47525395D01*
X105366927Y-46552468D01*
X105268264Y-46285613D01*
X104658539Y-46059092D01*
X104008540Y-46083144D01*
X103519736Y-46285613D01*
X103421073Y-46552468D01*
X93843017Y-46552468D01*
X93838264Y-46539613D01*
X93228539Y-46313092D01*
X92578540Y-46337144D01*
X92089736Y-46539613D01*
X91991073Y-46806468D01*
X83859486Y-46806468D01*
X83853315Y-46668542D01*
X83678259Y-46245920D01*
X83426958Y-46165647D01*
X82562605Y-47030000D01*
X82203395Y-47030000D01*
X81339042Y-46165647D01*
X81133000Y-46231463D01*
X80926958Y-46165647D01*
X80062605Y-47030000D01*
X79703395Y-47030000D01*
X78839042Y-46165647D01*
X78587741Y-46245920D01*
X78386282Y-46801279D01*
X73379000Y-46801279D01*
X73379000Y-45986042D01*
X79018647Y-45986042D01*
X79883000Y-46850395D01*
X80747353Y-45986042D01*
X81518647Y-45986042D01*
X82383000Y-46850395D01*
X83247353Y-45986042D01*
X83167080Y-45734741D01*
X82611721Y-45533282D01*
X82021542Y-45559685D01*
X81598920Y-45734741D01*
X81518647Y-45986042D01*
X80747353Y-45986042D01*
X80667080Y-45734741D01*
X80111721Y-45533282D01*
X79521542Y-45559685D01*
X79098920Y-45734741D01*
X79018647Y-45986042D01*
X73379000Y-45986042D01*
X73379000Y-39582193D01*
X73716981Y-39920174D01*
X74549463Y-40265000D01*
X75450537Y-40265000D01*
X76283019Y-39920174D01*
X76648578Y-39554615D01*
X78398000Y-39554615D01*
X78398000Y-40145385D01*
X78624078Y-40691185D01*
X79041815Y-41108922D01*
X79587615Y-41335000D01*
X80178385Y-41335000D01*
X80724185Y-41108922D01*
X81133000Y-40700107D01*
X81541815Y-41108922D01*
X82087615Y-41335000D01*
X82678385Y-41335000D01*
X83224185Y-41108922D01*
X83641922Y-40691185D01*
X83868000Y-40145385D01*
X83868000Y-39554615D01*
X83641922Y-39008815D01*
X83224185Y-38591078D01*
X82678385Y-38365000D01*
X82087615Y-38365000D01*
X81541815Y-38591078D01*
X81133000Y-38999893D01*
X80724185Y-38591078D01*
X80178385Y-38365000D01*
X79587615Y-38365000D01*
X79041815Y-38591078D01*
X78624078Y-39008815D01*
X78398000Y-39554615D01*
X76648578Y-39554615D01*
X76920174Y-39283019D01*
X77265000Y-38450537D01*
X77265000Y-37631000D01*
X90196560Y-37631000D01*
X90196560Y-39331000D01*
X90245843Y-39578765D01*
X90386191Y-39788809D01*
X90596235Y-39929157D01*
X90844000Y-39978440D01*
X92544000Y-39978440D01*
X92791765Y-39929157D01*
X93001809Y-39788809D01*
X93142157Y-39578765D01*
X93162739Y-39475292D01*
X93467076Y-39752645D01*
X93877110Y-39922476D01*
X94107000Y-39801155D01*
X94107000Y-38608000D01*
X94087000Y-38608000D01*
X94087000Y-38354000D01*
X94107000Y-38354000D01*
X94107000Y-37160845D01*
X94361000Y-37160845D01*
X94361000Y-38354000D01*
X94381000Y-38354000D01*
X94381000Y-38608000D01*
X94361000Y-38608000D01*
X94361000Y-39801155D01*
X94590890Y-39922476D01*
X95000924Y-39752645D01*
X95429183Y-39362358D01*
X95490157Y-39232522D01*
X95703375Y-39551625D01*
X96194582Y-39879839D01*
X96627744Y-39966000D01*
X96920256Y-39966000D01*
X97353418Y-39879839D01*
X97844625Y-39551625D01*
X98172839Y-39060418D01*
X98288092Y-38481000D01*
X98172839Y-37901582D01*
X97844625Y-37410375D01*
X97353418Y-37082161D01*
X96920256Y-36996000D01*
X96627744Y-36996000D01*
X96194582Y-37082161D01*
X95703375Y-37410375D01*
X95490157Y-37729478D01*
X95429183Y-37599642D01*
X95000924Y-37209355D01*
X94590890Y-37039524D01*
X94361000Y-37160845D01*
X94107000Y-37160845D01*
X93877110Y-37039524D01*
X93467076Y-37209355D01*
X93162739Y-37486708D01*
X93142157Y-37383235D01*
X93001809Y-37173191D01*
X92791765Y-37032843D01*
X92544000Y-36983560D01*
X90844000Y-36983560D01*
X90596235Y-37032843D01*
X90386191Y-37173191D01*
X90245843Y-37383235D01*
X90196560Y-37631000D01*
X77265000Y-37631000D01*
X77265000Y-37549463D01*
X76920174Y-36716981D01*
X76498193Y-36295000D01*
X106501807Y-36295000D01*
X106079826Y-36716981D01*
X106079826Y-36716981D01*
G37*
X106079826Y-36716981D02*
X105735000Y-37549463D01*
X105735000Y-38450537D01*
X106079826Y-39283019D01*
X106716981Y-39920174D01*
X107549463Y-40265000D01*
X108450537Y-40265000D01*
X109283019Y-39920174D01*
X109755000Y-39448193D01*
X109755001Y-81551808D01*
X109283019Y-81079826D01*
X108450537Y-80735000D01*
X107549463Y-80735000D01*
X106716981Y-81079826D01*
X106079826Y-81716981D01*
X105735000Y-82549463D01*
X105735000Y-83450537D01*
X106079826Y-84283019D01*
X106659807Y-84863000D01*
X76340193Y-84863000D01*
X76920174Y-84283019D01*
X77265000Y-83450537D01*
X77265000Y-82549463D01*
X76920174Y-81716981D01*
X76283019Y-81079826D01*
X75450537Y-80735000D01*
X74549463Y-80735000D01*
X73716981Y-81079826D01*
X73379000Y-81417807D01*
X73379000Y-77851000D01*
X73923908Y-77851000D01*
X74039161Y-78430418D01*
X74367375Y-78921625D01*
X74858582Y-79249839D01*
X75291744Y-79336000D01*
X75584256Y-79336000D01*
X76017418Y-79249839D01*
X76508625Y-78921625D01*
X76836839Y-78430418D01*
X76952092Y-77851000D01*
X76836839Y-77271582D01*
X76508625Y-76780375D01*
X76189522Y-76567157D01*
X76319358Y-76506183D01*
X76709645Y-76077924D01*
X76879476Y-75667890D01*
X76758155Y-75438000D01*
X75565000Y-75438000D01*
X75565000Y-75458000D01*
X75311000Y-75458000D01*
X75311000Y-75438000D01*
X74117845Y-75438000D01*
X73996524Y-75667890D01*
X74166355Y-76077924D01*
X74556642Y-76506183D01*
X74686478Y-76567157D01*
X74367375Y-76780375D01*
X74039161Y-77271582D01*
X73923908Y-77851000D01*
X73379000Y-77851000D01*
X73379000Y-72771000D01*
X73923908Y-72771000D01*
X74039161Y-73350418D01*
X74367375Y-73841625D01*
X74686478Y-74054843D01*
X74556642Y-74115817D01*
X74166355Y-74544076D01*
X73996524Y-74954110D01*
X74117845Y-75184000D01*
X75311000Y-75184000D01*
X75311000Y-75164000D01*
X75565000Y-75164000D01*
X75565000Y-75184000D01*
X76758155Y-75184000D01*
X76879476Y-74954110D01*
X76709645Y-74544076D01*
X76319358Y-74115817D01*
X76189522Y-74054843D01*
X76508625Y-73841625D01*
X76836839Y-73350418D01*
X76952092Y-72771000D01*
X76836839Y-72191582D01*
X76508625Y-71700375D01*
X76490381Y-71688184D01*
X76535765Y-71679157D01*
X76745809Y-71538809D01*
X76886157Y-71328765D01*
X76935440Y-71081000D01*
X76935440Y-69381000D01*
X76886157Y-69133235D01*
X76745809Y-68923191D01*
X76535765Y-68782843D01*
X76288000Y-68733560D01*
X74588000Y-68733560D01*
X74340235Y-68782843D01*
X74130191Y-68923191D01*
X73989843Y-69133235D01*
X73940560Y-69381000D01*
X73940560Y-71081000D01*
X73989843Y-71328765D01*
X74130191Y-71538809D01*
X74340235Y-71679157D01*
X74385619Y-71688184D01*
X74367375Y-71700375D01*
X74039161Y-72191582D01*
X73923908Y-72771000D01*
X73379000Y-72771000D01*
X73379000Y-63881000D01*
X74050908Y-63881000D01*
X74166161Y-64460418D01*
X74494375Y-64951625D01*
X74985582Y-65279839D01*
X75418744Y-65366000D01*
X75444869Y-65366000D01*
X77351000Y-67272132D01*
X77351001Y-81429212D01*
X77328765Y-81541000D01*
X77416854Y-81983854D01*
X77416855Y-81983855D01*
X77667712Y-82359289D01*
X77762480Y-82422611D01*
X79237018Y-83897149D01*
X79337018Y-84138571D01*
X79684429Y-84485982D01*
X80138343Y-84674000D01*
X80629657Y-84674000D01*
X81083571Y-84485982D01*
X81134000Y-84435553D01*
X81184429Y-84485982D01*
X81638343Y-84674000D01*
X82129657Y-84674000D01*
X82583571Y-84485982D01*
X82634000Y-84435553D01*
X82684429Y-84485982D01*
X83138343Y-84674000D01*
X83629657Y-84674000D01*
X84083571Y-84485982D01*
X84134000Y-84435553D01*
X84184429Y-84485982D01*
X84638343Y-84674000D01*
X85129657Y-84674000D01*
X85583571Y-84485982D01*
X85634000Y-84435553D01*
X85684429Y-84485982D01*
X86138343Y-84674000D01*
X86629657Y-84674000D01*
X87083571Y-84485982D01*
X87212926Y-84356627D01*
X87250383Y-84527164D01*
X87715036Y-84686807D01*
X88205413Y-84656482D01*
X88517617Y-84527164D01*
X88567130Y-84301735D01*
X87884000Y-83618605D01*
X87869858Y-83632748D01*
X87690253Y-83453143D01*
X87704395Y-83439000D01*
X88063605Y-83439000D01*
X88746735Y-84122130D01*
X88972164Y-84072617D01*
X89131807Y-83607964D01*
X89114021Y-83320343D01*
X92865000Y-83320343D01*
X92865000Y-83811657D01*
X93053018Y-84265571D01*
X93400429Y-84612982D01*
X93854343Y-84801000D01*
X94345657Y-84801000D01*
X94799571Y-84612982D01*
X94850000Y-84562553D01*
X94900429Y-84612982D01*
X95354343Y-84801000D01*
X95845657Y-84801000D01*
X96299571Y-84612982D01*
X96350000Y-84562553D01*
X96400429Y-84612982D01*
X96854343Y-84801000D01*
X97345657Y-84801000D01*
X97799571Y-84612982D01*
X97850000Y-84562553D01*
X97900429Y-84612982D01*
X98354343Y-84801000D01*
X98845657Y-84801000D01*
X99299571Y-84612982D01*
X99350000Y-84562553D01*
X99400429Y-84612982D01*
X99854343Y-84801000D01*
X100345657Y-84801000D01*
X100799571Y-84612982D01*
X100928926Y-84483627D01*
X100966383Y-84654164D01*
X101431036Y-84813807D01*
X101921413Y-84783482D01*
X102233617Y-84654164D01*
X102283130Y-84428735D01*
X101600000Y-83745605D01*
X101585858Y-83759748D01*
X101406253Y-83580143D01*
X101420395Y-83566000D01*
X101779605Y-83566000D01*
X102462735Y-84249130D01*
X102688164Y-84199617D01*
X102847807Y-83734964D01*
X102817482Y-83244587D01*
X102688164Y-82932383D01*
X102462735Y-82882870D01*
X101779605Y-83566000D01*
X101420395Y-83566000D01*
X101406253Y-83551858D01*
X101585858Y-83372253D01*
X101600000Y-83386395D01*
X102283130Y-82703265D01*
X102233617Y-82477836D01*
X101768964Y-82318193D01*
X101278587Y-82348518D01*
X100966383Y-82477836D01*
X100928926Y-82648373D01*
X100799571Y-82519018D01*
X100345657Y-82331000D01*
X99854343Y-82331000D01*
X99400429Y-82519018D01*
X99350000Y-82569447D01*
X99299571Y-82519018D01*
X98845657Y-82331000D01*
X98354343Y-82331000D01*
X97900429Y-82519018D01*
X97850000Y-82569447D01*
X97799571Y-82519018D01*
X97345657Y-82331000D01*
X96854343Y-82331000D01*
X96400429Y-82519018D01*
X96350000Y-82569447D01*
X96299571Y-82519018D01*
X95845657Y-82331000D01*
X95354343Y-82331000D01*
X94900429Y-82519018D01*
X94850000Y-82569447D01*
X94799571Y-82519018D01*
X94345657Y-82331000D01*
X93854343Y-82331000D01*
X93400429Y-82519018D01*
X93053018Y-82866429D01*
X92865000Y-83320343D01*
X89114021Y-83320343D01*
X89101482Y-83117587D01*
X88972164Y-82805383D01*
X88746735Y-82755870D01*
X88063605Y-83439000D01*
X87704395Y-83439000D01*
X87690253Y-83424858D01*
X87869858Y-83245253D01*
X87884000Y-83259395D01*
X88567130Y-82576265D01*
X88517617Y-82350836D01*
X88052964Y-82191193D01*
X87562587Y-82221518D01*
X87250383Y-82350836D01*
X87212926Y-82521373D01*
X87083571Y-82392018D01*
X86629657Y-82204000D01*
X86138343Y-82204000D01*
X85684429Y-82392018D01*
X85634000Y-82442447D01*
X85583571Y-82392018D01*
X85129657Y-82204000D01*
X84723802Y-82204000D01*
X82807331Y-80287530D01*
X82764929Y-80224071D01*
X82513537Y-80056096D01*
X82291852Y-80012000D01*
X82291847Y-80012000D01*
X82217000Y-79997112D01*
X82142153Y-80012000D01*
X80262000Y-80012000D01*
X80262000Y-67211234D01*
X82177000Y-67211234D01*
X82177000Y-67662766D01*
X82349793Y-68079926D01*
X82669074Y-68399207D01*
X83086234Y-68572000D01*
X83537766Y-68572000D01*
X83954926Y-68399207D01*
X84157133Y-68197000D01*
X85410199Y-68197000D01*
X93607000Y-76393802D01*
X93607000Y-76679766D01*
X93779793Y-77096926D01*
X94099074Y-77416207D01*
X94516234Y-77589000D01*
X94967766Y-77589000D01*
X95384926Y-77416207D01*
X95704207Y-77096926D01*
X95877000Y-76679766D01*
X95877000Y-76228234D01*
X95704207Y-75811074D01*
X95384926Y-75491793D01*
X94967766Y-75319000D01*
X94681802Y-75319000D01*
X90638036Y-71275234D01*
X99068000Y-71275234D01*
X99068000Y-71726766D01*
X99240793Y-72143926D01*
X99560074Y-72463207D01*
X99977234Y-72636000D01*
X100428766Y-72636000D01*
X100845926Y-72463207D01*
X101165207Y-72143926D01*
X101338000Y-71726766D01*
X101338000Y-71275234D01*
X101165207Y-70858074D01*
X100963000Y-70655867D01*
X100963000Y-70130107D01*
X101052815Y-70219922D01*
X101598615Y-70446000D01*
X102189385Y-70446000D01*
X102735185Y-70219922D01*
X102992456Y-69962651D01*
X103015144Y-70005098D01*
X103085651Y-70110620D01*
X103116741Y-70148504D01*
X103206496Y-70238259D01*
X103244380Y-70269349D01*
X103349902Y-70339856D01*
X103393124Y-70362959D01*
X103510391Y-70411533D01*
X103557289Y-70425759D01*
X103681763Y-70450518D01*
X103730536Y-70455322D01*
X103794000Y-70458440D01*
X103932755Y-70458440D01*
X104461202Y-70986888D01*
X104538471Y-71102529D01*
X104996600Y-71408641D01*
X105400593Y-71489000D01*
X105536999Y-71516133D01*
X105673405Y-71489000D01*
X106215409Y-71489000D01*
X106619402Y-71408641D01*
X107077531Y-71102529D01*
X107383643Y-70644400D01*
X107491135Y-70104000D01*
X107383643Y-69563600D01*
X107077531Y-69105471D01*
X106619402Y-68799359D01*
X106488870Y-68773395D01*
X106823371Y-68438894D01*
X107019000Y-67966602D01*
X107019000Y-67455398D01*
X106823371Y-66983106D01*
X106461894Y-66621629D01*
X105989602Y-66426000D01*
X105879000Y-66426000D01*
X105879000Y-66165615D01*
X105779000Y-65924194D01*
X105779000Y-64506593D01*
X105698641Y-64102600D01*
X105392529Y-63644471D01*
X104934400Y-63338359D01*
X104394000Y-63230867D01*
X103853601Y-63338359D01*
X103395472Y-63644471D01*
X103089360Y-64102600D01*
X103009001Y-64506593D01*
X103009001Y-65475894D01*
X102735185Y-65202078D01*
X102189385Y-64976000D01*
X101598615Y-64976000D01*
X101052815Y-65202078D01*
X100963000Y-65291893D01*
X100963000Y-62730000D01*
X101190766Y-62730000D01*
X101607926Y-62557207D01*
X101927207Y-62237926D01*
X102100000Y-61820766D01*
X102100000Y-61369234D01*
X101927207Y-60952074D01*
X101607926Y-60632793D01*
X101190766Y-60460000D01*
X100739234Y-60460000D01*
X100322074Y-60632793D01*
X100002793Y-60952074D01*
X99830000Y-61369234D01*
X99830000Y-61655199D01*
X99718528Y-61766671D01*
X99655072Y-61809071D01*
X99487097Y-62060463D01*
X99455938Y-62217112D01*
X99428112Y-62357000D01*
X99443001Y-62431852D01*
X99443000Y-70655867D01*
X99240793Y-70858074D01*
X99068000Y-71275234D01*
X90638036Y-71275234D01*
X86315331Y-66952530D01*
X86272929Y-66889071D01*
X86021537Y-66721096D01*
X85799852Y-66677000D01*
X85799847Y-66677000D01*
X85725000Y-66662112D01*
X85650153Y-66677000D01*
X84157133Y-66677000D01*
X83954926Y-66474793D01*
X83537766Y-66302000D01*
X83086234Y-66302000D01*
X82669074Y-66474793D01*
X82349793Y-66794074D01*
X82177000Y-67211234D01*
X80262000Y-67211234D01*
X80262000Y-66241846D01*
X80276888Y-66166999D01*
X80262000Y-66092152D01*
X80262000Y-66092148D01*
X80217904Y-65870463D01*
X80049929Y-65619071D01*
X79986473Y-65576671D01*
X78103000Y-63693199D01*
X78103000Y-62893234D01*
X82431000Y-62893234D01*
X82431000Y-63344766D01*
X82603793Y-63761926D01*
X82923074Y-64081207D01*
X83340234Y-64254000D01*
X83791766Y-64254000D01*
X84208926Y-64081207D01*
X84528207Y-63761926D01*
X84532318Y-63752000D01*
X86530867Y-63752000D01*
X86733074Y-63954207D01*
X87150234Y-64127000D01*
X87601766Y-64127000D01*
X88018926Y-63954207D01*
X88338207Y-63634926D01*
X88511000Y-63217766D01*
X88511000Y-62766234D01*
X88338207Y-62349074D01*
X88018926Y-62029793D01*
X87601766Y-61857000D01*
X87150234Y-61857000D01*
X86733074Y-62029793D01*
X86530867Y-62232000D01*
X84284133Y-62232000D01*
X84208926Y-62156793D01*
X83791766Y-61984000D01*
X83340234Y-61984000D01*
X82923074Y-62156793D01*
X82603793Y-62476074D01*
X82431000Y-62893234D01*
X78103000Y-62893234D01*
X78103000Y-57614133D01*
X78305207Y-57411926D01*
X78478000Y-56994766D01*
X78478000Y-56543234D01*
X78305207Y-56126074D01*
X77985926Y-55806793D01*
X77568766Y-55634000D01*
X77117234Y-55634000D01*
X76700074Y-55806793D01*
X76380793Y-56126074D01*
X76208000Y-56543234D01*
X76208000Y-56994766D01*
X76335906Y-57303560D01*
X74715000Y-57303560D01*
X74467235Y-57352843D01*
X74257191Y-57493191D01*
X74116843Y-57703235D01*
X74067560Y-57951000D01*
X74067560Y-59651000D01*
X74116843Y-59898765D01*
X74257191Y-60108809D01*
X74467235Y-60249157D01*
X74570708Y-60269739D01*
X74293355Y-60574076D01*
X74123524Y-60984110D01*
X74244845Y-61214000D01*
X75438000Y-61214000D01*
X75438000Y-61194000D01*
X75692000Y-61194000D01*
X75692000Y-61214000D01*
X75712000Y-61214000D01*
X75712000Y-61468000D01*
X75692000Y-61468000D01*
X75692000Y-61488000D01*
X75438000Y-61488000D01*
X75438000Y-61468000D01*
X74244845Y-61468000D01*
X74123524Y-61697890D01*
X74293355Y-62107924D01*
X74683642Y-62536183D01*
X74813478Y-62597157D01*
X74494375Y-62810375D01*
X74166161Y-63301582D01*
X74050908Y-63881000D01*
X73379000Y-63881000D01*
X73379000Y-48930000D01*
X78385560Y-48930000D01*
X78385560Y-50130000D01*
X78453874Y-50473435D01*
X78519828Y-50572142D01*
X78578359Y-50866400D01*
X78884472Y-51324529D01*
X79000112Y-51401797D01*
X80077206Y-52478892D01*
X80154472Y-52594528D01*
X80270107Y-52671793D01*
X80270111Y-52671797D01*
X80612599Y-52900640D01*
X80612600Y-52900640D01*
X80612601Y-52900641D01*
X80905992Y-52959000D01*
X81152999Y-53008133D01*
X81153000Y-53008133D01*
X81400008Y-52959000D01*
X91296969Y-52959000D01*
X91316560Y-53057491D01*
X91316560Y-53959000D01*
X91365843Y-54206765D01*
X91506191Y-54416809D01*
X91716235Y-54557157D01*
X91964000Y-54606440D01*
X93964000Y-54606440D01*
X94026541Y-54594000D01*
X102759001Y-54594000D01*
X102759001Y-55543966D01*
X102726969Y-55705000D01*
X102829623Y-56221071D01*
X102853865Y-56342945D01*
X103215232Y-56883769D01*
X103351748Y-56974986D01*
X104240747Y-57863985D01*
X104645054Y-58134135D01*
X105283000Y-58261031D01*
X105920945Y-58134135D01*
X106461769Y-57772769D01*
X106823135Y-57231945D01*
X106950031Y-56594000D01*
X106823135Y-55956054D01*
X106552985Y-55551747D01*
X106029000Y-55027762D01*
X106029000Y-53767541D01*
X106041440Y-53705000D01*
X106041440Y-52803487D01*
X106061030Y-52705001D01*
X106041440Y-52606515D01*
X106041440Y-51705000D01*
X105992157Y-51457235D01*
X105851809Y-51247191D01*
X105641765Y-51106843D01*
X105394000Y-51057560D01*
X104492491Y-51057560D01*
X104394000Y-51037969D01*
X104295509Y-51057560D01*
X103394000Y-51057560D01*
X103146235Y-51106843D01*
X102936191Y-51247191D01*
X102884868Y-51324000D01*
X94026541Y-51324000D01*
X93964000Y-51311560D01*
X91964000Y-51311560D01*
X91716235Y-51360843D01*
X91506191Y-51501191D01*
X91365843Y-51711235D01*
X91316560Y-51959000D01*
X91316560Y-52860509D01*
X91296969Y-52959000D01*
X81400008Y-52959000D01*
X81693399Y-52900641D01*
X82035888Y-52671797D01*
X82035890Y-52671795D01*
X82151528Y-52594528D01*
X82228794Y-52478891D01*
X83265888Y-51441798D01*
X83381529Y-51364529D01*
X83687641Y-50906400D01*
X83768000Y-50502406D01*
X83795133Y-50366000D01*
X83768000Y-50229593D01*
X83768000Y-50066806D01*
X83868000Y-49825385D01*
X83868000Y-49234615D01*
X83817018Y-49111532D01*
X91991073Y-49111532D01*
X92089736Y-49378387D01*
X92699461Y-49604908D01*
X93349460Y-49580856D01*
X93838264Y-49378387D01*
X93936927Y-49111532D01*
X92964000Y-48138605D01*
X91991073Y-49111532D01*
X83817018Y-49111532D01*
X83641922Y-48688815D01*
X83224185Y-48271078D01*
X83189037Y-48256519D01*
X83247353Y-48073958D01*
X82383000Y-47209605D01*
X81518647Y-48073958D01*
X81541340Y-48145000D01*
X80892475Y-48145000D01*
X80826435Y-48100874D01*
X80743993Y-48084475D01*
X80747353Y-48073958D01*
X79883000Y-47209605D01*
X79018647Y-48073958D01*
X79022007Y-48084475D01*
X78939565Y-48100874D01*
X78648414Y-48295414D01*
X78453874Y-48586565D01*
X78385560Y-48930000D01*
X73379000Y-48930000D01*
X73379000Y-46801279D01*
X78386282Y-46801279D01*
X78412685Y-47391458D01*
X78587741Y-47814080D01*
X78839042Y-47894353D01*
X79703395Y-47030000D01*
X80062605Y-47030000D01*
X80926958Y-47894353D01*
X81133000Y-47828537D01*
X81339042Y-47894353D01*
X82203395Y-47030000D01*
X82562605Y-47030000D01*
X83426958Y-47894353D01*
X83678259Y-47814080D01*
X83721651Y-47694461D01*
X91318092Y-47694461D01*
X91342144Y-48344460D01*
X91544613Y-48833264D01*
X91811468Y-48931927D01*
X92784395Y-47959000D01*
X93143605Y-47959000D01*
X94116532Y-48931927D01*
X94317749Y-48857532D01*
X103421073Y-48857532D01*
X103519736Y-49124387D01*
X104129461Y-49350908D01*
X104779460Y-49326856D01*
X105268264Y-49124387D01*
X105366927Y-48857532D01*
X104394000Y-47884605D01*
X103421073Y-48857532D01*
X94317749Y-48857532D01*
X94383387Y-48833264D01*
X94609908Y-48223539D01*
X94585856Y-47573540D01*
X94530733Y-47440461D01*
X102748092Y-47440461D01*
X102772144Y-48090460D01*
X102974613Y-48579264D01*
X103241468Y-48677927D01*
X104214395Y-47705000D01*
X104573605Y-47705000D01*
X105546532Y-48677927D01*
X105813387Y-48579264D01*
X106039908Y-47969539D01*
X106015856Y-47319540D01*
X105813387Y-46830736D01*
X105546532Y-46732073D01*
X104573605Y-47705000D01*
X104214395Y-47705000D01*
X103241468Y-46732073D01*
X102974613Y-46830736D01*
X102748092Y-47440461D01*
X94530733Y-47440461D01*
X94383387Y-47084736D01*
X94116532Y-46986073D01*
X93143605Y-47959000D01*
X92784395Y-47959000D01*
X91811468Y-46986073D01*
X91544613Y-47084736D01*
X91318092Y-47694461D01*
X83721651Y-47694461D01*
X83879718Y-47258721D01*
X83859486Y-46806468D01*
X91991073Y-46806468D01*
X92964000Y-47779395D01*
X93936927Y-46806468D01*
X93843017Y-46552468D01*
X103421073Y-46552468D01*
X104394000Y-47525395D01*
X105366927Y-46552468D01*
X105268264Y-46285613D01*
X104658539Y-46059092D01*
X104008540Y-46083144D01*
X103519736Y-46285613D01*
X103421073Y-46552468D01*
X93843017Y-46552468D01*
X93838264Y-46539613D01*
X93228539Y-46313092D01*
X92578540Y-46337144D01*
X92089736Y-46539613D01*
X91991073Y-46806468D01*
X83859486Y-46806468D01*
X83853315Y-46668542D01*
X83678259Y-46245920D01*
X83426958Y-46165647D01*
X82562605Y-47030000D01*
X82203395Y-47030000D01*
X81339042Y-46165647D01*
X81133000Y-46231463D01*
X80926958Y-46165647D01*
X80062605Y-47030000D01*
X79703395Y-47030000D01*
X78839042Y-46165647D01*
X78587741Y-46245920D01*
X78386282Y-46801279D01*
X73379000Y-46801279D01*
X73379000Y-45986042D01*
X79018647Y-45986042D01*
X79883000Y-46850395D01*
X80747353Y-45986042D01*
X81518647Y-45986042D01*
X82383000Y-46850395D01*
X83247353Y-45986042D01*
X83167080Y-45734741D01*
X82611721Y-45533282D01*
X82021542Y-45559685D01*
X81598920Y-45734741D01*
X81518647Y-45986042D01*
X80747353Y-45986042D01*
X80667080Y-45734741D01*
X80111721Y-45533282D01*
X79521542Y-45559685D01*
X79098920Y-45734741D01*
X79018647Y-45986042D01*
X73379000Y-45986042D01*
X73379000Y-39582193D01*
X73716981Y-39920174D01*
X74549463Y-40265000D01*
X75450537Y-40265000D01*
X76283019Y-39920174D01*
X76648578Y-39554615D01*
X78398000Y-39554615D01*
X78398000Y-40145385D01*
X78624078Y-40691185D01*
X79041815Y-41108922D01*
X79587615Y-41335000D01*
X80178385Y-41335000D01*
X80724185Y-41108922D01*
X81133000Y-40700107D01*
X81541815Y-41108922D01*
X82087615Y-41335000D01*
X82678385Y-41335000D01*
X83224185Y-41108922D01*
X83641922Y-40691185D01*
X83868000Y-40145385D01*
X83868000Y-39554615D01*
X83641922Y-39008815D01*
X83224185Y-38591078D01*
X82678385Y-38365000D01*
X82087615Y-38365000D01*
X81541815Y-38591078D01*
X81133000Y-38999893D01*
X80724185Y-38591078D01*
X80178385Y-38365000D01*
X79587615Y-38365000D01*
X79041815Y-38591078D01*
X78624078Y-39008815D01*
X78398000Y-39554615D01*
X76648578Y-39554615D01*
X76920174Y-39283019D01*
X77265000Y-38450537D01*
X77265000Y-37631000D01*
X90196560Y-37631000D01*
X90196560Y-39331000D01*
X90245843Y-39578765D01*
X90386191Y-39788809D01*
X90596235Y-39929157D01*
X90844000Y-39978440D01*
X92544000Y-39978440D01*
X92791765Y-39929157D01*
X93001809Y-39788809D01*
X93142157Y-39578765D01*
X93162739Y-39475292D01*
X93467076Y-39752645D01*
X93877110Y-39922476D01*
X94107000Y-39801155D01*
X94107000Y-38608000D01*
X94087000Y-38608000D01*
X94087000Y-38354000D01*
X94107000Y-38354000D01*
X94107000Y-37160845D01*
X94361000Y-37160845D01*
X94361000Y-38354000D01*
X94381000Y-38354000D01*
X94381000Y-38608000D01*
X94361000Y-38608000D01*
X94361000Y-39801155D01*
X94590890Y-39922476D01*
X95000924Y-39752645D01*
X95429183Y-39362358D01*
X95490157Y-39232522D01*
X95703375Y-39551625D01*
X96194582Y-39879839D01*
X96627744Y-39966000D01*
X96920256Y-39966000D01*
X97353418Y-39879839D01*
X97844625Y-39551625D01*
X98172839Y-39060418D01*
X98288092Y-38481000D01*
X98172839Y-37901582D01*
X97844625Y-37410375D01*
X97353418Y-37082161D01*
X96920256Y-36996000D01*
X96627744Y-36996000D01*
X96194582Y-37082161D01*
X95703375Y-37410375D01*
X95490157Y-37729478D01*
X95429183Y-37599642D01*
X95000924Y-37209355D01*
X94590890Y-37039524D01*
X94361000Y-37160845D01*
X94107000Y-37160845D01*
X93877110Y-37039524D01*
X93467076Y-37209355D01*
X93162739Y-37486708D01*
X93142157Y-37383235D01*
X93001809Y-37173191D01*
X92791765Y-37032843D01*
X92544000Y-36983560D01*
X90844000Y-36983560D01*
X90596235Y-37032843D01*
X90386191Y-37173191D01*
X90245843Y-37383235D01*
X90196560Y-37631000D01*
X77265000Y-37631000D01*
X77265000Y-37549463D01*
X76920174Y-36716981D01*
X76498193Y-36295000D01*
X106501807Y-36295000D01*
X106079826Y-36716981D01*
G04 #@! TD*
M02*
