M48
;DRILL file {KiCad (5.0.0)} date 04/02/20 10:34:21
;FORMAT={-:-/ absolute / inch / decimal}
FMAT,2
INCH,TZ
T1C0.0157
T2C0.0295
T3C0.0315
T4C0.0394
T5C0.0433
%
G90
G05
M72
T1
X0.035Y-0.93
X0.055Y-0.875
X0.075Y-0.93
X0.0783Y-1.105
X0.09Y-0.875
X0.096Y-1.055
X0.11Y-1.565
X0.1147Y-1.4551
X0.1354Y-1.0943
X0.1916Y-1.0734
X0.22Y-1.535
X0.28Y-0.885
X0.29Y-1.445
X0.35Y-1.19
X0.46Y-1.535
X0.51Y-1.1629
X0.525Y-1.22
X0.54Y-1.365
X0.5469Y-1.1873
X0.565Y-1.53
X0.5855Y-1.3809
X0.595Y-0.39
X0.605Y-0.49
X0.605Y-1.2
X0.615Y-0.79
X0.615Y-1.555
X0.63Y-0.915
X0.6302Y-1.5052
X0.6534Y-1.2154
X0.655Y-0.87
X0.66Y-1.635
X0.685Y-1.24
X0.72Y-0.945
X0.725Y-0.625
X0.7314Y-0.701
X0.7398Y-1.9652
X0.74Y-0.26
X0.74Y-1.925
X0.7615Y-1.81
X0.7818Y-0.7531
X0.81Y-2.15
X0.8168Y-1.5063
X0.8275Y-1.3178
X0.85Y-0.595
X0.85Y-2.075
X0.875Y-1.345
X0.91Y-0.69
X0.915Y-1.57
X0.925Y-0.83
X0.965Y-1.36
X1.016Y-1.3578
X1.0271Y-0.96
X1.03Y-1.05
X1.049Y-2.0885
X1.06Y-0.725
X1.075Y-1.96
X1.085Y-1.145
X1.085Y-1.195
X1.095Y-0.065
X1.095Y-1.25
X1.105Y-0.585
X1.1115Y-1.995
X1.125Y-2.0835
X1.1365Y-1.49
X1.1503Y-1.0296
X1.165Y-1.37
X1.1666Y-0.9034
X1.175Y-1.585
X1.19Y-1.69
X1.19Y-1.765
X1.26Y-0.72
X1.295Y-0.885
X1.4Y-2.235
X1.405Y-0.715
X1.43Y-0.825
X1.44Y-0.755
X1.455Y-1.855
X1.4777Y-1.0667
X1.505Y-1.92
T2
X1.3013Y-1.915
X1.38Y-1.915
X0.47Y-0.0787
X0.5291Y-0.0787
X0.5881Y-0.0787
X0.6472Y-0.0787
X0.7062Y-0.0787
X0.7653Y-0.0787
X1.395Y-1.2428
X1.395Y-1.3019
X1.395Y-1.3609
X1.395Y-1.42
X0.7847Y-2.21
X0.8438Y-2.21
X0.9028Y-2.21
X0.9619Y-2.21
X1.0209Y-2.21
X1.08Y-2.21
X0.54Y-1.8
X0.6187Y-1.8
X0.925Y-1.8
X1.0037Y-1.8
X1.395Y-0.8828
X1.395Y-0.9419
X1.395Y-1.0009
X1.395Y-1.06
T3
X1.415Y-0.4213
X1.415Y-0.5
X1.285Y-0.4813
X1.285Y-0.56
T4
X1.52Y-0.125
X1.62Y-0.125
X0.155Y-1.16
X0.155Y-1.26
X0.155Y-1.36
X0.255Y-1.16
X0.255Y-1.26
X0.255Y-1.36
X0.11Y-2.18
X0.21Y-2.18
X0.31Y-2.18
X0.41Y-2.18
X0.51Y-2.18
X0.61Y-2.18
X1.31Y-0.17
X1.31Y-0.27
T5
X1.58Y-0.29
X1.58Y-0.39
X1.58Y-0.49
X1.58Y-0.59
X1.58Y-0.69
X1.58Y-0.79
X1.58Y-0.89
X1.58Y-0.99
X1.58Y-1.09
X1.58Y-1.19
X1.58Y-1.29
X1.58Y-1.39
X1.58Y-1.49
X1.58Y-1.59
X1.58Y-1.69
X1.58Y-1.79
X1.58Y-1.89
X1.58Y-1.99
X1.58Y-2.09
X1.58Y-2.19
X1.68Y-0.29
X1.68Y-0.39
X1.68Y-0.49
X1.68Y-0.59
X1.68Y-0.69
X1.68Y-0.79
X1.68Y-0.89
X1.68Y-0.99
X1.68Y-1.09
X1.68Y-1.19
X1.68Y-1.29
X1.68Y-1.39
X1.68Y-1.49
X1.68Y-1.59
X1.68Y-1.69
X1.68Y-1.79
X1.68Y-1.89
X1.68Y-1.99
X1.68Y-2.09
X1.68Y-2.19
T0
M30
