G04 #@! TF.GenerationSoftware,KiCad,Pcbnew,(5.0.0)*
G04 #@! TF.CreationDate,2020-04-02T10:34:19-07:00*
G04 #@! TF.ProjectId,controlBoard_rev05a,636F6E74726F6C426F6172645F726576,rev?*
G04 #@! TF.SameCoordinates,Original*
G04 #@! TF.FileFunction,Soldermask,Top*
G04 #@! TF.FilePolarity,Negative*
%FSLAX46Y46*%
G04 Gerber Fmt 4.6, Leading zero omitted, Abs format (unit mm)*
G04 Created by KiCad (PCBNEW (5.0.0)) date 04/02/20 10:34:19*
%MOMM*%
%LPD*%
G01*
G04 APERTURE LIST*
%ADD10C,0.100000*%
G04 APERTURE END LIST*
D10*
G36*
X24607012Y-55557057D02*
X24716207Y-55602287D01*
X24814481Y-55667952D01*
X24898048Y-55751519D01*
X24963713Y-55849793D01*
X25008943Y-55958988D01*
X25032000Y-56074904D01*
X25032000Y-56193096D01*
X25008943Y-56309012D01*
X24963713Y-56418207D01*
X24898048Y-56516481D01*
X24814481Y-56600048D01*
X24716207Y-56665713D01*
X24607012Y-56710943D01*
X24491096Y-56734000D01*
X24372904Y-56734000D01*
X24256988Y-56710943D01*
X24147793Y-56665713D01*
X24049519Y-56600048D01*
X23965952Y-56516481D01*
X23900287Y-56418207D01*
X23855057Y-56309012D01*
X23832000Y-56193096D01*
X23832000Y-56074904D01*
X23855057Y-55958988D01*
X23900287Y-55849793D01*
X23965952Y-55751519D01*
X24049519Y-55667952D01*
X24147793Y-55602287D01*
X24256988Y-55557057D01*
X24372904Y-55534000D01*
X24491096Y-55534000D01*
X24607012Y-55557057D01*
X24607012Y-55557057D01*
G37*
G36*
X26107012Y-55557057D02*
X26216207Y-55602287D01*
X26314481Y-55667952D01*
X26398048Y-55751519D01*
X26463713Y-55849793D01*
X26508943Y-55958988D01*
X26532000Y-56074904D01*
X26532000Y-56193096D01*
X26508943Y-56309012D01*
X26463713Y-56418207D01*
X26398048Y-56516481D01*
X26314481Y-56600048D01*
X26216207Y-56665713D01*
X26107012Y-56710943D01*
X25991096Y-56734000D01*
X25872904Y-56734000D01*
X25756988Y-56710943D01*
X25647793Y-56665713D01*
X25549519Y-56600048D01*
X25465952Y-56516481D01*
X25400287Y-56418207D01*
X25355057Y-56309012D01*
X25332000Y-56193096D01*
X25332000Y-56074904D01*
X25355057Y-55958988D01*
X25400287Y-55849793D01*
X25465952Y-55751519D01*
X25549519Y-55667952D01*
X25647793Y-55602287D01*
X25756988Y-55557057D01*
X25872904Y-55534000D01*
X25991096Y-55534000D01*
X26107012Y-55557057D01*
X26107012Y-55557057D01*
G37*
G36*
X27607012Y-55557057D02*
X27716207Y-55602287D01*
X27814481Y-55667952D01*
X27898048Y-55751519D01*
X27963713Y-55849793D01*
X28008943Y-55958988D01*
X28032000Y-56074904D01*
X28032000Y-56193096D01*
X28008943Y-56309012D01*
X27963713Y-56418207D01*
X27898048Y-56516481D01*
X27814481Y-56600048D01*
X27716207Y-56665713D01*
X27607012Y-56710943D01*
X27491096Y-56734000D01*
X27372904Y-56734000D01*
X27256988Y-56710943D01*
X27147793Y-56665713D01*
X27049519Y-56600048D01*
X26965952Y-56516481D01*
X26900287Y-56418207D01*
X26855057Y-56309012D01*
X26832000Y-56193096D01*
X26832000Y-56074904D01*
X26855057Y-55958988D01*
X26900287Y-55849793D01*
X26965952Y-55751519D01*
X27049519Y-55667952D01*
X27147793Y-55602287D01*
X27256988Y-55557057D01*
X27372904Y-55534000D01*
X27491096Y-55534000D01*
X27607012Y-55557057D01*
X27607012Y-55557057D01*
G37*
G36*
X20107012Y-55557057D02*
X20216207Y-55602287D01*
X20314481Y-55667952D01*
X20398048Y-55751519D01*
X20463713Y-55849793D01*
X20508943Y-55958988D01*
X20532000Y-56074904D01*
X20532000Y-56193096D01*
X20508943Y-56309012D01*
X20463713Y-56418207D01*
X20398048Y-56516481D01*
X20314481Y-56600048D01*
X20216207Y-56665713D01*
X20107012Y-56710943D01*
X19991096Y-56734000D01*
X19872904Y-56734000D01*
X19756988Y-56710943D01*
X19647793Y-56665713D01*
X19549519Y-56600048D01*
X19465952Y-56516481D01*
X19400287Y-56418207D01*
X19355057Y-56309012D01*
X19332000Y-56193096D01*
X19332000Y-56074904D01*
X19355057Y-55958988D01*
X19400287Y-55849793D01*
X19465952Y-55751519D01*
X19549519Y-55667952D01*
X19647793Y-55602287D01*
X19756988Y-55557057D01*
X19872904Y-55534000D01*
X19991096Y-55534000D01*
X20107012Y-55557057D01*
X20107012Y-55557057D01*
G37*
G36*
X23107012Y-55557057D02*
X23216207Y-55602287D01*
X23314481Y-55667952D01*
X23398048Y-55751519D01*
X23463713Y-55849793D01*
X23508943Y-55958988D01*
X23532000Y-56074904D01*
X23532000Y-56193096D01*
X23508943Y-56309012D01*
X23463713Y-56418207D01*
X23398048Y-56516481D01*
X23314481Y-56600048D01*
X23216207Y-56665713D01*
X23107012Y-56710943D01*
X22991096Y-56734000D01*
X22872904Y-56734000D01*
X22756988Y-56710943D01*
X22647793Y-56665713D01*
X22549519Y-56600048D01*
X22465952Y-56516481D01*
X22400287Y-56418207D01*
X22355057Y-56309012D01*
X22332000Y-56193096D01*
X22332000Y-56074904D01*
X22355057Y-55958988D01*
X22400287Y-55849793D01*
X22465952Y-55751519D01*
X22549519Y-55667952D01*
X22647793Y-55602287D01*
X22756988Y-55557057D01*
X22872904Y-55534000D01*
X22991096Y-55534000D01*
X23107012Y-55557057D01*
X23107012Y-55557057D01*
G37*
G36*
X21607012Y-55557057D02*
X21716207Y-55602287D01*
X21814481Y-55667952D01*
X21898048Y-55751519D01*
X21963713Y-55849793D01*
X22008943Y-55958988D01*
X22032000Y-56074904D01*
X22032000Y-56193096D01*
X22008943Y-56309012D01*
X21963713Y-56418207D01*
X21898048Y-56516481D01*
X21814481Y-56600048D01*
X21716207Y-56665713D01*
X21607012Y-56710943D01*
X21491096Y-56734000D01*
X21372904Y-56734000D01*
X21256988Y-56710943D01*
X21147793Y-56665713D01*
X21049519Y-56600048D01*
X20965952Y-56516481D01*
X20900287Y-56418207D01*
X20855057Y-56309012D01*
X20832000Y-56193096D01*
X20832000Y-56074904D01*
X20855057Y-55958988D01*
X20900287Y-55849793D01*
X20965952Y-55751519D01*
X21049519Y-55667952D01*
X21147793Y-55602287D01*
X21256988Y-55557057D01*
X21372904Y-55534000D01*
X21491096Y-55534000D01*
X21607012Y-55557057D01*
X21607012Y-55557057D01*
G37*
G36*
X40279027Y-54886852D02*
X40420401Y-54929738D01*
X40550694Y-54999380D01*
X40664896Y-55093104D01*
X40758620Y-55207306D01*
X40828262Y-55337599D01*
X40871148Y-55478973D01*
X40885628Y-55626000D01*
X40871148Y-55773027D01*
X40828262Y-55914401D01*
X40758620Y-56044694D01*
X40664896Y-56158896D01*
X40550694Y-56252620D01*
X40420401Y-56322262D01*
X40279027Y-56365148D01*
X40168839Y-56376000D01*
X40095161Y-56376000D01*
X39984973Y-56365148D01*
X39843599Y-56322262D01*
X39713306Y-56252620D01*
X39599104Y-56158896D01*
X39505380Y-56044694D01*
X39435738Y-55914401D01*
X39392852Y-55773027D01*
X39378372Y-55626000D01*
X39392852Y-55478973D01*
X39435738Y-55337599D01*
X39505380Y-55207306D01*
X39599104Y-55093104D01*
X39713306Y-54999380D01*
X39843599Y-54929738D01*
X39984973Y-54886852D01*
X40095161Y-54876000D01*
X40168839Y-54876000D01*
X40279027Y-54886852D01*
X40279027Y-54886852D01*
G37*
G36*
X42819027Y-54886852D02*
X42960401Y-54929738D01*
X43090694Y-54999380D01*
X43204896Y-55093104D01*
X43298620Y-55207306D01*
X43368262Y-55337599D01*
X43411148Y-55478973D01*
X43425628Y-55626000D01*
X43411148Y-55773027D01*
X43368262Y-55914401D01*
X43298620Y-56044694D01*
X43204896Y-56158896D01*
X43090694Y-56252620D01*
X42960401Y-56322262D01*
X42819027Y-56365148D01*
X42708839Y-56376000D01*
X42635161Y-56376000D01*
X42524973Y-56365148D01*
X42383599Y-56322262D01*
X42253306Y-56252620D01*
X42139104Y-56158896D01*
X42045380Y-56044694D01*
X41975738Y-55914401D01*
X41932852Y-55773027D01*
X41918372Y-55626000D01*
X41932852Y-55478973D01*
X41975738Y-55337599D01*
X42045380Y-55207306D01*
X42139104Y-55093104D01*
X42253306Y-54999380D01*
X42383599Y-54929738D01*
X42524973Y-54886852D01*
X42635161Y-54876000D01*
X42708839Y-54876000D01*
X42819027Y-54886852D01*
X42819027Y-54886852D01*
G37*
G36*
X2960630Y-54534299D02*
X3120855Y-54582903D01*
X3268520Y-54661831D01*
X3397949Y-54768051D01*
X3504169Y-54897480D01*
X3583097Y-55045145D01*
X3631701Y-55205370D01*
X3648112Y-55372000D01*
X3631701Y-55538630D01*
X3583097Y-55698855D01*
X3504169Y-55846520D01*
X3397949Y-55975949D01*
X3268520Y-56082169D01*
X3120855Y-56161097D01*
X2960630Y-56209701D01*
X2835752Y-56222000D01*
X2752248Y-56222000D01*
X2627370Y-56209701D01*
X2467145Y-56161097D01*
X2319480Y-56082169D01*
X2190051Y-55975949D01*
X2083831Y-55846520D01*
X2004903Y-55698855D01*
X1956299Y-55538630D01*
X1939888Y-55372000D01*
X1956299Y-55205370D01*
X2004903Y-55045145D01*
X2083831Y-54897480D01*
X2190051Y-54768051D01*
X2319480Y-54661831D01*
X2467145Y-54582903D01*
X2627370Y-54534299D01*
X2752248Y-54522000D01*
X2835752Y-54522000D01*
X2960630Y-54534299D01*
X2960630Y-54534299D01*
G37*
G36*
X5500630Y-54534299D02*
X5660855Y-54582903D01*
X5808520Y-54661831D01*
X5937949Y-54768051D01*
X6044169Y-54897480D01*
X6123097Y-55045145D01*
X6171701Y-55205370D01*
X6188112Y-55372000D01*
X6171701Y-55538630D01*
X6123097Y-55698855D01*
X6044169Y-55846520D01*
X5937949Y-55975949D01*
X5808520Y-56082169D01*
X5660855Y-56161097D01*
X5500630Y-56209701D01*
X5375752Y-56222000D01*
X5292248Y-56222000D01*
X5167370Y-56209701D01*
X5007145Y-56161097D01*
X4859480Y-56082169D01*
X4730051Y-55975949D01*
X4623831Y-55846520D01*
X4544903Y-55698855D01*
X4496299Y-55538630D01*
X4479888Y-55372000D01*
X4496299Y-55205370D01*
X4544903Y-55045145D01*
X4623831Y-54897480D01*
X4730051Y-54768051D01*
X4859480Y-54661831D01*
X5007145Y-54582903D01*
X5167370Y-54534299D01*
X5292248Y-54522000D01*
X5375752Y-54522000D01*
X5500630Y-54534299D01*
X5500630Y-54534299D01*
G37*
G36*
X8040630Y-54534299D02*
X8200855Y-54582903D01*
X8348520Y-54661831D01*
X8477949Y-54768051D01*
X8584169Y-54897480D01*
X8663097Y-55045145D01*
X8711701Y-55205370D01*
X8728112Y-55372000D01*
X8711701Y-55538630D01*
X8663097Y-55698855D01*
X8584169Y-55846520D01*
X8477949Y-55975949D01*
X8348520Y-56082169D01*
X8200855Y-56161097D01*
X8040630Y-56209701D01*
X7915752Y-56222000D01*
X7832248Y-56222000D01*
X7707370Y-56209701D01*
X7547145Y-56161097D01*
X7399480Y-56082169D01*
X7270051Y-55975949D01*
X7163831Y-55846520D01*
X7084903Y-55698855D01*
X7036299Y-55538630D01*
X7019888Y-55372000D01*
X7036299Y-55205370D01*
X7084903Y-55045145D01*
X7163831Y-54897480D01*
X7270051Y-54768051D01*
X7399480Y-54661831D01*
X7547145Y-54582903D01*
X7707370Y-54534299D01*
X7832248Y-54522000D01*
X7915752Y-54522000D01*
X8040630Y-54534299D01*
X8040630Y-54534299D01*
G37*
G36*
X10580630Y-54534299D02*
X10740855Y-54582903D01*
X10888520Y-54661831D01*
X11017949Y-54768051D01*
X11124169Y-54897480D01*
X11203097Y-55045145D01*
X11251701Y-55205370D01*
X11268112Y-55372000D01*
X11251701Y-55538630D01*
X11203097Y-55698855D01*
X11124169Y-55846520D01*
X11017949Y-55975949D01*
X10888520Y-56082169D01*
X10740855Y-56161097D01*
X10580630Y-56209701D01*
X10455752Y-56222000D01*
X10372248Y-56222000D01*
X10247370Y-56209701D01*
X10087145Y-56161097D01*
X9939480Y-56082169D01*
X9810051Y-55975949D01*
X9703831Y-55846520D01*
X9624903Y-55698855D01*
X9576299Y-55538630D01*
X9559888Y-55372000D01*
X9576299Y-55205370D01*
X9624903Y-55045145D01*
X9703831Y-54897480D01*
X9810051Y-54768051D01*
X9939480Y-54661831D01*
X10087145Y-54582903D01*
X10247370Y-54534299D01*
X10372248Y-54522000D01*
X10455752Y-54522000D01*
X10580630Y-54534299D01*
X10580630Y-54534299D01*
G37*
G36*
X13120630Y-54534299D02*
X13280855Y-54582903D01*
X13428520Y-54661831D01*
X13557949Y-54768051D01*
X13664169Y-54897480D01*
X13743097Y-55045145D01*
X13791701Y-55205370D01*
X13808112Y-55372000D01*
X13791701Y-55538630D01*
X13743097Y-55698855D01*
X13664169Y-55846520D01*
X13557949Y-55975949D01*
X13428520Y-56082169D01*
X13280855Y-56161097D01*
X13120630Y-56209701D01*
X12995752Y-56222000D01*
X12912248Y-56222000D01*
X12787370Y-56209701D01*
X12627145Y-56161097D01*
X12479480Y-56082169D01*
X12350051Y-55975949D01*
X12243831Y-55846520D01*
X12164903Y-55698855D01*
X12116299Y-55538630D01*
X12099888Y-55372000D01*
X12116299Y-55205370D01*
X12164903Y-55045145D01*
X12243831Y-54897480D01*
X12350051Y-54768051D01*
X12479480Y-54661831D01*
X12627145Y-54582903D01*
X12787370Y-54534299D01*
X12912248Y-54522000D01*
X12995752Y-54522000D01*
X13120630Y-54534299D01*
X13120630Y-54534299D01*
G37*
G36*
X16344000Y-56222000D02*
X14644000Y-56222000D01*
X14644000Y-54522000D01*
X16344000Y-54522000D01*
X16344000Y-56222000D01*
X16344000Y-56222000D01*
G37*
G36*
X35871616Y-55154595D02*
X35900813Y-55163452D01*
X35927718Y-55177833D01*
X35951308Y-55197192D01*
X35970667Y-55220782D01*
X35985048Y-55247687D01*
X35993905Y-55276884D01*
X35997500Y-55313390D01*
X35997500Y-55938610D01*
X35993905Y-55975116D01*
X35985048Y-56004313D01*
X35970667Y-56031218D01*
X35951308Y-56054808D01*
X35927718Y-56074167D01*
X35900813Y-56088548D01*
X35871616Y-56097405D01*
X35835110Y-56101000D01*
X35284890Y-56101000D01*
X35248384Y-56097405D01*
X35219187Y-56088548D01*
X35192282Y-56074167D01*
X35168692Y-56054808D01*
X35149333Y-56031218D01*
X35134952Y-56004313D01*
X35126095Y-55975116D01*
X35122500Y-55938610D01*
X35122500Y-55313390D01*
X35126095Y-55276884D01*
X35134952Y-55247687D01*
X35149333Y-55220782D01*
X35168692Y-55197192D01*
X35192282Y-55177833D01*
X35219187Y-55163452D01*
X35248384Y-55154595D01*
X35284890Y-55151000D01*
X35835110Y-55151000D01*
X35871616Y-55154595D01*
X35871616Y-55154595D01*
G37*
G36*
X31020116Y-55154595D02*
X31049313Y-55163452D01*
X31076218Y-55177833D01*
X31099808Y-55197192D01*
X31119167Y-55220782D01*
X31133548Y-55247687D01*
X31142405Y-55276884D01*
X31146000Y-55313390D01*
X31146000Y-55938610D01*
X31142405Y-55975116D01*
X31133548Y-56004313D01*
X31119167Y-56031218D01*
X31099808Y-56054808D01*
X31076218Y-56074167D01*
X31049313Y-56088548D01*
X31020116Y-56097405D01*
X30983610Y-56101000D01*
X30433390Y-56101000D01*
X30396884Y-56097405D01*
X30367687Y-56088548D01*
X30340782Y-56074167D01*
X30317192Y-56054808D01*
X30297833Y-56031218D01*
X30283452Y-56004313D01*
X30274595Y-55975116D01*
X30271000Y-55938610D01*
X30271000Y-55313390D01*
X30274595Y-55276884D01*
X30283452Y-55247687D01*
X30297833Y-55220782D01*
X30317192Y-55197192D01*
X30340782Y-55177833D01*
X30367687Y-55163452D01*
X30396884Y-55154595D01*
X30433390Y-55151000D01*
X30983610Y-55151000D01*
X31020116Y-55154595D01*
X31020116Y-55154595D01*
G37*
G36*
X32595116Y-55154595D02*
X32624313Y-55163452D01*
X32651218Y-55177833D01*
X32674808Y-55197192D01*
X32694167Y-55220782D01*
X32708548Y-55247687D01*
X32717405Y-55276884D01*
X32721000Y-55313390D01*
X32721000Y-55938610D01*
X32717405Y-55975116D01*
X32708548Y-56004313D01*
X32694167Y-56031218D01*
X32674808Y-56054808D01*
X32651218Y-56074167D01*
X32624313Y-56088548D01*
X32595116Y-56097405D01*
X32558610Y-56101000D01*
X32008390Y-56101000D01*
X31971884Y-56097405D01*
X31942687Y-56088548D01*
X31915782Y-56074167D01*
X31892192Y-56054808D01*
X31872833Y-56031218D01*
X31858452Y-56004313D01*
X31849595Y-55975116D01*
X31846000Y-55938610D01*
X31846000Y-55313390D01*
X31849595Y-55276884D01*
X31858452Y-55247687D01*
X31872833Y-55220782D01*
X31892192Y-55197192D01*
X31915782Y-55177833D01*
X31942687Y-55163452D01*
X31971884Y-55154595D01*
X32008390Y-55151000D01*
X32558610Y-55151000D01*
X32595116Y-55154595D01*
X32595116Y-55154595D01*
G37*
G36*
X34296616Y-55154595D02*
X34325813Y-55163452D01*
X34352718Y-55177833D01*
X34376308Y-55197192D01*
X34395667Y-55220782D01*
X34410048Y-55247687D01*
X34418905Y-55276884D01*
X34422500Y-55313390D01*
X34422500Y-55938610D01*
X34418905Y-55975116D01*
X34410048Y-56004313D01*
X34395667Y-56031218D01*
X34376308Y-56054808D01*
X34352718Y-56074167D01*
X34325813Y-56088548D01*
X34296616Y-56097405D01*
X34260110Y-56101000D01*
X33709890Y-56101000D01*
X33673384Y-56097405D01*
X33644187Y-56088548D01*
X33617282Y-56074167D01*
X33593692Y-56054808D01*
X33574333Y-56031218D01*
X33559952Y-56004313D01*
X33551095Y-55975116D01*
X33547500Y-55938610D01*
X33547500Y-55313390D01*
X33551095Y-55276884D01*
X33559952Y-55247687D01*
X33574333Y-55220782D01*
X33593692Y-55197192D01*
X33617282Y-55177833D01*
X33644187Y-55163452D01*
X33673384Y-55154595D01*
X33709890Y-55151000D01*
X34260110Y-55151000D01*
X34296616Y-55154595D01*
X34296616Y-55154595D01*
G37*
G36*
X18891116Y-53312595D02*
X18920313Y-53321452D01*
X18947218Y-53335833D01*
X18970808Y-53355192D01*
X18990167Y-53378782D01*
X19004548Y-53405687D01*
X19013405Y-53434884D01*
X19017000Y-53471390D01*
X19017000Y-54021610D01*
X19013405Y-54058116D01*
X19004548Y-54087313D01*
X18990167Y-54114218D01*
X18970808Y-54137808D01*
X18947218Y-54157167D01*
X18920313Y-54171548D01*
X18891116Y-54180405D01*
X18854610Y-54184000D01*
X18229390Y-54184000D01*
X18192884Y-54180405D01*
X18163687Y-54171548D01*
X18136782Y-54157167D01*
X18113192Y-54137808D01*
X18093833Y-54114218D01*
X18079452Y-54087313D01*
X18070595Y-54058116D01*
X18067000Y-54021610D01*
X18067000Y-53471390D01*
X18070595Y-53434884D01*
X18079452Y-53405687D01*
X18093833Y-53378782D01*
X18113192Y-53355192D01*
X18136782Y-53335833D01*
X18163687Y-53321452D01*
X18192884Y-53312595D01*
X18229390Y-53309000D01*
X18854610Y-53309000D01*
X18891116Y-53312595D01*
X18891116Y-53312595D01*
G37*
G36*
X42819027Y-52346852D02*
X42960401Y-52389738D01*
X43090694Y-52459380D01*
X43204896Y-52553104D01*
X43298620Y-52667306D01*
X43368262Y-52797599D01*
X43411148Y-52938973D01*
X43425628Y-53086000D01*
X43411148Y-53233027D01*
X43368262Y-53374401D01*
X43298620Y-53504694D01*
X43204896Y-53618896D01*
X43090694Y-53712620D01*
X42960401Y-53782262D01*
X42819027Y-53825148D01*
X42708839Y-53836000D01*
X42635161Y-53836000D01*
X42524973Y-53825148D01*
X42383599Y-53782262D01*
X42253306Y-53712620D01*
X42139104Y-53618896D01*
X42045380Y-53504694D01*
X41975738Y-53374401D01*
X41932852Y-53233027D01*
X41918372Y-53086000D01*
X41932852Y-52938973D01*
X41975738Y-52797599D01*
X42045380Y-52667306D01*
X42139104Y-52553104D01*
X42253306Y-52459380D01*
X42383599Y-52389738D01*
X42524973Y-52346852D01*
X42635161Y-52336000D01*
X42708839Y-52336000D01*
X42819027Y-52346852D01*
X42819027Y-52346852D01*
G37*
G36*
X40279027Y-52346852D02*
X40420401Y-52389738D01*
X40550694Y-52459380D01*
X40664896Y-52553104D01*
X40758620Y-52667306D01*
X40828262Y-52797599D01*
X40871148Y-52938973D01*
X40885628Y-53086000D01*
X40871148Y-53233027D01*
X40828262Y-53374401D01*
X40758620Y-53504694D01*
X40664896Y-53618896D01*
X40550694Y-53712620D01*
X40420401Y-53782262D01*
X40279027Y-53825148D01*
X40168839Y-53836000D01*
X40095161Y-53836000D01*
X39984973Y-53825148D01*
X39843599Y-53782262D01*
X39713306Y-53712620D01*
X39599104Y-53618896D01*
X39505380Y-53504694D01*
X39435738Y-53374401D01*
X39392852Y-53233027D01*
X39378372Y-53086000D01*
X39392852Y-52938973D01*
X39435738Y-52797599D01*
X39505380Y-52667306D01*
X39599104Y-52553104D01*
X39713306Y-52459380D01*
X39843599Y-52389738D01*
X39984973Y-52346852D01*
X40095161Y-52336000D01*
X40168839Y-52336000D01*
X40279027Y-52346852D01*
X40279027Y-52346852D01*
G37*
G36*
X18891116Y-51737595D02*
X18920313Y-51746452D01*
X18947218Y-51760833D01*
X18970808Y-51780192D01*
X18990167Y-51803782D01*
X19004548Y-51830687D01*
X19013405Y-51859884D01*
X19017000Y-51896390D01*
X19017000Y-52446610D01*
X19013405Y-52483116D01*
X19004548Y-52512313D01*
X18990167Y-52539218D01*
X18970808Y-52562808D01*
X18947218Y-52582167D01*
X18920313Y-52596548D01*
X18891116Y-52605405D01*
X18854610Y-52609000D01*
X18229390Y-52609000D01*
X18192884Y-52605405D01*
X18163687Y-52596548D01*
X18136782Y-52582167D01*
X18113192Y-52562808D01*
X18093833Y-52539218D01*
X18079452Y-52512313D01*
X18070595Y-52483116D01*
X18067000Y-52446610D01*
X18067000Y-51896390D01*
X18070595Y-51859884D01*
X18079452Y-51830687D01*
X18093833Y-51803782D01*
X18113192Y-51780192D01*
X18136782Y-51760833D01*
X18163687Y-51746452D01*
X18192884Y-51737595D01*
X18229390Y-51734000D01*
X18854610Y-51734000D01*
X18891116Y-51737595D01*
X18891116Y-51737595D01*
G37*
G36*
X40279027Y-49806852D02*
X40420401Y-49849738D01*
X40550694Y-49919380D01*
X40664896Y-50013104D01*
X40758620Y-50127306D01*
X40828262Y-50257599D01*
X40871148Y-50398973D01*
X40885628Y-50546000D01*
X40871148Y-50693027D01*
X40828262Y-50834401D01*
X40758620Y-50964694D01*
X40664896Y-51078896D01*
X40550694Y-51172620D01*
X40420401Y-51242262D01*
X40279027Y-51285148D01*
X40168839Y-51296000D01*
X40095161Y-51296000D01*
X39984973Y-51285148D01*
X39843599Y-51242262D01*
X39713306Y-51172620D01*
X39599104Y-51078896D01*
X39505380Y-50964694D01*
X39435738Y-50834401D01*
X39392852Y-50693027D01*
X39378372Y-50546000D01*
X39392852Y-50398973D01*
X39435738Y-50257599D01*
X39505380Y-50127306D01*
X39599104Y-50013104D01*
X39713306Y-49919380D01*
X39843599Y-49849738D01*
X39984973Y-49806852D01*
X40095161Y-49796000D01*
X40168839Y-49796000D01*
X40279027Y-49806852D01*
X40279027Y-49806852D01*
G37*
G36*
X42819027Y-49806852D02*
X42960401Y-49849738D01*
X43090694Y-49919380D01*
X43204896Y-50013104D01*
X43298620Y-50127306D01*
X43368262Y-50257599D01*
X43411148Y-50398973D01*
X43425628Y-50546000D01*
X43411148Y-50693027D01*
X43368262Y-50834401D01*
X43298620Y-50964694D01*
X43204896Y-51078896D01*
X43090694Y-51172620D01*
X42960401Y-51242262D01*
X42819027Y-51285148D01*
X42708839Y-51296000D01*
X42635161Y-51296000D01*
X42524973Y-51285148D01*
X42383599Y-51242262D01*
X42253306Y-51172620D01*
X42139104Y-51078896D01*
X42045380Y-50964694D01*
X41975738Y-50834401D01*
X41932852Y-50693027D01*
X41918372Y-50546000D01*
X41932852Y-50398973D01*
X41975738Y-50257599D01*
X42045380Y-50127306D01*
X42139104Y-50013104D01*
X42253306Y-49919380D01*
X42383599Y-49849738D01*
X42524973Y-49806852D01*
X42635161Y-49796000D01*
X42708839Y-49796000D01*
X42819027Y-49806852D01*
X42819027Y-49806852D01*
G37*
G36*
X33169621Y-47774682D02*
X33282721Y-47808990D01*
X33386955Y-47864704D01*
X33478317Y-47939683D01*
X33553296Y-48031045D01*
X33609010Y-48135279D01*
X33643318Y-48248379D01*
X33652000Y-48336526D01*
X33652000Y-48945474D01*
X33643318Y-49033621D01*
X33609010Y-49146721D01*
X33553296Y-49250955D01*
X33478317Y-49342317D01*
X33386954Y-49417296D01*
X33282720Y-49473010D01*
X33169620Y-49507318D01*
X33052000Y-49518903D01*
X32934379Y-49507318D01*
X32821279Y-49473010D01*
X32717045Y-49417296D01*
X32625683Y-49342317D01*
X32550704Y-49250954D01*
X32494990Y-49146720D01*
X32460682Y-49033620D01*
X32452000Y-48945473D01*
X32452000Y-48336526D01*
X32460682Y-48248379D01*
X32494990Y-48135279D01*
X32550705Y-48031045D01*
X32625684Y-47939683D01*
X32717046Y-47864704D01*
X32821280Y-47808990D01*
X32934380Y-47774682D01*
X33052000Y-47763097D01*
X33169621Y-47774682D01*
X33169621Y-47774682D01*
G37*
G36*
X35652000Y-49516000D02*
X34452000Y-49516000D01*
X34452000Y-47766000D01*
X35652000Y-47766000D01*
X35652000Y-49516000D01*
X35652000Y-49516000D01*
G37*
G36*
X40279027Y-47266852D02*
X40420401Y-47309738D01*
X40550694Y-47379380D01*
X40664896Y-47473104D01*
X40758620Y-47587306D01*
X40828262Y-47717599D01*
X40871148Y-47858973D01*
X40885628Y-48006000D01*
X40871148Y-48153027D01*
X40828262Y-48294401D01*
X40758620Y-48424694D01*
X40664896Y-48538896D01*
X40550694Y-48632620D01*
X40420401Y-48702262D01*
X40279027Y-48745148D01*
X40168839Y-48756000D01*
X40095161Y-48756000D01*
X39984973Y-48745148D01*
X39843599Y-48702262D01*
X39713306Y-48632620D01*
X39599104Y-48538896D01*
X39505380Y-48424694D01*
X39435738Y-48294401D01*
X39392852Y-48153027D01*
X39378372Y-48006000D01*
X39392852Y-47858973D01*
X39435738Y-47717599D01*
X39505380Y-47587306D01*
X39599104Y-47473104D01*
X39713306Y-47379380D01*
X39843599Y-47309738D01*
X39984973Y-47266852D01*
X40095161Y-47256000D01*
X40168839Y-47256000D01*
X40279027Y-47266852D01*
X40279027Y-47266852D01*
G37*
G36*
X42819027Y-47266852D02*
X42960401Y-47309738D01*
X43090694Y-47379380D01*
X43204896Y-47473104D01*
X43298620Y-47587306D01*
X43368262Y-47717599D01*
X43411148Y-47858973D01*
X43425628Y-48006000D01*
X43411148Y-48153027D01*
X43368262Y-48294401D01*
X43298620Y-48424694D01*
X43204896Y-48538896D01*
X43090694Y-48632620D01*
X42960401Y-48702262D01*
X42819027Y-48745148D01*
X42708839Y-48756000D01*
X42635161Y-48756000D01*
X42524973Y-48745148D01*
X42383599Y-48702262D01*
X42253306Y-48632620D01*
X42139104Y-48538896D01*
X42045380Y-48424694D01*
X41975738Y-48294401D01*
X41932852Y-48153027D01*
X41918372Y-48006000D01*
X41932852Y-47858973D01*
X41975738Y-47717599D01*
X42045380Y-47587306D01*
X42139104Y-47473104D01*
X42253306Y-47379380D01*
X42383599Y-47309738D01*
X42524973Y-47266852D01*
X42635161Y-47256000D01*
X42708839Y-47256000D01*
X42819027Y-47266852D01*
X42819027Y-47266852D01*
G37*
G36*
X4640000Y-48447000D02*
X2390000Y-48447000D01*
X2390000Y-46847000D01*
X4640000Y-46847000D01*
X4640000Y-48447000D01*
X4640000Y-48447000D01*
G37*
G36*
X9040000Y-48447000D02*
X6790000Y-48447000D01*
X6790000Y-46847000D01*
X9040000Y-46847000D01*
X9040000Y-48447000D01*
X9040000Y-48447000D01*
G37*
G36*
X15833620Y-44853682D02*
X15946720Y-44887990D01*
X16050954Y-44943704D01*
X16142317Y-45018683D01*
X16217296Y-45110045D01*
X16273010Y-45214279D01*
X16307318Y-45327379D01*
X16316000Y-45415526D01*
X16316000Y-46024474D01*
X16307318Y-46112621D01*
X16273010Y-46225721D01*
X16217296Y-46329955D01*
X16142317Y-46421317D01*
X16050955Y-46496296D01*
X15946721Y-46552010D01*
X15833621Y-46586318D01*
X15716000Y-46597903D01*
X15598380Y-46586318D01*
X15485280Y-46552010D01*
X15381046Y-46496296D01*
X15289684Y-46421317D01*
X15214705Y-46329955D01*
X15158990Y-46225721D01*
X15124682Y-46112621D01*
X15116000Y-46024474D01*
X15116000Y-45415527D01*
X15124682Y-45327380D01*
X15158990Y-45214280D01*
X15214704Y-45110046D01*
X15289683Y-45018683D01*
X15381045Y-44943704D01*
X15485279Y-44887990D01*
X15598379Y-44853682D01*
X15716000Y-44842097D01*
X15833620Y-44853682D01*
X15833620Y-44853682D01*
G37*
G36*
X25612620Y-44853682D02*
X25725720Y-44887990D01*
X25829954Y-44943704D01*
X25921317Y-45018683D01*
X25996296Y-45110045D01*
X26052010Y-45214279D01*
X26086318Y-45327379D01*
X26095000Y-45415526D01*
X26095000Y-46024474D01*
X26086318Y-46112621D01*
X26052010Y-46225721D01*
X25996296Y-46329955D01*
X25921317Y-46421317D01*
X25829955Y-46496296D01*
X25725721Y-46552010D01*
X25612621Y-46586318D01*
X25495000Y-46597903D01*
X25377380Y-46586318D01*
X25264280Y-46552010D01*
X25160046Y-46496296D01*
X25068684Y-46421317D01*
X24993705Y-46329955D01*
X24937990Y-46225721D01*
X24903682Y-46112621D01*
X24895000Y-46024474D01*
X24895000Y-45415527D01*
X24903682Y-45327380D01*
X24937990Y-45214280D01*
X24993704Y-45110046D01*
X25068683Y-45018683D01*
X25160045Y-44943704D01*
X25264279Y-44887990D01*
X25377379Y-44853682D01*
X25495000Y-44842097D01*
X25612620Y-44853682D01*
X25612620Y-44853682D01*
G37*
G36*
X14316000Y-46595000D02*
X13116000Y-46595000D01*
X13116000Y-44845000D01*
X14316000Y-44845000D01*
X14316000Y-46595000D01*
X14316000Y-46595000D01*
G37*
G36*
X24095000Y-46595000D02*
X22895000Y-46595000D01*
X22895000Y-44845000D01*
X24095000Y-44845000D01*
X24095000Y-46595000D01*
X24095000Y-46595000D01*
G37*
G36*
X40279027Y-44726852D02*
X40420401Y-44769738D01*
X40550694Y-44839380D01*
X40664896Y-44933104D01*
X40758620Y-45047306D01*
X40828262Y-45177599D01*
X40871148Y-45318973D01*
X40885628Y-45466000D01*
X40871148Y-45613027D01*
X40828262Y-45754401D01*
X40758620Y-45884694D01*
X40664896Y-45998896D01*
X40550694Y-46092620D01*
X40420401Y-46162262D01*
X40279027Y-46205148D01*
X40168839Y-46216000D01*
X40095161Y-46216000D01*
X39984973Y-46205148D01*
X39843599Y-46162262D01*
X39713306Y-46092620D01*
X39599104Y-45998896D01*
X39505380Y-45884694D01*
X39435738Y-45754401D01*
X39392852Y-45613027D01*
X39378372Y-45466000D01*
X39392852Y-45318973D01*
X39435738Y-45177599D01*
X39505380Y-45047306D01*
X39599104Y-44933104D01*
X39713306Y-44839380D01*
X39843599Y-44769738D01*
X39984973Y-44726852D01*
X40095161Y-44716000D01*
X40168839Y-44716000D01*
X40279027Y-44726852D01*
X40279027Y-44726852D01*
G37*
G36*
X42819027Y-44726852D02*
X42960401Y-44769738D01*
X43090694Y-44839380D01*
X43204896Y-44933104D01*
X43298620Y-45047306D01*
X43368262Y-45177599D01*
X43411148Y-45318973D01*
X43425628Y-45466000D01*
X43411148Y-45613027D01*
X43368262Y-45754401D01*
X43298620Y-45884694D01*
X43204896Y-45998896D01*
X43090694Y-46092620D01*
X42960401Y-46162262D01*
X42819027Y-46205148D01*
X42708839Y-46216000D01*
X42635161Y-46216000D01*
X42524973Y-46205148D01*
X42383599Y-46162262D01*
X42253306Y-46092620D01*
X42139104Y-45998896D01*
X42045380Y-45884694D01*
X41975738Y-45754401D01*
X41932852Y-45613027D01*
X41918372Y-45466000D01*
X41932852Y-45318973D01*
X41975738Y-45177599D01*
X42045380Y-45047306D01*
X42139104Y-44933104D01*
X42253306Y-44839380D01*
X42383599Y-44769738D01*
X42524973Y-44726852D01*
X42635161Y-44716000D01*
X42708839Y-44716000D01*
X42819027Y-44726852D01*
X42819027Y-44726852D01*
G37*
G36*
X9040000Y-44847000D02*
X6790000Y-44847000D01*
X6790000Y-43247000D01*
X9040000Y-43247000D01*
X9040000Y-44847000D01*
X9040000Y-44847000D01*
G37*
G36*
X4640000Y-44847000D02*
X2390000Y-44847000D01*
X2390000Y-43247000D01*
X4640000Y-43247000D01*
X4640000Y-44847000D01*
X4640000Y-44847000D01*
G37*
G36*
X40279027Y-42186852D02*
X40420401Y-42229738D01*
X40550694Y-42299380D01*
X40664896Y-42393104D01*
X40758620Y-42507306D01*
X40828262Y-42637599D01*
X40871148Y-42778973D01*
X40885628Y-42926000D01*
X40871148Y-43073027D01*
X40828262Y-43214401D01*
X40758620Y-43344694D01*
X40664896Y-43458896D01*
X40550694Y-43552620D01*
X40420401Y-43622262D01*
X40279027Y-43665148D01*
X40168839Y-43676000D01*
X40095161Y-43676000D01*
X39984973Y-43665148D01*
X39843599Y-43622262D01*
X39713306Y-43552620D01*
X39599104Y-43458896D01*
X39505380Y-43344694D01*
X39435738Y-43214401D01*
X39392852Y-43073027D01*
X39378372Y-42926000D01*
X39392852Y-42778973D01*
X39435738Y-42637599D01*
X39505380Y-42507306D01*
X39599104Y-42393104D01*
X39713306Y-42299380D01*
X39843599Y-42229738D01*
X39984973Y-42186852D01*
X40095161Y-42176000D01*
X40168839Y-42176000D01*
X40279027Y-42186852D01*
X40279027Y-42186852D01*
G37*
G36*
X42819027Y-42186852D02*
X42960401Y-42229738D01*
X43090694Y-42299380D01*
X43204896Y-42393104D01*
X43298620Y-42507306D01*
X43368262Y-42637599D01*
X43411148Y-42778973D01*
X43425628Y-42926000D01*
X43411148Y-43073027D01*
X43368262Y-43214401D01*
X43298620Y-43344694D01*
X43204896Y-43458896D01*
X43090694Y-43552620D01*
X42960401Y-43622262D01*
X42819027Y-43665148D01*
X42708839Y-43676000D01*
X42635161Y-43676000D01*
X42524973Y-43665148D01*
X42383599Y-43622262D01*
X42253306Y-43552620D01*
X42139104Y-43458896D01*
X42045380Y-43344694D01*
X41975738Y-43214401D01*
X41932852Y-43073027D01*
X41918372Y-42926000D01*
X41932852Y-42778973D01*
X41975738Y-42637599D01*
X42045380Y-42507306D01*
X42139104Y-42393104D01*
X42253306Y-42299380D01*
X42383599Y-42229738D01*
X42524973Y-42186852D01*
X42635161Y-42176000D01*
X42708839Y-42176000D01*
X42819027Y-42186852D01*
X42819027Y-42186852D01*
G37*
G36*
X32618000Y-42931000D02*
X31558000Y-42931000D01*
X31558000Y-42281000D01*
X32618000Y-42281000D01*
X32618000Y-42931000D01*
X32618000Y-42931000D01*
G37*
G36*
X36798116Y-42035095D02*
X36827313Y-42043952D01*
X36854218Y-42058333D01*
X36877808Y-42077692D01*
X36897167Y-42101282D01*
X36911548Y-42128187D01*
X36920405Y-42157384D01*
X36924000Y-42193890D01*
X36924000Y-42744110D01*
X36920405Y-42780616D01*
X36911548Y-42809813D01*
X36897167Y-42836718D01*
X36877808Y-42860308D01*
X36854218Y-42879667D01*
X36827313Y-42894048D01*
X36798116Y-42902905D01*
X36761610Y-42906500D01*
X36136390Y-42906500D01*
X36099884Y-42902905D01*
X36070687Y-42894048D01*
X36043782Y-42879667D01*
X36020192Y-42860308D01*
X36000833Y-42836718D01*
X35986452Y-42809813D01*
X35977595Y-42780616D01*
X35974000Y-42744110D01*
X35974000Y-42193890D01*
X35977595Y-42157384D01*
X35986452Y-42128187D01*
X36000833Y-42101282D01*
X36020192Y-42077692D01*
X36043782Y-42058333D01*
X36070687Y-42043952D01*
X36099884Y-42035095D01*
X36136390Y-42031500D01*
X36761610Y-42031500D01*
X36798116Y-42035095D01*
X36798116Y-42035095D01*
G37*
G36*
X34512116Y-41908095D02*
X34541313Y-41916952D01*
X34568218Y-41931333D01*
X34591808Y-41950692D01*
X34611167Y-41974282D01*
X34625548Y-42001187D01*
X34634405Y-42030384D01*
X34638000Y-42066890D01*
X34638000Y-42617110D01*
X34634405Y-42653616D01*
X34625548Y-42682813D01*
X34611167Y-42709718D01*
X34591808Y-42733308D01*
X34568218Y-42752667D01*
X34541313Y-42767048D01*
X34512116Y-42775905D01*
X34475610Y-42779500D01*
X33850390Y-42779500D01*
X33813884Y-42775905D01*
X33784687Y-42767048D01*
X33757782Y-42752667D01*
X33734192Y-42733308D01*
X33714833Y-42709718D01*
X33700452Y-42682813D01*
X33691595Y-42653616D01*
X33688000Y-42617110D01*
X33688000Y-42066890D01*
X33691595Y-42030384D01*
X33700452Y-42001187D01*
X33714833Y-41974282D01*
X33734192Y-41950692D01*
X33757782Y-41931333D01*
X33784687Y-41916952D01*
X33813884Y-41908095D01*
X33850390Y-41904500D01*
X34475610Y-41904500D01*
X34512116Y-41908095D01*
X34512116Y-41908095D01*
G37*
G36*
X23908116Y-41057595D02*
X23937313Y-41066452D01*
X23964218Y-41080833D01*
X23987808Y-41100192D01*
X24007167Y-41123782D01*
X24021548Y-41150687D01*
X24030405Y-41179884D01*
X24034000Y-41216390D01*
X24034000Y-41841610D01*
X24030405Y-41878116D01*
X24021548Y-41907313D01*
X24007167Y-41934218D01*
X23987808Y-41957808D01*
X23964218Y-41977167D01*
X23937313Y-41991548D01*
X23908116Y-42000405D01*
X23871610Y-42004000D01*
X23321390Y-42004000D01*
X23284884Y-42000405D01*
X23255687Y-41991548D01*
X23228782Y-41977167D01*
X23205192Y-41957808D01*
X23185833Y-41934218D01*
X23171452Y-41907313D01*
X23162595Y-41878116D01*
X23159000Y-41841610D01*
X23159000Y-41216390D01*
X23162595Y-41179884D01*
X23171452Y-41150687D01*
X23185833Y-41123782D01*
X23205192Y-41100192D01*
X23228782Y-41080833D01*
X23255687Y-41066452D01*
X23284884Y-41057595D01*
X23321390Y-41054000D01*
X23871610Y-41054000D01*
X23908116Y-41057595D01*
X23908116Y-41057595D01*
G37*
G36*
X25483116Y-41057595D02*
X25512313Y-41066452D01*
X25539218Y-41080833D01*
X25562808Y-41100192D01*
X25582167Y-41123782D01*
X25596548Y-41150687D01*
X25605405Y-41179884D01*
X25609000Y-41216390D01*
X25609000Y-41841610D01*
X25605405Y-41878116D01*
X25596548Y-41907313D01*
X25582167Y-41934218D01*
X25562808Y-41957808D01*
X25539218Y-41977167D01*
X25512313Y-41991548D01*
X25483116Y-42000405D01*
X25446610Y-42004000D01*
X24896390Y-42004000D01*
X24859884Y-42000405D01*
X24830687Y-41991548D01*
X24803782Y-41977167D01*
X24780192Y-41957808D01*
X24760833Y-41934218D01*
X24746452Y-41907313D01*
X24737595Y-41878116D01*
X24734000Y-41841610D01*
X24734000Y-41216390D01*
X24737595Y-41179884D01*
X24746452Y-41150687D01*
X24760833Y-41123782D01*
X24780192Y-41100192D01*
X24803782Y-41080833D01*
X24830687Y-41066452D01*
X24859884Y-41057595D01*
X24896390Y-41054000D01*
X25446610Y-41054000D01*
X25483116Y-41057595D01*
X25483116Y-41057595D01*
G37*
G36*
X14383116Y-41057595D02*
X14412313Y-41066452D01*
X14439218Y-41080833D01*
X14462808Y-41100192D01*
X14482167Y-41123782D01*
X14496548Y-41150687D01*
X14505405Y-41179884D01*
X14509000Y-41216390D01*
X14509000Y-41841610D01*
X14505405Y-41878116D01*
X14496548Y-41907313D01*
X14482167Y-41934218D01*
X14462808Y-41957808D01*
X14439218Y-41977167D01*
X14412313Y-41991548D01*
X14383116Y-42000405D01*
X14346610Y-42004000D01*
X13796390Y-42004000D01*
X13759884Y-42000405D01*
X13730687Y-41991548D01*
X13703782Y-41977167D01*
X13680192Y-41957808D01*
X13660833Y-41934218D01*
X13646452Y-41907313D01*
X13637595Y-41878116D01*
X13634000Y-41841610D01*
X13634000Y-41216390D01*
X13637595Y-41179884D01*
X13646452Y-41150687D01*
X13660833Y-41123782D01*
X13680192Y-41100192D01*
X13703782Y-41080833D01*
X13730687Y-41066452D01*
X13759884Y-41057595D01*
X13796390Y-41054000D01*
X14346610Y-41054000D01*
X14383116Y-41057595D01*
X14383116Y-41057595D01*
G37*
G36*
X15958116Y-41057595D02*
X15987313Y-41066452D01*
X16014218Y-41080833D01*
X16037808Y-41100192D01*
X16057167Y-41123782D01*
X16071548Y-41150687D01*
X16080405Y-41179884D01*
X16084000Y-41216390D01*
X16084000Y-41841610D01*
X16080405Y-41878116D01*
X16071548Y-41907313D01*
X16057167Y-41934218D01*
X16037808Y-41957808D01*
X16014218Y-41977167D01*
X15987313Y-41991548D01*
X15958116Y-42000405D01*
X15921610Y-42004000D01*
X15371390Y-42004000D01*
X15334884Y-42000405D01*
X15305687Y-41991548D01*
X15278782Y-41977167D01*
X15255192Y-41957808D01*
X15235833Y-41934218D01*
X15221452Y-41907313D01*
X15212595Y-41878116D01*
X15209000Y-41841610D01*
X15209000Y-41216390D01*
X15212595Y-41179884D01*
X15221452Y-41150687D01*
X15235833Y-41123782D01*
X15255192Y-41100192D01*
X15278782Y-41080833D01*
X15305687Y-41066452D01*
X15334884Y-41057595D01*
X15371390Y-41054000D01*
X15921610Y-41054000D01*
X15958116Y-41057595D01*
X15958116Y-41057595D01*
G37*
G36*
X30418000Y-41981000D02*
X29358000Y-41981000D01*
X29358000Y-41331000D01*
X30418000Y-41331000D01*
X30418000Y-41981000D01*
X30418000Y-41981000D01*
G37*
G36*
X5671116Y-40803595D02*
X5700313Y-40812452D01*
X5727218Y-40826833D01*
X5750808Y-40846192D01*
X5770167Y-40869782D01*
X5784548Y-40896687D01*
X5793405Y-40925884D01*
X5797000Y-40962390D01*
X5797000Y-41587610D01*
X5793405Y-41624116D01*
X5784548Y-41653313D01*
X5770167Y-41680218D01*
X5750808Y-41703808D01*
X5727218Y-41723167D01*
X5700313Y-41737548D01*
X5671116Y-41746405D01*
X5634610Y-41750000D01*
X5084390Y-41750000D01*
X5047884Y-41746405D01*
X5018687Y-41737548D01*
X4991782Y-41723167D01*
X4968192Y-41703808D01*
X4948833Y-41680218D01*
X4934452Y-41653313D01*
X4925595Y-41624116D01*
X4922000Y-41587610D01*
X4922000Y-40962390D01*
X4925595Y-40925884D01*
X4934452Y-40896687D01*
X4948833Y-40869782D01*
X4968192Y-40846192D01*
X4991782Y-40826833D01*
X5018687Y-40812452D01*
X5047884Y-40803595D01*
X5084390Y-40800000D01*
X5634610Y-40800000D01*
X5671116Y-40803595D01*
X5671116Y-40803595D01*
G37*
G36*
X4096116Y-40803595D02*
X4125313Y-40812452D01*
X4152218Y-40826833D01*
X4175808Y-40846192D01*
X4195167Y-40869782D01*
X4209548Y-40896687D01*
X4218405Y-40925884D01*
X4222000Y-40962390D01*
X4222000Y-41587610D01*
X4218405Y-41624116D01*
X4209548Y-41653313D01*
X4195167Y-41680218D01*
X4175808Y-41703808D01*
X4152218Y-41723167D01*
X4125313Y-41737548D01*
X4096116Y-41746405D01*
X4059610Y-41750000D01*
X3509390Y-41750000D01*
X3472884Y-41746405D01*
X3443687Y-41737548D01*
X3416782Y-41723167D01*
X3393192Y-41703808D01*
X3373833Y-41680218D01*
X3359452Y-41653313D01*
X3350595Y-41624116D01*
X3347000Y-41587610D01*
X3347000Y-40962390D01*
X3350595Y-40925884D01*
X3359452Y-40896687D01*
X3373833Y-40869782D01*
X3393192Y-40846192D01*
X3416782Y-40826833D01*
X3443687Y-40812452D01*
X3472884Y-40803595D01*
X3509390Y-40800000D01*
X4059610Y-40800000D01*
X4096116Y-40803595D01*
X4096116Y-40803595D01*
G37*
G36*
X36798116Y-40460095D02*
X36827313Y-40468952D01*
X36854218Y-40483333D01*
X36877808Y-40502692D01*
X36897167Y-40526282D01*
X36911548Y-40553187D01*
X36920405Y-40582384D01*
X36924000Y-40618890D01*
X36924000Y-41169110D01*
X36920405Y-41205616D01*
X36911548Y-41234813D01*
X36897167Y-41261718D01*
X36877808Y-41285308D01*
X36854218Y-41304667D01*
X36827313Y-41319048D01*
X36798116Y-41327905D01*
X36761610Y-41331500D01*
X36136390Y-41331500D01*
X36099884Y-41327905D01*
X36070687Y-41319048D01*
X36043782Y-41304667D01*
X36020192Y-41285308D01*
X36000833Y-41261718D01*
X35986452Y-41234813D01*
X35977595Y-41205616D01*
X35974000Y-41169110D01*
X35974000Y-40618890D01*
X35977595Y-40582384D01*
X35986452Y-40553187D01*
X36000833Y-40526282D01*
X36020192Y-40502692D01*
X36043782Y-40483333D01*
X36070687Y-40468952D01*
X36099884Y-40460095D01*
X36136390Y-40456500D01*
X36761610Y-40456500D01*
X36798116Y-40460095D01*
X36798116Y-40460095D01*
G37*
G36*
X34512116Y-40333095D02*
X34541313Y-40341952D01*
X34568218Y-40356333D01*
X34591808Y-40375692D01*
X34611167Y-40399282D01*
X34625548Y-40426187D01*
X34634405Y-40455384D01*
X34638000Y-40491890D01*
X34638000Y-41042110D01*
X34634405Y-41078616D01*
X34625548Y-41107813D01*
X34611167Y-41134718D01*
X34591808Y-41158308D01*
X34568218Y-41177667D01*
X34541313Y-41192048D01*
X34512116Y-41200905D01*
X34475610Y-41204500D01*
X33850390Y-41204500D01*
X33813884Y-41200905D01*
X33784687Y-41192048D01*
X33757782Y-41177667D01*
X33734192Y-41158308D01*
X33714833Y-41134718D01*
X33700452Y-41107813D01*
X33691595Y-41078616D01*
X33688000Y-41042110D01*
X33688000Y-40491890D01*
X33691595Y-40455384D01*
X33700452Y-40426187D01*
X33714833Y-40399282D01*
X33734192Y-40375692D01*
X33757782Y-40356333D01*
X33784687Y-40341952D01*
X33813884Y-40333095D01*
X33850390Y-40329500D01*
X34475610Y-40329500D01*
X34512116Y-40333095D01*
X34512116Y-40333095D01*
G37*
G36*
X40279027Y-39646852D02*
X40420401Y-39689738D01*
X40550694Y-39759380D01*
X40664896Y-39853104D01*
X40758620Y-39967306D01*
X40828262Y-40097599D01*
X40871148Y-40238973D01*
X40885628Y-40386000D01*
X40871148Y-40533027D01*
X40828262Y-40674401D01*
X40758620Y-40804694D01*
X40664896Y-40918896D01*
X40550694Y-41012620D01*
X40420401Y-41082262D01*
X40279027Y-41125148D01*
X40168839Y-41136000D01*
X40095161Y-41136000D01*
X39984973Y-41125148D01*
X39843599Y-41082262D01*
X39713306Y-41012620D01*
X39599104Y-40918896D01*
X39505380Y-40804694D01*
X39435738Y-40674401D01*
X39392852Y-40533027D01*
X39378372Y-40386000D01*
X39392852Y-40238973D01*
X39435738Y-40097599D01*
X39505380Y-39967306D01*
X39599104Y-39853104D01*
X39713306Y-39759380D01*
X39843599Y-39689738D01*
X39984973Y-39646852D01*
X40095161Y-39636000D01*
X40168839Y-39636000D01*
X40279027Y-39646852D01*
X40279027Y-39646852D01*
G37*
G36*
X42819027Y-39646852D02*
X42960401Y-39689738D01*
X43090694Y-39759380D01*
X43204896Y-39853104D01*
X43298620Y-39967306D01*
X43368262Y-40097599D01*
X43411148Y-40238973D01*
X43425628Y-40386000D01*
X43411148Y-40533027D01*
X43368262Y-40674401D01*
X43298620Y-40804694D01*
X43204896Y-40918896D01*
X43090694Y-41012620D01*
X42960401Y-41082262D01*
X42819027Y-41125148D01*
X42708839Y-41136000D01*
X42635161Y-41136000D01*
X42524973Y-41125148D01*
X42383599Y-41082262D01*
X42253306Y-41012620D01*
X42139104Y-40918896D01*
X42045380Y-40804694D01*
X41975738Y-40674401D01*
X41932852Y-40533027D01*
X41918372Y-40386000D01*
X41932852Y-40238973D01*
X41975738Y-40097599D01*
X42045380Y-39967306D01*
X42139104Y-39853104D01*
X42253306Y-39759380D01*
X42383599Y-39689738D01*
X42524973Y-39646852D01*
X42635161Y-39636000D01*
X42708839Y-39636000D01*
X42819027Y-39646852D01*
X42819027Y-39646852D01*
G37*
G36*
X32618000Y-41031000D02*
X31558000Y-41031000D01*
X31558000Y-40381000D01*
X32618000Y-40381000D01*
X32618000Y-41031000D01*
X32618000Y-41031000D01*
G37*
G36*
X40279027Y-37106852D02*
X40420401Y-37149738D01*
X40550694Y-37219380D01*
X40664896Y-37313104D01*
X40758620Y-37427306D01*
X40828262Y-37557599D01*
X40871148Y-37698973D01*
X40885628Y-37846000D01*
X40871148Y-37993027D01*
X40828262Y-38134401D01*
X40758620Y-38264694D01*
X40664896Y-38378896D01*
X40550694Y-38472620D01*
X40420401Y-38542262D01*
X40279027Y-38585148D01*
X40168839Y-38596000D01*
X40095161Y-38596000D01*
X39984973Y-38585148D01*
X39843599Y-38542262D01*
X39713306Y-38472620D01*
X39599104Y-38378896D01*
X39505380Y-38264694D01*
X39435738Y-38134401D01*
X39392852Y-37993027D01*
X39378372Y-37846000D01*
X39392852Y-37698973D01*
X39435738Y-37557599D01*
X39505380Y-37427306D01*
X39599104Y-37313104D01*
X39713306Y-37219380D01*
X39843599Y-37149738D01*
X39984973Y-37106852D01*
X40095161Y-37096000D01*
X40168839Y-37096000D01*
X40279027Y-37106852D01*
X40279027Y-37106852D01*
G37*
G36*
X42819027Y-37106852D02*
X42960401Y-37149738D01*
X43090694Y-37219380D01*
X43204896Y-37313104D01*
X43298620Y-37427306D01*
X43368262Y-37557599D01*
X43411148Y-37698973D01*
X43425628Y-37846000D01*
X43411148Y-37993027D01*
X43368262Y-38134401D01*
X43298620Y-38264694D01*
X43204896Y-38378896D01*
X43090694Y-38472620D01*
X42960401Y-38542262D01*
X42819027Y-38585148D01*
X42708839Y-38596000D01*
X42635161Y-38596000D01*
X42524973Y-38585148D01*
X42383599Y-38542262D01*
X42253306Y-38472620D01*
X42139104Y-38378896D01*
X42045380Y-38264694D01*
X41975738Y-38134401D01*
X41932852Y-37993027D01*
X41918372Y-37846000D01*
X41932852Y-37698973D01*
X41975738Y-37557599D01*
X42045380Y-37427306D01*
X42139104Y-37313104D01*
X42253306Y-37219380D01*
X42383599Y-37149738D01*
X42524973Y-37106852D01*
X42635161Y-37096000D01*
X42708839Y-37096000D01*
X42819027Y-37106852D01*
X42819027Y-37106852D01*
G37*
G36*
X18188000Y-37435000D02*
X12038000Y-37435000D01*
X12038000Y-35835000D01*
X18188000Y-35835000D01*
X18188000Y-37435000D01*
X18188000Y-37435000D01*
G37*
G36*
X30950306Y-35939095D02*
X30979503Y-35947952D01*
X31006408Y-35962333D01*
X31029998Y-35981692D01*
X31049357Y-36005282D01*
X31063738Y-36032187D01*
X31072595Y-36061384D01*
X31076190Y-36097890D01*
X31076190Y-36648110D01*
X31072595Y-36684616D01*
X31063738Y-36713813D01*
X31049357Y-36740718D01*
X31029998Y-36764308D01*
X31006408Y-36783667D01*
X30979503Y-36798048D01*
X30950306Y-36806905D01*
X30913800Y-36810500D01*
X30288580Y-36810500D01*
X30252074Y-36806905D01*
X30222877Y-36798048D01*
X30195972Y-36783667D01*
X30172382Y-36764308D01*
X30153023Y-36740718D01*
X30138642Y-36713813D01*
X30129785Y-36684616D01*
X30126190Y-36648110D01*
X30126190Y-36097890D01*
X30129785Y-36061384D01*
X30138642Y-36032187D01*
X30153023Y-36005282D01*
X30172382Y-35981692D01*
X30195972Y-35962333D01*
X30222877Y-35947952D01*
X30252074Y-35939095D01*
X30288580Y-35935500D01*
X30913800Y-35935500D01*
X30950306Y-35939095D01*
X30950306Y-35939095D01*
G37*
G36*
X32607116Y-35913595D02*
X32636313Y-35922452D01*
X32663218Y-35936833D01*
X32686808Y-35956192D01*
X32706167Y-35979782D01*
X32720548Y-36006687D01*
X32729405Y-36035884D01*
X32733000Y-36072390D01*
X32733000Y-36622610D01*
X32729405Y-36659116D01*
X32720548Y-36688313D01*
X32706167Y-36715218D01*
X32686808Y-36738808D01*
X32663218Y-36758167D01*
X32636313Y-36772548D01*
X32607116Y-36781405D01*
X32570610Y-36785000D01*
X31945390Y-36785000D01*
X31908884Y-36781405D01*
X31879687Y-36772548D01*
X31852782Y-36758167D01*
X31829192Y-36738808D01*
X31809833Y-36715218D01*
X31795452Y-36688313D01*
X31786595Y-36659116D01*
X31783000Y-36622610D01*
X31783000Y-36072390D01*
X31786595Y-36035884D01*
X31795452Y-36006687D01*
X31809833Y-35979782D01*
X31829192Y-35956192D01*
X31852782Y-35936833D01*
X31879687Y-35922452D01*
X31908884Y-35913595D01*
X31945390Y-35910000D01*
X32570610Y-35910000D01*
X32607116Y-35913595D01*
X32607116Y-35913595D01*
G37*
G36*
X35608012Y-35491057D02*
X35717207Y-35536287D01*
X35815481Y-35601952D01*
X35899048Y-35685519D01*
X35964713Y-35783793D01*
X36009943Y-35892988D01*
X36033000Y-36008904D01*
X36033000Y-36127096D01*
X36009943Y-36243012D01*
X35964713Y-36352207D01*
X35899048Y-36450481D01*
X35815481Y-36534048D01*
X35717207Y-36599713D01*
X35608012Y-36644943D01*
X35492096Y-36668000D01*
X35373904Y-36668000D01*
X35257988Y-36644943D01*
X35148793Y-36599713D01*
X35050519Y-36534048D01*
X34966952Y-36450481D01*
X34901287Y-36352207D01*
X34856057Y-36243012D01*
X34833000Y-36127096D01*
X34833000Y-36008904D01*
X34856057Y-35892988D01*
X34901287Y-35783793D01*
X34966952Y-35685519D01*
X35050519Y-35601952D01*
X35148793Y-35536287D01*
X35257988Y-35491057D01*
X35373904Y-35468000D01*
X35492096Y-35468000D01*
X35608012Y-35491057D01*
X35608012Y-35491057D01*
G37*
G36*
X42819027Y-34566852D02*
X42960401Y-34609738D01*
X43090694Y-34679380D01*
X43204896Y-34773104D01*
X43298620Y-34887306D01*
X43368262Y-35017599D01*
X43411148Y-35158973D01*
X43425628Y-35306000D01*
X43411148Y-35453027D01*
X43368262Y-35594401D01*
X43298620Y-35724694D01*
X43204896Y-35838896D01*
X43090694Y-35932620D01*
X42960401Y-36002262D01*
X42819027Y-36045148D01*
X42708839Y-36056000D01*
X42635161Y-36056000D01*
X42524973Y-36045148D01*
X42383599Y-36002262D01*
X42253306Y-35932620D01*
X42139104Y-35838896D01*
X42045380Y-35724694D01*
X41975738Y-35594401D01*
X41932852Y-35453027D01*
X41918372Y-35306000D01*
X41932852Y-35158973D01*
X41975738Y-35017599D01*
X42045380Y-34887306D01*
X42139104Y-34773104D01*
X42253306Y-34679380D01*
X42383599Y-34609738D01*
X42524973Y-34566852D01*
X42635161Y-34556000D01*
X42708839Y-34556000D01*
X42819027Y-34566852D01*
X42819027Y-34566852D01*
G37*
G36*
X40279027Y-34566852D02*
X40420401Y-34609738D01*
X40550694Y-34679380D01*
X40664896Y-34773104D01*
X40758620Y-34887306D01*
X40828262Y-35017599D01*
X40871148Y-35158973D01*
X40885628Y-35306000D01*
X40871148Y-35453027D01*
X40828262Y-35594401D01*
X40758620Y-35724694D01*
X40664896Y-35838896D01*
X40550694Y-35932620D01*
X40420401Y-36002262D01*
X40279027Y-36045148D01*
X40168839Y-36056000D01*
X40095161Y-36056000D01*
X39984973Y-36045148D01*
X39843599Y-36002262D01*
X39713306Y-35932620D01*
X39599104Y-35838896D01*
X39505380Y-35724694D01*
X39435738Y-35594401D01*
X39392852Y-35453027D01*
X39378372Y-35306000D01*
X39392852Y-35158973D01*
X39435738Y-35017599D01*
X39505380Y-34887306D01*
X39599104Y-34773104D01*
X39713306Y-34679380D01*
X39843599Y-34609738D01*
X39984973Y-34566852D01*
X40095161Y-34556000D01*
X40168839Y-34556000D01*
X40279027Y-34566852D01*
X40279027Y-34566852D01*
G37*
G36*
X11663000Y-35460000D02*
X10063000Y-35460000D01*
X10063000Y-29310000D01*
X11663000Y-29310000D01*
X11663000Y-35460000D01*
X11663000Y-35460000D01*
G37*
G36*
X20163000Y-35460000D02*
X18563000Y-35460000D01*
X18563000Y-29310000D01*
X20163000Y-29310000D01*
X20163000Y-35460000D01*
X20163000Y-35460000D01*
G37*
G36*
X6643630Y-33706299D02*
X6803855Y-33754903D01*
X6951520Y-33833831D01*
X7080949Y-33940051D01*
X7187169Y-34069480D01*
X7266097Y-34217145D01*
X7314701Y-34377370D01*
X7331112Y-34544000D01*
X7314701Y-34710630D01*
X7266097Y-34870855D01*
X7187169Y-35018520D01*
X7080949Y-35147949D01*
X6951520Y-35254169D01*
X6803855Y-35333097D01*
X6643630Y-35381701D01*
X6518752Y-35394000D01*
X6435248Y-35394000D01*
X6310370Y-35381701D01*
X6150145Y-35333097D01*
X6002480Y-35254169D01*
X5873051Y-35147949D01*
X5766831Y-35018520D01*
X5687903Y-34870855D01*
X5639299Y-34710630D01*
X5622888Y-34544000D01*
X5639299Y-34377370D01*
X5687903Y-34217145D01*
X5766831Y-34069480D01*
X5873051Y-33940051D01*
X6002480Y-33833831D01*
X6150145Y-33754903D01*
X6310370Y-33706299D01*
X6435248Y-33694000D01*
X6518752Y-33694000D01*
X6643630Y-33706299D01*
X6643630Y-33706299D01*
G37*
G36*
X4103630Y-33706299D02*
X4263855Y-33754903D01*
X4411520Y-33833831D01*
X4540949Y-33940051D01*
X4647169Y-34069480D01*
X4726097Y-34217145D01*
X4774701Y-34377370D01*
X4791112Y-34544000D01*
X4774701Y-34710630D01*
X4726097Y-34870855D01*
X4647169Y-35018520D01*
X4540949Y-35147949D01*
X4411520Y-35254169D01*
X4263855Y-35333097D01*
X4103630Y-35381701D01*
X3978752Y-35394000D01*
X3895248Y-35394000D01*
X3770370Y-35381701D01*
X3610145Y-35333097D01*
X3462480Y-35254169D01*
X3333051Y-35147949D01*
X3226831Y-35018520D01*
X3147903Y-34870855D01*
X3099299Y-34710630D01*
X3082888Y-34544000D01*
X3099299Y-34377370D01*
X3147903Y-34217145D01*
X3226831Y-34069480D01*
X3333051Y-33940051D01*
X3462480Y-33833831D01*
X3610145Y-33754903D01*
X3770370Y-33706299D01*
X3895248Y-33694000D01*
X3978752Y-33694000D01*
X4103630Y-33706299D01*
X4103630Y-33706299D01*
G37*
G36*
X30950306Y-34364095D02*
X30979503Y-34372952D01*
X31006408Y-34387333D01*
X31029998Y-34406692D01*
X31049357Y-34430282D01*
X31063738Y-34457187D01*
X31072595Y-34486384D01*
X31076190Y-34522890D01*
X31076190Y-35073110D01*
X31072595Y-35109616D01*
X31063738Y-35138813D01*
X31049357Y-35165718D01*
X31029998Y-35189308D01*
X31006408Y-35208667D01*
X30979503Y-35223048D01*
X30950306Y-35231905D01*
X30913800Y-35235500D01*
X30288580Y-35235500D01*
X30252074Y-35231905D01*
X30222877Y-35223048D01*
X30195972Y-35208667D01*
X30172382Y-35189308D01*
X30153023Y-35165718D01*
X30138642Y-35138813D01*
X30129785Y-35109616D01*
X30126190Y-35073110D01*
X30126190Y-34522890D01*
X30129785Y-34486384D01*
X30138642Y-34457187D01*
X30153023Y-34430282D01*
X30172382Y-34406692D01*
X30195972Y-34387333D01*
X30222877Y-34372952D01*
X30252074Y-34364095D01*
X30288580Y-34360500D01*
X30913800Y-34360500D01*
X30950306Y-34364095D01*
X30950306Y-34364095D01*
G37*
G36*
X32607116Y-34338595D02*
X32636313Y-34347452D01*
X32663218Y-34361833D01*
X32686808Y-34381192D01*
X32706167Y-34404782D01*
X32720548Y-34431687D01*
X32729405Y-34460884D01*
X32733000Y-34497390D01*
X32733000Y-35047610D01*
X32729405Y-35084116D01*
X32720548Y-35113313D01*
X32706167Y-35140218D01*
X32686808Y-35163808D01*
X32663218Y-35183167D01*
X32636313Y-35197548D01*
X32607116Y-35206405D01*
X32570610Y-35210000D01*
X31945390Y-35210000D01*
X31908884Y-35206405D01*
X31879687Y-35197548D01*
X31852782Y-35183167D01*
X31829192Y-35163808D01*
X31809833Y-35140218D01*
X31795452Y-35113313D01*
X31786595Y-35084116D01*
X31783000Y-35047610D01*
X31783000Y-34497390D01*
X31786595Y-34460884D01*
X31795452Y-34431687D01*
X31809833Y-34404782D01*
X31829192Y-34381192D01*
X31852782Y-34361833D01*
X31879687Y-34347452D01*
X31908884Y-34338595D01*
X31945390Y-34335000D01*
X32570610Y-34335000D01*
X32607116Y-34338595D01*
X32607116Y-34338595D01*
G37*
G36*
X35608012Y-33991057D02*
X35717207Y-34036287D01*
X35815481Y-34101952D01*
X35899048Y-34185519D01*
X35964713Y-34283793D01*
X36009943Y-34392988D01*
X36033000Y-34508904D01*
X36033000Y-34627096D01*
X36009943Y-34743012D01*
X35964713Y-34852207D01*
X35899048Y-34950481D01*
X35815481Y-35034048D01*
X35717207Y-35099713D01*
X35608012Y-35144943D01*
X35492096Y-35168000D01*
X35373904Y-35168000D01*
X35257988Y-35144943D01*
X35148793Y-35099713D01*
X35050519Y-35034048D01*
X34966952Y-34950481D01*
X34901287Y-34852207D01*
X34856057Y-34743012D01*
X34833000Y-34627096D01*
X34833000Y-34508904D01*
X34856057Y-34392988D01*
X34901287Y-34283793D01*
X34966952Y-34185519D01*
X35050519Y-34101952D01*
X35148793Y-34036287D01*
X35257988Y-33991057D01*
X35373904Y-33968000D01*
X35492096Y-33968000D01*
X35608012Y-33991057D01*
X35608012Y-33991057D01*
G37*
G36*
X35608012Y-32491057D02*
X35717207Y-32536287D01*
X35815481Y-32601952D01*
X35899048Y-32685519D01*
X35964713Y-32783793D01*
X36009943Y-32892988D01*
X36033000Y-33008904D01*
X36033000Y-33127096D01*
X36009943Y-33243012D01*
X35964713Y-33352207D01*
X35899048Y-33450481D01*
X35815481Y-33534048D01*
X35717207Y-33599713D01*
X35608012Y-33644943D01*
X35492096Y-33668000D01*
X35373904Y-33668000D01*
X35257988Y-33644943D01*
X35148793Y-33599713D01*
X35050519Y-33534048D01*
X34966952Y-33450481D01*
X34901287Y-33352207D01*
X34856057Y-33243012D01*
X34833000Y-33127096D01*
X34833000Y-33008904D01*
X34856057Y-32892988D01*
X34901287Y-32783793D01*
X34966952Y-32685519D01*
X35050519Y-32601952D01*
X35148793Y-32536287D01*
X35257988Y-32491057D01*
X35373904Y-32468000D01*
X35492096Y-32468000D01*
X35608012Y-32491057D01*
X35608012Y-32491057D01*
G37*
G36*
X42819027Y-32026852D02*
X42960401Y-32069738D01*
X43090694Y-32139380D01*
X43204896Y-32233104D01*
X43298620Y-32347306D01*
X43368262Y-32477599D01*
X43411148Y-32618973D01*
X43425628Y-32766000D01*
X43411148Y-32913027D01*
X43368262Y-33054401D01*
X43298620Y-33184694D01*
X43204896Y-33298896D01*
X43090694Y-33392620D01*
X42960401Y-33462262D01*
X42819027Y-33505148D01*
X42708839Y-33516000D01*
X42635161Y-33516000D01*
X42524973Y-33505148D01*
X42383599Y-33462262D01*
X42253306Y-33392620D01*
X42139104Y-33298896D01*
X42045380Y-33184694D01*
X41975738Y-33054401D01*
X41932852Y-32913027D01*
X41918372Y-32766000D01*
X41932852Y-32618973D01*
X41975738Y-32477599D01*
X42045380Y-32347306D01*
X42139104Y-32233104D01*
X42253306Y-32139380D01*
X42383599Y-32069738D01*
X42524973Y-32026852D01*
X42635161Y-32016000D01*
X42708839Y-32016000D01*
X42819027Y-32026852D01*
X42819027Y-32026852D01*
G37*
G36*
X40279027Y-32026852D02*
X40420401Y-32069738D01*
X40550694Y-32139380D01*
X40664896Y-32233104D01*
X40758620Y-32347306D01*
X40828262Y-32477599D01*
X40871148Y-32618973D01*
X40885628Y-32766000D01*
X40871148Y-32913027D01*
X40828262Y-33054401D01*
X40758620Y-33184694D01*
X40664896Y-33298896D01*
X40550694Y-33392620D01*
X40420401Y-33462262D01*
X40279027Y-33505148D01*
X40168839Y-33516000D01*
X40095161Y-33516000D01*
X39984973Y-33505148D01*
X39843599Y-33462262D01*
X39713306Y-33392620D01*
X39599104Y-33298896D01*
X39505380Y-33184694D01*
X39435738Y-33054401D01*
X39392852Y-32913027D01*
X39378372Y-32766000D01*
X39392852Y-32618973D01*
X39435738Y-32477599D01*
X39505380Y-32347306D01*
X39599104Y-32233104D01*
X39713306Y-32139380D01*
X39843599Y-32069738D01*
X39984973Y-32026852D01*
X40095161Y-32016000D01*
X40168839Y-32016000D01*
X40279027Y-32026852D01*
X40279027Y-32026852D01*
G37*
G36*
X6643630Y-31166299D02*
X6803855Y-31214903D01*
X6951520Y-31293831D01*
X7080949Y-31400051D01*
X7187169Y-31529480D01*
X7266097Y-31677145D01*
X7314701Y-31837370D01*
X7331112Y-32004000D01*
X7314701Y-32170630D01*
X7266097Y-32330855D01*
X7187169Y-32478520D01*
X7080949Y-32607949D01*
X6951520Y-32714169D01*
X6803855Y-32793097D01*
X6643630Y-32841701D01*
X6518752Y-32854000D01*
X6435248Y-32854000D01*
X6310370Y-32841701D01*
X6150145Y-32793097D01*
X6002480Y-32714169D01*
X5873051Y-32607949D01*
X5766831Y-32478520D01*
X5687903Y-32330855D01*
X5639299Y-32170630D01*
X5622888Y-32004000D01*
X5639299Y-31837370D01*
X5687903Y-31677145D01*
X5766831Y-31529480D01*
X5873051Y-31400051D01*
X6002480Y-31293831D01*
X6150145Y-31214903D01*
X6310370Y-31166299D01*
X6435248Y-31154000D01*
X6518752Y-31154000D01*
X6643630Y-31166299D01*
X6643630Y-31166299D01*
G37*
G36*
X4103630Y-31166299D02*
X4263855Y-31214903D01*
X4411520Y-31293831D01*
X4540949Y-31400051D01*
X4647169Y-31529480D01*
X4726097Y-31677145D01*
X4774701Y-31837370D01*
X4791112Y-32004000D01*
X4774701Y-32170630D01*
X4726097Y-32330855D01*
X4647169Y-32478520D01*
X4540949Y-32607949D01*
X4411520Y-32714169D01*
X4263855Y-32793097D01*
X4103630Y-32841701D01*
X3978752Y-32854000D01*
X3895248Y-32854000D01*
X3770370Y-32841701D01*
X3610145Y-32793097D01*
X3462480Y-32714169D01*
X3333051Y-32607949D01*
X3226831Y-32478520D01*
X3147903Y-32330855D01*
X3099299Y-32170630D01*
X3082888Y-32004000D01*
X3099299Y-31837370D01*
X3147903Y-31677145D01*
X3226831Y-31529480D01*
X3333051Y-31400051D01*
X3462480Y-31293831D01*
X3610145Y-31214903D01*
X3770370Y-31166299D01*
X3895248Y-31154000D01*
X3978752Y-31154000D01*
X4103630Y-31166299D01*
X4103630Y-31166299D01*
G37*
G36*
X22257116Y-31659595D02*
X22286313Y-31668452D01*
X22313218Y-31682833D01*
X22336808Y-31702192D01*
X22356167Y-31725782D01*
X22370548Y-31752687D01*
X22379405Y-31781884D01*
X22383000Y-31818390D01*
X22383000Y-32443610D01*
X22379405Y-32480116D01*
X22370548Y-32509313D01*
X22356167Y-32536218D01*
X22336808Y-32559808D01*
X22313218Y-32579167D01*
X22286313Y-32593548D01*
X22257116Y-32602405D01*
X22220610Y-32606000D01*
X21670390Y-32606000D01*
X21633884Y-32602405D01*
X21604687Y-32593548D01*
X21577782Y-32579167D01*
X21554192Y-32559808D01*
X21534833Y-32536218D01*
X21520452Y-32509313D01*
X21511595Y-32480116D01*
X21508000Y-32443610D01*
X21508000Y-31818390D01*
X21511595Y-31781884D01*
X21520452Y-31752687D01*
X21534833Y-31725782D01*
X21554192Y-31702192D01*
X21577782Y-31682833D01*
X21604687Y-31668452D01*
X21633884Y-31659595D01*
X21670390Y-31656000D01*
X22220610Y-31656000D01*
X22257116Y-31659595D01*
X22257116Y-31659595D01*
G37*
G36*
X23832116Y-31659595D02*
X23861313Y-31668452D01*
X23888218Y-31682833D01*
X23911808Y-31702192D01*
X23931167Y-31725782D01*
X23945548Y-31752687D01*
X23954405Y-31781884D01*
X23958000Y-31818390D01*
X23958000Y-32443610D01*
X23954405Y-32480116D01*
X23945548Y-32509313D01*
X23931167Y-32536218D01*
X23911808Y-32559808D01*
X23888218Y-32579167D01*
X23861313Y-32593548D01*
X23832116Y-32602405D01*
X23795610Y-32606000D01*
X23245390Y-32606000D01*
X23208884Y-32602405D01*
X23179687Y-32593548D01*
X23152782Y-32579167D01*
X23129192Y-32559808D01*
X23109833Y-32536218D01*
X23095452Y-32509313D01*
X23086595Y-32480116D01*
X23083000Y-32443610D01*
X23083000Y-31818390D01*
X23086595Y-31781884D01*
X23095452Y-31752687D01*
X23109833Y-31725782D01*
X23129192Y-31702192D01*
X23152782Y-31682833D01*
X23179687Y-31668452D01*
X23208884Y-31659595D01*
X23245390Y-31656000D01*
X23795610Y-31656000D01*
X23832116Y-31659595D01*
X23832116Y-31659595D01*
G37*
G36*
X35608012Y-30991057D02*
X35717207Y-31036287D01*
X35815481Y-31101952D01*
X35899048Y-31185519D01*
X35964713Y-31283793D01*
X36009943Y-31392988D01*
X36033000Y-31508904D01*
X36033000Y-31627096D01*
X36009943Y-31743012D01*
X35964713Y-31852207D01*
X35899048Y-31950481D01*
X35815481Y-32034048D01*
X35717207Y-32099713D01*
X35608012Y-32144943D01*
X35492096Y-32168000D01*
X35373904Y-32168000D01*
X35257988Y-32144943D01*
X35148793Y-32099713D01*
X35050519Y-32034048D01*
X34966952Y-31950481D01*
X34901287Y-31852207D01*
X34856057Y-31743012D01*
X34833000Y-31627096D01*
X34833000Y-31508904D01*
X34856057Y-31392988D01*
X34901287Y-31283793D01*
X34966952Y-31185519D01*
X35050519Y-31101952D01*
X35148793Y-31036287D01*
X35257988Y-30991057D01*
X35373904Y-30968000D01*
X35492096Y-30968000D01*
X35608012Y-30991057D01*
X35608012Y-30991057D01*
G37*
G36*
X42819027Y-29486852D02*
X42960401Y-29529738D01*
X43090694Y-29599380D01*
X43204896Y-29693104D01*
X43298620Y-29807306D01*
X43368262Y-29937599D01*
X43411148Y-30078973D01*
X43425628Y-30226000D01*
X43411148Y-30373027D01*
X43368262Y-30514401D01*
X43298620Y-30644694D01*
X43204896Y-30758896D01*
X43090694Y-30852620D01*
X42960401Y-30922262D01*
X42819027Y-30965148D01*
X42708839Y-30976000D01*
X42635161Y-30976000D01*
X42524973Y-30965148D01*
X42383599Y-30922262D01*
X42253306Y-30852620D01*
X42139104Y-30758896D01*
X42045380Y-30644694D01*
X41975738Y-30514401D01*
X41932852Y-30373027D01*
X41918372Y-30226000D01*
X41932852Y-30078973D01*
X41975738Y-29937599D01*
X42045380Y-29807306D01*
X42139104Y-29693104D01*
X42253306Y-29599380D01*
X42383599Y-29529738D01*
X42524973Y-29486852D01*
X42635161Y-29476000D01*
X42708839Y-29476000D01*
X42819027Y-29486852D01*
X42819027Y-29486852D01*
G37*
G36*
X40279027Y-29486852D02*
X40420401Y-29529738D01*
X40550694Y-29599380D01*
X40664896Y-29693104D01*
X40758620Y-29807306D01*
X40828262Y-29937599D01*
X40871148Y-30078973D01*
X40885628Y-30226000D01*
X40871148Y-30373027D01*
X40828262Y-30514401D01*
X40758620Y-30644694D01*
X40664896Y-30758896D01*
X40550694Y-30852620D01*
X40420401Y-30922262D01*
X40279027Y-30965148D01*
X40168839Y-30976000D01*
X40095161Y-30976000D01*
X39984973Y-30965148D01*
X39843599Y-30922262D01*
X39713306Y-30852620D01*
X39599104Y-30758896D01*
X39505380Y-30644694D01*
X39435738Y-30514401D01*
X39392852Y-30373027D01*
X39378372Y-30226000D01*
X39392852Y-30078973D01*
X39435738Y-29937599D01*
X39505380Y-29807306D01*
X39599104Y-29693104D01*
X39713306Y-29599380D01*
X39843599Y-29529738D01*
X39984973Y-29486852D01*
X40095161Y-29476000D01*
X40168839Y-29476000D01*
X40279027Y-29486852D01*
X40279027Y-29486852D01*
G37*
G36*
X22231616Y-29881595D02*
X22260813Y-29890452D01*
X22287718Y-29904833D01*
X22311308Y-29924192D01*
X22330667Y-29947782D01*
X22345048Y-29974687D01*
X22353905Y-30003884D01*
X22357500Y-30040390D01*
X22357500Y-30665610D01*
X22353905Y-30702116D01*
X22345048Y-30731313D01*
X22330667Y-30758218D01*
X22311308Y-30781808D01*
X22287718Y-30801167D01*
X22260813Y-30815548D01*
X22231616Y-30824405D01*
X22195110Y-30828000D01*
X21644890Y-30828000D01*
X21608384Y-30824405D01*
X21579187Y-30815548D01*
X21552282Y-30801167D01*
X21528692Y-30781808D01*
X21509333Y-30758218D01*
X21494952Y-30731313D01*
X21486095Y-30702116D01*
X21482500Y-30665610D01*
X21482500Y-30040390D01*
X21486095Y-30003884D01*
X21494952Y-29974687D01*
X21509333Y-29947782D01*
X21528692Y-29924192D01*
X21552282Y-29904833D01*
X21579187Y-29890452D01*
X21608384Y-29881595D01*
X21644890Y-29878000D01*
X22195110Y-29878000D01*
X22231616Y-29881595D01*
X22231616Y-29881595D01*
G37*
G36*
X23806616Y-29881595D02*
X23835813Y-29890452D01*
X23862718Y-29904833D01*
X23886308Y-29924192D01*
X23905667Y-29947782D01*
X23920048Y-29974687D01*
X23928905Y-30003884D01*
X23932500Y-30040390D01*
X23932500Y-30665610D01*
X23928905Y-30702116D01*
X23920048Y-30731313D01*
X23905667Y-30758218D01*
X23886308Y-30781808D01*
X23862718Y-30801167D01*
X23835813Y-30815548D01*
X23806616Y-30824405D01*
X23770110Y-30828000D01*
X23219890Y-30828000D01*
X23183384Y-30824405D01*
X23154187Y-30815548D01*
X23127282Y-30801167D01*
X23103692Y-30781808D01*
X23084333Y-30758218D01*
X23069952Y-30731313D01*
X23061095Y-30702116D01*
X23057500Y-30665610D01*
X23057500Y-30040390D01*
X23061095Y-30003884D01*
X23069952Y-29974687D01*
X23084333Y-29947782D01*
X23103692Y-29924192D01*
X23127282Y-29904833D01*
X23154187Y-29890452D01*
X23183384Y-29881595D01*
X23219890Y-29878000D01*
X23770110Y-29878000D01*
X23806616Y-29881595D01*
X23806616Y-29881595D01*
G37*
G36*
X4787000Y-30314000D02*
X3087000Y-30314000D01*
X3087000Y-28614000D01*
X4787000Y-28614000D01*
X4787000Y-30314000D01*
X4787000Y-30314000D01*
G37*
G36*
X6643630Y-28626299D02*
X6803855Y-28674903D01*
X6951520Y-28753831D01*
X7080949Y-28860051D01*
X7187169Y-28989480D01*
X7266097Y-29137145D01*
X7314701Y-29297370D01*
X7331112Y-29464000D01*
X7314701Y-29630630D01*
X7266097Y-29790855D01*
X7187169Y-29938520D01*
X7080949Y-30067949D01*
X6951520Y-30174169D01*
X6803855Y-30253097D01*
X6643630Y-30301701D01*
X6518752Y-30314000D01*
X6435248Y-30314000D01*
X6310370Y-30301701D01*
X6150145Y-30253097D01*
X6002480Y-30174169D01*
X5873051Y-30067949D01*
X5766831Y-29938520D01*
X5687903Y-29790855D01*
X5639299Y-29630630D01*
X5622888Y-29464000D01*
X5639299Y-29297370D01*
X5687903Y-29137145D01*
X5766831Y-28989480D01*
X5873051Y-28860051D01*
X6002480Y-28753831D01*
X6150145Y-28674903D01*
X6310370Y-28626299D01*
X6435248Y-28614000D01*
X6518752Y-28614000D01*
X6643630Y-28626299D01*
X6643630Y-28626299D01*
G37*
G36*
X18188000Y-28935000D02*
X12038000Y-28935000D01*
X12038000Y-27335000D01*
X18188000Y-27335000D01*
X18188000Y-28935000D01*
X18188000Y-28935000D01*
G37*
G36*
X32861116Y-28039595D02*
X32890313Y-28048452D01*
X32917218Y-28062833D01*
X32940808Y-28082192D01*
X32960167Y-28105782D01*
X32974548Y-28132687D01*
X32983405Y-28161884D01*
X32987000Y-28198390D01*
X32987000Y-28748610D01*
X32983405Y-28785116D01*
X32974548Y-28814313D01*
X32960167Y-28841218D01*
X32940808Y-28864808D01*
X32917218Y-28884167D01*
X32890313Y-28898548D01*
X32861116Y-28907405D01*
X32824610Y-28911000D01*
X32199390Y-28911000D01*
X32162884Y-28907405D01*
X32133687Y-28898548D01*
X32106782Y-28884167D01*
X32083192Y-28864808D01*
X32063833Y-28841218D01*
X32049452Y-28814313D01*
X32040595Y-28785116D01*
X32037000Y-28748610D01*
X32037000Y-28198390D01*
X32040595Y-28161884D01*
X32049452Y-28132687D01*
X32063833Y-28105782D01*
X32083192Y-28082192D01*
X32106782Y-28062833D01*
X32133687Y-28048452D01*
X32162884Y-28039595D01*
X32199390Y-28036000D01*
X32824610Y-28036000D01*
X32861116Y-28039595D01*
X32861116Y-28039595D01*
G37*
G36*
X31210116Y-28039595D02*
X31239313Y-28048452D01*
X31266218Y-28062833D01*
X31289808Y-28082192D01*
X31309167Y-28105782D01*
X31323548Y-28132687D01*
X31332405Y-28161884D01*
X31336000Y-28198390D01*
X31336000Y-28748610D01*
X31332405Y-28785116D01*
X31323548Y-28814313D01*
X31309167Y-28841218D01*
X31289808Y-28864808D01*
X31266218Y-28884167D01*
X31239313Y-28898548D01*
X31210116Y-28907405D01*
X31173610Y-28911000D01*
X30548390Y-28911000D01*
X30511884Y-28907405D01*
X30482687Y-28898548D01*
X30455782Y-28884167D01*
X30432192Y-28864808D01*
X30412833Y-28841218D01*
X30398452Y-28814313D01*
X30389595Y-28785116D01*
X30386000Y-28748610D01*
X30386000Y-28198390D01*
X30389595Y-28161884D01*
X30398452Y-28132687D01*
X30412833Y-28105782D01*
X30432192Y-28082192D01*
X30455782Y-28062833D01*
X30482687Y-28048452D01*
X30511884Y-28039595D01*
X30548390Y-28036000D01*
X31173610Y-28036000D01*
X31210116Y-28039595D01*
X31210116Y-28039595D01*
G37*
G36*
X40279027Y-26946852D02*
X40420401Y-26989738D01*
X40550694Y-27059380D01*
X40664896Y-27153104D01*
X40758620Y-27267306D01*
X40828262Y-27397599D01*
X40871148Y-27538973D01*
X40885628Y-27686000D01*
X40871148Y-27833027D01*
X40828262Y-27974401D01*
X40758620Y-28104694D01*
X40664896Y-28218896D01*
X40550694Y-28312620D01*
X40420401Y-28382262D01*
X40279027Y-28425148D01*
X40168839Y-28436000D01*
X40095161Y-28436000D01*
X39984973Y-28425148D01*
X39843599Y-28382262D01*
X39713306Y-28312620D01*
X39599104Y-28218896D01*
X39505380Y-28104694D01*
X39435738Y-27974401D01*
X39392852Y-27833027D01*
X39378372Y-27686000D01*
X39392852Y-27538973D01*
X39435738Y-27397599D01*
X39505380Y-27267306D01*
X39599104Y-27153104D01*
X39713306Y-27059380D01*
X39843599Y-26989738D01*
X39984973Y-26946852D01*
X40095161Y-26936000D01*
X40168839Y-26936000D01*
X40279027Y-26946852D01*
X40279027Y-26946852D01*
G37*
G36*
X42819027Y-26946852D02*
X42960401Y-26989738D01*
X43090694Y-27059380D01*
X43204896Y-27153104D01*
X43298620Y-27267306D01*
X43368262Y-27397599D01*
X43411148Y-27538973D01*
X43425628Y-27686000D01*
X43411148Y-27833027D01*
X43368262Y-27974401D01*
X43298620Y-28104694D01*
X43204896Y-28218896D01*
X43090694Y-28312620D01*
X42960401Y-28382262D01*
X42819027Y-28425148D01*
X42708839Y-28436000D01*
X42635161Y-28436000D01*
X42524973Y-28425148D01*
X42383599Y-28382262D01*
X42253306Y-28312620D01*
X42139104Y-28218896D01*
X42045380Y-28104694D01*
X41975738Y-27974401D01*
X41932852Y-27833027D01*
X41918372Y-27686000D01*
X41932852Y-27538973D01*
X41975738Y-27397599D01*
X42045380Y-27267306D01*
X42139104Y-27153104D01*
X42253306Y-27059380D01*
X42383599Y-26989738D01*
X42524973Y-26946852D01*
X42635161Y-26936000D01*
X42708839Y-26936000D01*
X42819027Y-26946852D01*
X42819027Y-26946852D01*
G37*
G36*
X26854616Y-27341595D02*
X26883813Y-27350452D01*
X26910718Y-27364833D01*
X26934308Y-27384192D01*
X26953667Y-27407782D01*
X26968048Y-27434687D01*
X26976905Y-27463884D01*
X26980500Y-27500390D01*
X26980500Y-28125610D01*
X26976905Y-28162116D01*
X26968048Y-28191313D01*
X26953667Y-28218218D01*
X26934308Y-28241808D01*
X26910718Y-28261167D01*
X26883813Y-28275548D01*
X26854616Y-28284405D01*
X26818110Y-28288000D01*
X26267890Y-28288000D01*
X26231384Y-28284405D01*
X26202187Y-28275548D01*
X26175282Y-28261167D01*
X26151692Y-28241808D01*
X26132333Y-28218218D01*
X26117952Y-28191313D01*
X26109095Y-28162116D01*
X26105500Y-28125610D01*
X26105500Y-27500390D01*
X26109095Y-27463884D01*
X26117952Y-27434687D01*
X26132333Y-27407782D01*
X26151692Y-27384192D01*
X26175282Y-27364833D01*
X26202187Y-27350452D01*
X26231384Y-27341595D01*
X26267890Y-27338000D01*
X26818110Y-27338000D01*
X26854616Y-27341595D01*
X26854616Y-27341595D01*
G37*
G36*
X28429616Y-27341595D02*
X28458813Y-27350452D01*
X28485718Y-27364833D01*
X28509308Y-27384192D01*
X28528667Y-27407782D01*
X28543048Y-27434687D01*
X28551905Y-27463884D01*
X28555500Y-27500390D01*
X28555500Y-28125610D01*
X28551905Y-28162116D01*
X28543048Y-28191313D01*
X28528667Y-28218218D01*
X28509308Y-28241808D01*
X28485718Y-28261167D01*
X28458813Y-28275548D01*
X28429616Y-28284405D01*
X28393110Y-28288000D01*
X27842890Y-28288000D01*
X27806384Y-28284405D01*
X27777187Y-28275548D01*
X27750282Y-28261167D01*
X27726692Y-28241808D01*
X27707333Y-28218218D01*
X27692952Y-28191313D01*
X27684095Y-28162116D01*
X27680500Y-28125610D01*
X27680500Y-27500390D01*
X27684095Y-27463884D01*
X27692952Y-27434687D01*
X27707333Y-27407782D01*
X27726692Y-27384192D01*
X27750282Y-27364833D01*
X27777187Y-27350452D01*
X27806384Y-27341595D01*
X27842890Y-27338000D01*
X28393110Y-27338000D01*
X28429616Y-27341595D01*
X28429616Y-27341595D01*
G37*
G36*
X35608012Y-26347057D02*
X35717207Y-26392287D01*
X35815481Y-26457952D01*
X35899048Y-26541519D01*
X35964713Y-26639793D01*
X36009943Y-26748988D01*
X36033000Y-26864904D01*
X36033000Y-26983096D01*
X36009943Y-27099012D01*
X35964713Y-27208207D01*
X35899048Y-27306481D01*
X35815481Y-27390048D01*
X35717207Y-27455713D01*
X35608012Y-27500943D01*
X35492096Y-27524000D01*
X35373904Y-27524000D01*
X35257988Y-27500943D01*
X35148793Y-27455713D01*
X35050519Y-27390048D01*
X34966952Y-27306481D01*
X34901287Y-27208207D01*
X34856057Y-27099012D01*
X34833000Y-26983096D01*
X34833000Y-26864904D01*
X34856057Y-26748988D01*
X34901287Y-26639793D01*
X34966952Y-26541519D01*
X35050519Y-26457952D01*
X35148793Y-26392287D01*
X35257988Y-26347057D01*
X35373904Y-26324000D01*
X35492096Y-26324000D01*
X35608012Y-26347057D01*
X35608012Y-26347057D01*
G37*
G36*
X31210116Y-26464595D02*
X31239313Y-26473452D01*
X31266218Y-26487833D01*
X31289808Y-26507192D01*
X31309167Y-26530782D01*
X31323548Y-26557687D01*
X31332405Y-26586884D01*
X31336000Y-26623390D01*
X31336000Y-27173610D01*
X31332405Y-27210116D01*
X31323548Y-27239313D01*
X31309167Y-27266218D01*
X31289808Y-27289808D01*
X31266218Y-27309167D01*
X31239313Y-27323548D01*
X31210116Y-27332405D01*
X31173610Y-27336000D01*
X30548390Y-27336000D01*
X30511884Y-27332405D01*
X30482687Y-27323548D01*
X30455782Y-27309167D01*
X30432192Y-27289808D01*
X30412833Y-27266218D01*
X30398452Y-27239313D01*
X30389595Y-27210116D01*
X30386000Y-27173610D01*
X30386000Y-26623390D01*
X30389595Y-26586884D01*
X30398452Y-26557687D01*
X30412833Y-26530782D01*
X30432192Y-26507192D01*
X30455782Y-26487833D01*
X30482687Y-26473452D01*
X30511884Y-26464595D01*
X30548390Y-26461000D01*
X31173610Y-26461000D01*
X31210116Y-26464595D01*
X31210116Y-26464595D01*
G37*
G36*
X32861116Y-26464595D02*
X32890313Y-26473452D01*
X32917218Y-26487833D01*
X32940808Y-26507192D01*
X32960167Y-26530782D01*
X32974548Y-26557687D01*
X32983405Y-26586884D01*
X32987000Y-26623390D01*
X32987000Y-27173610D01*
X32983405Y-27210116D01*
X32974548Y-27239313D01*
X32960167Y-27266218D01*
X32940808Y-27289808D01*
X32917218Y-27309167D01*
X32890313Y-27323548D01*
X32861116Y-27332405D01*
X32824610Y-27336000D01*
X32199390Y-27336000D01*
X32162884Y-27332405D01*
X32133687Y-27323548D01*
X32106782Y-27309167D01*
X32083192Y-27289808D01*
X32063833Y-27266218D01*
X32049452Y-27239313D01*
X32040595Y-27210116D01*
X32037000Y-27173610D01*
X32037000Y-26623390D01*
X32040595Y-26586884D01*
X32049452Y-26557687D01*
X32063833Y-26530782D01*
X32083192Y-26507192D01*
X32106782Y-26487833D01*
X32133687Y-26473452D01*
X32162884Y-26464595D01*
X32199390Y-26461000D01*
X32824610Y-26461000D01*
X32861116Y-26464595D01*
X32861116Y-26464595D01*
G37*
G36*
X14916616Y-25563595D02*
X14945813Y-25572452D01*
X14972718Y-25586833D01*
X14996308Y-25606192D01*
X15015667Y-25629782D01*
X15030048Y-25656687D01*
X15038905Y-25685884D01*
X15042500Y-25722390D01*
X15042500Y-26347610D01*
X15038905Y-26384116D01*
X15030048Y-26413313D01*
X15015667Y-26440218D01*
X14996308Y-26463808D01*
X14972718Y-26483167D01*
X14945813Y-26497548D01*
X14916616Y-26506405D01*
X14880110Y-26510000D01*
X14329890Y-26510000D01*
X14293384Y-26506405D01*
X14264187Y-26497548D01*
X14237282Y-26483167D01*
X14213692Y-26463808D01*
X14194333Y-26440218D01*
X14179952Y-26413313D01*
X14171095Y-26384116D01*
X14167500Y-26347610D01*
X14167500Y-25722390D01*
X14171095Y-25685884D01*
X14179952Y-25656687D01*
X14194333Y-25629782D01*
X14213692Y-25606192D01*
X14237282Y-25586833D01*
X14264187Y-25572452D01*
X14293384Y-25563595D01*
X14329890Y-25560000D01*
X14880110Y-25560000D01*
X14916616Y-25563595D01*
X14916616Y-25563595D01*
G37*
G36*
X16491616Y-25563595D02*
X16520813Y-25572452D01*
X16547718Y-25586833D01*
X16571308Y-25606192D01*
X16590667Y-25629782D01*
X16605048Y-25656687D01*
X16613905Y-25685884D01*
X16617500Y-25722390D01*
X16617500Y-26347610D01*
X16613905Y-26384116D01*
X16605048Y-26413313D01*
X16590667Y-26440218D01*
X16571308Y-26463808D01*
X16547718Y-26483167D01*
X16520813Y-26497548D01*
X16491616Y-26506405D01*
X16455110Y-26510000D01*
X15904890Y-26510000D01*
X15868384Y-26506405D01*
X15839187Y-26497548D01*
X15812282Y-26483167D01*
X15788692Y-26463808D01*
X15769333Y-26440218D01*
X15754952Y-26413313D01*
X15746095Y-26384116D01*
X15742500Y-26347610D01*
X15742500Y-25722390D01*
X15746095Y-25685884D01*
X15754952Y-25656687D01*
X15769333Y-25629782D01*
X15788692Y-25606192D01*
X15812282Y-25586833D01*
X15839187Y-25572452D01*
X15868384Y-25563595D01*
X15904890Y-25560000D01*
X16455110Y-25560000D01*
X16491616Y-25563595D01*
X16491616Y-25563595D01*
G37*
G36*
X35608012Y-24847057D02*
X35717207Y-24892287D01*
X35815481Y-24957952D01*
X35899048Y-25041519D01*
X35964713Y-25139793D01*
X36009943Y-25248988D01*
X36033000Y-25364904D01*
X36033000Y-25483096D01*
X36009943Y-25599012D01*
X35964713Y-25708207D01*
X35899048Y-25806481D01*
X35815481Y-25890048D01*
X35717207Y-25955713D01*
X35608012Y-26000943D01*
X35492096Y-26024000D01*
X35373904Y-26024000D01*
X35257988Y-26000943D01*
X35148793Y-25955713D01*
X35050519Y-25890048D01*
X34966952Y-25806481D01*
X34901287Y-25708207D01*
X34856057Y-25599012D01*
X34833000Y-25483096D01*
X34833000Y-25364904D01*
X34856057Y-25248988D01*
X34901287Y-25139793D01*
X34966952Y-25041519D01*
X35050519Y-24957952D01*
X35148793Y-24892287D01*
X35257988Y-24847057D01*
X35373904Y-24824000D01*
X35492096Y-24824000D01*
X35608012Y-24847057D01*
X35608012Y-24847057D01*
G37*
G36*
X9187000Y-25965000D02*
X7287000Y-25965000D01*
X7287000Y-23565000D01*
X9187000Y-23565000D01*
X9187000Y-25965000D01*
X9187000Y-25965000D01*
G37*
G36*
X13287000Y-25965000D02*
X11387000Y-25965000D01*
X11387000Y-23565000D01*
X13287000Y-23565000D01*
X13287000Y-25965000D01*
X13287000Y-25965000D01*
G37*
G36*
X40279027Y-24406852D02*
X40420401Y-24449738D01*
X40550694Y-24519380D01*
X40664896Y-24613104D01*
X40758620Y-24727306D01*
X40828262Y-24857599D01*
X40871148Y-24998973D01*
X40885628Y-25146000D01*
X40871148Y-25293027D01*
X40828262Y-25434401D01*
X40758620Y-25564694D01*
X40664896Y-25678896D01*
X40550694Y-25772620D01*
X40420401Y-25842262D01*
X40279027Y-25885148D01*
X40168839Y-25896000D01*
X40095161Y-25896000D01*
X39984973Y-25885148D01*
X39843599Y-25842262D01*
X39713306Y-25772620D01*
X39599104Y-25678896D01*
X39505380Y-25564694D01*
X39435738Y-25434401D01*
X39392852Y-25293027D01*
X39378372Y-25146000D01*
X39392852Y-24998973D01*
X39435738Y-24857599D01*
X39505380Y-24727306D01*
X39599104Y-24613104D01*
X39713306Y-24519380D01*
X39843599Y-24449738D01*
X39984973Y-24406852D01*
X40095161Y-24396000D01*
X40168839Y-24396000D01*
X40279027Y-24406852D01*
X40279027Y-24406852D01*
G37*
G36*
X42819027Y-24406852D02*
X42960401Y-24449738D01*
X43090694Y-24519380D01*
X43204896Y-24613104D01*
X43298620Y-24727306D01*
X43368262Y-24857599D01*
X43411148Y-24998973D01*
X43425628Y-25146000D01*
X43411148Y-25293027D01*
X43368262Y-25434401D01*
X43298620Y-25564694D01*
X43204896Y-25678896D01*
X43090694Y-25772620D01*
X42960401Y-25842262D01*
X42819027Y-25885148D01*
X42708839Y-25896000D01*
X42635161Y-25896000D01*
X42524973Y-25885148D01*
X42383599Y-25842262D01*
X42253306Y-25772620D01*
X42139104Y-25678896D01*
X42045380Y-25564694D01*
X41975738Y-25434401D01*
X41932852Y-25293027D01*
X41918372Y-25146000D01*
X41932852Y-24998973D01*
X41975738Y-24857599D01*
X42045380Y-24727306D01*
X42139104Y-24613104D01*
X42253306Y-24519380D01*
X42383599Y-24449738D01*
X42524973Y-24406852D01*
X42635161Y-24396000D01*
X42708839Y-24396000D01*
X42819027Y-24406852D01*
X42819027Y-24406852D01*
G37*
G36*
X28393000Y-25569000D02*
X27693000Y-25569000D01*
X27693000Y-23199000D01*
X28393000Y-23199000D01*
X28393000Y-25569000D01*
X28393000Y-25569000D01*
G37*
G36*
X26943000Y-25569000D02*
X24693000Y-25569000D01*
X24693000Y-25149000D01*
X25233000Y-25149000D01*
X25233000Y-24919000D01*
X24693000Y-24919000D01*
X24693000Y-24499000D01*
X25233000Y-24499000D01*
X25233000Y-24269000D01*
X24693000Y-24269000D01*
X24693000Y-23849000D01*
X25233000Y-23849000D01*
X25233000Y-23619000D01*
X24693000Y-23619000D01*
X24693000Y-23199000D01*
X26943000Y-23199000D01*
X26943000Y-25569000D01*
X26943000Y-25569000D01*
G37*
G36*
X14865616Y-24039595D02*
X14894813Y-24048452D01*
X14921718Y-24062833D01*
X14945308Y-24082192D01*
X14964667Y-24105782D01*
X14979048Y-24132687D01*
X14987905Y-24161884D01*
X14991500Y-24198390D01*
X14991500Y-24823610D01*
X14987905Y-24860116D01*
X14979048Y-24889313D01*
X14964667Y-24916218D01*
X14945308Y-24939808D01*
X14921718Y-24959167D01*
X14894813Y-24973548D01*
X14865616Y-24982405D01*
X14829110Y-24986000D01*
X14278890Y-24986000D01*
X14242384Y-24982405D01*
X14213187Y-24973548D01*
X14186282Y-24959167D01*
X14162692Y-24939808D01*
X14143333Y-24916218D01*
X14128952Y-24889313D01*
X14120095Y-24860116D01*
X14116500Y-24823610D01*
X14116500Y-24198390D01*
X14120095Y-24161884D01*
X14128952Y-24132687D01*
X14143333Y-24105782D01*
X14162692Y-24082192D01*
X14186282Y-24062833D01*
X14213187Y-24048452D01*
X14242384Y-24039595D01*
X14278890Y-24036000D01*
X14829110Y-24036000D01*
X14865616Y-24039595D01*
X14865616Y-24039595D01*
G37*
G36*
X16440616Y-24039595D02*
X16469813Y-24048452D01*
X16496718Y-24062833D01*
X16520308Y-24082192D01*
X16539667Y-24105782D01*
X16554048Y-24132687D01*
X16562905Y-24161884D01*
X16566500Y-24198390D01*
X16566500Y-24823610D01*
X16562905Y-24860116D01*
X16554048Y-24889313D01*
X16539667Y-24916218D01*
X16520308Y-24939808D01*
X16496718Y-24959167D01*
X16469813Y-24973548D01*
X16440616Y-24982405D01*
X16404110Y-24986000D01*
X15853890Y-24986000D01*
X15817384Y-24982405D01*
X15788187Y-24973548D01*
X15761282Y-24959167D01*
X15737692Y-24939808D01*
X15718333Y-24916218D01*
X15703952Y-24889313D01*
X15695095Y-24860116D01*
X15691500Y-24823610D01*
X15691500Y-24198390D01*
X15695095Y-24161884D01*
X15703952Y-24132687D01*
X15718333Y-24105782D01*
X15737692Y-24082192D01*
X15761282Y-24062833D01*
X15788187Y-24048452D01*
X15817384Y-24039595D01*
X15853890Y-24036000D01*
X16404110Y-24036000D01*
X16440616Y-24039595D01*
X16440616Y-24039595D01*
G37*
G36*
X29813116Y-23848595D02*
X29842313Y-23857452D01*
X29869218Y-23871833D01*
X29892808Y-23891192D01*
X29912167Y-23914782D01*
X29926548Y-23941687D01*
X29935405Y-23970884D01*
X29939000Y-24007390D01*
X29939000Y-24557610D01*
X29935405Y-24594116D01*
X29926548Y-24623313D01*
X29912167Y-24650218D01*
X29892808Y-24673808D01*
X29869218Y-24693167D01*
X29842313Y-24707548D01*
X29813116Y-24716405D01*
X29776610Y-24720000D01*
X29151390Y-24720000D01*
X29114884Y-24716405D01*
X29085687Y-24707548D01*
X29058782Y-24693167D01*
X29035192Y-24673808D01*
X29015833Y-24650218D01*
X29001452Y-24623313D01*
X28992595Y-24594116D01*
X28989000Y-24557610D01*
X28989000Y-24007390D01*
X28992595Y-23970884D01*
X29001452Y-23941687D01*
X29015833Y-23914782D01*
X29035192Y-23891192D01*
X29058782Y-23871833D01*
X29085687Y-23857452D01*
X29114884Y-23848595D01*
X29151390Y-23845000D01*
X29776610Y-23845000D01*
X29813116Y-23848595D01*
X29813116Y-23848595D01*
G37*
G36*
X35608012Y-23347057D02*
X35717207Y-23392287D01*
X35815481Y-23457952D01*
X35899048Y-23541519D01*
X35964713Y-23639793D01*
X36009943Y-23748988D01*
X36033000Y-23864904D01*
X36033000Y-23983096D01*
X36009943Y-24099012D01*
X35964713Y-24208207D01*
X35899048Y-24306481D01*
X35815481Y-24390048D01*
X35717207Y-24455713D01*
X35608012Y-24500943D01*
X35492096Y-24524000D01*
X35373904Y-24524000D01*
X35257988Y-24500943D01*
X35148793Y-24455713D01*
X35050519Y-24390048D01*
X34966952Y-24306481D01*
X34901287Y-24208207D01*
X34856057Y-24099012D01*
X34833000Y-23983096D01*
X34833000Y-23864904D01*
X34856057Y-23748988D01*
X34901287Y-23639793D01*
X34966952Y-23541519D01*
X35050519Y-23457952D01*
X35148793Y-23392287D01*
X35257988Y-23347057D01*
X35373904Y-23324000D01*
X35492096Y-23324000D01*
X35608012Y-23347057D01*
X35608012Y-23347057D01*
G37*
G36*
X42819027Y-21866852D02*
X42960401Y-21909738D01*
X43090694Y-21979380D01*
X43204896Y-22073104D01*
X43298620Y-22187306D01*
X43368262Y-22317599D01*
X43411148Y-22458973D01*
X43425628Y-22606000D01*
X43411148Y-22753027D01*
X43368262Y-22894401D01*
X43298620Y-23024694D01*
X43204896Y-23138896D01*
X43090694Y-23232620D01*
X42960401Y-23302262D01*
X42819027Y-23345148D01*
X42708839Y-23356000D01*
X42635161Y-23356000D01*
X42524973Y-23345148D01*
X42383599Y-23302262D01*
X42253306Y-23232620D01*
X42139104Y-23138896D01*
X42045380Y-23024694D01*
X41975738Y-22894401D01*
X41932852Y-22753027D01*
X41918372Y-22606000D01*
X41932852Y-22458973D01*
X41975738Y-22317599D01*
X42045380Y-22187306D01*
X42139104Y-22073104D01*
X42253306Y-21979380D01*
X42383599Y-21909738D01*
X42524973Y-21866852D01*
X42635161Y-21856000D01*
X42708839Y-21856000D01*
X42819027Y-21866852D01*
X42819027Y-21866852D01*
G37*
G36*
X40279027Y-21866852D02*
X40420401Y-21909738D01*
X40550694Y-21979380D01*
X40664896Y-22073104D01*
X40758620Y-22187306D01*
X40828262Y-22317599D01*
X40871148Y-22458973D01*
X40885628Y-22606000D01*
X40871148Y-22753027D01*
X40828262Y-22894401D01*
X40758620Y-23024694D01*
X40664896Y-23138896D01*
X40550694Y-23232620D01*
X40420401Y-23302262D01*
X40279027Y-23345148D01*
X40168839Y-23356000D01*
X40095161Y-23356000D01*
X39984973Y-23345148D01*
X39843599Y-23302262D01*
X39713306Y-23232620D01*
X39599104Y-23138896D01*
X39505380Y-23024694D01*
X39435738Y-22894401D01*
X39392852Y-22753027D01*
X39378372Y-22606000D01*
X39392852Y-22458973D01*
X39435738Y-22317599D01*
X39505380Y-22187306D01*
X39599104Y-22073104D01*
X39713306Y-21979380D01*
X39843599Y-21909738D01*
X39984973Y-21866852D01*
X40095161Y-21856000D01*
X40168839Y-21856000D01*
X40279027Y-21866852D01*
X40279027Y-21866852D01*
G37*
G36*
X29813116Y-22273595D02*
X29842313Y-22282452D01*
X29869218Y-22296833D01*
X29892808Y-22316192D01*
X29912167Y-22339782D01*
X29926548Y-22366687D01*
X29935405Y-22395884D01*
X29939000Y-22432390D01*
X29939000Y-22982610D01*
X29935405Y-23019116D01*
X29926548Y-23048313D01*
X29912167Y-23075218D01*
X29892808Y-23098808D01*
X29869218Y-23118167D01*
X29842313Y-23132548D01*
X29813116Y-23141405D01*
X29776610Y-23145000D01*
X29151390Y-23145000D01*
X29114884Y-23141405D01*
X29085687Y-23132548D01*
X29058782Y-23118167D01*
X29035192Y-23098808D01*
X29015833Y-23075218D01*
X29001452Y-23048313D01*
X28992595Y-23019116D01*
X28989000Y-22982610D01*
X28989000Y-22432390D01*
X28992595Y-22395884D01*
X29001452Y-22366687D01*
X29015833Y-22339782D01*
X29035192Y-22316192D01*
X29058782Y-22296833D01*
X29085687Y-22282452D01*
X29114884Y-22273595D01*
X29151390Y-22270000D01*
X29776610Y-22270000D01*
X29813116Y-22273595D01*
X29813116Y-22273595D01*
G37*
G36*
X35608012Y-21847057D02*
X35717207Y-21892287D01*
X35815481Y-21957952D01*
X35899048Y-22041519D01*
X35964713Y-22139793D01*
X36009943Y-22248988D01*
X36033000Y-22364904D01*
X36033000Y-22483096D01*
X36009943Y-22599012D01*
X35964713Y-22708207D01*
X35899048Y-22806481D01*
X35815481Y-22890048D01*
X35717207Y-22955713D01*
X35608012Y-23000943D01*
X35492096Y-23024000D01*
X35373904Y-23024000D01*
X35257988Y-23000943D01*
X35148793Y-22955713D01*
X35050519Y-22890048D01*
X34966952Y-22806481D01*
X34901287Y-22708207D01*
X34856057Y-22599012D01*
X34833000Y-22483096D01*
X34833000Y-22364904D01*
X34856057Y-22248988D01*
X34901287Y-22139793D01*
X34966952Y-22041519D01*
X35050519Y-21957952D01*
X35148793Y-21892287D01*
X35257988Y-21847057D01*
X35373904Y-21824000D01*
X35492096Y-21824000D01*
X35608012Y-21847057D01*
X35608012Y-21847057D01*
G37*
G36*
X20250616Y-21753595D02*
X20279813Y-21762452D01*
X20306718Y-21776833D01*
X20330308Y-21796192D01*
X20349667Y-21819782D01*
X20364048Y-21846687D01*
X20372905Y-21875884D01*
X20376500Y-21912390D01*
X20376500Y-22537610D01*
X20372905Y-22574116D01*
X20364048Y-22603313D01*
X20349667Y-22630218D01*
X20330308Y-22653808D01*
X20306718Y-22673167D01*
X20279813Y-22687548D01*
X20250616Y-22696405D01*
X20214110Y-22700000D01*
X19663890Y-22700000D01*
X19627384Y-22696405D01*
X19598187Y-22687548D01*
X19571282Y-22673167D01*
X19547692Y-22653808D01*
X19528333Y-22630218D01*
X19513952Y-22603313D01*
X19505095Y-22574116D01*
X19501500Y-22537610D01*
X19501500Y-21912390D01*
X19505095Y-21875884D01*
X19513952Y-21846687D01*
X19528333Y-21819782D01*
X19547692Y-21796192D01*
X19571282Y-21776833D01*
X19598187Y-21762452D01*
X19627384Y-21753595D01*
X19663890Y-21750000D01*
X20214110Y-21750000D01*
X20250616Y-21753595D01*
X20250616Y-21753595D01*
G37*
G36*
X18675616Y-21753595D02*
X18704813Y-21762452D01*
X18731718Y-21776833D01*
X18755308Y-21796192D01*
X18774667Y-21819782D01*
X18789048Y-21846687D01*
X18797905Y-21875884D01*
X18801500Y-21912390D01*
X18801500Y-22537610D01*
X18797905Y-22574116D01*
X18789048Y-22603313D01*
X18774667Y-22630218D01*
X18755308Y-22653808D01*
X18731718Y-22673167D01*
X18704813Y-22687548D01*
X18675616Y-22696405D01*
X18639110Y-22700000D01*
X18088890Y-22700000D01*
X18052384Y-22696405D01*
X18023187Y-22687548D01*
X17996282Y-22673167D01*
X17972692Y-22653808D01*
X17953333Y-22630218D01*
X17938952Y-22603313D01*
X17930095Y-22574116D01*
X17926500Y-22537610D01*
X17926500Y-21912390D01*
X17930095Y-21875884D01*
X17938952Y-21846687D01*
X17953333Y-21819782D01*
X17972692Y-21796192D01*
X17996282Y-21776833D01*
X18023187Y-21762452D01*
X18052384Y-21753595D01*
X18088890Y-21750000D01*
X18639110Y-21750000D01*
X18675616Y-21753595D01*
X18675616Y-21753595D01*
G37*
G36*
X6991616Y-20991595D02*
X7020813Y-21000452D01*
X7047718Y-21014833D01*
X7071308Y-21034192D01*
X7090667Y-21057782D01*
X7105048Y-21084687D01*
X7113905Y-21113884D01*
X7117500Y-21150390D01*
X7117500Y-21775610D01*
X7113905Y-21812116D01*
X7105048Y-21841313D01*
X7090667Y-21868218D01*
X7071308Y-21891808D01*
X7047718Y-21911167D01*
X7020813Y-21925548D01*
X6991616Y-21934405D01*
X6955110Y-21938000D01*
X6404890Y-21938000D01*
X6368384Y-21934405D01*
X6339187Y-21925548D01*
X6312282Y-21911167D01*
X6288692Y-21891808D01*
X6269333Y-21868218D01*
X6254952Y-21841313D01*
X6246095Y-21812116D01*
X6242500Y-21775610D01*
X6242500Y-21150390D01*
X6246095Y-21113884D01*
X6254952Y-21084687D01*
X6269333Y-21057782D01*
X6288692Y-21034192D01*
X6312282Y-21014833D01*
X6339187Y-21000452D01*
X6368384Y-20991595D01*
X6404890Y-20988000D01*
X6955110Y-20988000D01*
X6991616Y-20991595D01*
X6991616Y-20991595D01*
G37*
G36*
X12630616Y-20991595D02*
X12659813Y-21000452D01*
X12686718Y-21014833D01*
X12710308Y-21034192D01*
X12729667Y-21057782D01*
X12744048Y-21084687D01*
X12752905Y-21113884D01*
X12756500Y-21150390D01*
X12756500Y-21775610D01*
X12752905Y-21812116D01*
X12744048Y-21841313D01*
X12729667Y-21868218D01*
X12710308Y-21891808D01*
X12686718Y-21911167D01*
X12659813Y-21925548D01*
X12630616Y-21934405D01*
X12594110Y-21938000D01*
X12043890Y-21938000D01*
X12007384Y-21934405D01*
X11978187Y-21925548D01*
X11951282Y-21911167D01*
X11927692Y-21891808D01*
X11908333Y-21868218D01*
X11893952Y-21841313D01*
X11885095Y-21812116D01*
X11881500Y-21775610D01*
X11881500Y-21150390D01*
X11885095Y-21113884D01*
X11893952Y-21084687D01*
X11908333Y-21057782D01*
X11927692Y-21034192D01*
X11951282Y-21014833D01*
X11978187Y-21000452D01*
X12007384Y-20991595D01*
X12043890Y-20988000D01*
X12594110Y-20988000D01*
X12630616Y-20991595D01*
X12630616Y-20991595D01*
G37*
G36*
X14205616Y-20991595D02*
X14234813Y-21000452D01*
X14261718Y-21014833D01*
X14285308Y-21034192D01*
X14304667Y-21057782D01*
X14319048Y-21084687D01*
X14327905Y-21113884D01*
X14331500Y-21150390D01*
X14331500Y-21775610D01*
X14327905Y-21812116D01*
X14319048Y-21841313D01*
X14304667Y-21868218D01*
X14285308Y-21891808D01*
X14261718Y-21911167D01*
X14234813Y-21925548D01*
X14205616Y-21934405D01*
X14169110Y-21938000D01*
X13618890Y-21938000D01*
X13582384Y-21934405D01*
X13553187Y-21925548D01*
X13526282Y-21911167D01*
X13502692Y-21891808D01*
X13483333Y-21868218D01*
X13468952Y-21841313D01*
X13460095Y-21812116D01*
X13456500Y-21775610D01*
X13456500Y-21150390D01*
X13460095Y-21113884D01*
X13468952Y-21084687D01*
X13483333Y-21057782D01*
X13502692Y-21034192D01*
X13526282Y-21014833D01*
X13553187Y-21000452D01*
X13582384Y-20991595D01*
X13618890Y-20988000D01*
X14169110Y-20988000D01*
X14205616Y-20991595D01*
X14205616Y-20991595D01*
G37*
G36*
X8566616Y-20991595D02*
X8595813Y-21000452D01*
X8622718Y-21014833D01*
X8646308Y-21034192D01*
X8665667Y-21057782D01*
X8680048Y-21084687D01*
X8688905Y-21113884D01*
X8692500Y-21150390D01*
X8692500Y-21775610D01*
X8688905Y-21812116D01*
X8680048Y-21841313D01*
X8665667Y-21868218D01*
X8646308Y-21891808D01*
X8622718Y-21911167D01*
X8595813Y-21925548D01*
X8566616Y-21934405D01*
X8530110Y-21938000D01*
X7979890Y-21938000D01*
X7943384Y-21934405D01*
X7914187Y-21925548D01*
X7887282Y-21911167D01*
X7863692Y-21891808D01*
X7844333Y-21868218D01*
X7829952Y-21841313D01*
X7821095Y-21812116D01*
X7817500Y-21775610D01*
X7817500Y-21150390D01*
X7821095Y-21113884D01*
X7829952Y-21084687D01*
X7844333Y-21057782D01*
X7863692Y-21034192D01*
X7887282Y-21014833D01*
X7914187Y-21000452D01*
X7943384Y-20991595D01*
X7979890Y-20988000D01*
X8530110Y-20988000D01*
X8566616Y-20991595D01*
X8566616Y-20991595D01*
G37*
G36*
X26702116Y-20356595D02*
X26731313Y-20365452D01*
X26758218Y-20379833D01*
X26781808Y-20399192D01*
X26801167Y-20422782D01*
X26815548Y-20449687D01*
X26824405Y-20478884D01*
X26828000Y-20515390D01*
X26828000Y-21140610D01*
X26824405Y-21177116D01*
X26815548Y-21206313D01*
X26801167Y-21233218D01*
X26781808Y-21256808D01*
X26758218Y-21276167D01*
X26731313Y-21290548D01*
X26702116Y-21299405D01*
X26665610Y-21303000D01*
X26115390Y-21303000D01*
X26078884Y-21299405D01*
X26049687Y-21290548D01*
X26022782Y-21276167D01*
X25999192Y-21256808D01*
X25979833Y-21233218D01*
X25965452Y-21206313D01*
X25956595Y-21177116D01*
X25953000Y-21140610D01*
X25953000Y-20515390D01*
X25956595Y-20478884D01*
X25965452Y-20449687D01*
X25979833Y-20422782D01*
X25999192Y-20399192D01*
X26022782Y-20379833D01*
X26049687Y-20365452D01*
X26078884Y-20356595D01*
X26115390Y-20353000D01*
X26665610Y-20353000D01*
X26702116Y-20356595D01*
X26702116Y-20356595D01*
G37*
G36*
X28277116Y-20356595D02*
X28306313Y-20365452D01*
X28333218Y-20379833D01*
X28356808Y-20399192D01*
X28376167Y-20422782D01*
X28390548Y-20449687D01*
X28399405Y-20478884D01*
X28403000Y-20515390D01*
X28403000Y-21140610D01*
X28399405Y-21177116D01*
X28390548Y-21206313D01*
X28376167Y-21233218D01*
X28356808Y-21256808D01*
X28333218Y-21276167D01*
X28306313Y-21290548D01*
X28277116Y-21299405D01*
X28240610Y-21303000D01*
X27690390Y-21303000D01*
X27653884Y-21299405D01*
X27624687Y-21290548D01*
X27597782Y-21276167D01*
X27574192Y-21256808D01*
X27554833Y-21233218D01*
X27540452Y-21206313D01*
X27531595Y-21177116D01*
X27528000Y-21140610D01*
X27528000Y-20515390D01*
X27531595Y-20478884D01*
X27540452Y-20449687D01*
X27554833Y-20422782D01*
X27574192Y-20399192D01*
X27597782Y-20379833D01*
X27624687Y-20365452D01*
X27653884Y-20356595D01*
X27690390Y-20353000D01*
X28240610Y-20353000D01*
X28277116Y-20356595D01*
X28277116Y-20356595D01*
G37*
G36*
X31033992Y-20012076D02*
X31067883Y-20022357D01*
X31099111Y-20039048D01*
X31126485Y-20061515D01*
X31148952Y-20088889D01*
X31165643Y-20120117D01*
X31175924Y-20154008D01*
X31180000Y-20195391D01*
X31180000Y-20795609D01*
X31175924Y-20836992D01*
X31165643Y-20870883D01*
X31148952Y-20902111D01*
X31126485Y-20929485D01*
X31099111Y-20951952D01*
X31067883Y-20968643D01*
X31033992Y-20978924D01*
X30992609Y-20983000D01*
X29967391Y-20983000D01*
X29926008Y-20978924D01*
X29892117Y-20968643D01*
X29860889Y-20951952D01*
X29833515Y-20929485D01*
X29811048Y-20902111D01*
X29794357Y-20870883D01*
X29784076Y-20836992D01*
X29780000Y-20795609D01*
X29780000Y-20195391D01*
X29784076Y-20154008D01*
X29794357Y-20120117D01*
X29811048Y-20088889D01*
X29833515Y-20061515D01*
X29860889Y-20039048D01*
X29892117Y-20022357D01*
X29926008Y-20012076D01*
X29967391Y-20008000D01*
X30992609Y-20008000D01*
X31033992Y-20012076D01*
X31033992Y-20012076D01*
G37*
G36*
X18675616Y-19975595D02*
X18704813Y-19984452D01*
X18731718Y-19998833D01*
X18755308Y-20018192D01*
X18774667Y-20041782D01*
X18789048Y-20068687D01*
X18797905Y-20097884D01*
X18801500Y-20134390D01*
X18801500Y-20759610D01*
X18797905Y-20796116D01*
X18789048Y-20825313D01*
X18774667Y-20852218D01*
X18755308Y-20875808D01*
X18731718Y-20895167D01*
X18704813Y-20909548D01*
X18675616Y-20918405D01*
X18639110Y-20922000D01*
X18088890Y-20922000D01*
X18052384Y-20918405D01*
X18023187Y-20909548D01*
X17996282Y-20895167D01*
X17972692Y-20875808D01*
X17953333Y-20852218D01*
X17938952Y-20825313D01*
X17930095Y-20796116D01*
X17926500Y-20759610D01*
X17926500Y-20134390D01*
X17930095Y-20097884D01*
X17938952Y-20068687D01*
X17953333Y-20041782D01*
X17972692Y-20018192D01*
X17996282Y-19998833D01*
X18023187Y-19984452D01*
X18052384Y-19975595D01*
X18088890Y-19972000D01*
X18639110Y-19972000D01*
X18675616Y-19975595D01*
X18675616Y-19975595D01*
G37*
G36*
X20250616Y-19975595D02*
X20279813Y-19984452D01*
X20306718Y-19998833D01*
X20330308Y-20018192D01*
X20349667Y-20041782D01*
X20364048Y-20068687D01*
X20372905Y-20097884D01*
X20376500Y-20134390D01*
X20376500Y-20759610D01*
X20372905Y-20796116D01*
X20364048Y-20825313D01*
X20349667Y-20852218D01*
X20330308Y-20875808D01*
X20306718Y-20895167D01*
X20279813Y-20909548D01*
X20250616Y-20918405D01*
X20214110Y-20922000D01*
X19663890Y-20922000D01*
X19627384Y-20918405D01*
X19598187Y-20909548D01*
X19571282Y-20895167D01*
X19547692Y-20875808D01*
X19528333Y-20852218D01*
X19513952Y-20825313D01*
X19505095Y-20796116D01*
X19501500Y-20759610D01*
X19501500Y-20134390D01*
X19505095Y-20097884D01*
X19513952Y-20068687D01*
X19528333Y-20041782D01*
X19547692Y-20018192D01*
X19571282Y-19998833D01*
X19598187Y-19984452D01*
X19627384Y-19975595D01*
X19663890Y-19972000D01*
X20214110Y-19972000D01*
X20250616Y-19975595D01*
X20250616Y-19975595D01*
G37*
G36*
X42819027Y-19326852D02*
X42960401Y-19369738D01*
X43090694Y-19439380D01*
X43204896Y-19533104D01*
X43298620Y-19647306D01*
X43368262Y-19777599D01*
X43411148Y-19918973D01*
X43425628Y-20066000D01*
X43411148Y-20213027D01*
X43368262Y-20354401D01*
X43298620Y-20484694D01*
X43204896Y-20598896D01*
X43090694Y-20692620D01*
X42960401Y-20762262D01*
X42819027Y-20805148D01*
X42708839Y-20816000D01*
X42635161Y-20816000D01*
X42524973Y-20805148D01*
X42383599Y-20762262D01*
X42253306Y-20692620D01*
X42139104Y-20598896D01*
X42045380Y-20484694D01*
X41975738Y-20354401D01*
X41932852Y-20213027D01*
X41918372Y-20066000D01*
X41932852Y-19918973D01*
X41975738Y-19777599D01*
X42045380Y-19647306D01*
X42139104Y-19533104D01*
X42253306Y-19439380D01*
X42383599Y-19369738D01*
X42524973Y-19326852D01*
X42635161Y-19316000D01*
X42708839Y-19316000D01*
X42819027Y-19326852D01*
X42819027Y-19326852D01*
G37*
G36*
X40279027Y-19326852D02*
X40420401Y-19369738D01*
X40550694Y-19439380D01*
X40664896Y-19533104D01*
X40758620Y-19647306D01*
X40828262Y-19777599D01*
X40871148Y-19918973D01*
X40885628Y-20066000D01*
X40871148Y-20213027D01*
X40828262Y-20354401D01*
X40758620Y-20484694D01*
X40664896Y-20598896D01*
X40550694Y-20692620D01*
X40420401Y-20762262D01*
X40279027Y-20805148D01*
X40168839Y-20816000D01*
X40095161Y-20816000D01*
X39984973Y-20805148D01*
X39843599Y-20762262D01*
X39713306Y-20692620D01*
X39599104Y-20598896D01*
X39505380Y-20484694D01*
X39435738Y-20354401D01*
X39392852Y-20213027D01*
X39378372Y-20066000D01*
X39392852Y-19918973D01*
X39435738Y-19777599D01*
X39505380Y-19647306D01*
X39599104Y-19533104D01*
X39713306Y-19439380D01*
X39843599Y-19369738D01*
X39984973Y-19326852D01*
X40095161Y-19316000D01*
X40168839Y-19316000D01*
X40279027Y-19326852D01*
X40279027Y-19326852D01*
G37*
G36*
X2579000Y-20298000D02*
X679000Y-20298000D01*
X679000Y-18998000D01*
X2579000Y-18998000D01*
X2579000Y-20298000D01*
X2579000Y-20298000D01*
G37*
G36*
X28747992Y-18742076D02*
X28781883Y-18752357D01*
X28813111Y-18769048D01*
X28840485Y-18791515D01*
X28862952Y-18818889D01*
X28879643Y-18850117D01*
X28889924Y-18884008D01*
X28894000Y-18925391D01*
X28894000Y-19525609D01*
X28889924Y-19566992D01*
X28879643Y-19600883D01*
X28862952Y-19632111D01*
X28840485Y-19659485D01*
X28813111Y-19681952D01*
X28781883Y-19698643D01*
X28747992Y-19708924D01*
X28706609Y-19713000D01*
X27681391Y-19713000D01*
X27640008Y-19708924D01*
X27606117Y-19698643D01*
X27574889Y-19681952D01*
X27547515Y-19659485D01*
X27525048Y-19632111D01*
X27508357Y-19600883D01*
X27498076Y-19566992D01*
X27494000Y-19525609D01*
X27494000Y-18925391D01*
X27498076Y-18884008D01*
X27508357Y-18850117D01*
X27525048Y-18818889D01*
X27547515Y-18791515D01*
X27574889Y-18769048D01*
X27606117Y-18752357D01*
X27640008Y-18742076D01*
X27681391Y-18738000D01*
X28706609Y-18738000D01*
X28747992Y-18742076D01*
X28747992Y-18742076D01*
G37*
G36*
X31033992Y-18137076D02*
X31067883Y-18147357D01*
X31099111Y-18164048D01*
X31126485Y-18186515D01*
X31148952Y-18213889D01*
X31165643Y-18245117D01*
X31175924Y-18279008D01*
X31180000Y-18320391D01*
X31180000Y-18920609D01*
X31175924Y-18961992D01*
X31165643Y-18995883D01*
X31148952Y-19027111D01*
X31126485Y-19054485D01*
X31099111Y-19076952D01*
X31067883Y-19093643D01*
X31033992Y-19103924D01*
X30992609Y-19108000D01*
X29967391Y-19108000D01*
X29926008Y-19103924D01*
X29892117Y-19093643D01*
X29860889Y-19076952D01*
X29833515Y-19054485D01*
X29811048Y-19027111D01*
X29794357Y-18995883D01*
X29784076Y-18961992D01*
X29780000Y-18920609D01*
X29780000Y-18320391D01*
X29784076Y-18279008D01*
X29794357Y-18245117D01*
X29811048Y-18213889D01*
X29833515Y-18186515D01*
X29860889Y-18164048D01*
X29892117Y-18147357D01*
X29926008Y-18137076D01*
X29967391Y-18133000D01*
X30992609Y-18133000D01*
X31033992Y-18137076D01*
X31033992Y-18137076D01*
G37*
G36*
X40279027Y-16786852D02*
X40420401Y-16829738D01*
X40550694Y-16899380D01*
X40664896Y-16993104D01*
X40758620Y-17107306D01*
X40828262Y-17237599D01*
X40871148Y-17378973D01*
X40885628Y-17526000D01*
X40871148Y-17673027D01*
X40828262Y-17814401D01*
X40758620Y-17944694D01*
X40664896Y-18058896D01*
X40550694Y-18152620D01*
X40420401Y-18222262D01*
X40279027Y-18265148D01*
X40168839Y-18276000D01*
X40095161Y-18276000D01*
X39984973Y-18265148D01*
X39843599Y-18222262D01*
X39713306Y-18152620D01*
X39599104Y-18058896D01*
X39505380Y-17944694D01*
X39435738Y-17814401D01*
X39392852Y-17673027D01*
X39378372Y-17526000D01*
X39392852Y-17378973D01*
X39435738Y-17237599D01*
X39505380Y-17107306D01*
X39599104Y-16993104D01*
X39713306Y-16899380D01*
X39843599Y-16829738D01*
X39984973Y-16786852D01*
X40095161Y-16776000D01*
X40168839Y-16776000D01*
X40279027Y-16786852D01*
X40279027Y-16786852D01*
G37*
G36*
X42819027Y-16786852D02*
X42960401Y-16829738D01*
X43090694Y-16899380D01*
X43204896Y-16993104D01*
X43298620Y-17107306D01*
X43368262Y-17237599D01*
X43411148Y-17378973D01*
X43425628Y-17526000D01*
X43411148Y-17673027D01*
X43368262Y-17814401D01*
X43298620Y-17944694D01*
X43204896Y-18058896D01*
X43090694Y-18152620D01*
X42960401Y-18222262D01*
X42819027Y-18265148D01*
X42708839Y-18276000D01*
X42635161Y-18276000D01*
X42524973Y-18265148D01*
X42383599Y-18222262D01*
X42253306Y-18152620D01*
X42139104Y-18058896D01*
X42045380Y-17944694D01*
X41975738Y-17814401D01*
X41932852Y-17673027D01*
X41918372Y-17526000D01*
X41932852Y-17378973D01*
X41975738Y-17237599D01*
X42045380Y-17107306D01*
X42139104Y-16993104D01*
X42253306Y-16899380D01*
X42383599Y-16829738D01*
X42524973Y-16786852D01*
X42635161Y-16776000D01*
X42708839Y-16776000D01*
X42819027Y-16786852D01*
X42819027Y-16786852D01*
G37*
G36*
X28747992Y-16867076D02*
X28781883Y-16877357D01*
X28813111Y-16894048D01*
X28840485Y-16916515D01*
X28862952Y-16943889D01*
X28879643Y-16975117D01*
X28889924Y-17009008D01*
X28894000Y-17050391D01*
X28894000Y-17650609D01*
X28889924Y-17691992D01*
X28879643Y-17725883D01*
X28862952Y-17757111D01*
X28840485Y-17784485D01*
X28813111Y-17806952D01*
X28781883Y-17823643D01*
X28747992Y-17833924D01*
X28706609Y-17838000D01*
X27681391Y-17838000D01*
X27640008Y-17833924D01*
X27606117Y-17823643D01*
X27574889Y-17806952D01*
X27547515Y-17784485D01*
X27525048Y-17757111D01*
X27508357Y-17725883D01*
X27498076Y-17691992D01*
X27494000Y-17650609D01*
X27494000Y-17050391D01*
X27498076Y-17009008D01*
X27508357Y-16975117D01*
X27525048Y-16943889D01*
X27547515Y-16916515D01*
X27574889Y-16894048D01*
X27606117Y-16877357D01*
X27640008Y-16867076D01*
X27681391Y-16863000D01*
X28706609Y-16863000D01*
X28747992Y-16867076D01*
X28747992Y-16867076D01*
G37*
G36*
X17329000Y-17798000D02*
X16129000Y-17798000D01*
X16129000Y-16798000D01*
X17329000Y-16798000D01*
X17329000Y-17798000D01*
X17329000Y-17798000D01*
G37*
G36*
X17329000Y-16098000D02*
X16129000Y-16098000D01*
X16129000Y-15398000D01*
X17329000Y-15398000D01*
X17329000Y-16098000D01*
X17329000Y-16098000D01*
G37*
G36*
X40279027Y-14246852D02*
X40420401Y-14289738D01*
X40550694Y-14359380D01*
X40664896Y-14453104D01*
X40758620Y-14567306D01*
X40828262Y-14697599D01*
X40871148Y-14838973D01*
X40885628Y-14986000D01*
X40871148Y-15133027D01*
X40828262Y-15274401D01*
X40758620Y-15404694D01*
X40664896Y-15518896D01*
X40550694Y-15612620D01*
X40420401Y-15682262D01*
X40279027Y-15725148D01*
X40168839Y-15736000D01*
X40095161Y-15736000D01*
X39984973Y-15725148D01*
X39843599Y-15682262D01*
X39713306Y-15612620D01*
X39599104Y-15518896D01*
X39505380Y-15404694D01*
X39435738Y-15274401D01*
X39392852Y-15133027D01*
X39378372Y-14986000D01*
X39392852Y-14838973D01*
X39435738Y-14697599D01*
X39505380Y-14567306D01*
X39599104Y-14453104D01*
X39713306Y-14359380D01*
X39843599Y-14289738D01*
X39984973Y-14246852D01*
X40095161Y-14236000D01*
X40168839Y-14236000D01*
X40279027Y-14246852D01*
X40279027Y-14246852D01*
G37*
G36*
X42819027Y-14246852D02*
X42960401Y-14289738D01*
X43090694Y-14359380D01*
X43204896Y-14453104D01*
X43298620Y-14567306D01*
X43368262Y-14697599D01*
X43411148Y-14838973D01*
X43425628Y-14986000D01*
X43411148Y-15133027D01*
X43368262Y-15274401D01*
X43298620Y-15404694D01*
X43204896Y-15518896D01*
X43090694Y-15612620D01*
X42960401Y-15682262D01*
X42819027Y-15725148D01*
X42708839Y-15736000D01*
X42635161Y-15736000D01*
X42524973Y-15725148D01*
X42383599Y-15682262D01*
X42253306Y-15612620D01*
X42139104Y-15518896D01*
X42045380Y-15404694D01*
X41975738Y-15274401D01*
X41932852Y-15133027D01*
X41918372Y-14986000D01*
X41932852Y-14838973D01*
X41975738Y-14697599D01*
X42045380Y-14567306D01*
X42139104Y-14453104D01*
X42253306Y-14359380D01*
X42383599Y-14289738D01*
X42524973Y-14246852D01*
X42635161Y-14236000D01*
X42708839Y-14236000D01*
X42819027Y-14246852D01*
X42819027Y-14246852D01*
G37*
G36*
X17329000Y-14998000D02*
X16129000Y-14998000D01*
X16129000Y-14298000D01*
X17329000Y-14298000D01*
X17329000Y-14998000D01*
X17329000Y-14998000D01*
G37*
G36*
X33314000Y-14899000D02*
X31964000Y-14899000D01*
X31964000Y-13549000D01*
X33314000Y-13549000D01*
X33314000Y-14899000D01*
X33314000Y-14899000D01*
G37*
G36*
X25737116Y-13752595D02*
X25766313Y-13761452D01*
X25793218Y-13775833D01*
X25816808Y-13795192D01*
X25836167Y-13818782D01*
X25850548Y-13845687D01*
X25859405Y-13874884D01*
X25863000Y-13911390D01*
X25863000Y-14536610D01*
X25859405Y-14573116D01*
X25850548Y-14602313D01*
X25836167Y-14629218D01*
X25816808Y-14652808D01*
X25793218Y-14672167D01*
X25766313Y-14686548D01*
X25737116Y-14695405D01*
X25700610Y-14699000D01*
X25150390Y-14699000D01*
X25113884Y-14695405D01*
X25084687Y-14686548D01*
X25057782Y-14672167D01*
X25034192Y-14652808D01*
X25014833Y-14629218D01*
X25000452Y-14602313D01*
X24991595Y-14573116D01*
X24988000Y-14536610D01*
X24988000Y-13911390D01*
X24991595Y-13874884D01*
X25000452Y-13845687D01*
X25014833Y-13818782D01*
X25034192Y-13795192D01*
X25057782Y-13775833D01*
X25084687Y-13761452D01*
X25113884Y-13752595D01*
X25150390Y-13749000D01*
X25700610Y-13749000D01*
X25737116Y-13752595D01*
X25737116Y-13752595D01*
G37*
G36*
X24162116Y-13752595D02*
X24191313Y-13761452D01*
X24218218Y-13775833D01*
X24241808Y-13795192D01*
X24261167Y-13818782D01*
X24275548Y-13845687D01*
X24284405Y-13874884D01*
X24288000Y-13911390D01*
X24288000Y-14536610D01*
X24284405Y-14573116D01*
X24275548Y-14602313D01*
X24261167Y-14629218D01*
X24241808Y-14652808D01*
X24218218Y-14672167D01*
X24191313Y-14686548D01*
X24162116Y-14695405D01*
X24125610Y-14699000D01*
X23575390Y-14699000D01*
X23538884Y-14695405D01*
X23509687Y-14686548D01*
X23482782Y-14672167D01*
X23459192Y-14652808D01*
X23439833Y-14629218D01*
X23425452Y-14602313D01*
X23416595Y-14573116D01*
X23413000Y-14536610D01*
X23413000Y-13911390D01*
X23416595Y-13874884D01*
X23425452Y-13845687D01*
X23439833Y-13818782D01*
X23459192Y-13795192D01*
X23482782Y-13775833D01*
X23509687Y-13761452D01*
X23538884Y-13752595D01*
X23575390Y-13749000D01*
X24125610Y-13749000D01*
X24162116Y-13752595D01*
X24162116Y-13752595D01*
G37*
G36*
X20659000Y-14685000D02*
X19759000Y-14685000D01*
X19759000Y-13885000D01*
X20659000Y-13885000D01*
X20659000Y-14685000D01*
X20659000Y-14685000D01*
G37*
G36*
X17329000Y-13898000D02*
X16129000Y-13898000D01*
X16129000Y-13198000D01*
X17329000Y-13198000D01*
X17329000Y-13898000D01*
X17329000Y-13898000D01*
G37*
G36*
X22659000Y-13735000D02*
X21759000Y-13735000D01*
X21759000Y-12935000D01*
X22659000Y-12935000D01*
X22659000Y-13735000D01*
X22659000Y-13735000D01*
G37*
G36*
X36616000Y-13375000D02*
X35266000Y-13375000D01*
X35266000Y-12025000D01*
X36616000Y-12025000D01*
X36616000Y-13375000D01*
X36616000Y-13375000D01*
G37*
G36*
X42819027Y-11706852D02*
X42960401Y-11749738D01*
X43090694Y-11819380D01*
X43204896Y-11913104D01*
X43298620Y-12027306D01*
X43368262Y-12157599D01*
X43411148Y-12298973D01*
X43425628Y-12446000D01*
X43411148Y-12593027D01*
X43368262Y-12734401D01*
X43298620Y-12864694D01*
X43204896Y-12978896D01*
X43090694Y-13072620D01*
X42960401Y-13142262D01*
X42819027Y-13185148D01*
X42708839Y-13196000D01*
X42635161Y-13196000D01*
X42524973Y-13185148D01*
X42383599Y-13142262D01*
X42253306Y-13072620D01*
X42139104Y-12978896D01*
X42045380Y-12864694D01*
X41975738Y-12734401D01*
X41932852Y-12593027D01*
X41918372Y-12446000D01*
X41932852Y-12298973D01*
X41975738Y-12157599D01*
X42045380Y-12027306D01*
X42139104Y-11913104D01*
X42253306Y-11819380D01*
X42383599Y-11749738D01*
X42524973Y-11706852D01*
X42635161Y-11696000D01*
X42708839Y-11696000D01*
X42819027Y-11706852D01*
X42819027Y-11706852D01*
G37*
G36*
X40279027Y-11706852D02*
X40420401Y-11749738D01*
X40550694Y-11819380D01*
X40664896Y-11913104D01*
X40758620Y-12027306D01*
X40828262Y-12157599D01*
X40871148Y-12298973D01*
X40885628Y-12446000D01*
X40871148Y-12593027D01*
X40828262Y-12734401D01*
X40758620Y-12864694D01*
X40664896Y-12978896D01*
X40550694Y-13072620D01*
X40420401Y-13142262D01*
X40279027Y-13185148D01*
X40168839Y-13196000D01*
X40095161Y-13196000D01*
X39984973Y-13185148D01*
X39843599Y-13142262D01*
X39713306Y-13072620D01*
X39599104Y-12978896D01*
X39505380Y-12864694D01*
X39435738Y-12734401D01*
X39392852Y-12593027D01*
X39378372Y-12446000D01*
X39392852Y-12298973D01*
X39435738Y-12157599D01*
X39505380Y-12027306D01*
X39599104Y-11913104D01*
X39713306Y-11819380D01*
X39843599Y-11749738D01*
X39984973Y-11706852D01*
X40095161Y-11696000D01*
X40168839Y-11696000D01*
X40279027Y-11706852D01*
X40279027Y-11706852D01*
G37*
G36*
X32771323Y-11558767D02*
X32898561Y-11597364D01*
X33015824Y-11660042D01*
X33118606Y-11744394D01*
X33202958Y-11847176D01*
X33265636Y-11964439D01*
X33304233Y-12091677D01*
X33317266Y-12224000D01*
X33304233Y-12356323D01*
X33265636Y-12483561D01*
X33202958Y-12600824D01*
X33118606Y-12703606D01*
X33015824Y-12787958D01*
X32898561Y-12850636D01*
X32771323Y-12889233D01*
X32672159Y-12899000D01*
X32605841Y-12899000D01*
X32506677Y-12889233D01*
X32379439Y-12850636D01*
X32262176Y-12787958D01*
X32159394Y-12703606D01*
X32075042Y-12600824D01*
X32012364Y-12483561D01*
X31973767Y-12356323D01*
X31960734Y-12224000D01*
X31973767Y-12091677D01*
X32012364Y-11964439D01*
X32075042Y-11847176D01*
X32159394Y-11744394D01*
X32262176Y-11660042D01*
X32379439Y-11597364D01*
X32506677Y-11558767D01*
X32605841Y-11549000D01*
X32672159Y-11549000D01*
X32771323Y-11558767D01*
X32771323Y-11558767D01*
G37*
G36*
X17329000Y-12798000D02*
X16129000Y-12798000D01*
X16129000Y-12098000D01*
X17329000Y-12098000D01*
X17329000Y-12798000D01*
X17329000Y-12798000D01*
G37*
G36*
X20659000Y-12785000D02*
X19759000Y-12785000D01*
X19759000Y-11985000D01*
X20659000Y-11985000D01*
X20659000Y-12785000D01*
X20659000Y-12785000D01*
G37*
G36*
X17329000Y-11698000D02*
X16129000Y-11698000D01*
X16129000Y-10998000D01*
X17329000Y-10998000D01*
X17329000Y-11698000D01*
X17329000Y-11698000D01*
G37*
G36*
X36073323Y-10034767D02*
X36200561Y-10073364D01*
X36317824Y-10136042D01*
X36420606Y-10220394D01*
X36504958Y-10323176D01*
X36567636Y-10440439D01*
X36606233Y-10567677D01*
X36619266Y-10700000D01*
X36606233Y-10832323D01*
X36567636Y-10959561D01*
X36504958Y-11076824D01*
X36420606Y-11179606D01*
X36317824Y-11263958D01*
X36200561Y-11326636D01*
X36073323Y-11365233D01*
X35974159Y-11375000D01*
X35907841Y-11375000D01*
X35808677Y-11365233D01*
X35681439Y-11326636D01*
X35564176Y-11263958D01*
X35461394Y-11179606D01*
X35377042Y-11076824D01*
X35314364Y-10959561D01*
X35275767Y-10832323D01*
X35262734Y-10700000D01*
X35275767Y-10567677D01*
X35314364Y-10440439D01*
X35377042Y-10323176D01*
X35461394Y-10220394D01*
X35564176Y-10136042D01*
X35681439Y-10073364D01*
X35808677Y-10034767D01*
X35907841Y-10025000D01*
X35974159Y-10025000D01*
X36073323Y-10034767D01*
X36073323Y-10034767D01*
G37*
G36*
X26996000Y-8887000D02*
X26456000Y-8887000D01*
X26456000Y-9117000D01*
X26996000Y-9117000D01*
X26996000Y-9537000D01*
X26456000Y-9537000D01*
X26456000Y-9767000D01*
X26996000Y-9767000D01*
X26996000Y-10187000D01*
X26456000Y-10187000D01*
X26456000Y-10417000D01*
X26996000Y-10417000D01*
X26996000Y-10837000D01*
X24746000Y-10837000D01*
X24746000Y-8467000D01*
X26996000Y-8467000D01*
X26996000Y-8887000D01*
X26996000Y-8887000D01*
G37*
G36*
X23996000Y-10837000D02*
X23296000Y-10837000D01*
X23296000Y-8467000D01*
X23996000Y-8467000D01*
X23996000Y-10837000D01*
X23996000Y-10837000D01*
G37*
G36*
X42819027Y-9166852D02*
X42960401Y-9209738D01*
X43090694Y-9279380D01*
X43204896Y-9373104D01*
X43298620Y-9487306D01*
X43368262Y-9617599D01*
X43411148Y-9758973D01*
X43425628Y-9906000D01*
X43411148Y-10053027D01*
X43368262Y-10194401D01*
X43298620Y-10324694D01*
X43204896Y-10438896D01*
X43090694Y-10532620D01*
X42960401Y-10602262D01*
X42819027Y-10645148D01*
X42708839Y-10656000D01*
X42635161Y-10656000D01*
X42524973Y-10645148D01*
X42383599Y-10602262D01*
X42253306Y-10532620D01*
X42139104Y-10438896D01*
X42045380Y-10324694D01*
X41975738Y-10194401D01*
X41932852Y-10053027D01*
X41918372Y-9906000D01*
X41932852Y-9758973D01*
X41975738Y-9617599D01*
X42045380Y-9487306D01*
X42139104Y-9373104D01*
X42253306Y-9279380D01*
X42383599Y-9209738D01*
X42524973Y-9166852D01*
X42635161Y-9156000D01*
X42708839Y-9156000D01*
X42819027Y-9166852D01*
X42819027Y-9166852D01*
G37*
G36*
X40279027Y-9166852D02*
X40420401Y-9209738D01*
X40550694Y-9279380D01*
X40664896Y-9373104D01*
X40758620Y-9487306D01*
X40828262Y-9617599D01*
X40871148Y-9758973D01*
X40885628Y-9906000D01*
X40871148Y-10053027D01*
X40828262Y-10194401D01*
X40758620Y-10324694D01*
X40664896Y-10438896D01*
X40550694Y-10532620D01*
X40420401Y-10602262D01*
X40279027Y-10645148D01*
X40168839Y-10656000D01*
X40095161Y-10656000D01*
X39984973Y-10645148D01*
X39843599Y-10602262D01*
X39713306Y-10532620D01*
X39599104Y-10438896D01*
X39505380Y-10324694D01*
X39435738Y-10194401D01*
X39392852Y-10053027D01*
X39378372Y-9906000D01*
X39392852Y-9758973D01*
X39435738Y-9617599D01*
X39505380Y-9487306D01*
X39599104Y-9373104D01*
X39713306Y-9279380D01*
X39843599Y-9209738D01*
X39984973Y-9166852D01*
X40095161Y-9156000D01*
X40168839Y-9156000D01*
X40279027Y-9166852D01*
X40279027Y-9166852D01*
G37*
G36*
X17329000Y-10598000D02*
X16129000Y-10598000D01*
X16129000Y-9898000D01*
X17329000Y-9898000D01*
X17329000Y-10598000D01*
X17329000Y-10598000D01*
G37*
G36*
X17329000Y-9498000D02*
X16129000Y-9498000D01*
X16129000Y-8798000D01*
X17329000Y-8798000D01*
X17329000Y-9498000D01*
X17329000Y-9498000D01*
G37*
G36*
X21292116Y-8164595D02*
X21321313Y-8173452D01*
X21348218Y-8187833D01*
X21371808Y-8207192D01*
X21391167Y-8230782D01*
X21405548Y-8257687D01*
X21414405Y-8286884D01*
X21418000Y-8323390D01*
X21418000Y-8948610D01*
X21414405Y-8985116D01*
X21405548Y-9014313D01*
X21391167Y-9041218D01*
X21371808Y-9064808D01*
X21348218Y-9084167D01*
X21321313Y-9098548D01*
X21292116Y-9107405D01*
X21255610Y-9111000D01*
X20705390Y-9111000D01*
X20668884Y-9107405D01*
X20639687Y-9098548D01*
X20612782Y-9084167D01*
X20589192Y-9064808D01*
X20569833Y-9041218D01*
X20555452Y-9014313D01*
X20546595Y-8985116D01*
X20543000Y-8948610D01*
X20543000Y-8323390D01*
X20546595Y-8286884D01*
X20555452Y-8257687D01*
X20569833Y-8230782D01*
X20589192Y-8207192D01*
X20612782Y-8187833D01*
X20639687Y-8173452D01*
X20668884Y-8164595D01*
X20705390Y-8161000D01*
X21255610Y-8161000D01*
X21292116Y-8164595D01*
X21292116Y-8164595D01*
G37*
G36*
X19717116Y-8164595D02*
X19746313Y-8173452D01*
X19773218Y-8187833D01*
X19796808Y-8207192D01*
X19816167Y-8230782D01*
X19830548Y-8257687D01*
X19839405Y-8286884D01*
X19843000Y-8323390D01*
X19843000Y-8948610D01*
X19839405Y-8985116D01*
X19830548Y-9014313D01*
X19816167Y-9041218D01*
X19796808Y-9064808D01*
X19773218Y-9084167D01*
X19746313Y-9098548D01*
X19717116Y-9107405D01*
X19680610Y-9111000D01*
X19130390Y-9111000D01*
X19093884Y-9107405D01*
X19064687Y-9098548D01*
X19037782Y-9084167D01*
X19014192Y-9064808D01*
X18994833Y-9041218D01*
X18980452Y-9014313D01*
X18971595Y-8985116D01*
X18968000Y-8948610D01*
X18968000Y-8323390D01*
X18971595Y-8286884D01*
X18980452Y-8257687D01*
X18994833Y-8230782D01*
X19014192Y-8207192D01*
X19037782Y-8187833D01*
X19064687Y-8173452D01*
X19093884Y-8164595D01*
X19130390Y-8161000D01*
X19680610Y-8161000D01*
X19717116Y-8164595D01*
X19717116Y-8164595D01*
G37*
G36*
X17329000Y-8398000D02*
X16129000Y-8398000D01*
X16129000Y-7698000D01*
X17329000Y-7698000D01*
X17329000Y-8398000D01*
X17329000Y-8398000D01*
G37*
G36*
X42819027Y-6626852D02*
X42960401Y-6669738D01*
X43090694Y-6739380D01*
X43204896Y-6833104D01*
X43298620Y-6947306D01*
X43368262Y-7077599D01*
X43411148Y-7218973D01*
X43425628Y-7366000D01*
X43411148Y-7513027D01*
X43368262Y-7654401D01*
X43298620Y-7784694D01*
X43204896Y-7898896D01*
X43090694Y-7992620D01*
X42960401Y-8062262D01*
X42819027Y-8105148D01*
X42708839Y-8116000D01*
X42635161Y-8116000D01*
X42524973Y-8105148D01*
X42383599Y-8062262D01*
X42253306Y-7992620D01*
X42139104Y-7898896D01*
X42045380Y-7784694D01*
X41975738Y-7654401D01*
X41932852Y-7513027D01*
X41918372Y-7366000D01*
X41932852Y-7218973D01*
X41975738Y-7077599D01*
X42045380Y-6947306D01*
X42139104Y-6833104D01*
X42253306Y-6739380D01*
X42383599Y-6669738D01*
X42524973Y-6626852D01*
X42635161Y-6616000D01*
X42708839Y-6616000D01*
X42819027Y-6626852D01*
X42819027Y-6626852D01*
G37*
G36*
X40882000Y-8116000D02*
X39382000Y-8116000D01*
X39382000Y-6616000D01*
X40882000Y-6616000D01*
X40882000Y-8116000D01*
X40882000Y-8116000D01*
G37*
G36*
X34124000Y-7708000D02*
X32424000Y-7708000D01*
X32424000Y-6008000D01*
X34124000Y-6008000D01*
X34124000Y-7708000D01*
X34124000Y-7708000D01*
G37*
G36*
X17329000Y-7298000D02*
X16129000Y-7298000D01*
X16129000Y-6598000D01*
X17329000Y-6598000D01*
X17329000Y-7298000D01*
X17329000Y-7298000D01*
G37*
G36*
X3479000Y-6623000D02*
X679000Y-6623000D01*
X679000Y-5623000D01*
X3479000Y-5623000D01*
X3479000Y-6623000D01*
X3479000Y-6623000D01*
G37*
G36*
X13029000Y-6623000D02*
X11829000Y-6623000D01*
X11829000Y-5623000D01*
X13029000Y-5623000D01*
X13029000Y-6623000D01*
X13029000Y-6623000D01*
G37*
G36*
X24483024Y-5226955D02*
X24515736Y-5236879D01*
X24545890Y-5252997D01*
X24572316Y-5274684D01*
X24594003Y-5301110D01*
X24610121Y-5331264D01*
X24620045Y-5363976D01*
X24624000Y-5404138D01*
X24624000Y-6291862D01*
X24620045Y-6332024D01*
X24610121Y-6364736D01*
X24594003Y-6394890D01*
X24572316Y-6421316D01*
X24545890Y-6443003D01*
X24515736Y-6459121D01*
X24483024Y-6469045D01*
X24442862Y-6473000D01*
X23055138Y-6473000D01*
X23014976Y-6469045D01*
X22982264Y-6459121D01*
X22952110Y-6443003D01*
X22925684Y-6421316D01*
X22903997Y-6394890D01*
X22887879Y-6364736D01*
X22877955Y-6332024D01*
X22874000Y-6291862D01*
X22874000Y-5404138D01*
X22877955Y-5363976D01*
X22887879Y-5331264D01*
X22903997Y-5301110D01*
X22925684Y-5274684D01*
X22952110Y-5252997D01*
X22982264Y-5236879D01*
X23014976Y-5226955D01*
X23055138Y-5223000D01*
X24442862Y-5223000D01*
X24483024Y-5226955D01*
X24483024Y-5226955D01*
G37*
G36*
X28580000Y-6118000D02*
X27930000Y-6118000D01*
X27930000Y-5058000D01*
X28580000Y-5058000D01*
X28580000Y-6118000D01*
X28580000Y-6118000D01*
G37*
G36*
X26680000Y-6118000D02*
X26030000Y-6118000D01*
X26030000Y-5058000D01*
X26680000Y-5058000D01*
X26680000Y-6118000D01*
X26680000Y-6118000D01*
G37*
G36*
X27630000Y-6118000D02*
X26980000Y-6118000D01*
X26980000Y-5058000D01*
X27630000Y-5058000D01*
X27630000Y-6118000D01*
X27630000Y-6118000D01*
G37*
G36*
X33440630Y-3480299D02*
X33600855Y-3528903D01*
X33748520Y-3607831D01*
X33877949Y-3714051D01*
X33984169Y-3843480D01*
X34063097Y-3991145D01*
X34111701Y-4151370D01*
X34128112Y-4318000D01*
X34111701Y-4484630D01*
X34063097Y-4644855D01*
X33984169Y-4792520D01*
X33877949Y-4921949D01*
X33748520Y-5028169D01*
X33600855Y-5107097D01*
X33440630Y-5155701D01*
X33315752Y-5168000D01*
X33232248Y-5168000D01*
X33107370Y-5155701D01*
X32947145Y-5107097D01*
X32799480Y-5028169D01*
X32670051Y-4921949D01*
X32563831Y-4792520D01*
X32484903Y-4644855D01*
X32436299Y-4484630D01*
X32419888Y-4318000D01*
X32436299Y-4151370D01*
X32484903Y-3991145D01*
X32563831Y-3843480D01*
X32670051Y-3714051D01*
X32799480Y-3607831D01*
X32947145Y-3528903D01*
X33107370Y-3480299D01*
X33232248Y-3468000D01*
X33315752Y-3468000D01*
X33440630Y-3480299D01*
X33440630Y-3480299D01*
G37*
G36*
X39458000Y-4025000D02*
X37758000Y-4025000D01*
X37758000Y-2325000D01*
X39458000Y-2325000D01*
X39458000Y-4025000D01*
X39458000Y-4025000D01*
G37*
G36*
X41314630Y-2337299D02*
X41474855Y-2385903D01*
X41622520Y-2464831D01*
X41751949Y-2571051D01*
X41858169Y-2700480D01*
X41937097Y-2848145D01*
X41985701Y-3008370D01*
X42002112Y-3175000D01*
X41985701Y-3341630D01*
X41937097Y-3501855D01*
X41858169Y-3649520D01*
X41751949Y-3778949D01*
X41622520Y-3885169D01*
X41474855Y-3964097D01*
X41314630Y-4012701D01*
X41189752Y-4025000D01*
X41106248Y-4025000D01*
X40981370Y-4012701D01*
X40821145Y-3964097D01*
X40673480Y-3885169D01*
X40544051Y-3778949D01*
X40437831Y-3649520D01*
X40358903Y-3501855D01*
X40310299Y-3341630D01*
X40293888Y-3175000D01*
X40310299Y-3008370D01*
X40358903Y-2848145D01*
X40437831Y-2700480D01*
X40544051Y-2571051D01*
X40673480Y-2464831D01*
X40821145Y-2385903D01*
X40981370Y-2337299D01*
X41106248Y-2325000D01*
X41189752Y-2325000D01*
X41314630Y-2337299D01*
X41314630Y-2337299D01*
G37*
G36*
X27630000Y-3918000D02*
X26980000Y-3918000D01*
X26980000Y-2858000D01*
X27630000Y-2858000D01*
X27630000Y-3918000D01*
X27630000Y-3918000D01*
G37*
G36*
X28580000Y-3918000D02*
X27930000Y-3918000D01*
X27930000Y-2858000D01*
X28580000Y-2858000D01*
X28580000Y-3918000D01*
X28580000Y-3918000D01*
G37*
G36*
X26680000Y-3918000D02*
X26030000Y-3918000D01*
X26030000Y-2858000D01*
X26680000Y-2858000D01*
X26680000Y-3918000D01*
X26680000Y-3918000D01*
G37*
G36*
X24483024Y-2426955D02*
X24515736Y-2436879D01*
X24545890Y-2452997D01*
X24572316Y-2474684D01*
X24594003Y-2501110D01*
X24610121Y-2531264D01*
X24620045Y-2563976D01*
X24624000Y-2604138D01*
X24624000Y-3491862D01*
X24620045Y-3532024D01*
X24610121Y-3564736D01*
X24594003Y-3594890D01*
X24572316Y-3621316D01*
X24545890Y-3643003D01*
X24515736Y-3659121D01*
X24483024Y-3669045D01*
X24442862Y-3673000D01*
X23055138Y-3673000D01*
X23014976Y-3669045D01*
X22982264Y-3659121D01*
X22952110Y-3643003D01*
X22925684Y-3621316D01*
X22903997Y-3594890D01*
X22887879Y-3564736D01*
X22877955Y-3532024D01*
X22874000Y-3491862D01*
X22874000Y-2604138D01*
X22877955Y-2563976D01*
X22887879Y-2531264D01*
X22903997Y-2501110D01*
X22925684Y-2474684D01*
X22952110Y-2452997D01*
X22982264Y-2436879D01*
X23014976Y-2426955D01*
X23055138Y-2423000D01*
X24442862Y-2423000D01*
X24483024Y-2426955D01*
X24483024Y-2426955D01*
G37*
G36*
X16613012Y-1423057D02*
X16722207Y-1468287D01*
X16820481Y-1533952D01*
X16904048Y-1617519D01*
X16969713Y-1715793D01*
X17014943Y-1824988D01*
X17038000Y-1940904D01*
X17038000Y-2059096D01*
X17014943Y-2175012D01*
X16969713Y-2284207D01*
X16904048Y-2382481D01*
X16820481Y-2466048D01*
X16722207Y-2531713D01*
X16613012Y-2576943D01*
X16497096Y-2600000D01*
X16378904Y-2600000D01*
X16262988Y-2576943D01*
X16153793Y-2531713D01*
X16055519Y-2466048D01*
X15971952Y-2382481D01*
X15906287Y-2284207D01*
X15861057Y-2175012D01*
X15838000Y-2059096D01*
X15838000Y-1940904D01*
X15861057Y-1824988D01*
X15906287Y-1715793D01*
X15971952Y-1617519D01*
X16055519Y-1533952D01*
X16153793Y-1468287D01*
X16262988Y-1423057D01*
X16378904Y-1400000D01*
X16497096Y-1400000D01*
X16613012Y-1423057D01*
X16613012Y-1423057D01*
G37*
G36*
X19613012Y-1423057D02*
X19722207Y-1468287D01*
X19820481Y-1533952D01*
X19904048Y-1617519D01*
X19969713Y-1715793D01*
X20014943Y-1824988D01*
X20038000Y-1940904D01*
X20038000Y-2059096D01*
X20014943Y-2175012D01*
X19969713Y-2284207D01*
X19904048Y-2382481D01*
X19820481Y-2466048D01*
X19722207Y-2531713D01*
X19613012Y-2576943D01*
X19497096Y-2600000D01*
X19378904Y-2600000D01*
X19262988Y-2576943D01*
X19153793Y-2531713D01*
X19055519Y-2466048D01*
X18971952Y-2382481D01*
X18906287Y-2284207D01*
X18861057Y-2175012D01*
X18838000Y-2059096D01*
X18838000Y-1940904D01*
X18861057Y-1824988D01*
X18906287Y-1715793D01*
X18971952Y-1617519D01*
X19055519Y-1533952D01*
X19153793Y-1468287D01*
X19262988Y-1423057D01*
X19378904Y-1400000D01*
X19497096Y-1400000D01*
X19613012Y-1423057D01*
X19613012Y-1423057D01*
G37*
G36*
X18113012Y-1423057D02*
X18222207Y-1468287D01*
X18320481Y-1533952D01*
X18404048Y-1617519D01*
X18469713Y-1715793D01*
X18514943Y-1824988D01*
X18538000Y-1940904D01*
X18538000Y-2059096D01*
X18514943Y-2175012D01*
X18469713Y-2284207D01*
X18404048Y-2382481D01*
X18320481Y-2466048D01*
X18222207Y-2531713D01*
X18113012Y-2576943D01*
X17997096Y-2600000D01*
X17878904Y-2600000D01*
X17762988Y-2576943D01*
X17653793Y-2531713D01*
X17555519Y-2466048D01*
X17471952Y-2382481D01*
X17406287Y-2284207D01*
X17361057Y-2175012D01*
X17338000Y-2059096D01*
X17338000Y-1940904D01*
X17361057Y-1824988D01*
X17406287Y-1715793D01*
X17471952Y-1617519D01*
X17555519Y-1533952D01*
X17653793Y-1468287D01*
X17762988Y-1423057D01*
X17878904Y-1400000D01*
X17997096Y-1400000D01*
X18113012Y-1423057D01*
X18113012Y-1423057D01*
G37*
G36*
X12113012Y-1423057D02*
X12222207Y-1468287D01*
X12320481Y-1533952D01*
X12404048Y-1617519D01*
X12469713Y-1715793D01*
X12514943Y-1824988D01*
X12538000Y-1940904D01*
X12538000Y-2059096D01*
X12514943Y-2175012D01*
X12469713Y-2284207D01*
X12404048Y-2382481D01*
X12320481Y-2466048D01*
X12222207Y-2531713D01*
X12113012Y-2576943D01*
X11997096Y-2600000D01*
X11878904Y-2600000D01*
X11762988Y-2576943D01*
X11653793Y-2531713D01*
X11555519Y-2466048D01*
X11471952Y-2382481D01*
X11406287Y-2284207D01*
X11361057Y-2175012D01*
X11338000Y-2059096D01*
X11338000Y-1940904D01*
X11361057Y-1824988D01*
X11406287Y-1715793D01*
X11471952Y-1617519D01*
X11555519Y-1533952D01*
X11653793Y-1468287D01*
X11762988Y-1423057D01*
X11878904Y-1400000D01*
X11997096Y-1400000D01*
X12113012Y-1423057D01*
X12113012Y-1423057D01*
G37*
G36*
X13613012Y-1423057D02*
X13722207Y-1468287D01*
X13820481Y-1533952D01*
X13904048Y-1617519D01*
X13969713Y-1715793D01*
X14014943Y-1824988D01*
X14038000Y-1940904D01*
X14038000Y-2059096D01*
X14014943Y-2175012D01*
X13969713Y-2284207D01*
X13904048Y-2382481D01*
X13820481Y-2466048D01*
X13722207Y-2531713D01*
X13613012Y-2576943D01*
X13497096Y-2600000D01*
X13378904Y-2600000D01*
X13262988Y-2576943D01*
X13153793Y-2531713D01*
X13055519Y-2466048D01*
X12971952Y-2382481D01*
X12906287Y-2284207D01*
X12861057Y-2175012D01*
X12838000Y-2059096D01*
X12838000Y-1940904D01*
X12861057Y-1824988D01*
X12906287Y-1715793D01*
X12971952Y-1617519D01*
X13055519Y-1533952D01*
X13153793Y-1468287D01*
X13262988Y-1423057D01*
X13378904Y-1400000D01*
X13497096Y-1400000D01*
X13613012Y-1423057D01*
X13613012Y-1423057D01*
G37*
G36*
X15113012Y-1423057D02*
X15222207Y-1468287D01*
X15320481Y-1533952D01*
X15404048Y-1617519D01*
X15469713Y-1715793D01*
X15514943Y-1824988D01*
X15538000Y-1940904D01*
X15538000Y-2059096D01*
X15514943Y-2175012D01*
X15469713Y-2284207D01*
X15404048Y-2382481D01*
X15320481Y-2466048D01*
X15222207Y-2531713D01*
X15113012Y-2576943D01*
X14997096Y-2600000D01*
X14878904Y-2600000D01*
X14762988Y-2576943D01*
X14653793Y-2531713D01*
X14555519Y-2466048D01*
X14471952Y-2382481D01*
X14406287Y-2284207D01*
X14361057Y-2175012D01*
X14338000Y-2059096D01*
X14338000Y-1940904D01*
X14361057Y-1824988D01*
X14406287Y-1715793D01*
X14471952Y-1617519D01*
X14555519Y-1533952D01*
X14653793Y-1468287D01*
X14762988Y-1423057D01*
X14878904Y-1400000D01*
X14997096Y-1400000D01*
X15113012Y-1423057D01*
X15113012Y-1423057D01*
G37*
M02*
