G04 #@! TF.GenerationSoftware,KiCad,Pcbnew,(5.0.0)*
G04 #@! TF.CreationDate,2020-04-02T10:34:19-07:00*
G04 #@! TF.ProjectId,controlBoard_rev05a,636F6E74726F6C426F6172645F726576,rev?*
G04 #@! TF.SameCoordinates,Original*
G04 #@! TF.FileFunction,Legend,Top*
G04 #@! TF.FilePolarity,Positive*
%FSLAX46Y46*%
G04 Gerber Fmt 4.6, Leading zero omitted, Abs format (unit mm)*
G04 Created by KiCad (PCBNEW (5.0.0)) date 04/02/20 10:34:19*
%MOMM*%
%LPD*%
G01*
G04 APERTURE LIST*
%ADD10C,0.120000*%
%ADD11C,0.150000*%
%ADD12C,0.100000*%
G04 APERTURE END LIST*
D10*
G04 #@! TO.C,C5*
X42478000Y-4505000D02*
X42478000Y-1845000D01*
X39878000Y-4505000D02*
X42478000Y-4505000D01*
X39878000Y-1845000D02*
X42478000Y-1845000D01*
X39878000Y-4505000D02*
X39878000Y-1845000D01*
X38608000Y-4505000D02*
X37278000Y-4505000D01*
X37278000Y-4505000D02*
X37278000Y-3175000D01*
G04 #@! TO.C,J5*
X37001000Y-13760000D02*
X35941000Y-13760000D01*
X37001000Y-12700000D02*
X37001000Y-13760000D01*
X37001000Y-11700000D02*
X34881000Y-11700000D01*
X34881000Y-11700000D02*
X34881000Y-9640000D01*
X37001000Y-11700000D02*
X37001000Y-9640000D01*
X37001000Y-9640000D02*
X34881000Y-9640000D01*
G04 #@! TO.C,J8*
X33699000Y-11164000D02*
X31579000Y-11164000D01*
X33699000Y-13224000D02*
X33699000Y-11164000D01*
X31579000Y-13224000D02*
X31579000Y-11164000D01*
X33699000Y-13224000D02*
X31579000Y-13224000D01*
X33699000Y-14224000D02*
X33699000Y-15284000D01*
X33699000Y-15284000D02*
X32639000Y-15284000D01*
D11*
G04 #@! TO.C,J7*
X36957000Y-31496000D02*
X36957000Y-30988000D01*
X36957000Y-33274000D02*
X36957000Y-32512000D01*
X36957000Y-34290000D02*
X36957000Y-33782000D01*
X36957000Y-36068000D02*
X36957000Y-35306000D01*
X34163000Y-30480000D02*
X34163000Y-36830000D01*
X36957000Y-30480000D02*
X34163000Y-30480000D01*
X34163000Y-36830000D02*
X36957000Y-36830000D01*
G04 #@! TO.C,J6*
X34163000Y-27686000D02*
X36957000Y-27686000D01*
X36957000Y-21336000D02*
X34163000Y-21336000D01*
X34163000Y-21336000D02*
X34163000Y-27686000D01*
X36957000Y-26924000D02*
X36957000Y-26162000D01*
X36957000Y-25146000D02*
X36957000Y-24638000D01*
X36957000Y-24130000D02*
X36957000Y-23368000D01*
X36957000Y-22352000D02*
X36957000Y-21844000D01*
G04 #@! TO.C,J9*
X16764000Y-19558000D02*
X16764000Y-6223000D01*
X889000Y-19558000D02*
X16764000Y-19558000D01*
X889000Y-6858000D02*
X889000Y-19558000D01*
X1524000Y-6223000D02*
X889000Y-6858000D01*
X16764000Y-6223000D02*
X1524000Y-6223000D01*
D10*
G04 #@! TO.C,Q1*
X26916000Y-7882000D02*
X23146000Y-7882000D01*
X23376000Y-11422000D02*
X26916000Y-11422000D01*
X26916000Y-7882000D02*
X26916000Y-8252000D01*
X26916000Y-11422000D02*
X26916000Y-11052000D01*
X23376000Y-11422000D02*
X23376000Y-11052000D01*
G04 #@! TO.C,Q3*
X28313000Y-22614000D02*
X28313000Y-22984000D01*
X24773000Y-22614000D02*
X24773000Y-22984000D01*
X24773000Y-26154000D02*
X24773000Y-25784000D01*
X28313000Y-22614000D02*
X24773000Y-22614000D01*
X24773000Y-26154000D02*
X28543000Y-26154000D01*
G04 #@! TO.C,Q2*
X21969000Y-14915000D02*
X21969000Y-13985000D01*
X21969000Y-11755000D02*
X21969000Y-12685000D01*
X21969000Y-11755000D02*
X19809000Y-11755000D01*
X21969000Y-14915000D02*
X20509000Y-14915000D01*
G04 #@! TO.C,R6*
X20030221Y-8126000D02*
X20355779Y-8126000D01*
X20030221Y-9146000D02*
X20355779Y-9146000D01*
G04 #@! TO.C,C18*
X18032000Y-53121779D02*
X18032000Y-52796221D01*
X19052000Y-53121779D02*
X19052000Y-52796221D01*
G04 #@! TO.C,C9*
X28904000Y-18546578D02*
X28904000Y-18029422D01*
X27484000Y-18546578D02*
X27484000Y-18029422D01*
G04 #@! TO.C,C17*
X29770000Y-19816578D02*
X29770000Y-19299422D01*
X31190000Y-19816578D02*
X31190000Y-19299422D01*
G04 #@! TO.C,U8*
X1464000Y-54042000D02*
X1464000Y-56702000D01*
X14224000Y-54042000D02*
X1464000Y-54042000D01*
X14224000Y-56702000D02*
X1464000Y-56702000D01*
X14224000Y-54042000D02*
X14224000Y-56702000D01*
X15494000Y-54042000D02*
X16824000Y-54042000D01*
X16824000Y-54042000D02*
X16824000Y-55372000D01*
D12*
G04 #@! TO.C,U5*
X41402000Y-8636000D02*
X38608000Y-8636000D01*
X41402000Y-5588000D02*
X41402000Y-8636000D01*
X38608000Y-5588000D02*
X43942000Y-5588000D01*
X38608000Y-57150000D02*
X38608000Y-5588000D01*
X39116000Y-57150000D02*
X38608000Y-57150000D01*
X43942000Y-57150000D02*
X39116000Y-57150000D01*
X43942000Y-5588000D02*
X43942000Y-57150000D01*
D10*
G04 #@! TO.C,Y1*
X7587000Y-26565000D02*
X13487000Y-26565000D01*
X13487000Y-26565000D02*
X13487000Y-22965000D01*
X13487000Y-22965000D02*
X7587000Y-22965000D01*
G04 #@! TO.C,U4*
X25695000Y-3588000D02*
X25695000Y-5388000D01*
X28915000Y-5388000D02*
X28915000Y-2938000D01*
G04 #@! TO.C,R2*
X22839000Y-5050064D02*
X22839000Y-3845936D01*
X24659000Y-5050064D02*
X24659000Y-3845936D01*
D11*
G04 #@! TO.C,J4*
X28194000Y-57404000D02*
X28194000Y-54610000D01*
X28194000Y-54610000D02*
X19050000Y-54610000D01*
X19050000Y-54610000D02*
X19050000Y-57404000D01*
X19050000Y-57404000D02*
X28194000Y-57404000D01*
D10*
G04 #@! TO.C,C1*
X15229721Y-26545000D02*
X15555279Y-26545000D01*
X15229721Y-25525000D02*
X15555279Y-25525000D01*
G04 #@! TO.C,C14*
X32768000Y-35722779D02*
X32768000Y-35397221D01*
X31748000Y-35722779D02*
X31748000Y-35397221D01*
G04 #@! TO.C,C13*
X30091190Y-35748279D02*
X30091190Y-35422721D01*
X31111190Y-35748279D02*
X31111190Y-35422721D01*
G04 #@! TO.C,C10*
X33022000Y-27848779D02*
X33022000Y-27523221D01*
X32002000Y-27848779D02*
X32002000Y-27523221D01*
G04 #@! TO.C,C7*
X30351000Y-27848779D02*
X30351000Y-27523221D01*
X31371000Y-27848779D02*
X31371000Y-27523221D01*
G04 #@! TO.C,C4*
X7630279Y-20953000D02*
X7304721Y-20953000D01*
X7630279Y-21973000D02*
X7304721Y-21973000D01*
G04 #@! TO.C,C3*
X12943721Y-20953000D02*
X13269279Y-20953000D01*
X12943721Y-21973000D02*
X13269279Y-21973000D01*
G04 #@! TO.C,C2*
X15178721Y-25021000D02*
X15504279Y-25021000D01*
X15178721Y-24001000D02*
X15504279Y-24001000D01*
G04 #@! TO.C,J15*
X37412000Y-50751000D02*
X37412000Y-49501000D01*
X36162000Y-50751000D02*
X37412000Y-50751000D01*
X34052000Y-46341000D02*
X34052000Y-46841000D01*
X33952000Y-46841000D02*
X33952000Y-46341000D01*
X34152000Y-46841000D02*
X33952000Y-46841000D01*
X34152000Y-46341000D02*
X34152000Y-46841000D01*
X30992000Y-47841000D02*
X31602000Y-47841000D01*
X30992000Y-49141000D02*
X31602000Y-49141000D01*
X37112000Y-47841000D02*
X36502000Y-47841000D01*
X37112000Y-49141000D02*
X36502000Y-49141000D01*
X33552000Y-49841000D02*
X33552000Y-50451000D01*
X31602000Y-49841000D02*
X33552000Y-49841000D01*
X31602000Y-46341000D02*
X31602000Y-49841000D01*
X36502000Y-46341000D02*
X31602000Y-46341000D01*
X36502000Y-49841000D02*
X36502000Y-46341000D01*
X34552000Y-49841000D02*
X36502000Y-49841000D01*
X34552000Y-50451000D02*
X34552000Y-49841000D01*
X35352000Y-50551000D02*
X35652000Y-50551000D01*
X35652000Y-50651000D02*
X35652000Y-50451000D01*
X35352000Y-50651000D02*
X35652000Y-50651000D01*
X35352000Y-50451000D02*
X35352000Y-50651000D01*
X30992000Y-50451000D02*
X37112000Y-50451000D01*
X30992000Y-45731000D02*
X30992000Y-50451000D01*
X37112000Y-45731000D02*
X30992000Y-45731000D01*
X37112000Y-50451000D02*
X37112000Y-45731000D01*
G04 #@! TO.C,J12*
X21435000Y-43910000D02*
X21435000Y-48630000D01*
X21435000Y-48630000D02*
X27555000Y-48630000D01*
X27555000Y-48630000D02*
X27555000Y-43910000D01*
X27555000Y-43910000D02*
X21435000Y-43910000D01*
X23195000Y-43910000D02*
X23195000Y-43710000D01*
X23195000Y-43710000D02*
X22895000Y-43710000D01*
X22895000Y-43710000D02*
X22895000Y-43910000D01*
X23195000Y-43810000D02*
X22895000Y-43810000D01*
X23995000Y-43910000D02*
X23995000Y-44520000D01*
X23995000Y-44520000D02*
X22045000Y-44520000D01*
X22045000Y-44520000D02*
X22045000Y-48020000D01*
X22045000Y-48020000D02*
X26945000Y-48020000D01*
X26945000Y-48020000D02*
X26945000Y-44520000D01*
X26945000Y-44520000D02*
X24995000Y-44520000D01*
X24995000Y-44520000D02*
X24995000Y-43910000D01*
X21435000Y-45220000D02*
X22045000Y-45220000D01*
X21435000Y-46520000D02*
X22045000Y-46520000D01*
X27555000Y-45220000D02*
X26945000Y-45220000D01*
X27555000Y-46520000D02*
X26945000Y-46520000D01*
X24395000Y-48020000D02*
X24395000Y-47520000D01*
X24395000Y-47520000D02*
X24595000Y-47520000D01*
X24595000Y-47520000D02*
X24595000Y-48020000D01*
X24495000Y-48020000D02*
X24495000Y-47520000D01*
X22385000Y-43610000D02*
X21135000Y-43610000D01*
X21135000Y-43610000D02*
X21135000Y-44860000D01*
G04 #@! TO.C,J11*
X11656000Y-43910000D02*
X11656000Y-48630000D01*
X11656000Y-48630000D02*
X17776000Y-48630000D01*
X17776000Y-48630000D02*
X17776000Y-43910000D01*
X17776000Y-43910000D02*
X11656000Y-43910000D01*
X13416000Y-43910000D02*
X13416000Y-43710000D01*
X13416000Y-43710000D02*
X13116000Y-43710000D01*
X13116000Y-43710000D02*
X13116000Y-43910000D01*
X13416000Y-43810000D02*
X13116000Y-43810000D01*
X14216000Y-43910000D02*
X14216000Y-44520000D01*
X14216000Y-44520000D02*
X12266000Y-44520000D01*
X12266000Y-44520000D02*
X12266000Y-48020000D01*
X12266000Y-48020000D02*
X17166000Y-48020000D01*
X17166000Y-48020000D02*
X17166000Y-44520000D01*
X17166000Y-44520000D02*
X15216000Y-44520000D01*
X15216000Y-44520000D02*
X15216000Y-43910000D01*
X11656000Y-45220000D02*
X12266000Y-45220000D01*
X11656000Y-46520000D02*
X12266000Y-46520000D01*
X17776000Y-45220000D02*
X17166000Y-45220000D01*
X17776000Y-46520000D02*
X17166000Y-46520000D01*
X14616000Y-48020000D02*
X14616000Y-47520000D01*
X14616000Y-47520000D02*
X14816000Y-47520000D01*
X14816000Y-47520000D02*
X14816000Y-48020000D01*
X14716000Y-48020000D02*
X14716000Y-47520000D01*
X12606000Y-43610000D02*
X11356000Y-43610000D01*
X11356000Y-43610000D02*
X11356000Y-44860000D01*
G04 #@! TO.C,J2*
X34604000Y-2988000D02*
X31944000Y-2988000D01*
X34604000Y-5588000D02*
X34604000Y-2988000D01*
X31944000Y-5588000D02*
X31944000Y-2988000D01*
X34604000Y-5588000D02*
X31944000Y-5588000D01*
X34604000Y-6858000D02*
X34604000Y-8188000D01*
X34604000Y-8188000D02*
X33274000Y-8188000D01*
G04 #@! TO.C,J1*
X2607000Y-35874000D02*
X7807000Y-35874000D01*
X2607000Y-30734000D02*
X2607000Y-35874000D01*
X7807000Y-28134000D02*
X7807000Y-35874000D01*
X2607000Y-30734000D02*
X5207000Y-30734000D01*
X5207000Y-30734000D02*
X5207000Y-28134000D01*
X5207000Y-28134000D02*
X7807000Y-28134000D01*
X2607000Y-29464000D02*
X2607000Y-28134000D01*
X2607000Y-28134000D02*
X3937000Y-28134000D01*
G04 #@! TO.C,D1*
X19951500Y-19712000D02*
X17666500Y-19712000D01*
X17666500Y-19712000D02*
X17666500Y-21182000D01*
X17666500Y-21182000D02*
X19951500Y-21182000D01*
G04 #@! TO.C,D7*
X35572500Y-54891000D02*
X33287500Y-54891000D01*
X33287500Y-54891000D02*
X33287500Y-56361000D01*
X33287500Y-56361000D02*
X35572500Y-56361000D01*
D11*
G04 #@! TO.C,U1*
X18738000Y-28760000D02*
X18513000Y-28760000D01*
X18738000Y-36010000D02*
X18413000Y-36010000D01*
X11488000Y-36010000D02*
X11813000Y-36010000D01*
X11488000Y-28760000D02*
X11813000Y-28760000D01*
X18738000Y-28760000D02*
X18738000Y-29085000D01*
X11488000Y-28760000D02*
X11488000Y-29085000D01*
X11488000Y-36010000D02*
X11488000Y-35685000D01*
X18738000Y-36010000D02*
X18738000Y-35685000D01*
X18513000Y-28760000D02*
X18513000Y-27335000D01*
D10*
G04 #@! TO.C,R24*
X24221221Y-42039000D02*
X24546779Y-42039000D01*
X24221221Y-41019000D02*
X24546779Y-41019000D01*
G04 #@! TO.C,R18*
X4409221Y-40765000D02*
X4734779Y-40765000D01*
X4409221Y-41785000D02*
X4734779Y-41785000D01*
G04 #@! TO.C,R19*
X28954000Y-23332221D02*
X28954000Y-23657779D01*
X29974000Y-23332221D02*
X29974000Y-23657779D01*
G04 #@! TO.C,R21*
X27493279Y-27303000D02*
X27167721Y-27303000D01*
X27493279Y-28323000D02*
X27167721Y-28323000D01*
G04 #@! TO.C,R22*
X35939000Y-41844279D02*
X35939000Y-41518721D01*
X36959000Y-41844279D02*
X36959000Y-41518721D01*
G04 #@! TO.C,R25*
X33653000Y-41391721D02*
X33653000Y-41717279D01*
X34673000Y-41391721D02*
X34673000Y-41717279D01*
G04 #@! TO.C,R1*
X19314279Y-22735000D02*
X18988721Y-22735000D01*
X19314279Y-21715000D02*
X18988721Y-21715000D01*
G04 #@! TO.C,R11*
X22544721Y-30863000D02*
X22870279Y-30863000D01*
X22544721Y-29843000D02*
X22870279Y-29843000D01*
G04 #@! TO.C,R27*
X27015221Y-20318000D02*
X27340779Y-20318000D01*
X27015221Y-21338000D02*
X27340779Y-21338000D01*
G04 #@! TO.C,R5*
X22570221Y-31621000D02*
X22895779Y-31621000D01*
X22570221Y-32641000D02*
X22895779Y-32641000D01*
G04 #@! TO.C,R4*
X24475221Y-14734000D02*
X24800779Y-14734000D01*
X24475221Y-13714000D02*
X24800779Y-13714000D01*
G04 #@! TO.C,R23*
X14696221Y-41019000D02*
X15021779Y-41019000D01*
X14696221Y-42039000D02*
X15021779Y-42039000D01*
G04 #@! TO.C,R12*
X31333221Y-55116000D02*
X31658779Y-55116000D01*
X31333221Y-56136000D02*
X31658779Y-56136000D01*
D11*
G04 #@! TO.C,SW1*
X8001000Y-47625000D02*
X3429000Y-47625000D01*
X3429000Y-47625000D02*
X3429000Y-44069000D01*
X3429000Y-44069000D02*
X8001000Y-44069000D01*
X8001000Y-44069000D02*
X8001000Y-47625000D01*
G04 #@! TO.C,Q6*
X31388000Y-43356000D02*
G75*
G03X31388000Y-43356000I-100000J0D01*
G01*
X30738000Y-43106000D02*
X31238000Y-43106000D01*
X30738000Y-40206000D02*
X30738000Y-43106000D01*
X31238000Y-40206000D02*
X30738000Y-40206000D01*
X31238000Y-43106000D02*
X31238000Y-40206000D01*
G04 #@! TO.C,J3*
X11176000Y-730000D02*
X11176000Y-3524000D01*
X11176000Y-3524000D02*
X20320000Y-3524000D01*
X20320000Y-3524000D02*
X20320000Y-730000D01*
X20320000Y-730000D02*
X11176000Y-730000D01*
G04 #@! TO.C,C5*
X36635142Y-3341666D02*
X36682761Y-3389285D01*
X36730380Y-3532142D01*
X36730380Y-3627380D01*
X36682761Y-3770238D01*
X36587523Y-3865476D01*
X36492285Y-3913095D01*
X36301809Y-3960714D01*
X36158952Y-3960714D01*
X35968476Y-3913095D01*
X35873238Y-3865476D01*
X35778000Y-3770238D01*
X35730380Y-3627380D01*
X35730380Y-3532142D01*
X35778000Y-3389285D01*
X35825619Y-3341666D01*
X35730380Y-2436904D02*
X35730380Y-2913095D01*
X36206571Y-2960714D01*
X36158952Y-2913095D01*
X36111333Y-2817857D01*
X36111333Y-2579761D01*
X36158952Y-2484523D01*
X36206571Y-2436904D01*
X36301809Y-2389285D01*
X36539904Y-2389285D01*
X36635142Y-2436904D01*
X36682761Y-2484523D01*
X36730380Y-2579761D01*
X36730380Y-2817857D01*
X36682761Y-2913095D01*
X36635142Y-2960714D01*
G04 #@! TO.C,J5*
X35607666Y-14212380D02*
X35607666Y-14926666D01*
X35560047Y-15069523D01*
X35464809Y-15164761D01*
X35321952Y-15212380D01*
X35226714Y-15212380D01*
X36560047Y-14212380D02*
X36083857Y-14212380D01*
X36036238Y-14688571D01*
X36083857Y-14640952D01*
X36179095Y-14593333D01*
X36417190Y-14593333D01*
X36512428Y-14640952D01*
X36560047Y-14688571D01*
X36607666Y-14783809D01*
X36607666Y-15021904D01*
X36560047Y-15117142D01*
X36512428Y-15164761D01*
X36417190Y-15212380D01*
X36179095Y-15212380D01*
X36083857Y-15164761D01*
X36036238Y-15117142D01*
G04 #@! TO.C,J8*
X32305666Y-15736380D02*
X32305666Y-16450666D01*
X32258047Y-16593523D01*
X32162809Y-16688761D01*
X32019952Y-16736380D01*
X31924714Y-16736380D01*
X32924714Y-16164952D02*
X32829476Y-16117333D01*
X32781857Y-16069714D01*
X32734238Y-15974476D01*
X32734238Y-15926857D01*
X32781857Y-15831619D01*
X32829476Y-15784000D01*
X32924714Y-15736380D01*
X33115190Y-15736380D01*
X33210428Y-15784000D01*
X33258047Y-15831619D01*
X33305666Y-15926857D01*
X33305666Y-15974476D01*
X33258047Y-16069714D01*
X33210428Y-16117333D01*
X33115190Y-16164952D01*
X32924714Y-16164952D01*
X32829476Y-16212571D01*
X32781857Y-16260190D01*
X32734238Y-16355428D01*
X32734238Y-16545904D01*
X32781857Y-16641142D01*
X32829476Y-16688761D01*
X32924714Y-16736380D01*
X33115190Y-16736380D01*
X33210428Y-16688761D01*
X33258047Y-16641142D01*
X33305666Y-16545904D01*
X33305666Y-16355428D01*
X33258047Y-16260190D01*
X33210428Y-16212571D01*
X33115190Y-16164952D01*
G04 #@! TO.C,J7*
D12*
X35121904Y-37985666D02*
X35693333Y-37985666D01*
X35807619Y-38023761D01*
X35883809Y-38099952D01*
X35921904Y-38214238D01*
X35921904Y-38290428D01*
X35121904Y-37680904D02*
X35121904Y-37147571D01*
X35921904Y-37490428D01*
G04 #@! TO.C,J6*
X34994904Y-28841666D02*
X35566333Y-28841666D01*
X35680619Y-28879761D01*
X35756809Y-28955952D01*
X35794904Y-29070238D01*
X35794904Y-29146428D01*
X34994904Y-28117857D02*
X34994904Y-28270238D01*
X35033000Y-28346428D01*
X35071095Y-28384523D01*
X35185380Y-28460714D01*
X35337761Y-28498809D01*
X35642523Y-28498809D01*
X35718714Y-28460714D01*
X35756809Y-28422619D01*
X35794904Y-28346428D01*
X35794904Y-28194047D01*
X35756809Y-28117857D01*
X35718714Y-28079761D01*
X35642523Y-28041666D01*
X35452047Y-28041666D01*
X35375857Y-28079761D01*
X35337761Y-28117857D01*
X35299666Y-28194047D01*
X35299666Y-28346428D01*
X35337761Y-28422619D01*
X35375857Y-28460714D01*
X35452047Y-28498809D01*
G04 #@! TO.C,J9*
D11*
X9866380Y-12906333D02*
X10580666Y-12906333D01*
X10723523Y-12953952D01*
X10818761Y-13049190D01*
X10866380Y-13192047D01*
X10866380Y-13287285D01*
X10866380Y-12382523D02*
X10866380Y-12192047D01*
X10818761Y-12096809D01*
X10771142Y-12049190D01*
X10628285Y-11953952D01*
X10437809Y-11906333D01*
X10056857Y-11906333D01*
X9961619Y-11953952D01*
X9914000Y-12001571D01*
X9866380Y-12096809D01*
X9866380Y-12287285D01*
X9914000Y-12382523D01*
X9961619Y-12430142D01*
X10056857Y-12477761D01*
X10294952Y-12477761D01*
X10390190Y-12430142D01*
X10437809Y-12382523D01*
X10485428Y-12287285D01*
X10485428Y-12096809D01*
X10437809Y-12001571D01*
X10390190Y-11953952D01*
X10294952Y-11906333D01*
G04 #@! TO.C,Q1*
X22002761Y-7786619D02*
X21907523Y-7739000D01*
X21812285Y-7643761D01*
X21669428Y-7500904D01*
X21574190Y-7453285D01*
X21478952Y-7453285D01*
X21526571Y-7691380D02*
X21431333Y-7643761D01*
X21336095Y-7548523D01*
X21288476Y-7358047D01*
X21288476Y-7024714D01*
X21336095Y-6834238D01*
X21431333Y-6739000D01*
X21526571Y-6691380D01*
X21717047Y-6691380D01*
X21812285Y-6739000D01*
X21907523Y-6834238D01*
X21955142Y-7024714D01*
X21955142Y-7358047D01*
X21907523Y-7548523D01*
X21812285Y-7643761D01*
X21717047Y-7691380D01*
X21526571Y-7691380D01*
X22907523Y-7691380D02*
X22336095Y-7691380D01*
X22621809Y-7691380D02*
X22621809Y-6691380D01*
X22526571Y-6834238D01*
X22431333Y-6929476D01*
X22336095Y-6977095D01*
G04 #@! TO.C,Q3*
X23272761Y-24677619D02*
X23177523Y-24630000D01*
X23082285Y-24534761D01*
X22939428Y-24391904D01*
X22844190Y-24344285D01*
X22748952Y-24344285D01*
X22796571Y-24582380D02*
X22701333Y-24534761D01*
X22606095Y-24439523D01*
X22558476Y-24249047D01*
X22558476Y-23915714D01*
X22606095Y-23725238D01*
X22701333Y-23630000D01*
X22796571Y-23582380D01*
X22987047Y-23582380D01*
X23082285Y-23630000D01*
X23177523Y-23725238D01*
X23225142Y-23915714D01*
X23225142Y-24249047D01*
X23177523Y-24439523D01*
X23082285Y-24534761D01*
X22987047Y-24582380D01*
X22796571Y-24582380D01*
X23558476Y-23582380D02*
X24177523Y-23582380D01*
X23844190Y-23963333D01*
X23987047Y-23963333D01*
X24082285Y-24010952D01*
X24129904Y-24058571D01*
X24177523Y-24153809D01*
X24177523Y-24391904D01*
X24129904Y-24487142D01*
X24082285Y-24534761D01*
X23987047Y-24582380D01*
X23701333Y-24582380D01*
X23606095Y-24534761D01*
X23558476Y-24487142D01*
G04 #@! TO.C,Q2*
X21113761Y-11382619D02*
X21018523Y-11335000D01*
X20923285Y-11239761D01*
X20780428Y-11096904D01*
X20685190Y-11049285D01*
X20589952Y-11049285D01*
X20637571Y-11287380D02*
X20542333Y-11239761D01*
X20447095Y-11144523D01*
X20399476Y-10954047D01*
X20399476Y-10620714D01*
X20447095Y-10430238D01*
X20542333Y-10335000D01*
X20637571Y-10287380D01*
X20828047Y-10287380D01*
X20923285Y-10335000D01*
X21018523Y-10430238D01*
X21066142Y-10620714D01*
X21066142Y-10954047D01*
X21018523Y-11144523D01*
X20923285Y-11239761D01*
X20828047Y-11287380D01*
X20637571Y-11287380D01*
X21447095Y-10382619D02*
X21494714Y-10335000D01*
X21589952Y-10287380D01*
X21828047Y-10287380D01*
X21923285Y-10335000D01*
X21970904Y-10382619D01*
X22018523Y-10477857D01*
X22018523Y-10573095D01*
X21970904Y-10715952D01*
X21399476Y-11287380D01*
X22018523Y-11287380D01*
G04 #@! TO.C,R6*
X20026333Y-7658380D02*
X19693000Y-7182190D01*
X19454904Y-7658380D02*
X19454904Y-6658380D01*
X19835857Y-6658380D01*
X19931095Y-6706000D01*
X19978714Y-6753619D01*
X20026333Y-6848857D01*
X20026333Y-6991714D01*
X19978714Y-7086952D01*
X19931095Y-7134571D01*
X19835857Y-7182190D01*
X19454904Y-7182190D01*
X20883476Y-6658380D02*
X20693000Y-6658380D01*
X20597761Y-6706000D01*
X20550142Y-6753619D01*
X20454904Y-6896476D01*
X20407285Y-7086952D01*
X20407285Y-7467904D01*
X20454904Y-7563142D01*
X20502523Y-7610761D01*
X20597761Y-7658380D01*
X20788238Y-7658380D01*
X20883476Y-7610761D01*
X20931095Y-7563142D01*
X20978714Y-7467904D01*
X20978714Y-7229809D01*
X20931095Y-7134571D01*
X20883476Y-7086952D01*
X20788238Y-7039333D01*
X20597761Y-7039333D01*
X20502523Y-7086952D01*
X20454904Y-7134571D01*
X20407285Y-7229809D01*
G04 #@! TO.C,C18*
X17469142Y-53601857D02*
X17516761Y-53649476D01*
X17564380Y-53792333D01*
X17564380Y-53887571D01*
X17516761Y-54030428D01*
X17421523Y-54125666D01*
X17326285Y-54173285D01*
X17135809Y-54220904D01*
X16992952Y-54220904D01*
X16802476Y-54173285D01*
X16707238Y-54125666D01*
X16612000Y-54030428D01*
X16564380Y-53887571D01*
X16564380Y-53792333D01*
X16612000Y-53649476D01*
X16659619Y-53601857D01*
X17564380Y-52649476D02*
X17564380Y-53220904D01*
X17564380Y-52935190D02*
X16564380Y-52935190D01*
X16707238Y-53030428D01*
X16802476Y-53125666D01*
X16850095Y-53220904D01*
X16992952Y-52078047D02*
X16945333Y-52173285D01*
X16897714Y-52220904D01*
X16802476Y-52268523D01*
X16754857Y-52268523D01*
X16659619Y-52220904D01*
X16612000Y-52173285D01*
X16564380Y-52078047D01*
X16564380Y-51887571D01*
X16612000Y-51792333D01*
X16659619Y-51744714D01*
X16754857Y-51697095D01*
X16802476Y-51697095D01*
X16897714Y-51744714D01*
X16945333Y-51792333D01*
X16992952Y-51887571D01*
X16992952Y-52078047D01*
X17040571Y-52173285D01*
X17088190Y-52220904D01*
X17183428Y-52268523D01*
X17373904Y-52268523D01*
X17469142Y-52220904D01*
X17516761Y-52173285D01*
X17564380Y-52078047D01*
X17564380Y-51887571D01*
X17516761Y-51792333D01*
X17469142Y-51744714D01*
X17373904Y-51697095D01*
X17183428Y-51697095D01*
X17088190Y-51744714D01*
X17040571Y-51792333D01*
X16992952Y-51887571D01*
G04 #@! TO.C,C9*
X26773142Y-18708666D02*
X26820761Y-18756285D01*
X26868380Y-18899142D01*
X26868380Y-18994380D01*
X26820761Y-19137238D01*
X26725523Y-19232476D01*
X26630285Y-19280095D01*
X26439809Y-19327714D01*
X26296952Y-19327714D01*
X26106476Y-19280095D01*
X26011238Y-19232476D01*
X25916000Y-19137238D01*
X25868380Y-18994380D01*
X25868380Y-18899142D01*
X25916000Y-18756285D01*
X25963619Y-18708666D01*
X26868380Y-18232476D02*
X26868380Y-18042000D01*
X26820761Y-17946761D01*
X26773142Y-17899142D01*
X26630285Y-17803904D01*
X26439809Y-17756285D01*
X26058857Y-17756285D01*
X25963619Y-17803904D01*
X25916000Y-17851523D01*
X25868380Y-17946761D01*
X25868380Y-18137238D01*
X25916000Y-18232476D01*
X25963619Y-18280095D01*
X26058857Y-18327714D01*
X26296952Y-18327714D01*
X26392190Y-18280095D01*
X26439809Y-18232476D01*
X26487428Y-18137238D01*
X26487428Y-17946761D01*
X26439809Y-17851523D01*
X26392190Y-17803904D01*
X26296952Y-17756285D01*
G04 #@! TO.C,C17*
X31853142Y-17152857D02*
X31900761Y-17200476D01*
X31948380Y-17343333D01*
X31948380Y-17438571D01*
X31900761Y-17581428D01*
X31805523Y-17676666D01*
X31710285Y-17724285D01*
X31519809Y-17771904D01*
X31376952Y-17771904D01*
X31186476Y-17724285D01*
X31091238Y-17676666D01*
X30996000Y-17581428D01*
X30948380Y-17438571D01*
X30948380Y-17343333D01*
X30996000Y-17200476D01*
X31043619Y-17152857D01*
X31948380Y-16200476D02*
X31948380Y-16771904D01*
X31948380Y-16486190D02*
X30948380Y-16486190D01*
X31091238Y-16581428D01*
X31186476Y-16676666D01*
X31234095Y-16771904D01*
X30948380Y-15867142D02*
X30948380Y-15200476D01*
X31948380Y-15629047D01*
G04 #@! TO.C,U8*
X17276380Y-56133904D02*
X18085904Y-56133904D01*
X18181142Y-56086285D01*
X18228761Y-56038666D01*
X18276380Y-55943428D01*
X18276380Y-55752952D01*
X18228761Y-55657714D01*
X18181142Y-55610095D01*
X18085904Y-55562476D01*
X17276380Y-55562476D01*
X17704952Y-54943428D02*
X17657333Y-55038666D01*
X17609714Y-55086285D01*
X17514476Y-55133904D01*
X17466857Y-55133904D01*
X17371619Y-55086285D01*
X17324000Y-55038666D01*
X17276380Y-54943428D01*
X17276380Y-54752952D01*
X17324000Y-54657714D01*
X17371619Y-54610095D01*
X17466857Y-54562476D01*
X17514476Y-54562476D01*
X17609714Y-54610095D01*
X17657333Y-54657714D01*
X17704952Y-54752952D01*
X17704952Y-54943428D01*
X17752571Y-55038666D01*
X17800190Y-55086285D01*
X17895428Y-55133904D01*
X18085904Y-55133904D01*
X18181142Y-55086285D01*
X18228761Y-55038666D01*
X18276380Y-54943428D01*
X18276380Y-54752952D01*
X18228761Y-54657714D01*
X18181142Y-54610095D01*
X18085904Y-54562476D01*
X17895428Y-54562476D01*
X17800190Y-54610095D01*
X17752571Y-54657714D01*
X17704952Y-54752952D01*
G04 #@! TO.C,U5*
X37552380Y-7365904D02*
X38361904Y-7365904D01*
X38457142Y-7318285D01*
X38504761Y-7270666D01*
X38552380Y-7175428D01*
X38552380Y-6984952D01*
X38504761Y-6889714D01*
X38457142Y-6842095D01*
X38361904Y-6794476D01*
X37552380Y-6794476D01*
X37552380Y-5842095D02*
X37552380Y-6318285D01*
X38028571Y-6365904D01*
X37980952Y-6318285D01*
X37933333Y-6223047D01*
X37933333Y-5984952D01*
X37980952Y-5889714D01*
X38028571Y-5842095D01*
X38123809Y-5794476D01*
X38361904Y-5794476D01*
X38457142Y-5842095D01*
X38504761Y-5889714D01*
X38552380Y-5984952D01*
X38552380Y-6223047D01*
X38504761Y-6318285D01*
X38457142Y-6365904D01*
G04 #@! TO.C,Y1*
X10064809Y-24741190D02*
X10064809Y-25217380D01*
X9731476Y-24217380D02*
X10064809Y-24741190D01*
X10398142Y-24217380D01*
X11255285Y-25217380D02*
X10683857Y-25217380D01*
X10969571Y-25217380D02*
X10969571Y-24217380D01*
X10874333Y-24360238D01*
X10779095Y-24455476D01*
X10683857Y-24503095D01*
G04 #@! TO.C,U4*
X29657380Y-5249904D02*
X30466904Y-5249904D01*
X30562142Y-5202285D01*
X30609761Y-5154666D01*
X30657380Y-5059428D01*
X30657380Y-4868952D01*
X30609761Y-4773714D01*
X30562142Y-4726095D01*
X30466904Y-4678476D01*
X29657380Y-4678476D01*
X29990714Y-3773714D02*
X30657380Y-3773714D01*
X29609761Y-4011809D02*
X30324047Y-4249904D01*
X30324047Y-3630857D01*
G04 #@! TO.C,R2*
X22381380Y-4614666D02*
X21905190Y-4948000D01*
X22381380Y-5186095D02*
X21381380Y-5186095D01*
X21381380Y-4805142D01*
X21429000Y-4709904D01*
X21476619Y-4662285D01*
X21571857Y-4614666D01*
X21714714Y-4614666D01*
X21809952Y-4662285D01*
X21857571Y-4709904D01*
X21905190Y-4805142D01*
X21905190Y-5186095D01*
X21476619Y-4233714D02*
X21429000Y-4186095D01*
X21381380Y-4090857D01*
X21381380Y-3852761D01*
X21429000Y-3757523D01*
X21476619Y-3709904D01*
X21571857Y-3662285D01*
X21667095Y-3662285D01*
X21809952Y-3709904D01*
X22381380Y-4281333D01*
X22381380Y-3662285D01*
G04 #@! TO.C,J4*
D12*
X23201333Y-54844190D02*
X23201333Y-55201333D01*
X23177523Y-55272761D01*
X23129904Y-55320380D01*
X23058476Y-55344190D01*
X23010857Y-55344190D01*
X23653714Y-55010857D02*
X23653714Y-55344190D01*
X23534666Y-54820380D02*
X23415619Y-55177523D01*
X23725142Y-55177523D01*
G04 #@! TO.C,C1*
D11*
X17740333Y-26646142D02*
X17692714Y-26693761D01*
X17549857Y-26741380D01*
X17454619Y-26741380D01*
X17311761Y-26693761D01*
X17216523Y-26598523D01*
X17168904Y-26503285D01*
X17121285Y-26312809D01*
X17121285Y-26169952D01*
X17168904Y-25979476D01*
X17216523Y-25884238D01*
X17311761Y-25789000D01*
X17454619Y-25741380D01*
X17549857Y-25741380D01*
X17692714Y-25789000D01*
X17740333Y-25836619D01*
X18692714Y-26741380D02*
X18121285Y-26741380D01*
X18407000Y-26741380D02*
X18407000Y-25741380D01*
X18311761Y-25884238D01*
X18216523Y-25979476D01*
X18121285Y-26027095D01*
G04 #@! TO.C,C14*
X32620952Y-33039326D02*
X32668571Y-33086945D01*
X32716190Y-33229802D01*
X32716190Y-33325040D01*
X32668571Y-33467897D01*
X32573333Y-33563135D01*
X32478095Y-33610754D01*
X32287619Y-33658373D01*
X32144762Y-33658373D01*
X31954286Y-33610754D01*
X31859048Y-33563135D01*
X31763810Y-33467897D01*
X31716190Y-33325040D01*
X31716190Y-33229802D01*
X31763810Y-33086945D01*
X31811429Y-33039326D01*
X32716190Y-32086945D02*
X32716190Y-32658373D01*
X32716190Y-32372659D02*
X31716190Y-32372659D01*
X31859048Y-32467897D01*
X31954286Y-32563135D01*
X32001905Y-32658373D01*
X32049524Y-31229802D02*
X32716190Y-31229802D01*
X31668571Y-31467897D02*
X32382857Y-31705992D01*
X32382857Y-31086945D01*
G04 #@! TO.C,C13*
X30958332Y-33115826D02*
X31005951Y-33163445D01*
X31053570Y-33306302D01*
X31053570Y-33401540D01*
X31005951Y-33544397D01*
X30910713Y-33639635D01*
X30815475Y-33687254D01*
X30624999Y-33734873D01*
X30482142Y-33734873D01*
X30291666Y-33687254D01*
X30196428Y-33639635D01*
X30101190Y-33544397D01*
X30053570Y-33401540D01*
X30053570Y-33306302D01*
X30101190Y-33163445D01*
X30148809Y-33115826D01*
X31053570Y-32163445D02*
X31053570Y-32734873D01*
X31053570Y-32449159D02*
X30053570Y-32449159D01*
X30196428Y-32544397D01*
X30291666Y-32639635D01*
X30339285Y-32734873D01*
X30053570Y-31830111D02*
X30053570Y-31211064D01*
X30434523Y-31544397D01*
X30434523Y-31401540D01*
X30482142Y-31306302D01*
X30529761Y-31258683D01*
X30624999Y-31211064D01*
X30863094Y-31211064D01*
X30958332Y-31258683D01*
X31005951Y-31306302D01*
X31053570Y-31401540D01*
X31053570Y-31687254D01*
X31005951Y-31782492D01*
X30958332Y-31830111D01*
G04 #@! TO.C,C10*
X32869142Y-25280857D02*
X32916761Y-25328476D01*
X32964380Y-25471333D01*
X32964380Y-25566571D01*
X32916761Y-25709428D01*
X32821523Y-25804666D01*
X32726285Y-25852285D01*
X32535809Y-25899904D01*
X32392952Y-25899904D01*
X32202476Y-25852285D01*
X32107238Y-25804666D01*
X32012000Y-25709428D01*
X31964380Y-25566571D01*
X31964380Y-25471333D01*
X32012000Y-25328476D01*
X32059619Y-25280857D01*
X32964380Y-24328476D02*
X32964380Y-24899904D01*
X32964380Y-24614190D02*
X31964380Y-24614190D01*
X32107238Y-24709428D01*
X32202476Y-24804666D01*
X32250095Y-24899904D01*
X31964380Y-23709428D02*
X31964380Y-23614190D01*
X32012000Y-23518952D01*
X32059619Y-23471333D01*
X32154857Y-23423714D01*
X32345333Y-23376095D01*
X32583428Y-23376095D01*
X32773904Y-23423714D01*
X32869142Y-23471333D01*
X32916761Y-23518952D01*
X32964380Y-23614190D01*
X32964380Y-23709428D01*
X32916761Y-23804666D01*
X32869142Y-23852285D01*
X32773904Y-23899904D01*
X32583428Y-23947523D01*
X32345333Y-23947523D01*
X32154857Y-23899904D01*
X32059619Y-23852285D01*
X32012000Y-23804666D01*
X31964380Y-23709428D01*
G04 #@! TO.C,C7*
X31472142Y-25312666D02*
X31519761Y-25360285D01*
X31567380Y-25503142D01*
X31567380Y-25598380D01*
X31519761Y-25741238D01*
X31424523Y-25836476D01*
X31329285Y-25884095D01*
X31138809Y-25931714D01*
X30995952Y-25931714D01*
X30805476Y-25884095D01*
X30710238Y-25836476D01*
X30615000Y-25741238D01*
X30567380Y-25598380D01*
X30567380Y-25503142D01*
X30615000Y-25360285D01*
X30662619Y-25312666D01*
X30567380Y-24979333D02*
X30567380Y-24312666D01*
X31567380Y-24741238D01*
G04 #@! TO.C,C4*
X9612333Y-21820142D02*
X9564714Y-21867761D01*
X9421857Y-21915380D01*
X9326619Y-21915380D01*
X9183761Y-21867761D01*
X9088523Y-21772523D01*
X9040904Y-21677285D01*
X8993285Y-21486809D01*
X8993285Y-21343952D01*
X9040904Y-21153476D01*
X9088523Y-21058238D01*
X9183761Y-20963000D01*
X9326619Y-20915380D01*
X9421857Y-20915380D01*
X9564714Y-20963000D01*
X9612333Y-21010619D01*
X10469476Y-21248714D02*
X10469476Y-21915380D01*
X10231380Y-20867761D02*
X9993285Y-21582047D01*
X10612333Y-21582047D01*
G04 #@! TO.C,C3*
X15454333Y-21820142D02*
X15406714Y-21867761D01*
X15263857Y-21915380D01*
X15168619Y-21915380D01*
X15025761Y-21867761D01*
X14930523Y-21772523D01*
X14882904Y-21677285D01*
X14835285Y-21486809D01*
X14835285Y-21343952D01*
X14882904Y-21153476D01*
X14930523Y-21058238D01*
X15025761Y-20963000D01*
X15168619Y-20915380D01*
X15263857Y-20915380D01*
X15406714Y-20963000D01*
X15454333Y-21010619D01*
X15787666Y-20915380D02*
X16406714Y-20915380D01*
X16073380Y-21296333D01*
X16216238Y-21296333D01*
X16311476Y-21343952D01*
X16359095Y-21391571D01*
X16406714Y-21486809D01*
X16406714Y-21724904D01*
X16359095Y-21820142D01*
X16311476Y-21867761D01*
X16216238Y-21915380D01*
X15930523Y-21915380D01*
X15835285Y-21867761D01*
X15787666Y-21820142D01*
G04 #@! TO.C,C2*
X17740333Y-24868142D02*
X17692714Y-24915761D01*
X17549857Y-24963380D01*
X17454619Y-24963380D01*
X17311761Y-24915761D01*
X17216523Y-24820523D01*
X17168904Y-24725285D01*
X17121285Y-24534809D01*
X17121285Y-24391952D01*
X17168904Y-24201476D01*
X17216523Y-24106238D01*
X17311761Y-24011000D01*
X17454619Y-23963380D01*
X17549857Y-23963380D01*
X17692714Y-24011000D01*
X17740333Y-24058619D01*
X18121285Y-24058619D02*
X18168904Y-24011000D01*
X18264142Y-23963380D01*
X18502238Y-23963380D01*
X18597476Y-24011000D01*
X18645095Y-24058619D01*
X18692714Y-24153857D01*
X18692714Y-24249095D01*
X18645095Y-24391952D01*
X18073666Y-24963380D01*
X18692714Y-24963380D01*
G04 #@! TO.C,J15*
X28146476Y-46442380D02*
X28146476Y-47156666D01*
X28098857Y-47299523D01*
X28003619Y-47394761D01*
X27860761Y-47442380D01*
X27765523Y-47442380D01*
X29146476Y-47442380D02*
X28575047Y-47442380D01*
X28860761Y-47442380D02*
X28860761Y-46442380D01*
X28765523Y-46585238D01*
X28670285Y-46680476D01*
X28575047Y-46728095D01*
X30051238Y-46442380D02*
X29575047Y-46442380D01*
X29527428Y-46918571D01*
X29575047Y-46870952D01*
X29670285Y-46823333D01*
X29908380Y-46823333D01*
X30003619Y-46870952D01*
X30051238Y-46918571D01*
X30098857Y-47013809D01*
X30098857Y-47251904D01*
X30051238Y-47347142D01*
X30003619Y-47394761D01*
X29908380Y-47442380D01*
X29670285Y-47442380D01*
X29575047Y-47394761D01*
X29527428Y-47347142D01*
G04 #@! TO.C,J12*
X23701476Y-46950380D02*
X23701476Y-47664666D01*
X23653857Y-47807523D01*
X23558619Y-47902761D01*
X23415761Y-47950380D01*
X23320523Y-47950380D01*
X24701476Y-47950380D02*
X24130047Y-47950380D01*
X24415761Y-47950380D02*
X24415761Y-46950380D01*
X24320523Y-47093238D01*
X24225285Y-47188476D01*
X24130047Y-47236095D01*
X25082428Y-47045619D02*
X25130047Y-46998000D01*
X25225285Y-46950380D01*
X25463380Y-46950380D01*
X25558619Y-46998000D01*
X25606238Y-47045619D01*
X25653857Y-47140857D01*
X25653857Y-47236095D01*
X25606238Y-47378952D01*
X25034809Y-47950380D01*
X25653857Y-47950380D01*
G04 #@! TO.C,J11*
X13922476Y-46696380D02*
X13922476Y-47410666D01*
X13874857Y-47553523D01*
X13779619Y-47648761D01*
X13636761Y-47696380D01*
X13541523Y-47696380D01*
X14922476Y-47696380D02*
X14351047Y-47696380D01*
X14636761Y-47696380D02*
X14636761Y-46696380D01*
X14541523Y-46839238D01*
X14446285Y-46934476D01*
X14351047Y-46982095D01*
X15874857Y-47696380D02*
X15303428Y-47696380D01*
X15589142Y-47696380D02*
X15589142Y-46696380D01*
X15493904Y-46839238D01*
X15398666Y-46934476D01*
X15303428Y-46982095D01*
G04 #@! TO.C,J2*
X32940666Y-8640380D02*
X32940666Y-9354666D01*
X32893047Y-9497523D01*
X32797809Y-9592761D01*
X32654952Y-9640380D01*
X32559714Y-9640380D01*
X33369238Y-8735619D02*
X33416857Y-8688000D01*
X33512095Y-8640380D01*
X33750190Y-8640380D01*
X33845428Y-8688000D01*
X33893047Y-8735619D01*
X33940666Y-8830857D01*
X33940666Y-8926095D01*
X33893047Y-9068952D01*
X33321619Y-9640380D01*
X33940666Y-9640380D01*
G04 #@! TO.C,J1*
X4873666Y-26586380D02*
X4873666Y-27300666D01*
X4826047Y-27443523D01*
X4730809Y-27538761D01*
X4587952Y-27586380D01*
X4492714Y-27586380D01*
X5873666Y-27586380D02*
X5302238Y-27586380D01*
X5587952Y-27586380D02*
X5587952Y-26586380D01*
X5492714Y-26729238D01*
X5397476Y-26824476D01*
X5302238Y-26872095D01*
G04 #@! TO.C,D1*
X18413404Y-19469380D02*
X18413404Y-18469380D01*
X18651500Y-18469380D01*
X18794357Y-18517000D01*
X18889595Y-18612238D01*
X18937214Y-18707476D01*
X18984833Y-18897952D01*
X18984833Y-19040809D01*
X18937214Y-19231285D01*
X18889595Y-19326523D01*
X18794357Y-19421761D01*
X18651500Y-19469380D01*
X18413404Y-19469380D01*
X19937214Y-19469380D02*
X19365785Y-19469380D01*
X19651500Y-19469380D02*
X19651500Y-18469380D01*
X19556261Y-18612238D01*
X19461023Y-18707476D01*
X19365785Y-18755095D01*
G04 #@! TO.C,D7*
X34034404Y-54648380D02*
X34034404Y-53648380D01*
X34272500Y-53648380D01*
X34415357Y-53696000D01*
X34510595Y-53791238D01*
X34558214Y-53886476D01*
X34605833Y-54076952D01*
X34605833Y-54219809D01*
X34558214Y-54410285D01*
X34510595Y-54505523D01*
X34415357Y-54600761D01*
X34272500Y-54648380D01*
X34034404Y-54648380D01*
X34939166Y-53648380D02*
X35605833Y-53648380D01*
X35177261Y-54648380D01*
G04 #@! TO.C,U1*
X16343380Y-33654904D02*
X17152904Y-33654904D01*
X17248142Y-33607285D01*
X17295761Y-33559666D01*
X17343380Y-33464428D01*
X17343380Y-33273952D01*
X17295761Y-33178714D01*
X17248142Y-33131095D01*
X17152904Y-33083476D01*
X16343380Y-33083476D01*
X17343380Y-32083476D02*
X17343380Y-32654904D01*
X17343380Y-32369190D02*
X16343380Y-32369190D01*
X16486238Y-32464428D01*
X16581476Y-32559666D01*
X16629095Y-32654904D01*
G04 #@! TO.C,R24*
X23741142Y-40551380D02*
X23407809Y-40075190D01*
X23169714Y-40551380D02*
X23169714Y-39551380D01*
X23550666Y-39551380D01*
X23645904Y-39599000D01*
X23693523Y-39646619D01*
X23741142Y-39741857D01*
X23741142Y-39884714D01*
X23693523Y-39979952D01*
X23645904Y-40027571D01*
X23550666Y-40075190D01*
X23169714Y-40075190D01*
X24122095Y-39646619D02*
X24169714Y-39599000D01*
X24264952Y-39551380D01*
X24503047Y-39551380D01*
X24598285Y-39599000D01*
X24645904Y-39646619D01*
X24693523Y-39741857D01*
X24693523Y-39837095D01*
X24645904Y-39979952D01*
X24074476Y-40551380D01*
X24693523Y-40551380D01*
X25550666Y-39884714D02*
X25550666Y-40551380D01*
X25312571Y-39503761D02*
X25074476Y-40218047D01*
X25693523Y-40218047D01*
G04 #@! TO.C,R18*
X4183142Y-40203380D02*
X3849809Y-39727190D01*
X3611714Y-40203380D02*
X3611714Y-39203380D01*
X3992666Y-39203380D01*
X4087904Y-39251000D01*
X4135523Y-39298619D01*
X4183142Y-39393857D01*
X4183142Y-39536714D01*
X4135523Y-39631952D01*
X4087904Y-39679571D01*
X3992666Y-39727190D01*
X3611714Y-39727190D01*
X5135523Y-40203380D02*
X4564095Y-40203380D01*
X4849809Y-40203380D02*
X4849809Y-39203380D01*
X4754571Y-39346238D01*
X4659333Y-39441476D01*
X4564095Y-39489095D01*
X5706952Y-39631952D02*
X5611714Y-39584333D01*
X5564095Y-39536714D01*
X5516476Y-39441476D01*
X5516476Y-39393857D01*
X5564095Y-39298619D01*
X5611714Y-39251000D01*
X5706952Y-39203380D01*
X5897428Y-39203380D01*
X5992666Y-39251000D01*
X6040285Y-39298619D01*
X6087904Y-39393857D01*
X6087904Y-39441476D01*
X6040285Y-39536714D01*
X5992666Y-39584333D01*
X5897428Y-39631952D01*
X5706952Y-39631952D01*
X5611714Y-39679571D01*
X5564095Y-39727190D01*
X5516476Y-39822428D01*
X5516476Y-40012904D01*
X5564095Y-40108142D01*
X5611714Y-40155761D01*
X5706952Y-40203380D01*
X5897428Y-40203380D01*
X5992666Y-40155761D01*
X6040285Y-40108142D01*
X6087904Y-40012904D01*
X6087904Y-39822428D01*
X6040285Y-39727190D01*
X5992666Y-39679571D01*
X5897428Y-39631952D01*
G04 #@! TO.C,R19*
X28567142Y-21686880D02*
X28233809Y-21210690D01*
X27995714Y-21686880D02*
X27995714Y-20686880D01*
X28376666Y-20686880D01*
X28471904Y-20734500D01*
X28519523Y-20782119D01*
X28567142Y-20877357D01*
X28567142Y-21020214D01*
X28519523Y-21115452D01*
X28471904Y-21163071D01*
X28376666Y-21210690D01*
X27995714Y-21210690D01*
X29519523Y-21686880D02*
X28948095Y-21686880D01*
X29233809Y-21686880D02*
X29233809Y-20686880D01*
X29138571Y-20829738D01*
X29043333Y-20924976D01*
X28948095Y-20972595D01*
X29995714Y-21686880D02*
X30186190Y-21686880D01*
X30281428Y-21639261D01*
X30329047Y-21591642D01*
X30424285Y-21448785D01*
X30471904Y-21258309D01*
X30471904Y-20877357D01*
X30424285Y-20782119D01*
X30376666Y-20734500D01*
X30281428Y-20686880D01*
X30090952Y-20686880D01*
X29995714Y-20734500D01*
X29948095Y-20782119D01*
X29900476Y-20877357D01*
X29900476Y-21115452D01*
X29948095Y-21210690D01*
X29995714Y-21258309D01*
X30090952Y-21305928D01*
X30281428Y-21305928D01*
X30376666Y-21258309D01*
X30424285Y-21210690D01*
X30471904Y-21115452D01*
G04 #@! TO.C,R21*
X23868142Y-28265380D02*
X23534809Y-27789190D01*
X23296714Y-28265380D02*
X23296714Y-27265380D01*
X23677666Y-27265380D01*
X23772904Y-27313000D01*
X23820523Y-27360619D01*
X23868142Y-27455857D01*
X23868142Y-27598714D01*
X23820523Y-27693952D01*
X23772904Y-27741571D01*
X23677666Y-27789190D01*
X23296714Y-27789190D01*
X24249095Y-27360619D02*
X24296714Y-27313000D01*
X24391952Y-27265380D01*
X24630047Y-27265380D01*
X24725285Y-27313000D01*
X24772904Y-27360619D01*
X24820523Y-27455857D01*
X24820523Y-27551095D01*
X24772904Y-27693952D01*
X24201476Y-28265380D01*
X24820523Y-28265380D01*
X25772904Y-28265380D02*
X25201476Y-28265380D01*
X25487190Y-28265380D02*
X25487190Y-27265380D01*
X25391952Y-27408238D01*
X25296714Y-27503476D01*
X25201476Y-27551095D01*
G04 #@! TO.C,R22*
X38600142Y-44165880D02*
X38266809Y-43689690D01*
X38028714Y-44165880D02*
X38028714Y-43165880D01*
X38409666Y-43165880D01*
X38504904Y-43213500D01*
X38552523Y-43261119D01*
X38600142Y-43356357D01*
X38600142Y-43499214D01*
X38552523Y-43594452D01*
X38504904Y-43642071D01*
X38409666Y-43689690D01*
X38028714Y-43689690D01*
X38981095Y-43261119D02*
X39028714Y-43213500D01*
X39123952Y-43165880D01*
X39362047Y-43165880D01*
X39457285Y-43213500D01*
X39504904Y-43261119D01*
X39552523Y-43356357D01*
X39552523Y-43451595D01*
X39504904Y-43594452D01*
X38933476Y-44165880D01*
X39552523Y-44165880D01*
X39933476Y-43261119D02*
X39981095Y-43213500D01*
X40076333Y-43165880D01*
X40314428Y-43165880D01*
X40409666Y-43213500D01*
X40457285Y-43261119D01*
X40504904Y-43356357D01*
X40504904Y-43451595D01*
X40457285Y-43594452D01*
X39885857Y-44165880D01*
X40504904Y-44165880D01*
G04 #@! TO.C,R25*
X33266142Y-39746380D02*
X32932809Y-39270190D01*
X32694714Y-39746380D02*
X32694714Y-38746380D01*
X33075666Y-38746380D01*
X33170904Y-38794000D01*
X33218523Y-38841619D01*
X33266142Y-38936857D01*
X33266142Y-39079714D01*
X33218523Y-39174952D01*
X33170904Y-39222571D01*
X33075666Y-39270190D01*
X32694714Y-39270190D01*
X33647095Y-38841619D02*
X33694714Y-38794000D01*
X33789952Y-38746380D01*
X34028047Y-38746380D01*
X34123285Y-38794000D01*
X34170904Y-38841619D01*
X34218523Y-38936857D01*
X34218523Y-39032095D01*
X34170904Y-39174952D01*
X33599476Y-39746380D01*
X34218523Y-39746380D01*
X35123285Y-38746380D02*
X34647095Y-38746380D01*
X34599476Y-39222571D01*
X34647095Y-39174952D01*
X34742333Y-39127333D01*
X34980428Y-39127333D01*
X35075666Y-39174952D01*
X35123285Y-39222571D01*
X35170904Y-39317809D01*
X35170904Y-39555904D01*
X35123285Y-39651142D01*
X35075666Y-39698761D01*
X34980428Y-39746380D01*
X34742333Y-39746380D01*
X34647095Y-39698761D01*
X34599476Y-39651142D01*
G04 #@! TO.C,R1*
X21499333Y-22677380D02*
X21166000Y-22201190D01*
X20927904Y-22677380D02*
X20927904Y-21677380D01*
X21308857Y-21677380D01*
X21404095Y-21725000D01*
X21451714Y-21772619D01*
X21499333Y-21867857D01*
X21499333Y-22010714D01*
X21451714Y-22105952D01*
X21404095Y-22153571D01*
X21308857Y-22201190D01*
X20927904Y-22201190D01*
X22451714Y-22677380D02*
X21880285Y-22677380D01*
X22166000Y-22677380D02*
X22166000Y-21677380D01*
X22070761Y-21820238D01*
X21975523Y-21915476D01*
X21880285Y-21963095D01*
G04 #@! TO.C,R11*
X25138142Y-30805380D02*
X24804809Y-30329190D01*
X24566714Y-30805380D02*
X24566714Y-29805380D01*
X24947666Y-29805380D01*
X25042904Y-29853000D01*
X25090523Y-29900619D01*
X25138142Y-29995857D01*
X25138142Y-30138714D01*
X25090523Y-30233952D01*
X25042904Y-30281571D01*
X24947666Y-30329190D01*
X24566714Y-30329190D01*
X26090523Y-30805380D02*
X25519095Y-30805380D01*
X25804809Y-30805380D02*
X25804809Y-29805380D01*
X25709571Y-29948238D01*
X25614333Y-30043476D01*
X25519095Y-30091095D01*
X27042904Y-30805380D02*
X26471476Y-30805380D01*
X26757190Y-30805380D02*
X26757190Y-29805380D01*
X26661952Y-29948238D01*
X26566714Y-30043476D01*
X26471476Y-30091095D01*
G04 #@! TO.C,R27*
X25344380Y-21470857D02*
X24868190Y-21804190D01*
X25344380Y-22042285D02*
X24344380Y-22042285D01*
X24344380Y-21661333D01*
X24392000Y-21566095D01*
X24439619Y-21518476D01*
X24534857Y-21470857D01*
X24677714Y-21470857D01*
X24772952Y-21518476D01*
X24820571Y-21566095D01*
X24868190Y-21661333D01*
X24868190Y-22042285D01*
X24439619Y-21089904D02*
X24392000Y-21042285D01*
X24344380Y-20947047D01*
X24344380Y-20708952D01*
X24392000Y-20613714D01*
X24439619Y-20566095D01*
X24534857Y-20518476D01*
X24630095Y-20518476D01*
X24772952Y-20566095D01*
X25344380Y-21137523D01*
X25344380Y-20518476D01*
X24344380Y-20185142D02*
X24344380Y-19518476D01*
X25344380Y-19947047D01*
G04 #@! TO.C,R5*
X25106333Y-32837380D02*
X24773000Y-32361190D01*
X24534904Y-32837380D02*
X24534904Y-31837380D01*
X24915857Y-31837380D01*
X25011095Y-31885000D01*
X25058714Y-31932619D01*
X25106333Y-32027857D01*
X25106333Y-32170714D01*
X25058714Y-32265952D01*
X25011095Y-32313571D01*
X24915857Y-32361190D01*
X24534904Y-32361190D01*
X26011095Y-31837380D02*
X25534904Y-31837380D01*
X25487285Y-32313571D01*
X25534904Y-32265952D01*
X25630142Y-32218333D01*
X25868238Y-32218333D01*
X25963476Y-32265952D01*
X26011095Y-32313571D01*
X26058714Y-32408809D01*
X26058714Y-32646904D01*
X26011095Y-32742142D01*
X25963476Y-32789761D01*
X25868238Y-32837380D01*
X25630142Y-32837380D01*
X25534904Y-32789761D01*
X25487285Y-32742142D01*
G04 #@! TO.C,R4*
X24471333Y-13246380D02*
X24138000Y-12770190D01*
X23899904Y-13246380D02*
X23899904Y-12246380D01*
X24280857Y-12246380D01*
X24376095Y-12294000D01*
X24423714Y-12341619D01*
X24471333Y-12436857D01*
X24471333Y-12579714D01*
X24423714Y-12674952D01*
X24376095Y-12722571D01*
X24280857Y-12770190D01*
X23899904Y-12770190D01*
X25328476Y-12579714D02*
X25328476Y-13246380D01*
X25090380Y-12198761D02*
X24852285Y-12913047D01*
X25471333Y-12913047D01*
G04 #@! TO.C,R23*
X14216142Y-40551380D02*
X13882809Y-40075190D01*
X13644714Y-40551380D02*
X13644714Y-39551380D01*
X14025666Y-39551380D01*
X14120904Y-39599000D01*
X14168523Y-39646619D01*
X14216142Y-39741857D01*
X14216142Y-39884714D01*
X14168523Y-39979952D01*
X14120904Y-40027571D01*
X14025666Y-40075190D01*
X13644714Y-40075190D01*
X14597095Y-39646619D02*
X14644714Y-39599000D01*
X14739952Y-39551380D01*
X14978047Y-39551380D01*
X15073285Y-39599000D01*
X15120904Y-39646619D01*
X15168523Y-39741857D01*
X15168523Y-39837095D01*
X15120904Y-39979952D01*
X14549476Y-40551380D01*
X15168523Y-40551380D01*
X15501857Y-39551380D02*
X16120904Y-39551380D01*
X15787571Y-39932333D01*
X15930428Y-39932333D01*
X16025666Y-39979952D01*
X16073285Y-40027571D01*
X16120904Y-40122809D01*
X16120904Y-40360904D01*
X16073285Y-40456142D01*
X16025666Y-40503761D01*
X15930428Y-40551380D01*
X15644714Y-40551380D01*
X15549476Y-40503761D01*
X15501857Y-40456142D01*
G04 #@! TO.C,R12*
X30853142Y-54648380D02*
X30519809Y-54172190D01*
X30281714Y-54648380D02*
X30281714Y-53648380D01*
X30662666Y-53648380D01*
X30757904Y-53696000D01*
X30805523Y-53743619D01*
X30853142Y-53838857D01*
X30853142Y-53981714D01*
X30805523Y-54076952D01*
X30757904Y-54124571D01*
X30662666Y-54172190D01*
X30281714Y-54172190D01*
X31805523Y-54648380D02*
X31234095Y-54648380D01*
X31519809Y-54648380D02*
X31519809Y-53648380D01*
X31424571Y-53791238D01*
X31329333Y-53886476D01*
X31234095Y-53934095D01*
X32186476Y-53743619D02*
X32234095Y-53696000D01*
X32329333Y-53648380D01*
X32567428Y-53648380D01*
X32662666Y-53696000D01*
X32710285Y-53743619D01*
X32757904Y-53838857D01*
X32757904Y-53934095D01*
X32710285Y-54076952D01*
X32138857Y-54648380D01*
X32757904Y-54648380D01*
G04 #@! TO.C,SW1*
X3365666Y-44981761D02*
X3508523Y-45029380D01*
X3746619Y-45029380D01*
X3841857Y-44981761D01*
X3889476Y-44934142D01*
X3937095Y-44838904D01*
X3937095Y-44743666D01*
X3889476Y-44648428D01*
X3841857Y-44600809D01*
X3746619Y-44553190D01*
X3556142Y-44505571D01*
X3460904Y-44457952D01*
X3413285Y-44410333D01*
X3365666Y-44315095D01*
X3365666Y-44219857D01*
X3413285Y-44124619D01*
X3460904Y-44077000D01*
X3556142Y-44029380D01*
X3794238Y-44029380D01*
X3937095Y-44077000D01*
X4270428Y-44029380D02*
X4508523Y-45029380D01*
X4699000Y-44315095D01*
X4889476Y-45029380D01*
X5127571Y-44029380D01*
X6032333Y-45029380D02*
X5460904Y-45029380D01*
X5746619Y-45029380D02*
X5746619Y-44029380D01*
X5651380Y-44172238D01*
X5556142Y-44267476D01*
X5460904Y-44315095D01*
G04 #@! TO.C,Q6*
X30130761Y-44743619D02*
X30035523Y-44696000D01*
X29940285Y-44600761D01*
X29797428Y-44457904D01*
X29702190Y-44410285D01*
X29606952Y-44410285D01*
X29654571Y-44648380D02*
X29559333Y-44600761D01*
X29464095Y-44505523D01*
X29416476Y-44315047D01*
X29416476Y-43981714D01*
X29464095Y-43791238D01*
X29559333Y-43696000D01*
X29654571Y-43648380D01*
X29845047Y-43648380D01*
X29940285Y-43696000D01*
X30035523Y-43791238D01*
X30083142Y-43981714D01*
X30083142Y-44315047D01*
X30035523Y-44505523D01*
X29940285Y-44600761D01*
X29845047Y-44648380D01*
X29654571Y-44648380D01*
X30940285Y-43648380D02*
X30749809Y-43648380D01*
X30654571Y-43696000D01*
X30606952Y-43743619D01*
X30511714Y-43886476D01*
X30464095Y-44076952D01*
X30464095Y-44457904D01*
X30511714Y-44553142D01*
X30559333Y-44600761D01*
X30654571Y-44648380D01*
X30845047Y-44648380D01*
X30940285Y-44600761D01*
X30987904Y-44553142D01*
X31035523Y-44457904D01*
X31035523Y-44219809D01*
X30987904Y-44124571D01*
X30940285Y-44076952D01*
X30845047Y-44029333D01*
X30654571Y-44029333D01*
X30559333Y-44076952D01*
X30511714Y-44124571D01*
X30464095Y-44219809D01*
G04 #@! TO.C,J3*
D12*
X15835333Y-2742190D02*
X15835333Y-3099333D01*
X15811523Y-3170761D01*
X15763904Y-3218380D01*
X15692476Y-3242190D01*
X15644857Y-3242190D01*
X16025809Y-2742190D02*
X16335333Y-2742190D01*
X16168666Y-2932666D01*
X16240095Y-2932666D01*
X16287714Y-2956476D01*
X16311523Y-2980285D01*
X16335333Y-3027904D01*
X16335333Y-3146952D01*
X16311523Y-3194571D01*
X16287714Y-3218380D01*
X16240095Y-3242190D01*
X16097238Y-3242190D01*
X16049619Y-3218380D01*
X16025809Y-3194571D01*
G04 #@! TD*
M02*
