G04 #@! TF.GenerationSoftware,KiCad,Pcbnew,(5.0.0)*
G04 #@! TF.CreationDate,2020-04-02T10:34:19-07:00*
G04 #@! TF.ProjectId,controlBoard_rev05a,636F6E74726F6C426F6172645F726576,rev?*
G04 #@! TF.SameCoordinates,Original*
G04 #@! TF.FileFunction,Legend,Bot*
G04 #@! TF.FilePolarity,Positive*
%FSLAX46Y46*%
G04 Gerber Fmt 4.6, Leading zero omitted, Abs format (unit mm)*
G04 Created by KiCad (PCBNEW (5.0.0)) date 04/02/20 10:34:19*
%MOMM*%
%LPD*%
G01*
G04 APERTURE LIST*
%ADD10C,0.300000*%
%ADD11C,0.120000*%
%ADD12C,0.100000*%
%ADD13C,0.150000*%
G04 APERTURE END LIST*
D10*
X36301428Y-51986571D02*
X36301428Y-50486571D01*
X35730000Y-50486571D01*
X35587142Y-50558000D01*
X35515714Y-50629428D01*
X35444285Y-50772285D01*
X35444285Y-50986571D01*
X35515714Y-51129428D01*
X35587142Y-51200857D01*
X35730000Y-51272285D01*
X36301428Y-51272285D01*
X34801428Y-51843714D02*
X34730000Y-51915142D01*
X34801428Y-51986571D01*
X34872857Y-51915142D01*
X34801428Y-51843714D01*
X34801428Y-51986571D01*
X32230000Y-51986571D02*
X32944285Y-51986571D01*
X32944285Y-50486571D01*
X31158571Y-51915142D02*
X31301428Y-51986571D01*
X31587142Y-51986571D01*
X31730000Y-51915142D01*
X31801428Y-51772285D01*
X31801428Y-51200857D01*
X31730000Y-51058000D01*
X31587142Y-50986571D01*
X31301428Y-50986571D01*
X31158571Y-51058000D01*
X31087142Y-51200857D01*
X31087142Y-51343714D01*
X31801428Y-51486571D01*
X30444285Y-51986571D02*
X30444285Y-50986571D01*
X30444285Y-51272285D02*
X30372857Y-51129428D01*
X30301428Y-51058000D01*
X30158571Y-50986571D01*
X30015714Y-50986571D01*
X29730000Y-50986571D02*
X29158571Y-50986571D01*
X29515714Y-50486571D02*
X29515714Y-51772285D01*
X29444285Y-51915142D01*
X29301428Y-51986571D01*
X29158571Y-51986571D01*
X28801428Y-50986571D02*
X28444285Y-51986571D01*
X28087142Y-50986571D01*
X27515714Y-51986571D02*
X27515714Y-50986571D01*
X27515714Y-50486571D02*
X27587142Y-50558000D01*
X27515714Y-50629428D01*
X27444285Y-50558000D01*
X27515714Y-50486571D01*
X27515714Y-50629428D01*
X26587142Y-51986571D02*
X26730000Y-51915142D01*
X26801428Y-51772285D01*
X26801428Y-50486571D01*
X25372857Y-51986571D02*
X25372857Y-51200857D01*
X25444285Y-51058000D01*
X25587142Y-50986571D01*
X25872857Y-50986571D01*
X26015714Y-51058000D01*
X25372857Y-51915142D02*
X25515714Y-51986571D01*
X25872857Y-51986571D01*
X26015714Y-51915142D01*
X26087142Y-51772285D01*
X26087142Y-51629428D01*
X26015714Y-51486571D01*
X25872857Y-51415142D01*
X25515714Y-51415142D01*
X25372857Y-51343714D01*
X24658571Y-51986571D02*
X24658571Y-50986571D01*
X24658571Y-50486571D02*
X24730000Y-50558000D01*
X24658571Y-50629428D01*
X24587142Y-50558000D01*
X24658571Y-50486571D01*
X24658571Y-50629428D01*
X33110571Y-44700000D02*
X32396285Y-44700000D01*
X33253428Y-45128571D02*
X32753428Y-43628571D01*
X32253428Y-45128571D01*
X31753428Y-44128571D02*
X31753428Y-45628571D01*
X31753428Y-44200000D02*
X31610571Y-44128571D01*
X31324857Y-44128571D01*
X31182000Y-44200000D01*
X31110571Y-44271428D01*
X31039142Y-44414285D01*
X31039142Y-44842857D01*
X31110571Y-44985714D01*
X31182000Y-45057142D01*
X31324857Y-45128571D01*
X31610571Y-45128571D01*
X31753428Y-45057142D01*
X30396285Y-45128571D02*
X30396285Y-44128571D01*
X30396285Y-44414285D02*
X30324857Y-44271428D01*
X30253428Y-44200000D01*
X30110571Y-44128571D01*
X29967714Y-44128571D01*
X29467714Y-45128571D02*
X29467714Y-44128571D01*
X29467714Y-43628571D02*
X29539142Y-43700000D01*
X29467714Y-43771428D01*
X29396285Y-43700000D01*
X29467714Y-43628571D01*
X29467714Y-43771428D01*
X28539142Y-45128571D02*
X28682000Y-45057142D01*
X28753428Y-44914285D01*
X28753428Y-43628571D01*
X26896285Y-43771428D02*
X26824857Y-43700000D01*
X26682000Y-43628571D01*
X26324857Y-43628571D01*
X26182000Y-43700000D01*
X26110571Y-43771428D01*
X26039142Y-43914285D01*
X26039142Y-44057142D01*
X26110571Y-44271428D01*
X26967714Y-45128571D01*
X26039142Y-45128571D01*
X25110571Y-43628571D02*
X24967714Y-43628571D01*
X24824857Y-43700000D01*
X24753428Y-43771428D01*
X24682000Y-43914285D01*
X24610571Y-44200000D01*
X24610571Y-44557142D01*
X24682000Y-44842857D01*
X24753428Y-44985714D01*
X24824857Y-45057142D01*
X24967714Y-45128571D01*
X25110571Y-45128571D01*
X25253428Y-45057142D01*
X25324857Y-44985714D01*
X25396285Y-44842857D01*
X25467714Y-44557142D01*
X25467714Y-44200000D01*
X25396285Y-43914285D01*
X25324857Y-43771428D01*
X25253428Y-43700000D01*
X25110571Y-43628571D01*
X24039142Y-43771428D02*
X23967714Y-43700000D01*
X23824857Y-43628571D01*
X23467714Y-43628571D01*
X23324857Y-43700000D01*
X23253428Y-43771428D01*
X23182000Y-43914285D01*
X23182000Y-44057142D01*
X23253428Y-44271428D01*
X24110571Y-45128571D01*
X23182000Y-45128571D01*
X22253428Y-43628571D02*
X22110571Y-43628571D01*
X21967714Y-43700000D01*
X21896285Y-43771428D01*
X21824857Y-43914285D01*
X21753428Y-44200000D01*
X21753428Y-44557142D01*
X21824857Y-44842857D01*
X21896285Y-44985714D01*
X21967714Y-45057142D01*
X22110571Y-45128571D01*
X22253428Y-45128571D01*
X22396285Y-45057142D01*
X22467714Y-44985714D01*
X22539142Y-44842857D01*
X22610571Y-44557142D01*
X22610571Y-44200000D01*
X22539142Y-43914285D01*
X22467714Y-43771428D01*
X22396285Y-43700000D01*
X22253428Y-43628571D01*
X37026571Y-39032571D02*
X37026571Y-37532571D01*
X36312285Y-39032571D02*
X36312285Y-37532571D01*
X35740857Y-37532571D01*
X35598000Y-37604000D01*
X35526571Y-37675428D01*
X35455142Y-37818285D01*
X35455142Y-38032571D01*
X35526571Y-38175428D01*
X35598000Y-38246857D01*
X35740857Y-38318285D01*
X36312285Y-38318285D01*
X34883714Y-38604000D02*
X34169428Y-38604000D01*
X35026571Y-39032571D02*
X34526571Y-37532571D01*
X34026571Y-39032571D01*
X33669428Y-37532571D02*
X32669428Y-39032571D01*
X32669428Y-37532571D02*
X33669428Y-39032571D01*
X30098000Y-38889714D02*
X30169428Y-38961142D01*
X30383714Y-39032571D01*
X30526571Y-39032571D01*
X30740857Y-38961142D01*
X30883714Y-38818285D01*
X30955142Y-38675428D01*
X31026571Y-38389714D01*
X31026571Y-38175428D01*
X30955142Y-37889714D01*
X30883714Y-37746857D01*
X30740857Y-37604000D01*
X30526571Y-37532571D01*
X30383714Y-37532571D01*
X30169428Y-37604000D01*
X30098000Y-37675428D01*
X29240857Y-39032571D02*
X29383714Y-38961142D01*
X29455142Y-38889714D01*
X29526571Y-38746857D01*
X29526571Y-38318285D01*
X29455142Y-38175428D01*
X29383714Y-38104000D01*
X29240857Y-38032571D01*
X29026571Y-38032571D01*
X28883714Y-38104000D01*
X28812285Y-38175428D01*
X28740857Y-38318285D01*
X28740857Y-38746857D01*
X28812285Y-38889714D01*
X28883714Y-38961142D01*
X29026571Y-39032571D01*
X29240857Y-39032571D01*
X28098000Y-38032571D02*
X28098000Y-39032571D01*
X28098000Y-38175428D02*
X28026571Y-38104000D01*
X27883714Y-38032571D01*
X27669428Y-38032571D01*
X27526571Y-38104000D01*
X27455142Y-38246857D01*
X27455142Y-39032571D01*
X26955142Y-38032571D02*
X26383714Y-38032571D01*
X26740857Y-37532571D02*
X26740857Y-38818285D01*
X26669428Y-38961142D01*
X26526571Y-39032571D01*
X26383714Y-39032571D01*
X25883714Y-39032571D02*
X25883714Y-38032571D01*
X25883714Y-38318285D02*
X25812285Y-38175428D01*
X25740857Y-38104000D01*
X25598000Y-38032571D01*
X25455142Y-38032571D01*
X24740857Y-39032571D02*
X24883714Y-38961142D01*
X24955142Y-38889714D01*
X25026571Y-38746857D01*
X25026571Y-38318285D01*
X24955142Y-38175428D01*
X24883714Y-38104000D01*
X24740857Y-38032571D01*
X24526571Y-38032571D01*
X24383714Y-38104000D01*
X24312285Y-38175428D01*
X24240857Y-38318285D01*
X24240857Y-38746857D01*
X24312285Y-38889714D01*
X24383714Y-38961142D01*
X24526571Y-39032571D01*
X24740857Y-39032571D01*
X23383714Y-39032571D02*
X23526571Y-38961142D01*
X23597999Y-38818285D01*
X23597999Y-37532571D01*
X21169428Y-38246857D02*
X20955142Y-38318285D01*
X20883714Y-38389714D01*
X20812285Y-38532571D01*
X20812285Y-38746857D01*
X20883714Y-38889714D01*
X20955142Y-38961142D01*
X21097999Y-39032571D01*
X21669428Y-39032571D01*
X21669428Y-37532571D01*
X21169428Y-37532571D01*
X21026571Y-37604000D01*
X20955142Y-37675428D01*
X20883714Y-37818285D01*
X20883714Y-37961142D01*
X20955142Y-38104000D01*
X21026571Y-38175428D01*
X21169428Y-38246857D01*
X21669428Y-38246857D01*
X19955142Y-39032571D02*
X20097999Y-38961142D01*
X20169428Y-38889714D01*
X20240857Y-38746857D01*
X20240857Y-38318285D01*
X20169428Y-38175428D01*
X20097999Y-38104000D01*
X19955142Y-38032571D01*
X19740857Y-38032571D01*
X19597999Y-38104000D01*
X19526571Y-38175428D01*
X19455142Y-38318285D01*
X19455142Y-38746857D01*
X19526571Y-38889714D01*
X19597999Y-38961142D01*
X19740857Y-39032571D01*
X19955142Y-39032571D01*
X18169428Y-39032571D02*
X18169428Y-38246857D01*
X18240857Y-38104000D01*
X18383714Y-38032571D01*
X18669428Y-38032571D01*
X18812285Y-38104000D01*
X18169428Y-38961142D02*
X18312285Y-39032571D01*
X18669428Y-39032571D01*
X18812285Y-38961142D01*
X18883714Y-38818285D01*
X18883714Y-38675428D01*
X18812285Y-38532571D01*
X18669428Y-38461142D01*
X18312285Y-38461142D01*
X18169428Y-38389714D01*
X17455142Y-39032571D02*
X17455142Y-38032571D01*
X17455142Y-38318285D02*
X17383714Y-38175428D01*
X17312285Y-38104000D01*
X17169428Y-38032571D01*
X17026571Y-38032571D01*
X15883714Y-39032571D02*
X15883714Y-37532571D01*
X15883714Y-38961142D02*
X16026571Y-39032571D01*
X16312285Y-39032571D01*
X16455142Y-38961142D01*
X16526571Y-38889714D01*
X16597999Y-38746857D01*
X16597999Y-38318285D01*
X16526571Y-38175428D01*
X16455142Y-38104000D01*
X16312285Y-38032571D01*
X16026571Y-38032571D01*
X15883714Y-38104000D01*
X14026571Y-39032571D02*
X14026571Y-38032571D01*
X14026571Y-38318285D02*
X13955142Y-38175428D01*
X13883714Y-38104000D01*
X13740857Y-38032571D01*
X13597999Y-38032571D01*
X12526571Y-38961142D02*
X12669428Y-39032571D01*
X12955142Y-39032571D01*
X13097999Y-38961142D01*
X13169428Y-38818285D01*
X13169428Y-38246857D01*
X13097999Y-38104000D01*
X12955142Y-38032571D01*
X12669428Y-38032571D01*
X12526571Y-38104000D01*
X12455142Y-38246857D01*
X12455142Y-38389714D01*
X13169428Y-38532571D01*
X11955142Y-38032571D02*
X11597999Y-39032571D01*
X11240857Y-38032571D01*
X10383714Y-37532571D02*
X10240857Y-37532571D01*
X10097999Y-37604000D01*
X10026571Y-37675428D01*
X9955142Y-37818285D01*
X9883714Y-38104000D01*
X9883714Y-38461142D01*
X9955142Y-38746857D01*
X10026571Y-38889714D01*
X10097999Y-38961142D01*
X10240857Y-39032571D01*
X10383714Y-39032571D01*
X10526571Y-38961142D01*
X10597999Y-38889714D01*
X10669428Y-38746857D01*
X10740857Y-38461142D01*
X10740857Y-38104000D01*
X10669428Y-37818285D01*
X10597999Y-37675428D01*
X10526571Y-37604000D01*
X10383714Y-37532571D01*
X8526571Y-37532571D02*
X9240857Y-37532571D01*
X9312285Y-38246857D01*
X9240857Y-38175428D01*
X9097999Y-38104000D01*
X8740857Y-38104000D01*
X8597999Y-38175428D01*
X8526571Y-38246857D01*
X8455142Y-38389714D01*
X8455142Y-38746857D01*
X8526571Y-38889714D01*
X8597999Y-38961142D01*
X8740857Y-39032571D01*
X9097999Y-39032571D01*
X9240857Y-38961142D01*
X9312285Y-38889714D01*
X7169428Y-39032571D02*
X7169428Y-38246857D01*
X7240857Y-38104000D01*
X7383714Y-38032571D01*
X7669428Y-38032571D01*
X7812285Y-38104000D01*
X7169428Y-38961142D02*
X7312285Y-39032571D01*
X7669428Y-39032571D01*
X7812285Y-38961142D01*
X7883714Y-38818285D01*
X7883714Y-38675428D01*
X7812285Y-38532571D01*
X7669428Y-38461142D01*
X7312285Y-38461142D01*
X7169428Y-38389714D01*
D11*
G04 #@! TO.C,R3*
X20030221Y-17401000D02*
X20355779Y-17401000D01*
X20030221Y-16381000D02*
X20355779Y-16381000D01*
G04 #@! TO.C,C15*
X24001000Y-22976721D02*
X24001000Y-23302279D01*
X25021000Y-22976721D02*
X25021000Y-23302279D01*
G04 #@! TO.C,C12*
X25364221Y-14476000D02*
X25689779Y-14476000D01*
X25364221Y-15496000D02*
X25689779Y-15496000D01*
G04 #@! TO.C,C11*
X25338721Y-17274000D02*
X25664279Y-17274000D01*
X25338721Y-16254000D02*
X25664279Y-16254000D01*
G04 #@! TO.C,C16*
X22477000Y-22976721D02*
X22477000Y-23302279D01*
X23497000Y-22976721D02*
X23497000Y-23302279D01*
D12*
G04 #@! TO.C,U10*
X25691000Y-24464000D02*
X25691000Y-24314000D01*
X25701000Y-24464000D02*
X25851000Y-24464000D01*
X25701000Y-21764000D02*
X25851000Y-21764000D01*
X25701000Y-21764000D02*
X25701000Y-21914000D01*
X28401000Y-21914000D02*
X28401000Y-21764000D01*
X28401000Y-21764000D02*
X28251000Y-21764000D01*
X28251000Y-24464000D02*
X28501000Y-24464000D01*
D13*
G04 #@! TO.C,U9*
X23452000Y-13751000D02*
X23452000Y-13701000D01*
X27602000Y-13751000D02*
X27602000Y-13606000D01*
X27602000Y-8601000D02*
X27602000Y-8746000D01*
X23452000Y-8601000D02*
X23452000Y-8746000D01*
X23452000Y-13751000D02*
X27602000Y-13751000D01*
X23452000Y-8601000D02*
X27602000Y-8601000D01*
X23452000Y-13701000D02*
X22052000Y-13701000D01*
D11*
G04 #@! TO.C,R9*
X29326721Y-15746000D02*
X29652279Y-15746000D01*
X29326721Y-16766000D02*
X29652279Y-16766000D01*
G04 #@! TO.C,R10*
X29326721Y-18544000D02*
X29652279Y-18544000D01*
X29326721Y-17524000D02*
X29652279Y-17524000D01*
G04 #@! TO.C,R28*
X19937000Y-13070721D02*
X19937000Y-13396279D01*
X20957000Y-13070721D02*
X20957000Y-13396279D01*
G04 #@! TO.C,R29*
X19937000Y-10322779D02*
X19937000Y-9997221D01*
X20957000Y-10322779D02*
X20957000Y-9997221D01*
G04 #@! TO.C,R30*
X25110221Y-21338000D02*
X25435779Y-21338000D01*
X25110221Y-20318000D02*
X25435779Y-20318000D01*
G04 #@! TO.C,R3*
D13*
X20359666Y-18773380D02*
X20693000Y-18297190D01*
X20931095Y-18773380D02*
X20931095Y-17773380D01*
X20550142Y-17773380D01*
X20454904Y-17821000D01*
X20407285Y-17868619D01*
X20359666Y-17963857D01*
X20359666Y-18106714D01*
X20407285Y-18201952D01*
X20454904Y-18249571D01*
X20550142Y-18297190D01*
X20931095Y-18297190D01*
X20026333Y-17773380D02*
X19407285Y-17773380D01*
X19740619Y-18154333D01*
X19597761Y-18154333D01*
X19502523Y-18201952D01*
X19454904Y-18249571D01*
X19407285Y-18344809D01*
X19407285Y-18582904D01*
X19454904Y-18678142D01*
X19502523Y-18725761D01*
X19597761Y-18773380D01*
X19883476Y-18773380D01*
X19978714Y-18725761D01*
X20026333Y-18678142D01*
G04 #@! TO.C,U7*
X5294380Y-17018095D02*
X6103904Y-17018095D01*
X6199142Y-17065714D01*
X6246761Y-17113333D01*
X6294380Y-17208571D01*
X6294380Y-17399047D01*
X6246761Y-17494285D01*
X6199142Y-17541904D01*
X6103904Y-17589523D01*
X5294380Y-17589523D01*
X5294380Y-17970476D02*
X5294380Y-18637142D01*
X6294380Y-18208571D01*
G04 #@! TO.C,C15*
X25122142Y-25544642D02*
X25169761Y-25497023D01*
X25217380Y-25354166D01*
X25217380Y-25258928D01*
X25169761Y-25116071D01*
X25074523Y-25020833D01*
X24979285Y-24973214D01*
X24788809Y-24925595D01*
X24645952Y-24925595D01*
X24455476Y-24973214D01*
X24360238Y-25020833D01*
X24265000Y-25116071D01*
X24217380Y-25258928D01*
X24217380Y-25354166D01*
X24265000Y-25497023D01*
X24312619Y-25544642D01*
X25217380Y-26497023D02*
X25217380Y-25925595D01*
X25217380Y-26211309D02*
X24217380Y-26211309D01*
X24360238Y-26116071D01*
X24455476Y-26020833D01*
X24503095Y-25925595D01*
X24217380Y-27401785D02*
X24217380Y-26925595D01*
X24693571Y-26877976D01*
X24645952Y-26925595D01*
X24598333Y-27020833D01*
X24598333Y-27258928D01*
X24645952Y-27354166D01*
X24693571Y-27401785D01*
X24788809Y-27449404D01*
X25026904Y-27449404D01*
X25122142Y-27401785D01*
X25169761Y-27354166D01*
X25217380Y-27258928D01*
X25217380Y-27020833D01*
X25169761Y-26925595D01*
X25122142Y-26877976D01*
G04 #@! TO.C,C12*
X29471857Y-15597142D02*
X29519476Y-15644761D01*
X29662333Y-15692380D01*
X29757571Y-15692380D01*
X29900428Y-15644761D01*
X29995666Y-15549523D01*
X30043285Y-15454285D01*
X30090904Y-15263809D01*
X30090904Y-15120952D01*
X30043285Y-14930476D01*
X29995666Y-14835238D01*
X29900428Y-14740000D01*
X29757571Y-14692380D01*
X29662333Y-14692380D01*
X29519476Y-14740000D01*
X29471857Y-14787619D01*
X28519476Y-15692380D02*
X29090904Y-15692380D01*
X28805190Y-15692380D02*
X28805190Y-14692380D01*
X28900428Y-14835238D01*
X28995666Y-14930476D01*
X29090904Y-14978095D01*
X28138523Y-14787619D02*
X28090904Y-14740000D01*
X27995666Y-14692380D01*
X27757571Y-14692380D01*
X27662333Y-14740000D01*
X27614714Y-14787619D01*
X27567095Y-14882857D01*
X27567095Y-14978095D01*
X27614714Y-15120952D01*
X28186142Y-15692380D01*
X27567095Y-15692380D01*
G04 #@! TO.C,C11*
X26144357Y-18551142D02*
X26191976Y-18598761D01*
X26334833Y-18646380D01*
X26430071Y-18646380D01*
X26572928Y-18598761D01*
X26668166Y-18503523D01*
X26715785Y-18408285D01*
X26763404Y-18217809D01*
X26763404Y-18074952D01*
X26715785Y-17884476D01*
X26668166Y-17789238D01*
X26572928Y-17694000D01*
X26430071Y-17646380D01*
X26334833Y-17646380D01*
X26191976Y-17694000D01*
X26144357Y-17741619D01*
X25191976Y-18646380D02*
X25763404Y-18646380D01*
X25477690Y-18646380D02*
X25477690Y-17646380D01*
X25572928Y-17789238D01*
X25668166Y-17884476D01*
X25763404Y-17932095D01*
X24239595Y-18646380D02*
X24811023Y-18646380D01*
X24525309Y-18646380D02*
X24525309Y-17646380D01*
X24620547Y-17789238D01*
X24715785Y-17884476D01*
X24811023Y-17932095D01*
G04 #@! TO.C,C16*
X23344142Y-25570142D02*
X23391761Y-25522523D01*
X23439380Y-25379666D01*
X23439380Y-25284428D01*
X23391761Y-25141571D01*
X23296523Y-25046333D01*
X23201285Y-24998714D01*
X23010809Y-24951095D01*
X22867952Y-24951095D01*
X22677476Y-24998714D01*
X22582238Y-25046333D01*
X22487000Y-25141571D01*
X22439380Y-25284428D01*
X22439380Y-25379666D01*
X22487000Y-25522523D01*
X22534619Y-25570142D01*
X23439380Y-26522523D02*
X23439380Y-25951095D01*
X23439380Y-26236809D02*
X22439380Y-26236809D01*
X22582238Y-26141571D01*
X22677476Y-26046333D01*
X22725095Y-25951095D01*
X22439380Y-27379666D02*
X22439380Y-27189190D01*
X22487000Y-27093952D01*
X22534619Y-27046333D01*
X22677476Y-26951095D01*
X22867952Y-26903476D01*
X23248904Y-26903476D01*
X23344142Y-26951095D01*
X23391761Y-26998714D01*
X23439380Y-27093952D01*
X23439380Y-27284428D01*
X23391761Y-27379666D01*
X23344142Y-27427285D01*
X23248904Y-27474904D01*
X23010809Y-27474904D01*
X22915571Y-27427285D01*
X22867952Y-27379666D01*
X22820333Y-27284428D01*
X22820333Y-27093952D01*
X22867952Y-26998714D01*
X22915571Y-26951095D01*
X23010809Y-26903476D01*
G04 #@! TO.C,U10*
X28968380Y-21860904D02*
X29777904Y-21860904D01*
X29873142Y-21908523D01*
X29920761Y-21956142D01*
X29968380Y-22051380D01*
X29968380Y-22241857D01*
X29920761Y-22337095D01*
X29873142Y-22384714D01*
X29777904Y-22432333D01*
X28968380Y-22432333D01*
X29968380Y-23432333D02*
X29968380Y-22860904D01*
X29968380Y-23146619D02*
X28968380Y-23146619D01*
X29111238Y-23051380D01*
X29206476Y-22956142D01*
X29254095Y-22860904D01*
X28968380Y-24051380D02*
X28968380Y-24146619D01*
X29016000Y-24241857D01*
X29063619Y-24289476D01*
X29158857Y-24337095D01*
X29349333Y-24384714D01*
X29587428Y-24384714D01*
X29777904Y-24337095D01*
X29873142Y-24289476D01*
X29920761Y-24241857D01*
X29968380Y-24146619D01*
X29968380Y-24051380D01*
X29920761Y-23956142D01*
X29873142Y-23908523D01*
X29777904Y-23860904D01*
X29587428Y-23813285D01*
X29349333Y-23813285D01*
X29158857Y-23860904D01*
X29063619Y-23908523D01*
X29016000Y-23956142D01*
X28968380Y-24051380D01*
G04 #@! TO.C,U9*
X26288904Y-14128380D02*
X26288904Y-14937904D01*
X26241285Y-15033142D01*
X26193666Y-15080761D01*
X26098428Y-15128380D01*
X25907952Y-15128380D01*
X25812714Y-15080761D01*
X25765095Y-15033142D01*
X25717476Y-14937904D01*
X25717476Y-14128380D01*
X25193666Y-15128380D02*
X25003190Y-15128380D01*
X24907952Y-15080761D01*
X24860333Y-15033142D01*
X24765095Y-14890285D01*
X24717476Y-14699809D01*
X24717476Y-14318857D01*
X24765095Y-14223619D01*
X24812714Y-14176000D01*
X24907952Y-14128380D01*
X25098428Y-14128380D01*
X25193666Y-14176000D01*
X25241285Y-14223619D01*
X25288904Y-14318857D01*
X25288904Y-14556952D01*
X25241285Y-14652190D01*
X25193666Y-14699809D01*
X25098428Y-14747428D01*
X24907952Y-14747428D01*
X24812714Y-14699809D01*
X24765095Y-14652190D01*
X24717476Y-14556952D01*
G04 #@! TO.C,R9*
X32323166Y-16200380D02*
X32656500Y-15724190D01*
X32894595Y-16200380D02*
X32894595Y-15200380D01*
X32513642Y-15200380D01*
X32418404Y-15248000D01*
X32370785Y-15295619D01*
X32323166Y-15390857D01*
X32323166Y-15533714D01*
X32370785Y-15628952D01*
X32418404Y-15676571D01*
X32513642Y-15724190D01*
X32894595Y-15724190D01*
X31846976Y-16200380D02*
X31656500Y-16200380D01*
X31561261Y-16152761D01*
X31513642Y-16105142D01*
X31418404Y-15962285D01*
X31370785Y-15771809D01*
X31370785Y-15390857D01*
X31418404Y-15295619D01*
X31466023Y-15248000D01*
X31561261Y-15200380D01*
X31751738Y-15200380D01*
X31846976Y-15248000D01*
X31894595Y-15295619D01*
X31942214Y-15390857D01*
X31942214Y-15628952D01*
X31894595Y-15724190D01*
X31846976Y-15771809D01*
X31751738Y-15819428D01*
X31561261Y-15819428D01*
X31466023Y-15771809D01*
X31418404Y-15724190D01*
X31370785Y-15628952D01*
G04 #@! TO.C,R10*
X30132357Y-20010380D02*
X30465690Y-19534190D01*
X30703785Y-20010380D02*
X30703785Y-19010380D01*
X30322833Y-19010380D01*
X30227595Y-19058000D01*
X30179976Y-19105619D01*
X30132357Y-19200857D01*
X30132357Y-19343714D01*
X30179976Y-19438952D01*
X30227595Y-19486571D01*
X30322833Y-19534190D01*
X30703785Y-19534190D01*
X29179976Y-20010380D02*
X29751404Y-20010380D01*
X29465690Y-20010380D02*
X29465690Y-19010380D01*
X29560928Y-19153238D01*
X29656166Y-19248476D01*
X29751404Y-19296095D01*
X28560928Y-19010380D02*
X28465690Y-19010380D01*
X28370452Y-19058000D01*
X28322833Y-19105619D01*
X28275214Y-19200857D01*
X28227595Y-19391333D01*
X28227595Y-19629428D01*
X28275214Y-19819904D01*
X28322833Y-19915142D01*
X28370452Y-19962761D01*
X28465690Y-20010380D01*
X28560928Y-20010380D01*
X28656166Y-19962761D01*
X28703785Y-19915142D01*
X28751404Y-19819904D01*
X28799023Y-19629428D01*
X28799023Y-19391333D01*
X28751404Y-19200857D01*
X28703785Y-19105619D01*
X28656166Y-19058000D01*
X28560928Y-19010380D01*
G04 #@! TO.C,R28*
X19469380Y-12590642D02*
X18993190Y-12257309D01*
X19469380Y-12019214D02*
X18469380Y-12019214D01*
X18469380Y-12400166D01*
X18517000Y-12495404D01*
X18564619Y-12543023D01*
X18659857Y-12590642D01*
X18802714Y-12590642D01*
X18897952Y-12543023D01*
X18945571Y-12495404D01*
X18993190Y-12400166D01*
X18993190Y-12019214D01*
X18564619Y-12971595D02*
X18517000Y-13019214D01*
X18469380Y-13114452D01*
X18469380Y-13352547D01*
X18517000Y-13447785D01*
X18564619Y-13495404D01*
X18659857Y-13543023D01*
X18755095Y-13543023D01*
X18897952Y-13495404D01*
X19469380Y-12923976D01*
X19469380Y-13543023D01*
X18897952Y-14114452D02*
X18850333Y-14019214D01*
X18802714Y-13971595D01*
X18707476Y-13923976D01*
X18659857Y-13923976D01*
X18564619Y-13971595D01*
X18517000Y-14019214D01*
X18469380Y-14114452D01*
X18469380Y-14304928D01*
X18517000Y-14400166D01*
X18564619Y-14447785D01*
X18659857Y-14495404D01*
X18707476Y-14495404D01*
X18802714Y-14447785D01*
X18850333Y-14400166D01*
X18897952Y-14304928D01*
X18897952Y-14114452D01*
X18945571Y-14019214D01*
X18993190Y-13971595D01*
X19088428Y-13923976D01*
X19278904Y-13923976D01*
X19374142Y-13971595D01*
X19421761Y-14019214D01*
X19469380Y-14114452D01*
X19469380Y-14304928D01*
X19421761Y-14400166D01*
X19374142Y-14447785D01*
X19278904Y-14495404D01*
X19088428Y-14495404D01*
X18993190Y-14447785D01*
X18945571Y-14400166D01*
X18897952Y-14304928D01*
G04 #@! TO.C,R29*
X21153380Y-6215142D02*
X20677190Y-5881809D01*
X21153380Y-5643714D02*
X20153380Y-5643714D01*
X20153380Y-6024666D01*
X20201000Y-6119904D01*
X20248619Y-6167523D01*
X20343857Y-6215142D01*
X20486714Y-6215142D01*
X20581952Y-6167523D01*
X20629571Y-6119904D01*
X20677190Y-6024666D01*
X20677190Y-5643714D01*
X20248619Y-6596095D02*
X20201000Y-6643714D01*
X20153380Y-6738952D01*
X20153380Y-6977047D01*
X20201000Y-7072285D01*
X20248619Y-7119904D01*
X20343857Y-7167523D01*
X20439095Y-7167523D01*
X20581952Y-7119904D01*
X21153380Y-6548476D01*
X21153380Y-7167523D01*
X21153380Y-7643714D02*
X21153380Y-7834190D01*
X21105761Y-7929428D01*
X21058142Y-7977047D01*
X20915285Y-8072285D01*
X20724809Y-8119904D01*
X20343857Y-8119904D01*
X20248619Y-8072285D01*
X20201000Y-8024666D01*
X20153380Y-7929428D01*
X20153380Y-7738952D01*
X20201000Y-7643714D01*
X20248619Y-7596095D01*
X20343857Y-7548476D01*
X20581952Y-7548476D01*
X20677190Y-7596095D01*
X20724809Y-7643714D01*
X20772428Y-7738952D01*
X20772428Y-7929428D01*
X20724809Y-8024666D01*
X20677190Y-8072285D01*
X20581952Y-8119904D01*
G04 #@! TO.C,R30*
X29243357Y-21280380D02*
X29576690Y-20804190D01*
X29814785Y-21280380D02*
X29814785Y-20280380D01*
X29433833Y-20280380D01*
X29338595Y-20328000D01*
X29290976Y-20375619D01*
X29243357Y-20470857D01*
X29243357Y-20613714D01*
X29290976Y-20708952D01*
X29338595Y-20756571D01*
X29433833Y-20804190D01*
X29814785Y-20804190D01*
X28910023Y-20280380D02*
X28290976Y-20280380D01*
X28624309Y-20661333D01*
X28481452Y-20661333D01*
X28386214Y-20708952D01*
X28338595Y-20756571D01*
X28290976Y-20851809D01*
X28290976Y-21089904D01*
X28338595Y-21185142D01*
X28386214Y-21232761D01*
X28481452Y-21280380D01*
X28767166Y-21280380D01*
X28862404Y-21232761D01*
X28910023Y-21185142D01*
X27671928Y-20280380D02*
X27576690Y-20280380D01*
X27481452Y-20328000D01*
X27433833Y-20375619D01*
X27386214Y-20470857D01*
X27338595Y-20661333D01*
X27338595Y-20899428D01*
X27386214Y-21089904D01*
X27433833Y-21185142D01*
X27481452Y-21232761D01*
X27576690Y-21280380D01*
X27671928Y-21280380D01*
X27767166Y-21232761D01*
X27814785Y-21185142D01*
X27862404Y-21089904D01*
X27910023Y-20899428D01*
X27910023Y-20661333D01*
X27862404Y-20470857D01*
X27814785Y-20375619D01*
X27767166Y-20328000D01*
X27671928Y-20280380D01*
G04 #@! TD*
M02*
