G04 #@! TF.GenerationSoftware,KiCad,Pcbnew,(5.0.2)-1*
G04 #@! TF.CreationDate,2020-03-11T11:41:09-07:00*
G04 #@! TF.ProjectId,powerControl,706f7765-7243-46f6-9e74-726f6c2e6b69,rev?*
G04 #@! TF.SameCoordinates,Original*
G04 #@! TF.FileFunction,Soldermask,Top*
G04 #@! TF.FilePolarity,Negative*
%FSLAX46Y46*%
G04 Gerber Fmt 4.6, Leading zero omitted, Abs format (unit mm)*
G04 Created by KiCad (PCBNEW (5.0.2)-1) date 3/11/2020 11:41:09 AM*
%MOMM*%
%LPD*%
G01*
G04 APERTURE LIST*
%ADD10C,0.100000*%
G04 APERTURE END LIST*
D10*
G36*
X108268327Y-81187521D02*
X108533791Y-81240325D01*
X108866830Y-81378275D01*
X109166557Y-81578546D01*
X109421454Y-81833443D01*
X109621725Y-82133170D01*
X109759675Y-82466209D01*
X109811192Y-82725205D01*
X109830000Y-82819759D01*
X109830000Y-83180241D01*
X109819900Y-83231018D01*
X109759675Y-83533791D01*
X109621725Y-83866830D01*
X109421454Y-84166557D01*
X109166557Y-84421454D01*
X108866830Y-84621725D01*
X108533791Y-84759675D01*
X108268327Y-84812479D01*
X108180241Y-84830000D01*
X107819759Y-84830000D01*
X107731673Y-84812479D01*
X107466209Y-84759675D01*
X107133170Y-84621725D01*
X106833443Y-84421454D01*
X106578546Y-84166557D01*
X106378275Y-83866830D01*
X106240325Y-83533791D01*
X106180100Y-83231018D01*
X106170000Y-83180241D01*
X106170000Y-82819759D01*
X106188808Y-82725205D01*
X106240325Y-82466209D01*
X106378275Y-82133170D01*
X106578546Y-81833443D01*
X106833443Y-81578546D01*
X107133170Y-81378275D01*
X107466209Y-81240325D01*
X107731673Y-81187521D01*
X107819759Y-81170000D01*
X108180241Y-81170000D01*
X108268327Y-81187521D01*
X108268327Y-81187521D01*
G37*
G36*
X75268327Y-81187521D02*
X75533791Y-81240325D01*
X75866830Y-81378275D01*
X76166557Y-81578546D01*
X76421454Y-81833443D01*
X76621725Y-82133170D01*
X76759675Y-82466209D01*
X76811192Y-82725205D01*
X76830000Y-82819759D01*
X76830000Y-83180241D01*
X76819900Y-83231018D01*
X76759675Y-83533791D01*
X76621725Y-83866830D01*
X76421454Y-84166557D01*
X76166557Y-84421454D01*
X75866830Y-84621725D01*
X75533791Y-84759675D01*
X75268327Y-84812479D01*
X75180241Y-84830000D01*
X74819759Y-84830000D01*
X74731673Y-84812479D01*
X74466209Y-84759675D01*
X74133170Y-84621725D01*
X73833443Y-84421454D01*
X73578546Y-84166557D01*
X73378275Y-83866830D01*
X73240325Y-83533791D01*
X73180100Y-83231018D01*
X73170000Y-83180241D01*
X73170000Y-82819759D01*
X73188808Y-82725205D01*
X73240325Y-82466209D01*
X73378275Y-82133170D01*
X73578546Y-81833443D01*
X73833443Y-81578546D01*
X74133170Y-81378275D01*
X74466209Y-81240325D01*
X74731673Y-81187521D01*
X74819759Y-81170000D01*
X75180241Y-81170000D01*
X75268327Y-81187521D01*
X75268327Y-81187521D01*
G37*
G36*
X80617352Y-82034743D02*
X80762941Y-82095048D01*
X80893973Y-82182601D01*
X81005401Y-82294029D01*
X81030067Y-82330944D01*
X81045612Y-82349886D01*
X81064554Y-82365431D01*
X81086165Y-82376982D01*
X81109614Y-82384095D01*
X81134001Y-82386497D01*
X81158387Y-82384095D01*
X81181836Y-82376982D01*
X81203447Y-82365430D01*
X81222389Y-82349885D01*
X81237933Y-82330944D01*
X81262599Y-82294029D01*
X81374027Y-82182601D01*
X81505059Y-82095048D01*
X81650648Y-82034743D01*
X81805205Y-82004000D01*
X81962795Y-82004000D01*
X82117352Y-82034743D01*
X82262941Y-82095048D01*
X82393973Y-82182601D01*
X82505401Y-82294029D01*
X82530067Y-82330944D01*
X82545612Y-82349886D01*
X82564554Y-82365431D01*
X82586165Y-82376982D01*
X82609614Y-82384095D01*
X82634001Y-82386497D01*
X82658387Y-82384095D01*
X82681836Y-82376982D01*
X82703447Y-82365430D01*
X82722389Y-82349885D01*
X82737933Y-82330944D01*
X82762599Y-82294029D01*
X82874027Y-82182601D01*
X83005059Y-82095048D01*
X83150648Y-82034743D01*
X83305205Y-82004000D01*
X83462795Y-82004000D01*
X83617352Y-82034743D01*
X83762941Y-82095048D01*
X83893973Y-82182601D01*
X84005401Y-82294029D01*
X84030067Y-82330944D01*
X84045612Y-82349886D01*
X84064554Y-82365431D01*
X84086165Y-82376982D01*
X84109614Y-82384095D01*
X84134001Y-82386497D01*
X84158387Y-82384095D01*
X84181836Y-82376982D01*
X84203447Y-82365430D01*
X84222389Y-82349885D01*
X84237933Y-82330944D01*
X84262599Y-82294029D01*
X84374027Y-82182601D01*
X84505059Y-82095048D01*
X84650648Y-82034743D01*
X84805205Y-82004000D01*
X84962795Y-82004000D01*
X85117352Y-82034743D01*
X85262941Y-82095048D01*
X85393973Y-82182601D01*
X85505401Y-82294029D01*
X85530067Y-82330944D01*
X85545612Y-82349886D01*
X85564554Y-82365431D01*
X85586165Y-82376982D01*
X85609614Y-82384095D01*
X85634001Y-82386497D01*
X85658387Y-82384095D01*
X85681836Y-82376982D01*
X85703447Y-82365430D01*
X85722389Y-82349885D01*
X85737933Y-82330944D01*
X85762599Y-82294029D01*
X85874027Y-82182601D01*
X86005059Y-82095048D01*
X86150648Y-82034743D01*
X86305205Y-82004000D01*
X86462795Y-82004000D01*
X86617352Y-82034743D01*
X86762941Y-82095048D01*
X86893973Y-82182601D01*
X87005401Y-82294029D01*
X87030067Y-82330944D01*
X87045612Y-82349886D01*
X87064554Y-82365431D01*
X87086165Y-82376982D01*
X87109614Y-82384095D01*
X87134001Y-82386497D01*
X87158387Y-82384095D01*
X87181836Y-82376982D01*
X87203447Y-82365430D01*
X87222389Y-82349885D01*
X87237933Y-82330944D01*
X87262599Y-82294029D01*
X87374027Y-82182601D01*
X87505059Y-82095048D01*
X87650648Y-82034743D01*
X87805205Y-82004000D01*
X87962795Y-82004000D01*
X88117352Y-82034743D01*
X88262941Y-82095048D01*
X88393973Y-82182601D01*
X88505399Y-82294027D01*
X88592952Y-82425059D01*
X88653257Y-82570648D01*
X88684000Y-82725205D01*
X88684000Y-82882795D01*
X88653257Y-83037352D01*
X88592952Y-83182941D01*
X88505399Y-83313973D01*
X88393973Y-83425399D01*
X88262941Y-83512952D01*
X88117352Y-83573257D01*
X87962795Y-83604000D01*
X87805205Y-83604000D01*
X87650648Y-83573257D01*
X87505059Y-83512952D01*
X87374027Y-83425399D01*
X87262599Y-83313971D01*
X87237933Y-83277056D01*
X87222388Y-83258114D01*
X87203446Y-83242569D01*
X87181835Y-83231018D01*
X87158386Y-83223905D01*
X87133999Y-83221503D01*
X87109613Y-83223905D01*
X87086164Y-83231018D01*
X87064553Y-83242570D01*
X87045611Y-83258115D01*
X87030067Y-83277056D01*
X87005401Y-83313971D01*
X86893973Y-83425399D01*
X86762941Y-83512952D01*
X86617352Y-83573257D01*
X86462795Y-83604000D01*
X86305205Y-83604000D01*
X86150648Y-83573257D01*
X86005059Y-83512952D01*
X85874027Y-83425399D01*
X85762599Y-83313971D01*
X85737933Y-83277056D01*
X85722388Y-83258114D01*
X85703446Y-83242569D01*
X85681835Y-83231018D01*
X85658386Y-83223905D01*
X85633999Y-83221503D01*
X85609613Y-83223905D01*
X85586164Y-83231018D01*
X85564553Y-83242570D01*
X85545611Y-83258115D01*
X85530067Y-83277056D01*
X85505401Y-83313971D01*
X85393973Y-83425399D01*
X85262941Y-83512952D01*
X85117352Y-83573257D01*
X84962795Y-83604000D01*
X84805205Y-83604000D01*
X84650648Y-83573257D01*
X84505059Y-83512952D01*
X84374027Y-83425399D01*
X84262599Y-83313971D01*
X84237933Y-83277056D01*
X84222388Y-83258114D01*
X84203446Y-83242569D01*
X84181835Y-83231018D01*
X84158386Y-83223905D01*
X84133999Y-83221503D01*
X84109613Y-83223905D01*
X84086164Y-83231018D01*
X84064553Y-83242570D01*
X84045611Y-83258115D01*
X84030067Y-83277056D01*
X84005401Y-83313971D01*
X83893973Y-83425399D01*
X83762941Y-83512952D01*
X83617352Y-83573257D01*
X83462795Y-83604000D01*
X83305205Y-83604000D01*
X83150648Y-83573257D01*
X83005059Y-83512952D01*
X82874027Y-83425399D01*
X82762599Y-83313971D01*
X82737933Y-83277056D01*
X82722388Y-83258114D01*
X82703446Y-83242569D01*
X82681835Y-83231018D01*
X82658386Y-83223905D01*
X82633999Y-83221503D01*
X82609613Y-83223905D01*
X82586164Y-83231018D01*
X82564553Y-83242570D01*
X82545611Y-83258115D01*
X82530067Y-83277056D01*
X82505401Y-83313971D01*
X82393973Y-83425399D01*
X82262941Y-83512952D01*
X82117352Y-83573257D01*
X81962795Y-83604000D01*
X81805205Y-83604000D01*
X81650648Y-83573257D01*
X81505059Y-83512952D01*
X81374027Y-83425399D01*
X81262599Y-83313971D01*
X81237933Y-83277056D01*
X81222388Y-83258114D01*
X81203446Y-83242569D01*
X81181835Y-83231018D01*
X81158386Y-83223905D01*
X81133999Y-83221503D01*
X81109613Y-83223905D01*
X81086164Y-83231018D01*
X81064553Y-83242570D01*
X81045611Y-83258115D01*
X81030067Y-83277056D01*
X81005401Y-83313971D01*
X80893973Y-83425399D01*
X80762941Y-83512952D01*
X80617352Y-83573257D01*
X80462795Y-83604000D01*
X80305205Y-83604000D01*
X80150648Y-83573257D01*
X80005059Y-83512952D01*
X79874027Y-83425399D01*
X79762601Y-83313973D01*
X79675048Y-83182941D01*
X79614743Y-83037352D01*
X79584000Y-82882795D01*
X79584000Y-82725205D01*
X79614743Y-82570648D01*
X79675048Y-82425059D01*
X79762601Y-82294027D01*
X79874027Y-82182601D01*
X80005059Y-82095048D01*
X80150648Y-82034743D01*
X80305205Y-82004000D01*
X80462795Y-82004000D01*
X80617352Y-82034743D01*
X80617352Y-82034743D01*
G37*
G36*
X94333352Y-82034743D02*
X94478941Y-82095048D01*
X94609973Y-82182601D01*
X94721401Y-82294029D01*
X94746067Y-82330944D01*
X94761612Y-82349886D01*
X94780554Y-82365431D01*
X94802165Y-82376982D01*
X94825614Y-82384095D01*
X94850001Y-82386497D01*
X94874387Y-82384095D01*
X94897836Y-82376982D01*
X94919447Y-82365430D01*
X94938389Y-82349885D01*
X94953933Y-82330944D01*
X94978599Y-82294029D01*
X95090027Y-82182601D01*
X95221059Y-82095048D01*
X95366648Y-82034743D01*
X95521205Y-82004000D01*
X95678795Y-82004000D01*
X95833352Y-82034743D01*
X95978941Y-82095048D01*
X96109973Y-82182601D01*
X96221401Y-82294029D01*
X96246067Y-82330944D01*
X96261612Y-82349886D01*
X96280554Y-82365431D01*
X96302165Y-82376982D01*
X96325614Y-82384095D01*
X96350001Y-82386497D01*
X96374387Y-82384095D01*
X96397836Y-82376982D01*
X96419447Y-82365430D01*
X96438389Y-82349885D01*
X96453933Y-82330944D01*
X96478599Y-82294029D01*
X96590027Y-82182601D01*
X96721059Y-82095048D01*
X96866648Y-82034743D01*
X97021205Y-82004000D01*
X97178795Y-82004000D01*
X97333352Y-82034743D01*
X97478941Y-82095048D01*
X97609973Y-82182601D01*
X97721401Y-82294029D01*
X97746067Y-82330944D01*
X97761612Y-82349886D01*
X97780554Y-82365431D01*
X97802165Y-82376982D01*
X97825614Y-82384095D01*
X97850001Y-82386497D01*
X97874387Y-82384095D01*
X97897836Y-82376982D01*
X97919447Y-82365430D01*
X97938389Y-82349885D01*
X97953933Y-82330944D01*
X97978599Y-82294029D01*
X98090027Y-82182601D01*
X98221059Y-82095048D01*
X98366648Y-82034743D01*
X98521205Y-82004000D01*
X98678795Y-82004000D01*
X98833352Y-82034743D01*
X98978941Y-82095048D01*
X99109973Y-82182601D01*
X99221401Y-82294029D01*
X99246067Y-82330944D01*
X99261612Y-82349886D01*
X99280554Y-82365431D01*
X99302165Y-82376982D01*
X99325614Y-82384095D01*
X99350001Y-82386497D01*
X99374387Y-82384095D01*
X99397836Y-82376982D01*
X99419447Y-82365430D01*
X99438389Y-82349885D01*
X99453933Y-82330944D01*
X99478599Y-82294029D01*
X99590027Y-82182601D01*
X99721059Y-82095048D01*
X99866648Y-82034743D01*
X100021205Y-82004000D01*
X100178795Y-82004000D01*
X100333352Y-82034743D01*
X100478941Y-82095048D01*
X100609973Y-82182601D01*
X100721401Y-82294029D01*
X100746067Y-82330944D01*
X100761612Y-82349886D01*
X100780554Y-82365431D01*
X100802165Y-82376982D01*
X100825614Y-82384095D01*
X100850001Y-82386497D01*
X100874387Y-82384095D01*
X100897836Y-82376982D01*
X100919447Y-82365430D01*
X100938389Y-82349885D01*
X100953933Y-82330944D01*
X100978599Y-82294029D01*
X101090027Y-82182601D01*
X101221059Y-82095048D01*
X101366648Y-82034743D01*
X101521205Y-82004000D01*
X101678795Y-82004000D01*
X101833352Y-82034743D01*
X101978941Y-82095048D01*
X102109973Y-82182601D01*
X102221399Y-82294027D01*
X102308952Y-82425059D01*
X102369257Y-82570648D01*
X102400000Y-82725205D01*
X102400000Y-82882795D01*
X102369257Y-83037352D01*
X102308952Y-83182941D01*
X102221399Y-83313973D01*
X102109973Y-83425399D01*
X101978941Y-83512952D01*
X101833352Y-83573257D01*
X101678795Y-83604000D01*
X101521205Y-83604000D01*
X101366648Y-83573257D01*
X101221059Y-83512952D01*
X101090027Y-83425399D01*
X100978599Y-83313971D01*
X100953933Y-83277056D01*
X100938388Y-83258114D01*
X100919446Y-83242569D01*
X100897835Y-83231018D01*
X100874386Y-83223905D01*
X100849999Y-83221503D01*
X100825613Y-83223905D01*
X100802164Y-83231018D01*
X100780553Y-83242570D01*
X100761611Y-83258115D01*
X100746067Y-83277056D01*
X100721401Y-83313971D01*
X100609973Y-83425399D01*
X100478941Y-83512952D01*
X100333352Y-83573257D01*
X100178795Y-83604000D01*
X100021205Y-83604000D01*
X99866648Y-83573257D01*
X99721059Y-83512952D01*
X99590027Y-83425399D01*
X99478599Y-83313971D01*
X99453933Y-83277056D01*
X99438388Y-83258114D01*
X99419446Y-83242569D01*
X99397835Y-83231018D01*
X99374386Y-83223905D01*
X99349999Y-83221503D01*
X99325613Y-83223905D01*
X99302164Y-83231018D01*
X99280553Y-83242570D01*
X99261611Y-83258115D01*
X99246067Y-83277056D01*
X99221401Y-83313971D01*
X99109973Y-83425399D01*
X98978941Y-83512952D01*
X98833352Y-83573257D01*
X98678795Y-83604000D01*
X98521205Y-83604000D01*
X98366648Y-83573257D01*
X98221059Y-83512952D01*
X98090027Y-83425399D01*
X97978599Y-83313971D01*
X97953933Y-83277056D01*
X97938388Y-83258114D01*
X97919446Y-83242569D01*
X97897835Y-83231018D01*
X97874386Y-83223905D01*
X97849999Y-83221503D01*
X97825613Y-83223905D01*
X97802164Y-83231018D01*
X97780553Y-83242570D01*
X97761611Y-83258115D01*
X97746067Y-83277056D01*
X97721401Y-83313971D01*
X97609973Y-83425399D01*
X97478941Y-83512952D01*
X97333352Y-83573257D01*
X97178795Y-83604000D01*
X97021205Y-83604000D01*
X96866648Y-83573257D01*
X96721059Y-83512952D01*
X96590027Y-83425399D01*
X96478599Y-83313971D01*
X96453933Y-83277056D01*
X96438388Y-83258114D01*
X96419446Y-83242569D01*
X96397835Y-83231018D01*
X96374386Y-83223905D01*
X96349999Y-83221503D01*
X96325613Y-83223905D01*
X96302164Y-83231018D01*
X96280553Y-83242570D01*
X96261611Y-83258115D01*
X96246067Y-83277056D01*
X96221401Y-83313971D01*
X96109973Y-83425399D01*
X95978941Y-83512952D01*
X95833352Y-83573257D01*
X95678795Y-83604000D01*
X95521205Y-83604000D01*
X95366648Y-83573257D01*
X95221059Y-83512952D01*
X95090027Y-83425399D01*
X94978599Y-83313971D01*
X94953933Y-83277056D01*
X94938388Y-83258114D01*
X94919446Y-83242569D01*
X94897835Y-83231018D01*
X94874386Y-83223905D01*
X94849999Y-83221503D01*
X94825613Y-83223905D01*
X94802164Y-83231018D01*
X94780553Y-83242570D01*
X94761611Y-83258115D01*
X94746067Y-83277056D01*
X94721401Y-83313971D01*
X94609973Y-83425399D01*
X94478941Y-83512952D01*
X94333352Y-83573257D01*
X94178795Y-83604000D01*
X94021205Y-83604000D01*
X93866648Y-83573257D01*
X93721059Y-83512952D01*
X93590027Y-83425399D01*
X93478601Y-83313973D01*
X93391048Y-83182941D01*
X93330743Y-83037352D01*
X93300000Y-82882795D01*
X93300000Y-82725205D01*
X93330743Y-82570648D01*
X93391048Y-82425059D01*
X93478601Y-82294027D01*
X93590027Y-82182601D01*
X93721059Y-82095048D01*
X93866648Y-82034743D01*
X94021205Y-82004000D01*
X94178795Y-82004000D01*
X94333352Y-82034743D01*
X94333352Y-82034743D01*
G37*
G36*
X95269660Y-80337000D02*
X92690340Y-80337000D01*
X92690340Y-78316480D01*
X95269660Y-78316480D01*
X95269660Y-80337000D01*
X95269660Y-80337000D01*
G37*
G36*
X90697660Y-80337000D02*
X88118340Y-80337000D01*
X88118340Y-78316480D01*
X90697660Y-78316480D01*
X90697660Y-80337000D01*
X90697660Y-80337000D01*
G37*
G36*
X99968660Y-80337000D02*
X97389340Y-80337000D01*
X97389340Y-78316480D01*
X99968660Y-78316480D01*
X99968660Y-80337000D01*
X99968660Y-80337000D01*
G37*
G36*
X104413660Y-80337000D02*
X101834340Y-80337000D01*
X101834340Y-78316480D01*
X104413660Y-78316480D01*
X104413660Y-80337000D01*
X104413660Y-80337000D01*
G37*
G36*
X75820707Y-77189597D02*
X75897836Y-77197193D01*
X76029787Y-77237220D01*
X76095763Y-77257233D01*
X76278172Y-77354733D01*
X76438054Y-77485946D01*
X76569267Y-77645828D01*
X76666767Y-77828237D01*
X76666767Y-77828238D01*
X76726807Y-78026164D01*
X76747080Y-78232000D01*
X76726807Y-78437836D01*
X76686780Y-78569787D01*
X76666767Y-78635763D01*
X76569267Y-78818172D01*
X76438054Y-78978054D01*
X76278172Y-79109267D01*
X76095763Y-79206767D01*
X76029787Y-79226780D01*
X75897836Y-79266807D01*
X75820707Y-79274404D01*
X75743580Y-79282000D01*
X75640420Y-79282000D01*
X75563293Y-79274404D01*
X75486164Y-79266807D01*
X75354213Y-79226780D01*
X75288237Y-79206767D01*
X75105828Y-79109267D01*
X74945946Y-78978054D01*
X74814733Y-78818172D01*
X74717233Y-78635763D01*
X74697220Y-78569787D01*
X74657193Y-78437836D01*
X74636920Y-78232000D01*
X74657193Y-78026164D01*
X74717233Y-77828238D01*
X74717233Y-77828237D01*
X74814733Y-77645828D01*
X74945946Y-77485946D01*
X75105828Y-77354733D01*
X75288237Y-77257233D01*
X75354213Y-77237220D01*
X75486164Y-77197193D01*
X75563293Y-77189597D01*
X75640420Y-77182000D01*
X75743580Y-77182000D01*
X75820707Y-77189597D01*
X75820707Y-77189597D01*
G37*
G36*
X75820707Y-74649597D02*
X75897836Y-74657193D01*
X76029787Y-74697220D01*
X76095763Y-74717233D01*
X76278172Y-74814733D01*
X76438054Y-74945946D01*
X76569267Y-75105828D01*
X76666767Y-75288237D01*
X76666767Y-75288238D01*
X76726807Y-75486164D01*
X76747080Y-75692000D01*
X76726807Y-75897836D01*
X76686780Y-76029787D01*
X76666767Y-76095763D01*
X76569267Y-76278172D01*
X76438054Y-76438054D01*
X76278172Y-76569267D01*
X76095763Y-76666767D01*
X76029787Y-76686780D01*
X75897836Y-76726807D01*
X75820707Y-76734404D01*
X75743580Y-76742000D01*
X75640420Y-76742000D01*
X75563293Y-76734404D01*
X75486164Y-76726807D01*
X75354213Y-76686780D01*
X75288237Y-76666767D01*
X75105828Y-76569267D01*
X74945946Y-76438054D01*
X74814733Y-76278172D01*
X74717233Y-76095763D01*
X74697220Y-76029787D01*
X74657193Y-75897836D01*
X74636920Y-75692000D01*
X74657193Y-75486164D01*
X74717233Y-75288238D01*
X74717233Y-75288237D01*
X74814733Y-75105828D01*
X74945946Y-74945946D01*
X75105828Y-74814733D01*
X75288237Y-74717233D01*
X75354213Y-74697220D01*
X75486164Y-74657193D01*
X75563293Y-74649597D01*
X75640420Y-74642000D01*
X75743580Y-74642000D01*
X75820707Y-74649597D01*
X75820707Y-74649597D01*
G37*
G36*
X95269660Y-76115520D02*
X92690340Y-76115520D01*
X92690340Y-74095000D01*
X95269660Y-74095000D01*
X95269660Y-76115520D01*
X95269660Y-76115520D01*
G37*
G36*
X99968660Y-76115520D02*
X97389340Y-76115520D01*
X97389340Y-74095000D01*
X99968660Y-74095000D01*
X99968660Y-76115520D01*
X99968660Y-76115520D01*
G37*
G36*
X90697660Y-76115520D02*
X88118340Y-76115520D01*
X88118340Y-74095000D01*
X90697660Y-74095000D01*
X90697660Y-76115520D01*
X90697660Y-76115520D01*
G37*
G36*
X104413660Y-76115520D02*
X101834340Y-76115520D01*
X101834340Y-74095000D01*
X104413660Y-74095000D01*
X104413660Y-76115520D01*
X104413660Y-76115520D01*
G37*
G36*
X75820707Y-72109597D02*
X75897836Y-72117193D01*
X76029787Y-72157220D01*
X76095763Y-72177233D01*
X76278172Y-72274733D01*
X76438054Y-72405946D01*
X76569267Y-72565828D01*
X76666767Y-72748237D01*
X76666767Y-72748238D01*
X76726807Y-72946164D01*
X76747080Y-73152000D01*
X76726807Y-73357836D01*
X76686780Y-73489787D01*
X76666767Y-73555763D01*
X76569267Y-73738172D01*
X76438054Y-73898054D01*
X76278172Y-74029267D01*
X76095763Y-74126767D01*
X76029787Y-74146780D01*
X75897836Y-74186807D01*
X75820707Y-74194404D01*
X75743580Y-74202000D01*
X75640420Y-74202000D01*
X75563293Y-74194404D01*
X75486164Y-74186807D01*
X75354213Y-74146780D01*
X75288237Y-74126767D01*
X75105828Y-74029267D01*
X74945946Y-73898054D01*
X74814733Y-73738172D01*
X74717233Y-73555763D01*
X74697220Y-73489787D01*
X74657193Y-73357836D01*
X74636920Y-73152000D01*
X74657193Y-72946164D01*
X74717233Y-72748238D01*
X74717233Y-72748237D01*
X74814733Y-72565828D01*
X74945946Y-72405946D01*
X75105828Y-72274733D01*
X75288237Y-72177233D01*
X75354213Y-72157220D01*
X75486164Y-72117193D01*
X75563293Y-72109597D01*
X75640420Y-72102000D01*
X75743580Y-72102000D01*
X75820707Y-72109597D01*
X75820707Y-72109597D01*
G37*
G36*
X92416622Y-72063017D02*
X92464585Y-72077566D01*
X92508775Y-72101186D01*
X92547518Y-72132982D01*
X92579314Y-72171725D01*
X92602934Y-72215915D01*
X92617483Y-72263878D01*
X92623000Y-72319891D01*
X92623000Y-73070109D01*
X92617483Y-73126122D01*
X92602934Y-73174085D01*
X92579314Y-73218275D01*
X92547518Y-73257018D01*
X92508775Y-73288814D01*
X92464585Y-73312434D01*
X92416622Y-73326983D01*
X92360609Y-73332500D01*
X91535391Y-73332500D01*
X91479378Y-73326983D01*
X91431415Y-73312434D01*
X91387225Y-73288814D01*
X91348482Y-73257018D01*
X91316686Y-73218275D01*
X91293066Y-73174085D01*
X91278517Y-73126122D01*
X91273000Y-73070109D01*
X91273000Y-72319891D01*
X91278517Y-72263878D01*
X91293066Y-72215915D01*
X91316686Y-72171725D01*
X91348482Y-72132982D01*
X91387225Y-72101186D01*
X91431415Y-72077566D01*
X91479378Y-72063017D01*
X91535391Y-72057500D01*
X92360609Y-72057500D01*
X92416622Y-72063017D01*
X92416622Y-72063017D01*
G37*
G36*
X92416622Y-70488017D02*
X92464585Y-70502566D01*
X92508775Y-70526186D01*
X92547518Y-70557982D01*
X92579314Y-70596725D01*
X92602934Y-70640915D01*
X92617483Y-70688878D01*
X92623000Y-70744891D01*
X92623000Y-71495109D01*
X92617483Y-71551122D01*
X92602934Y-71599085D01*
X92579314Y-71643275D01*
X92547518Y-71682018D01*
X92508775Y-71713814D01*
X92464585Y-71737434D01*
X92416622Y-71751983D01*
X92360609Y-71757500D01*
X91535391Y-71757500D01*
X91479378Y-71751983D01*
X91431415Y-71737434D01*
X91387225Y-71713814D01*
X91348482Y-71682018D01*
X91316686Y-71643275D01*
X91293066Y-71599085D01*
X91278517Y-71551122D01*
X91273000Y-71495109D01*
X91273000Y-70744891D01*
X91278517Y-70688878D01*
X91293066Y-70640915D01*
X91316686Y-70596725D01*
X91348482Y-70557982D01*
X91387225Y-70526186D01*
X91431415Y-70502566D01*
X91479378Y-70488017D01*
X91535391Y-70482500D01*
X92360609Y-70482500D01*
X92416622Y-70488017D01*
X92416622Y-70488017D01*
G37*
G36*
X76742000Y-71662000D02*
X74642000Y-71662000D01*
X74642000Y-69562000D01*
X76742000Y-69562000D01*
X76742000Y-71662000D01*
X76742000Y-71662000D01*
G37*
G36*
X88550000Y-71654000D02*
X87250000Y-71654000D01*
X87250000Y-70454000D01*
X88550000Y-70454000D01*
X88550000Y-71654000D01*
X88550000Y-71654000D01*
G37*
G36*
X86320622Y-70259517D02*
X86368585Y-70274066D01*
X86412775Y-70297686D01*
X86451518Y-70329482D01*
X86483314Y-70368225D01*
X86506934Y-70412415D01*
X86521483Y-70460378D01*
X86527000Y-70516391D01*
X86527000Y-71266609D01*
X86521483Y-71322622D01*
X86506934Y-71370585D01*
X86483314Y-71414775D01*
X86451518Y-71453518D01*
X86412775Y-71485314D01*
X86368585Y-71508934D01*
X86320622Y-71523483D01*
X86264609Y-71529000D01*
X85439391Y-71529000D01*
X85383378Y-71523483D01*
X85335415Y-71508934D01*
X85291225Y-71485314D01*
X85252482Y-71453518D01*
X85220686Y-71414775D01*
X85197066Y-71370585D01*
X85182517Y-71322622D01*
X85177000Y-71266609D01*
X85177000Y-70516391D01*
X85182517Y-70460378D01*
X85197066Y-70412415D01*
X85220686Y-70368225D01*
X85252482Y-70329482D01*
X85291225Y-70297686D01*
X85335415Y-70274066D01*
X85383378Y-70259517D01*
X85439391Y-70254000D01*
X86264609Y-70254000D01*
X86320622Y-70259517D01*
X86320622Y-70259517D01*
G37*
G36*
X90550000Y-70704000D02*
X89250000Y-70704000D01*
X89250000Y-69504000D01*
X90550000Y-69504000D01*
X90550000Y-70704000D01*
X90550000Y-70704000D01*
G37*
G36*
X99425203Y-67705893D02*
X99425206Y-67705894D01*
X99425207Y-67705894D01*
X99440773Y-67710616D01*
X99462908Y-67717330D01*
X99467001Y-67719518D01*
X99497652Y-67735901D01*
X99497653Y-67735902D01*
X99497655Y-67735903D01*
X99528106Y-67760894D01*
X99553097Y-67791345D01*
X99571670Y-67826092D01*
X99583107Y-67863797D01*
X99587573Y-67909140D01*
X99587573Y-68316860D01*
X99583107Y-68362205D01*
X99571122Y-68401715D01*
X99566342Y-68425749D01*
X99566342Y-68450253D01*
X99571122Y-68474285D01*
X99583107Y-68513795D01*
X99587573Y-68559140D01*
X99587573Y-68966860D01*
X99583107Y-69012205D01*
X99571122Y-69051715D01*
X99566342Y-69075749D01*
X99566342Y-69100253D01*
X99571122Y-69124285D01*
X99583107Y-69163795D01*
X99587573Y-69209140D01*
X99587573Y-69616860D01*
X99583107Y-69662205D01*
X99571122Y-69701715D01*
X99566342Y-69725749D01*
X99566342Y-69750253D01*
X99571122Y-69774285D01*
X99583107Y-69813795D01*
X99587573Y-69859140D01*
X99587573Y-70266860D01*
X99583107Y-70312203D01*
X99571670Y-70349908D01*
X99553097Y-70384655D01*
X99528106Y-70415106D01*
X99497655Y-70440097D01*
X99497653Y-70440098D01*
X99497652Y-70440099D01*
X99482856Y-70448007D01*
X99462908Y-70458670D01*
X99440773Y-70465384D01*
X99425207Y-70470106D01*
X99425206Y-70470106D01*
X99425203Y-70470107D01*
X99379860Y-70474573D01*
X97142140Y-70474573D01*
X97096797Y-70470107D01*
X97096794Y-70470106D01*
X97096793Y-70470106D01*
X97081227Y-70465384D01*
X97059092Y-70458670D01*
X97039144Y-70448007D01*
X97024348Y-70440099D01*
X97024347Y-70440098D01*
X97024345Y-70440097D01*
X96993894Y-70415106D01*
X96968903Y-70384655D01*
X96950330Y-70349908D01*
X96938893Y-70312203D01*
X96934427Y-70266860D01*
X96934427Y-67909140D01*
X96938893Y-67863797D01*
X96950330Y-67826092D01*
X96968903Y-67791345D01*
X96993894Y-67760894D01*
X97024345Y-67735903D01*
X97024347Y-67735902D01*
X97024348Y-67735901D01*
X97054999Y-67719518D01*
X97059092Y-67717330D01*
X97081227Y-67710616D01*
X97096793Y-67705894D01*
X97096794Y-67705894D01*
X97096797Y-67705893D01*
X97142140Y-67701427D01*
X99379860Y-67701427D01*
X99425203Y-67705893D01*
X99425203Y-67705893D01*
G37*
G36*
X96586000Y-70473000D02*
X95486000Y-70473000D01*
X95486000Y-67703000D01*
X96586000Y-67703000D01*
X96586000Y-70473000D01*
X96586000Y-70473000D01*
G37*
G36*
X86320622Y-68684517D02*
X86368585Y-68699066D01*
X86412775Y-68722686D01*
X86451518Y-68754482D01*
X86483314Y-68793225D01*
X86506934Y-68837415D01*
X86521483Y-68885378D01*
X86527000Y-68941391D01*
X86527000Y-69691609D01*
X86521483Y-69747622D01*
X86506934Y-69795585D01*
X86483314Y-69839775D01*
X86451518Y-69878518D01*
X86412775Y-69910314D01*
X86368585Y-69933934D01*
X86320622Y-69948483D01*
X86264609Y-69954000D01*
X85439391Y-69954000D01*
X85383378Y-69948483D01*
X85335415Y-69933934D01*
X85291225Y-69910314D01*
X85252482Y-69878518D01*
X85220686Y-69839775D01*
X85197066Y-69795585D01*
X85182517Y-69747622D01*
X85177000Y-69691609D01*
X85177000Y-68941391D01*
X85182517Y-68885378D01*
X85197066Y-68837415D01*
X85220686Y-68793225D01*
X85252482Y-68754482D01*
X85291225Y-68722686D01*
X85335415Y-68699066D01*
X85383378Y-68684517D01*
X85439391Y-68679000D01*
X86264609Y-68679000D01*
X86320622Y-68684517D01*
X86320622Y-68684517D01*
G37*
G36*
X88550000Y-69754000D02*
X87250000Y-69754000D01*
X87250000Y-68554000D01*
X88550000Y-68554000D01*
X88550000Y-69754000D01*
X88550000Y-69754000D01*
G37*
G36*
X84149622Y-68037517D02*
X84197585Y-68052066D01*
X84241775Y-68075686D01*
X84280518Y-68107482D01*
X84312314Y-68146225D01*
X84335934Y-68190415D01*
X84350483Y-68238378D01*
X84356000Y-68294391D01*
X84356000Y-69119609D01*
X84350483Y-69175622D01*
X84335934Y-69223585D01*
X84312314Y-69267775D01*
X84280518Y-69306518D01*
X84241775Y-69338314D01*
X84197585Y-69361934D01*
X84149622Y-69376483D01*
X84093609Y-69382000D01*
X83343391Y-69382000D01*
X83287378Y-69376483D01*
X83239415Y-69361934D01*
X83195225Y-69338314D01*
X83156482Y-69306518D01*
X83124686Y-69267775D01*
X83101066Y-69223585D01*
X83086517Y-69175622D01*
X83081000Y-69119609D01*
X83081000Y-68294391D01*
X83086517Y-68238378D01*
X83101066Y-68190415D01*
X83124686Y-68146225D01*
X83156482Y-68107482D01*
X83195225Y-68075686D01*
X83239415Y-68052066D01*
X83287378Y-68037517D01*
X83343391Y-68032000D01*
X84093609Y-68032000D01*
X84149622Y-68037517D01*
X84149622Y-68037517D01*
G37*
G36*
X82574622Y-68037517D02*
X82622585Y-68052066D01*
X82666775Y-68075686D01*
X82705518Y-68107482D01*
X82737314Y-68146225D01*
X82760934Y-68190415D01*
X82775483Y-68238378D01*
X82781000Y-68294391D01*
X82781000Y-69119609D01*
X82775483Y-69175622D01*
X82760934Y-69223585D01*
X82737314Y-69267775D01*
X82705518Y-69306518D01*
X82666775Y-69338314D01*
X82622585Y-69361934D01*
X82574622Y-69376483D01*
X82518609Y-69382000D01*
X81768391Y-69382000D01*
X81712378Y-69376483D01*
X81664415Y-69361934D01*
X81620225Y-69338314D01*
X81581482Y-69306518D01*
X81549686Y-69267775D01*
X81526066Y-69223585D01*
X81511517Y-69175622D01*
X81506000Y-69119609D01*
X81506000Y-68294391D01*
X81511517Y-68238378D01*
X81526066Y-68190415D01*
X81549686Y-68146225D01*
X81581482Y-68107482D01*
X81620225Y-68075686D01*
X81664415Y-68052066D01*
X81712378Y-68037517D01*
X81768391Y-68032000D01*
X82518609Y-68032000D01*
X82574622Y-68037517D01*
X82574622Y-68037517D01*
G37*
G36*
X80351622Y-68100517D02*
X80399585Y-68115066D01*
X80443775Y-68138686D01*
X80482518Y-68170482D01*
X80514314Y-68209225D01*
X80537934Y-68253415D01*
X80552483Y-68301378D01*
X80558000Y-68357391D01*
X80558000Y-69107609D01*
X80552483Y-69163622D01*
X80537934Y-69211585D01*
X80514314Y-69255775D01*
X80482518Y-69294518D01*
X80443775Y-69326314D01*
X80399585Y-69349934D01*
X80351622Y-69364483D01*
X80295609Y-69370000D01*
X79470391Y-69370000D01*
X79414378Y-69364483D01*
X79366415Y-69349934D01*
X79322225Y-69326314D01*
X79283482Y-69294518D01*
X79251686Y-69255775D01*
X79228066Y-69211585D01*
X79213517Y-69163622D01*
X79208000Y-69107609D01*
X79208000Y-68357391D01*
X79213517Y-68301378D01*
X79228066Y-68253415D01*
X79251686Y-68209225D01*
X79283482Y-68170482D01*
X79322225Y-68138686D01*
X79366415Y-68115066D01*
X79414378Y-68100517D01*
X79470391Y-68095000D01*
X80295609Y-68095000D01*
X80351622Y-68100517D01*
X80351622Y-68100517D01*
G37*
G36*
X80351622Y-66525517D02*
X80399585Y-66540066D01*
X80443775Y-66563686D01*
X80482518Y-66595482D01*
X80514314Y-66634225D01*
X80537934Y-66678415D01*
X80552483Y-66726378D01*
X80558000Y-66782391D01*
X80558000Y-67532609D01*
X80552483Y-67588622D01*
X80537934Y-67636585D01*
X80514314Y-67680775D01*
X80482518Y-67719518D01*
X80443775Y-67751314D01*
X80399585Y-67774934D01*
X80351622Y-67789483D01*
X80295609Y-67795000D01*
X79470391Y-67795000D01*
X79414378Y-67789483D01*
X79366415Y-67774934D01*
X79322225Y-67751314D01*
X79283482Y-67719518D01*
X79251686Y-67680775D01*
X79228066Y-67636585D01*
X79213517Y-67588622D01*
X79208000Y-67532609D01*
X79208000Y-66782391D01*
X79213517Y-66726378D01*
X79228066Y-66678415D01*
X79251686Y-66634225D01*
X79283482Y-66595482D01*
X79322225Y-66563686D01*
X79366415Y-66540066D01*
X79414378Y-66525517D01*
X79470391Y-66520000D01*
X80295609Y-66520000D01*
X80351622Y-66525517D01*
X80351622Y-66525517D01*
G37*
G36*
X105535888Y-62367470D02*
X105716274Y-62403350D01*
X105907362Y-62482502D01*
X106079336Y-62597411D01*
X106225589Y-62743664D01*
X106340498Y-62915638D01*
X106419650Y-63106726D01*
X106460000Y-63309584D01*
X106460000Y-63516416D01*
X106426573Y-63684469D01*
X106424172Y-63708845D01*
X106426574Y-63733231D01*
X106433687Y-63756680D01*
X106445238Y-63778291D01*
X106460784Y-63797233D01*
X106479726Y-63812779D01*
X106501336Y-63824330D01*
X106524786Y-63831443D01*
X106549172Y-63833845D01*
X106573557Y-63831443D01*
X106666280Y-63813000D01*
X106833719Y-63813000D01*
X106997934Y-63845664D01*
X107152627Y-63909740D01*
X107291847Y-64002764D01*
X107410236Y-64121153D01*
X107503260Y-64260373D01*
X107567336Y-64415066D01*
X107600000Y-64579281D01*
X107600000Y-64746719D01*
X107567336Y-64910934D01*
X107503260Y-65065627D01*
X107410236Y-65204847D01*
X107291847Y-65323236D01*
X107152627Y-65416260D01*
X106997934Y-65480336D01*
X106833719Y-65513000D01*
X106666281Y-65513000D01*
X106602741Y-65500361D01*
X106578355Y-65497959D01*
X106553969Y-65500361D01*
X106530520Y-65507474D01*
X106508909Y-65519025D01*
X106489967Y-65534571D01*
X106474421Y-65553513D01*
X106462870Y-65575124D01*
X106455757Y-65598573D01*
X106453355Y-65622959D01*
X106455757Y-65647344D01*
X106456399Y-65650574D01*
X106460302Y-65690194D01*
X106461573Y-65716062D01*
X106461573Y-66509938D01*
X106460302Y-66535806D01*
X106456399Y-66575426D01*
X106446309Y-66626155D01*
X106435647Y-66661306D01*
X106415845Y-66709111D01*
X106398532Y-66741501D01*
X106376883Y-66773900D01*
X106375103Y-66776565D01*
X106369791Y-66784514D01*
X106346490Y-66812907D01*
X106309907Y-66849490D01*
X106281514Y-66872791D01*
X106238501Y-66901532D01*
X106206111Y-66918845D01*
X106158306Y-66938647D01*
X106123155Y-66949309D01*
X106072426Y-66959399D01*
X106032806Y-66963302D01*
X106006938Y-66964573D01*
X104813062Y-66964573D01*
X104787194Y-66963302D01*
X104747574Y-66959399D01*
X104696845Y-66949309D01*
X104661694Y-66938647D01*
X104613889Y-66918845D01*
X104581499Y-66901532D01*
X104538486Y-66872791D01*
X104510093Y-66849490D01*
X104473510Y-66812907D01*
X104450209Y-66784514D01*
X104444898Y-66776565D01*
X104443117Y-66773900D01*
X104421468Y-66741501D01*
X104404155Y-66709111D01*
X104384353Y-66661306D01*
X104373691Y-66626155D01*
X104363601Y-66575426D01*
X104359698Y-66535806D01*
X104358427Y-66509938D01*
X104358427Y-65316062D01*
X104359698Y-65290194D01*
X104363601Y-65250574D01*
X104373691Y-65199845D01*
X104384353Y-65164694D01*
X104404155Y-65116889D01*
X104421468Y-65084499D01*
X104443117Y-65052100D01*
X104446781Y-65046616D01*
X104446782Y-65046615D01*
X104450209Y-65041486D01*
X104473510Y-65013093D01*
X104510093Y-64976510D01*
X104538486Y-64953209D01*
X104581499Y-64924468D01*
X104613889Y-64907155D01*
X104661694Y-64887353D01*
X104696845Y-64876691D01*
X104747574Y-64866601D01*
X104787194Y-64862698D01*
X104813062Y-64861427D01*
X105606938Y-64861427D01*
X105632806Y-64862698D01*
X105672426Y-64866601D01*
X105723155Y-64876691D01*
X105739300Y-64881588D01*
X105763334Y-64886368D01*
X105787838Y-64886368D01*
X105811871Y-64881587D01*
X105834510Y-64872210D01*
X105854885Y-64858596D01*
X105872212Y-64841268D01*
X105885826Y-64820894D01*
X105895203Y-64798255D01*
X105899983Y-64774221D01*
X105899237Y-64759029D01*
X105900000Y-64759029D01*
X105900000Y-64579281D01*
X105904827Y-64555014D01*
X105907229Y-64530628D01*
X105904827Y-64506241D01*
X105897714Y-64482792D01*
X105886163Y-64461182D01*
X105870617Y-64442239D01*
X105851675Y-64426694D01*
X105830064Y-64415143D01*
X105806615Y-64408030D01*
X105782229Y-64405628D01*
X105757842Y-64408030D01*
X105734409Y-64415138D01*
X105716274Y-64422650D01*
X105535888Y-64458530D01*
X105513417Y-64463000D01*
X105306583Y-64463000D01*
X105284112Y-64458530D01*
X105103726Y-64422650D01*
X104912638Y-64343498D01*
X104740664Y-64228589D01*
X104594411Y-64082336D01*
X104479502Y-63910362D01*
X104400350Y-63719274D01*
X104360000Y-63516416D01*
X104360000Y-63309584D01*
X104400350Y-63106726D01*
X104479502Y-62915638D01*
X104594411Y-62743664D01*
X104740664Y-62597411D01*
X104912638Y-62482502D01*
X105103726Y-62403350D01*
X105284112Y-62367470D01*
X105306583Y-62363000D01*
X105513417Y-62363000D01*
X105535888Y-62367470D01*
X105535888Y-62367470D01*
G37*
G36*
X103031520Y-64866601D02*
X103216274Y-64903350D01*
X103407362Y-64982502D01*
X103579336Y-65097411D01*
X103725589Y-65243664D01*
X103840498Y-65415638D01*
X103919650Y-65606726D01*
X103960000Y-65809584D01*
X103960000Y-66016416D01*
X103919650Y-66219274D01*
X103840498Y-66410362D01*
X103725589Y-66582336D01*
X103579336Y-66728589D01*
X103407362Y-66843498D01*
X103216274Y-66922650D01*
X103037568Y-66958196D01*
X103013417Y-66963000D01*
X102806583Y-66963000D01*
X102782432Y-66958196D01*
X102603726Y-66922650D01*
X102412638Y-66843498D01*
X102240664Y-66728589D01*
X102094411Y-66582336D01*
X101979502Y-66410362D01*
X101900350Y-66219274D01*
X101860000Y-66016416D01*
X101860000Y-65809584D01*
X101900350Y-65606726D01*
X101979502Y-65415638D01*
X102094411Y-65243664D01*
X102240664Y-65097411D01*
X102412638Y-64982502D01*
X102603726Y-64903350D01*
X102788480Y-64866601D01*
X102806583Y-64863000D01*
X103013417Y-64863000D01*
X103031520Y-64866601D01*
X103031520Y-64866601D01*
G37*
G36*
X75693707Y-64489597D02*
X75770836Y-64497193D01*
X75902787Y-64537220D01*
X75968763Y-64557233D01*
X76151172Y-64654733D01*
X76311054Y-64785946D01*
X76442267Y-64945828D01*
X76539767Y-65128237D01*
X76550826Y-65164694D01*
X76599807Y-65326164D01*
X76620080Y-65532000D01*
X76599807Y-65737836D01*
X76559780Y-65869787D01*
X76539767Y-65935763D01*
X76442267Y-66118172D01*
X76311054Y-66278054D01*
X76151172Y-66409267D01*
X75968763Y-66506767D01*
X75925139Y-66520000D01*
X75770836Y-66566807D01*
X75700657Y-66573719D01*
X75616580Y-66582000D01*
X75513420Y-66582000D01*
X75429343Y-66573719D01*
X75359164Y-66566807D01*
X75204861Y-66520000D01*
X75161237Y-66506767D01*
X74978828Y-66409267D01*
X74818946Y-66278054D01*
X74687733Y-66118172D01*
X74590233Y-65935763D01*
X74570220Y-65869787D01*
X74530193Y-65737836D01*
X74509920Y-65532000D01*
X74530193Y-65326164D01*
X74579174Y-65164694D01*
X74590233Y-65128237D01*
X74687733Y-64945828D01*
X74818946Y-64785946D01*
X74978828Y-64654733D01*
X75161237Y-64557233D01*
X75227213Y-64537220D01*
X75359164Y-64497193D01*
X75436293Y-64489597D01*
X75513420Y-64482000D01*
X75616580Y-64482000D01*
X75693707Y-64489597D01*
X75693707Y-64489597D01*
G37*
G36*
X92416622Y-65052517D02*
X92464585Y-65067066D01*
X92508775Y-65090686D01*
X92547518Y-65122482D01*
X92579314Y-65161225D01*
X92602934Y-65205415D01*
X92617483Y-65253378D01*
X92623000Y-65309391D01*
X92623000Y-66059609D01*
X92617483Y-66115622D01*
X92602934Y-66163585D01*
X92579314Y-66207775D01*
X92547518Y-66246518D01*
X92508775Y-66278314D01*
X92464585Y-66301934D01*
X92416622Y-66316483D01*
X92360609Y-66322000D01*
X91535391Y-66322000D01*
X91479378Y-66316483D01*
X91431415Y-66301934D01*
X91387225Y-66278314D01*
X91348482Y-66246518D01*
X91316686Y-66207775D01*
X91293066Y-66163585D01*
X91278517Y-66115622D01*
X91273000Y-66059609D01*
X91273000Y-65309391D01*
X91278517Y-65253378D01*
X91293066Y-65205415D01*
X91316686Y-65161225D01*
X91348482Y-65122482D01*
X91387225Y-65090686D01*
X91431415Y-65067066D01*
X91479378Y-65052517D01*
X91535391Y-65047000D01*
X92360609Y-65047000D01*
X92416622Y-65052517D01*
X92416622Y-65052517D01*
G37*
G36*
X92416622Y-63477517D02*
X92464585Y-63492066D01*
X92508775Y-63515686D01*
X92547518Y-63547482D01*
X92579314Y-63586225D01*
X92602934Y-63630415D01*
X92617483Y-63678378D01*
X92623000Y-63734391D01*
X92623000Y-64484609D01*
X92617483Y-64540622D01*
X92602934Y-64588585D01*
X92579314Y-64632775D01*
X92547518Y-64671518D01*
X92508775Y-64703314D01*
X92464585Y-64726934D01*
X92416622Y-64741483D01*
X92360609Y-64747000D01*
X91535391Y-64747000D01*
X91479378Y-64741483D01*
X91431415Y-64726934D01*
X91387225Y-64703314D01*
X91348482Y-64671518D01*
X91316686Y-64632775D01*
X91293066Y-64588585D01*
X91278517Y-64540622D01*
X91273000Y-64484609D01*
X91273000Y-63734391D01*
X91278517Y-63678378D01*
X91293066Y-63630415D01*
X91316686Y-63586225D01*
X91348482Y-63547482D01*
X91387225Y-63515686D01*
X91431415Y-63492066D01*
X91479378Y-63477517D01*
X91535391Y-63472000D01*
X92360609Y-63472000D01*
X92416622Y-63477517D01*
X92416622Y-63477517D01*
G37*
G36*
X103035888Y-62367470D02*
X103216274Y-62403350D01*
X103407362Y-62482502D01*
X103579336Y-62597411D01*
X103725589Y-62743664D01*
X103840498Y-62915638D01*
X103919650Y-63106726D01*
X103960000Y-63309584D01*
X103960000Y-63516416D01*
X103919650Y-63719274D01*
X103840498Y-63910362D01*
X103725589Y-64082336D01*
X103579336Y-64228589D01*
X103407362Y-64343498D01*
X103216274Y-64422650D01*
X103035888Y-64458530D01*
X103013417Y-64463000D01*
X102806583Y-64463000D01*
X102784112Y-64458530D01*
X102603726Y-64422650D01*
X102412638Y-64343498D01*
X102240664Y-64228589D01*
X102094411Y-64082336D01*
X101979502Y-63910362D01*
X101900350Y-63719274D01*
X101860000Y-63516416D01*
X101860000Y-63309584D01*
X101900350Y-63106726D01*
X101979502Y-62915638D01*
X102094411Y-62743664D01*
X102240664Y-62597411D01*
X102412638Y-62482502D01*
X102603726Y-62403350D01*
X102784112Y-62367470D01*
X102806583Y-62363000D01*
X103013417Y-62363000D01*
X103035888Y-62367470D01*
X103035888Y-62367470D01*
G37*
G36*
X82764622Y-63147517D02*
X82812585Y-63162066D01*
X82856775Y-63185686D01*
X82895518Y-63217482D01*
X82927314Y-63256225D01*
X82950934Y-63300415D01*
X82965483Y-63348378D01*
X82971000Y-63404391D01*
X82971000Y-64154609D01*
X82965483Y-64210622D01*
X82950934Y-64258585D01*
X82927314Y-64302775D01*
X82895518Y-64341518D01*
X82856775Y-64373314D01*
X82812585Y-64396934D01*
X82764622Y-64411483D01*
X82708609Y-64417000D01*
X81883391Y-64417000D01*
X81827378Y-64411483D01*
X81779415Y-64396934D01*
X81735225Y-64373314D01*
X81696482Y-64341518D01*
X81664686Y-64302775D01*
X81641066Y-64258585D01*
X81626517Y-64210622D01*
X81621000Y-64154609D01*
X81621000Y-63404391D01*
X81626517Y-63348378D01*
X81641066Y-63300415D01*
X81664686Y-63256225D01*
X81696482Y-63217482D01*
X81735225Y-63185686D01*
X81779415Y-63162066D01*
X81827378Y-63147517D01*
X81883391Y-63142000D01*
X82708609Y-63142000D01*
X82764622Y-63147517D01*
X82764622Y-63147517D01*
G37*
G36*
X75687651Y-61949000D02*
X75770836Y-61957193D01*
X75902787Y-61997220D01*
X75968763Y-62017233D01*
X76151172Y-62114733D01*
X76311054Y-62245946D01*
X76442267Y-62405828D01*
X76539767Y-62588237D01*
X76539767Y-62588238D01*
X76599807Y-62786164D01*
X76620080Y-62992000D01*
X76599807Y-63197836D01*
X76582424Y-63255140D01*
X76539767Y-63395763D01*
X76442267Y-63578172D01*
X76311054Y-63738054D01*
X76151172Y-63869267D01*
X75968763Y-63966767D01*
X75902787Y-63986780D01*
X75770836Y-64026807D01*
X75693707Y-64034403D01*
X75616580Y-64042000D01*
X75513420Y-64042000D01*
X75436293Y-64034403D01*
X75359164Y-64026807D01*
X75227213Y-63986780D01*
X75161237Y-63966767D01*
X74978828Y-63869267D01*
X74818946Y-63738054D01*
X74687733Y-63578172D01*
X74590233Y-63395763D01*
X74547576Y-63255140D01*
X74530193Y-63197836D01*
X74509920Y-62992000D01*
X74530193Y-62786164D01*
X74590233Y-62588238D01*
X74590233Y-62588237D01*
X74687733Y-62405828D01*
X74818946Y-62245946D01*
X74978828Y-62114733D01*
X75161237Y-62017233D01*
X75227213Y-61997220D01*
X75359164Y-61957193D01*
X75442349Y-61949000D01*
X75513420Y-61942000D01*
X75616580Y-61942000D01*
X75687651Y-61949000D01*
X75687651Y-61949000D01*
G37*
G36*
X98409203Y-61101893D02*
X98409206Y-61101894D01*
X98409207Y-61101894D01*
X98424773Y-61106616D01*
X98446908Y-61113330D01*
X98466856Y-61123993D01*
X98481652Y-61131901D01*
X98481653Y-61131902D01*
X98481655Y-61131903D01*
X98512106Y-61156894D01*
X98537097Y-61187345D01*
X98555670Y-61222092D01*
X98567107Y-61259797D01*
X98571573Y-61305140D01*
X98571573Y-61712860D01*
X98567107Y-61758205D01*
X98555122Y-61797715D01*
X98550342Y-61821749D01*
X98550342Y-61846253D01*
X98555122Y-61870285D01*
X98567107Y-61909795D01*
X98571573Y-61955140D01*
X98571573Y-62362860D01*
X98567107Y-62408205D01*
X98555122Y-62447715D01*
X98550342Y-62471749D01*
X98550342Y-62496253D01*
X98555122Y-62520285D01*
X98567107Y-62559795D01*
X98571573Y-62605140D01*
X98571573Y-63012860D01*
X98567107Y-63058205D01*
X98555122Y-63097715D01*
X98550342Y-63121749D01*
X98550342Y-63146253D01*
X98555122Y-63170285D01*
X98567107Y-63209795D01*
X98571573Y-63255140D01*
X98571573Y-63662860D01*
X98567107Y-63708203D01*
X98555670Y-63745908D01*
X98537097Y-63780655D01*
X98512106Y-63811106D01*
X98481655Y-63836097D01*
X98481653Y-63836098D01*
X98481652Y-63836099D01*
X98466856Y-63844007D01*
X98446908Y-63854670D01*
X98424773Y-63861384D01*
X98409207Y-63866106D01*
X98409206Y-63866106D01*
X98409203Y-63866107D01*
X98363860Y-63870573D01*
X96126140Y-63870573D01*
X96080797Y-63866107D01*
X96080794Y-63866106D01*
X96080793Y-63866106D01*
X96065227Y-63861384D01*
X96043092Y-63854670D01*
X96023144Y-63844007D01*
X96008348Y-63836099D01*
X96008347Y-63836098D01*
X96008345Y-63836097D01*
X95977894Y-63811106D01*
X95952903Y-63780655D01*
X95934330Y-63745908D01*
X95922893Y-63708203D01*
X95918427Y-63662860D01*
X95918427Y-61305140D01*
X95922893Y-61259797D01*
X95934330Y-61222092D01*
X95952903Y-61187345D01*
X95977894Y-61156894D01*
X96008345Y-61131903D01*
X96008347Y-61131902D01*
X96008348Y-61131901D01*
X96023144Y-61123993D01*
X96043092Y-61113330D01*
X96065227Y-61106616D01*
X96080793Y-61101894D01*
X96080794Y-61101894D01*
X96080797Y-61101893D01*
X96126140Y-61097427D01*
X98363860Y-61097427D01*
X98409203Y-61101893D01*
X98409203Y-61101893D01*
G37*
G36*
X95570000Y-63869000D02*
X94470000Y-63869000D01*
X94470000Y-61099000D01*
X95570000Y-61099000D01*
X95570000Y-63869000D01*
X95570000Y-63869000D01*
G37*
G36*
X92416622Y-61750517D02*
X92464585Y-61765066D01*
X92508775Y-61788686D01*
X92547518Y-61820482D01*
X92579314Y-61859225D01*
X92602934Y-61903415D01*
X92617483Y-61951378D01*
X92623000Y-62007391D01*
X92623000Y-62757609D01*
X92617483Y-62813622D01*
X92602934Y-62861585D01*
X92579314Y-62905775D01*
X92547518Y-62944518D01*
X92508775Y-62976314D01*
X92464585Y-62999934D01*
X92416622Y-63014483D01*
X92360609Y-63020000D01*
X91535391Y-63020000D01*
X91479378Y-63014483D01*
X91431415Y-62999934D01*
X91387225Y-62976314D01*
X91348482Y-62944518D01*
X91316686Y-62905775D01*
X91293066Y-62861585D01*
X91278517Y-62813622D01*
X91273000Y-62757609D01*
X91273000Y-62007391D01*
X91278517Y-61951378D01*
X91293066Y-61903415D01*
X91316686Y-61859225D01*
X91348482Y-61820482D01*
X91387225Y-61788686D01*
X91431415Y-61765066D01*
X91479378Y-61750517D01*
X91535391Y-61745000D01*
X92360609Y-61745000D01*
X92416622Y-61750517D01*
X92416622Y-61750517D01*
G37*
G36*
X82764622Y-61572517D02*
X82812585Y-61587066D01*
X82856775Y-61610686D01*
X82895518Y-61642482D01*
X82927314Y-61681225D01*
X82950934Y-61725415D01*
X82965483Y-61773378D01*
X82971000Y-61829391D01*
X82971000Y-62579609D01*
X82965483Y-62635622D01*
X82950934Y-62683585D01*
X82927314Y-62727775D01*
X82895518Y-62766518D01*
X82856775Y-62798314D01*
X82812585Y-62821934D01*
X82764622Y-62836483D01*
X82708609Y-62842000D01*
X81883391Y-62842000D01*
X81827378Y-62836483D01*
X81779415Y-62821934D01*
X81735225Y-62798314D01*
X81696482Y-62766518D01*
X81664686Y-62727775D01*
X81641066Y-62683585D01*
X81626517Y-62635622D01*
X81621000Y-62579609D01*
X81621000Y-61829391D01*
X81626517Y-61773378D01*
X81641066Y-61725415D01*
X81664686Y-61681225D01*
X81696482Y-61642482D01*
X81735225Y-61610686D01*
X81779415Y-61587066D01*
X81827378Y-61572517D01*
X81883391Y-61567000D01*
X82708609Y-61567000D01*
X82764622Y-61572517D01*
X82764622Y-61572517D01*
G37*
G36*
X86376000Y-62776000D02*
X85076000Y-62776000D01*
X85076000Y-61176000D01*
X86376000Y-61176000D01*
X86376000Y-62776000D01*
X86376000Y-62776000D01*
G37*
G36*
X89676000Y-62776000D02*
X88376000Y-62776000D01*
X88376000Y-61176000D01*
X89676000Y-61176000D01*
X89676000Y-62776000D01*
X89676000Y-62776000D01*
G37*
G36*
X75693707Y-59409597D02*
X75770836Y-59417193D01*
X75902787Y-59457220D01*
X75968763Y-59477233D01*
X76151172Y-59574733D01*
X76311054Y-59705946D01*
X76442267Y-59865828D01*
X76539767Y-60048237D01*
X76539767Y-60048238D01*
X76599807Y-60246164D01*
X76620080Y-60452000D01*
X76599807Y-60657836D01*
X76559780Y-60789787D01*
X76539767Y-60855763D01*
X76442267Y-61038172D01*
X76311054Y-61198054D01*
X76151172Y-61329267D01*
X75968763Y-61426767D01*
X75926843Y-61439483D01*
X75770836Y-61486807D01*
X75693707Y-61494403D01*
X75616580Y-61502000D01*
X75513420Y-61502000D01*
X75436293Y-61494403D01*
X75359164Y-61486807D01*
X75203157Y-61439483D01*
X75161237Y-61426767D01*
X74978828Y-61329267D01*
X74818946Y-61198054D01*
X74687733Y-61038172D01*
X74590233Y-60855763D01*
X74570220Y-60789787D01*
X74530193Y-60657836D01*
X74509920Y-60452000D01*
X74530193Y-60246164D01*
X74590233Y-60048238D01*
X74590233Y-60048237D01*
X74687733Y-59865828D01*
X74818946Y-59705946D01*
X74978828Y-59574733D01*
X75161237Y-59477233D01*
X75227213Y-59457220D01*
X75359164Y-59417193D01*
X75436293Y-59409597D01*
X75513420Y-59402000D01*
X75616580Y-59402000D01*
X75693707Y-59409597D01*
X75693707Y-59409597D01*
G37*
G36*
X92416622Y-60175517D02*
X92464585Y-60190066D01*
X92508775Y-60213686D01*
X92547518Y-60245482D01*
X92579314Y-60284225D01*
X92602934Y-60328415D01*
X92617483Y-60376378D01*
X92623000Y-60432391D01*
X92623000Y-61182609D01*
X92617483Y-61238622D01*
X92602934Y-61286585D01*
X92579314Y-61330775D01*
X92547518Y-61369518D01*
X92508775Y-61401314D01*
X92464585Y-61424934D01*
X92416622Y-61439483D01*
X92360609Y-61445000D01*
X91535391Y-61445000D01*
X91479378Y-61439483D01*
X91431415Y-61424934D01*
X91387225Y-61401314D01*
X91348482Y-61369518D01*
X91316686Y-61330775D01*
X91293066Y-61286585D01*
X91278517Y-61238622D01*
X91273000Y-61182609D01*
X91273000Y-60432391D01*
X91278517Y-60376378D01*
X91293066Y-60328415D01*
X91316686Y-60284225D01*
X91348482Y-60245482D01*
X91387225Y-60213686D01*
X91431415Y-60190066D01*
X91479378Y-60175517D01*
X91535391Y-60170000D01*
X92360609Y-60170000D01*
X92416622Y-60175517D01*
X92416622Y-60175517D01*
G37*
G36*
X83216000Y-60224000D02*
X81916000Y-60224000D01*
X81916000Y-59024000D01*
X83216000Y-59024000D01*
X83216000Y-60224000D01*
X83216000Y-60224000D01*
G37*
G36*
X85216000Y-59274000D02*
X83916000Y-59274000D01*
X83916000Y-58074000D01*
X85216000Y-58074000D01*
X85216000Y-59274000D01*
X85216000Y-59274000D01*
G37*
G36*
X107015203Y-56552893D02*
X107015206Y-56552894D01*
X107015207Y-56552894D01*
X107030773Y-56557616D01*
X107052908Y-56564330D01*
X107072856Y-56574993D01*
X107087652Y-56582901D01*
X107087653Y-56582902D01*
X107087655Y-56582903D01*
X107118106Y-56607894D01*
X107143097Y-56638345D01*
X107161670Y-56673092D01*
X107173107Y-56710797D01*
X107177573Y-56756140D01*
X107177573Y-58993860D01*
X107173107Y-59039203D01*
X107161670Y-59076908D01*
X107143097Y-59111655D01*
X107118106Y-59142106D01*
X107087655Y-59167097D01*
X107087653Y-59167098D01*
X107087652Y-59167099D01*
X107072856Y-59175007D01*
X107052908Y-59185670D01*
X107030773Y-59192384D01*
X107015207Y-59197106D01*
X107015206Y-59197106D01*
X107015203Y-59197107D01*
X106969860Y-59201573D01*
X106562140Y-59201573D01*
X106516795Y-59197107D01*
X106477285Y-59185122D01*
X106453251Y-59180342D01*
X106428747Y-59180342D01*
X106404715Y-59185122D01*
X106365205Y-59197107D01*
X106319860Y-59201573D01*
X105912140Y-59201573D01*
X105866795Y-59197107D01*
X105827285Y-59185122D01*
X105803251Y-59180342D01*
X105778747Y-59180342D01*
X105754715Y-59185122D01*
X105715205Y-59197107D01*
X105669860Y-59201573D01*
X105262140Y-59201573D01*
X105216795Y-59197107D01*
X105177285Y-59185122D01*
X105153251Y-59180342D01*
X105128747Y-59180342D01*
X105104715Y-59185122D01*
X105065205Y-59197107D01*
X105019860Y-59201573D01*
X104612140Y-59201573D01*
X104566797Y-59197107D01*
X104566794Y-59197106D01*
X104566793Y-59197106D01*
X104551227Y-59192384D01*
X104529092Y-59185670D01*
X104509144Y-59175007D01*
X104494348Y-59167099D01*
X104494347Y-59167098D01*
X104494345Y-59167097D01*
X104463894Y-59142106D01*
X104438903Y-59111655D01*
X104420330Y-59076908D01*
X104408893Y-59039203D01*
X104404427Y-58993860D01*
X104404427Y-56756140D01*
X104408893Y-56710797D01*
X104420330Y-56673092D01*
X104438903Y-56638345D01*
X104463894Y-56607894D01*
X104494345Y-56582903D01*
X104494347Y-56582902D01*
X104494348Y-56582901D01*
X104509144Y-56574993D01*
X104529092Y-56564330D01*
X104551227Y-56557616D01*
X104566793Y-56552894D01*
X104566794Y-56552894D01*
X104566797Y-56552893D01*
X104612140Y-56548427D01*
X106969860Y-56548427D01*
X107015203Y-56552893D01*
X107015203Y-56552893D01*
G37*
G36*
X90753622Y-57750517D02*
X90801585Y-57765066D01*
X90845775Y-57788686D01*
X90884518Y-57820482D01*
X90916314Y-57859225D01*
X90939934Y-57903415D01*
X90954483Y-57951378D01*
X90960000Y-58007391D01*
X90960000Y-58832609D01*
X90954483Y-58888622D01*
X90939934Y-58936585D01*
X90916314Y-58980775D01*
X90884518Y-59019518D01*
X90845775Y-59051314D01*
X90801585Y-59074934D01*
X90753622Y-59089483D01*
X90697609Y-59095000D01*
X89947391Y-59095000D01*
X89891378Y-59089483D01*
X89843415Y-59074934D01*
X89799225Y-59051314D01*
X89760482Y-59019518D01*
X89728686Y-58980775D01*
X89705066Y-58936585D01*
X89690517Y-58888622D01*
X89685000Y-58832609D01*
X89685000Y-58007391D01*
X89690517Y-57951378D01*
X89705066Y-57903415D01*
X89728686Y-57859225D01*
X89760482Y-57820482D01*
X89799225Y-57788686D01*
X89843415Y-57765066D01*
X89891378Y-57750517D01*
X89947391Y-57745000D01*
X90697609Y-57745000D01*
X90753622Y-57750517D01*
X90753622Y-57750517D01*
G37*
G36*
X89178622Y-57750517D02*
X89226585Y-57765066D01*
X89270775Y-57788686D01*
X89309518Y-57820482D01*
X89341314Y-57859225D01*
X89364934Y-57903415D01*
X89379483Y-57951378D01*
X89385000Y-58007391D01*
X89385000Y-58832609D01*
X89379483Y-58888622D01*
X89364934Y-58936585D01*
X89341314Y-58980775D01*
X89309518Y-59019518D01*
X89270775Y-59051314D01*
X89226585Y-59074934D01*
X89178622Y-59089483D01*
X89122609Y-59095000D01*
X88372391Y-59095000D01*
X88316378Y-59089483D01*
X88268415Y-59074934D01*
X88224225Y-59051314D01*
X88185482Y-59019518D01*
X88153686Y-58980775D01*
X88130066Y-58936585D01*
X88115517Y-58888622D01*
X88110000Y-58832609D01*
X88110000Y-58007391D01*
X88115517Y-57951378D01*
X88130066Y-57903415D01*
X88153686Y-57859225D01*
X88185482Y-57820482D01*
X88224225Y-57788686D01*
X88268415Y-57765066D01*
X88316378Y-57750517D01*
X88372391Y-57745000D01*
X89122609Y-57745000D01*
X89178622Y-57750517D01*
X89178622Y-57750517D01*
G37*
G36*
X76615000Y-58962000D02*
X74515000Y-58962000D01*
X74515000Y-56862000D01*
X76615000Y-56862000D01*
X76615000Y-58962000D01*
X76615000Y-58962000D01*
G37*
G36*
X98070000Y-58927000D02*
X96870000Y-58927000D01*
X96870000Y-57627000D01*
X98070000Y-57627000D01*
X98070000Y-58927000D01*
X98070000Y-58927000D01*
G37*
G36*
X96170000Y-58927000D02*
X94970000Y-58927000D01*
X94970000Y-57627000D01*
X96170000Y-57627000D01*
X96170000Y-58927000D01*
X96170000Y-58927000D01*
G37*
G36*
X83216000Y-58324000D02*
X81916000Y-58324000D01*
X81916000Y-57124000D01*
X83216000Y-57124000D01*
X83216000Y-58324000D01*
X83216000Y-58324000D01*
G37*
G36*
X100735622Y-56226517D02*
X100783585Y-56241066D01*
X100827775Y-56264686D01*
X100866518Y-56296482D01*
X100898314Y-56335225D01*
X100921934Y-56379415D01*
X100936483Y-56427378D01*
X100942000Y-56483391D01*
X100942000Y-57308609D01*
X100936483Y-57364622D01*
X100921934Y-57412585D01*
X100898314Y-57456775D01*
X100866518Y-57495518D01*
X100827775Y-57527314D01*
X100783585Y-57550934D01*
X100735622Y-57565483D01*
X100679609Y-57571000D01*
X99929391Y-57571000D01*
X99873378Y-57565483D01*
X99825415Y-57550934D01*
X99781225Y-57527314D01*
X99742482Y-57495518D01*
X99710686Y-57456775D01*
X99687066Y-57412585D01*
X99672517Y-57364622D01*
X99667000Y-57308609D01*
X99667000Y-56483391D01*
X99672517Y-56427378D01*
X99687066Y-56379415D01*
X99710686Y-56335225D01*
X99742482Y-56296482D01*
X99781225Y-56264686D01*
X99825415Y-56241066D01*
X99873378Y-56226517D01*
X99929391Y-56221000D01*
X100679609Y-56221000D01*
X100735622Y-56226517D01*
X100735622Y-56226517D01*
G37*
G36*
X102310622Y-56226517D02*
X102358585Y-56241066D01*
X102402775Y-56264686D01*
X102441518Y-56296482D01*
X102473314Y-56335225D01*
X102496934Y-56379415D01*
X102511483Y-56427378D01*
X102517000Y-56483391D01*
X102517000Y-57308609D01*
X102511483Y-57364622D01*
X102496934Y-57412585D01*
X102473314Y-57456775D01*
X102441518Y-57495518D01*
X102402775Y-57527314D01*
X102358585Y-57550934D01*
X102310622Y-57565483D01*
X102254609Y-57571000D01*
X101504391Y-57571000D01*
X101448378Y-57565483D01*
X101400415Y-57550934D01*
X101356225Y-57527314D01*
X101317482Y-57495518D01*
X101285686Y-57456775D01*
X101262066Y-57412585D01*
X101247517Y-57364622D01*
X101242000Y-57308609D01*
X101242000Y-56483391D01*
X101247517Y-56427378D01*
X101262066Y-56379415D01*
X101285686Y-56335225D01*
X101317482Y-56296482D01*
X101356225Y-56264686D01*
X101400415Y-56241066D01*
X101448378Y-56226517D01*
X101504391Y-56221000D01*
X102254609Y-56221000D01*
X102310622Y-56226517D01*
X102310622Y-56226517D01*
G37*
G36*
X97120000Y-56927000D02*
X95920000Y-56927000D01*
X95920000Y-55627000D01*
X97120000Y-55627000D01*
X97120000Y-56927000D01*
X97120000Y-56927000D01*
G37*
G36*
X91212000Y-56895000D02*
X90012000Y-56895000D01*
X90012000Y-55595000D01*
X91212000Y-55595000D01*
X91212000Y-56895000D01*
X91212000Y-56895000D01*
G37*
G36*
X89312000Y-56895000D02*
X88112000Y-56895000D01*
X88112000Y-55595000D01*
X89312000Y-55595000D01*
X89312000Y-56895000D01*
X89312000Y-56895000D01*
G37*
G36*
X107176000Y-56200000D02*
X104406000Y-56200000D01*
X104406000Y-55100000D01*
X107176000Y-55100000D01*
X107176000Y-56200000D01*
X107176000Y-56200000D01*
G37*
G36*
X82022628Y-54301493D02*
X82070354Y-54315970D01*
X82114336Y-54339479D01*
X82152885Y-54371115D01*
X82184521Y-54409664D01*
X82208030Y-54453646D01*
X82222507Y-54501372D01*
X82228000Y-54557141D01*
X82228000Y-55684859D01*
X82222507Y-55740628D01*
X82208030Y-55788354D01*
X82184521Y-55832336D01*
X82152885Y-55870885D01*
X82114336Y-55902521D01*
X82070354Y-55926030D01*
X82022628Y-55940507D01*
X81966859Y-55946000D01*
X80339141Y-55946000D01*
X80283372Y-55940507D01*
X80235646Y-55926030D01*
X80191664Y-55902521D01*
X80153115Y-55870885D01*
X80121479Y-55832336D01*
X80097970Y-55788354D01*
X80083493Y-55740628D01*
X80078000Y-55684859D01*
X80078000Y-54557141D01*
X80083493Y-54501372D01*
X80097970Y-54453646D01*
X80121479Y-54409664D01*
X80153115Y-54371115D01*
X80191664Y-54339479D01*
X80235646Y-54315970D01*
X80283372Y-54301493D01*
X80339141Y-54296000D01*
X81966859Y-54296000D01*
X82022628Y-54301493D01*
X82022628Y-54301493D01*
G37*
G36*
X90262000Y-54895000D02*
X89062000Y-54895000D01*
X89062000Y-53595000D01*
X90262000Y-53595000D01*
X90262000Y-54895000D01*
X90262000Y-54895000D01*
G37*
G36*
X76465000Y-54749000D02*
X75005000Y-54749000D01*
X75005000Y-51799000D01*
X76465000Y-51799000D01*
X76465000Y-54749000D01*
X76465000Y-54749000D01*
G37*
G36*
X78665000Y-54749000D02*
X77205000Y-54749000D01*
X77205000Y-53699000D01*
X78665000Y-53699000D01*
X78665000Y-54749000D01*
X78665000Y-54749000D01*
G37*
G36*
X100583122Y-53178517D02*
X100631085Y-53193066D01*
X100675275Y-53216686D01*
X100714018Y-53248482D01*
X100745814Y-53287225D01*
X100769434Y-53331415D01*
X100783983Y-53379378D01*
X100789500Y-53435391D01*
X100789500Y-54260609D01*
X100783983Y-54316622D01*
X100769434Y-54364585D01*
X100745814Y-54408775D01*
X100714018Y-54447518D01*
X100675275Y-54479314D01*
X100631085Y-54502934D01*
X100583122Y-54517483D01*
X100527109Y-54523000D01*
X99776891Y-54523000D01*
X99720878Y-54517483D01*
X99672915Y-54502934D01*
X99628725Y-54479314D01*
X99589982Y-54447518D01*
X99558186Y-54408775D01*
X99534566Y-54364585D01*
X99520017Y-54316622D01*
X99514500Y-54260609D01*
X99514500Y-53435391D01*
X99520017Y-53379378D01*
X99534566Y-53331415D01*
X99558186Y-53287225D01*
X99589982Y-53248482D01*
X99628725Y-53216686D01*
X99672915Y-53193066D01*
X99720878Y-53178517D01*
X99776891Y-53173000D01*
X100527109Y-53173000D01*
X100583122Y-53178517D01*
X100583122Y-53178517D01*
G37*
G36*
X102158122Y-53178517D02*
X102206085Y-53193066D01*
X102250275Y-53216686D01*
X102289018Y-53248482D01*
X102320814Y-53287225D01*
X102344434Y-53331415D01*
X102358983Y-53379378D01*
X102364500Y-53435391D01*
X102364500Y-54260609D01*
X102358983Y-54316622D01*
X102344434Y-54364585D01*
X102320814Y-54408775D01*
X102289018Y-54447518D01*
X102250275Y-54479314D01*
X102206085Y-54502934D01*
X102158122Y-54517483D01*
X102102109Y-54523000D01*
X101351891Y-54523000D01*
X101295878Y-54517483D01*
X101247915Y-54502934D01*
X101203725Y-54479314D01*
X101164982Y-54447518D01*
X101133186Y-54408775D01*
X101109566Y-54364585D01*
X101095017Y-54316622D01*
X101089500Y-54260609D01*
X101089500Y-53435391D01*
X101095017Y-53379378D01*
X101109566Y-53331415D01*
X101133186Y-53287225D01*
X101164982Y-53248482D01*
X101203725Y-53216686D01*
X101247915Y-53193066D01*
X101295878Y-53178517D01*
X101351891Y-53173000D01*
X102102109Y-53173000D01*
X102158122Y-53178517D01*
X102158122Y-53178517D01*
G37*
G36*
X82022628Y-51501493D02*
X82070354Y-51515970D01*
X82114336Y-51539479D01*
X82152885Y-51571115D01*
X82184521Y-51609664D01*
X82208030Y-51653646D01*
X82222507Y-51701372D01*
X82228000Y-51757141D01*
X82228000Y-52884859D01*
X82222507Y-52940628D01*
X82208030Y-52988354D01*
X82184521Y-53032336D01*
X82152885Y-53070885D01*
X82114336Y-53102521D01*
X82070354Y-53126030D01*
X82022628Y-53140507D01*
X81966859Y-53146000D01*
X80339141Y-53146000D01*
X80283372Y-53140507D01*
X80235646Y-53126030D01*
X80191664Y-53102521D01*
X80153115Y-53070885D01*
X80121479Y-53032336D01*
X80097970Y-52988354D01*
X80083493Y-52940628D01*
X80078000Y-52884859D01*
X80078000Y-51757141D01*
X80083493Y-51701372D01*
X80097970Y-51653646D01*
X80121479Y-51609664D01*
X80153115Y-51571115D01*
X80191664Y-51539479D01*
X80235646Y-51515970D01*
X80283372Y-51501493D01*
X80339141Y-51496000D01*
X81966859Y-51496000D01*
X82022628Y-51501493D01*
X82022628Y-51501493D01*
G37*
G36*
X78665000Y-52849000D02*
X77205000Y-52849000D01*
X77205000Y-51799000D01*
X78665000Y-51799000D01*
X78665000Y-52849000D01*
X78665000Y-52849000D01*
G37*
G36*
X80755325Y-48484831D02*
X80796598Y-48497351D01*
X80834629Y-48517679D01*
X80867964Y-48545036D01*
X80895321Y-48578371D01*
X80915649Y-48616402D01*
X80928169Y-48657675D01*
X80933000Y-48706726D01*
X80933000Y-50353274D01*
X80928169Y-50402325D01*
X80915649Y-50443598D01*
X80895321Y-50481629D01*
X80867964Y-50514964D01*
X80834629Y-50542321D01*
X80796598Y-50562649D01*
X80755325Y-50575169D01*
X80706274Y-50580000D01*
X79059726Y-50580000D01*
X79010675Y-50575169D01*
X78969402Y-50562649D01*
X78931371Y-50542321D01*
X78898036Y-50514964D01*
X78870679Y-50481629D01*
X78850351Y-50443598D01*
X78837831Y-50402325D01*
X78833000Y-50353274D01*
X78833000Y-48706726D01*
X78837831Y-48657675D01*
X78850351Y-48616402D01*
X78870679Y-48578371D01*
X78898036Y-48545036D01*
X78931371Y-48517679D01*
X78969402Y-48497351D01*
X79010675Y-48484831D01*
X79059726Y-48480000D01*
X80706274Y-48480000D01*
X80755325Y-48484831D01*
X80755325Y-48484831D01*
G37*
G36*
X82508888Y-48484470D02*
X82689274Y-48520350D01*
X82880362Y-48599502D01*
X83052336Y-48714411D01*
X83198589Y-48860664D01*
X83313498Y-49032638D01*
X83392650Y-49223726D01*
X83433000Y-49426584D01*
X83433000Y-49633416D01*
X83392650Y-49836274D01*
X83313498Y-50027362D01*
X83198589Y-50199336D01*
X83052336Y-50345589D01*
X82880362Y-50460498D01*
X82689274Y-50539650D01*
X82516249Y-50574066D01*
X82486417Y-50580000D01*
X82279583Y-50580000D01*
X82249751Y-50574066D01*
X82076726Y-50539650D01*
X81885638Y-50460498D01*
X81713664Y-50345589D01*
X81567411Y-50199336D01*
X81452502Y-50027362D01*
X81373350Y-49836274D01*
X81333000Y-49633416D01*
X81333000Y-49426584D01*
X81373350Y-49223726D01*
X81452502Y-49032638D01*
X81567411Y-48860664D01*
X81713664Y-48714411D01*
X81885638Y-48599502D01*
X82076726Y-48520350D01*
X82257112Y-48484470D01*
X82279583Y-48480000D01*
X82486417Y-48480000D01*
X82508888Y-48484470D01*
X82508888Y-48484470D01*
G37*
G36*
X92640000Y-50476000D02*
X90240000Y-50476000D01*
X90240000Y-48076000D01*
X92640000Y-48076000D01*
X92640000Y-50476000D01*
X92640000Y-50476000D01*
G37*
G36*
X104832000Y-50476000D02*
X102432000Y-50476000D01*
X102432000Y-48076000D01*
X104832000Y-48076000D01*
X104832000Y-50476000D01*
X104832000Y-50476000D01*
G37*
G36*
X80008888Y-45984470D02*
X80189274Y-46020350D01*
X80380362Y-46099502D01*
X80552336Y-46214411D01*
X80698589Y-46360664D01*
X80813498Y-46532638D01*
X80892650Y-46723726D01*
X80933000Y-46926584D01*
X80933000Y-47133416D01*
X80892650Y-47336274D01*
X80813498Y-47527362D01*
X80698589Y-47699336D01*
X80552336Y-47845589D01*
X80380362Y-47960498D01*
X80189274Y-48039650D01*
X80008888Y-48075530D01*
X79986417Y-48080000D01*
X79779583Y-48080000D01*
X79757112Y-48075530D01*
X79576726Y-48039650D01*
X79385638Y-47960498D01*
X79213664Y-47845589D01*
X79067411Y-47699336D01*
X78952502Y-47527362D01*
X78873350Y-47336274D01*
X78833000Y-47133416D01*
X78833000Y-46926584D01*
X78873350Y-46723726D01*
X78952502Y-46532638D01*
X79067411Y-46360664D01*
X79213664Y-46214411D01*
X79385638Y-46099502D01*
X79576726Y-46020350D01*
X79757112Y-45984470D01*
X79779583Y-45980000D01*
X79986417Y-45980000D01*
X80008888Y-45984470D01*
X80008888Y-45984470D01*
G37*
G36*
X82508888Y-45984470D02*
X82689274Y-46020350D01*
X82880362Y-46099502D01*
X83052336Y-46214411D01*
X83198589Y-46360664D01*
X83313498Y-46532638D01*
X83392650Y-46723726D01*
X83433000Y-46926584D01*
X83433000Y-47133416D01*
X83392650Y-47336274D01*
X83313498Y-47527362D01*
X83198589Y-47699336D01*
X83052336Y-47845589D01*
X82880362Y-47960498D01*
X82689274Y-48039650D01*
X82508888Y-48075530D01*
X82486417Y-48080000D01*
X82279583Y-48080000D01*
X82257112Y-48075530D01*
X82076726Y-48039650D01*
X81885638Y-47960498D01*
X81713664Y-47845589D01*
X81567411Y-47699336D01*
X81452502Y-47527362D01*
X81373350Y-47336274D01*
X81333000Y-47133416D01*
X81333000Y-46926584D01*
X81373350Y-46723726D01*
X81452502Y-46532638D01*
X81567411Y-46360664D01*
X81713664Y-46214411D01*
X81885638Y-46099502D01*
X82076726Y-46020350D01*
X82257112Y-45984470D01*
X82279583Y-45980000D01*
X82486417Y-45980000D01*
X82508888Y-45984470D01*
X82508888Y-45984470D01*
G37*
G36*
X103982026Y-43122115D02*
X104200412Y-43212573D01*
X104396958Y-43343901D01*
X104564099Y-43511042D01*
X104695427Y-43707588D01*
X104785885Y-43925974D01*
X104832000Y-44157809D01*
X104832000Y-44394191D01*
X104785885Y-44626026D01*
X104695427Y-44844412D01*
X104564099Y-45040958D01*
X104396958Y-45208099D01*
X104200412Y-45339427D01*
X103982026Y-45429885D01*
X103750191Y-45476000D01*
X103513809Y-45476000D01*
X103281974Y-45429885D01*
X103063588Y-45339427D01*
X102867042Y-45208099D01*
X102699901Y-45040958D01*
X102568573Y-44844412D01*
X102478115Y-44626026D01*
X102432000Y-44394191D01*
X102432000Y-44157809D01*
X102478115Y-43925974D01*
X102568573Y-43707588D01*
X102699901Y-43511042D01*
X102867042Y-43343901D01*
X103063588Y-43212573D01*
X103281974Y-43122115D01*
X103513809Y-43076000D01*
X103750191Y-43076000D01*
X103982026Y-43122115D01*
X103982026Y-43122115D01*
G37*
G36*
X91790026Y-43122115D02*
X92008412Y-43212573D01*
X92204958Y-43343901D01*
X92372099Y-43511042D01*
X92503427Y-43707588D01*
X92593885Y-43925974D01*
X92640000Y-44157809D01*
X92640000Y-44394191D01*
X92593885Y-44626026D01*
X92503427Y-44844412D01*
X92372099Y-45040958D01*
X92204958Y-45208099D01*
X92008412Y-45339427D01*
X91790026Y-45429885D01*
X91558191Y-45476000D01*
X91321809Y-45476000D01*
X91089974Y-45429885D01*
X90871588Y-45339427D01*
X90675042Y-45208099D01*
X90507901Y-45040958D01*
X90376573Y-44844412D01*
X90286115Y-44626026D01*
X90240000Y-44394191D01*
X90240000Y-44157809D01*
X90286115Y-43925974D01*
X90376573Y-43707588D01*
X90507901Y-43511042D01*
X90675042Y-43343901D01*
X90871588Y-43212573D01*
X91089974Y-43122115D01*
X91321809Y-43076000D01*
X91558191Y-43076000D01*
X91790026Y-43122115D01*
X91790026Y-43122115D01*
G37*
G36*
X82508888Y-38804470D02*
X82689274Y-38840350D01*
X82880362Y-38919502D01*
X83052336Y-39034411D01*
X83198589Y-39180664D01*
X83313498Y-39352638D01*
X83392650Y-39543726D01*
X83433000Y-39746584D01*
X83433000Y-39953416D01*
X83392650Y-40156274D01*
X83313498Y-40347362D01*
X83198589Y-40519336D01*
X83052336Y-40665589D01*
X82880362Y-40780498D01*
X82689274Y-40859650D01*
X82508888Y-40895530D01*
X82486417Y-40900000D01*
X82279583Y-40900000D01*
X82257112Y-40895530D01*
X82076726Y-40859650D01*
X81885638Y-40780498D01*
X81713664Y-40665589D01*
X81567411Y-40519336D01*
X81452502Y-40347362D01*
X81373350Y-40156274D01*
X81333000Y-39953416D01*
X81333000Y-39746584D01*
X81373350Y-39543726D01*
X81452502Y-39352638D01*
X81567411Y-39180664D01*
X81713664Y-39034411D01*
X81885638Y-38919502D01*
X82076726Y-38840350D01*
X82257112Y-38804470D01*
X82279583Y-38800000D01*
X82486417Y-38800000D01*
X82508888Y-38804470D01*
X82508888Y-38804470D01*
G37*
G36*
X80008888Y-38804470D02*
X80189274Y-38840350D01*
X80380362Y-38919502D01*
X80552336Y-39034411D01*
X80698589Y-39180664D01*
X80813498Y-39352638D01*
X80892650Y-39543726D01*
X80933000Y-39746584D01*
X80933000Y-39953416D01*
X80892650Y-40156274D01*
X80813498Y-40347362D01*
X80698589Y-40519336D01*
X80552336Y-40665589D01*
X80380362Y-40780498D01*
X80189274Y-40859650D01*
X80008888Y-40895530D01*
X79986417Y-40900000D01*
X79779583Y-40900000D01*
X79757112Y-40895530D01*
X79576726Y-40859650D01*
X79385638Y-40780498D01*
X79213664Y-40665589D01*
X79067411Y-40519336D01*
X78952502Y-40347362D01*
X78873350Y-40156274D01*
X78833000Y-39953416D01*
X78833000Y-39746584D01*
X78873350Y-39543726D01*
X78952502Y-39352638D01*
X79067411Y-39180664D01*
X79213664Y-39034411D01*
X79385638Y-38919502D01*
X79576726Y-38840350D01*
X79757112Y-38804470D01*
X79779583Y-38800000D01*
X79986417Y-38800000D01*
X80008888Y-38804470D01*
X80008888Y-38804470D01*
G37*
G36*
X104251628Y-38046493D02*
X104299354Y-38060970D01*
X104343336Y-38084479D01*
X104381885Y-38116115D01*
X104413521Y-38154664D01*
X104437030Y-38198646D01*
X104451507Y-38246372D01*
X104457000Y-38302141D01*
X104457000Y-39929859D01*
X104451507Y-39985628D01*
X104437030Y-40033354D01*
X104413521Y-40077336D01*
X104381885Y-40115885D01*
X104343336Y-40147521D01*
X104299354Y-40171030D01*
X104251628Y-40185507D01*
X104195859Y-40191000D01*
X103068141Y-40191000D01*
X103012372Y-40185507D01*
X102964646Y-40171030D01*
X102920664Y-40147521D01*
X102882115Y-40115885D01*
X102850479Y-40077336D01*
X102826970Y-40033354D01*
X102812493Y-39985628D01*
X102807000Y-39929859D01*
X102807000Y-38302141D01*
X102812493Y-38246372D01*
X102826970Y-38198646D01*
X102850479Y-38154664D01*
X102882115Y-38116115D01*
X102920664Y-38084479D01*
X102964646Y-38060970D01*
X103012372Y-38046493D01*
X103068141Y-38041000D01*
X104195859Y-38041000D01*
X104251628Y-38046493D01*
X104251628Y-38046493D01*
G37*
G36*
X101451628Y-38046493D02*
X101499354Y-38060970D01*
X101543336Y-38084479D01*
X101581885Y-38116115D01*
X101613521Y-38154664D01*
X101637030Y-38198646D01*
X101651507Y-38246372D01*
X101657000Y-38302141D01*
X101657000Y-39929859D01*
X101651507Y-39985628D01*
X101637030Y-40033354D01*
X101613521Y-40077336D01*
X101581885Y-40115885D01*
X101543336Y-40147521D01*
X101499354Y-40171030D01*
X101451628Y-40185507D01*
X101395859Y-40191000D01*
X100268141Y-40191000D01*
X100212372Y-40185507D01*
X100164646Y-40171030D01*
X100120664Y-40147521D01*
X100082115Y-40115885D01*
X100050479Y-40077336D01*
X100026970Y-40033354D01*
X100012493Y-39985628D01*
X100007000Y-39929859D01*
X100007000Y-38302141D01*
X100012493Y-38246372D01*
X100026970Y-38198646D01*
X100050479Y-38154664D01*
X100082115Y-38116115D01*
X100120664Y-38084479D01*
X100164646Y-38060970D01*
X100212372Y-38046493D01*
X100268141Y-38041000D01*
X101395859Y-38041000D01*
X101451628Y-38046493D01*
X101451628Y-38046493D01*
G37*
G36*
X108268327Y-36187521D02*
X108533791Y-36240325D01*
X108866830Y-36378275D01*
X109166557Y-36578546D01*
X109421454Y-36833443D01*
X109621725Y-37133170D01*
X109759675Y-37466209D01*
X109812479Y-37731673D01*
X109830000Y-37819759D01*
X109830000Y-38180241D01*
X109812479Y-38268327D01*
X109759675Y-38533791D01*
X109621725Y-38866830D01*
X109421454Y-39166557D01*
X109166557Y-39421454D01*
X108866830Y-39621725D01*
X108533791Y-39759675D01*
X108268327Y-39812479D01*
X108180241Y-39830000D01*
X107819759Y-39830000D01*
X107731673Y-39812479D01*
X107466209Y-39759675D01*
X107133170Y-39621725D01*
X106833443Y-39421454D01*
X106578546Y-39166557D01*
X106378275Y-38866830D01*
X106240325Y-38533791D01*
X106187521Y-38268327D01*
X106170000Y-38180241D01*
X106170000Y-37819759D01*
X106187521Y-37731673D01*
X106240325Y-37466209D01*
X106378275Y-37133170D01*
X106578546Y-36833443D01*
X106833443Y-36578546D01*
X107133170Y-36378275D01*
X107466209Y-36240325D01*
X107731673Y-36187521D01*
X107819759Y-36170000D01*
X108180241Y-36170000D01*
X108268327Y-36187521D01*
X108268327Y-36187521D01*
G37*
G36*
X75268327Y-36187521D02*
X75533791Y-36240325D01*
X75866830Y-36378275D01*
X76166557Y-36578546D01*
X76421454Y-36833443D01*
X76621725Y-37133170D01*
X76759675Y-37466209D01*
X76812479Y-37731673D01*
X76830000Y-37819759D01*
X76830000Y-38180241D01*
X76812479Y-38268327D01*
X76759675Y-38533791D01*
X76621725Y-38866830D01*
X76421454Y-39166557D01*
X76166557Y-39421454D01*
X75866830Y-39621725D01*
X75533791Y-39759675D01*
X75268327Y-39812479D01*
X75180241Y-39830000D01*
X74819759Y-39830000D01*
X74731673Y-39812479D01*
X74466209Y-39759675D01*
X74133170Y-39621725D01*
X73833443Y-39421454D01*
X73578546Y-39166557D01*
X73378275Y-38866830D01*
X73240325Y-38533791D01*
X73187521Y-38268327D01*
X73170000Y-38180241D01*
X73170000Y-37819759D01*
X73187521Y-37731673D01*
X73240325Y-37466209D01*
X73378275Y-37133170D01*
X73578546Y-36833443D01*
X73833443Y-36578546D01*
X74133170Y-36378275D01*
X74466209Y-36240325D01*
X74731673Y-36187521D01*
X74819759Y-36170000D01*
X75180241Y-36170000D01*
X75268327Y-36187521D01*
X75268327Y-36187521D01*
G37*
G36*
X96902707Y-37438596D02*
X96979836Y-37446193D01*
X97111787Y-37486220D01*
X97177763Y-37506233D01*
X97360172Y-37603733D01*
X97520054Y-37734946D01*
X97651267Y-37894828D01*
X97748767Y-38077237D01*
X97748767Y-38077238D01*
X97808807Y-38275164D01*
X97829080Y-38481000D01*
X97808807Y-38686836D01*
X97774479Y-38800000D01*
X97748767Y-38884763D01*
X97651267Y-39067172D01*
X97520054Y-39227054D01*
X97360172Y-39358267D01*
X97177763Y-39455767D01*
X97111787Y-39475780D01*
X96979836Y-39515807D01*
X96902707Y-39523403D01*
X96825580Y-39531000D01*
X96722420Y-39531000D01*
X96645293Y-39523403D01*
X96568164Y-39515807D01*
X96436213Y-39475780D01*
X96370237Y-39455767D01*
X96187828Y-39358267D01*
X96027946Y-39227054D01*
X95896733Y-39067172D01*
X95799233Y-38884763D01*
X95773521Y-38800000D01*
X95739193Y-38686836D01*
X95718920Y-38481000D01*
X95739193Y-38275164D01*
X95799233Y-38077238D01*
X95799233Y-38077237D01*
X95896733Y-37894828D01*
X96027946Y-37734946D01*
X96187828Y-37603733D01*
X96370237Y-37506233D01*
X96436213Y-37486220D01*
X96568164Y-37446193D01*
X96645293Y-37438596D01*
X96722420Y-37431000D01*
X96825580Y-37431000D01*
X96902707Y-37438596D01*
X96902707Y-37438596D01*
G37*
G36*
X94362707Y-37438596D02*
X94439836Y-37446193D01*
X94571787Y-37486220D01*
X94637763Y-37506233D01*
X94820172Y-37603733D01*
X94980054Y-37734946D01*
X95111267Y-37894828D01*
X95208767Y-38077237D01*
X95208767Y-38077238D01*
X95268807Y-38275164D01*
X95289080Y-38481000D01*
X95268807Y-38686836D01*
X95234479Y-38800000D01*
X95208767Y-38884763D01*
X95111267Y-39067172D01*
X94980054Y-39227054D01*
X94820172Y-39358267D01*
X94637763Y-39455767D01*
X94571787Y-39475780D01*
X94439836Y-39515807D01*
X94362707Y-39523403D01*
X94285580Y-39531000D01*
X94182420Y-39531000D01*
X94105293Y-39523403D01*
X94028164Y-39515807D01*
X93896213Y-39475780D01*
X93830237Y-39455767D01*
X93647828Y-39358267D01*
X93487946Y-39227054D01*
X93356733Y-39067172D01*
X93259233Y-38884763D01*
X93233521Y-38800000D01*
X93199193Y-38686836D01*
X93178920Y-38481000D01*
X93199193Y-38275164D01*
X93259233Y-38077238D01*
X93259233Y-38077237D01*
X93356733Y-37894828D01*
X93487946Y-37734946D01*
X93647828Y-37603733D01*
X93830237Y-37506233D01*
X93896213Y-37486220D01*
X94028164Y-37446193D01*
X94105293Y-37438596D01*
X94182420Y-37431000D01*
X94285580Y-37431000D01*
X94362707Y-37438596D01*
X94362707Y-37438596D01*
G37*
G36*
X92744000Y-39531000D02*
X90644000Y-39531000D01*
X90644000Y-37431000D01*
X92744000Y-37431000D01*
X92744000Y-39531000D01*
X92744000Y-39531000D01*
G37*
M02*
