M48
;DRILL file {KiCad (5.0.2)-1} date 3/11/2020 11:41:11 AM
;FORMAT={-:-/ absolute / inch / decimal}
FMAT,2
INCH,TZ
T1C0.0236
T2C0.0295
T3C0.0394
T4C0.0472
T5C0.1283
%
G90
G05
T1
X2.9Y-2.52
X2.92Y-2.06
X2.92Y-2.16
X3.036Y-2.6
X3.08Y-2.38
X3.08Y-3.02
X3.12Y-2.6
X3.195Y-2.0599
X3.3Y-2.58
X3.36Y-2.04
X3.4495Y-2.9634
X3.46Y-2.86
X3.5558Y-3.0925
X3.56Y-2.88
X3.68Y-2.28
X3.7Y-2.4383
X3.7607Y-2.3593
X3.78Y-2.8
X3.8374Y-2.3381
X3.88Y-2.24
X3.9Y-2.36
X3.9448Y-1.515
X3.945Y-1.565
X3.98Y-1.6781
X3.98Y-2.36
X4.Y-2.64
X4.Y-3.04
X4.0581Y-1.6
X4.12Y-1.6
X4.14Y-2.88
X4.16Y-2.94
T2
X3.1647Y-3.26
X3.2238Y-3.26
X3.2828Y-3.26
X3.3419Y-3.26
X3.4009Y-3.26
X3.46Y-3.26
X3.7047Y-3.26
X3.7638Y-3.26
X3.8228Y-3.26
X3.8819Y-3.26
X3.9409Y-3.26
X4.Y-3.26
T3
X3.61Y-1.515
X3.71Y-1.515
X3.81Y-1.515
X4.08Y-1.7431
X4.08Y-1.94
X2.98Y-2.78
X2.98Y-2.88
X2.98Y-2.98
X2.98Y-3.08
X2.975Y-2.28
X2.975Y-2.38
X2.975Y-2.48
X2.975Y-2.58
X3.6Y-1.7431
X3.6Y-1.94
T4
X4.0516Y-2.4966
X4.0516Y-2.595
X4.15Y-2.4966
X4.15Y-2.595
X3.145Y-1.8516
X3.145Y-1.95
X3.2434Y-1.8516
X3.2434Y-1.95
T5
X2.9528Y-1.4961
X2.9528Y-3.2677
X4.252Y-1.4961
X4.252Y-3.2677
T0
M30
