G04 #@! TF.GenerationSoftware,KiCad,Pcbnew,(5.0.2)-1*
G04 #@! TF.CreationDate,2020-03-11T11:41:09-07:00*
G04 #@! TF.ProjectId,powerControl,706f7765-7243-46f6-9e74-726f6c2e6b69,rev?*
G04 #@! TF.SameCoordinates,Original*
G04 #@! TF.FileFunction,Legend,Top*
G04 #@! TF.FilePolarity,Positive*
%FSLAX46Y46*%
G04 Gerber Fmt 4.6, Leading zero omitted, Abs format (unit mm)*
G04 Created by KiCad (PCBNEW (5.0.2)-1) date 3/11/2020 11:41:09 AM*
%MOMM*%
%LPD*%
G01*
G04 APERTURE LIST*
%ADD10C,0.200000*%
%ADD11C,0.300000*%
%ADD12C,0.120000*%
%ADD13C,0.127000*%
%ADD14C,0.150000*%
%ADD15C,0.074930*%
%ADD16C,0.076200*%
%ADD17C,0.100000*%
G04 APERTURE END LIST*
D10*
X103727380Y-69667380D02*
X103251190Y-69667380D01*
X103251190Y-68667380D01*
X104060714Y-69143571D02*
X104394047Y-69143571D01*
X104536904Y-69667380D02*
X104060714Y-69667380D01*
X104060714Y-68667380D01*
X104536904Y-68667380D01*
X104965476Y-69667380D02*
X104965476Y-68667380D01*
X105203571Y-68667380D01*
X105346428Y-68715000D01*
X105441666Y-68810238D01*
X105489285Y-68905476D01*
X105536904Y-69095952D01*
X105536904Y-69238809D01*
X105489285Y-69429285D01*
X105441666Y-69524523D01*
X105346428Y-69619761D01*
X105203571Y-69667380D01*
X104965476Y-69667380D01*
X105917857Y-69619761D02*
X106013095Y-69667380D01*
X106203571Y-69667380D01*
X106298809Y-69619761D01*
X106346428Y-69524523D01*
X106346428Y-69476904D01*
X106298809Y-69381666D01*
X106203571Y-69334047D01*
X106060714Y-69334047D01*
X105965476Y-69286428D01*
X105917857Y-69191190D01*
X105917857Y-69143571D01*
X105965476Y-69048333D01*
X106060714Y-69000714D01*
X106203571Y-69000714D01*
X106298809Y-69048333D01*
D11*
X75584857Y-44858571D02*
X75656285Y-44644285D01*
X75727714Y-44572857D01*
X75870571Y-44501428D01*
X76084857Y-44501428D01*
X76227714Y-44572857D01*
X76299142Y-44644285D01*
X76370571Y-44787142D01*
X76370571Y-45358571D01*
X74870571Y-45358571D01*
X74870571Y-44858571D01*
X74942000Y-44715714D01*
X75013428Y-44644285D01*
X75156285Y-44572857D01*
X75299142Y-44572857D01*
X75442000Y-44644285D01*
X75513428Y-44715714D01*
X75584857Y-44858571D01*
X75584857Y-45358571D01*
X75942000Y-43930000D02*
X75942000Y-43215714D01*
X76370571Y-44072857D02*
X74870571Y-43572857D01*
X76370571Y-43072857D01*
X74870571Y-42787142D02*
X74870571Y-41930000D01*
X76370571Y-42358571D02*
X74870571Y-42358571D01*
X74870571Y-41644285D02*
X74870571Y-40787142D01*
X76370571Y-41215714D02*
X74870571Y-41215714D01*
X88304571Y-37929428D02*
X89161714Y-37929428D01*
X88733142Y-37929428D02*
X88733142Y-39429428D01*
X88876000Y-39215142D01*
X89018857Y-39072285D01*
X89161714Y-39000857D01*
X87733142Y-39286571D02*
X87661714Y-39358000D01*
X87518857Y-39429428D01*
X87161714Y-39429428D01*
X87018857Y-39358000D01*
X86947428Y-39286571D01*
X86876000Y-39143714D01*
X86876000Y-39000857D01*
X86947428Y-38786571D01*
X87804571Y-37929428D01*
X86876000Y-37929428D01*
X86447428Y-39429428D02*
X85947428Y-37929428D01*
X85447428Y-39429428D01*
X79561428Y-72461714D02*
X79561428Y-73390285D01*
X78990000Y-72890285D01*
X78990000Y-73104571D01*
X78918571Y-73247428D01*
X78847142Y-73318857D01*
X78704285Y-73390285D01*
X78347142Y-73390285D01*
X78204285Y-73318857D01*
X78132857Y-73247428D01*
X78061428Y-73104571D01*
X78061428Y-72676000D01*
X78132857Y-72533142D01*
X78204285Y-72461714D01*
X78204285Y-74033142D02*
X78132857Y-74104571D01*
X78061428Y-74033142D01*
X78132857Y-73961714D01*
X78204285Y-74033142D01*
X78061428Y-74033142D01*
X79561428Y-74604571D02*
X79561428Y-75533142D01*
X78990000Y-75033142D01*
X78990000Y-75247428D01*
X78918571Y-75390285D01*
X78847142Y-75461714D01*
X78704285Y-75533142D01*
X78347142Y-75533142D01*
X78204285Y-75461714D01*
X78132857Y-75390285D01*
X78061428Y-75247428D01*
X78061428Y-74818857D01*
X78132857Y-74676000D01*
X78204285Y-74604571D01*
X79561428Y-75961714D02*
X78061428Y-76461714D01*
X79561428Y-76961714D01*
D10*
X92400380Y-83851619D02*
X92400380Y-84327809D01*
X91400380Y-84327809D01*
X91876571Y-83518285D02*
X91876571Y-83184952D01*
X92400380Y-83042095D02*
X92400380Y-83518285D01*
X91400380Y-83518285D01*
X91400380Y-83042095D01*
X92400380Y-82613523D02*
X91400380Y-82613523D01*
X91400380Y-82375428D01*
X91448000Y-82232571D01*
X91543238Y-82137333D01*
X91638476Y-82089714D01*
X91828952Y-82042095D01*
X91971809Y-82042095D01*
X92162285Y-82089714D01*
X92257523Y-82137333D01*
X92352761Y-82232571D01*
X92400380Y-82375428D01*
X92400380Y-82613523D01*
X92352761Y-81661142D02*
X92400380Y-81565904D01*
X92400380Y-81375428D01*
X92352761Y-81280190D01*
X92257523Y-81232571D01*
X92209904Y-81232571D01*
X92114666Y-81280190D01*
X92067047Y-81375428D01*
X92067047Y-81518285D01*
X92019428Y-81613523D01*
X91924190Y-81661142D01*
X91876571Y-81661142D01*
X91781333Y-81613523D01*
X91733714Y-81518285D01*
X91733714Y-81375428D01*
X91781333Y-81280190D01*
D11*
X79180428Y-60674285D02*
X79180428Y-59960000D01*
X78466142Y-59888571D01*
X78537571Y-59960000D01*
X78609000Y-60102857D01*
X78609000Y-60460000D01*
X78537571Y-60602857D01*
X78466142Y-60674285D01*
X78323285Y-60745714D01*
X77966142Y-60745714D01*
X77823285Y-60674285D01*
X77751857Y-60602857D01*
X77680428Y-60460000D01*
X77680428Y-60102857D01*
X77751857Y-59960000D01*
X77823285Y-59888571D01*
X79180428Y-61174285D02*
X77680428Y-61674285D01*
X79180428Y-62174285D01*
D10*
X81589809Y-80716380D02*
X81589809Y-79716380D01*
X81970761Y-79716380D01*
X82066000Y-79764000D01*
X82113619Y-79811619D01*
X82161238Y-79906857D01*
X82161238Y-80049714D01*
X82113619Y-80144952D01*
X82066000Y-80192571D01*
X81970761Y-80240190D01*
X81589809Y-80240190D01*
X82732666Y-80716380D02*
X82637428Y-80668761D01*
X82589809Y-80621142D01*
X82542190Y-80525904D01*
X82542190Y-80240190D01*
X82589809Y-80144952D01*
X82637428Y-80097333D01*
X82732666Y-80049714D01*
X82875523Y-80049714D01*
X82970761Y-80097333D01*
X83018380Y-80144952D01*
X83066000Y-80240190D01*
X83066000Y-80525904D01*
X83018380Y-80621142D01*
X82970761Y-80668761D01*
X82875523Y-80716380D01*
X82732666Y-80716380D01*
X83399333Y-80049714D02*
X83589809Y-80716380D01*
X83780285Y-80240190D01*
X83970761Y-80716380D01*
X84161238Y-80049714D01*
X84923142Y-80668761D02*
X84827904Y-80716380D01*
X84637428Y-80716380D01*
X84542190Y-80668761D01*
X84494571Y-80573523D01*
X84494571Y-80192571D01*
X84542190Y-80097333D01*
X84637428Y-80049714D01*
X84827904Y-80049714D01*
X84923142Y-80097333D01*
X84970761Y-80192571D01*
X84970761Y-80287809D01*
X84494571Y-80383047D01*
X85399333Y-80716380D02*
X85399333Y-80049714D01*
X85399333Y-80240190D02*
X85446952Y-80144952D01*
X85494571Y-80097333D01*
X85589809Y-80049714D01*
X85685047Y-80049714D01*
D12*
G04 #@! TO.C,Q7*
X89660000Y-71684000D02*
X89660000Y-70754000D01*
X89660000Y-68524000D02*
X89660000Y-69454000D01*
X89660000Y-68524000D02*
X87500000Y-68524000D01*
X89660000Y-71684000D02*
X88200000Y-71684000D01*
G04 #@! TO.C,J1*
X74235000Y-66862000D02*
X76895000Y-66862000D01*
X74235000Y-59182000D02*
X74235000Y-66862000D01*
X76895000Y-59182000D02*
X76895000Y-66862000D01*
X74235000Y-59182000D02*
X76895000Y-59182000D01*
X74235000Y-57912000D02*
X74235000Y-56582000D01*
X74235000Y-56582000D02*
X75565000Y-56582000D01*
G04 #@! TO.C,Q6*
X99306000Y-67318000D02*
X95536000Y-67318000D01*
X95766000Y-70858000D02*
X99306000Y-70858000D01*
X99306000Y-67318000D02*
X99306000Y-67688000D01*
X99306000Y-70858000D02*
X99306000Y-70488000D01*
X95766000Y-70858000D02*
X95766000Y-70488000D01*
G04 #@! TO.C,R5*
X92458000Y-72070279D02*
X92458000Y-71744721D01*
X91438000Y-72070279D02*
X91438000Y-71744721D01*
G04 #@! TO.C,R10*
X86362000Y-69941221D02*
X86362000Y-70266779D01*
X85342000Y-69941221D02*
X85342000Y-70266779D01*
D13*
G04 #@! TO.C,D5*
X93980000Y-77978000D02*
X93980000Y-78181200D01*
X92075000Y-79502000D02*
X92075000Y-74930000D01*
X92075000Y-74930000D02*
X92710000Y-74930000D01*
X95885000Y-76555600D02*
X92075000Y-76555600D01*
X95885000Y-76225400D02*
X92075000Y-76225400D01*
X95250000Y-79502000D02*
X95885000Y-79502000D01*
X95885000Y-79502000D02*
X95885000Y-74930000D01*
X95885000Y-74930000D02*
X95250000Y-74930000D01*
X92710000Y-79502000D02*
X92075000Y-79502000D01*
X93980000Y-77343000D02*
X93505020Y-77978000D01*
X93505020Y-77978000D02*
X93980000Y-77978000D01*
X93980000Y-77978000D02*
X94454980Y-77978000D01*
X94454980Y-77978000D02*
X93980000Y-77343000D01*
X93980000Y-77343000D02*
X93662500Y-77343000D01*
X93662500Y-77343000D02*
X93505020Y-77500480D01*
X93980000Y-77343000D02*
X94297500Y-77343000D01*
X94297500Y-77343000D02*
X94454980Y-77185520D01*
X93980000Y-77343000D02*
X93980000Y-76233020D01*
D12*
G04 #@! TO.C,C2*
X88065000Y-51755646D02*
X89065000Y-51755646D01*
X88565000Y-52255646D02*
X88565000Y-51255646D01*
X90841000Y-41695000D02*
X92039000Y-41695000D01*
X90578000Y-41735000D02*
X92302000Y-41735000D01*
X90378000Y-41775000D02*
X92502000Y-41775000D01*
X90210000Y-41815000D02*
X92670000Y-41815000D01*
X90062000Y-41855000D02*
X92818000Y-41855000D01*
X89930000Y-41895000D02*
X92950000Y-41895000D01*
X89810000Y-41935000D02*
X93070000Y-41935000D01*
X89698000Y-41975000D02*
X93182000Y-41975000D01*
X89594000Y-42015000D02*
X93286000Y-42015000D01*
X89496000Y-42055000D02*
X93384000Y-42055000D01*
X89403000Y-42095000D02*
X93477000Y-42095000D01*
X89315000Y-42135000D02*
X93565000Y-42135000D01*
X89231000Y-42175000D02*
X93649000Y-42175000D01*
X89151000Y-42215000D02*
X93729000Y-42215000D01*
X89075000Y-42255000D02*
X93805000Y-42255000D01*
X89001000Y-42295000D02*
X93879000Y-42295000D01*
X88930000Y-42335000D02*
X93950000Y-42335000D01*
X88861000Y-42375000D02*
X94019000Y-42375000D01*
X88795000Y-42415000D02*
X94085000Y-42415000D01*
X88731000Y-42455000D02*
X94149000Y-42455000D01*
X88670000Y-42495000D02*
X94210000Y-42495000D01*
X88610000Y-42535000D02*
X94270000Y-42535000D01*
X88551000Y-42575000D02*
X94329000Y-42575000D01*
X88495000Y-42615000D02*
X94385000Y-42615000D01*
X88440000Y-42655000D02*
X94440000Y-42655000D01*
X88386000Y-42695000D02*
X94494000Y-42695000D01*
X88334000Y-42735000D02*
X94546000Y-42735000D01*
X88284000Y-42775000D02*
X94596000Y-42775000D01*
X88234000Y-42815000D02*
X94646000Y-42815000D01*
X88186000Y-42855000D02*
X94694000Y-42855000D01*
X88139000Y-42895000D02*
X94741000Y-42895000D01*
X88093000Y-42935000D02*
X94787000Y-42935000D01*
X88048000Y-42975000D02*
X94832000Y-42975000D01*
X88004000Y-43015000D02*
X94876000Y-43015000D01*
X92681000Y-43055000D02*
X94918000Y-43055000D01*
X87962000Y-43055000D02*
X90199000Y-43055000D01*
X92681000Y-43095000D02*
X94960000Y-43095000D01*
X87920000Y-43095000D02*
X90199000Y-43095000D01*
X92681000Y-43135000D02*
X95001000Y-43135000D01*
X87879000Y-43135000D02*
X90199000Y-43135000D01*
X92681000Y-43175000D02*
X95041000Y-43175000D01*
X87839000Y-43175000D02*
X90199000Y-43175000D01*
X92681000Y-43215000D02*
X95080000Y-43215000D01*
X87800000Y-43215000D02*
X90199000Y-43215000D01*
X92681000Y-43255000D02*
X95119000Y-43255000D01*
X87761000Y-43255000D02*
X90199000Y-43255000D01*
X92681000Y-43295000D02*
X95156000Y-43295000D01*
X87724000Y-43295000D02*
X90199000Y-43295000D01*
X92681000Y-43335000D02*
X95193000Y-43335000D01*
X87687000Y-43335000D02*
X90199000Y-43335000D01*
X92681000Y-43375000D02*
X95229000Y-43375000D01*
X87651000Y-43375000D02*
X90199000Y-43375000D01*
X92681000Y-43415000D02*
X95264000Y-43415000D01*
X87616000Y-43415000D02*
X90199000Y-43415000D01*
X92681000Y-43455000D02*
X95298000Y-43455000D01*
X87582000Y-43455000D02*
X90199000Y-43455000D01*
X92681000Y-43495000D02*
X95332000Y-43495000D01*
X87548000Y-43495000D02*
X90199000Y-43495000D01*
X92681000Y-43535000D02*
X95365000Y-43535000D01*
X87515000Y-43535000D02*
X90199000Y-43535000D01*
X92681000Y-43575000D02*
X95397000Y-43575000D01*
X87483000Y-43575000D02*
X90199000Y-43575000D01*
X92681000Y-43615000D02*
X95429000Y-43615000D01*
X87451000Y-43615000D02*
X90199000Y-43615000D01*
X92681000Y-43655000D02*
X95460000Y-43655000D01*
X87420000Y-43655000D02*
X90199000Y-43655000D01*
X92681000Y-43695000D02*
X95490000Y-43695000D01*
X87390000Y-43695000D02*
X90199000Y-43695000D01*
X92681000Y-43735000D02*
X95520000Y-43735000D01*
X87360000Y-43735000D02*
X90199000Y-43735000D01*
X92681000Y-43775000D02*
X95550000Y-43775000D01*
X87330000Y-43775000D02*
X90199000Y-43775000D01*
X92681000Y-43815000D02*
X95578000Y-43815000D01*
X87302000Y-43815000D02*
X90199000Y-43815000D01*
X92681000Y-43855000D02*
X95606000Y-43855000D01*
X87274000Y-43855000D02*
X90199000Y-43855000D01*
X92681000Y-43895000D02*
X95634000Y-43895000D01*
X87246000Y-43895000D02*
X90199000Y-43895000D01*
X92681000Y-43935000D02*
X95661000Y-43935000D01*
X87219000Y-43935000D02*
X90199000Y-43935000D01*
X92681000Y-43975000D02*
X95687000Y-43975000D01*
X87193000Y-43975000D02*
X90199000Y-43975000D01*
X92681000Y-44015000D02*
X95713000Y-44015000D01*
X87167000Y-44015000D02*
X90199000Y-44015000D01*
X92681000Y-44055000D02*
X95738000Y-44055000D01*
X87142000Y-44055000D02*
X90199000Y-44055000D01*
X92681000Y-44095000D02*
X95763000Y-44095000D01*
X87117000Y-44095000D02*
X90199000Y-44095000D01*
X92681000Y-44135000D02*
X95787000Y-44135000D01*
X87093000Y-44135000D02*
X90199000Y-44135000D01*
X92681000Y-44175000D02*
X95811000Y-44175000D01*
X87069000Y-44175000D02*
X90199000Y-44175000D01*
X92681000Y-44215000D02*
X95835000Y-44215000D01*
X87045000Y-44215000D02*
X90199000Y-44215000D01*
X92681000Y-44255000D02*
X95857000Y-44255000D01*
X87023000Y-44255000D02*
X90199000Y-44255000D01*
X92681000Y-44295000D02*
X95880000Y-44295000D01*
X87000000Y-44295000D02*
X90199000Y-44295000D01*
X92681000Y-44335000D02*
X95902000Y-44335000D01*
X86978000Y-44335000D02*
X90199000Y-44335000D01*
X92681000Y-44375000D02*
X95923000Y-44375000D01*
X86957000Y-44375000D02*
X90199000Y-44375000D01*
X92681000Y-44415000D02*
X95944000Y-44415000D01*
X86936000Y-44415000D02*
X90199000Y-44415000D01*
X92681000Y-44455000D02*
X95965000Y-44455000D01*
X86915000Y-44455000D02*
X90199000Y-44455000D01*
X92681000Y-44495000D02*
X95985000Y-44495000D01*
X86895000Y-44495000D02*
X90199000Y-44495000D01*
X92681000Y-44535000D02*
X96004000Y-44535000D01*
X86876000Y-44535000D02*
X90199000Y-44535000D01*
X92681000Y-44575000D02*
X96024000Y-44575000D01*
X86856000Y-44575000D02*
X90199000Y-44575000D01*
X92681000Y-44615000D02*
X96043000Y-44615000D01*
X86837000Y-44615000D02*
X90199000Y-44615000D01*
X92681000Y-44655000D02*
X96061000Y-44655000D01*
X86819000Y-44655000D02*
X90199000Y-44655000D01*
X92681000Y-44695000D02*
X96079000Y-44695000D01*
X86801000Y-44695000D02*
X90199000Y-44695000D01*
X92681000Y-44735000D02*
X96097000Y-44735000D01*
X86783000Y-44735000D02*
X90199000Y-44735000D01*
X92681000Y-44775000D02*
X96114000Y-44775000D01*
X86766000Y-44775000D02*
X90199000Y-44775000D01*
X92681000Y-44815000D02*
X96130000Y-44815000D01*
X86750000Y-44815000D02*
X90199000Y-44815000D01*
X92681000Y-44855000D02*
X96147000Y-44855000D01*
X86733000Y-44855000D02*
X90199000Y-44855000D01*
X92681000Y-44895000D02*
X96163000Y-44895000D01*
X86717000Y-44895000D02*
X90199000Y-44895000D01*
X92681000Y-44935000D02*
X96178000Y-44935000D01*
X86702000Y-44935000D02*
X90199000Y-44935000D01*
X92681000Y-44975000D02*
X96194000Y-44975000D01*
X86686000Y-44975000D02*
X90199000Y-44975000D01*
X92681000Y-45015000D02*
X96208000Y-45015000D01*
X86672000Y-45015000D02*
X90199000Y-45015000D01*
X92681000Y-45055000D02*
X96223000Y-45055000D01*
X86657000Y-45055000D02*
X90199000Y-45055000D01*
X92681000Y-45095000D02*
X96237000Y-45095000D01*
X86643000Y-45095000D02*
X90199000Y-45095000D01*
X92681000Y-45135000D02*
X96251000Y-45135000D01*
X86629000Y-45135000D02*
X90199000Y-45135000D01*
X92681000Y-45175000D02*
X96264000Y-45175000D01*
X86616000Y-45175000D02*
X90199000Y-45175000D01*
X92681000Y-45215000D02*
X96277000Y-45215000D01*
X86603000Y-45215000D02*
X90199000Y-45215000D01*
X92681000Y-45255000D02*
X96290000Y-45255000D01*
X86590000Y-45255000D02*
X90199000Y-45255000D01*
X92681000Y-45295000D02*
X96302000Y-45295000D01*
X86578000Y-45295000D02*
X90199000Y-45295000D01*
X92681000Y-45335000D02*
X96314000Y-45335000D01*
X86566000Y-45335000D02*
X90199000Y-45335000D01*
X92681000Y-45375000D02*
X96325000Y-45375000D01*
X86555000Y-45375000D02*
X90199000Y-45375000D01*
X92681000Y-45415000D02*
X96337000Y-45415000D01*
X86543000Y-45415000D02*
X90199000Y-45415000D01*
X92681000Y-45455000D02*
X96347000Y-45455000D01*
X86533000Y-45455000D02*
X90199000Y-45455000D01*
X92681000Y-45495000D02*
X96358000Y-45495000D01*
X86522000Y-45495000D02*
X90199000Y-45495000D01*
X86512000Y-45535000D02*
X96368000Y-45535000D01*
X86502000Y-45575000D02*
X96378000Y-45575000D01*
X86493000Y-45615000D02*
X96387000Y-45615000D01*
X86484000Y-45655000D02*
X96396000Y-45655000D01*
X86475000Y-45695000D02*
X96405000Y-45695000D01*
X86466000Y-45735000D02*
X96414000Y-45735000D01*
X86458000Y-45775000D02*
X96422000Y-45775000D01*
X86450000Y-45815000D02*
X96430000Y-45815000D01*
X86443000Y-45855000D02*
X96437000Y-45855000D01*
X86436000Y-45895000D02*
X96444000Y-45895000D01*
X86429000Y-45935000D02*
X96451000Y-45935000D01*
X86422000Y-45975000D02*
X96458000Y-45975000D01*
X86416000Y-46015000D02*
X96464000Y-46015000D01*
X86410000Y-46055000D02*
X96470000Y-46055000D01*
X86405000Y-46096000D02*
X96475000Y-46096000D01*
X86400000Y-46136000D02*
X96480000Y-46136000D01*
X86395000Y-46176000D02*
X96485000Y-46176000D01*
X86390000Y-46216000D02*
X96490000Y-46216000D01*
X86386000Y-46256000D02*
X96494000Y-46256000D01*
X86382000Y-46296000D02*
X96498000Y-46296000D01*
X86378000Y-46336000D02*
X96502000Y-46336000D01*
X86375000Y-46376000D02*
X96505000Y-46376000D01*
X86372000Y-46416000D02*
X96508000Y-46416000D01*
X86370000Y-46456000D02*
X96510000Y-46456000D01*
X86367000Y-46496000D02*
X96513000Y-46496000D01*
X86365000Y-46536000D02*
X96515000Y-46536000D01*
X86363000Y-46576000D02*
X96517000Y-46576000D01*
X86362000Y-46616000D02*
X96518000Y-46616000D01*
X86361000Y-46656000D02*
X96519000Y-46656000D01*
X86360000Y-46696000D02*
X96520000Y-46696000D01*
X86360000Y-46736000D02*
X96520000Y-46736000D01*
X86360000Y-46776000D02*
X96520000Y-46776000D01*
X96560000Y-46776000D02*
G75*
G03X96560000Y-46776000I-5120000J0D01*
G01*
G04 #@! TO.C,C1*
X108752000Y-46776000D02*
G75*
G03X108752000Y-46776000I-5120000J0D01*
G01*
X98552000Y-46776000D02*
X108712000Y-46776000D01*
X98552000Y-46736000D02*
X108712000Y-46736000D01*
X98552000Y-46696000D02*
X108712000Y-46696000D01*
X98553000Y-46656000D02*
X108711000Y-46656000D01*
X98554000Y-46616000D02*
X108710000Y-46616000D01*
X98555000Y-46576000D02*
X108709000Y-46576000D01*
X98557000Y-46536000D02*
X108707000Y-46536000D01*
X98559000Y-46496000D02*
X108705000Y-46496000D01*
X98562000Y-46456000D02*
X108702000Y-46456000D01*
X98564000Y-46416000D02*
X108700000Y-46416000D01*
X98567000Y-46376000D02*
X108697000Y-46376000D01*
X98570000Y-46336000D02*
X108694000Y-46336000D01*
X98574000Y-46296000D02*
X108690000Y-46296000D01*
X98578000Y-46256000D02*
X108686000Y-46256000D01*
X98582000Y-46216000D02*
X108682000Y-46216000D01*
X98587000Y-46176000D02*
X108677000Y-46176000D01*
X98592000Y-46136000D02*
X108672000Y-46136000D01*
X98597000Y-46096000D02*
X108667000Y-46096000D01*
X98602000Y-46055000D02*
X108662000Y-46055000D01*
X98608000Y-46015000D02*
X108656000Y-46015000D01*
X98614000Y-45975000D02*
X108650000Y-45975000D01*
X98621000Y-45935000D02*
X108643000Y-45935000D01*
X98628000Y-45895000D02*
X108636000Y-45895000D01*
X98635000Y-45855000D02*
X108629000Y-45855000D01*
X98642000Y-45815000D02*
X108622000Y-45815000D01*
X98650000Y-45775000D02*
X108614000Y-45775000D01*
X98658000Y-45735000D02*
X108606000Y-45735000D01*
X98667000Y-45695000D02*
X108597000Y-45695000D01*
X98676000Y-45655000D02*
X108588000Y-45655000D01*
X98685000Y-45615000D02*
X108579000Y-45615000D01*
X98694000Y-45575000D02*
X108570000Y-45575000D01*
X98704000Y-45535000D02*
X108560000Y-45535000D01*
X98714000Y-45495000D02*
X102391000Y-45495000D01*
X104873000Y-45495000D02*
X108550000Y-45495000D01*
X98725000Y-45455000D02*
X102391000Y-45455000D01*
X104873000Y-45455000D02*
X108539000Y-45455000D01*
X98735000Y-45415000D02*
X102391000Y-45415000D01*
X104873000Y-45415000D02*
X108529000Y-45415000D01*
X98747000Y-45375000D02*
X102391000Y-45375000D01*
X104873000Y-45375000D02*
X108517000Y-45375000D01*
X98758000Y-45335000D02*
X102391000Y-45335000D01*
X104873000Y-45335000D02*
X108506000Y-45335000D01*
X98770000Y-45295000D02*
X102391000Y-45295000D01*
X104873000Y-45295000D02*
X108494000Y-45295000D01*
X98782000Y-45255000D02*
X102391000Y-45255000D01*
X104873000Y-45255000D02*
X108482000Y-45255000D01*
X98795000Y-45215000D02*
X102391000Y-45215000D01*
X104873000Y-45215000D02*
X108469000Y-45215000D01*
X98808000Y-45175000D02*
X102391000Y-45175000D01*
X104873000Y-45175000D02*
X108456000Y-45175000D01*
X98821000Y-45135000D02*
X102391000Y-45135000D01*
X104873000Y-45135000D02*
X108443000Y-45135000D01*
X98835000Y-45095000D02*
X102391000Y-45095000D01*
X104873000Y-45095000D02*
X108429000Y-45095000D01*
X98849000Y-45055000D02*
X102391000Y-45055000D01*
X104873000Y-45055000D02*
X108415000Y-45055000D01*
X98864000Y-45015000D02*
X102391000Y-45015000D01*
X104873000Y-45015000D02*
X108400000Y-45015000D01*
X98878000Y-44975000D02*
X102391000Y-44975000D01*
X104873000Y-44975000D02*
X108386000Y-44975000D01*
X98894000Y-44935000D02*
X102391000Y-44935000D01*
X104873000Y-44935000D02*
X108370000Y-44935000D01*
X98909000Y-44895000D02*
X102391000Y-44895000D01*
X104873000Y-44895000D02*
X108355000Y-44895000D01*
X98925000Y-44855000D02*
X102391000Y-44855000D01*
X104873000Y-44855000D02*
X108339000Y-44855000D01*
X98942000Y-44815000D02*
X102391000Y-44815000D01*
X104873000Y-44815000D02*
X108322000Y-44815000D01*
X98958000Y-44775000D02*
X102391000Y-44775000D01*
X104873000Y-44775000D02*
X108306000Y-44775000D01*
X98975000Y-44735000D02*
X102391000Y-44735000D01*
X104873000Y-44735000D02*
X108289000Y-44735000D01*
X98993000Y-44695000D02*
X102391000Y-44695000D01*
X104873000Y-44695000D02*
X108271000Y-44695000D01*
X99011000Y-44655000D02*
X102391000Y-44655000D01*
X104873000Y-44655000D02*
X108253000Y-44655000D01*
X99029000Y-44615000D02*
X102391000Y-44615000D01*
X104873000Y-44615000D02*
X108235000Y-44615000D01*
X99048000Y-44575000D02*
X102391000Y-44575000D01*
X104873000Y-44575000D02*
X108216000Y-44575000D01*
X99068000Y-44535000D02*
X102391000Y-44535000D01*
X104873000Y-44535000D02*
X108196000Y-44535000D01*
X99087000Y-44495000D02*
X102391000Y-44495000D01*
X104873000Y-44495000D02*
X108177000Y-44495000D01*
X99107000Y-44455000D02*
X102391000Y-44455000D01*
X104873000Y-44455000D02*
X108157000Y-44455000D01*
X99128000Y-44415000D02*
X102391000Y-44415000D01*
X104873000Y-44415000D02*
X108136000Y-44415000D01*
X99149000Y-44375000D02*
X102391000Y-44375000D01*
X104873000Y-44375000D02*
X108115000Y-44375000D01*
X99170000Y-44335000D02*
X102391000Y-44335000D01*
X104873000Y-44335000D02*
X108094000Y-44335000D01*
X99192000Y-44295000D02*
X102391000Y-44295000D01*
X104873000Y-44295000D02*
X108072000Y-44295000D01*
X99215000Y-44255000D02*
X102391000Y-44255000D01*
X104873000Y-44255000D02*
X108049000Y-44255000D01*
X99237000Y-44215000D02*
X102391000Y-44215000D01*
X104873000Y-44215000D02*
X108027000Y-44215000D01*
X99261000Y-44175000D02*
X102391000Y-44175000D01*
X104873000Y-44175000D02*
X108003000Y-44175000D01*
X99285000Y-44135000D02*
X102391000Y-44135000D01*
X104873000Y-44135000D02*
X107979000Y-44135000D01*
X99309000Y-44095000D02*
X102391000Y-44095000D01*
X104873000Y-44095000D02*
X107955000Y-44095000D01*
X99334000Y-44055000D02*
X102391000Y-44055000D01*
X104873000Y-44055000D02*
X107930000Y-44055000D01*
X99359000Y-44015000D02*
X102391000Y-44015000D01*
X104873000Y-44015000D02*
X107905000Y-44015000D01*
X99385000Y-43975000D02*
X102391000Y-43975000D01*
X104873000Y-43975000D02*
X107879000Y-43975000D01*
X99411000Y-43935000D02*
X102391000Y-43935000D01*
X104873000Y-43935000D02*
X107853000Y-43935000D01*
X99438000Y-43895000D02*
X102391000Y-43895000D01*
X104873000Y-43895000D02*
X107826000Y-43895000D01*
X99466000Y-43855000D02*
X102391000Y-43855000D01*
X104873000Y-43855000D02*
X107798000Y-43855000D01*
X99494000Y-43815000D02*
X102391000Y-43815000D01*
X104873000Y-43815000D02*
X107770000Y-43815000D01*
X99522000Y-43775000D02*
X102391000Y-43775000D01*
X104873000Y-43775000D02*
X107742000Y-43775000D01*
X99552000Y-43735000D02*
X102391000Y-43735000D01*
X104873000Y-43735000D02*
X107712000Y-43735000D01*
X99582000Y-43695000D02*
X102391000Y-43695000D01*
X104873000Y-43695000D02*
X107682000Y-43695000D01*
X99612000Y-43655000D02*
X102391000Y-43655000D01*
X104873000Y-43655000D02*
X107652000Y-43655000D01*
X99643000Y-43615000D02*
X102391000Y-43615000D01*
X104873000Y-43615000D02*
X107621000Y-43615000D01*
X99675000Y-43575000D02*
X102391000Y-43575000D01*
X104873000Y-43575000D02*
X107589000Y-43575000D01*
X99707000Y-43535000D02*
X102391000Y-43535000D01*
X104873000Y-43535000D02*
X107557000Y-43535000D01*
X99740000Y-43495000D02*
X102391000Y-43495000D01*
X104873000Y-43495000D02*
X107524000Y-43495000D01*
X99774000Y-43455000D02*
X102391000Y-43455000D01*
X104873000Y-43455000D02*
X107490000Y-43455000D01*
X99808000Y-43415000D02*
X102391000Y-43415000D01*
X104873000Y-43415000D02*
X107456000Y-43415000D01*
X99843000Y-43375000D02*
X102391000Y-43375000D01*
X104873000Y-43375000D02*
X107421000Y-43375000D01*
X99879000Y-43335000D02*
X102391000Y-43335000D01*
X104873000Y-43335000D02*
X107385000Y-43335000D01*
X99916000Y-43295000D02*
X102391000Y-43295000D01*
X104873000Y-43295000D02*
X107348000Y-43295000D01*
X99953000Y-43255000D02*
X102391000Y-43255000D01*
X104873000Y-43255000D02*
X107311000Y-43255000D01*
X99992000Y-43215000D02*
X102391000Y-43215000D01*
X104873000Y-43215000D02*
X107272000Y-43215000D01*
X100031000Y-43175000D02*
X102391000Y-43175000D01*
X104873000Y-43175000D02*
X107233000Y-43175000D01*
X100071000Y-43135000D02*
X102391000Y-43135000D01*
X104873000Y-43135000D02*
X107193000Y-43135000D01*
X100112000Y-43095000D02*
X102391000Y-43095000D01*
X104873000Y-43095000D02*
X107152000Y-43095000D01*
X100154000Y-43055000D02*
X102391000Y-43055000D01*
X104873000Y-43055000D02*
X107110000Y-43055000D01*
X100196000Y-43015000D02*
X107068000Y-43015000D01*
X100240000Y-42975000D02*
X107024000Y-42975000D01*
X100285000Y-42935000D02*
X106979000Y-42935000D01*
X100331000Y-42895000D02*
X106933000Y-42895000D01*
X100378000Y-42855000D02*
X106886000Y-42855000D01*
X100426000Y-42815000D02*
X106838000Y-42815000D01*
X100476000Y-42775000D02*
X106788000Y-42775000D01*
X100526000Y-42735000D02*
X106738000Y-42735000D01*
X100578000Y-42695000D02*
X106686000Y-42695000D01*
X100632000Y-42655000D02*
X106632000Y-42655000D01*
X100687000Y-42615000D02*
X106577000Y-42615000D01*
X100743000Y-42575000D02*
X106521000Y-42575000D01*
X100802000Y-42535000D02*
X106462000Y-42535000D01*
X100862000Y-42495000D02*
X106402000Y-42495000D01*
X100923000Y-42455000D02*
X106341000Y-42455000D01*
X100987000Y-42415000D02*
X106277000Y-42415000D01*
X101053000Y-42375000D02*
X106211000Y-42375000D01*
X101122000Y-42335000D02*
X106142000Y-42335000D01*
X101193000Y-42295000D02*
X106071000Y-42295000D01*
X101267000Y-42255000D02*
X105997000Y-42255000D01*
X101343000Y-42215000D02*
X105921000Y-42215000D01*
X101423000Y-42175000D02*
X105841000Y-42175000D01*
X101507000Y-42135000D02*
X105757000Y-42135000D01*
X101595000Y-42095000D02*
X105669000Y-42095000D01*
X101688000Y-42055000D02*
X105576000Y-42055000D01*
X101786000Y-42015000D02*
X105478000Y-42015000D01*
X101890000Y-41975000D02*
X105374000Y-41975000D01*
X102002000Y-41935000D02*
X105262000Y-41935000D01*
X102122000Y-41895000D02*
X105142000Y-41895000D01*
X102254000Y-41855000D02*
X105010000Y-41855000D01*
X102402000Y-41815000D02*
X104862000Y-41815000D01*
X102570000Y-41775000D02*
X104694000Y-41775000D01*
X102770000Y-41735000D02*
X104494000Y-41735000D01*
X103033000Y-41695000D02*
X104231000Y-41695000D01*
X100757000Y-52255646D02*
X100757000Y-51255646D01*
X100257000Y-51755646D02*
X101257000Y-51755646D01*
G04 #@! TO.C,J11*
X101060000Y-64663000D02*
X101060000Y-67743000D01*
X101060000Y-67743000D02*
X107260000Y-67743000D01*
X107260000Y-67743000D02*
X107260000Y-67373000D01*
X107260000Y-67373000D02*
X110120000Y-67373000D01*
X110120000Y-67373000D02*
X110120000Y-64663000D01*
X101060000Y-64663000D02*
X101060000Y-61583000D01*
X101060000Y-61583000D02*
X107260000Y-61583000D01*
X107260000Y-61583000D02*
X107260000Y-61953000D01*
X107260000Y-61953000D02*
X110120000Y-61953000D01*
X110120000Y-61953000D02*
X110120000Y-64663000D01*
X105410000Y-68043000D02*
X107560000Y-68043000D01*
X107560000Y-68043000D02*
X107560000Y-67373000D01*
G04 #@! TO.C,J9*
X74362000Y-79562000D02*
X77022000Y-79562000D01*
X74362000Y-71882000D02*
X74362000Y-79562000D01*
X77022000Y-71882000D02*
X77022000Y-79562000D01*
X74362000Y-71882000D02*
X77022000Y-71882000D01*
X74362000Y-70612000D02*
X74362000Y-69282000D01*
X74362000Y-69282000D02*
X75692000Y-69282000D01*
G04 #@! TO.C,D3*
X89626000Y-62976000D02*
X89626000Y-60976000D01*
X89626000Y-60976000D02*
X85726000Y-60976000D01*
X89626000Y-62976000D02*
X85726000Y-62976000D01*
G04 #@! TO.C,Q2*
X94750000Y-64254000D02*
X94750000Y-63884000D01*
X98290000Y-64254000D02*
X98290000Y-63884000D01*
X98290000Y-60714000D02*
X98290000Y-61084000D01*
X94750000Y-64254000D02*
X98290000Y-64254000D01*
X98290000Y-60714000D02*
X94520000Y-60714000D01*
G04 #@! TO.C,Q1*
X107561000Y-58920000D02*
X107561000Y-55150000D01*
X104021000Y-55380000D02*
X104021000Y-58920000D01*
X107561000Y-58920000D02*
X107191000Y-58920000D01*
X104021000Y-58920000D02*
X104391000Y-58920000D01*
X104021000Y-55380000D02*
X104391000Y-55380000D01*
G04 #@! TO.C,Q5*
X84326000Y-60254000D02*
X84326000Y-59324000D01*
X84326000Y-57094000D02*
X84326000Y-58024000D01*
X84326000Y-57094000D02*
X82166000Y-57094000D01*
X84326000Y-60254000D02*
X82866000Y-60254000D01*
G04 #@! TO.C,Q4*
X91242000Y-54485000D02*
X91242000Y-55945000D01*
X88082000Y-54485000D02*
X88082000Y-56645000D01*
X88082000Y-54485000D02*
X89012000Y-54485000D01*
X91242000Y-54485000D02*
X90312000Y-54485000D01*
G04 #@! TO.C,Q3*
X98100000Y-56517000D02*
X97170000Y-56517000D01*
X94940000Y-56517000D02*
X95870000Y-56517000D01*
X94940000Y-56517000D02*
X94940000Y-58677000D01*
X98100000Y-56517000D02*
X98100000Y-57977000D01*
G04 #@! TO.C,R2*
X91438000Y-64734221D02*
X91438000Y-65059779D01*
X92458000Y-64734221D02*
X92458000Y-65059779D01*
G04 #@! TO.C,R3*
X100929221Y-56386000D02*
X101254779Y-56386000D01*
X100929221Y-57406000D02*
X101254779Y-57406000D01*
G04 #@! TO.C,R6*
X100776721Y-54358000D02*
X101102279Y-54358000D01*
X100776721Y-53338000D02*
X101102279Y-53338000D01*
G04 #@! TO.C,R4*
X92458000Y-61432221D02*
X92458000Y-61757779D01*
X91438000Y-61432221D02*
X91438000Y-61757779D01*
G04 #@! TO.C,R7*
X102834064Y-40026000D02*
X101629936Y-40026000D01*
X102834064Y-38206000D02*
X101629936Y-38206000D01*
D13*
G04 #@! TO.C,D1*
X103124000Y-77978000D02*
X103124000Y-78181200D01*
X101219000Y-79502000D02*
X101219000Y-74930000D01*
X101219000Y-74930000D02*
X101854000Y-74930000D01*
X105029000Y-76555600D02*
X101219000Y-76555600D01*
X105029000Y-76225400D02*
X101219000Y-76225400D01*
X104394000Y-79502000D02*
X105029000Y-79502000D01*
X105029000Y-79502000D02*
X105029000Y-74930000D01*
X105029000Y-74930000D02*
X104394000Y-74930000D01*
X101854000Y-79502000D02*
X101219000Y-79502000D01*
X103124000Y-77343000D02*
X102649020Y-77978000D01*
X102649020Y-77978000D02*
X103124000Y-77978000D01*
X103124000Y-77978000D02*
X103598980Y-77978000D01*
X103598980Y-77978000D02*
X103124000Y-77343000D01*
X103124000Y-77343000D02*
X102806500Y-77343000D01*
X102806500Y-77343000D02*
X102649020Y-77500480D01*
X103124000Y-77343000D02*
X103441500Y-77343000D01*
X103441500Y-77343000D02*
X103598980Y-77185520D01*
X103124000Y-77343000D02*
X103124000Y-76233020D01*
G04 #@! TO.C,D2*
X89408000Y-77343000D02*
X89408000Y-76233020D01*
X89725500Y-77343000D02*
X89882980Y-77185520D01*
X89408000Y-77343000D02*
X89725500Y-77343000D01*
X89090500Y-77343000D02*
X88933020Y-77500480D01*
X89408000Y-77343000D02*
X89090500Y-77343000D01*
X89882980Y-77978000D02*
X89408000Y-77343000D01*
X89408000Y-77978000D02*
X89882980Y-77978000D01*
X88933020Y-77978000D02*
X89408000Y-77978000D01*
X89408000Y-77343000D02*
X88933020Y-77978000D01*
X88138000Y-79502000D02*
X87503000Y-79502000D01*
X91313000Y-74930000D02*
X90678000Y-74930000D01*
X91313000Y-79502000D02*
X91313000Y-74930000D01*
X90678000Y-79502000D02*
X91313000Y-79502000D01*
X91313000Y-76225400D02*
X87503000Y-76225400D01*
X91313000Y-76555600D02*
X87503000Y-76555600D01*
X87503000Y-74930000D02*
X88138000Y-74930000D01*
X87503000Y-79502000D02*
X87503000Y-74930000D01*
X89408000Y-77978000D02*
X89408000Y-78181200D01*
G04 #@! TO.C,D4*
X98679000Y-77978000D02*
X98679000Y-78181200D01*
X96774000Y-79502000D02*
X96774000Y-74930000D01*
X96774000Y-74930000D02*
X97409000Y-74930000D01*
X100584000Y-76555600D02*
X96774000Y-76555600D01*
X100584000Y-76225400D02*
X96774000Y-76225400D01*
X99949000Y-79502000D02*
X100584000Y-79502000D01*
X100584000Y-79502000D02*
X100584000Y-74930000D01*
X100584000Y-74930000D02*
X99949000Y-74930000D01*
X97409000Y-79502000D02*
X96774000Y-79502000D01*
X98679000Y-77343000D02*
X98204020Y-77978000D01*
X98204020Y-77978000D02*
X98679000Y-77978000D01*
X98679000Y-77978000D02*
X99153980Y-77978000D01*
X99153980Y-77978000D02*
X98679000Y-77343000D01*
X98679000Y-77343000D02*
X98361500Y-77343000D01*
X98361500Y-77343000D02*
X98204020Y-77500480D01*
X98679000Y-77343000D02*
X98996500Y-77343000D01*
X98996500Y-77343000D02*
X99153980Y-77185520D01*
X98679000Y-77343000D02*
X98679000Y-76233020D01*
D14*
G04 #@! TO.C,J10*
X102362000Y-84074000D02*
X102362000Y-81280000D01*
X93218000Y-81280000D02*
X93218000Y-84074000D01*
X93218000Y-84074000D02*
X102362000Y-84074000D01*
X101600000Y-81280000D02*
X100838000Y-81280000D01*
X99822000Y-81280000D02*
X99314000Y-81280000D01*
X98806000Y-81280000D02*
X98044000Y-81280000D01*
X97028000Y-81280000D02*
X96520000Y-81280000D01*
X95758000Y-81280000D02*
X95250000Y-81280000D01*
X94488000Y-81280000D02*
X93726000Y-81280000D01*
D12*
G04 #@! TO.C,R1*
X80243000Y-54323064D02*
X80243000Y-53118936D01*
X82063000Y-54323064D02*
X82063000Y-53118936D01*
G04 #@! TO.C,J3*
X78053000Y-45220000D02*
X84213000Y-45220000D01*
X84213000Y-45220000D02*
X84213000Y-36540000D01*
X84213000Y-36540000D02*
X78053000Y-36540000D01*
X78053000Y-36540000D02*
X78053000Y-45220000D01*
X80033000Y-45220000D02*
X79733000Y-45220000D01*
X79733000Y-45220000D02*
X79733000Y-45920000D01*
X79733000Y-45920000D02*
X80033000Y-45920000D01*
X80033000Y-45920000D02*
X80033000Y-45220000D01*
X82533000Y-45220000D02*
X82233000Y-45220000D01*
X82233000Y-45220000D02*
X82233000Y-45920000D01*
X82233000Y-45920000D02*
X82533000Y-45920000D01*
X82533000Y-45920000D02*
X82533000Y-45220000D01*
X78773000Y-49530000D02*
X78348736Y-49230000D01*
X78348736Y-49230000D02*
X78348736Y-49830000D01*
X78348736Y-49830000D02*
X78773000Y-49530000D01*
G04 #@! TO.C,J8*
X90364000Y-39811000D02*
X90364000Y-38481000D01*
X91694000Y-39811000D02*
X90364000Y-39811000D01*
X92964000Y-39811000D02*
X92964000Y-37151000D01*
X92964000Y-37151000D02*
X98104000Y-37151000D01*
X92964000Y-39811000D02*
X98104000Y-39811000D01*
X98104000Y-39811000D02*
X98104000Y-37151000D01*
G04 #@! TO.C,R21*
X80393000Y-68107779D02*
X80393000Y-67782221D01*
X79373000Y-68107779D02*
X79373000Y-67782221D01*
G04 #@! TO.C,R22*
X83093779Y-68197000D02*
X82768221Y-68197000D01*
X83093779Y-69217000D02*
X82768221Y-69217000D01*
D14*
G04 #@! TO.C,J2*
X80772000Y-81280000D02*
X80010000Y-81280000D01*
X82042000Y-81280000D02*
X81534000Y-81280000D01*
X83312000Y-81280000D02*
X82804000Y-81280000D01*
X85090000Y-81280000D02*
X84328000Y-81280000D01*
X86106000Y-81280000D02*
X85598000Y-81280000D01*
X87884000Y-81280000D02*
X87122000Y-81280000D01*
X79502000Y-84074000D02*
X88646000Y-84074000D01*
X79502000Y-81280000D02*
X79502000Y-84074000D01*
X88646000Y-84074000D02*
X88646000Y-81280000D01*
D12*
G04 #@! TO.C,R9*
X89372221Y-58930000D02*
X89697779Y-58930000D01*
X89372221Y-57910000D02*
X89697779Y-57910000D01*
G04 #@! TO.C,R8*
X81786000Y-62829221D02*
X81786000Y-63154779D01*
X82806000Y-62829221D02*
X82806000Y-63154779D01*
D14*
G04 #@! TO.C,U1*
X76585000Y-51824000D02*
X76585000Y-54724000D01*
X76585000Y-54724000D02*
X77085000Y-54724000D01*
X77085000Y-54724000D02*
X77085000Y-51824000D01*
X77085000Y-51824000D02*
X76585000Y-51824000D01*
X76635000Y-51574000D02*
G75*
G03X76635000Y-51574000I-100000J0D01*
G01*
G04 #@! TO.C,Q7*
X88804761Y-68151619D02*
X88709523Y-68104000D01*
X88614285Y-68008761D01*
X88471428Y-67865904D01*
X88376190Y-67818285D01*
X88280952Y-67818285D01*
X88328571Y-68056380D02*
X88233333Y-68008761D01*
X88138095Y-67913523D01*
X88090476Y-67723047D01*
X88090476Y-67389714D01*
X88138095Y-67199238D01*
X88233333Y-67104000D01*
X88328571Y-67056380D01*
X88519047Y-67056380D01*
X88614285Y-67104000D01*
X88709523Y-67199238D01*
X88757142Y-67389714D01*
X88757142Y-67723047D01*
X88709523Y-67913523D01*
X88614285Y-68008761D01*
X88519047Y-68056380D01*
X88328571Y-68056380D01*
X89090476Y-67056380D02*
X89757142Y-67056380D01*
X89328571Y-68056380D01*
G04 #@! TO.C,J1*
X75231666Y-55034380D02*
X75231666Y-55748666D01*
X75184047Y-55891523D01*
X75088809Y-55986761D01*
X74945952Y-56034380D01*
X74850714Y-56034380D01*
X76231666Y-56034380D02*
X75660238Y-56034380D01*
X75945952Y-56034380D02*
X75945952Y-55034380D01*
X75850714Y-55177238D01*
X75755476Y-55272476D01*
X75660238Y-55320095D01*
G04 #@! TO.C,Q6*
X97440761Y-66985619D02*
X97345523Y-66938000D01*
X97250285Y-66842761D01*
X97107428Y-66699904D01*
X97012190Y-66652285D01*
X96916952Y-66652285D01*
X96964571Y-66890380D02*
X96869333Y-66842761D01*
X96774095Y-66747523D01*
X96726476Y-66557047D01*
X96726476Y-66223714D01*
X96774095Y-66033238D01*
X96869333Y-65938000D01*
X96964571Y-65890380D01*
X97155047Y-65890380D01*
X97250285Y-65938000D01*
X97345523Y-66033238D01*
X97393142Y-66223714D01*
X97393142Y-66557047D01*
X97345523Y-66747523D01*
X97250285Y-66842761D01*
X97155047Y-66890380D01*
X96964571Y-66890380D01*
X98250285Y-65890380D02*
X98059809Y-65890380D01*
X97964571Y-65938000D01*
X97916952Y-65985619D01*
X97821714Y-66128476D01*
X97774095Y-66318952D01*
X97774095Y-66699904D01*
X97821714Y-66795142D01*
X97869333Y-66842761D01*
X97964571Y-66890380D01*
X98155047Y-66890380D01*
X98250285Y-66842761D01*
X98297904Y-66795142D01*
X98345523Y-66699904D01*
X98345523Y-66461809D01*
X98297904Y-66366571D01*
X98250285Y-66318952D01*
X98155047Y-66271333D01*
X97964571Y-66271333D01*
X97869333Y-66318952D01*
X97821714Y-66366571D01*
X97774095Y-66461809D01*
G04 #@! TO.C,R5*
X90876380Y-72810666D02*
X90400190Y-73144000D01*
X90876380Y-73382095D02*
X89876380Y-73382095D01*
X89876380Y-73001142D01*
X89924000Y-72905904D01*
X89971619Y-72858285D01*
X90066857Y-72810666D01*
X90209714Y-72810666D01*
X90304952Y-72858285D01*
X90352571Y-72905904D01*
X90400190Y-73001142D01*
X90400190Y-73382095D01*
X89876380Y-71905904D02*
X89876380Y-72382095D01*
X90352571Y-72429714D01*
X90304952Y-72382095D01*
X90257333Y-72286857D01*
X90257333Y-72048761D01*
X90304952Y-71953523D01*
X90352571Y-71905904D01*
X90447809Y-71858285D01*
X90685904Y-71858285D01*
X90781142Y-71905904D01*
X90828761Y-71953523D01*
X90876380Y-72048761D01*
X90876380Y-72286857D01*
X90828761Y-72382095D01*
X90781142Y-72429714D01*
G04 #@! TO.C,R10*
X86304380Y-67190857D02*
X85828190Y-67524190D01*
X86304380Y-67762285D02*
X85304380Y-67762285D01*
X85304380Y-67381333D01*
X85352000Y-67286095D01*
X85399619Y-67238476D01*
X85494857Y-67190857D01*
X85637714Y-67190857D01*
X85732952Y-67238476D01*
X85780571Y-67286095D01*
X85828190Y-67381333D01*
X85828190Y-67762285D01*
X86304380Y-66238476D02*
X86304380Y-66809904D01*
X86304380Y-66524190D02*
X85304380Y-66524190D01*
X85447238Y-66619428D01*
X85542476Y-66714666D01*
X85590095Y-66809904D01*
X85304380Y-65619428D02*
X85304380Y-65524190D01*
X85352000Y-65428952D01*
X85399619Y-65381333D01*
X85494857Y-65333714D01*
X85685333Y-65286095D01*
X85923428Y-65286095D01*
X86113904Y-65333714D01*
X86209142Y-65381333D01*
X86256761Y-65428952D01*
X86304380Y-65524190D01*
X86304380Y-65619428D01*
X86256761Y-65714666D01*
X86209142Y-65762285D01*
X86113904Y-65809904D01*
X85923428Y-65857523D01*
X85685333Y-65857523D01*
X85494857Y-65809904D01*
X85399619Y-65762285D01*
X85352000Y-65714666D01*
X85304380Y-65619428D01*
G04 #@! TO.C,D5*
D15*
X91565427Y-77386421D02*
X91265707Y-77386421D01*
X91265707Y-77315060D01*
X91279980Y-77272242D01*
X91308524Y-77243698D01*
X91337069Y-77229425D01*
X91394159Y-77215153D01*
X91436976Y-77215153D01*
X91494065Y-77229425D01*
X91522610Y-77243698D01*
X91551155Y-77272242D01*
X91565427Y-77315060D01*
X91565427Y-77386421D01*
X91265707Y-76943978D02*
X91265707Y-77086701D01*
X91408431Y-77100974D01*
X91394159Y-77086701D01*
X91379886Y-77058157D01*
X91379886Y-76986795D01*
X91394159Y-76958250D01*
X91408431Y-76943978D01*
X91436976Y-76929705D01*
X91508338Y-76929705D01*
X91536882Y-76943978D01*
X91551155Y-76958250D01*
X91565427Y-76986795D01*
X91565427Y-77058157D01*
X91551155Y-77086701D01*
X91536882Y-77100974D01*
D16*
D15*
X95650715Y-78321262D02*
X95664987Y-78278445D01*
X95664987Y-78207083D01*
X95650715Y-78178539D01*
X95636442Y-78164266D01*
X95607898Y-78149994D01*
X95579353Y-78149994D01*
X95550808Y-78164266D01*
X95536536Y-78178539D01*
X95522263Y-78207083D01*
X95507991Y-78264173D01*
X95493719Y-78292718D01*
X95479446Y-78306990D01*
X95450901Y-78321262D01*
X95422357Y-78321262D01*
X95393812Y-78306990D01*
X95379540Y-78292718D01*
X95365267Y-78264173D01*
X95365267Y-78192811D01*
X95379540Y-78149994D01*
X95664987Y-78021542D02*
X95365267Y-78021542D01*
X95579353Y-77921636D01*
X95365267Y-77821729D01*
X95664987Y-77821729D01*
X95507991Y-77579099D02*
X95522263Y-77536281D01*
X95536536Y-77522009D01*
X95565080Y-77507737D01*
X95607898Y-77507737D01*
X95636442Y-77522009D01*
X95650715Y-77536281D01*
X95664987Y-77564826D01*
X95664987Y-77679005D01*
X95365267Y-77679005D01*
X95365267Y-77579099D01*
X95379540Y-77550554D01*
X95393812Y-77536281D01*
X95422357Y-77522009D01*
X95450901Y-77522009D01*
X95479446Y-77536281D01*
X95493719Y-77550554D01*
X95507991Y-77579099D01*
X95507991Y-77679005D01*
X95365267Y-77293651D02*
X95579353Y-77293651D01*
X95622170Y-77307923D01*
X95650715Y-77336468D01*
X95664987Y-77379285D01*
X95664987Y-77407830D01*
X95365267Y-77008203D02*
X95365267Y-77150927D01*
X95507991Y-77165200D01*
X95493719Y-77150927D01*
X95479446Y-77122382D01*
X95479446Y-77051020D01*
X95493719Y-77022476D01*
X95507991Y-77008203D01*
X95536536Y-76993931D01*
X95607898Y-76993931D01*
X95636442Y-77008203D01*
X95650715Y-77022476D01*
X95664987Y-77051020D01*
X95664987Y-77122382D01*
X95650715Y-77150927D01*
X95636442Y-77165200D01*
X95636442Y-76865480D02*
X95650715Y-76851207D01*
X95664987Y-76865480D01*
X95650715Y-76879752D01*
X95636442Y-76865480D01*
X95664987Y-76865480D01*
X95365267Y-76665666D02*
X95365267Y-76637121D01*
X95379540Y-76608577D01*
X95393812Y-76594304D01*
X95422357Y-76580032D01*
X95479446Y-76565760D01*
X95550808Y-76565760D01*
X95607898Y-76580032D01*
X95636442Y-76594304D01*
X95650715Y-76608577D01*
X95664987Y-76637121D01*
X95664987Y-76665666D01*
X95650715Y-76694211D01*
X95636442Y-76708483D01*
X95607898Y-76722756D01*
X95550808Y-76737028D01*
X95479446Y-76737028D01*
X95422357Y-76722756D01*
X95393812Y-76708483D01*
X95379540Y-76694211D01*
X95365267Y-76665666D01*
X95636442Y-76266040D02*
X95650715Y-76280312D01*
X95664987Y-76323129D01*
X95664987Y-76351674D01*
X95650715Y-76394491D01*
X95622170Y-76423036D01*
X95593625Y-76437308D01*
X95536536Y-76451580D01*
X95493719Y-76451580D01*
X95436629Y-76437308D01*
X95408084Y-76423036D01*
X95379540Y-76394491D01*
X95365267Y-76351674D01*
X95365267Y-76323129D01*
X95379540Y-76280312D01*
X95393812Y-76266040D01*
X95579353Y-76151860D02*
X95579353Y-76009137D01*
X95664987Y-76180405D02*
X95365267Y-76080499D01*
X95664987Y-75980592D01*
D16*
G04 #@! TO.C,C2*
D14*
X86844142Y-51093666D02*
X86891761Y-51141285D01*
X86939380Y-51284142D01*
X86939380Y-51379380D01*
X86891761Y-51522238D01*
X86796523Y-51617476D01*
X86701285Y-51665095D01*
X86510809Y-51712714D01*
X86367952Y-51712714D01*
X86177476Y-51665095D01*
X86082238Y-51617476D01*
X85987000Y-51522238D01*
X85939380Y-51379380D01*
X85939380Y-51284142D01*
X85987000Y-51141285D01*
X86034619Y-51093666D01*
X86034619Y-50712714D02*
X85987000Y-50665095D01*
X85939380Y-50569857D01*
X85939380Y-50331761D01*
X85987000Y-50236523D01*
X86034619Y-50188904D01*
X86129857Y-50141285D01*
X86225095Y-50141285D01*
X86367952Y-50188904D01*
X86939380Y-50760333D01*
X86939380Y-50141285D01*
G04 #@! TO.C,C1*
X99036142Y-51220666D02*
X99083761Y-51268285D01*
X99131380Y-51411142D01*
X99131380Y-51506380D01*
X99083761Y-51649238D01*
X98988523Y-51744476D01*
X98893285Y-51792095D01*
X98702809Y-51839714D01*
X98559952Y-51839714D01*
X98369476Y-51792095D01*
X98274238Y-51744476D01*
X98179000Y-51649238D01*
X98131380Y-51506380D01*
X98131380Y-51411142D01*
X98179000Y-51268285D01*
X98226619Y-51220666D01*
X99131380Y-50268285D02*
X99131380Y-50839714D01*
X99131380Y-50554000D02*
X98131380Y-50554000D01*
X98274238Y-50649238D01*
X98369476Y-50744476D01*
X98417095Y-50839714D01*
G04 #@! TO.C,J11*
X107902476Y-69048380D02*
X107902476Y-69762666D01*
X107854857Y-69905523D01*
X107759619Y-70000761D01*
X107616761Y-70048380D01*
X107521523Y-70048380D01*
X108902476Y-70048380D02*
X108331047Y-70048380D01*
X108616761Y-70048380D02*
X108616761Y-69048380D01*
X108521523Y-69191238D01*
X108426285Y-69286476D01*
X108331047Y-69334095D01*
X109854857Y-70048380D02*
X109283428Y-70048380D01*
X109569142Y-70048380D02*
X109569142Y-69048380D01*
X109473904Y-69191238D01*
X109378666Y-69286476D01*
X109283428Y-69334095D01*
G04 #@! TO.C,J9*
X75358666Y-67734380D02*
X75358666Y-68448666D01*
X75311047Y-68591523D01*
X75215809Y-68686761D01*
X75072952Y-68734380D01*
X74977714Y-68734380D01*
X75882476Y-68734380D02*
X76072952Y-68734380D01*
X76168190Y-68686761D01*
X76215809Y-68639142D01*
X76311047Y-68496285D01*
X76358666Y-68305809D01*
X76358666Y-67924857D01*
X76311047Y-67829619D01*
X76263428Y-67782000D01*
X76168190Y-67734380D01*
X75977714Y-67734380D01*
X75882476Y-67782000D01*
X75834857Y-67829619D01*
X75787238Y-67924857D01*
X75787238Y-68162952D01*
X75834857Y-68258190D01*
X75882476Y-68305809D01*
X75977714Y-68353428D01*
X76168190Y-68353428D01*
X76263428Y-68305809D01*
X76311047Y-68258190D01*
X76358666Y-68162952D01*
G04 #@! TO.C,D3*
X86637904Y-64428380D02*
X86637904Y-63428380D01*
X86876000Y-63428380D01*
X87018857Y-63476000D01*
X87114095Y-63571238D01*
X87161714Y-63666476D01*
X87209333Y-63856952D01*
X87209333Y-63999809D01*
X87161714Y-64190285D01*
X87114095Y-64285523D01*
X87018857Y-64380761D01*
X86876000Y-64428380D01*
X86637904Y-64428380D01*
X87542666Y-63428380D02*
X88161714Y-63428380D01*
X87828380Y-63809333D01*
X87971238Y-63809333D01*
X88066476Y-63856952D01*
X88114095Y-63904571D01*
X88161714Y-63999809D01*
X88161714Y-64237904D01*
X88114095Y-64333142D01*
X88066476Y-64380761D01*
X87971238Y-64428380D01*
X87685523Y-64428380D01*
X87590285Y-64380761D01*
X87542666Y-64333142D01*
G04 #@! TO.C,Q2*
X96424761Y-60381619D02*
X96329523Y-60334000D01*
X96234285Y-60238761D01*
X96091428Y-60095904D01*
X95996190Y-60048285D01*
X95900952Y-60048285D01*
X95948571Y-60286380D02*
X95853333Y-60238761D01*
X95758095Y-60143523D01*
X95710476Y-59953047D01*
X95710476Y-59619714D01*
X95758095Y-59429238D01*
X95853333Y-59334000D01*
X95948571Y-59286380D01*
X96139047Y-59286380D01*
X96234285Y-59334000D01*
X96329523Y-59429238D01*
X96377142Y-59619714D01*
X96377142Y-59953047D01*
X96329523Y-60143523D01*
X96234285Y-60238761D01*
X96139047Y-60286380D01*
X95948571Y-60286380D01*
X96758095Y-59381619D02*
X96805714Y-59334000D01*
X96900952Y-59286380D01*
X97139047Y-59286380D01*
X97234285Y-59334000D01*
X97281904Y-59381619D01*
X97329523Y-59476857D01*
X97329523Y-59572095D01*
X97281904Y-59714952D01*
X96710476Y-60286380D01*
X97329523Y-60286380D01*
G04 #@! TO.C,Q1*
X108988619Y-57245238D02*
X108941000Y-57340476D01*
X108845761Y-57435714D01*
X108702904Y-57578571D01*
X108655285Y-57673809D01*
X108655285Y-57769047D01*
X108893380Y-57721428D02*
X108845761Y-57816666D01*
X108750523Y-57911904D01*
X108560047Y-57959523D01*
X108226714Y-57959523D01*
X108036238Y-57911904D01*
X107941000Y-57816666D01*
X107893380Y-57721428D01*
X107893380Y-57530952D01*
X107941000Y-57435714D01*
X108036238Y-57340476D01*
X108226714Y-57292857D01*
X108560047Y-57292857D01*
X108750523Y-57340476D01*
X108845761Y-57435714D01*
X108893380Y-57530952D01*
X108893380Y-57721428D01*
X108893380Y-56340476D02*
X108893380Y-56911904D01*
X108893380Y-56626190D02*
X107893380Y-56626190D01*
X108036238Y-56721428D01*
X108131476Y-56816666D01*
X108179095Y-56911904D01*
G04 #@! TO.C,Q5*
X83470761Y-56721619D02*
X83375523Y-56674000D01*
X83280285Y-56578761D01*
X83137428Y-56435904D01*
X83042190Y-56388285D01*
X82946952Y-56388285D01*
X82994571Y-56626380D02*
X82899333Y-56578761D01*
X82804095Y-56483523D01*
X82756476Y-56293047D01*
X82756476Y-55959714D01*
X82804095Y-55769238D01*
X82899333Y-55674000D01*
X82994571Y-55626380D01*
X83185047Y-55626380D01*
X83280285Y-55674000D01*
X83375523Y-55769238D01*
X83423142Y-55959714D01*
X83423142Y-56293047D01*
X83375523Y-56483523D01*
X83280285Y-56578761D01*
X83185047Y-56626380D01*
X82994571Y-56626380D01*
X84327904Y-55626380D02*
X83851714Y-55626380D01*
X83804095Y-56102571D01*
X83851714Y-56054952D01*
X83946952Y-56007333D01*
X84185047Y-56007333D01*
X84280285Y-56054952D01*
X84327904Y-56102571D01*
X84375523Y-56197809D01*
X84375523Y-56435904D01*
X84327904Y-56531142D01*
X84280285Y-56578761D01*
X84185047Y-56626380D01*
X83946952Y-56626380D01*
X83851714Y-56578761D01*
X83804095Y-56531142D01*
G04 #@! TO.C,Q4*
X87709619Y-55340238D02*
X87662000Y-55435476D01*
X87566761Y-55530714D01*
X87423904Y-55673571D01*
X87376285Y-55768809D01*
X87376285Y-55864047D01*
X87614380Y-55816428D02*
X87566761Y-55911666D01*
X87471523Y-56006904D01*
X87281047Y-56054523D01*
X86947714Y-56054523D01*
X86757238Y-56006904D01*
X86662000Y-55911666D01*
X86614380Y-55816428D01*
X86614380Y-55625952D01*
X86662000Y-55530714D01*
X86757238Y-55435476D01*
X86947714Y-55387857D01*
X87281047Y-55387857D01*
X87471523Y-55435476D01*
X87566761Y-55530714D01*
X87614380Y-55625952D01*
X87614380Y-55816428D01*
X86947714Y-54530714D02*
X87614380Y-54530714D01*
X86566761Y-54768809D02*
X87281047Y-55006904D01*
X87281047Y-54387857D01*
G04 #@! TO.C,Q3*
X94567619Y-57372238D02*
X94520000Y-57467476D01*
X94424761Y-57562714D01*
X94281904Y-57705571D01*
X94234285Y-57800809D01*
X94234285Y-57896047D01*
X94472380Y-57848428D02*
X94424761Y-57943666D01*
X94329523Y-58038904D01*
X94139047Y-58086523D01*
X93805714Y-58086523D01*
X93615238Y-58038904D01*
X93520000Y-57943666D01*
X93472380Y-57848428D01*
X93472380Y-57657952D01*
X93520000Y-57562714D01*
X93615238Y-57467476D01*
X93805714Y-57419857D01*
X94139047Y-57419857D01*
X94329523Y-57467476D01*
X94424761Y-57562714D01*
X94472380Y-57657952D01*
X94472380Y-57848428D01*
X93472380Y-57086523D02*
X93472380Y-56467476D01*
X93853333Y-56800809D01*
X93853333Y-56657952D01*
X93900952Y-56562714D01*
X93948571Y-56515095D01*
X94043809Y-56467476D01*
X94281904Y-56467476D01*
X94377142Y-56515095D01*
X94424761Y-56562714D01*
X94472380Y-56657952D01*
X94472380Y-56943666D01*
X94424761Y-57038904D01*
X94377142Y-57086523D01*
G04 #@! TO.C,R2*
X90749380Y-65063666D02*
X90273190Y-65397000D01*
X90749380Y-65635095D02*
X89749380Y-65635095D01*
X89749380Y-65254142D01*
X89797000Y-65158904D01*
X89844619Y-65111285D01*
X89939857Y-65063666D01*
X90082714Y-65063666D01*
X90177952Y-65111285D01*
X90225571Y-65158904D01*
X90273190Y-65254142D01*
X90273190Y-65635095D01*
X89844619Y-64682714D02*
X89797000Y-64635095D01*
X89749380Y-64539857D01*
X89749380Y-64301761D01*
X89797000Y-64206523D01*
X89844619Y-64158904D01*
X89939857Y-64111285D01*
X90035095Y-64111285D01*
X90177952Y-64158904D01*
X90749380Y-64730333D01*
X90749380Y-64111285D01*
G04 #@! TO.C,R3*
X100925333Y-55918380D02*
X100592000Y-55442190D01*
X100353904Y-55918380D02*
X100353904Y-54918380D01*
X100734857Y-54918380D01*
X100830095Y-54966000D01*
X100877714Y-55013619D01*
X100925333Y-55108857D01*
X100925333Y-55251714D01*
X100877714Y-55346952D01*
X100830095Y-55394571D01*
X100734857Y-55442190D01*
X100353904Y-55442190D01*
X101258666Y-54918380D02*
X101877714Y-54918380D01*
X101544380Y-55299333D01*
X101687238Y-55299333D01*
X101782476Y-55346952D01*
X101830095Y-55394571D01*
X101877714Y-55489809D01*
X101877714Y-55727904D01*
X101830095Y-55823142D01*
X101782476Y-55870761D01*
X101687238Y-55918380D01*
X101401523Y-55918380D01*
X101306285Y-55870761D01*
X101258666Y-55823142D01*
G04 #@! TO.C,R6*
X98131333Y-54300380D02*
X97798000Y-53824190D01*
X97559904Y-54300380D02*
X97559904Y-53300380D01*
X97940857Y-53300380D01*
X98036095Y-53348000D01*
X98083714Y-53395619D01*
X98131333Y-53490857D01*
X98131333Y-53633714D01*
X98083714Y-53728952D01*
X98036095Y-53776571D01*
X97940857Y-53824190D01*
X97559904Y-53824190D01*
X98988476Y-53300380D02*
X98798000Y-53300380D01*
X98702761Y-53348000D01*
X98655142Y-53395619D01*
X98559904Y-53538476D01*
X98512285Y-53728952D01*
X98512285Y-54109904D01*
X98559904Y-54205142D01*
X98607523Y-54252761D01*
X98702761Y-54300380D01*
X98893238Y-54300380D01*
X98988476Y-54252761D01*
X99036095Y-54205142D01*
X99083714Y-54109904D01*
X99083714Y-53871809D01*
X99036095Y-53776571D01*
X98988476Y-53728952D01*
X98893238Y-53681333D01*
X98702761Y-53681333D01*
X98607523Y-53728952D01*
X98559904Y-53776571D01*
X98512285Y-53871809D01*
G04 #@! TO.C,R4*
X90876380Y-61888666D02*
X90400190Y-62222000D01*
X90876380Y-62460095D02*
X89876380Y-62460095D01*
X89876380Y-62079142D01*
X89924000Y-61983904D01*
X89971619Y-61936285D01*
X90066857Y-61888666D01*
X90209714Y-61888666D01*
X90304952Y-61936285D01*
X90352571Y-61983904D01*
X90400190Y-62079142D01*
X90400190Y-62460095D01*
X90209714Y-61031523D02*
X90876380Y-61031523D01*
X89828761Y-61269619D02*
X90543047Y-61507714D01*
X90543047Y-60888666D01*
G04 #@! TO.C,R7*
X105621333Y-39568380D02*
X105288000Y-39092190D01*
X105049904Y-39568380D02*
X105049904Y-38568380D01*
X105430857Y-38568380D01*
X105526095Y-38616000D01*
X105573714Y-38663619D01*
X105621333Y-38758857D01*
X105621333Y-38901714D01*
X105573714Y-38996952D01*
X105526095Y-39044571D01*
X105430857Y-39092190D01*
X105049904Y-39092190D01*
X105954666Y-38568380D02*
X106621333Y-38568380D01*
X106192761Y-39568380D01*
G04 #@! TO.C,D1*
D15*
X100709427Y-77386421D02*
X100409707Y-77386421D01*
X100409707Y-77315060D01*
X100423980Y-77272242D01*
X100452524Y-77243698D01*
X100481069Y-77229425D01*
X100538159Y-77215153D01*
X100580976Y-77215153D01*
X100638065Y-77229425D01*
X100666610Y-77243698D01*
X100695155Y-77272242D01*
X100709427Y-77315060D01*
X100709427Y-77386421D01*
X100709427Y-76929705D02*
X100709427Y-77100974D01*
X100709427Y-77015340D02*
X100409707Y-77015340D01*
X100452524Y-77043884D01*
X100481069Y-77072429D01*
X100495341Y-77100974D01*
D16*
D15*
X104794715Y-78321262D02*
X104808987Y-78278445D01*
X104808987Y-78207083D01*
X104794715Y-78178539D01*
X104780442Y-78164266D01*
X104751898Y-78149994D01*
X104723353Y-78149994D01*
X104694808Y-78164266D01*
X104680536Y-78178539D01*
X104666263Y-78207083D01*
X104651991Y-78264173D01*
X104637719Y-78292718D01*
X104623446Y-78306990D01*
X104594901Y-78321262D01*
X104566357Y-78321262D01*
X104537812Y-78306990D01*
X104523540Y-78292718D01*
X104509267Y-78264173D01*
X104509267Y-78192811D01*
X104523540Y-78149994D01*
X104808987Y-78021542D02*
X104509267Y-78021542D01*
X104723353Y-77921636D01*
X104509267Y-77821729D01*
X104808987Y-77821729D01*
X104651991Y-77579099D02*
X104666263Y-77536281D01*
X104680536Y-77522009D01*
X104709080Y-77507737D01*
X104751898Y-77507737D01*
X104780442Y-77522009D01*
X104794715Y-77536281D01*
X104808987Y-77564826D01*
X104808987Y-77679005D01*
X104509267Y-77679005D01*
X104509267Y-77579099D01*
X104523540Y-77550554D01*
X104537812Y-77536281D01*
X104566357Y-77522009D01*
X104594901Y-77522009D01*
X104623446Y-77536281D01*
X104637719Y-77550554D01*
X104651991Y-77579099D01*
X104651991Y-77679005D01*
X104509267Y-77293651D02*
X104723353Y-77293651D01*
X104766170Y-77307923D01*
X104794715Y-77336468D01*
X104808987Y-77379285D01*
X104808987Y-77407830D01*
X104509267Y-77008203D02*
X104509267Y-77150927D01*
X104651991Y-77165200D01*
X104637719Y-77150927D01*
X104623446Y-77122382D01*
X104623446Y-77051020D01*
X104637719Y-77022476D01*
X104651991Y-77008203D01*
X104680536Y-76993931D01*
X104751898Y-76993931D01*
X104780442Y-77008203D01*
X104794715Y-77022476D01*
X104808987Y-77051020D01*
X104808987Y-77122382D01*
X104794715Y-77150927D01*
X104780442Y-77165200D01*
X104780442Y-76865480D02*
X104794715Y-76851207D01*
X104808987Y-76865480D01*
X104794715Y-76879752D01*
X104780442Y-76865480D01*
X104808987Y-76865480D01*
X104509267Y-76665666D02*
X104509267Y-76637121D01*
X104523540Y-76608577D01*
X104537812Y-76594304D01*
X104566357Y-76580032D01*
X104623446Y-76565760D01*
X104694808Y-76565760D01*
X104751898Y-76580032D01*
X104780442Y-76594304D01*
X104794715Y-76608577D01*
X104808987Y-76637121D01*
X104808987Y-76665666D01*
X104794715Y-76694211D01*
X104780442Y-76708483D01*
X104751898Y-76722756D01*
X104694808Y-76737028D01*
X104623446Y-76737028D01*
X104566357Y-76722756D01*
X104537812Y-76708483D01*
X104523540Y-76694211D01*
X104509267Y-76665666D01*
X104780442Y-76266040D02*
X104794715Y-76280312D01*
X104808987Y-76323129D01*
X104808987Y-76351674D01*
X104794715Y-76394491D01*
X104766170Y-76423036D01*
X104737625Y-76437308D01*
X104680536Y-76451580D01*
X104637719Y-76451580D01*
X104580629Y-76437308D01*
X104552084Y-76423036D01*
X104523540Y-76394491D01*
X104509267Y-76351674D01*
X104509267Y-76323129D01*
X104523540Y-76280312D01*
X104537812Y-76266040D01*
X104723353Y-76151860D02*
X104723353Y-76009137D01*
X104808987Y-76180405D02*
X104509267Y-76080499D01*
X104808987Y-75980592D01*
D16*
G04 #@! TO.C,D2*
D15*
X86993427Y-77386421D02*
X86693707Y-77386421D01*
X86693707Y-77315060D01*
X86707980Y-77272242D01*
X86736524Y-77243698D01*
X86765069Y-77229425D01*
X86822159Y-77215153D01*
X86864976Y-77215153D01*
X86922065Y-77229425D01*
X86950610Y-77243698D01*
X86979155Y-77272242D01*
X86993427Y-77315060D01*
X86993427Y-77386421D01*
X86722252Y-77100974D02*
X86707980Y-77086701D01*
X86693707Y-77058157D01*
X86693707Y-76986795D01*
X86707980Y-76958250D01*
X86722252Y-76943978D01*
X86750797Y-76929705D01*
X86779341Y-76929705D01*
X86822159Y-76943978D01*
X86993427Y-77115246D01*
X86993427Y-76929705D01*
D16*
D15*
X91078715Y-78321262D02*
X91092987Y-78278445D01*
X91092987Y-78207083D01*
X91078715Y-78178539D01*
X91064442Y-78164266D01*
X91035898Y-78149994D01*
X91007353Y-78149994D01*
X90978808Y-78164266D01*
X90964536Y-78178539D01*
X90950263Y-78207083D01*
X90935991Y-78264173D01*
X90921719Y-78292718D01*
X90907446Y-78306990D01*
X90878901Y-78321262D01*
X90850357Y-78321262D01*
X90821812Y-78306990D01*
X90807540Y-78292718D01*
X90793267Y-78264173D01*
X90793267Y-78192811D01*
X90807540Y-78149994D01*
X91092987Y-78021542D02*
X90793267Y-78021542D01*
X91007353Y-77921636D01*
X90793267Y-77821729D01*
X91092987Y-77821729D01*
X90935991Y-77579099D02*
X90950263Y-77536281D01*
X90964536Y-77522009D01*
X90993080Y-77507737D01*
X91035898Y-77507737D01*
X91064442Y-77522009D01*
X91078715Y-77536281D01*
X91092987Y-77564826D01*
X91092987Y-77679005D01*
X90793267Y-77679005D01*
X90793267Y-77579099D01*
X90807540Y-77550554D01*
X90821812Y-77536281D01*
X90850357Y-77522009D01*
X90878901Y-77522009D01*
X90907446Y-77536281D01*
X90921719Y-77550554D01*
X90935991Y-77579099D01*
X90935991Y-77679005D01*
X90793267Y-77293651D02*
X91007353Y-77293651D01*
X91050170Y-77307923D01*
X91078715Y-77336468D01*
X91092987Y-77379285D01*
X91092987Y-77407830D01*
X90793267Y-77008203D02*
X90793267Y-77150927D01*
X90935991Y-77165200D01*
X90921719Y-77150927D01*
X90907446Y-77122382D01*
X90907446Y-77051020D01*
X90921719Y-77022476D01*
X90935991Y-77008203D01*
X90964536Y-76993931D01*
X91035898Y-76993931D01*
X91064442Y-77008203D01*
X91078715Y-77022476D01*
X91092987Y-77051020D01*
X91092987Y-77122382D01*
X91078715Y-77150927D01*
X91064442Y-77165200D01*
X91064442Y-76865480D02*
X91078715Y-76851207D01*
X91092987Y-76865480D01*
X91078715Y-76879752D01*
X91064442Y-76865480D01*
X91092987Y-76865480D01*
X90793267Y-76665666D02*
X90793267Y-76637121D01*
X90807540Y-76608577D01*
X90821812Y-76594304D01*
X90850357Y-76580032D01*
X90907446Y-76565760D01*
X90978808Y-76565760D01*
X91035898Y-76580032D01*
X91064442Y-76594304D01*
X91078715Y-76608577D01*
X91092987Y-76637121D01*
X91092987Y-76665666D01*
X91078715Y-76694211D01*
X91064442Y-76708483D01*
X91035898Y-76722756D01*
X90978808Y-76737028D01*
X90907446Y-76737028D01*
X90850357Y-76722756D01*
X90821812Y-76708483D01*
X90807540Y-76694211D01*
X90793267Y-76665666D01*
X91064442Y-76266040D02*
X91078715Y-76280312D01*
X91092987Y-76323129D01*
X91092987Y-76351674D01*
X91078715Y-76394491D01*
X91050170Y-76423036D01*
X91021625Y-76437308D01*
X90964536Y-76451580D01*
X90921719Y-76451580D01*
X90864629Y-76437308D01*
X90836084Y-76423036D01*
X90807540Y-76394491D01*
X90793267Y-76351674D01*
X90793267Y-76323129D01*
X90807540Y-76280312D01*
X90821812Y-76266040D01*
X91007353Y-76151860D02*
X91007353Y-76009137D01*
X91092987Y-76180405D02*
X90793267Y-76080499D01*
X91092987Y-75980592D01*
D16*
G04 #@! TO.C,D4*
D15*
X96264427Y-77386421D02*
X95964707Y-77386421D01*
X95964707Y-77315060D01*
X95978980Y-77272242D01*
X96007524Y-77243698D01*
X96036069Y-77229425D01*
X96093159Y-77215153D01*
X96135976Y-77215153D01*
X96193065Y-77229425D01*
X96221610Y-77243698D01*
X96250155Y-77272242D01*
X96264427Y-77315060D01*
X96264427Y-77386421D01*
X96064614Y-76958250D02*
X96264427Y-76958250D01*
X95950435Y-77029612D02*
X96164520Y-77100974D01*
X96164520Y-76915433D01*
D16*
D15*
X100349715Y-78321262D02*
X100363987Y-78278445D01*
X100363987Y-78207083D01*
X100349715Y-78178539D01*
X100335442Y-78164266D01*
X100306898Y-78149994D01*
X100278353Y-78149994D01*
X100249808Y-78164266D01*
X100235536Y-78178539D01*
X100221263Y-78207083D01*
X100206991Y-78264173D01*
X100192719Y-78292718D01*
X100178446Y-78306990D01*
X100149901Y-78321262D01*
X100121357Y-78321262D01*
X100092812Y-78306990D01*
X100078540Y-78292718D01*
X100064267Y-78264173D01*
X100064267Y-78192811D01*
X100078540Y-78149994D01*
X100363987Y-78021542D02*
X100064267Y-78021542D01*
X100278353Y-77921636D01*
X100064267Y-77821729D01*
X100363987Y-77821729D01*
X100206991Y-77579099D02*
X100221263Y-77536281D01*
X100235536Y-77522009D01*
X100264080Y-77507737D01*
X100306898Y-77507737D01*
X100335442Y-77522009D01*
X100349715Y-77536281D01*
X100363987Y-77564826D01*
X100363987Y-77679005D01*
X100064267Y-77679005D01*
X100064267Y-77579099D01*
X100078540Y-77550554D01*
X100092812Y-77536281D01*
X100121357Y-77522009D01*
X100149901Y-77522009D01*
X100178446Y-77536281D01*
X100192719Y-77550554D01*
X100206991Y-77579099D01*
X100206991Y-77679005D01*
X100064267Y-77293651D02*
X100278353Y-77293651D01*
X100321170Y-77307923D01*
X100349715Y-77336468D01*
X100363987Y-77379285D01*
X100363987Y-77407830D01*
X100064267Y-77008203D02*
X100064267Y-77150927D01*
X100206991Y-77165200D01*
X100192719Y-77150927D01*
X100178446Y-77122382D01*
X100178446Y-77051020D01*
X100192719Y-77022476D01*
X100206991Y-77008203D01*
X100235536Y-76993931D01*
X100306898Y-76993931D01*
X100335442Y-77008203D01*
X100349715Y-77022476D01*
X100363987Y-77051020D01*
X100363987Y-77122382D01*
X100349715Y-77150927D01*
X100335442Y-77165200D01*
X100335442Y-76865480D02*
X100349715Y-76851207D01*
X100363987Y-76865480D01*
X100349715Y-76879752D01*
X100335442Y-76865480D01*
X100363987Y-76865480D01*
X100064267Y-76665666D02*
X100064267Y-76637121D01*
X100078540Y-76608577D01*
X100092812Y-76594304D01*
X100121357Y-76580032D01*
X100178446Y-76565760D01*
X100249808Y-76565760D01*
X100306898Y-76580032D01*
X100335442Y-76594304D01*
X100349715Y-76608577D01*
X100363987Y-76637121D01*
X100363987Y-76665666D01*
X100349715Y-76694211D01*
X100335442Y-76708483D01*
X100306898Y-76722756D01*
X100249808Y-76737028D01*
X100178446Y-76737028D01*
X100121357Y-76722756D01*
X100092812Y-76708483D01*
X100078540Y-76694211D01*
X100064267Y-76665666D01*
X100335442Y-76266040D02*
X100349715Y-76280312D01*
X100363987Y-76323129D01*
X100363987Y-76351674D01*
X100349715Y-76394491D01*
X100321170Y-76423036D01*
X100292625Y-76437308D01*
X100235536Y-76451580D01*
X100192719Y-76451580D01*
X100135629Y-76437308D01*
X100107084Y-76423036D01*
X100078540Y-76394491D01*
X100064267Y-76351674D01*
X100064267Y-76323129D01*
X100078540Y-76280312D01*
X100092812Y-76266040D01*
X100278353Y-76151860D02*
X100278353Y-76009137D01*
X100363987Y-76180405D02*
X100064267Y-76080499D01*
X100363987Y-75980592D01*
D16*
G04 #@! TO.C,J10*
D17*
X97015380Y-80968904D02*
X97015380Y-81540333D01*
X96977285Y-81654619D01*
X96901095Y-81730809D01*
X96786809Y-81768904D01*
X96710619Y-81768904D01*
X97815380Y-81768904D02*
X97358238Y-81768904D01*
X97586809Y-81768904D02*
X97586809Y-80968904D01*
X97510619Y-81083190D01*
X97434428Y-81159380D01*
X97358238Y-81197476D01*
X98310619Y-80968904D02*
X98386809Y-80968904D01*
X98463000Y-81007000D01*
X98501095Y-81045095D01*
X98539190Y-81121285D01*
X98577285Y-81273666D01*
X98577285Y-81464142D01*
X98539190Y-81616523D01*
X98501095Y-81692714D01*
X98463000Y-81730809D01*
X98386809Y-81768904D01*
X98310619Y-81768904D01*
X98234428Y-81730809D01*
X98196333Y-81692714D01*
X98158238Y-81616523D01*
X98120142Y-81464142D01*
X98120142Y-81273666D01*
X98158238Y-81121285D01*
X98196333Y-81045095D01*
X98234428Y-81007000D01*
X98310619Y-80968904D01*
G04 #@! TO.C,R1*
D14*
X84018380Y-53125666D02*
X83542190Y-53459000D01*
X84018380Y-53697095D02*
X83018380Y-53697095D01*
X83018380Y-53316142D01*
X83066000Y-53220904D01*
X83113619Y-53173285D01*
X83208857Y-53125666D01*
X83351714Y-53125666D01*
X83446952Y-53173285D01*
X83494571Y-53220904D01*
X83542190Y-53316142D01*
X83542190Y-53697095D01*
X84018380Y-52173285D02*
X84018380Y-52744714D01*
X84018380Y-52459000D02*
X83018380Y-52459000D01*
X83161238Y-52554238D01*
X83256476Y-52649476D01*
X83304095Y-52744714D01*
G04 #@! TO.C,J3*
X76415380Y-47069333D02*
X77129666Y-47069333D01*
X77272523Y-47116952D01*
X77367761Y-47212190D01*
X77415380Y-47355047D01*
X77415380Y-47450285D01*
X76415380Y-46688380D02*
X76415380Y-46069333D01*
X76796333Y-46402666D01*
X76796333Y-46259809D01*
X76843952Y-46164571D01*
X76891571Y-46116952D01*
X76986809Y-46069333D01*
X77224904Y-46069333D01*
X77320142Y-46116952D01*
X77367761Y-46164571D01*
X77415380Y-46259809D01*
X77415380Y-46545523D01*
X77367761Y-46640761D01*
X77320142Y-46688380D01*
G04 #@! TO.C,J4*
X107666666Y-82952380D02*
X107666666Y-83666666D01*
X107619047Y-83809523D01*
X107523809Y-83904761D01*
X107380952Y-83952380D01*
X107285714Y-83952380D01*
X108571428Y-83285714D02*
X108571428Y-83952380D01*
X108333333Y-82904761D02*
X108095238Y-83619047D01*
X108714285Y-83619047D01*
G04 #@! TO.C,J8*
X98536380Y-39392333D02*
X99250666Y-39392333D01*
X99393523Y-39439952D01*
X99488761Y-39535190D01*
X99536380Y-39678047D01*
X99536380Y-39773285D01*
X98964952Y-38773285D02*
X98917333Y-38868523D01*
X98869714Y-38916142D01*
X98774476Y-38963761D01*
X98726857Y-38963761D01*
X98631619Y-38916142D01*
X98584000Y-38868523D01*
X98536380Y-38773285D01*
X98536380Y-38582809D01*
X98584000Y-38487571D01*
X98631619Y-38439952D01*
X98726857Y-38392333D01*
X98774476Y-38392333D01*
X98869714Y-38439952D01*
X98917333Y-38487571D01*
X98964952Y-38582809D01*
X98964952Y-38773285D01*
X99012571Y-38868523D01*
X99060190Y-38916142D01*
X99155428Y-38963761D01*
X99345904Y-38963761D01*
X99441142Y-38916142D01*
X99488761Y-38868523D01*
X99536380Y-38773285D01*
X99536380Y-38582809D01*
X99488761Y-38487571D01*
X99441142Y-38439952D01*
X99345904Y-38392333D01*
X99155428Y-38392333D01*
X99060190Y-38439952D01*
X99012571Y-38487571D01*
X98964952Y-38582809D01*
G04 #@! TO.C,R21*
X78811380Y-68308357D02*
X78335190Y-68641690D01*
X78811380Y-68879785D02*
X77811380Y-68879785D01*
X77811380Y-68498833D01*
X77859000Y-68403595D01*
X77906619Y-68355976D01*
X78001857Y-68308357D01*
X78144714Y-68308357D01*
X78239952Y-68355976D01*
X78287571Y-68403595D01*
X78335190Y-68498833D01*
X78335190Y-68879785D01*
X77906619Y-67927404D02*
X77859000Y-67879785D01*
X77811380Y-67784547D01*
X77811380Y-67546452D01*
X77859000Y-67451214D01*
X77906619Y-67403595D01*
X78001857Y-67355976D01*
X78097095Y-67355976D01*
X78239952Y-67403595D01*
X78811380Y-67975023D01*
X78811380Y-67355976D01*
X78811380Y-66403595D02*
X78811380Y-66975023D01*
X78811380Y-66689309D02*
X77811380Y-66689309D01*
X77954238Y-66784547D01*
X78049476Y-66879785D01*
X78097095Y-66975023D01*
G04 #@! TO.C,R22*
X82288142Y-70589380D02*
X81954809Y-70113190D01*
X81716714Y-70589380D02*
X81716714Y-69589380D01*
X82097666Y-69589380D01*
X82192904Y-69637000D01*
X82240523Y-69684619D01*
X82288142Y-69779857D01*
X82288142Y-69922714D01*
X82240523Y-70017952D01*
X82192904Y-70065571D01*
X82097666Y-70113190D01*
X81716714Y-70113190D01*
X82669095Y-69684619D02*
X82716714Y-69637000D01*
X82811952Y-69589380D01*
X83050047Y-69589380D01*
X83145285Y-69637000D01*
X83192904Y-69684619D01*
X83240523Y-69779857D01*
X83240523Y-69875095D01*
X83192904Y-70017952D01*
X82621476Y-70589380D01*
X83240523Y-70589380D01*
X83621476Y-69684619D02*
X83669095Y-69637000D01*
X83764333Y-69589380D01*
X84002428Y-69589380D01*
X84097666Y-69637000D01*
X84145285Y-69684619D01*
X84192904Y-69779857D01*
X84192904Y-69875095D01*
X84145285Y-70017952D01*
X83573857Y-70589380D01*
X84192904Y-70589380D01*
G04 #@! TO.C,J5*
X107666666Y-37952380D02*
X107666666Y-38666666D01*
X107619047Y-38809523D01*
X107523809Y-38904761D01*
X107380952Y-38952380D01*
X107285714Y-38952380D01*
X108619047Y-37952380D02*
X108142857Y-37952380D01*
X108095238Y-38428571D01*
X108142857Y-38380952D01*
X108238095Y-38333333D01*
X108476190Y-38333333D01*
X108571428Y-38380952D01*
X108619047Y-38428571D01*
X108666666Y-38523809D01*
X108666666Y-38761904D01*
X108619047Y-38857142D01*
X108571428Y-38904761D01*
X108476190Y-38952380D01*
X108238095Y-38952380D01*
X108142857Y-38904761D01*
X108095238Y-38857142D01*
G04 #@! TO.C,J6*
X74666666Y-82952380D02*
X74666666Y-83666666D01*
X74619047Y-83809523D01*
X74523809Y-83904761D01*
X74380952Y-83952380D01*
X74285714Y-83952380D01*
X75571428Y-82952380D02*
X75380952Y-82952380D01*
X75285714Y-83000000D01*
X75238095Y-83047619D01*
X75142857Y-83190476D01*
X75095238Y-83380952D01*
X75095238Y-83761904D01*
X75142857Y-83857142D01*
X75190476Y-83904761D01*
X75285714Y-83952380D01*
X75476190Y-83952380D01*
X75571428Y-83904761D01*
X75619047Y-83857142D01*
X75666666Y-83761904D01*
X75666666Y-83523809D01*
X75619047Y-83428571D01*
X75571428Y-83380952D01*
X75476190Y-83333333D01*
X75285714Y-83333333D01*
X75190476Y-83380952D01*
X75142857Y-83428571D01*
X75095238Y-83523809D01*
G04 #@! TO.C,J7*
X74666666Y-37952380D02*
X74666666Y-38666666D01*
X74619047Y-38809523D01*
X74523809Y-38904761D01*
X74380952Y-38952380D01*
X74285714Y-38952380D01*
X75047619Y-37952380D02*
X75714285Y-37952380D01*
X75285714Y-38952380D01*
G04 #@! TO.C,J2*
D17*
X83653333Y-81514190D02*
X83653333Y-81871333D01*
X83629523Y-81942761D01*
X83581904Y-81990380D01*
X83510476Y-82014190D01*
X83462857Y-82014190D01*
X83867619Y-81561809D02*
X83891428Y-81538000D01*
X83939047Y-81514190D01*
X84058095Y-81514190D01*
X84105714Y-81538000D01*
X84129523Y-81561809D01*
X84153333Y-81609428D01*
X84153333Y-81657047D01*
X84129523Y-81728476D01*
X83843809Y-82014190D01*
X84153333Y-82014190D01*
G04 #@! TO.C,R9*
D14*
X91908333Y-58872380D02*
X91575000Y-58396190D01*
X91336904Y-58872380D02*
X91336904Y-57872380D01*
X91717857Y-57872380D01*
X91813095Y-57920000D01*
X91860714Y-57967619D01*
X91908333Y-58062857D01*
X91908333Y-58205714D01*
X91860714Y-58300952D01*
X91813095Y-58348571D01*
X91717857Y-58396190D01*
X91336904Y-58396190D01*
X92384523Y-58872380D02*
X92575000Y-58872380D01*
X92670238Y-58824761D01*
X92717857Y-58777142D01*
X92813095Y-58634285D01*
X92860714Y-58443809D01*
X92860714Y-58062857D01*
X92813095Y-57967619D01*
X92765476Y-57920000D01*
X92670238Y-57872380D01*
X92479761Y-57872380D01*
X92384523Y-57920000D01*
X92336904Y-57967619D01*
X92289285Y-58062857D01*
X92289285Y-58300952D01*
X92336904Y-58396190D01*
X92384523Y-58443809D01*
X92479761Y-58491428D01*
X92670238Y-58491428D01*
X92765476Y-58443809D01*
X92813095Y-58396190D01*
X92860714Y-58300952D01*
G04 #@! TO.C,R8*
X84178380Y-63158666D02*
X83702190Y-63492000D01*
X84178380Y-63730095D02*
X83178380Y-63730095D01*
X83178380Y-63349142D01*
X83226000Y-63253904D01*
X83273619Y-63206285D01*
X83368857Y-63158666D01*
X83511714Y-63158666D01*
X83606952Y-63206285D01*
X83654571Y-63253904D01*
X83702190Y-63349142D01*
X83702190Y-63730095D01*
X83606952Y-62587238D02*
X83559333Y-62682476D01*
X83511714Y-62730095D01*
X83416476Y-62777714D01*
X83368857Y-62777714D01*
X83273619Y-62730095D01*
X83226000Y-62682476D01*
X83178380Y-62587238D01*
X83178380Y-62396761D01*
X83226000Y-62301523D01*
X83273619Y-62253904D01*
X83368857Y-62206285D01*
X83416476Y-62206285D01*
X83511714Y-62253904D01*
X83559333Y-62301523D01*
X83606952Y-62396761D01*
X83606952Y-62587238D01*
X83654571Y-62682476D01*
X83702190Y-62730095D01*
X83797428Y-62777714D01*
X83987904Y-62777714D01*
X84083142Y-62730095D01*
X84130761Y-62682476D01*
X84178380Y-62587238D01*
X84178380Y-62396761D01*
X84130761Y-62301523D01*
X84083142Y-62253904D01*
X83987904Y-62206285D01*
X83797428Y-62206285D01*
X83702190Y-62253904D01*
X83654571Y-62301523D01*
X83606952Y-62396761D01*
G04 #@! TO.C,U1*
X76023095Y-50176380D02*
X76023095Y-50985904D01*
X76070714Y-51081142D01*
X76118333Y-51128761D01*
X76213571Y-51176380D01*
X76404047Y-51176380D01*
X76499285Y-51128761D01*
X76546904Y-51081142D01*
X76594523Y-50985904D01*
X76594523Y-50176380D01*
X77594523Y-51176380D02*
X77023095Y-51176380D01*
X77308809Y-51176380D02*
X77308809Y-50176380D01*
X77213571Y-50319238D01*
X77118333Y-50414476D01*
X77023095Y-50462095D01*
G04 #@! TD*
M02*
