G04 #@! TF.GenerationSoftware,KiCad,Pcbnew,(5.0.2)-1*
G04 #@! TF.CreationDate,2020-03-11T11:41:09-07:00*
G04 #@! TF.ProjectId,powerControl,706f7765-7243-46f6-9e74-726f6c2e6b69,rev?*
G04 #@! TF.SameCoordinates,Original*
G04 #@! TF.FileFunction,Soldermask,Bot*
G04 #@! TF.FilePolarity,Negative*
%FSLAX46Y46*%
G04 Gerber Fmt 4.6, Leading zero omitted, Abs format (unit mm)*
G04 Created by KiCad (PCBNEW (5.0.2)-1) date 3/11/2020 11:41:09 AM*
%MOMM*%
%LPD*%
G01*
G04 APERTURE LIST*
%ADD10C,0.100000*%
G04 APERTURE END LIST*
D10*
G36*
X108268327Y-81187521D02*
X108533791Y-81240325D01*
X108866830Y-81378275D01*
X109166557Y-81578546D01*
X109421454Y-81833443D01*
X109621725Y-82133170D01*
X109759675Y-82466209D01*
X109811192Y-82725205D01*
X109830000Y-82819759D01*
X109830000Y-83180241D01*
X109819900Y-83231018D01*
X109759675Y-83533791D01*
X109621725Y-83866830D01*
X109421454Y-84166557D01*
X109166557Y-84421454D01*
X108866830Y-84621725D01*
X108533791Y-84759675D01*
X108268327Y-84812479D01*
X108180241Y-84830000D01*
X107819759Y-84830000D01*
X107731673Y-84812479D01*
X107466209Y-84759675D01*
X107133170Y-84621725D01*
X106833443Y-84421454D01*
X106578546Y-84166557D01*
X106378275Y-83866830D01*
X106240325Y-83533791D01*
X106180100Y-83231018D01*
X106170000Y-83180241D01*
X106170000Y-82819759D01*
X106188808Y-82725205D01*
X106240325Y-82466209D01*
X106378275Y-82133170D01*
X106578546Y-81833443D01*
X106833443Y-81578546D01*
X107133170Y-81378275D01*
X107466209Y-81240325D01*
X107731673Y-81187521D01*
X107819759Y-81170000D01*
X108180241Y-81170000D01*
X108268327Y-81187521D01*
X108268327Y-81187521D01*
G37*
G36*
X75268327Y-81187521D02*
X75533791Y-81240325D01*
X75866830Y-81378275D01*
X76166557Y-81578546D01*
X76421454Y-81833443D01*
X76621725Y-82133170D01*
X76759675Y-82466209D01*
X76811192Y-82725205D01*
X76830000Y-82819759D01*
X76830000Y-83180241D01*
X76819900Y-83231018D01*
X76759675Y-83533791D01*
X76621725Y-83866830D01*
X76421454Y-84166557D01*
X76166557Y-84421454D01*
X75866830Y-84621725D01*
X75533791Y-84759675D01*
X75268327Y-84812479D01*
X75180241Y-84830000D01*
X74819759Y-84830000D01*
X74731673Y-84812479D01*
X74466209Y-84759675D01*
X74133170Y-84621725D01*
X73833443Y-84421454D01*
X73578546Y-84166557D01*
X73378275Y-83866830D01*
X73240325Y-83533791D01*
X73180100Y-83231018D01*
X73170000Y-83180241D01*
X73170000Y-82819759D01*
X73188808Y-82725205D01*
X73240325Y-82466209D01*
X73378275Y-82133170D01*
X73578546Y-81833443D01*
X73833443Y-81578546D01*
X74133170Y-81378275D01*
X74466209Y-81240325D01*
X74731673Y-81187521D01*
X74819759Y-81170000D01*
X75180241Y-81170000D01*
X75268327Y-81187521D01*
X75268327Y-81187521D01*
G37*
G36*
X80617352Y-82034743D02*
X80762941Y-82095048D01*
X80893973Y-82182601D01*
X81005401Y-82294029D01*
X81030067Y-82330944D01*
X81045612Y-82349886D01*
X81064554Y-82365431D01*
X81086165Y-82376982D01*
X81109614Y-82384095D01*
X81134001Y-82386497D01*
X81158387Y-82384095D01*
X81181836Y-82376982D01*
X81203447Y-82365430D01*
X81222389Y-82349885D01*
X81237933Y-82330944D01*
X81262599Y-82294029D01*
X81374027Y-82182601D01*
X81505059Y-82095048D01*
X81650648Y-82034743D01*
X81805205Y-82004000D01*
X81962795Y-82004000D01*
X82117352Y-82034743D01*
X82262941Y-82095048D01*
X82393973Y-82182601D01*
X82505401Y-82294029D01*
X82530067Y-82330944D01*
X82545612Y-82349886D01*
X82564554Y-82365431D01*
X82586165Y-82376982D01*
X82609614Y-82384095D01*
X82634001Y-82386497D01*
X82658387Y-82384095D01*
X82681836Y-82376982D01*
X82703447Y-82365430D01*
X82722389Y-82349885D01*
X82737933Y-82330944D01*
X82762599Y-82294029D01*
X82874027Y-82182601D01*
X83005059Y-82095048D01*
X83150648Y-82034743D01*
X83305205Y-82004000D01*
X83462795Y-82004000D01*
X83617352Y-82034743D01*
X83762941Y-82095048D01*
X83893973Y-82182601D01*
X84005401Y-82294029D01*
X84030067Y-82330944D01*
X84045612Y-82349886D01*
X84064554Y-82365431D01*
X84086165Y-82376982D01*
X84109614Y-82384095D01*
X84134001Y-82386497D01*
X84158387Y-82384095D01*
X84181836Y-82376982D01*
X84203447Y-82365430D01*
X84222389Y-82349885D01*
X84237933Y-82330944D01*
X84262599Y-82294029D01*
X84374027Y-82182601D01*
X84505059Y-82095048D01*
X84650648Y-82034743D01*
X84805205Y-82004000D01*
X84962795Y-82004000D01*
X85117352Y-82034743D01*
X85262941Y-82095048D01*
X85393973Y-82182601D01*
X85505401Y-82294029D01*
X85530067Y-82330944D01*
X85545612Y-82349886D01*
X85564554Y-82365431D01*
X85586165Y-82376982D01*
X85609614Y-82384095D01*
X85634001Y-82386497D01*
X85658387Y-82384095D01*
X85681836Y-82376982D01*
X85703447Y-82365430D01*
X85722389Y-82349885D01*
X85737933Y-82330944D01*
X85762599Y-82294029D01*
X85874027Y-82182601D01*
X86005059Y-82095048D01*
X86150648Y-82034743D01*
X86305205Y-82004000D01*
X86462795Y-82004000D01*
X86617352Y-82034743D01*
X86762941Y-82095048D01*
X86893973Y-82182601D01*
X87005401Y-82294029D01*
X87030067Y-82330944D01*
X87045612Y-82349886D01*
X87064554Y-82365431D01*
X87086165Y-82376982D01*
X87109614Y-82384095D01*
X87134001Y-82386497D01*
X87158387Y-82384095D01*
X87181836Y-82376982D01*
X87203447Y-82365430D01*
X87222389Y-82349885D01*
X87237933Y-82330944D01*
X87262599Y-82294029D01*
X87374027Y-82182601D01*
X87505059Y-82095048D01*
X87650648Y-82034743D01*
X87805205Y-82004000D01*
X87962795Y-82004000D01*
X88117352Y-82034743D01*
X88262941Y-82095048D01*
X88393973Y-82182601D01*
X88505399Y-82294027D01*
X88592952Y-82425059D01*
X88653257Y-82570648D01*
X88684000Y-82725205D01*
X88684000Y-82882795D01*
X88653257Y-83037352D01*
X88592952Y-83182941D01*
X88505399Y-83313973D01*
X88393973Y-83425399D01*
X88262941Y-83512952D01*
X88117352Y-83573257D01*
X87962795Y-83604000D01*
X87805205Y-83604000D01*
X87650648Y-83573257D01*
X87505059Y-83512952D01*
X87374027Y-83425399D01*
X87262599Y-83313971D01*
X87237933Y-83277056D01*
X87222388Y-83258114D01*
X87203446Y-83242569D01*
X87181835Y-83231018D01*
X87158386Y-83223905D01*
X87133999Y-83221503D01*
X87109613Y-83223905D01*
X87086164Y-83231018D01*
X87064553Y-83242570D01*
X87045611Y-83258115D01*
X87030067Y-83277056D01*
X87005401Y-83313971D01*
X86893973Y-83425399D01*
X86762941Y-83512952D01*
X86617352Y-83573257D01*
X86462795Y-83604000D01*
X86305205Y-83604000D01*
X86150648Y-83573257D01*
X86005059Y-83512952D01*
X85874027Y-83425399D01*
X85762599Y-83313971D01*
X85737933Y-83277056D01*
X85722388Y-83258114D01*
X85703446Y-83242569D01*
X85681835Y-83231018D01*
X85658386Y-83223905D01*
X85633999Y-83221503D01*
X85609613Y-83223905D01*
X85586164Y-83231018D01*
X85564553Y-83242570D01*
X85545611Y-83258115D01*
X85530067Y-83277056D01*
X85505401Y-83313971D01*
X85393973Y-83425399D01*
X85262941Y-83512952D01*
X85117352Y-83573257D01*
X84962795Y-83604000D01*
X84805205Y-83604000D01*
X84650648Y-83573257D01*
X84505059Y-83512952D01*
X84374027Y-83425399D01*
X84262599Y-83313971D01*
X84237933Y-83277056D01*
X84222388Y-83258114D01*
X84203446Y-83242569D01*
X84181835Y-83231018D01*
X84158386Y-83223905D01*
X84133999Y-83221503D01*
X84109613Y-83223905D01*
X84086164Y-83231018D01*
X84064553Y-83242570D01*
X84045611Y-83258115D01*
X84030067Y-83277056D01*
X84005401Y-83313971D01*
X83893973Y-83425399D01*
X83762941Y-83512952D01*
X83617352Y-83573257D01*
X83462795Y-83604000D01*
X83305205Y-83604000D01*
X83150648Y-83573257D01*
X83005059Y-83512952D01*
X82874027Y-83425399D01*
X82762599Y-83313971D01*
X82737933Y-83277056D01*
X82722388Y-83258114D01*
X82703446Y-83242569D01*
X82681835Y-83231018D01*
X82658386Y-83223905D01*
X82633999Y-83221503D01*
X82609613Y-83223905D01*
X82586164Y-83231018D01*
X82564553Y-83242570D01*
X82545611Y-83258115D01*
X82530067Y-83277056D01*
X82505401Y-83313971D01*
X82393973Y-83425399D01*
X82262941Y-83512952D01*
X82117352Y-83573257D01*
X81962795Y-83604000D01*
X81805205Y-83604000D01*
X81650648Y-83573257D01*
X81505059Y-83512952D01*
X81374027Y-83425399D01*
X81262599Y-83313971D01*
X81237933Y-83277056D01*
X81222388Y-83258114D01*
X81203446Y-83242569D01*
X81181835Y-83231018D01*
X81158386Y-83223905D01*
X81133999Y-83221503D01*
X81109613Y-83223905D01*
X81086164Y-83231018D01*
X81064553Y-83242570D01*
X81045611Y-83258115D01*
X81030067Y-83277056D01*
X81005401Y-83313971D01*
X80893973Y-83425399D01*
X80762941Y-83512952D01*
X80617352Y-83573257D01*
X80462795Y-83604000D01*
X80305205Y-83604000D01*
X80150648Y-83573257D01*
X80005059Y-83512952D01*
X79874027Y-83425399D01*
X79762601Y-83313973D01*
X79675048Y-83182941D01*
X79614743Y-83037352D01*
X79584000Y-82882795D01*
X79584000Y-82725205D01*
X79614743Y-82570648D01*
X79675048Y-82425059D01*
X79762601Y-82294027D01*
X79874027Y-82182601D01*
X80005059Y-82095048D01*
X80150648Y-82034743D01*
X80305205Y-82004000D01*
X80462795Y-82004000D01*
X80617352Y-82034743D01*
X80617352Y-82034743D01*
G37*
G36*
X94333352Y-82034743D02*
X94478941Y-82095048D01*
X94609973Y-82182601D01*
X94721401Y-82294029D01*
X94746067Y-82330944D01*
X94761612Y-82349886D01*
X94780554Y-82365431D01*
X94802165Y-82376982D01*
X94825614Y-82384095D01*
X94850001Y-82386497D01*
X94874387Y-82384095D01*
X94897836Y-82376982D01*
X94919447Y-82365430D01*
X94938389Y-82349885D01*
X94953933Y-82330944D01*
X94978599Y-82294029D01*
X95090027Y-82182601D01*
X95221059Y-82095048D01*
X95366648Y-82034743D01*
X95521205Y-82004000D01*
X95678795Y-82004000D01*
X95833352Y-82034743D01*
X95978941Y-82095048D01*
X96109973Y-82182601D01*
X96221401Y-82294029D01*
X96246067Y-82330944D01*
X96261612Y-82349886D01*
X96280554Y-82365431D01*
X96302165Y-82376982D01*
X96325614Y-82384095D01*
X96350001Y-82386497D01*
X96374387Y-82384095D01*
X96397836Y-82376982D01*
X96419447Y-82365430D01*
X96438389Y-82349885D01*
X96453933Y-82330944D01*
X96478599Y-82294029D01*
X96590027Y-82182601D01*
X96721059Y-82095048D01*
X96866648Y-82034743D01*
X97021205Y-82004000D01*
X97178795Y-82004000D01*
X97333352Y-82034743D01*
X97478941Y-82095048D01*
X97609973Y-82182601D01*
X97721401Y-82294029D01*
X97746067Y-82330944D01*
X97761612Y-82349886D01*
X97780554Y-82365431D01*
X97802165Y-82376982D01*
X97825614Y-82384095D01*
X97850001Y-82386497D01*
X97874387Y-82384095D01*
X97897836Y-82376982D01*
X97919447Y-82365430D01*
X97938389Y-82349885D01*
X97953933Y-82330944D01*
X97978599Y-82294029D01*
X98090027Y-82182601D01*
X98221059Y-82095048D01*
X98366648Y-82034743D01*
X98521205Y-82004000D01*
X98678795Y-82004000D01*
X98833352Y-82034743D01*
X98978941Y-82095048D01*
X99109973Y-82182601D01*
X99221401Y-82294029D01*
X99246067Y-82330944D01*
X99261612Y-82349886D01*
X99280554Y-82365431D01*
X99302165Y-82376982D01*
X99325614Y-82384095D01*
X99350001Y-82386497D01*
X99374387Y-82384095D01*
X99397836Y-82376982D01*
X99419447Y-82365430D01*
X99438389Y-82349885D01*
X99453933Y-82330944D01*
X99478599Y-82294029D01*
X99590027Y-82182601D01*
X99721059Y-82095048D01*
X99866648Y-82034743D01*
X100021205Y-82004000D01*
X100178795Y-82004000D01*
X100333352Y-82034743D01*
X100478941Y-82095048D01*
X100609973Y-82182601D01*
X100721401Y-82294029D01*
X100746067Y-82330944D01*
X100761612Y-82349886D01*
X100780554Y-82365431D01*
X100802165Y-82376982D01*
X100825614Y-82384095D01*
X100850001Y-82386497D01*
X100874387Y-82384095D01*
X100897836Y-82376982D01*
X100919447Y-82365430D01*
X100938389Y-82349885D01*
X100953933Y-82330944D01*
X100978599Y-82294029D01*
X101090027Y-82182601D01*
X101221059Y-82095048D01*
X101366648Y-82034743D01*
X101521205Y-82004000D01*
X101678795Y-82004000D01*
X101833352Y-82034743D01*
X101978941Y-82095048D01*
X102109973Y-82182601D01*
X102221399Y-82294027D01*
X102308952Y-82425059D01*
X102369257Y-82570648D01*
X102400000Y-82725205D01*
X102400000Y-82882795D01*
X102369257Y-83037352D01*
X102308952Y-83182941D01*
X102221399Y-83313973D01*
X102109973Y-83425399D01*
X101978941Y-83512952D01*
X101833352Y-83573257D01*
X101678795Y-83604000D01*
X101521205Y-83604000D01*
X101366648Y-83573257D01*
X101221059Y-83512952D01*
X101090027Y-83425399D01*
X100978599Y-83313971D01*
X100953933Y-83277056D01*
X100938388Y-83258114D01*
X100919446Y-83242569D01*
X100897835Y-83231018D01*
X100874386Y-83223905D01*
X100849999Y-83221503D01*
X100825613Y-83223905D01*
X100802164Y-83231018D01*
X100780553Y-83242570D01*
X100761611Y-83258115D01*
X100746067Y-83277056D01*
X100721401Y-83313971D01*
X100609973Y-83425399D01*
X100478941Y-83512952D01*
X100333352Y-83573257D01*
X100178795Y-83604000D01*
X100021205Y-83604000D01*
X99866648Y-83573257D01*
X99721059Y-83512952D01*
X99590027Y-83425399D01*
X99478599Y-83313971D01*
X99453933Y-83277056D01*
X99438388Y-83258114D01*
X99419446Y-83242569D01*
X99397835Y-83231018D01*
X99374386Y-83223905D01*
X99349999Y-83221503D01*
X99325613Y-83223905D01*
X99302164Y-83231018D01*
X99280553Y-83242570D01*
X99261611Y-83258115D01*
X99246067Y-83277056D01*
X99221401Y-83313971D01*
X99109973Y-83425399D01*
X98978941Y-83512952D01*
X98833352Y-83573257D01*
X98678795Y-83604000D01*
X98521205Y-83604000D01*
X98366648Y-83573257D01*
X98221059Y-83512952D01*
X98090027Y-83425399D01*
X97978599Y-83313971D01*
X97953933Y-83277056D01*
X97938388Y-83258114D01*
X97919446Y-83242569D01*
X97897835Y-83231018D01*
X97874386Y-83223905D01*
X97849999Y-83221503D01*
X97825613Y-83223905D01*
X97802164Y-83231018D01*
X97780553Y-83242570D01*
X97761611Y-83258115D01*
X97746067Y-83277056D01*
X97721401Y-83313971D01*
X97609973Y-83425399D01*
X97478941Y-83512952D01*
X97333352Y-83573257D01*
X97178795Y-83604000D01*
X97021205Y-83604000D01*
X96866648Y-83573257D01*
X96721059Y-83512952D01*
X96590027Y-83425399D01*
X96478599Y-83313971D01*
X96453933Y-83277056D01*
X96438388Y-83258114D01*
X96419446Y-83242569D01*
X96397835Y-83231018D01*
X96374386Y-83223905D01*
X96349999Y-83221503D01*
X96325613Y-83223905D01*
X96302164Y-83231018D01*
X96280553Y-83242570D01*
X96261611Y-83258115D01*
X96246067Y-83277056D01*
X96221401Y-83313971D01*
X96109973Y-83425399D01*
X95978941Y-83512952D01*
X95833352Y-83573257D01*
X95678795Y-83604000D01*
X95521205Y-83604000D01*
X95366648Y-83573257D01*
X95221059Y-83512952D01*
X95090027Y-83425399D01*
X94978599Y-83313971D01*
X94953933Y-83277056D01*
X94938388Y-83258114D01*
X94919446Y-83242569D01*
X94897835Y-83231018D01*
X94874386Y-83223905D01*
X94849999Y-83221503D01*
X94825613Y-83223905D01*
X94802164Y-83231018D01*
X94780553Y-83242570D01*
X94761611Y-83258115D01*
X94746067Y-83277056D01*
X94721401Y-83313971D01*
X94609973Y-83425399D01*
X94478941Y-83512952D01*
X94333352Y-83573257D01*
X94178795Y-83604000D01*
X94021205Y-83604000D01*
X93866648Y-83573257D01*
X93721059Y-83512952D01*
X93590027Y-83425399D01*
X93478601Y-83313973D01*
X93391048Y-83182941D01*
X93330743Y-83037352D01*
X93300000Y-82882795D01*
X93300000Y-82725205D01*
X93330743Y-82570648D01*
X93391048Y-82425059D01*
X93478601Y-82294027D01*
X93590027Y-82182601D01*
X93721059Y-82095048D01*
X93866648Y-82034743D01*
X94021205Y-82004000D01*
X94178795Y-82004000D01*
X94333352Y-82034743D01*
X94333352Y-82034743D01*
G37*
G36*
X75820707Y-77189597D02*
X75897836Y-77197193D01*
X76029787Y-77237220D01*
X76095763Y-77257233D01*
X76278172Y-77354733D01*
X76438054Y-77485946D01*
X76569267Y-77645828D01*
X76666767Y-77828237D01*
X76666767Y-77828238D01*
X76726807Y-78026164D01*
X76747080Y-78232000D01*
X76726807Y-78437836D01*
X76686780Y-78569787D01*
X76666767Y-78635763D01*
X76569267Y-78818172D01*
X76438054Y-78978054D01*
X76278172Y-79109267D01*
X76095763Y-79206767D01*
X76029787Y-79226780D01*
X75897836Y-79266807D01*
X75820707Y-79274404D01*
X75743580Y-79282000D01*
X75640420Y-79282000D01*
X75563293Y-79274404D01*
X75486164Y-79266807D01*
X75354213Y-79226780D01*
X75288237Y-79206767D01*
X75105828Y-79109267D01*
X74945946Y-78978054D01*
X74814733Y-78818172D01*
X74717233Y-78635763D01*
X74697220Y-78569787D01*
X74657193Y-78437836D01*
X74636920Y-78232000D01*
X74657193Y-78026164D01*
X74717233Y-77828238D01*
X74717233Y-77828237D01*
X74814733Y-77645828D01*
X74945946Y-77485946D01*
X75105828Y-77354733D01*
X75288237Y-77257233D01*
X75354213Y-77237220D01*
X75486164Y-77197193D01*
X75563293Y-77189597D01*
X75640420Y-77182000D01*
X75743580Y-77182000D01*
X75820707Y-77189597D01*
X75820707Y-77189597D01*
G37*
G36*
X75820707Y-74649597D02*
X75897836Y-74657193D01*
X76029787Y-74697220D01*
X76095763Y-74717233D01*
X76278172Y-74814733D01*
X76438054Y-74945946D01*
X76569267Y-75105828D01*
X76666767Y-75288237D01*
X76666767Y-75288238D01*
X76726807Y-75486164D01*
X76747080Y-75692000D01*
X76726807Y-75897836D01*
X76686780Y-76029787D01*
X76666767Y-76095763D01*
X76569267Y-76278172D01*
X76438054Y-76438054D01*
X76278172Y-76569267D01*
X76095763Y-76666767D01*
X76029787Y-76686780D01*
X75897836Y-76726807D01*
X75820707Y-76734404D01*
X75743580Y-76742000D01*
X75640420Y-76742000D01*
X75563293Y-76734404D01*
X75486164Y-76726807D01*
X75354213Y-76686780D01*
X75288237Y-76666767D01*
X75105828Y-76569267D01*
X74945946Y-76438054D01*
X74814733Y-76278172D01*
X74717233Y-76095763D01*
X74697220Y-76029787D01*
X74657193Y-75897836D01*
X74636920Y-75692000D01*
X74657193Y-75486164D01*
X74717233Y-75288238D01*
X74717233Y-75288237D01*
X74814733Y-75105828D01*
X74945946Y-74945946D01*
X75105828Y-74814733D01*
X75288237Y-74717233D01*
X75354213Y-74697220D01*
X75486164Y-74657193D01*
X75563293Y-74649597D01*
X75640420Y-74642000D01*
X75743580Y-74642000D01*
X75820707Y-74649597D01*
X75820707Y-74649597D01*
G37*
G36*
X75820707Y-72109597D02*
X75897836Y-72117193D01*
X76029787Y-72157220D01*
X76095763Y-72177233D01*
X76278172Y-72274733D01*
X76438054Y-72405946D01*
X76569267Y-72565828D01*
X76666767Y-72748237D01*
X76666767Y-72748238D01*
X76726807Y-72946164D01*
X76747080Y-73152000D01*
X76726807Y-73357836D01*
X76686780Y-73489787D01*
X76666767Y-73555763D01*
X76569267Y-73738172D01*
X76438054Y-73898054D01*
X76278172Y-74029267D01*
X76095763Y-74126767D01*
X76029787Y-74146780D01*
X75897836Y-74186807D01*
X75820707Y-74194404D01*
X75743580Y-74202000D01*
X75640420Y-74202000D01*
X75563293Y-74194404D01*
X75486164Y-74186807D01*
X75354213Y-74146780D01*
X75288237Y-74126767D01*
X75105828Y-74029267D01*
X74945946Y-73898054D01*
X74814733Y-73738172D01*
X74717233Y-73555763D01*
X74697220Y-73489787D01*
X74657193Y-73357836D01*
X74636920Y-73152000D01*
X74657193Y-72946164D01*
X74717233Y-72748238D01*
X74717233Y-72748237D01*
X74814733Y-72565828D01*
X74945946Y-72405946D01*
X75105828Y-72274733D01*
X75288237Y-72177233D01*
X75354213Y-72157220D01*
X75486164Y-72117193D01*
X75563293Y-72109597D01*
X75640420Y-72102000D01*
X75743580Y-72102000D01*
X75820707Y-72109597D01*
X75820707Y-72109597D01*
G37*
G36*
X76742000Y-71662000D02*
X74642000Y-71662000D01*
X74642000Y-69562000D01*
X76742000Y-69562000D01*
X76742000Y-71662000D01*
X76742000Y-71662000D01*
G37*
G36*
X105535888Y-62367470D02*
X105716274Y-62403350D01*
X105907362Y-62482502D01*
X106079336Y-62597411D01*
X106225589Y-62743664D01*
X106340498Y-62915638D01*
X106419650Y-63106726D01*
X106460000Y-63309584D01*
X106460000Y-63516416D01*
X106426573Y-63684469D01*
X106424172Y-63708845D01*
X106426574Y-63733231D01*
X106433687Y-63756680D01*
X106445238Y-63778291D01*
X106460784Y-63797233D01*
X106479726Y-63812779D01*
X106501336Y-63824330D01*
X106524786Y-63831443D01*
X106549172Y-63833845D01*
X106573557Y-63831443D01*
X106666280Y-63813000D01*
X106833719Y-63813000D01*
X106997934Y-63845664D01*
X107152627Y-63909740D01*
X107291847Y-64002764D01*
X107410236Y-64121153D01*
X107503260Y-64260373D01*
X107567336Y-64415066D01*
X107600000Y-64579281D01*
X107600000Y-64746719D01*
X107567336Y-64910934D01*
X107503260Y-65065627D01*
X107410236Y-65204847D01*
X107291847Y-65323236D01*
X107152627Y-65416260D01*
X106997934Y-65480336D01*
X106833719Y-65513000D01*
X106666281Y-65513000D01*
X106602741Y-65500361D01*
X106578355Y-65497959D01*
X106553969Y-65500361D01*
X106530520Y-65507474D01*
X106508909Y-65519025D01*
X106489967Y-65534571D01*
X106474421Y-65553513D01*
X106462870Y-65575124D01*
X106455757Y-65598573D01*
X106453355Y-65622959D01*
X106455757Y-65647344D01*
X106456399Y-65650574D01*
X106460302Y-65690194D01*
X106461573Y-65716062D01*
X106461573Y-66509938D01*
X106460302Y-66535806D01*
X106456399Y-66575426D01*
X106446309Y-66626155D01*
X106435647Y-66661306D01*
X106415845Y-66709111D01*
X106398532Y-66741501D01*
X106369791Y-66784514D01*
X106346490Y-66812907D01*
X106309907Y-66849490D01*
X106281514Y-66872791D01*
X106238501Y-66901532D01*
X106206111Y-66918845D01*
X106158306Y-66938647D01*
X106123155Y-66949309D01*
X106072426Y-66959399D01*
X106032806Y-66963302D01*
X106006938Y-66964573D01*
X104813062Y-66964573D01*
X104787194Y-66963302D01*
X104747574Y-66959399D01*
X104696845Y-66949309D01*
X104661694Y-66938647D01*
X104613889Y-66918845D01*
X104581499Y-66901532D01*
X104538486Y-66872791D01*
X104510093Y-66849490D01*
X104473510Y-66812907D01*
X104450209Y-66784514D01*
X104421468Y-66741501D01*
X104404155Y-66709111D01*
X104384353Y-66661306D01*
X104373691Y-66626155D01*
X104363601Y-66575426D01*
X104359698Y-66535806D01*
X104358427Y-66509938D01*
X104358427Y-65316062D01*
X104359698Y-65290194D01*
X104363601Y-65250574D01*
X104373691Y-65199845D01*
X104384353Y-65164694D01*
X104404155Y-65116889D01*
X104421468Y-65084499D01*
X104450209Y-65041486D01*
X104473510Y-65013093D01*
X104510093Y-64976510D01*
X104538486Y-64953209D01*
X104581499Y-64924468D01*
X104613889Y-64907155D01*
X104661694Y-64887353D01*
X104696845Y-64876691D01*
X104747574Y-64866601D01*
X104787194Y-64862698D01*
X104813062Y-64861427D01*
X105606938Y-64861427D01*
X105632806Y-64862698D01*
X105672426Y-64866601D01*
X105723155Y-64876691D01*
X105739300Y-64881588D01*
X105763334Y-64886368D01*
X105787838Y-64886368D01*
X105811871Y-64881587D01*
X105834510Y-64872210D01*
X105854885Y-64858596D01*
X105872212Y-64841268D01*
X105885826Y-64820894D01*
X105895203Y-64798255D01*
X105899983Y-64774221D01*
X105899237Y-64759029D01*
X105900000Y-64759029D01*
X105900000Y-64579281D01*
X105904827Y-64555014D01*
X105907229Y-64530628D01*
X105904827Y-64506241D01*
X105897714Y-64482792D01*
X105886163Y-64461182D01*
X105870617Y-64442239D01*
X105851675Y-64426694D01*
X105830064Y-64415143D01*
X105806615Y-64408030D01*
X105782229Y-64405628D01*
X105757842Y-64408030D01*
X105734409Y-64415138D01*
X105716274Y-64422650D01*
X105535888Y-64458530D01*
X105513417Y-64463000D01*
X105306583Y-64463000D01*
X105284112Y-64458530D01*
X105103726Y-64422650D01*
X104912638Y-64343498D01*
X104740664Y-64228589D01*
X104594411Y-64082336D01*
X104479502Y-63910362D01*
X104400350Y-63719274D01*
X104360000Y-63516416D01*
X104360000Y-63309584D01*
X104400350Y-63106726D01*
X104479502Y-62915638D01*
X104594411Y-62743664D01*
X104740664Y-62597411D01*
X104912638Y-62482502D01*
X105103726Y-62403350D01*
X105284112Y-62367470D01*
X105306583Y-62363000D01*
X105513417Y-62363000D01*
X105535888Y-62367470D01*
X105535888Y-62367470D01*
G37*
G36*
X103031520Y-64866601D02*
X103216274Y-64903350D01*
X103407362Y-64982502D01*
X103579336Y-65097411D01*
X103725589Y-65243664D01*
X103840498Y-65415638D01*
X103919650Y-65606726D01*
X103960000Y-65809584D01*
X103960000Y-66016416D01*
X103919650Y-66219274D01*
X103840498Y-66410362D01*
X103725589Y-66582336D01*
X103579336Y-66728589D01*
X103407362Y-66843498D01*
X103216274Y-66922650D01*
X103037568Y-66958196D01*
X103013417Y-66963000D01*
X102806583Y-66963000D01*
X102782432Y-66958196D01*
X102603726Y-66922650D01*
X102412638Y-66843498D01*
X102240664Y-66728589D01*
X102094411Y-66582336D01*
X101979502Y-66410362D01*
X101900350Y-66219274D01*
X101860000Y-66016416D01*
X101860000Y-65809584D01*
X101900350Y-65606726D01*
X101979502Y-65415638D01*
X102094411Y-65243664D01*
X102240664Y-65097411D01*
X102412638Y-64982502D01*
X102603726Y-64903350D01*
X102788480Y-64866601D01*
X102806583Y-64863000D01*
X103013417Y-64863000D01*
X103031520Y-64866601D01*
X103031520Y-64866601D01*
G37*
G36*
X75693707Y-64489597D02*
X75770836Y-64497193D01*
X75902787Y-64537220D01*
X75968763Y-64557233D01*
X76151172Y-64654733D01*
X76311054Y-64785946D01*
X76442267Y-64945828D01*
X76539767Y-65128237D01*
X76539767Y-65128238D01*
X76599807Y-65326164D01*
X76620080Y-65532000D01*
X76599807Y-65737836D01*
X76559780Y-65869787D01*
X76539767Y-65935763D01*
X76442267Y-66118172D01*
X76311054Y-66278054D01*
X76151172Y-66409267D01*
X75968763Y-66506767D01*
X75902787Y-66526780D01*
X75770836Y-66566807D01*
X75693707Y-66574404D01*
X75616580Y-66582000D01*
X75513420Y-66582000D01*
X75436293Y-66574404D01*
X75359164Y-66566807D01*
X75227213Y-66526780D01*
X75161237Y-66506767D01*
X74978828Y-66409267D01*
X74818946Y-66278054D01*
X74687733Y-66118172D01*
X74590233Y-65935763D01*
X74570220Y-65869787D01*
X74530193Y-65737836D01*
X74509920Y-65532000D01*
X74530193Y-65326164D01*
X74590233Y-65128238D01*
X74590233Y-65128237D01*
X74687733Y-64945828D01*
X74818946Y-64785946D01*
X74978828Y-64654733D01*
X75161237Y-64557233D01*
X75227213Y-64537220D01*
X75359164Y-64497193D01*
X75436293Y-64489597D01*
X75513420Y-64482000D01*
X75616580Y-64482000D01*
X75693707Y-64489597D01*
X75693707Y-64489597D01*
G37*
G36*
X103035888Y-62367470D02*
X103216274Y-62403350D01*
X103407362Y-62482502D01*
X103579336Y-62597411D01*
X103725589Y-62743664D01*
X103840498Y-62915638D01*
X103919650Y-63106726D01*
X103960000Y-63309584D01*
X103960000Y-63516416D01*
X103919650Y-63719274D01*
X103840498Y-63910362D01*
X103725589Y-64082336D01*
X103579336Y-64228589D01*
X103407362Y-64343498D01*
X103216274Y-64422650D01*
X103035888Y-64458530D01*
X103013417Y-64463000D01*
X102806583Y-64463000D01*
X102784112Y-64458530D01*
X102603726Y-64422650D01*
X102412638Y-64343498D01*
X102240664Y-64228589D01*
X102094411Y-64082336D01*
X101979502Y-63910362D01*
X101900350Y-63719274D01*
X101860000Y-63516416D01*
X101860000Y-63309584D01*
X101900350Y-63106726D01*
X101979502Y-62915638D01*
X102094411Y-62743664D01*
X102240664Y-62597411D01*
X102412638Y-62482502D01*
X102603726Y-62403350D01*
X102784112Y-62367470D01*
X102806583Y-62363000D01*
X103013417Y-62363000D01*
X103035888Y-62367470D01*
X103035888Y-62367470D01*
G37*
G36*
X75693707Y-61949596D02*
X75770836Y-61957193D01*
X75902787Y-61997220D01*
X75968763Y-62017233D01*
X76151172Y-62114733D01*
X76311054Y-62245946D01*
X76442267Y-62405828D01*
X76539767Y-62588237D01*
X76539767Y-62588238D01*
X76599807Y-62786164D01*
X76620080Y-62992000D01*
X76599807Y-63197836D01*
X76565909Y-63309583D01*
X76539767Y-63395763D01*
X76442267Y-63578172D01*
X76311054Y-63738054D01*
X76151172Y-63869267D01*
X75968763Y-63966767D01*
X75902787Y-63986780D01*
X75770836Y-64026807D01*
X75693707Y-64034403D01*
X75616580Y-64042000D01*
X75513420Y-64042000D01*
X75436293Y-64034403D01*
X75359164Y-64026807D01*
X75227213Y-63986780D01*
X75161237Y-63966767D01*
X74978828Y-63869267D01*
X74818946Y-63738054D01*
X74687733Y-63578172D01*
X74590233Y-63395763D01*
X74564091Y-63309583D01*
X74530193Y-63197836D01*
X74509920Y-62992000D01*
X74530193Y-62786164D01*
X74590233Y-62588238D01*
X74590233Y-62588237D01*
X74687733Y-62405828D01*
X74818946Y-62245946D01*
X74978828Y-62114733D01*
X75161237Y-62017233D01*
X75227213Y-61997220D01*
X75359164Y-61957193D01*
X75436293Y-61949596D01*
X75513420Y-61942000D01*
X75616580Y-61942000D01*
X75693707Y-61949596D01*
X75693707Y-61949596D01*
G37*
G36*
X75693707Y-59409597D02*
X75770836Y-59417193D01*
X75902787Y-59457220D01*
X75968763Y-59477233D01*
X76151172Y-59574733D01*
X76311054Y-59705946D01*
X76442267Y-59865828D01*
X76539767Y-60048237D01*
X76539767Y-60048238D01*
X76599807Y-60246164D01*
X76620080Y-60452000D01*
X76599807Y-60657836D01*
X76559780Y-60789787D01*
X76539767Y-60855763D01*
X76442267Y-61038172D01*
X76311054Y-61198054D01*
X76151172Y-61329267D01*
X75968763Y-61426767D01*
X75902787Y-61446780D01*
X75770836Y-61486807D01*
X75693707Y-61494403D01*
X75616580Y-61502000D01*
X75513420Y-61502000D01*
X75436293Y-61494403D01*
X75359164Y-61486807D01*
X75227213Y-61446780D01*
X75161237Y-61426767D01*
X74978828Y-61329267D01*
X74818946Y-61198054D01*
X74687733Y-61038172D01*
X74590233Y-60855763D01*
X74570220Y-60789787D01*
X74530193Y-60657836D01*
X74509920Y-60452000D01*
X74530193Y-60246164D01*
X74590233Y-60048238D01*
X74590233Y-60048237D01*
X74687733Y-59865828D01*
X74818946Y-59705946D01*
X74978828Y-59574733D01*
X75161237Y-59477233D01*
X75227213Y-59457220D01*
X75359164Y-59417193D01*
X75436293Y-59409597D01*
X75513420Y-59402000D01*
X75616580Y-59402000D01*
X75693707Y-59409597D01*
X75693707Y-59409597D01*
G37*
G36*
X76615000Y-58962000D02*
X74515000Y-58962000D01*
X74515000Y-56862000D01*
X76615000Y-56862000D01*
X76615000Y-58962000D01*
X76615000Y-58962000D01*
G37*
G36*
X82508888Y-48484470D02*
X82689274Y-48520350D01*
X82880362Y-48599502D01*
X83052336Y-48714411D01*
X83198589Y-48860664D01*
X83313498Y-49032638D01*
X83392650Y-49223726D01*
X83433000Y-49426584D01*
X83433000Y-49633416D01*
X83392650Y-49836274D01*
X83313498Y-50027362D01*
X83198589Y-50199336D01*
X83052336Y-50345589D01*
X82880362Y-50460498D01*
X82689274Y-50539650D01*
X82516249Y-50574066D01*
X82486417Y-50580000D01*
X82279583Y-50580000D01*
X82249751Y-50574066D01*
X82076726Y-50539650D01*
X81885638Y-50460498D01*
X81713664Y-50345589D01*
X81567411Y-50199336D01*
X81452502Y-50027362D01*
X81373350Y-49836274D01*
X81333000Y-49633416D01*
X81333000Y-49426584D01*
X81373350Y-49223726D01*
X81452502Y-49032638D01*
X81567411Y-48860664D01*
X81713664Y-48714411D01*
X81885638Y-48599502D01*
X82076726Y-48520350D01*
X82257112Y-48484470D01*
X82279583Y-48480000D01*
X82486417Y-48480000D01*
X82508888Y-48484470D01*
X82508888Y-48484470D01*
G37*
G36*
X80755325Y-48484831D02*
X80796598Y-48497351D01*
X80834629Y-48517679D01*
X80867964Y-48545036D01*
X80895321Y-48578371D01*
X80915649Y-48616402D01*
X80928169Y-48657675D01*
X80933000Y-48706726D01*
X80933000Y-50353274D01*
X80928169Y-50402325D01*
X80915649Y-50443598D01*
X80895321Y-50481629D01*
X80867964Y-50514964D01*
X80834629Y-50542321D01*
X80796598Y-50562649D01*
X80755325Y-50575169D01*
X80706274Y-50580000D01*
X79059726Y-50580000D01*
X79010675Y-50575169D01*
X78969402Y-50562649D01*
X78931371Y-50542321D01*
X78898036Y-50514964D01*
X78870679Y-50481629D01*
X78850351Y-50443598D01*
X78837831Y-50402325D01*
X78833000Y-50353274D01*
X78833000Y-48706726D01*
X78837831Y-48657675D01*
X78850351Y-48616402D01*
X78870679Y-48578371D01*
X78898036Y-48545036D01*
X78931371Y-48517679D01*
X78969402Y-48497351D01*
X79010675Y-48484831D01*
X79059726Y-48480000D01*
X80706274Y-48480000D01*
X80755325Y-48484831D01*
X80755325Y-48484831D01*
G37*
G36*
X104832000Y-50476000D02*
X102432000Y-50476000D01*
X102432000Y-48076000D01*
X104832000Y-48076000D01*
X104832000Y-50476000D01*
X104832000Y-50476000D01*
G37*
G36*
X92640000Y-50476000D02*
X90240000Y-50476000D01*
X90240000Y-48076000D01*
X92640000Y-48076000D01*
X92640000Y-50476000D01*
X92640000Y-50476000D01*
G37*
G36*
X80008888Y-45984470D02*
X80189274Y-46020350D01*
X80380362Y-46099502D01*
X80552336Y-46214411D01*
X80698589Y-46360664D01*
X80813498Y-46532638D01*
X80892650Y-46723726D01*
X80933000Y-46926584D01*
X80933000Y-47133416D01*
X80892650Y-47336274D01*
X80813498Y-47527362D01*
X80698589Y-47699336D01*
X80552336Y-47845589D01*
X80380362Y-47960498D01*
X80189274Y-48039650D01*
X80008888Y-48075530D01*
X79986417Y-48080000D01*
X79779583Y-48080000D01*
X79757112Y-48075530D01*
X79576726Y-48039650D01*
X79385638Y-47960498D01*
X79213664Y-47845589D01*
X79067411Y-47699336D01*
X78952502Y-47527362D01*
X78873350Y-47336274D01*
X78833000Y-47133416D01*
X78833000Y-46926584D01*
X78873350Y-46723726D01*
X78952502Y-46532638D01*
X79067411Y-46360664D01*
X79213664Y-46214411D01*
X79385638Y-46099502D01*
X79576726Y-46020350D01*
X79757112Y-45984470D01*
X79779583Y-45980000D01*
X79986417Y-45980000D01*
X80008888Y-45984470D01*
X80008888Y-45984470D01*
G37*
G36*
X82508888Y-45984470D02*
X82689274Y-46020350D01*
X82880362Y-46099502D01*
X83052336Y-46214411D01*
X83198589Y-46360664D01*
X83313498Y-46532638D01*
X83392650Y-46723726D01*
X83433000Y-46926584D01*
X83433000Y-47133416D01*
X83392650Y-47336274D01*
X83313498Y-47527362D01*
X83198589Y-47699336D01*
X83052336Y-47845589D01*
X82880362Y-47960498D01*
X82689274Y-48039650D01*
X82508888Y-48075530D01*
X82486417Y-48080000D01*
X82279583Y-48080000D01*
X82257112Y-48075530D01*
X82076726Y-48039650D01*
X81885638Y-47960498D01*
X81713664Y-47845589D01*
X81567411Y-47699336D01*
X81452502Y-47527362D01*
X81373350Y-47336274D01*
X81333000Y-47133416D01*
X81333000Y-46926584D01*
X81373350Y-46723726D01*
X81452502Y-46532638D01*
X81567411Y-46360664D01*
X81713664Y-46214411D01*
X81885638Y-46099502D01*
X82076726Y-46020350D01*
X82257112Y-45984470D01*
X82279583Y-45980000D01*
X82486417Y-45980000D01*
X82508888Y-45984470D01*
X82508888Y-45984470D01*
G37*
G36*
X103982026Y-43122115D02*
X104200412Y-43212573D01*
X104396958Y-43343901D01*
X104564099Y-43511042D01*
X104695427Y-43707588D01*
X104785885Y-43925974D01*
X104832000Y-44157809D01*
X104832000Y-44394191D01*
X104785885Y-44626026D01*
X104695427Y-44844412D01*
X104564099Y-45040958D01*
X104396958Y-45208099D01*
X104200412Y-45339427D01*
X103982026Y-45429885D01*
X103750191Y-45476000D01*
X103513809Y-45476000D01*
X103281974Y-45429885D01*
X103063588Y-45339427D01*
X102867042Y-45208099D01*
X102699901Y-45040958D01*
X102568573Y-44844412D01*
X102478115Y-44626026D01*
X102432000Y-44394191D01*
X102432000Y-44157809D01*
X102478115Y-43925974D01*
X102568573Y-43707588D01*
X102699901Y-43511042D01*
X102867042Y-43343901D01*
X103063588Y-43212573D01*
X103281974Y-43122115D01*
X103513809Y-43076000D01*
X103750191Y-43076000D01*
X103982026Y-43122115D01*
X103982026Y-43122115D01*
G37*
G36*
X91790026Y-43122115D02*
X92008412Y-43212573D01*
X92204958Y-43343901D01*
X92372099Y-43511042D01*
X92503427Y-43707588D01*
X92593885Y-43925974D01*
X92640000Y-44157809D01*
X92640000Y-44394191D01*
X92593885Y-44626026D01*
X92503427Y-44844412D01*
X92372099Y-45040958D01*
X92204958Y-45208099D01*
X92008412Y-45339427D01*
X91790026Y-45429885D01*
X91558191Y-45476000D01*
X91321809Y-45476000D01*
X91089974Y-45429885D01*
X90871588Y-45339427D01*
X90675042Y-45208099D01*
X90507901Y-45040958D01*
X90376573Y-44844412D01*
X90286115Y-44626026D01*
X90240000Y-44394191D01*
X90240000Y-44157809D01*
X90286115Y-43925974D01*
X90376573Y-43707588D01*
X90507901Y-43511042D01*
X90675042Y-43343901D01*
X90871588Y-43212573D01*
X91089974Y-43122115D01*
X91321809Y-43076000D01*
X91558191Y-43076000D01*
X91790026Y-43122115D01*
X91790026Y-43122115D01*
G37*
G36*
X80008888Y-38804470D02*
X80189274Y-38840350D01*
X80380362Y-38919502D01*
X80552336Y-39034411D01*
X80698589Y-39180664D01*
X80813498Y-39352638D01*
X80892650Y-39543726D01*
X80933000Y-39746584D01*
X80933000Y-39953416D01*
X80892650Y-40156274D01*
X80813498Y-40347362D01*
X80698589Y-40519336D01*
X80552336Y-40665589D01*
X80380362Y-40780498D01*
X80189274Y-40859650D01*
X80008888Y-40895530D01*
X79986417Y-40900000D01*
X79779583Y-40900000D01*
X79757112Y-40895530D01*
X79576726Y-40859650D01*
X79385638Y-40780498D01*
X79213664Y-40665589D01*
X79067411Y-40519336D01*
X78952502Y-40347362D01*
X78873350Y-40156274D01*
X78833000Y-39953416D01*
X78833000Y-39746584D01*
X78873350Y-39543726D01*
X78952502Y-39352638D01*
X79067411Y-39180664D01*
X79213664Y-39034411D01*
X79385638Y-38919502D01*
X79576726Y-38840350D01*
X79757112Y-38804470D01*
X79779583Y-38800000D01*
X79986417Y-38800000D01*
X80008888Y-38804470D01*
X80008888Y-38804470D01*
G37*
G36*
X82508888Y-38804470D02*
X82689274Y-38840350D01*
X82880362Y-38919502D01*
X83052336Y-39034411D01*
X83198589Y-39180664D01*
X83313498Y-39352638D01*
X83392650Y-39543726D01*
X83433000Y-39746584D01*
X83433000Y-39953416D01*
X83392650Y-40156274D01*
X83313498Y-40347362D01*
X83198589Y-40519336D01*
X83052336Y-40665589D01*
X82880362Y-40780498D01*
X82689274Y-40859650D01*
X82508888Y-40895530D01*
X82486417Y-40900000D01*
X82279583Y-40900000D01*
X82257112Y-40895530D01*
X82076726Y-40859650D01*
X81885638Y-40780498D01*
X81713664Y-40665589D01*
X81567411Y-40519336D01*
X81452502Y-40347362D01*
X81373350Y-40156274D01*
X81333000Y-39953416D01*
X81333000Y-39746584D01*
X81373350Y-39543726D01*
X81452502Y-39352638D01*
X81567411Y-39180664D01*
X81713664Y-39034411D01*
X81885638Y-38919502D01*
X82076726Y-38840350D01*
X82257112Y-38804470D01*
X82279583Y-38800000D01*
X82486417Y-38800000D01*
X82508888Y-38804470D01*
X82508888Y-38804470D01*
G37*
G36*
X75268327Y-36187521D02*
X75533791Y-36240325D01*
X75866830Y-36378275D01*
X76166557Y-36578546D01*
X76421454Y-36833443D01*
X76621725Y-37133170D01*
X76759675Y-37466209D01*
X76830000Y-37819761D01*
X76830000Y-38180239D01*
X76759675Y-38533791D01*
X76621725Y-38866830D01*
X76421454Y-39166557D01*
X76166557Y-39421454D01*
X75866830Y-39621725D01*
X75533791Y-39759675D01*
X75268327Y-39812479D01*
X75180241Y-39830000D01*
X74819759Y-39830000D01*
X74731673Y-39812479D01*
X74466209Y-39759675D01*
X74133170Y-39621725D01*
X73833443Y-39421454D01*
X73578546Y-39166557D01*
X73378275Y-38866830D01*
X73240325Y-38533791D01*
X73170000Y-38180239D01*
X73170000Y-37819761D01*
X73240325Y-37466209D01*
X73378275Y-37133170D01*
X73578546Y-36833443D01*
X73833443Y-36578546D01*
X74133170Y-36378275D01*
X74466209Y-36240325D01*
X74731673Y-36187521D01*
X74819759Y-36170000D01*
X75180241Y-36170000D01*
X75268327Y-36187521D01*
X75268327Y-36187521D01*
G37*
G36*
X108268327Y-36187521D02*
X108533791Y-36240325D01*
X108866830Y-36378275D01*
X109166557Y-36578546D01*
X109421454Y-36833443D01*
X109621725Y-37133170D01*
X109759675Y-37466209D01*
X109830000Y-37819761D01*
X109830000Y-38180239D01*
X109759675Y-38533791D01*
X109621725Y-38866830D01*
X109421454Y-39166557D01*
X109166557Y-39421454D01*
X108866830Y-39621725D01*
X108533791Y-39759675D01*
X108268327Y-39812479D01*
X108180241Y-39830000D01*
X107819759Y-39830000D01*
X107731673Y-39812479D01*
X107466209Y-39759675D01*
X107133170Y-39621725D01*
X106833443Y-39421454D01*
X106578546Y-39166557D01*
X106378275Y-38866830D01*
X106240325Y-38533791D01*
X106170000Y-38180239D01*
X106170000Y-37819761D01*
X106240325Y-37466209D01*
X106378275Y-37133170D01*
X106578546Y-36833443D01*
X106833443Y-36578546D01*
X107133170Y-36378275D01*
X107466209Y-36240325D01*
X107731673Y-36187521D01*
X107819759Y-36170000D01*
X108180241Y-36170000D01*
X108268327Y-36187521D01*
X108268327Y-36187521D01*
G37*
G36*
X92744000Y-39531000D02*
X90644000Y-39531000D01*
X90644000Y-37431000D01*
X92744000Y-37431000D01*
X92744000Y-39531000D01*
X92744000Y-39531000D01*
G37*
G36*
X96902707Y-37438596D02*
X96979836Y-37446193D01*
X97111787Y-37486220D01*
X97177763Y-37506233D01*
X97360172Y-37603733D01*
X97520054Y-37734946D01*
X97651267Y-37894828D01*
X97748767Y-38077237D01*
X97748767Y-38077238D01*
X97808807Y-38275164D01*
X97829080Y-38481000D01*
X97808807Y-38686836D01*
X97774479Y-38800000D01*
X97748767Y-38884763D01*
X97651267Y-39067172D01*
X97520054Y-39227054D01*
X97360172Y-39358267D01*
X97177763Y-39455767D01*
X97111787Y-39475780D01*
X96979836Y-39515807D01*
X96902707Y-39523403D01*
X96825580Y-39531000D01*
X96722420Y-39531000D01*
X96645293Y-39523403D01*
X96568164Y-39515807D01*
X96436213Y-39475780D01*
X96370237Y-39455767D01*
X96187828Y-39358267D01*
X96027946Y-39227054D01*
X95896733Y-39067172D01*
X95799233Y-38884763D01*
X95773521Y-38800000D01*
X95739193Y-38686836D01*
X95718920Y-38481000D01*
X95739193Y-38275164D01*
X95799233Y-38077238D01*
X95799233Y-38077237D01*
X95896733Y-37894828D01*
X96027946Y-37734946D01*
X96187828Y-37603733D01*
X96370237Y-37506233D01*
X96436213Y-37486220D01*
X96568164Y-37446193D01*
X96645293Y-37438596D01*
X96722420Y-37431000D01*
X96825580Y-37431000D01*
X96902707Y-37438596D01*
X96902707Y-37438596D01*
G37*
G36*
X94362707Y-37438596D02*
X94439836Y-37446193D01*
X94571787Y-37486220D01*
X94637763Y-37506233D01*
X94820172Y-37603733D01*
X94980054Y-37734946D01*
X95111267Y-37894828D01*
X95208767Y-38077237D01*
X95208767Y-38077238D01*
X95268807Y-38275164D01*
X95289080Y-38481000D01*
X95268807Y-38686836D01*
X95234479Y-38800000D01*
X95208767Y-38884763D01*
X95111267Y-39067172D01*
X94980054Y-39227054D01*
X94820172Y-39358267D01*
X94637763Y-39455767D01*
X94571787Y-39475780D01*
X94439836Y-39515807D01*
X94362707Y-39523403D01*
X94285580Y-39531000D01*
X94182420Y-39531000D01*
X94105293Y-39523403D01*
X94028164Y-39515807D01*
X93896213Y-39475780D01*
X93830237Y-39455767D01*
X93647828Y-39358267D01*
X93487946Y-39227054D01*
X93356733Y-39067172D01*
X93259233Y-38884763D01*
X93233521Y-38800000D01*
X93199193Y-38686836D01*
X93178920Y-38481000D01*
X93199193Y-38275164D01*
X93259233Y-38077238D01*
X93259233Y-38077237D01*
X93356733Y-37894828D01*
X93487946Y-37734946D01*
X93647828Y-37603733D01*
X93830237Y-37506233D01*
X93896213Y-37486220D01*
X94028164Y-37446193D01*
X94105293Y-37438596D01*
X94182420Y-37431000D01*
X94285580Y-37431000D01*
X94362707Y-37438596D01*
X94362707Y-37438596D01*
G37*
M02*
