G04 #@! TF.GenerationSoftware,KiCad,Pcbnew,(5.0.2)-1*
G04 #@! TF.CreationDate,2020-03-11T11:41:09-07:00*
G04 #@! TF.ProjectId,powerControl,706f7765-7243-46f6-9e74-726f6c2e6b69,rev?*
G04 #@! TF.SameCoordinates,Original*
G04 #@! TF.FileFunction,Copper,L2,Bot*
G04 #@! TF.FilePolarity,Positive*
%FSLAX46Y46*%
G04 Gerber Fmt 4.6, Leading zero omitted, Abs format (unit mm)*
G04 Created by KiCad (PCBNEW (5.0.2)-1) date 3/11/2020 11:41:09 AM*
%MOMM*%
%LPD*%
G01*
G04 APERTURE LIST*
G04 #@! TA.AperFunction,ComponentPad*
%ADD10R,1.700000X1.700000*%
G04 #@! TD*
G04 #@! TA.AperFunction,ComponentPad*
%ADD11O,1.700000X1.700000*%
G04 #@! TD*
G04 #@! TA.AperFunction,ComponentPad*
%ADD12C,2.000000*%
G04 #@! TD*
G04 #@! TA.AperFunction,ComponentPad*
%ADD13R,2.000000X2.000000*%
G04 #@! TD*
G04 #@! TA.AperFunction,ComponentPad*
%ADD14C,1.417157*%
G04 #@! TD*
G04 #@! TA.AperFunction,Conductor*
%ADD15C,0.100000*%
G04 #@! TD*
G04 #@! TA.AperFunction,ComponentPad*
%ADD16C,1.700000*%
G04 #@! TD*
G04 #@! TA.AperFunction,ComponentPad*
%ADD17C,1.200000*%
G04 #@! TD*
G04 #@! TA.AperFunction,ComponentPad*
%ADD18C,3.260000*%
G04 #@! TD*
G04 #@! TA.AperFunction,ViaPad*
%ADD19C,1.000000*%
G04 #@! TD*
G04 #@! TA.AperFunction,Conductor*
%ADD20C,2.000000*%
G04 #@! TD*
G04 #@! TA.AperFunction,Conductor*
%ADD21C,0.250000*%
G04 #@! TD*
G04 #@! TA.AperFunction,Conductor*
%ADD22C,0.254000*%
G04 #@! TD*
G04 APERTURE END LIST*
D10*
G04 #@! TO.P,J1,1*
G04 #@! TO.N,/Vbatt_out*
X75565000Y-57912000D03*
D11*
G04 #@! TO.P,J1,2*
X75565000Y-60452000D03*
G04 #@! TO.P,J1,3*
G04 #@! TO.N,GND*
X75565000Y-62992000D03*
G04 #@! TO.P,J1,4*
G04 #@! TO.N,/5V*
X75565000Y-65532000D03*
G04 #@! TD*
D12*
G04 #@! TO.P,C2,2*
G04 #@! TO.N,GND*
X91440000Y-44276000D03*
D13*
G04 #@! TO.P,C2,1*
G04 #@! TO.N,V_LED*
X91440000Y-49276000D03*
G04 #@! TD*
G04 #@! TO.P,C1,1*
G04 #@! TO.N,V_LED*
X103632000Y-49276000D03*
D12*
G04 #@! TO.P,C1,2*
G04 #@! TO.N,GND*
X103632000Y-44276000D03*
G04 #@! TD*
D14*
G04 #@! TO.P,J11,1*
G04 #@! TO.N,LED1+*
X105410000Y-65913000D03*
D15*
G04 #@! TD*
G04 #@! TO.N,LED1+*
G04 #@! TO.C,J11*
G36*
X104761227Y-66758196D02*
X104714329Y-66743970D01*
X104671107Y-66720867D01*
X104633223Y-66689777D01*
X104602133Y-66651893D01*
X104579030Y-66608671D01*
X104564804Y-66561773D01*
X104560000Y-66513000D01*
X104560000Y-65313000D01*
X104564804Y-65264227D01*
X104579030Y-65217329D01*
X104602133Y-65174107D01*
X104633223Y-65136223D01*
X104671107Y-65105133D01*
X104714329Y-65082030D01*
X104761227Y-65067804D01*
X104810000Y-65063000D01*
X105610000Y-65063000D01*
X105658773Y-65067804D01*
X105705671Y-65082030D01*
X105748893Y-65105133D01*
X105786777Y-65136223D01*
X106186777Y-65536223D01*
X106217867Y-65574107D01*
X106240970Y-65617329D01*
X106255196Y-65664227D01*
X106260000Y-65713000D01*
X106260000Y-66513000D01*
X106255196Y-66561773D01*
X106240970Y-66608671D01*
X106217867Y-66651893D01*
X106186777Y-66689777D01*
X106148893Y-66720867D01*
X106105671Y-66743970D01*
X106058773Y-66758196D01*
X106010000Y-66763000D01*
X104810000Y-66763000D01*
X104761227Y-66758196D01*
X104761227Y-66758196D01*
G37*
D16*
G04 #@! TO.P,J11,2*
G04 #@! TO.N,LED2+*
X105410000Y-63413000D03*
G04 #@! TO.P,J11,3*
G04 #@! TO.N,LED-*
X102910000Y-65913000D03*
G04 #@! TO.P,J11,4*
X102910000Y-63413000D03*
G04 #@! TD*
D10*
G04 #@! TO.P,J9,1*
G04 #@! TO.N,/Vbatt_out*
X75692000Y-70612000D03*
D11*
G04 #@! TO.P,J9,2*
X75692000Y-73152000D03*
G04 #@! TO.P,J9,3*
G04 #@! TO.N,GND*
X75692000Y-75692000D03*
G04 #@! TO.P,J9,4*
G04 #@! TO.N,/3.3V*
X75692000Y-78232000D03*
G04 #@! TD*
D17*
G04 #@! TO.P,J10,1*
G04 #@! TO.N,GND*
X101600000Y-82804000D03*
G04 #@! TO.P,J10,2*
G04 #@! TO.N,I_LED*
X100100000Y-82804000D03*
G04 #@! TO.P,J10,3*
G04 #@! TO.N,Flash*
X98600000Y-82804000D03*
G04 #@! TO.P,J10,4*
G04 #@! TO.N,Torch*
X97100000Y-82804000D03*
G04 #@! TO.P,J10,5*
G04 #@! TO.N,LED_EN1*
X95600000Y-82804000D03*
G04 #@! TO.P,J10,6*
G04 #@! TO.N,LED_EN2*
X94100000Y-82804000D03*
G04 #@! TD*
D15*
G04 #@! TO.N,/Vbatt_in*
G04 #@! TO.C,J3*
G36*
X80507504Y-48681204D02*
X80531773Y-48684804D01*
X80555571Y-48690765D01*
X80578671Y-48699030D01*
X80600849Y-48709520D01*
X80621893Y-48722133D01*
X80641598Y-48736747D01*
X80659777Y-48753223D01*
X80676253Y-48771402D01*
X80690867Y-48791107D01*
X80703480Y-48812151D01*
X80713970Y-48834329D01*
X80722235Y-48857429D01*
X80728196Y-48881227D01*
X80731796Y-48905496D01*
X80733000Y-48930000D01*
X80733000Y-50130000D01*
X80731796Y-50154504D01*
X80728196Y-50178773D01*
X80722235Y-50202571D01*
X80713970Y-50225671D01*
X80703480Y-50247849D01*
X80690867Y-50268893D01*
X80676253Y-50288598D01*
X80659777Y-50306777D01*
X80641598Y-50323253D01*
X80621893Y-50337867D01*
X80600849Y-50350480D01*
X80578671Y-50360970D01*
X80555571Y-50369235D01*
X80531773Y-50375196D01*
X80507504Y-50378796D01*
X80483000Y-50380000D01*
X79283000Y-50380000D01*
X79258496Y-50378796D01*
X79234227Y-50375196D01*
X79210429Y-50369235D01*
X79187329Y-50360970D01*
X79165151Y-50350480D01*
X79144107Y-50337867D01*
X79124402Y-50323253D01*
X79106223Y-50306777D01*
X79089747Y-50288598D01*
X79075133Y-50268893D01*
X79062520Y-50247849D01*
X79052030Y-50225671D01*
X79043765Y-50202571D01*
X79037804Y-50178773D01*
X79034204Y-50154504D01*
X79033000Y-50130000D01*
X79033000Y-48930000D01*
X79034204Y-48905496D01*
X79037804Y-48881227D01*
X79043765Y-48857429D01*
X79052030Y-48834329D01*
X79062520Y-48812151D01*
X79075133Y-48791107D01*
X79089747Y-48771402D01*
X79106223Y-48753223D01*
X79124402Y-48736747D01*
X79144107Y-48722133D01*
X79165151Y-48709520D01*
X79187329Y-48699030D01*
X79210429Y-48690765D01*
X79234227Y-48684804D01*
X79258496Y-48681204D01*
X79283000Y-48680000D01*
X80483000Y-48680000D01*
X80507504Y-48681204D01*
X80507504Y-48681204D01*
G37*
D16*
G04 #@! TD*
G04 #@! TO.P,J3,1*
G04 #@! TO.N,/Vbatt_in*
X79883000Y-49530000D03*
G04 #@! TO.P,J3,2*
G04 #@! TO.N,/Vbatt_in*
X82383000Y-49530000D03*
G04 #@! TO.P,J3,3*
G04 #@! TO.N,GND*
X79883000Y-47030000D03*
G04 #@! TO.P,J3,4*
X82383000Y-47030000D03*
G04 #@! TD*
D18*
G04 #@! TO.P,J4,1*
G04 #@! TO.N,Net-(J4-Pad1)*
X108000000Y-83000000D03*
G04 #@! TD*
D11*
G04 #@! TO.P,J8,3*
G04 #@! TO.N,/12V*
X96774000Y-38481000D03*
G04 #@! TO.P,J8,2*
G04 #@! TO.N,GND*
X94234000Y-38481000D03*
D10*
G04 #@! TO.P,J8,1*
G04 #@! TO.N,/Vbatt_out*
X91694000Y-38481000D03*
G04 #@! TD*
D18*
G04 #@! TO.P,J5,1*
G04 #@! TO.N,Net-(J5-Pad1)*
X108000000Y-38000000D03*
G04 #@! TD*
G04 #@! TO.P,J6,1*
G04 #@! TO.N,Net-(J6-Pad1)*
X75000000Y-83000000D03*
G04 #@! TD*
G04 #@! TO.P,J7,1*
G04 #@! TO.N,Net-(J7-Pad1)*
X75000000Y-38000000D03*
G04 #@! TD*
D17*
G04 #@! TO.P,J2,6*
G04 #@! TO.N,/5V*
X80384000Y-82804000D03*
G04 #@! TO.P,J2,5*
G04 #@! TO.N,/5V_EN*
X81884000Y-82804000D03*
G04 #@! TO.P,J2,4*
G04 #@! TO.N,/3.3V*
X83384000Y-82804000D03*
G04 #@! TO.P,J2,3*
G04 #@! TO.N,/I_batt*
X84884000Y-82804000D03*
G04 #@! TO.P,J2,2*
G04 #@! TO.N,/batt_sense*
X86384000Y-82804000D03*
G04 #@! TO.P,J2,1*
G04 #@! TO.N,GND*
X87884000Y-82804000D03*
G04 #@! TD*
D19*
G04 #@! TO.N,GND*
X87884000Y-72644000D03*
X74168000Y-52324000D03*
X97470000Y-59387002D03*
X99060000Y-59944000D03*
X93980000Y-61933068D03*
X95520999Y-59927001D03*
X73660000Y-64008000D03*
X78232000Y-76708000D03*
X105664000Y-74676000D03*
X105156000Y-73152000D03*
G04 #@! TO.N,/Vbatt_out*
X85344000Y-51816000D03*
X79248000Y-66040000D03*
X77115001Y-66040000D03*
G04 #@! TO.N,/Vbatt_in*
X81153000Y-52321000D03*
G04 #@! TO.N,/12V*
X100197000Y-38481000D03*
X100203000Y-39751000D03*
G04 #@! TO.N,/I_batt*
X78232000Y-60452000D03*
X74168000Y-54864000D03*
G04 #@! TO.N,Flash*
X101600000Y-67056000D03*
X101600000Y-77216000D03*
G04 #@! TO.N,Torch*
X83820000Y-65532000D03*
X87618328Y-75270193D03*
G04 #@! TO.N,V_LED*
X104648000Y-40640000D03*
X101092000Y-42624000D03*
X103076000Y-40640000D03*
G04 #@! TO.N,Net-(Q3-Pad1)*
X98552000Y-56896000D03*
X93472000Y-57912000D03*
G04 #@! TO.N,Net-(Q6-Pad4)*
X90424000Y-73152000D03*
X96012000Y-71120000D03*
G04 #@! TO.N,LED_EN2*
X101092000Y-59944000D03*
X90318289Y-78549010D03*
G04 #@! TD*
D20*
G04 #@! TO.N,/Vbatt_out*
X91694000Y-38481000D02*
X85344000Y-44831000D01*
X85344000Y-44831000D02*
X85344000Y-51816000D01*
D21*
X79248000Y-66040000D02*
X77115001Y-66040000D01*
D20*
G04 #@! TO.N,/Vbatt_in*
X82383000Y-49530000D02*
X82383000Y-51091000D01*
X82383000Y-51091000D02*
X81153000Y-52321000D01*
X79883000Y-51051000D02*
X81153000Y-52321000D01*
X79883000Y-49530000D02*
X79883000Y-51051000D01*
X82383000Y-49530000D02*
X79883000Y-49530000D01*
G04 #@! TO.N,/12V*
X96774000Y-38481000D02*
X100197000Y-38481000D01*
X96774000Y-38481000D02*
X98425000Y-40132000D01*
X98425000Y-40132000D02*
X99822000Y-40132000D01*
X99822000Y-40132000D02*
X100203000Y-39751000D01*
D21*
G04 #@! TO.N,/I_batt*
X74802002Y-54864000D02*
X74168000Y-54864000D01*
X78232000Y-60452000D02*
X78232000Y-58293998D01*
X78232000Y-58293998D02*
X74802002Y-54864000D01*
G04 #@! TO.N,Flash*
X101600000Y-67056000D02*
X101600000Y-77216000D01*
G04 #@! TO.N,Torch*
X87118329Y-74770194D02*
X87618328Y-75270193D01*
X83820000Y-71471865D02*
X87118329Y-74770194D01*
X83820000Y-65532000D02*
X83820000Y-71471865D01*
D20*
G04 #@! TO.N,V_LED*
X95304894Y-49276000D02*
X94440000Y-49276000D01*
X103940894Y-40640000D02*
X95304894Y-49276000D01*
X104648000Y-40640000D02*
X103940894Y-40640000D01*
X100632000Y-49276000D02*
X95304894Y-49276000D01*
X103632000Y-49276000D02*
X100632000Y-49276000D01*
X100124000Y-42624000D02*
X93472000Y-49276000D01*
X101092000Y-42624000D02*
X100124000Y-42624000D01*
X94440000Y-49276000D02*
X93472000Y-49276000D01*
X93472000Y-49276000D02*
X91440000Y-49276000D01*
X101092000Y-42624000D02*
X103076000Y-40640000D01*
D21*
G04 #@! TO.N,Net-(Q3-Pad1)*
X98552000Y-56896000D02*
X94488000Y-56896000D01*
X94488000Y-56896000D02*
X93472000Y-57912000D01*
G04 #@! TO.N,Net-(Q6-Pad4)*
X92456000Y-71120000D02*
X96012000Y-71120000D01*
X90424000Y-73152000D02*
X92456000Y-71120000D01*
G04 #@! TO.N,LED_EN2*
X100774999Y-68092300D02*
X90818288Y-78049011D01*
X101092000Y-59944000D02*
X101092000Y-66342998D01*
X101092000Y-66342998D02*
X100774999Y-66659999D01*
X100774999Y-66659999D02*
X100774999Y-68092300D01*
X90818288Y-78049011D02*
X90318289Y-78549010D01*
G04 #@! TD*
D22*
G04 #@! TO.N,GND*
G36*
X106079826Y-36716981D02*
X105735000Y-37549463D01*
X105735000Y-38450537D01*
X106079826Y-39283019D01*
X106716981Y-39920174D01*
X107549463Y-40265000D01*
X108450537Y-40265000D01*
X109283019Y-39920174D01*
X109755000Y-39448193D01*
X109755001Y-81551808D01*
X109283019Y-81079826D01*
X108450537Y-80735000D01*
X107549463Y-80735000D01*
X106716981Y-81079826D01*
X106079826Y-81716981D01*
X105735000Y-82549463D01*
X105735000Y-83450537D01*
X106079826Y-84283019D01*
X106659807Y-84863000D01*
X76340193Y-84863000D01*
X76920174Y-84283019D01*
X77265000Y-83450537D01*
X77265000Y-82558343D01*
X79149000Y-82558343D01*
X79149000Y-83049657D01*
X79337018Y-83503571D01*
X79684429Y-83850982D01*
X80138343Y-84039000D01*
X80629657Y-84039000D01*
X81083571Y-83850982D01*
X81134000Y-83800553D01*
X81184429Y-83850982D01*
X81638343Y-84039000D01*
X82129657Y-84039000D01*
X82583571Y-83850982D01*
X82634000Y-83800553D01*
X82684429Y-83850982D01*
X83138343Y-84039000D01*
X83629657Y-84039000D01*
X84083571Y-83850982D01*
X84134000Y-83800553D01*
X84184429Y-83850982D01*
X84638343Y-84039000D01*
X85129657Y-84039000D01*
X85583571Y-83850982D01*
X85634000Y-83800553D01*
X85684429Y-83850982D01*
X86138343Y-84039000D01*
X86629657Y-84039000D01*
X87083571Y-83850982D01*
X87212926Y-83721627D01*
X87250383Y-83892164D01*
X87715036Y-84051807D01*
X88205413Y-84021482D01*
X88517617Y-83892164D01*
X88567130Y-83666735D01*
X87884000Y-82983605D01*
X87869858Y-82997748D01*
X87690253Y-82818143D01*
X87704395Y-82804000D01*
X88063605Y-82804000D01*
X88746735Y-83487130D01*
X88972164Y-83437617D01*
X89131807Y-82972964D01*
X89106167Y-82558343D01*
X92865000Y-82558343D01*
X92865000Y-83049657D01*
X93053018Y-83503571D01*
X93400429Y-83850982D01*
X93854343Y-84039000D01*
X94345657Y-84039000D01*
X94799571Y-83850982D01*
X94850000Y-83800553D01*
X94900429Y-83850982D01*
X95354343Y-84039000D01*
X95845657Y-84039000D01*
X96299571Y-83850982D01*
X96350000Y-83800553D01*
X96400429Y-83850982D01*
X96854343Y-84039000D01*
X97345657Y-84039000D01*
X97799571Y-83850982D01*
X97850000Y-83800553D01*
X97900429Y-83850982D01*
X98354343Y-84039000D01*
X98845657Y-84039000D01*
X99299571Y-83850982D01*
X99350000Y-83800553D01*
X99400429Y-83850982D01*
X99854343Y-84039000D01*
X100345657Y-84039000D01*
X100799571Y-83850982D01*
X100928926Y-83721627D01*
X100966383Y-83892164D01*
X101431036Y-84051807D01*
X101921413Y-84021482D01*
X102233617Y-83892164D01*
X102283130Y-83666735D01*
X101600000Y-82983605D01*
X101585858Y-82997748D01*
X101406253Y-82818143D01*
X101420395Y-82804000D01*
X101779605Y-82804000D01*
X102462735Y-83487130D01*
X102688164Y-83437617D01*
X102847807Y-82972964D01*
X102817482Y-82482587D01*
X102688164Y-82170383D01*
X102462735Y-82120870D01*
X101779605Y-82804000D01*
X101420395Y-82804000D01*
X101406253Y-82789858D01*
X101585858Y-82610253D01*
X101600000Y-82624395D01*
X102283130Y-81941265D01*
X102233617Y-81715836D01*
X101768964Y-81556193D01*
X101278587Y-81586518D01*
X100966383Y-81715836D01*
X100928926Y-81886373D01*
X100799571Y-81757018D01*
X100345657Y-81569000D01*
X99854343Y-81569000D01*
X99400429Y-81757018D01*
X99350000Y-81807447D01*
X99299571Y-81757018D01*
X98845657Y-81569000D01*
X98354343Y-81569000D01*
X97900429Y-81757018D01*
X97850000Y-81807447D01*
X97799571Y-81757018D01*
X97345657Y-81569000D01*
X96854343Y-81569000D01*
X96400429Y-81757018D01*
X96350000Y-81807447D01*
X96299571Y-81757018D01*
X95845657Y-81569000D01*
X95354343Y-81569000D01*
X94900429Y-81757018D01*
X94850000Y-81807447D01*
X94799571Y-81757018D01*
X94345657Y-81569000D01*
X93854343Y-81569000D01*
X93400429Y-81757018D01*
X93053018Y-82104429D01*
X92865000Y-82558343D01*
X89106167Y-82558343D01*
X89101482Y-82482587D01*
X88972164Y-82170383D01*
X88746735Y-82120870D01*
X88063605Y-82804000D01*
X87704395Y-82804000D01*
X87690253Y-82789858D01*
X87869858Y-82610253D01*
X87884000Y-82624395D01*
X88567130Y-81941265D01*
X88517617Y-81715836D01*
X88052964Y-81556193D01*
X87562587Y-81586518D01*
X87250383Y-81715836D01*
X87212926Y-81886373D01*
X87083571Y-81757018D01*
X86629657Y-81569000D01*
X86138343Y-81569000D01*
X85684429Y-81757018D01*
X85634000Y-81807447D01*
X85583571Y-81757018D01*
X85129657Y-81569000D01*
X84638343Y-81569000D01*
X84184429Y-81757018D01*
X84134000Y-81807447D01*
X84083571Y-81757018D01*
X83629657Y-81569000D01*
X83138343Y-81569000D01*
X82684429Y-81757018D01*
X82634000Y-81807447D01*
X82583571Y-81757018D01*
X82129657Y-81569000D01*
X81638343Y-81569000D01*
X81184429Y-81757018D01*
X81134000Y-81807447D01*
X81083571Y-81757018D01*
X80629657Y-81569000D01*
X80138343Y-81569000D01*
X79684429Y-81757018D01*
X79337018Y-82104429D01*
X79149000Y-82558343D01*
X77265000Y-82558343D01*
X77265000Y-82549463D01*
X76920174Y-81716981D01*
X76283019Y-81079826D01*
X75450537Y-80735000D01*
X74549463Y-80735000D01*
X73716981Y-81079826D01*
X73379000Y-81417807D01*
X73379000Y-78232000D01*
X74177908Y-78232000D01*
X74293161Y-78811418D01*
X74621375Y-79302625D01*
X75112582Y-79630839D01*
X75545744Y-79717000D01*
X75838256Y-79717000D01*
X76271418Y-79630839D01*
X76762625Y-79302625D01*
X77090839Y-78811418D01*
X77187942Y-78323244D01*
X89183289Y-78323244D01*
X89183289Y-78774776D01*
X89356082Y-79191936D01*
X89675363Y-79511217D01*
X90092523Y-79684010D01*
X90544055Y-79684010D01*
X90961215Y-79511217D01*
X91280496Y-79191936D01*
X91453289Y-78774776D01*
X91453289Y-78488811D01*
X100840000Y-69102101D01*
X100840001Y-76370866D01*
X100637793Y-76573074D01*
X100465000Y-76990234D01*
X100465000Y-77441766D01*
X100637793Y-77858926D01*
X100957074Y-78178207D01*
X101374234Y-78351000D01*
X101825766Y-78351000D01*
X102242926Y-78178207D01*
X102562207Y-77858926D01*
X102735000Y-77441766D01*
X102735000Y-76990234D01*
X102562207Y-76573074D01*
X102360000Y-76370867D01*
X102360000Y-67901133D01*
X102562207Y-67698926D01*
X102686854Y-67398000D01*
X103205385Y-67398000D01*
X103751185Y-67171922D01*
X104008456Y-66914651D01*
X104031144Y-66957098D01*
X104101651Y-67062620D01*
X104132741Y-67100504D01*
X104222496Y-67190259D01*
X104260380Y-67221349D01*
X104365902Y-67291856D01*
X104409124Y-67314959D01*
X104526391Y-67363533D01*
X104573289Y-67377759D01*
X104697763Y-67402518D01*
X104746536Y-67407322D01*
X104810000Y-67410440D01*
X106010000Y-67410440D01*
X106073464Y-67407322D01*
X106122237Y-67402518D01*
X106246711Y-67377759D01*
X106293609Y-67363533D01*
X106410876Y-67314959D01*
X106454098Y-67291856D01*
X106559620Y-67221349D01*
X106597504Y-67190259D01*
X106687259Y-67100504D01*
X106718349Y-67062620D01*
X106788856Y-66957098D01*
X106811959Y-66913876D01*
X106860533Y-66796609D01*
X106874759Y-66749711D01*
X106899518Y-66625237D01*
X106904322Y-66576464D01*
X106907440Y-66513000D01*
X106907440Y-65948000D01*
X107005602Y-65948000D01*
X107477894Y-65752371D01*
X107839371Y-65390894D01*
X108035000Y-64918602D01*
X108035000Y-64407398D01*
X107839371Y-63935106D01*
X107477894Y-63573629D01*
X107005602Y-63378000D01*
X106895000Y-63378000D01*
X106895000Y-63117615D01*
X106668922Y-62571815D01*
X106251185Y-62154078D01*
X105705385Y-61928000D01*
X105114615Y-61928000D01*
X104568815Y-62154078D01*
X104160000Y-62562893D01*
X103751185Y-62154078D01*
X103205385Y-61928000D01*
X102614615Y-61928000D01*
X102068815Y-62154078D01*
X101852000Y-62370893D01*
X101852000Y-60789133D01*
X102054207Y-60586926D01*
X102227000Y-60169766D01*
X102227000Y-59718234D01*
X102054207Y-59301074D01*
X101734926Y-58981793D01*
X101317766Y-58809000D01*
X100866234Y-58809000D01*
X100449074Y-58981793D01*
X100129793Y-59301074D01*
X99957000Y-59718234D01*
X99957000Y-60169766D01*
X100129793Y-60586926D01*
X100332000Y-60789133D01*
X100332001Y-66028196D01*
X100290529Y-66069668D01*
X100227070Y-66112070D01*
X100059095Y-66363463D01*
X100014999Y-66585148D01*
X100014999Y-66585152D01*
X100000111Y-66659999D01*
X100014999Y-66734846D01*
X100015000Y-67777497D01*
X97074147Y-70718351D01*
X96974207Y-70477074D01*
X96654926Y-70157793D01*
X96237766Y-69985000D01*
X95786234Y-69985000D01*
X95369074Y-70157793D01*
X95166867Y-70360000D01*
X92530847Y-70360000D01*
X92456000Y-70345112D01*
X92381153Y-70360000D01*
X92381148Y-70360000D01*
X92159463Y-70404096D01*
X91908071Y-70572071D01*
X91865671Y-70635527D01*
X90484199Y-72017000D01*
X90198234Y-72017000D01*
X89781074Y-72189793D01*
X89461793Y-72509074D01*
X89289000Y-72926234D01*
X89289000Y-73377766D01*
X89461793Y-73794926D01*
X89781074Y-74114207D01*
X90198234Y-74287000D01*
X90649766Y-74287000D01*
X91066926Y-74114207D01*
X91386207Y-73794926D01*
X91559000Y-73377766D01*
X91559000Y-73091801D01*
X92770802Y-71880000D01*
X95166867Y-71880000D01*
X95369074Y-72082207D01*
X95610351Y-72182147D01*
X90378488Y-77414010D01*
X90092523Y-77414010D01*
X89675363Y-77586803D01*
X89356082Y-77906084D01*
X89183289Y-78323244D01*
X77187942Y-78323244D01*
X77206092Y-78232000D01*
X77090839Y-77652582D01*
X76762625Y-77161375D01*
X76443522Y-76948157D01*
X76573358Y-76887183D01*
X76963645Y-76458924D01*
X77133476Y-76048890D01*
X77012155Y-75819000D01*
X75819000Y-75819000D01*
X75819000Y-75839000D01*
X75565000Y-75839000D01*
X75565000Y-75819000D01*
X74371845Y-75819000D01*
X74250524Y-76048890D01*
X74420355Y-76458924D01*
X74810642Y-76887183D01*
X74940478Y-76948157D01*
X74621375Y-77161375D01*
X74293161Y-77652582D01*
X74177908Y-78232000D01*
X73379000Y-78232000D01*
X73379000Y-73152000D01*
X74177908Y-73152000D01*
X74293161Y-73731418D01*
X74621375Y-74222625D01*
X74940478Y-74435843D01*
X74810642Y-74496817D01*
X74420355Y-74925076D01*
X74250524Y-75335110D01*
X74371845Y-75565000D01*
X75565000Y-75565000D01*
X75565000Y-75545000D01*
X75819000Y-75545000D01*
X75819000Y-75565000D01*
X77012155Y-75565000D01*
X77133476Y-75335110D01*
X76963645Y-74925076D01*
X76573358Y-74496817D01*
X76443522Y-74435843D01*
X76762625Y-74222625D01*
X77090839Y-73731418D01*
X77206092Y-73152000D01*
X77090839Y-72572582D01*
X76762625Y-72081375D01*
X76744381Y-72069184D01*
X76789765Y-72060157D01*
X76999809Y-71919809D01*
X77140157Y-71709765D01*
X77189440Y-71462000D01*
X77189440Y-69762000D01*
X77140157Y-69514235D01*
X76999809Y-69304191D01*
X76789765Y-69163843D01*
X76542000Y-69114560D01*
X74842000Y-69114560D01*
X74594235Y-69163843D01*
X74384191Y-69304191D01*
X74243843Y-69514235D01*
X74194560Y-69762000D01*
X74194560Y-71462000D01*
X74243843Y-71709765D01*
X74384191Y-71919809D01*
X74594235Y-72060157D01*
X74639619Y-72069184D01*
X74621375Y-72081375D01*
X74293161Y-72572582D01*
X74177908Y-73152000D01*
X73379000Y-73152000D01*
X73379000Y-65532000D01*
X74050908Y-65532000D01*
X74166161Y-66111418D01*
X74494375Y-66602625D01*
X74985582Y-66930839D01*
X75418744Y-67017000D01*
X75711256Y-67017000D01*
X76144418Y-66930839D01*
X76298052Y-66828184D01*
X76472075Y-67002207D01*
X76889235Y-67175000D01*
X77340767Y-67175000D01*
X77757927Y-67002207D01*
X77960134Y-66800000D01*
X78402867Y-66800000D01*
X78605074Y-67002207D01*
X79022234Y-67175000D01*
X79473766Y-67175000D01*
X79890926Y-67002207D01*
X80210207Y-66682926D01*
X80383000Y-66265766D01*
X80383000Y-65814234D01*
X80210207Y-65397074D01*
X80119367Y-65306234D01*
X82685000Y-65306234D01*
X82685000Y-65757766D01*
X82857793Y-66174926D01*
X83060000Y-66377133D01*
X83060001Y-71397013D01*
X83045112Y-71471865D01*
X83104097Y-71768402D01*
X83178665Y-71880000D01*
X83272072Y-72019794D01*
X83335528Y-72062194D01*
X86483328Y-75209995D01*
X86483328Y-75495959D01*
X86656121Y-75913119D01*
X86975402Y-76232400D01*
X87392562Y-76405193D01*
X87844094Y-76405193D01*
X88261254Y-76232400D01*
X88580535Y-75913119D01*
X88753328Y-75495959D01*
X88753328Y-75044427D01*
X88580535Y-74627267D01*
X88261254Y-74307986D01*
X87844094Y-74135193D01*
X87558130Y-74135193D01*
X84580000Y-71157064D01*
X84580000Y-66377133D01*
X84782207Y-66174926D01*
X84955000Y-65757766D01*
X84955000Y-65306234D01*
X84782207Y-64889074D01*
X84462926Y-64569793D01*
X84045766Y-64397000D01*
X83594234Y-64397000D01*
X83177074Y-64569793D01*
X82857793Y-64889074D01*
X82685000Y-65306234D01*
X80119367Y-65306234D01*
X79890926Y-65077793D01*
X79473766Y-64905000D01*
X79022234Y-64905000D01*
X78605074Y-65077793D01*
X78402867Y-65280000D01*
X77960134Y-65280000D01*
X77757927Y-65077793D01*
X77340767Y-64905000D01*
X76932046Y-64905000D01*
X76635625Y-64461375D01*
X76316522Y-64248157D01*
X76446358Y-64187183D01*
X76836645Y-63758924D01*
X77006476Y-63348890D01*
X76885155Y-63119000D01*
X75692000Y-63119000D01*
X75692000Y-63139000D01*
X75438000Y-63139000D01*
X75438000Y-63119000D01*
X74244845Y-63119000D01*
X74123524Y-63348890D01*
X74293355Y-63758924D01*
X74683642Y-64187183D01*
X74813478Y-64248157D01*
X74494375Y-64461375D01*
X74166161Y-64952582D01*
X74050908Y-65532000D01*
X73379000Y-65532000D01*
X73379000Y-55680133D01*
X73525074Y-55826207D01*
X73942234Y-55999000D01*
X74393766Y-55999000D01*
X74725000Y-55861799D01*
X75277761Y-56414560D01*
X74715000Y-56414560D01*
X74467235Y-56463843D01*
X74257191Y-56604191D01*
X74116843Y-56814235D01*
X74067560Y-57062000D01*
X74067560Y-58762000D01*
X74116843Y-59009765D01*
X74257191Y-59219809D01*
X74467235Y-59360157D01*
X74512619Y-59369184D01*
X74494375Y-59381375D01*
X74166161Y-59872582D01*
X74050908Y-60452000D01*
X74166161Y-61031418D01*
X74494375Y-61522625D01*
X74813478Y-61735843D01*
X74683642Y-61796817D01*
X74293355Y-62225076D01*
X74123524Y-62635110D01*
X74244845Y-62865000D01*
X75438000Y-62865000D01*
X75438000Y-62845000D01*
X75692000Y-62845000D01*
X75692000Y-62865000D01*
X76885155Y-62865000D01*
X77006476Y-62635110D01*
X76836645Y-62225076D01*
X76446358Y-61796817D01*
X76316522Y-61735843D01*
X76635625Y-61522625D01*
X76963839Y-61031418D01*
X77079092Y-60452000D01*
X76963839Y-59872582D01*
X76635625Y-59381375D01*
X76617381Y-59369184D01*
X76662765Y-59360157D01*
X76872809Y-59219809D01*
X77013157Y-59009765D01*
X77062440Y-58762000D01*
X77062440Y-58199240D01*
X77472001Y-58608801D01*
X77472000Y-59606867D01*
X77269793Y-59809074D01*
X77097000Y-60226234D01*
X77097000Y-60677766D01*
X77269793Y-61094926D01*
X77589074Y-61414207D01*
X78006234Y-61587000D01*
X78457766Y-61587000D01*
X78874926Y-61414207D01*
X79194207Y-61094926D01*
X79367000Y-60677766D01*
X79367000Y-60226234D01*
X79194207Y-59809074D01*
X78992000Y-59606867D01*
X78992000Y-58368846D01*
X79006888Y-58293998D01*
X78992000Y-58219150D01*
X78992000Y-58219146D01*
X78947904Y-57997461D01*
X78947904Y-57997460D01*
X78822329Y-57809525D01*
X78779929Y-57746069D01*
X78716473Y-57703669D01*
X78699038Y-57686234D01*
X92337000Y-57686234D01*
X92337000Y-58137766D01*
X92509793Y-58554926D01*
X92829074Y-58874207D01*
X93246234Y-59047000D01*
X93697766Y-59047000D01*
X94114926Y-58874207D01*
X94434207Y-58554926D01*
X94607000Y-58137766D01*
X94607000Y-57851802D01*
X94802802Y-57656000D01*
X97706867Y-57656000D01*
X97909074Y-57858207D01*
X98326234Y-58031000D01*
X98777766Y-58031000D01*
X99194926Y-57858207D01*
X99514207Y-57538926D01*
X99687000Y-57121766D01*
X99687000Y-56670234D01*
X99514207Y-56253074D01*
X99194926Y-55933793D01*
X98777766Y-55761000D01*
X98326234Y-55761000D01*
X97909074Y-55933793D01*
X97706867Y-56136000D01*
X94562847Y-56136000D01*
X94488000Y-56121112D01*
X94413153Y-56136000D01*
X94413148Y-56136000D01*
X94191463Y-56180096D01*
X93940071Y-56348071D01*
X93897671Y-56411527D01*
X93532198Y-56777000D01*
X93246234Y-56777000D01*
X92829074Y-56949793D01*
X92509793Y-57269074D01*
X92337000Y-57686234D01*
X78699038Y-57686234D01*
X75392333Y-54379530D01*
X75349931Y-54316071D01*
X75098539Y-54148096D01*
X75046972Y-54137839D01*
X74810926Y-53901793D01*
X74393766Y-53729000D01*
X73942234Y-53729000D01*
X73525074Y-53901793D01*
X73379000Y-54047867D01*
X73379000Y-49530000D01*
X78215969Y-49530000D01*
X78248000Y-49691031D01*
X78248000Y-50889970D01*
X78215969Y-51051000D01*
X78248000Y-51212030D01*
X78248000Y-51212031D01*
X78342865Y-51688945D01*
X78704232Y-52229769D01*
X78840748Y-52320986D01*
X79883018Y-53363257D01*
X79974232Y-53499768D01*
X80110743Y-53590982D01*
X80110746Y-53590985D01*
X80515054Y-53861135D01*
X80641950Y-53886376D01*
X81153000Y-53988031D01*
X81790945Y-53861135D01*
X82195253Y-53590985D01*
X82195254Y-53590984D01*
X82331768Y-53499768D01*
X82422983Y-53363255D01*
X83425252Y-52360987D01*
X83561769Y-52269769D01*
X83720097Y-52032814D01*
X83803865Y-52453945D01*
X84165232Y-52994769D01*
X84706056Y-53356136D01*
X85344000Y-53483031D01*
X85981945Y-53356136D01*
X86522769Y-52994769D01*
X86884136Y-52453945D01*
X86979000Y-51977031D01*
X86979000Y-49276000D01*
X89772969Y-49276000D01*
X89792560Y-49374491D01*
X89792560Y-50276000D01*
X89841843Y-50523765D01*
X89982191Y-50733809D01*
X90192235Y-50874157D01*
X90440000Y-50923440D01*
X92440000Y-50923440D01*
X92502541Y-50911000D01*
X93310970Y-50911000D01*
X93472000Y-50943031D01*
X93633030Y-50911000D01*
X95143864Y-50911000D01*
X95304894Y-50943031D01*
X95465924Y-50911000D01*
X102569459Y-50911000D01*
X102632000Y-50923440D01*
X104632000Y-50923440D01*
X104879765Y-50874157D01*
X105089809Y-50733809D01*
X105230157Y-50523765D01*
X105279440Y-50276000D01*
X105279440Y-49374491D01*
X105299031Y-49276000D01*
X105279440Y-49177509D01*
X105279440Y-48276000D01*
X105230157Y-48028235D01*
X105089809Y-47818191D01*
X104879765Y-47677843D01*
X104632000Y-47628560D01*
X102632000Y-47628560D01*
X102569459Y-47641000D01*
X99252132Y-47641000D01*
X101464600Y-45428532D01*
X102659073Y-45428532D01*
X102757736Y-45695387D01*
X103367461Y-45921908D01*
X104017460Y-45897856D01*
X104506264Y-45695387D01*
X104604927Y-45428532D01*
X103632000Y-44455605D01*
X102659073Y-45428532D01*
X101464600Y-45428532D01*
X102075028Y-44818104D01*
X102212613Y-45150264D01*
X102479468Y-45248927D01*
X103452395Y-44276000D01*
X103811605Y-44276000D01*
X104784532Y-45248927D01*
X105051387Y-45150264D01*
X105277908Y-44540539D01*
X105253856Y-43890540D01*
X105051387Y-43401736D01*
X104784532Y-43303073D01*
X103811605Y-44276000D01*
X103452395Y-44276000D01*
X103438253Y-44261858D01*
X103617858Y-44082253D01*
X103632000Y-44096395D01*
X104604927Y-43123468D01*
X104506264Y-42856613D01*
X104163763Y-42729369D01*
X104618133Y-42275000D01*
X104809031Y-42275000D01*
X105285945Y-42180136D01*
X105826769Y-41818769D01*
X106188136Y-41277945D01*
X106315031Y-40640000D01*
X106188136Y-40002055D01*
X105826769Y-39461231D01*
X105285945Y-39099864D01*
X104809031Y-39005000D01*
X104101919Y-39005000D01*
X103940893Y-38972970D01*
X103779867Y-39005000D01*
X103779863Y-39005000D01*
X103508447Y-39058988D01*
X103076000Y-38972969D01*
X102438054Y-39099864D01*
X102033746Y-39370015D01*
X101833983Y-39569778D01*
X101743135Y-39113055D01*
X101739415Y-39107488D01*
X101864031Y-38481000D01*
X101737136Y-37843055D01*
X101375769Y-37302231D01*
X100834945Y-36940864D01*
X100358031Y-36846000D01*
X96935030Y-36846000D01*
X96774000Y-36813969D01*
X96612970Y-36846000D01*
X96612969Y-36846000D01*
X96136055Y-36940864D01*
X95595231Y-37302231D01*
X95408874Y-37581134D01*
X95000924Y-37209355D01*
X94590890Y-37039524D01*
X94361000Y-37160845D01*
X94361000Y-38354000D01*
X94381000Y-38354000D01*
X94381000Y-38608000D01*
X94361000Y-38608000D01*
X94361000Y-39801155D01*
X94590890Y-39922476D01*
X95000924Y-39752645D01*
X95408874Y-39380866D01*
X95595231Y-39659769D01*
X95731750Y-39750988D01*
X97155014Y-41174252D01*
X97246231Y-41310769D01*
X97447468Y-41445231D01*
X97787054Y-41672136D01*
X98425000Y-41799031D01*
X98586031Y-41767000D01*
X98668761Y-41767000D01*
X92794762Y-47641000D01*
X92502541Y-47641000D01*
X92440000Y-47628560D01*
X90440000Y-47628560D01*
X90192235Y-47677843D01*
X89982191Y-47818191D01*
X89841843Y-48028235D01*
X89792560Y-48276000D01*
X89792560Y-49177509D01*
X89772969Y-49276000D01*
X86979000Y-49276000D01*
X86979000Y-45508238D01*
X87058706Y-45428532D01*
X90467073Y-45428532D01*
X90565736Y-45695387D01*
X91175461Y-45921908D01*
X91825460Y-45897856D01*
X92314264Y-45695387D01*
X92412927Y-45428532D01*
X91440000Y-44455605D01*
X90467073Y-45428532D01*
X87058706Y-45428532D01*
X88475777Y-44011461D01*
X89794092Y-44011461D01*
X89818144Y-44661460D01*
X90020613Y-45150264D01*
X90287468Y-45248927D01*
X91260395Y-44276000D01*
X91619605Y-44276000D01*
X92592532Y-45248927D01*
X92859387Y-45150264D01*
X93085908Y-44540539D01*
X93061856Y-43890540D01*
X92859387Y-43401736D01*
X92592532Y-43303073D01*
X91619605Y-44276000D01*
X91260395Y-44276000D01*
X90287468Y-43303073D01*
X90020613Y-43401736D01*
X89794092Y-44011461D01*
X88475777Y-44011461D01*
X89363770Y-43123468D01*
X90467073Y-43123468D01*
X91440000Y-44096395D01*
X92412927Y-43123468D01*
X92314264Y-42856613D01*
X91704539Y-42630092D01*
X91054540Y-42654144D01*
X90565736Y-42856613D01*
X90467073Y-43123468D01*
X89363770Y-43123468D01*
X92508799Y-39978440D01*
X92544000Y-39978440D01*
X92791765Y-39929157D01*
X93001809Y-39788809D01*
X93142157Y-39578765D01*
X93162739Y-39475292D01*
X93467076Y-39752645D01*
X93877110Y-39922476D01*
X94107000Y-39801155D01*
X94107000Y-38608000D01*
X94087000Y-38608000D01*
X94087000Y-38354000D01*
X94107000Y-38354000D01*
X94107000Y-37160845D01*
X93877110Y-37039524D01*
X93467076Y-37209355D01*
X93162739Y-37486708D01*
X93142157Y-37383235D01*
X93001809Y-37173191D01*
X92791765Y-37032843D01*
X92544000Y-36983560D01*
X92395842Y-36983560D01*
X92331945Y-36940865D01*
X91693999Y-36813969D01*
X91056054Y-36940865D01*
X90992156Y-36983560D01*
X90844000Y-36983560D01*
X90596235Y-37032843D01*
X90386191Y-37173191D01*
X90245843Y-37383235D01*
X90196560Y-37631000D01*
X90196560Y-37666201D01*
X84301750Y-43561012D01*
X84165231Y-43652231D01*
X83803864Y-44193056D01*
X83710693Y-44661460D01*
X83676969Y-44831000D01*
X83709000Y-44992030D01*
X83709000Y-46320136D01*
X83678259Y-46245920D01*
X83426958Y-46165647D01*
X82562605Y-47030000D01*
X83426958Y-47894353D01*
X83678259Y-47814080D01*
X83709000Y-47729336D01*
X83709001Y-48571579D01*
X83561769Y-48351231D01*
X83229666Y-48129327D01*
X83247353Y-48073958D01*
X82383000Y-47209605D01*
X82368858Y-47223748D01*
X82189253Y-47044143D01*
X82203395Y-47030000D01*
X81339042Y-46165647D01*
X81133000Y-46231463D01*
X80926958Y-46165647D01*
X80062605Y-47030000D01*
X80076748Y-47044143D01*
X79897143Y-47223748D01*
X79883000Y-47209605D01*
X79018647Y-48073958D01*
X79022007Y-48084475D01*
X78939565Y-48100874D01*
X78648414Y-48295414D01*
X78453874Y-48586565D01*
X78414405Y-48784986D01*
X78342864Y-48892055D01*
X78215969Y-49530000D01*
X73379000Y-49530000D01*
X73379000Y-46801279D01*
X78386282Y-46801279D01*
X78412685Y-47391458D01*
X78587741Y-47814080D01*
X78839042Y-47894353D01*
X79703395Y-47030000D01*
X78839042Y-46165647D01*
X78587741Y-46245920D01*
X78386282Y-46801279D01*
X73379000Y-46801279D01*
X73379000Y-45986042D01*
X79018647Y-45986042D01*
X79883000Y-46850395D01*
X80747353Y-45986042D01*
X81518647Y-45986042D01*
X82383000Y-46850395D01*
X83247353Y-45986042D01*
X83167080Y-45734741D01*
X82611721Y-45533282D01*
X82021542Y-45559685D01*
X81598920Y-45734741D01*
X81518647Y-45986042D01*
X80747353Y-45986042D01*
X80667080Y-45734741D01*
X80111721Y-45533282D01*
X79521542Y-45559685D01*
X79098920Y-45734741D01*
X79018647Y-45986042D01*
X73379000Y-45986042D01*
X73379000Y-39582193D01*
X73716981Y-39920174D01*
X74549463Y-40265000D01*
X75450537Y-40265000D01*
X76283019Y-39920174D01*
X76648578Y-39554615D01*
X78398000Y-39554615D01*
X78398000Y-40145385D01*
X78624078Y-40691185D01*
X79041815Y-41108922D01*
X79587615Y-41335000D01*
X80178385Y-41335000D01*
X80724185Y-41108922D01*
X81133000Y-40700107D01*
X81541815Y-41108922D01*
X82087615Y-41335000D01*
X82678385Y-41335000D01*
X83224185Y-41108922D01*
X83641922Y-40691185D01*
X83868000Y-40145385D01*
X83868000Y-39554615D01*
X83641922Y-39008815D01*
X83224185Y-38591078D01*
X82678385Y-38365000D01*
X82087615Y-38365000D01*
X81541815Y-38591078D01*
X81133000Y-38999893D01*
X80724185Y-38591078D01*
X80178385Y-38365000D01*
X79587615Y-38365000D01*
X79041815Y-38591078D01*
X78624078Y-39008815D01*
X78398000Y-39554615D01*
X76648578Y-39554615D01*
X76920174Y-39283019D01*
X77265000Y-38450537D01*
X77265000Y-37549463D01*
X76920174Y-36716981D01*
X76498193Y-36295000D01*
X106501807Y-36295000D01*
X106079826Y-36716981D01*
X106079826Y-36716981D01*
G37*
X106079826Y-36716981D02*
X105735000Y-37549463D01*
X105735000Y-38450537D01*
X106079826Y-39283019D01*
X106716981Y-39920174D01*
X107549463Y-40265000D01*
X108450537Y-40265000D01*
X109283019Y-39920174D01*
X109755000Y-39448193D01*
X109755001Y-81551808D01*
X109283019Y-81079826D01*
X108450537Y-80735000D01*
X107549463Y-80735000D01*
X106716981Y-81079826D01*
X106079826Y-81716981D01*
X105735000Y-82549463D01*
X105735000Y-83450537D01*
X106079826Y-84283019D01*
X106659807Y-84863000D01*
X76340193Y-84863000D01*
X76920174Y-84283019D01*
X77265000Y-83450537D01*
X77265000Y-82558343D01*
X79149000Y-82558343D01*
X79149000Y-83049657D01*
X79337018Y-83503571D01*
X79684429Y-83850982D01*
X80138343Y-84039000D01*
X80629657Y-84039000D01*
X81083571Y-83850982D01*
X81134000Y-83800553D01*
X81184429Y-83850982D01*
X81638343Y-84039000D01*
X82129657Y-84039000D01*
X82583571Y-83850982D01*
X82634000Y-83800553D01*
X82684429Y-83850982D01*
X83138343Y-84039000D01*
X83629657Y-84039000D01*
X84083571Y-83850982D01*
X84134000Y-83800553D01*
X84184429Y-83850982D01*
X84638343Y-84039000D01*
X85129657Y-84039000D01*
X85583571Y-83850982D01*
X85634000Y-83800553D01*
X85684429Y-83850982D01*
X86138343Y-84039000D01*
X86629657Y-84039000D01*
X87083571Y-83850982D01*
X87212926Y-83721627D01*
X87250383Y-83892164D01*
X87715036Y-84051807D01*
X88205413Y-84021482D01*
X88517617Y-83892164D01*
X88567130Y-83666735D01*
X87884000Y-82983605D01*
X87869858Y-82997748D01*
X87690253Y-82818143D01*
X87704395Y-82804000D01*
X88063605Y-82804000D01*
X88746735Y-83487130D01*
X88972164Y-83437617D01*
X89131807Y-82972964D01*
X89106167Y-82558343D01*
X92865000Y-82558343D01*
X92865000Y-83049657D01*
X93053018Y-83503571D01*
X93400429Y-83850982D01*
X93854343Y-84039000D01*
X94345657Y-84039000D01*
X94799571Y-83850982D01*
X94850000Y-83800553D01*
X94900429Y-83850982D01*
X95354343Y-84039000D01*
X95845657Y-84039000D01*
X96299571Y-83850982D01*
X96350000Y-83800553D01*
X96400429Y-83850982D01*
X96854343Y-84039000D01*
X97345657Y-84039000D01*
X97799571Y-83850982D01*
X97850000Y-83800553D01*
X97900429Y-83850982D01*
X98354343Y-84039000D01*
X98845657Y-84039000D01*
X99299571Y-83850982D01*
X99350000Y-83800553D01*
X99400429Y-83850982D01*
X99854343Y-84039000D01*
X100345657Y-84039000D01*
X100799571Y-83850982D01*
X100928926Y-83721627D01*
X100966383Y-83892164D01*
X101431036Y-84051807D01*
X101921413Y-84021482D01*
X102233617Y-83892164D01*
X102283130Y-83666735D01*
X101600000Y-82983605D01*
X101585858Y-82997748D01*
X101406253Y-82818143D01*
X101420395Y-82804000D01*
X101779605Y-82804000D01*
X102462735Y-83487130D01*
X102688164Y-83437617D01*
X102847807Y-82972964D01*
X102817482Y-82482587D01*
X102688164Y-82170383D01*
X102462735Y-82120870D01*
X101779605Y-82804000D01*
X101420395Y-82804000D01*
X101406253Y-82789858D01*
X101585858Y-82610253D01*
X101600000Y-82624395D01*
X102283130Y-81941265D01*
X102233617Y-81715836D01*
X101768964Y-81556193D01*
X101278587Y-81586518D01*
X100966383Y-81715836D01*
X100928926Y-81886373D01*
X100799571Y-81757018D01*
X100345657Y-81569000D01*
X99854343Y-81569000D01*
X99400429Y-81757018D01*
X99350000Y-81807447D01*
X99299571Y-81757018D01*
X98845657Y-81569000D01*
X98354343Y-81569000D01*
X97900429Y-81757018D01*
X97850000Y-81807447D01*
X97799571Y-81757018D01*
X97345657Y-81569000D01*
X96854343Y-81569000D01*
X96400429Y-81757018D01*
X96350000Y-81807447D01*
X96299571Y-81757018D01*
X95845657Y-81569000D01*
X95354343Y-81569000D01*
X94900429Y-81757018D01*
X94850000Y-81807447D01*
X94799571Y-81757018D01*
X94345657Y-81569000D01*
X93854343Y-81569000D01*
X93400429Y-81757018D01*
X93053018Y-82104429D01*
X92865000Y-82558343D01*
X89106167Y-82558343D01*
X89101482Y-82482587D01*
X88972164Y-82170383D01*
X88746735Y-82120870D01*
X88063605Y-82804000D01*
X87704395Y-82804000D01*
X87690253Y-82789858D01*
X87869858Y-82610253D01*
X87884000Y-82624395D01*
X88567130Y-81941265D01*
X88517617Y-81715836D01*
X88052964Y-81556193D01*
X87562587Y-81586518D01*
X87250383Y-81715836D01*
X87212926Y-81886373D01*
X87083571Y-81757018D01*
X86629657Y-81569000D01*
X86138343Y-81569000D01*
X85684429Y-81757018D01*
X85634000Y-81807447D01*
X85583571Y-81757018D01*
X85129657Y-81569000D01*
X84638343Y-81569000D01*
X84184429Y-81757018D01*
X84134000Y-81807447D01*
X84083571Y-81757018D01*
X83629657Y-81569000D01*
X83138343Y-81569000D01*
X82684429Y-81757018D01*
X82634000Y-81807447D01*
X82583571Y-81757018D01*
X82129657Y-81569000D01*
X81638343Y-81569000D01*
X81184429Y-81757018D01*
X81134000Y-81807447D01*
X81083571Y-81757018D01*
X80629657Y-81569000D01*
X80138343Y-81569000D01*
X79684429Y-81757018D01*
X79337018Y-82104429D01*
X79149000Y-82558343D01*
X77265000Y-82558343D01*
X77265000Y-82549463D01*
X76920174Y-81716981D01*
X76283019Y-81079826D01*
X75450537Y-80735000D01*
X74549463Y-80735000D01*
X73716981Y-81079826D01*
X73379000Y-81417807D01*
X73379000Y-78232000D01*
X74177908Y-78232000D01*
X74293161Y-78811418D01*
X74621375Y-79302625D01*
X75112582Y-79630839D01*
X75545744Y-79717000D01*
X75838256Y-79717000D01*
X76271418Y-79630839D01*
X76762625Y-79302625D01*
X77090839Y-78811418D01*
X77187942Y-78323244D01*
X89183289Y-78323244D01*
X89183289Y-78774776D01*
X89356082Y-79191936D01*
X89675363Y-79511217D01*
X90092523Y-79684010D01*
X90544055Y-79684010D01*
X90961215Y-79511217D01*
X91280496Y-79191936D01*
X91453289Y-78774776D01*
X91453289Y-78488811D01*
X100840000Y-69102101D01*
X100840001Y-76370866D01*
X100637793Y-76573074D01*
X100465000Y-76990234D01*
X100465000Y-77441766D01*
X100637793Y-77858926D01*
X100957074Y-78178207D01*
X101374234Y-78351000D01*
X101825766Y-78351000D01*
X102242926Y-78178207D01*
X102562207Y-77858926D01*
X102735000Y-77441766D01*
X102735000Y-76990234D01*
X102562207Y-76573074D01*
X102360000Y-76370867D01*
X102360000Y-67901133D01*
X102562207Y-67698926D01*
X102686854Y-67398000D01*
X103205385Y-67398000D01*
X103751185Y-67171922D01*
X104008456Y-66914651D01*
X104031144Y-66957098D01*
X104101651Y-67062620D01*
X104132741Y-67100504D01*
X104222496Y-67190259D01*
X104260380Y-67221349D01*
X104365902Y-67291856D01*
X104409124Y-67314959D01*
X104526391Y-67363533D01*
X104573289Y-67377759D01*
X104697763Y-67402518D01*
X104746536Y-67407322D01*
X104810000Y-67410440D01*
X106010000Y-67410440D01*
X106073464Y-67407322D01*
X106122237Y-67402518D01*
X106246711Y-67377759D01*
X106293609Y-67363533D01*
X106410876Y-67314959D01*
X106454098Y-67291856D01*
X106559620Y-67221349D01*
X106597504Y-67190259D01*
X106687259Y-67100504D01*
X106718349Y-67062620D01*
X106788856Y-66957098D01*
X106811959Y-66913876D01*
X106860533Y-66796609D01*
X106874759Y-66749711D01*
X106899518Y-66625237D01*
X106904322Y-66576464D01*
X106907440Y-66513000D01*
X106907440Y-65948000D01*
X107005602Y-65948000D01*
X107477894Y-65752371D01*
X107839371Y-65390894D01*
X108035000Y-64918602D01*
X108035000Y-64407398D01*
X107839371Y-63935106D01*
X107477894Y-63573629D01*
X107005602Y-63378000D01*
X106895000Y-63378000D01*
X106895000Y-63117615D01*
X106668922Y-62571815D01*
X106251185Y-62154078D01*
X105705385Y-61928000D01*
X105114615Y-61928000D01*
X104568815Y-62154078D01*
X104160000Y-62562893D01*
X103751185Y-62154078D01*
X103205385Y-61928000D01*
X102614615Y-61928000D01*
X102068815Y-62154078D01*
X101852000Y-62370893D01*
X101852000Y-60789133D01*
X102054207Y-60586926D01*
X102227000Y-60169766D01*
X102227000Y-59718234D01*
X102054207Y-59301074D01*
X101734926Y-58981793D01*
X101317766Y-58809000D01*
X100866234Y-58809000D01*
X100449074Y-58981793D01*
X100129793Y-59301074D01*
X99957000Y-59718234D01*
X99957000Y-60169766D01*
X100129793Y-60586926D01*
X100332000Y-60789133D01*
X100332001Y-66028196D01*
X100290529Y-66069668D01*
X100227070Y-66112070D01*
X100059095Y-66363463D01*
X100014999Y-66585148D01*
X100014999Y-66585152D01*
X100000111Y-66659999D01*
X100014999Y-66734846D01*
X100015000Y-67777497D01*
X97074147Y-70718351D01*
X96974207Y-70477074D01*
X96654926Y-70157793D01*
X96237766Y-69985000D01*
X95786234Y-69985000D01*
X95369074Y-70157793D01*
X95166867Y-70360000D01*
X92530847Y-70360000D01*
X92456000Y-70345112D01*
X92381153Y-70360000D01*
X92381148Y-70360000D01*
X92159463Y-70404096D01*
X91908071Y-70572071D01*
X91865671Y-70635527D01*
X90484199Y-72017000D01*
X90198234Y-72017000D01*
X89781074Y-72189793D01*
X89461793Y-72509074D01*
X89289000Y-72926234D01*
X89289000Y-73377766D01*
X89461793Y-73794926D01*
X89781074Y-74114207D01*
X90198234Y-74287000D01*
X90649766Y-74287000D01*
X91066926Y-74114207D01*
X91386207Y-73794926D01*
X91559000Y-73377766D01*
X91559000Y-73091801D01*
X92770802Y-71880000D01*
X95166867Y-71880000D01*
X95369074Y-72082207D01*
X95610351Y-72182147D01*
X90378488Y-77414010D01*
X90092523Y-77414010D01*
X89675363Y-77586803D01*
X89356082Y-77906084D01*
X89183289Y-78323244D01*
X77187942Y-78323244D01*
X77206092Y-78232000D01*
X77090839Y-77652582D01*
X76762625Y-77161375D01*
X76443522Y-76948157D01*
X76573358Y-76887183D01*
X76963645Y-76458924D01*
X77133476Y-76048890D01*
X77012155Y-75819000D01*
X75819000Y-75819000D01*
X75819000Y-75839000D01*
X75565000Y-75839000D01*
X75565000Y-75819000D01*
X74371845Y-75819000D01*
X74250524Y-76048890D01*
X74420355Y-76458924D01*
X74810642Y-76887183D01*
X74940478Y-76948157D01*
X74621375Y-77161375D01*
X74293161Y-77652582D01*
X74177908Y-78232000D01*
X73379000Y-78232000D01*
X73379000Y-73152000D01*
X74177908Y-73152000D01*
X74293161Y-73731418D01*
X74621375Y-74222625D01*
X74940478Y-74435843D01*
X74810642Y-74496817D01*
X74420355Y-74925076D01*
X74250524Y-75335110D01*
X74371845Y-75565000D01*
X75565000Y-75565000D01*
X75565000Y-75545000D01*
X75819000Y-75545000D01*
X75819000Y-75565000D01*
X77012155Y-75565000D01*
X77133476Y-75335110D01*
X76963645Y-74925076D01*
X76573358Y-74496817D01*
X76443522Y-74435843D01*
X76762625Y-74222625D01*
X77090839Y-73731418D01*
X77206092Y-73152000D01*
X77090839Y-72572582D01*
X76762625Y-72081375D01*
X76744381Y-72069184D01*
X76789765Y-72060157D01*
X76999809Y-71919809D01*
X77140157Y-71709765D01*
X77189440Y-71462000D01*
X77189440Y-69762000D01*
X77140157Y-69514235D01*
X76999809Y-69304191D01*
X76789765Y-69163843D01*
X76542000Y-69114560D01*
X74842000Y-69114560D01*
X74594235Y-69163843D01*
X74384191Y-69304191D01*
X74243843Y-69514235D01*
X74194560Y-69762000D01*
X74194560Y-71462000D01*
X74243843Y-71709765D01*
X74384191Y-71919809D01*
X74594235Y-72060157D01*
X74639619Y-72069184D01*
X74621375Y-72081375D01*
X74293161Y-72572582D01*
X74177908Y-73152000D01*
X73379000Y-73152000D01*
X73379000Y-65532000D01*
X74050908Y-65532000D01*
X74166161Y-66111418D01*
X74494375Y-66602625D01*
X74985582Y-66930839D01*
X75418744Y-67017000D01*
X75711256Y-67017000D01*
X76144418Y-66930839D01*
X76298052Y-66828184D01*
X76472075Y-67002207D01*
X76889235Y-67175000D01*
X77340767Y-67175000D01*
X77757927Y-67002207D01*
X77960134Y-66800000D01*
X78402867Y-66800000D01*
X78605074Y-67002207D01*
X79022234Y-67175000D01*
X79473766Y-67175000D01*
X79890926Y-67002207D01*
X80210207Y-66682926D01*
X80383000Y-66265766D01*
X80383000Y-65814234D01*
X80210207Y-65397074D01*
X80119367Y-65306234D01*
X82685000Y-65306234D01*
X82685000Y-65757766D01*
X82857793Y-66174926D01*
X83060000Y-66377133D01*
X83060001Y-71397013D01*
X83045112Y-71471865D01*
X83104097Y-71768402D01*
X83178665Y-71880000D01*
X83272072Y-72019794D01*
X83335528Y-72062194D01*
X86483328Y-75209995D01*
X86483328Y-75495959D01*
X86656121Y-75913119D01*
X86975402Y-76232400D01*
X87392562Y-76405193D01*
X87844094Y-76405193D01*
X88261254Y-76232400D01*
X88580535Y-75913119D01*
X88753328Y-75495959D01*
X88753328Y-75044427D01*
X88580535Y-74627267D01*
X88261254Y-74307986D01*
X87844094Y-74135193D01*
X87558130Y-74135193D01*
X84580000Y-71157064D01*
X84580000Y-66377133D01*
X84782207Y-66174926D01*
X84955000Y-65757766D01*
X84955000Y-65306234D01*
X84782207Y-64889074D01*
X84462926Y-64569793D01*
X84045766Y-64397000D01*
X83594234Y-64397000D01*
X83177074Y-64569793D01*
X82857793Y-64889074D01*
X82685000Y-65306234D01*
X80119367Y-65306234D01*
X79890926Y-65077793D01*
X79473766Y-64905000D01*
X79022234Y-64905000D01*
X78605074Y-65077793D01*
X78402867Y-65280000D01*
X77960134Y-65280000D01*
X77757927Y-65077793D01*
X77340767Y-64905000D01*
X76932046Y-64905000D01*
X76635625Y-64461375D01*
X76316522Y-64248157D01*
X76446358Y-64187183D01*
X76836645Y-63758924D01*
X77006476Y-63348890D01*
X76885155Y-63119000D01*
X75692000Y-63119000D01*
X75692000Y-63139000D01*
X75438000Y-63139000D01*
X75438000Y-63119000D01*
X74244845Y-63119000D01*
X74123524Y-63348890D01*
X74293355Y-63758924D01*
X74683642Y-64187183D01*
X74813478Y-64248157D01*
X74494375Y-64461375D01*
X74166161Y-64952582D01*
X74050908Y-65532000D01*
X73379000Y-65532000D01*
X73379000Y-55680133D01*
X73525074Y-55826207D01*
X73942234Y-55999000D01*
X74393766Y-55999000D01*
X74725000Y-55861799D01*
X75277761Y-56414560D01*
X74715000Y-56414560D01*
X74467235Y-56463843D01*
X74257191Y-56604191D01*
X74116843Y-56814235D01*
X74067560Y-57062000D01*
X74067560Y-58762000D01*
X74116843Y-59009765D01*
X74257191Y-59219809D01*
X74467235Y-59360157D01*
X74512619Y-59369184D01*
X74494375Y-59381375D01*
X74166161Y-59872582D01*
X74050908Y-60452000D01*
X74166161Y-61031418D01*
X74494375Y-61522625D01*
X74813478Y-61735843D01*
X74683642Y-61796817D01*
X74293355Y-62225076D01*
X74123524Y-62635110D01*
X74244845Y-62865000D01*
X75438000Y-62865000D01*
X75438000Y-62845000D01*
X75692000Y-62845000D01*
X75692000Y-62865000D01*
X76885155Y-62865000D01*
X77006476Y-62635110D01*
X76836645Y-62225076D01*
X76446358Y-61796817D01*
X76316522Y-61735843D01*
X76635625Y-61522625D01*
X76963839Y-61031418D01*
X77079092Y-60452000D01*
X76963839Y-59872582D01*
X76635625Y-59381375D01*
X76617381Y-59369184D01*
X76662765Y-59360157D01*
X76872809Y-59219809D01*
X77013157Y-59009765D01*
X77062440Y-58762000D01*
X77062440Y-58199240D01*
X77472001Y-58608801D01*
X77472000Y-59606867D01*
X77269793Y-59809074D01*
X77097000Y-60226234D01*
X77097000Y-60677766D01*
X77269793Y-61094926D01*
X77589074Y-61414207D01*
X78006234Y-61587000D01*
X78457766Y-61587000D01*
X78874926Y-61414207D01*
X79194207Y-61094926D01*
X79367000Y-60677766D01*
X79367000Y-60226234D01*
X79194207Y-59809074D01*
X78992000Y-59606867D01*
X78992000Y-58368846D01*
X79006888Y-58293998D01*
X78992000Y-58219150D01*
X78992000Y-58219146D01*
X78947904Y-57997461D01*
X78947904Y-57997460D01*
X78822329Y-57809525D01*
X78779929Y-57746069D01*
X78716473Y-57703669D01*
X78699038Y-57686234D01*
X92337000Y-57686234D01*
X92337000Y-58137766D01*
X92509793Y-58554926D01*
X92829074Y-58874207D01*
X93246234Y-59047000D01*
X93697766Y-59047000D01*
X94114926Y-58874207D01*
X94434207Y-58554926D01*
X94607000Y-58137766D01*
X94607000Y-57851802D01*
X94802802Y-57656000D01*
X97706867Y-57656000D01*
X97909074Y-57858207D01*
X98326234Y-58031000D01*
X98777766Y-58031000D01*
X99194926Y-57858207D01*
X99514207Y-57538926D01*
X99687000Y-57121766D01*
X99687000Y-56670234D01*
X99514207Y-56253074D01*
X99194926Y-55933793D01*
X98777766Y-55761000D01*
X98326234Y-55761000D01*
X97909074Y-55933793D01*
X97706867Y-56136000D01*
X94562847Y-56136000D01*
X94488000Y-56121112D01*
X94413153Y-56136000D01*
X94413148Y-56136000D01*
X94191463Y-56180096D01*
X93940071Y-56348071D01*
X93897671Y-56411527D01*
X93532198Y-56777000D01*
X93246234Y-56777000D01*
X92829074Y-56949793D01*
X92509793Y-57269074D01*
X92337000Y-57686234D01*
X78699038Y-57686234D01*
X75392333Y-54379530D01*
X75349931Y-54316071D01*
X75098539Y-54148096D01*
X75046972Y-54137839D01*
X74810926Y-53901793D01*
X74393766Y-53729000D01*
X73942234Y-53729000D01*
X73525074Y-53901793D01*
X73379000Y-54047867D01*
X73379000Y-49530000D01*
X78215969Y-49530000D01*
X78248000Y-49691031D01*
X78248000Y-50889970D01*
X78215969Y-51051000D01*
X78248000Y-51212030D01*
X78248000Y-51212031D01*
X78342865Y-51688945D01*
X78704232Y-52229769D01*
X78840748Y-52320986D01*
X79883018Y-53363257D01*
X79974232Y-53499768D01*
X80110743Y-53590982D01*
X80110746Y-53590985D01*
X80515054Y-53861135D01*
X80641950Y-53886376D01*
X81153000Y-53988031D01*
X81790945Y-53861135D01*
X82195253Y-53590985D01*
X82195254Y-53590984D01*
X82331768Y-53499768D01*
X82422983Y-53363255D01*
X83425252Y-52360987D01*
X83561769Y-52269769D01*
X83720097Y-52032814D01*
X83803865Y-52453945D01*
X84165232Y-52994769D01*
X84706056Y-53356136D01*
X85344000Y-53483031D01*
X85981945Y-53356136D01*
X86522769Y-52994769D01*
X86884136Y-52453945D01*
X86979000Y-51977031D01*
X86979000Y-49276000D01*
X89772969Y-49276000D01*
X89792560Y-49374491D01*
X89792560Y-50276000D01*
X89841843Y-50523765D01*
X89982191Y-50733809D01*
X90192235Y-50874157D01*
X90440000Y-50923440D01*
X92440000Y-50923440D01*
X92502541Y-50911000D01*
X93310970Y-50911000D01*
X93472000Y-50943031D01*
X93633030Y-50911000D01*
X95143864Y-50911000D01*
X95304894Y-50943031D01*
X95465924Y-50911000D01*
X102569459Y-50911000D01*
X102632000Y-50923440D01*
X104632000Y-50923440D01*
X104879765Y-50874157D01*
X105089809Y-50733809D01*
X105230157Y-50523765D01*
X105279440Y-50276000D01*
X105279440Y-49374491D01*
X105299031Y-49276000D01*
X105279440Y-49177509D01*
X105279440Y-48276000D01*
X105230157Y-48028235D01*
X105089809Y-47818191D01*
X104879765Y-47677843D01*
X104632000Y-47628560D01*
X102632000Y-47628560D01*
X102569459Y-47641000D01*
X99252132Y-47641000D01*
X101464600Y-45428532D01*
X102659073Y-45428532D01*
X102757736Y-45695387D01*
X103367461Y-45921908D01*
X104017460Y-45897856D01*
X104506264Y-45695387D01*
X104604927Y-45428532D01*
X103632000Y-44455605D01*
X102659073Y-45428532D01*
X101464600Y-45428532D01*
X102075028Y-44818104D01*
X102212613Y-45150264D01*
X102479468Y-45248927D01*
X103452395Y-44276000D01*
X103811605Y-44276000D01*
X104784532Y-45248927D01*
X105051387Y-45150264D01*
X105277908Y-44540539D01*
X105253856Y-43890540D01*
X105051387Y-43401736D01*
X104784532Y-43303073D01*
X103811605Y-44276000D01*
X103452395Y-44276000D01*
X103438253Y-44261858D01*
X103617858Y-44082253D01*
X103632000Y-44096395D01*
X104604927Y-43123468D01*
X104506264Y-42856613D01*
X104163763Y-42729369D01*
X104618133Y-42275000D01*
X104809031Y-42275000D01*
X105285945Y-42180136D01*
X105826769Y-41818769D01*
X106188136Y-41277945D01*
X106315031Y-40640000D01*
X106188136Y-40002055D01*
X105826769Y-39461231D01*
X105285945Y-39099864D01*
X104809031Y-39005000D01*
X104101919Y-39005000D01*
X103940893Y-38972970D01*
X103779867Y-39005000D01*
X103779863Y-39005000D01*
X103508447Y-39058988D01*
X103076000Y-38972969D01*
X102438054Y-39099864D01*
X102033746Y-39370015D01*
X101833983Y-39569778D01*
X101743135Y-39113055D01*
X101739415Y-39107488D01*
X101864031Y-38481000D01*
X101737136Y-37843055D01*
X101375769Y-37302231D01*
X100834945Y-36940864D01*
X100358031Y-36846000D01*
X96935030Y-36846000D01*
X96774000Y-36813969D01*
X96612970Y-36846000D01*
X96612969Y-36846000D01*
X96136055Y-36940864D01*
X95595231Y-37302231D01*
X95408874Y-37581134D01*
X95000924Y-37209355D01*
X94590890Y-37039524D01*
X94361000Y-37160845D01*
X94361000Y-38354000D01*
X94381000Y-38354000D01*
X94381000Y-38608000D01*
X94361000Y-38608000D01*
X94361000Y-39801155D01*
X94590890Y-39922476D01*
X95000924Y-39752645D01*
X95408874Y-39380866D01*
X95595231Y-39659769D01*
X95731750Y-39750988D01*
X97155014Y-41174252D01*
X97246231Y-41310769D01*
X97447468Y-41445231D01*
X97787054Y-41672136D01*
X98425000Y-41799031D01*
X98586031Y-41767000D01*
X98668761Y-41767000D01*
X92794762Y-47641000D01*
X92502541Y-47641000D01*
X92440000Y-47628560D01*
X90440000Y-47628560D01*
X90192235Y-47677843D01*
X89982191Y-47818191D01*
X89841843Y-48028235D01*
X89792560Y-48276000D01*
X89792560Y-49177509D01*
X89772969Y-49276000D01*
X86979000Y-49276000D01*
X86979000Y-45508238D01*
X87058706Y-45428532D01*
X90467073Y-45428532D01*
X90565736Y-45695387D01*
X91175461Y-45921908D01*
X91825460Y-45897856D01*
X92314264Y-45695387D01*
X92412927Y-45428532D01*
X91440000Y-44455605D01*
X90467073Y-45428532D01*
X87058706Y-45428532D01*
X88475777Y-44011461D01*
X89794092Y-44011461D01*
X89818144Y-44661460D01*
X90020613Y-45150264D01*
X90287468Y-45248927D01*
X91260395Y-44276000D01*
X91619605Y-44276000D01*
X92592532Y-45248927D01*
X92859387Y-45150264D01*
X93085908Y-44540539D01*
X93061856Y-43890540D01*
X92859387Y-43401736D01*
X92592532Y-43303073D01*
X91619605Y-44276000D01*
X91260395Y-44276000D01*
X90287468Y-43303073D01*
X90020613Y-43401736D01*
X89794092Y-44011461D01*
X88475777Y-44011461D01*
X89363770Y-43123468D01*
X90467073Y-43123468D01*
X91440000Y-44096395D01*
X92412927Y-43123468D01*
X92314264Y-42856613D01*
X91704539Y-42630092D01*
X91054540Y-42654144D01*
X90565736Y-42856613D01*
X90467073Y-43123468D01*
X89363770Y-43123468D01*
X92508799Y-39978440D01*
X92544000Y-39978440D01*
X92791765Y-39929157D01*
X93001809Y-39788809D01*
X93142157Y-39578765D01*
X93162739Y-39475292D01*
X93467076Y-39752645D01*
X93877110Y-39922476D01*
X94107000Y-39801155D01*
X94107000Y-38608000D01*
X94087000Y-38608000D01*
X94087000Y-38354000D01*
X94107000Y-38354000D01*
X94107000Y-37160845D01*
X93877110Y-37039524D01*
X93467076Y-37209355D01*
X93162739Y-37486708D01*
X93142157Y-37383235D01*
X93001809Y-37173191D01*
X92791765Y-37032843D01*
X92544000Y-36983560D01*
X92395842Y-36983560D01*
X92331945Y-36940865D01*
X91693999Y-36813969D01*
X91056054Y-36940865D01*
X90992156Y-36983560D01*
X90844000Y-36983560D01*
X90596235Y-37032843D01*
X90386191Y-37173191D01*
X90245843Y-37383235D01*
X90196560Y-37631000D01*
X90196560Y-37666201D01*
X84301750Y-43561012D01*
X84165231Y-43652231D01*
X83803864Y-44193056D01*
X83710693Y-44661460D01*
X83676969Y-44831000D01*
X83709000Y-44992030D01*
X83709000Y-46320136D01*
X83678259Y-46245920D01*
X83426958Y-46165647D01*
X82562605Y-47030000D01*
X83426958Y-47894353D01*
X83678259Y-47814080D01*
X83709000Y-47729336D01*
X83709001Y-48571579D01*
X83561769Y-48351231D01*
X83229666Y-48129327D01*
X83247353Y-48073958D01*
X82383000Y-47209605D01*
X82368858Y-47223748D01*
X82189253Y-47044143D01*
X82203395Y-47030000D01*
X81339042Y-46165647D01*
X81133000Y-46231463D01*
X80926958Y-46165647D01*
X80062605Y-47030000D01*
X80076748Y-47044143D01*
X79897143Y-47223748D01*
X79883000Y-47209605D01*
X79018647Y-48073958D01*
X79022007Y-48084475D01*
X78939565Y-48100874D01*
X78648414Y-48295414D01*
X78453874Y-48586565D01*
X78414405Y-48784986D01*
X78342864Y-48892055D01*
X78215969Y-49530000D01*
X73379000Y-49530000D01*
X73379000Y-46801279D01*
X78386282Y-46801279D01*
X78412685Y-47391458D01*
X78587741Y-47814080D01*
X78839042Y-47894353D01*
X79703395Y-47030000D01*
X78839042Y-46165647D01*
X78587741Y-46245920D01*
X78386282Y-46801279D01*
X73379000Y-46801279D01*
X73379000Y-45986042D01*
X79018647Y-45986042D01*
X79883000Y-46850395D01*
X80747353Y-45986042D01*
X81518647Y-45986042D01*
X82383000Y-46850395D01*
X83247353Y-45986042D01*
X83167080Y-45734741D01*
X82611721Y-45533282D01*
X82021542Y-45559685D01*
X81598920Y-45734741D01*
X81518647Y-45986042D01*
X80747353Y-45986042D01*
X80667080Y-45734741D01*
X80111721Y-45533282D01*
X79521542Y-45559685D01*
X79098920Y-45734741D01*
X79018647Y-45986042D01*
X73379000Y-45986042D01*
X73379000Y-39582193D01*
X73716981Y-39920174D01*
X74549463Y-40265000D01*
X75450537Y-40265000D01*
X76283019Y-39920174D01*
X76648578Y-39554615D01*
X78398000Y-39554615D01*
X78398000Y-40145385D01*
X78624078Y-40691185D01*
X79041815Y-41108922D01*
X79587615Y-41335000D01*
X80178385Y-41335000D01*
X80724185Y-41108922D01*
X81133000Y-40700107D01*
X81541815Y-41108922D01*
X82087615Y-41335000D01*
X82678385Y-41335000D01*
X83224185Y-41108922D01*
X83641922Y-40691185D01*
X83868000Y-40145385D01*
X83868000Y-39554615D01*
X83641922Y-39008815D01*
X83224185Y-38591078D01*
X82678385Y-38365000D01*
X82087615Y-38365000D01*
X81541815Y-38591078D01*
X81133000Y-38999893D01*
X80724185Y-38591078D01*
X80178385Y-38365000D01*
X79587615Y-38365000D01*
X79041815Y-38591078D01*
X78624078Y-39008815D01*
X78398000Y-39554615D01*
X76648578Y-39554615D01*
X76920174Y-39283019D01*
X77265000Y-38450537D01*
X77265000Y-37549463D01*
X76920174Y-36716981D01*
X76498193Y-36295000D01*
X106501807Y-36295000D01*
X106079826Y-36716981D01*
G04 #@! TD*
M02*
