G04 #@! TF.GenerationSoftware,KiCad,Pcbnew,(5.0.0)*
G04 #@! TF.CreationDate,2019-06-16T21:50:45-07:00*
G04 #@! TF.ProjectId,ring_illuminator,72696E675F696C6C756D696E61746F72,rev?*
G04 #@! TF.SameCoordinates,Original*
G04 #@! TF.FileFunction,Soldermask,Top*
G04 #@! TF.FilePolarity,Negative*
%FSLAX46Y46*%
G04 Gerber Fmt 4.6, Leading zero omitted, Abs format (unit mm)*
G04 Created by KiCad (PCBNEW (5.0.0)) date 06/16/19 21:50:45*
%MOMM*%
%LPD*%
G01*
G04 APERTURE LIST*
%ADD10C,0.100000*%
G04 APERTURE END LIST*
D10*
G36*
X327947Y-24476300D02*
X490330Y-24508600D01*
X796252Y-24635317D01*
X1071575Y-24819282D01*
X1305718Y-25053425D01*
X1489683Y-25328748D01*
X1616400Y-25634670D01*
X1681000Y-25959436D01*
X1681000Y-26290564D01*
X1616400Y-26615330D01*
X1489683Y-26921252D01*
X1305718Y-27196575D01*
X1071575Y-27430718D01*
X796252Y-27614683D01*
X490330Y-27741400D01*
X327947Y-27773700D01*
X165565Y-27806000D01*
X-165565Y-27806000D01*
X-327947Y-27773700D01*
X-490330Y-27741400D01*
X-796252Y-27614683D01*
X-1071575Y-27430718D01*
X-1305718Y-27196575D01*
X-1489683Y-26921252D01*
X-1616400Y-26615330D01*
X-1681000Y-26290564D01*
X-1681000Y-25959436D01*
X-1616400Y-25634670D01*
X-1489683Y-25328748D01*
X-1305718Y-25053425D01*
X-1071575Y-24819282D01*
X-796252Y-24635317D01*
X-490330Y-24508600D01*
X-327947Y-24476300D01*
X-165565Y-24444000D01*
X165565Y-24444000D01*
X327947Y-24476300D01*
X327947Y-24476300D01*
G37*
G36*
X-2414996Y-23476544D02*
X-2327941Y-23493860D01*
X-2191268Y-23550472D01*
X-2191267Y-23550473D01*
X-2068262Y-23632662D01*
X-1963662Y-23737262D01*
X-1963660Y-23737265D01*
X-1881472Y-23860268D01*
X-1824860Y-23996941D01*
X-1796000Y-24142033D01*
X-1796000Y-24289967D01*
X-1824860Y-24435059D01*
X-1881472Y-24571732D01*
X-1881473Y-24571733D01*
X-1963662Y-24694738D01*
X-2068262Y-24799338D01*
X-2068265Y-24799340D01*
X-2191268Y-24881528D01*
X-2327941Y-24938140D01*
X-2414996Y-24955456D01*
X-2473031Y-24967000D01*
X-2620969Y-24967000D01*
X-2679004Y-24955456D01*
X-2766059Y-24938140D01*
X-2902732Y-24881528D01*
X-3025735Y-24799340D01*
X-3025738Y-24799338D01*
X-3130338Y-24694738D01*
X-3212527Y-24571733D01*
X-3212528Y-24571732D01*
X-3269140Y-24435059D01*
X-3298000Y-24289967D01*
X-3298000Y-24142033D01*
X-3269140Y-23996941D01*
X-3212528Y-23860268D01*
X-3130340Y-23737265D01*
X-3130338Y-23737262D01*
X-3025738Y-23632662D01*
X-2902733Y-23550473D01*
X-2902732Y-23550472D01*
X-2766059Y-23493860D01*
X-2679004Y-23476544D01*
X-2620969Y-23465000D01*
X-2473031Y-23465000D01*
X-2414996Y-23476544D01*
X-2414996Y-23476544D01*
G37*
G36*
X-10414996Y-23476544D02*
X-10327941Y-23493860D01*
X-10191268Y-23550472D01*
X-10191267Y-23550473D01*
X-10068262Y-23632662D01*
X-9963662Y-23737262D01*
X-9963660Y-23737265D01*
X-9881472Y-23860268D01*
X-9824860Y-23996941D01*
X-9796000Y-24142033D01*
X-9796000Y-24289967D01*
X-9824860Y-24435059D01*
X-9881472Y-24571732D01*
X-9881473Y-24571733D01*
X-9963662Y-24694738D01*
X-10068262Y-24799338D01*
X-10068265Y-24799340D01*
X-10191268Y-24881528D01*
X-10327941Y-24938140D01*
X-10414996Y-24955456D01*
X-10473031Y-24967000D01*
X-10620969Y-24967000D01*
X-10679004Y-24955456D01*
X-10766059Y-24938140D01*
X-10902732Y-24881528D01*
X-11025735Y-24799340D01*
X-11025738Y-24799338D01*
X-11130338Y-24694738D01*
X-11212527Y-24571733D01*
X-11212528Y-24571732D01*
X-11269140Y-24435059D01*
X-11298000Y-24289967D01*
X-11298000Y-24142033D01*
X-11269140Y-23996941D01*
X-11212528Y-23860268D01*
X-11130340Y-23737265D01*
X-11130338Y-23737262D01*
X-11025738Y-23632662D01*
X-10902733Y-23550473D01*
X-10902732Y-23550472D01*
X-10766059Y-23493860D01*
X-10679004Y-23476544D01*
X-10620969Y-23465000D01*
X-10473031Y-23465000D01*
X-10414996Y-23476544D01*
X-10414996Y-23476544D01*
G37*
G36*
X10711004Y-23466544D02*
X10798059Y-23483860D01*
X10934732Y-23540472D01*
X11056079Y-23621554D01*
X11057738Y-23622662D01*
X11162338Y-23727262D01*
X11162340Y-23727265D01*
X11244528Y-23850268D01*
X11301140Y-23986941D01*
X11330000Y-24132033D01*
X11330000Y-24279967D01*
X11301140Y-24425059D01*
X11244528Y-24561732D01*
X11195360Y-24635317D01*
X11162338Y-24684738D01*
X11057738Y-24789338D01*
X11057735Y-24789340D01*
X10934732Y-24871528D01*
X10798059Y-24928140D01*
X10711004Y-24945456D01*
X10652969Y-24957000D01*
X10505031Y-24957000D01*
X10446996Y-24945456D01*
X10359941Y-24928140D01*
X10223268Y-24871528D01*
X10100265Y-24789340D01*
X10100262Y-24789338D01*
X9995662Y-24684738D01*
X9962640Y-24635317D01*
X9913472Y-24561732D01*
X9856860Y-24425059D01*
X9828000Y-24279967D01*
X9828000Y-24132033D01*
X9856860Y-23986941D01*
X9913472Y-23850268D01*
X9995660Y-23727265D01*
X9995662Y-23727262D01*
X10100262Y-23622662D01*
X10101921Y-23621554D01*
X10223268Y-23540472D01*
X10359941Y-23483860D01*
X10446996Y-23466544D01*
X10505031Y-23455000D01*
X10652969Y-23455000D01*
X10711004Y-23466544D01*
X10711004Y-23466544D01*
G37*
G36*
X2711004Y-23466544D02*
X2798059Y-23483860D01*
X2934732Y-23540472D01*
X3056079Y-23621554D01*
X3057738Y-23622662D01*
X3162338Y-23727262D01*
X3162340Y-23727265D01*
X3244528Y-23850268D01*
X3301140Y-23986941D01*
X3330000Y-24132033D01*
X3330000Y-24279967D01*
X3301140Y-24425059D01*
X3244528Y-24561732D01*
X3195360Y-24635317D01*
X3162338Y-24684738D01*
X3057738Y-24789338D01*
X3057735Y-24789340D01*
X2934732Y-24871528D01*
X2798059Y-24928140D01*
X2711004Y-24945456D01*
X2652969Y-24957000D01*
X2505031Y-24957000D01*
X2446996Y-24945456D01*
X2359941Y-24928140D01*
X2223268Y-24871528D01*
X2100265Y-24789340D01*
X2100262Y-24789338D01*
X1995662Y-24684738D01*
X1962640Y-24635317D01*
X1913472Y-24561732D01*
X1856860Y-24425059D01*
X1828000Y-24279967D01*
X1828000Y-24132033D01*
X1856860Y-23986941D01*
X1913472Y-23850268D01*
X1995660Y-23727265D01*
X1995662Y-23727262D01*
X2100262Y-23622662D01*
X2101921Y-23621554D01*
X2223268Y-23540472D01*
X2359941Y-23483860D01*
X2446996Y-23466544D01*
X2505031Y-23455000D01*
X2652969Y-23455000D01*
X2711004Y-23466544D01*
X2711004Y-23466544D01*
G37*
G36*
X-15004053Y-19504300D02*
X-14841670Y-19536600D01*
X-14535748Y-19663317D01*
X-14260425Y-19847282D01*
X-14026282Y-20081425D01*
X-13842317Y-20356748D01*
X-13715600Y-20662670D01*
X-13715600Y-20662671D01*
X-13665719Y-20913436D01*
X-13651000Y-20987436D01*
X-13651000Y-21318564D01*
X-13715600Y-21643330D01*
X-13842317Y-21949252D01*
X-14026282Y-22224575D01*
X-14260425Y-22458718D01*
X-14535748Y-22642683D01*
X-14841670Y-22769400D01*
X-15004053Y-22801700D01*
X-15166435Y-22834000D01*
X-15497565Y-22834000D01*
X-15659947Y-22801700D01*
X-15822330Y-22769400D01*
X-16128252Y-22642683D01*
X-16403575Y-22458718D01*
X-16637718Y-22224575D01*
X-16821683Y-21949252D01*
X-16948400Y-21643330D01*
X-17013000Y-21318564D01*
X-17013000Y-20987436D01*
X-16998280Y-20913436D01*
X-16948400Y-20662671D01*
X-16948400Y-20662670D01*
X-16821683Y-20356748D01*
X-16637718Y-20081425D01*
X-16403575Y-19847282D01*
X-16128252Y-19663317D01*
X-15822330Y-19536600D01*
X-15659947Y-19504300D01*
X-15497565Y-19472000D01*
X-15166435Y-19472000D01*
X-15004053Y-19504300D01*
X-15004053Y-19504300D01*
G37*
G36*
X15760947Y-19430300D02*
X15923330Y-19462600D01*
X16229252Y-19589317D01*
X16504575Y-19773282D01*
X16738718Y-20007425D01*
X16922683Y-20282748D01*
X17049400Y-20588670D01*
X17064120Y-20662671D01*
X17114000Y-20913435D01*
X17114000Y-21244565D01*
X17099280Y-21318565D01*
X17049400Y-21569330D01*
X16922683Y-21875252D01*
X16738718Y-22150575D01*
X16504575Y-22384718D01*
X16229252Y-22568683D01*
X15923330Y-22695400D01*
X15760947Y-22727700D01*
X15598565Y-22760000D01*
X15267435Y-22760000D01*
X15105053Y-22727700D01*
X14942670Y-22695400D01*
X14636748Y-22568683D01*
X14361425Y-22384718D01*
X14127282Y-22150575D01*
X13943317Y-21875252D01*
X13816600Y-21569330D01*
X13766720Y-21318565D01*
X13752000Y-21244565D01*
X13752000Y-20913435D01*
X13801880Y-20662671D01*
X13816600Y-20588670D01*
X13943317Y-20282748D01*
X14127282Y-20007425D01*
X14361425Y-19773282D01*
X14636748Y-19589317D01*
X14942670Y-19462600D01*
X15105053Y-19430300D01*
X15267435Y-19398000D01*
X15598565Y-19398000D01*
X15760947Y-19430300D01*
X15760947Y-19430300D01*
G37*
G36*
X-4796000Y-21917000D02*
X-5498000Y-21917000D01*
X-5498000Y-18515000D01*
X-4796000Y-18515000D01*
X-4796000Y-21917000D01*
X-4796000Y-21917000D01*
G37*
G36*
X-7596000Y-21917000D02*
X-8298000Y-21917000D01*
X-8298000Y-18515000D01*
X-7596000Y-18515000D01*
X-7596000Y-21917000D01*
X-7596000Y-21917000D01*
G37*
G36*
X-5846000Y-21917000D02*
X-7248000Y-21917000D01*
X-7248000Y-18515000D01*
X-5846000Y-18515000D01*
X-5846000Y-21917000D01*
X-5846000Y-21917000D01*
G37*
G36*
X8330000Y-21907000D02*
X7628000Y-21907000D01*
X7628000Y-18505000D01*
X8330000Y-18505000D01*
X8330000Y-21907000D01*
X8330000Y-21907000D01*
G37*
G36*
X5530000Y-21907000D02*
X4828000Y-21907000D01*
X4828000Y-18505000D01*
X5530000Y-18505000D01*
X5530000Y-21907000D01*
X5530000Y-21907000D01*
G37*
G36*
X7280000Y-21907000D02*
X5878000Y-21907000D01*
X5878000Y-18505000D01*
X7280000Y-18505000D01*
X7280000Y-21907000D01*
X7280000Y-21907000D01*
G37*
G36*
X-21043996Y-15772544D02*
X-20956941Y-15789860D01*
X-20820268Y-15846472D01*
X-20698921Y-15927554D01*
X-20697262Y-15928662D01*
X-20592662Y-16033262D01*
X-20592660Y-16033265D01*
X-20510472Y-16156268D01*
X-20453860Y-16292941D01*
X-20436544Y-16379996D01*
X-20425591Y-16435059D01*
X-20425000Y-16438033D01*
X-20425000Y-16585967D01*
X-20453860Y-16731059D01*
X-20510472Y-16867732D01*
X-20557517Y-16938140D01*
X-20592662Y-16990738D01*
X-20697262Y-17095338D01*
X-20697265Y-17095340D01*
X-20820268Y-17177528D01*
X-20956941Y-17234140D01*
X-21043996Y-17251456D01*
X-21102031Y-17263000D01*
X-21249969Y-17263000D01*
X-21308004Y-17251456D01*
X-21395059Y-17234140D01*
X-21531732Y-17177528D01*
X-21654735Y-17095340D01*
X-21654738Y-17095338D01*
X-21759338Y-16990738D01*
X-21794483Y-16938140D01*
X-21841528Y-16867732D01*
X-21898140Y-16731059D01*
X-21927000Y-16585967D01*
X-21927000Y-16438033D01*
X-21926408Y-16435059D01*
X-21915456Y-16379996D01*
X-21898140Y-16292941D01*
X-21841528Y-16156268D01*
X-21759340Y-16033265D01*
X-21759338Y-16033262D01*
X-21654738Y-15928662D01*
X-21653079Y-15927554D01*
X-21531732Y-15846472D01*
X-21395059Y-15789860D01*
X-21308004Y-15772544D01*
X-21249969Y-15761000D01*
X-21102031Y-15761000D01*
X-21043996Y-15772544D01*
X-21043996Y-15772544D01*
G37*
G36*
X-13043996Y-15772544D02*
X-12956941Y-15789860D01*
X-12820268Y-15846472D01*
X-12698921Y-15927554D01*
X-12697262Y-15928662D01*
X-12592662Y-16033262D01*
X-12592660Y-16033265D01*
X-12510472Y-16156268D01*
X-12453860Y-16292941D01*
X-12436544Y-16379996D01*
X-12425591Y-16435059D01*
X-12425000Y-16438033D01*
X-12425000Y-16585967D01*
X-12453860Y-16731059D01*
X-12510472Y-16867732D01*
X-12557517Y-16938140D01*
X-12592662Y-16990738D01*
X-12697262Y-17095338D01*
X-12697265Y-17095340D01*
X-12820268Y-17177528D01*
X-12956941Y-17234140D01*
X-13043996Y-17251456D01*
X-13102031Y-17263000D01*
X-13249969Y-17263000D01*
X-13308004Y-17251456D01*
X-13395059Y-17234140D01*
X-13531732Y-17177528D01*
X-13654735Y-17095340D01*
X-13654738Y-17095338D01*
X-13759338Y-16990738D01*
X-13794483Y-16938140D01*
X-13841528Y-16867732D01*
X-13898140Y-16731059D01*
X-13927000Y-16585967D01*
X-13927000Y-16438033D01*
X-13926408Y-16435059D01*
X-13915456Y-16379996D01*
X-13898140Y-16292941D01*
X-13841528Y-16156268D01*
X-13759340Y-16033265D01*
X-13759338Y-16033262D01*
X-13654738Y-15928662D01*
X-13653079Y-15927554D01*
X-13531732Y-15846472D01*
X-13395059Y-15789860D01*
X-13308004Y-15772544D01*
X-13249969Y-15761000D01*
X-13102031Y-15761000D01*
X-13043996Y-15772544D01*
X-13043996Y-15772544D01*
G37*
G36*
X13328004Y-15745544D02*
X13415059Y-15762860D01*
X13551732Y-15819472D01*
X13673079Y-15900554D01*
X13674738Y-15901662D01*
X13779338Y-16006262D01*
X13779340Y-16006265D01*
X13861528Y-16129268D01*
X13918140Y-16265941D01*
X13923511Y-16292944D01*
X13947000Y-16411031D01*
X13947000Y-16558969D01*
X13941629Y-16585969D01*
X13918140Y-16704059D01*
X13861528Y-16840732D01*
X13834269Y-16881528D01*
X13779338Y-16963738D01*
X13674738Y-17068338D01*
X13674735Y-17068340D01*
X13551732Y-17150528D01*
X13415059Y-17207140D01*
X13328004Y-17224456D01*
X13269969Y-17236000D01*
X13122031Y-17236000D01*
X13063996Y-17224456D01*
X12976941Y-17207140D01*
X12840268Y-17150528D01*
X12717265Y-17068340D01*
X12717262Y-17068338D01*
X12612662Y-16963738D01*
X12557731Y-16881528D01*
X12530472Y-16840732D01*
X12473860Y-16704059D01*
X12450371Y-16585969D01*
X12445000Y-16558969D01*
X12445000Y-16411031D01*
X12468489Y-16292944D01*
X12473860Y-16265941D01*
X12530472Y-16129268D01*
X12612660Y-16006265D01*
X12612662Y-16006262D01*
X12717262Y-15901662D01*
X12718921Y-15900554D01*
X12840268Y-15819472D01*
X12976941Y-15762860D01*
X13063996Y-15745544D01*
X13122031Y-15734000D01*
X13269969Y-15734000D01*
X13328004Y-15745544D01*
X13328004Y-15745544D01*
G37*
G36*
X21328004Y-15745544D02*
X21415059Y-15762860D01*
X21551732Y-15819472D01*
X21673079Y-15900554D01*
X21674738Y-15901662D01*
X21779338Y-16006262D01*
X21779340Y-16006265D01*
X21861528Y-16129268D01*
X21918140Y-16265941D01*
X21923511Y-16292944D01*
X21947000Y-16411031D01*
X21947000Y-16558969D01*
X21941629Y-16585969D01*
X21918140Y-16704059D01*
X21861528Y-16840732D01*
X21834269Y-16881528D01*
X21779338Y-16963738D01*
X21674738Y-17068338D01*
X21674735Y-17068340D01*
X21551732Y-17150528D01*
X21415059Y-17207140D01*
X21328004Y-17224456D01*
X21269969Y-17236000D01*
X21122031Y-17236000D01*
X21063996Y-17224456D01*
X20976941Y-17207140D01*
X20840268Y-17150528D01*
X20717265Y-17068340D01*
X20717262Y-17068338D01*
X20612662Y-16963738D01*
X20557731Y-16881528D01*
X20530472Y-16840732D01*
X20473860Y-16704059D01*
X20450371Y-16585969D01*
X20445000Y-16558969D01*
X20445000Y-16411031D01*
X20468489Y-16292944D01*
X20473860Y-16265941D01*
X20530472Y-16129268D01*
X20612660Y-16006265D01*
X20612662Y-16006262D01*
X20717262Y-15901662D01*
X20718921Y-15900554D01*
X20840268Y-15819472D01*
X20976941Y-15762860D01*
X21063996Y-15745544D01*
X21122031Y-15734000D01*
X21269969Y-15734000D01*
X21328004Y-15745544D01*
X21328004Y-15745544D01*
G37*
G36*
X-10414996Y-15476544D02*
X-10327941Y-15493860D01*
X-10191268Y-15550472D01*
X-10191267Y-15550473D01*
X-10068262Y-15632662D01*
X-9963662Y-15737262D01*
X-9963660Y-15737265D01*
X-9881472Y-15860268D01*
X-9824860Y-15996941D01*
X-9817635Y-16033265D01*
X-9796000Y-16142031D01*
X-9796000Y-16289969D01*
X-9796592Y-16292944D01*
X-9824860Y-16435059D01*
X-9881472Y-16571732D01*
X-9881473Y-16571733D01*
X-9963662Y-16694738D01*
X-10068262Y-16799338D01*
X-10068265Y-16799340D01*
X-10191268Y-16881528D01*
X-10327941Y-16938140D01*
X-10414996Y-16955456D01*
X-10473031Y-16967000D01*
X-10620969Y-16967000D01*
X-10679004Y-16955456D01*
X-10766059Y-16938140D01*
X-10902732Y-16881528D01*
X-11025735Y-16799340D01*
X-11025738Y-16799338D01*
X-11130338Y-16694738D01*
X-11212527Y-16571733D01*
X-11212528Y-16571732D01*
X-11269140Y-16435059D01*
X-11297408Y-16292944D01*
X-11298000Y-16289969D01*
X-11298000Y-16142031D01*
X-11276365Y-16033265D01*
X-11269140Y-15996941D01*
X-11212528Y-15860268D01*
X-11130340Y-15737265D01*
X-11130338Y-15737262D01*
X-11025738Y-15632662D01*
X-10902733Y-15550473D01*
X-10902732Y-15550472D01*
X-10766059Y-15493860D01*
X-10679004Y-15476544D01*
X-10620969Y-15465000D01*
X-10473031Y-15465000D01*
X-10414996Y-15476544D01*
X-10414996Y-15476544D01*
G37*
G36*
X-2414996Y-15476544D02*
X-2327941Y-15493860D01*
X-2191268Y-15550472D01*
X-2191267Y-15550473D01*
X-2068262Y-15632662D01*
X-1963662Y-15737262D01*
X-1963660Y-15737265D01*
X-1881472Y-15860268D01*
X-1824860Y-15996941D01*
X-1817635Y-16033265D01*
X-1796000Y-16142031D01*
X-1796000Y-16289969D01*
X-1796592Y-16292944D01*
X-1824860Y-16435059D01*
X-1881472Y-16571732D01*
X-1881473Y-16571733D01*
X-1963662Y-16694738D01*
X-2068262Y-16799338D01*
X-2068265Y-16799340D01*
X-2191268Y-16881528D01*
X-2327941Y-16938140D01*
X-2414996Y-16955456D01*
X-2473031Y-16967000D01*
X-2620969Y-16967000D01*
X-2679004Y-16955456D01*
X-2766059Y-16938140D01*
X-2902732Y-16881528D01*
X-3025735Y-16799340D01*
X-3025738Y-16799338D01*
X-3130338Y-16694738D01*
X-3212527Y-16571733D01*
X-3212528Y-16571732D01*
X-3269140Y-16435059D01*
X-3297408Y-16292944D01*
X-3298000Y-16289969D01*
X-3298000Y-16142031D01*
X-3276365Y-16033265D01*
X-3269140Y-15996941D01*
X-3212528Y-15860268D01*
X-3130340Y-15737265D01*
X-3130338Y-15737262D01*
X-3025738Y-15632662D01*
X-2902733Y-15550473D01*
X-2902732Y-15550472D01*
X-2766059Y-15493860D01*
X-2679004Y-15476544D01*
X-2620969Y-15465000D01*
X-2473031Y-15465000D01*
X-2414996Y-15476544D01*
X-2414996Y-15476544D01*
G37*
G36*
X10711004Y-15466544D02*
X10798059Y-15483860D01*
X10934732Y-15540472D01*
X11056079Y-15621554D01*
X11057738Y-15622662D01*
X11162338Y-15727262D01*
X11162340Y-15727265D01*
X11244528Y-15850268D01*
X11301140Y-15986941D01*
X11310354Y-16033265D01*
X11330000Y-16132031D01*
X11330000Y-16279969D01*
X11327419Y-16292944D01*
X11301140Y-16425059D01*
X11244528Y-16561732D01*
X11228333Y-16585969D01*
X11162338Y-16684738D01*
X11057738Y-16789338D01*
X11057735Y-16789340D01*
X10934732Y-16871528D01*
X10798059Y-16928140D01*
X10711004Y-16945456D01*
X10652969Y-16957000D01*
X10505031Y-16957000D01*
X10446996Y-16945456D01*
X10359941Y-16928140D01*
X10223268Y-16871528D01*
X10100265Y-16789340D01*
X10100262Y-16789338D01*
X9995662Y-16684738D01*
X9929667Y-16585969D01*
X9913472Y-16561732D01*
X9856860Y-16425059D01*
X9830581Y-16292944D01*
X9828000Y-16279969D01*
X9828000Y-16132031D01*
X9847646Y-16033265D01*
X9856860Y-15986941D01*
X9913472Y-15850268D01*
X9995660Y-15727265D01*
X9995662Y-15727262D01*
X10100262Y-15622662D01*
X10101921Y-15621554D01*
X10223268Y-15540472D01*
X10359941Y-15483860D01*
X10446996Y-15466544D01*
X10505031Y-15455000D01*
X10652969Y-15455000D01*
X10711004Y-15466544D01*
X10711004Y-15466544D01*
G37*
G36*
X2711004Y-15466544D02*
X2798059Y-15483860D01*
X2934732Y-15540472D01*
X3056079Y-15621554D01*
X3057738Y-15622662D01*
X3162338Y-15727262D01*
X3162340Y-15727265D01*
X3244528Y-15850268D01*
X3301140Y-15986941D01*
X3310354Y-16033265D01*
X3330000Y-16132031D01*
X3330000Y-16279969D01*
X3327419Y-16292944D01*
X3301140Y-16425059D01*
X3244528Y-16561732D01*
X3228333Y-16585969D01*
X3162338Y-16684738D01*
X3057738Y-16789338D01*
X3057735Y-16789340D01*
X2934732Y-16871528D01*
X2798059Y-16928140D01*
X2711004Y-16945456D01*
X2652969Y-16957000D01*
X2505031Y-16957000D01*
X2446996Y-16945456D01*
X2359941Y-16928140D01*
X2223268Y-16871528D01*
X2100265Y-16789340D01*
X2100262Y-16789338D01*
X1995662Y-16684738D01*
X1929667Y-16585969D01*
X1913472Y-16561732D01*
X1856860Y-16425059D01*
X1830581Y-16292944D01*
X1828000Y-16279969D01*
X1828000Y-16132031D01*
X1847646Y-16033265D01*
X1856860Y-15986941D01*
X1913472Y-15850268D01*
X1995660Y-15727265D01*
X1995662Y-15727262D01*
X2100262Y-15622662D01*
X2101921Y-15621554D01*
X2223268Y-15540472D01*
X2359941Y-15483860D01*
X2446996Y-15466544D01*
X2505031Y-15455000D01*
X2652969Y-15455000D01*
X2711004Y-15466544D01*
X2711004Y-15466544D01*
G37*
G36*
X-18225000Y-14213000D02*
X-18927000Y-14213000D01*
X-18927000Y-10811000D01*
X-18225000Y-10811000D01*
X-18225000Y-14213000D01*
X-18225000Y-14213000D01*
G37*
G36*
X-16475000Y-14213000D02*
X-17877000Y-14213000D01*
X-17877000Y-10811000D01*
X-16475000Y-10811000D01*
X-16475000Y-14213000D01*
X-16475000Y-14213000D01*
G37*
G36*
X-15425000Y-14213000D02*
X-16127000Y-14213000D01*
X-16127000Y-10811000D01*
X-15425000Y-10811000D01*
X-15425000Y-14213000D01*
X-15425000Y-14213000D01*
G37*
G36*
X17897000Y-14186000D02*
X16495000Y-14186000D01*
X16495000Y-10784000D01*
X17897000Y-10784000D01*
X17897000Y-14186000D01*
X17897000Y-14186000D01*
G37*
G36*
X16147000Y-14186000D02*
X15445000Y-14186000D01*
X15445000Y-10784000D01*
X16147000Y-10784000D01*
X16147000Y-14186000D01*
X16147000Y-14186000D01*
G37*
G36*
X18947000Y-14186000D02*
X18245000Y-14186000D01*
X18245000Y-10784000D01*
X18947000Y-10784000D01*
X18947000Y-14186000D01*
X18947000Y-14186000D01*
G37*
G36*
X-22464007Y-10206203D02*
X-22399586Y-10225744D01*
X-22340224Y-10257475D01*
X-22288183Y-10300183D01*
X-22245475Y-10352224D01*
X-22213744Y-10411586D01*
X-22194203Y-10476007D01*
X-22187000Y-10549141D01*
X-22187000Y-13450859D01*
X-22194203Y-13523993D01*
X-22213744Y-13588414D01*
X-22245475Y-13647776D01*
X-22288183Y-13699817D01*
X-22340224Y-13742525D01*
X-22399586Y-13774256D01*
X-22464007Y-13793797D01*
X-22537141Y-13801000D01*
X-23462859Y-13801000D01*
X-23535993Y-13793797D01*
X-23600414Y-13774256D01*
X-23659776Y-13742525D01*
X-23711817Y-13699817D01*
X-23754525Y-13647776D01*
X-23786256Y-13588414D01*
X-23805797Y-13523993D01*
X-23813000Y-13450859D01*
X-23813000Y-10549141D01*
X-23805797Y-10476007D01*
X-23786256Y-10411586D01*
X-23754525Y-10352224D01*
X-23711817Y-10300183D01*
X-23659776Y-10257475D01*
X-23600414Y-10225744D01*
X-23535993Y-10206203D01*
X-23462859Y-10199000D01*
X-22537141Y-10199000D01*
X-22464007Y-10206203D01*
X-22464007Y-10206203D01*
G37*
G36*
X23535993Y-10206203D02*
X23600414Y-10225744D01*
X23659776Y-10257475D01*
X23711817Y-10300183D01*
X23754525Y-10352224D01*
X23786256Y-10411586D01*
X23805797Y-10476007D01*
X23813000Y-10549141D01*
X23813000Y-13450859D01*
X23805797Y-13523993D01*
X23786256Y-13588414D01*
X23754525Y-13647776D01*
X23711817Y-13699817D01*
X23659776Y-13742525D01*
X23600414Y-13774256D01*
X23535993Y-13793797D01*
X23462859Y-13801000D01*
X22537141Y-13801000D01*
X22464007Y-13793797D01*
X22399586Y-13774256D01*
X22340224Y-13742525D01*
X22288183Y-13699817D01*
X22245475Y-13647776D01*
X22213744Y-13588414D01*
X22194203Y-13523993D01*
X22187000Y-13450859D01*
X22187000Y-10549141D01*
X22194203Y-10476007D01*
X22213744Y-10411586D01*
X22245475Y-10352224D01*
X22288183Y-10300183D01*
X22340224Y-10257475D01*
X22399586Y-10225744D01*
X22464007Y-10206203D01*
X22537141Y-10199000D01*
X23462859Y-10199000D01*
X23535993Y-10206203D01*
X23535993Y-10206203D01*
G37*
G36*
X-24507053Y-6460300D02*
X-24344670Y-6492600D01*
X-24038748Y-6619317D01*
X-23763425Y-6803282D01*
X-23529282Y-7037425D01*
X-23345317Y-7312748D01*
X-23218600Y-7618670D01*
X-23154000Y-7943436D01*
X-23154000Y-8274564D01*
X-23218600Y-8599330D01*
X-23345317Y-8905252D01*
X-23529282Y-9180575D01*
X-23763425Y-9414718D01*
X-24038748Y-9598683D01*
X-24344670Y-9725400D01*
X-24507053Y-9757700D01*
X-24669435Y-9790000D01*
X-25000565Y-9790000D01*
X-25162947Y-9757700D01*
X-25325330Y-9725400D01*
X-25631252Y-9598683D01*
X-25906575Y-9414718D01*
X-26140718Y-9180575D01*
X-26324683Y-8905252D01*
X-26451400Y-8599330D01*
X-26516000Y-8274564D01*
X-26516000Y-7943436D01*
X-26451400Y-7618670D01*
X-26324683Y-7312748D01*
X-26140718Y-7037425D01*
X-25906575Y-6803282D01*
X-25631252Y-6619317D01*
X-25325330Y-6492600D01*
X-25162947Y-6460300D01*
X-25000565Y-6428000D01*
X-24669435Y-6428000D01*
X-24507053Y-6460300D01*
X-24507053Y-6460300D01*
G37*
G36*
X25200947Y-6341300D02*
X25363330Y-6373600D01*
X25669252Y-6500317D01*
X25944575Y-6684282D01*
X26178718Y-6918425D01*
X26362683Y-7193748D01*
X26489400Y-7499670D01*
X26489400Y-7499671D01*
X26547123Y-7789860D01*
X26554000Y-7824436D01*
X26554000Y-8155564D01*
X26489400Y-8480330D01*
X26362683Y-8786252D01*
X26178718Y-9061575D01*
X25944575Y-9295718D01*
X25669252Y-9479683D01*
X25363330Y-9606400D01*
X25200947Y-9638700D01*
X25038565Y-9671000D01*
X24707435Y-9671000D01*
X24545053Y-9638700D01*
X24382670Y-9606400D01*
X24076748Y-9479683D01*
X23801425Y-9295718D01*
X23567282Y-9061575D01*
X23383317Y-8786252D01*
X23256600Y-8480330D01*
X23192000Y-8155564D01*
X23192000Y-7824436D01*
X23198878Y-7789860D01*
X23256600Y-7499671D01*
X23256600Y-7499670D01*
X23383317Y-7193748D01*
X23567282Y-6918425D01*
X23801425Y-6684282D01*
X24076748Y-6500317D01*
X24382670Y-6373600D01*
X24545053Y-6341300D01*
X24707435Y-6309000D01*
X25038565Y-6309000D01*
X25200947Y-6341300D01*
X25200947Y-6341300D01*
G37*
G36*
X-21043996Y-7772544D02*
X-20956941Y-7789860D01*
X-20820268Y-7846472D01*
X-20698921Y-7927554D01*
X-20697262Y-7928662D01*
X-20592662Y-8033262D01*
X-20592660Y-8033265D01*
X-20510472Y-8156268D01*
X-20453860Y-8292941D01*
X-20436544Y-8379996D01*
X-20430370Y-8411033D01*
X-20425000Y-8438033D01*
X-20425000Y-8585967D01*
X-20453860Y-8731059D01*
X-20510472Y-8867732D01*
X-20535542Y-8905252D01*
X-20592662Y-8990738D01*
X-20697262Y-9095338D01*
X-20697265Y-9095340D01*
X-20820268Y-9177528D01*
X-20956941Y-9234140D01*
X-21043996Y-9251456D01*
X-21102031Y-9263000D01*
X-21249969Y-9263000D01*
X-21308004Y-9251456D01*
X-21395059Y-9234140D01*
X-21531732Y-9177528D01*
X-21654735Y-9095340D01*
X-21654738Y-9095338D01*
X-21759338Y-8990738D01*
X-21816458Y-8905252D01*
X-21841528Y-8867732D01*
X-21898140Y-8731059D01*
X-21927000Y-8585967D01*
X-21927000Y-8438033D01*
X-21921629Y-8411033D01*
X-21915456Y-8379996D01*
X-21898140Y-8292941D01*
X-21841528Y-8156268D01*
X-21759340Y-8033265D01*
X-21759338Y-8033262D01*
X-21654738Y-7928662D01*
X-21653079Y-7927554D01*
X-21531732Y-7846472D01*
X-21395059Y-7789860D01*
X-21308004Y-7772544D01*
X-21249969Y-7761000D01*
X-21102031Y-7761000D01*
X-21043996Y-7772544D01*
X-21043996Y-7772544D01*
G37*
G36*
X-13043996Y-7772544D02*
X-12956941Y-7789860D01*
X-12820268Y-7846472D01*
X-12698921Y-7927554D01*
X-12697262Y-7928662D01*
X-12592662Y-8033262D01*
X-12592660Y-8033265D01*
X-12510472Y-8156268D01*
X-12453860Y-8292941D01*
X-12436544Y-8379996D01*
X-12430370Y-8411033D01*
X-12425000Y-8438033D01*
X-12425000Y-8585967D01*
X-12453860Y-8731059D01*
X-12510472Y-8867732D01*
X-12535542Y-8905252D01*
X-12592662Y-8990738D01*
X-12697262Y-9095338D01*
X-12697265Y-9095340D01*
X-12820268Y-9177528D01*
X-12956941Y-9234140D01*
X-13043996Y-9251456D01*
X-13102031Y-9263000D01*
X-13249969Y-9263000D01*
X-13308004Y-9251456D01*
X-13395059Y-9234140D01*
X-13531732Y-9177528D01*
X-13654735Y-9095340D01*
X-13654738Y-9095338D01*
X-13759338Y-8990738D01*
X-13816458Y-8905252D01*
X-13841528Y-8867732D01*
X-13898140Y-8731059D01*
X-13927000Y-8585967D01*
X-13927000Y-8438033D01*
X-13921629Y-8411033D01*
X-13915456Y-8379996D01*
X-13898140Y-8292941D01*
X-13841528Y-8156268D01*
X-13759340Y-8033265D01*
X-13759338Y-8033262D01*
X-13654738Y-7928662D01*
X-13653079Y-7927554D01*
X-13531732Y-7846472D01*
X-13395059Y-7789860D01*
X-13308004Y-7772544D01*
X-13249969Y-7761000D01*
X-13102031Y-7761000D01*
X-13043996Y-7772544D01*
X-13043996Y-7772544D01*
G37*
G36*
X13328004Y-7745544D02*
X13415059Y-7762860D01*
X13551732Y-7819472D01*
X13559161Y-7824436D01*
X13674738Y-7901662D01*
X13779338Y-8006262D01*
X13779340Y-8006265D01*
X13861528Y-8129268D01*
X13918140Y-8265941D01*
X13923511Y-8292944D01*
X13947000Y-8411031D01*
X13947000Y-8558969D01*
X13935456Y-8617004D01*
X13918140Y-8704059D01*
X13861528Y-8840732D01*
X13818418Y-8905251D01*
X13779338Y-8963738D01*
X13674738Y-9068338D01*
X13674735Y-9068340D01*
X13551732Y-9150528D01*
X13415059Y-9207140D01*
X13328004Y-9224456D01*
X13269969Y-9236000D01*
X13122031Y-9236000D01*
X13063996Y-9224456D01*
X12976941Y-9207140D01*
X12840268Y-9150528D01*
X12717265Y-9068340D01*
X12717262Y-9068338D01*
X12612662Y-8963738D01*
X12573582Y-8905251D01*
X12530472Y-8840732D01*
X12473860Y-8704059D01*
X12456544Y-8617004D01*
X12445000Y-8558969D01*
X12445000Y-8411031D01*
X12468489Y-8292944D01*
X12473860Y-8265941D01*
X12530472Y-8129268D01*
X12612660Y-8006265D01*
X12612662Y-8006262D01*
X12717262Y-7901662D01*
X12832839Y-7824436D01*
X12840268Y-7819472D01*
X12976941Y-7762860D01*
X13063996Y-7745544D01*
X13122031Y-7734000D01*
X13269969Y-7734000D01*
X13328004Y-7745544D01*
X13328004Y-7745544D01*
G37*
G36*
X21328004Y-7745544D02*
X21415059Y-7762860D01*
X21551732Y-7819472D01*
X21559161Y-7824436D01*
X21674738Y-7901662D01*
X21779338Y-8006262D01*
X21779340Y-8006265D01*
X21861528Y-8129268D01*
X21918140Y-8265941D01*
X21923511Y-8292944D01*
X21947000Y-8411031D01*
X21947000Y-8558969D01*
X21935456Y-8617004D01*
X21918140Y-8704059D01*
X21861528Y-8840732D01*
X21818418Y-8905251D01*
X21779338Y-8963738D01*
X21674738Y-9068338D01*
X21674735Y-9068340D01*
X21551732Y-9150528D01*
X21415059Y-9207140D01*
X21328004Y-9224456D01*
X21269969Y-9236000D01*
X21122031Y-9236000D01*
X21063996Y-9224456D01*
X20976941Y-9207140D01*
X20840268Y-9150528D01*
X20717265Y-9068340D01*
X20717262Y-9068338D01*
X20612662Y-8963738D01*
X20573582Y-8905251D01*
X20530472Y-8840732D01*
X20473860Y-8704059D01*
X20456544Y-8617004D01*
X20445000Y-8558969D01*
X20445000Y-8411031D01*
X20468489Y-8292944D01*
X20473860Y-8265941D01*
X20530472Y-8129268D01*
X20612660Y-8006265D01*
X20612662Y-8006262D01*
X20717262Y-7901662D01*
X20832839Y-7824436D01*
X20840268Y-7819472D01*
X20976941Y-7762860D01*
X21063996Y-7745544D01*
X21122031Y-7734000D01*
X21269969Y-7734000D01*
X21328004Y-7745544D01*
X21328004Y-7745544D01*
G37*
G36*
X25382004Y-3260544D02*
X25469059Y-3277860D01*
X25605732Y-3334472D01*
X25605733Y-3334473D01*
X25728738Y-3416662D01*
X25833338Y-3521262D01*
X25833340Y-3521265D01*
X25915528Y-3644268D01*
X25972140Y-3780941D01*
X26001000Y-3926033D01*
X26001000Y-4073967D01*
X25972140Y-4219059D01*
X25915528Y-4355732D01*
X25915527Y-4355733D01*
X25833338Y-4478738D01*
X25728738Y-4583338D01*
X25728735Y-4583340D01*
X25605732Y-4665528D01*
X25469059Y-4722140D01*
X25382004Y-4739456D01*
X25323969Y-4751000D01*
X25176031Y-4751000D01*
X25117996Y-4739456D01*
X25030941Y-4722140D01*
X24894268Y-4665528D01*
X24771265Y-4583340D01*
X24771262Y-4583338D01*
X24666662Y-4478738D01*
X24584473Y-4355733D01*
X24584472Y-4355732D01*
X24527860Y-4219059D01*
X24499000Y-4073967D01*
X24499000Y-3926033D01*
X24527860Y-3780941D01*
X24584472Y-3644268D01*
X24666660Y-3521265D01*
X24666662Y-3521262D01*
X24771262Y-3416662D01*
X24894267Y-3334473D01*
X24894268Y-3334472D01*
X25030941Y-3277860D01*
X25117996Y-3260544D01*
X25176031Y-3249000D01*
X25323969Y-3249000D01*
X25382004Y-3260544D01*
X25382004Y-3260544D01*
G37*
G36*
X17382004Y-3260544D02*
X17469059Y-3277860D01*
X17605732Y-3334472D01*
X17605733Y-3334473D01*
X17728738Y-3416662D01*
X17833338Y-3521262D01*
X17833340Y-3521265D01*
X17915528Y-3644268D01*
X17972140Y-3780941D01*
X18001000Y-3926033D01*
X18001000Y-4073967D01*
X17972140Y-4219059D01*
X17915528Y-4355732D01*
X17915527Y-4355733D01*
X17833338Y-4478738D01*
X17728738Y-4583338D01*
X17728735Y-4583340D01*
X17605732Y-4665528D01*
X17469059Y-4722140D01*
X17382004Y-4739456D01*
X17323969Y-4751000D01*
X17176031Y-4751000D01*
X17117996Y-4739456D01*
X17030941Y-4722140D01*
X16894268Y-4665528D01*
X16771265Y-4583340D01*
X16771262Y-4583338D01*
X16666662Y-4478738D01*
X16584473Y-4355733D01*
X16584472Y-4355732D01*
X16527860Y-4219059D01*
X16499000Y-4073967D01*
X16499000Y-3926033D01*
X16527860Y-3780941D01*
X16584472Y-3644268D01*
X16666660Y-3521265D01*
X16666662Y-3521262D01*
X16771262Y-3416662D01*
X16894267Y-3334473D01*
X16894268Y-3334472D01*
X17030941Y-3277860D01*
X17117996Y-3260544D01*
X17176031Y-3249000D01*
X17323969Y-3249000D01*
X17382004Y-3260544D01*
X17382004Y-3260544D01*
G37*
G36*
X-17117996Y-3260544D02*
X-17030941Y-3277860D01*
X-16894268Y-3334472D01*
X-16894267Y-3334473D01*
X-16771262Y-3416662D01*
X-16666662Y-3521262D01*
X-16666660Y-3521265D01*
X-16584472Y-3644268D01*
X-16527860Y-3780941D01*
X-16499000Y-3926033D01*
X-16499000Y-4073967D01*
X-16527860Y-4219059D01*
X-16584472Y-4355732D01*
X-16584473Y-4355733D01*
X-16666662Y-4478738D01*
X-16771262Y-4583338D01*
X-16771265Y-4583340D01*
X-16894268Y-4665528D01*
X-17030941Y-4722140D01*
X-17117996Y-4739456D01*
X-17176031Y-4751000D01*
X-17323969Y-4751000D01*
X-17382004Y-4739456D01*
X-17469059Y-4722140D01*
X-17605732Y-4665528D01*
X-17728735Y-4583340D01*
X-17728738Y-4583338D01*
X-17833338Y-4478738D01*
X-17915527Y-4355733D01*
X-17915528Y-4355732D01*
X-17972140Y-4219059D01*
X-18001000Y-4073967D01*
X-18001000Y-3926033D01*
X-17972140Y-3780941D01*
X-17915528Y-3644268D01*
X-17833340Y-3521265D01*
X-17833338Y-3521262D01*
X-17728738Y-3416662D01*
X-17605733Y-3334473D01*
X-17605732Y-3334472D01*
X-17469059Y-3277860D01*
X-17382004Y-3260544D01*
X-17323969Y-3249000D01*
X-17176031Y-3249000D01*
X-17117996Y-3260544D01*
X-17117996Y-3260544D01*
G37*
G36*
X-25117996Y-3260544D02*
X-25030941Y-3277860D01*
X-24894268Y-3334472D01*
X-24894267Y-3334473D01*
X-24771262Y-3416662D01*
X-24666662Y-3521262D01*
X-24666660Y-3521265D01*
X-24584472Y-3644268D01*
X-24527860Y-3780941D01*
X-24499000Y-3926033D01*
X-24499000Y-4073967D01*
X-24527860Y-4219059D01*
X-24584472Y-4355732D01*
X-24584473Y-4355733D01*
X-24666662Y-4478738D01*
X-24771262Y-4583338D01*
X-24771265Y-4583340D01*
X-24894268Y-4665528D01*
X-25030941Y-4722140D01*
X-25117996Y-4739456D01*
X-25176031Y-4751000D01*
X-25323969Y-4751000D01*
X-25382004Y-4739456D01*
X-25469059Y-4722140D01*
X-25605732Y-4665528D01*
X-25728735Y-4583340D01*
X-25728738Y-4583338D01*
X-25833338Y-4478738D01*
X-25915527Y-4355733D01*
X-25915528Y-4355732D01*
X-25972140Y-4219059D01*
X-26001000Y-4073967D01*
X-26001000Y-3926033D01*
X-25972140Y-3780941D01*
X-25915528Y-3644268D01*
X-25833340Y-3521265D01*
X-25833338Y-3521262D01*
X-25728738Y-3416662D01*
X-25605733Y-3334473D01*
X-25605732Y-3334472D01*
X-25469059Y-3277860D01*
X-25382004Y-3260544D01*
X-25323969Y-3249000D01*
X-25176031Y-3249000D01*
X-25117996Y-3260544D01*
X-25117996Y-3260544D01*
G37*
G36*
X-22299000Y-1701000D02*
X-23001000Y-1701000D01*
X-23001000Y1701000D01*
X-22299000Y1701000D01*
X-22299000Y-1701000D01*
X-22299000Y-1701000D01*
G37*
G36*
X-20549000Y-1701000D02*
X-21951000Y-1701000D01*
X-21951000Y1701000D01*
X-20549000Y1701000D01*
X-20549000Y-1701000D01*
X-20549000Y-1701000D01*
G37*
G36*
X-19499000Y-1701000D02*
X-20201000Y-1701000D01*
X-20201000Y1701000D01*
X-19499000Y1701000D01*
X-19499000Y-1701000D01*
X-19499000Y-1701000D01*
G37*
G36*
X23001000Y-1701000D02*
X22299000Y-1701000D01*
X22299000Y1701000D01*
X23001000Y1701000D01*
X23001000Y-1701000D01*
X23001000Y-1701000D01*
G37*
G36*
X21951000Y-1701000D02*
X20549000Y-1701000D01*
X20549000Y1701000D01*
X21951000Y1701000D01*
X21951000Y-1701000D01*
X21951000Y-1701000D01*
G37*
G36*
X20201000Y-1701000D02*
X19499000Y-1701000D01*
X19499000Y1701000D01*
X20201000Y1701000D01*
X20201000Y-1701000D01*
X20201000Y-1701000D01*
G37*
G36*
X25382004Y4739456D02*
X25469059Y4722140D01*
X25605732Y4665528D01*
X25605733Y4665527D01*
X25728738Y4583338D01*
X25833338Y4478738D01*
X25833340Y4478735D01*
X25915528Y4355732D01*
X25972140Y4219059D01*
X26001000Y4073967D01*
X26001000Y3926033D01*
X25972140Y3780941D01*
X25915528Y3644268D01*
X25915527Y3644267D01*
X25833338Y3521262D01*
X25728738Y3416662D01*
X25728735Y3416660D01*
X25605732Y3334472D01*
X25469059Y3277860D01*
X25382004Y3260544D01*
X25323969Y3249000D01*
X25176031Y3249000D01*
X25117996Y3260544D01*
X25030941Y3277860D01*
X24894268Y3334472D01*
X24771265Y3416660D01*
X24771262Y3416662D01*
X24666662Y3521262D01*
X24584473Y3644267D01*
X24584472Y3644268D01*
X24527860Y3780941D01*
X24499000Y3926033D01*
X24499000Y4073967D01*
X24527860Y4219059D01*
X24584472Y4355732D01*
X24666660Y4478735D01*
X24666662Y4478738D01*
X24771262Y4583338D01*
X24894267Y4665527D01*
X24894268Y4665528D01*
X25030941Y4722140D01*
X25117996Y4739456D01*
X25176031Y4751000D01*
X25323969Y4751000D01*
X25382004Y4739456D01*
X25382004Y4739456D01*
G37*
G36*
X17382004Y4739456D02*
X17469059Y4722140D01*
X17605732Y4665528D01*
X17605733Y4665527D01*
X17728738Y4583338D01*
X17833338Y4478738D01*
X17833340Y4478735D01*
X17915528Y4355732D01*
X17972140Y4219059D01*
X18001000Y4073967D01*
X18001000Y3926033D01*
X17972140Y3780941D01*
X17915528Y3644268D01*
X17915527Y3644267D01*
X17833338Y3521262D01*
X17728738Y3416662D01*
X17728735Y3416660D01*
X17605732Y3334472D01*
X17469059Y3277860D01*
X17382004Y3260544D01*
X17323969Y3249000D01*
X17176031Y3249000D01*
X17117996Y3260544D01*
X17030941Y3277860D01*
X16894268Y3334472D01*
X16771265Y3416660D01*
X16771262Y3416662D01*
X16666662Y3521262D01*
X16584473Y3644267D01*
X16584472Y3644268D01*
X16527860Y3780941D01*
X16499000Y3926033D01*
X16499000Y4073967D01*
X16527860Y4219059D01*
X16584472Y4355732D01*
X16666660Y4478735D01*
X16666662Y4478738D01*
X16771262Y4583338D01*
X16894267Y4665527D01*
X16894268Y4665528D01*
X17030941Y4722140D01*
X17117996Y4739456D01*
X17176031Y4751000D01*
X17323969Y4751000D01*
X17382004Y4739456D01*
X17382004Y4739456D01*
G37*
G36*
X-25117996Y4739456D02*
X-25030941Y4722140D01*
X-24894268Y4665528D01*
X-24894267Y4665527D01*
X-24771262Y4583338D01*
X-24666662Y4478738D01*
X-24666660Y4478735D01*
X-24584472Y4355732D01*
X-24527860Y4219059D01*
X-24499000Y4073967D01*
X-24499000Y3926033D01*
X-24527860Y3780941D01*
X-24584472Y3644268D01*
X-24584473Y3644267D01*
X-24666662Y3521262D01*
X-24771262Y3416662D01*
X-24771265Y3416660D01*
X-24894268Y3334472D01*
X-25030941Y3277860D01*
X-25117996Y3260544D01*
X-25176031Y3249000D01*
X-25323969Y3249000D01*
X-25382004Y3260544D01*
X-25469059Y3277860D01*
X-25605732Y3334472D01*
X-25728735Y3416660D01*
X-25728738Y3416662D01*
X-25833338Y3521262D01*
X-25915527Y3644267D01*
X-25915528Y3644268D01*
X-25972140Y3780941D01*
X-26001000Y3926033D01*
X-26001000Y4073967D01*
X-25972140Y4219059D01*
X-25915528Y4355732D01*
X-25833340Y4478735D01*
X-25833338Y4478738D01*
X-25728738Y4583338D01*
X-25605733Y4665527D01*
X-25605732Y4665528D01*
X-25469059Y4722140D01*
X-25382004Y4739456D01*
X-25323969Y4751000D01*
X-25176031Y4751000D01*
X-25117996Y4739456D01*
X-25117996Y4739456D01*
G37*
G36*
X-17117996Y4739456D02*
X-17030941Y4722140D01*
X-16894268Y4665528D01*
X-16894267Y4665527D01*
X-16771262Y4583338D01*
X-16666662Y4478738D01*
X-16666660Y4478735D01*
X-16584472Y4355732D01*
X-16527860Y4219059D01*
X-16499000Y4073967D01*
X-16499000Y3926033D01*
X-16527860Y3780941D01*
X-16584472Y3644268D01*
X-16584473Y3644267D01*
X-16666662Y3521262D01*
X-16771262Y3416662D01*
X-16771265Y3416660D01*
X-16894268Y3334472D01*
X-17030941Y3277860D01*
X-17117996Y3260544D01*
X-17176031Y3249000D01*
X-17323969Y3249000D01*
X-17382004Y3260544D01*
X-17469059Y3277860D01*
X-17605732Y3334472D01*
X-17728735Y3416660D01*
X-17728738Y3416662D01*
X-17833338Y3521262D01*
X-17915527Y3644267D01*
X-17915528Y3644268D01*
X-17972140Y3780941D01*
X-18001000Y3926033D01*
X-18001000Y4073967D01*
X-17972140Y4219059D01*
X-17915528Y4355732D01*
X-17833340Y4478735D01*
X-17833338Y4478738D01*
X-17728738Y4583338D01*
X-17605733Y4665527D01*
X-17605732Y4665528D01*
X-17469059Y4722140D01*
X-17382004Y4739456D01*
X-17323969Y4751000D01*
X-17176031Y4751000D01*
X-17117996Y4739456D01*
X-17117996Y4739456D01*
G37*
G36*
X-24532553Y9678200D02*
X-24370170Y9645900D01*
X-24064248Y9519183D01*
X-23788925Y9335218D01*
X-23554782Y9101075D01*
X-23370817Y8825752D01*
X-23244100Y8519830D01*
X-23244100Y8519829D01*
X-23204538Y8320941D01*
X-23179500Y8195064D01*
X-23179500Y7863936D01*
X-23244100Y7539170D01*
X-23370817Y7233248D01*
X-23554782Y6957925D01*
X-23788925Y6723782D01*
X-24064248Y6539817D01*
X-24370170Y6413100D01*
X-24532553Y6380800D01*
X-24694935Y6348500D01*
X-25026065Y6348500D01*
X-25188447Y6380800D01*
X-25350830Y6413100D01*
X-25656752Y6539817D01*
X-25932075Y6723782D01*
X-26166218Y6957925D01*
X-26350183Y7233248D01*
X-26476900Y7539170D01*
X-26541500Y7863936D01*
X-26541500Y8195064D01*
X-26516461Y8320941D01*
X-26476900Y8519829D01*
X-26476900Y8519830D01*
X-26350183Y8825752D01*
X-26166218Y9101075D01*
X-25932075Y9335218D01*
X-25656752Y9519183D01*
X-25350830Y9645900D01*
X-25188447Y9678200D01*
X-25026065Y9710500D01*
X-24694935Y9710500D01*
X-24532553Y9678200D01*
X-24532553Y9678200D01*
G37*
G36*
X25148947Y9796700D02*
X25311330Y9764400D01*
X25617252Y9637683D01*
X25892575Y9453718D01*
X26126718Y9219575D01*
X26310683Y8944252D01*
X26437400Y8638330D01*
X26502000Y8313564D01*
X26502000Y7982436D01*
X26437400Y7657670D01*
X26310683Y7351748D01*
X26126718Y7076425D01*
X25892575Y6842282D01*
X25617252Y6658317D01*
X25311330Y6531600D01*
X25148947Y6499300D01*
X24986565Y6467000D01*
X24655435Y6467000D01*
X24493053Y6499300D01*
X24330670Y6531600D01*
X24024748Y6658317D01*
X23749425Y6842282D01*
X23515282Y7076425D01*
X23331317Y7351748D01*
X23204600Y7657670D01*
X23140000Y7982436D01*
X23140000Y8313564D01*
X23204600Y8638330D01*
X23331317Y8944252D01*
X23515282Y9219575D01*
X23749425Y9453718D01*
X24024748Y9637683D01*
X24330670Y9764400D01*
X24493053Y9796700D01*
X24655435Y9829000D01*
X24986565Y9829000D01*
X25148947Y9796700D01*
X25148947Y9796700D01*
G37*
G36*
X-21083996Y9197456D02*
X-20996941Y9180140D01*
X-20860268Y9123528D01*
X-20826665Y9101075D01*
X-20737262Y9041338D01*
X-20632662Y8936738D01*
X-20632660Y8936735D01*
X-20550472Y8813732D01*
X-20493860Y8677059D01*
X-20465000Y8531967D01*
X-20465000Y8384033D01*
X-20493860Y8238941D01*
X-20550472Y8102268D01*
X-20630541Y7982436D01*
X-20632662Y7979262D01*
X-20737262Y7874662D01*
X-20737265Y7874660D01*
X-20860268Y7792472D01*
X-20996941Y7735860D01*
X-21083996Y7718544D01*
X-21142031Y7707000D01*
X-21289969Y7707000D01*
X-21348004Y7718544D01*
X-21435059Y7735860D01*
X-21571732Y7792472D01*
X-21694735Y7874660D01*
X-21694738Y7874662D01*
X-21799338Y7979262D01*
X-21801459Y7982436D01*
X-21881528Y8102268D01*
X-21938140Y8238941D01*
X-21967000Y8384033D01*
X-21967000Y8531967D01*
X-21938140Y8677059D01*
X-21881528Y8813732D01*
X-21799340Y8936735D01*
X-21799338Y8936738D01*
X-21694738Y9041338D01*
X-21605335Y9101075D01*
X-21571732Y9123528D01*
X-21435059Y9180140D01*
X-21348004Y9197456D01*
X-21289969Y9209000D01*
X-21142031Y9209000D01*
X-21083996Y9197456D01*
X-21083996Y9197456D01*
G37*
G36*
X-13083996Y9197456D02*
X-12996941Y9180140D01*
X-12860268Y9123528D01*
X-12826665Y9101075D01*
X-12737262Y9041338D01*
X-12632662Y8936738D01*
X-12632660Y8936735D01*
X-12550472Y8813732D01*
X-12493860Y8677059D01*
X-12465000Y8531967D01*
X-12465000Y8384033D01*
X-12493860Y8238941D01*
X-12550472Y8102268D01*
X-12630541Y7982436D01*
X-12632662Y7979262D01*
X-12737262Y7874662D01*
X-12737265Y7874660D01*
X-12860268Y7792472D01*
X-12996941Y7735860D01*
X-13083996Y7718544D01*
X-13142031Y7707000D01*
X-13289969Y7707000D01*
X-13348004Y7718544D01*
X-13435059Y7735860D01*
X-13571732Y7792472D01*
X-13694735Y7874660D01*
X-13694738Y7874662D01*
X-13799338Y7979262D01*
X-13801459Y7982436D01*
X-13881528Y8102268D01*
X-13938140Y8238941D01*
X-13967000Y8384033D01*
X-13967000Y8531967D01*
X-13938140Y8677059D01*
X-13881528Y8813732D01*
X-13799340Y8936735D01*
X-13799338Y8936738D01*
X-13694738Y9041338D01*
X-13605335Y9101075D01*
X-13571732Y9123528D01*
X-13435059Y9180140D01*
X-13348004Y9197456D01*
X-13289969Y9209000D01*
X-13142031Y9209000D01*
X-13083996Y9197456D01*
X-13083996Y9197456D01*
G37*
G36*
X21288004Y9279456D02*
X21375059Y9262140D01*
X21511732Y9205528D01*
X21633079Y9124446D01*
X21634738Y9123338D01*
X21739338Y9018738D01*
X21739340Y9018735D01*
X21821528Y8895732D01*
X21878140Y8759059D01*
X21907000Y8613967D01*
X21907000Y8466033D01*
X21878140Y8320941D01*
X21821528Y8184268D01*
X21821527Y8184267D01*
X21739338Y8061262D01*
X21634738Y7956662D01*
X21634735Y7956660D01*
X21511732Y7874472D01*
X21375059Y7817860D01*
X21288004Y7800544D01*
X21229969Y7789000D01*
X21082031Y7789000D01*
X21023996Y7800544D01*
X20936941Y7817860D01*
X20800268Y7874472D01*
X20677265Y7956660D01*
X20677262Y7956662D01*
X20572662Y8061262D01*
X20490473Y8184267D01*
X20490472Y8184268D01*
X20433860Y8320941D01*
X20405000Y8466033D01*
X20405000Y8613967D01*
X20433860Y8759059D01*
X20490472Y8895732D01*
X20572660Y9018735D01*
X20572662Y9018738D01*
X20677262Y9123338D01*
X20678921Y9124446D01*
X20800268Y9205528D01*
X20936941Y9262140D01*
X21023996Y9279456D01*
X21082031Y9291000D01*
X21229969Y9291000D01*
X21288004Y9279456D01*
X21288004Y9279456D01*
G37*
G36*
X13288004Y9279456D02*
X13375059Y9262140D01*
X13511732Y9205528D01*
X13633079Y9124446D01*
X13634738Y9123338D01*
X13739338Y9018738D01*
X13739340Y9018735D01*
X13821528Y8895732D01*
X13878140Y8759059D01*
X13907000Y8613967D01*
X13907000Y8466033D01*
X13878140Y8320941D01*
X13821528Y8184268D01*
X13821527Y8184267D01*
X13739338Y8061262D01*
X13634738Y7956662D01*
X13634735Y7956660D01*
X13511732Y7874472D01*
X13375059Y7817860D01*
X13288004Y7800544D01*
X13229969Y7789000D01*
X13082031Y7789000D01*
X13023996Y7800544D01*
X12936941Y7817860D01*
X12800268Y7874472D01*
X12677265Y7956660D01*
X12677262Y7956662D01*
X12572662Y8061262D01*
X12490473Y8184267D01*
X12490472Y8184268D01*
X12433860Y8320941D01*
X12405000Y8466033D01*
X12405000Y8613967D01*
X12433860Y8759059D01*
X12490472Y8895732D01*
X12572660Y9018735D01*
X12572662Y9018738D01*
X12677262Y9123338D01*
X12678921Y9124446D01*
X12800268Y9205528D01*
X12936941Y9262140D01*
X13023996Y9279456D01*
X13082031Y9291000D01*
X13229969Y9291000D01*
X13288004Y9279456D01*
X13288004Y9279456D01*
G37*
G36*
X-22464007Y13793797D02*
X-22399586Y13774256D01*
X-22340224Y13742525D01*
X-22288183Y13699817D01*
X-22245475Y13647776D01*
X-22213744Y13588414D01*
X-22194203Y13523993D01*
X-22187000Y13450859D01*
X-22187000Y10549141D01*
X-22194203Y10476007D01*
X-22213744Y10411586D01*
X-22245475Y10352224D01*
X-22288183Y10300183D01*
X-22340224Y10257475D01*
X-22399586Y10225744D01*
X-22464007Y10206203D01*
X-22537141Y10199000D01*
X-23462859Y10199000D01*
X-23535993Y10206203D01*
X-23600414Y10225744D01*
X-23659776Y10257475D01*
X-23711817Y10300183D01*
X-23754525Y10352224D01*
X-23786256Y10411586D01*
X-23805797Y10476007D01*
X-23813000Y10549141D01*
X-23813000Y13450859D01*
X-23805797Y13523993D01*
X-23786256Y13588414D01*
X-23754525Y13647776D01*
X-23711817Y13699817D01*
X-23659776Y13742525D01*
X-23600414Y13774256D01*
X-23535993Y13793797D01*
X-23462859Y13801000D01*
X-22537141Y13801000D01*
X-22464007Y13793797D01*
X-22464007Y13793797D01*
G37*
G36*
X23535993Y13793797D02*
X23600414Y13774256D01*
X23659776Y13742525D01*
X23711817Y13699817D01*
X23754525Y13647776D01*
X23786256Y13588414D01*
X23805797Y13523993D01*
X23813000Y13450859D01*
X23813000Y10549141D01*
X23805797Y10476007D01*
X23786256Y10411586D01*
X23754525Y10352224D01*
X23711817Y10300183D01*
X23659776Y10257475D01*
X23600414Y10225744D01*
X23535993Y10206203D01*
X23462859Y10199000D01*
X22537141Y10199000D01*
X22464007Y10206203D01*
X22399586Y10225744D01*
X22340224Y10257475D01*
X22288183Y10300183D01*
X22245475Y10352224D01*
X22213744Y10411586D01*
X22194203Y10476007D01*
X22187000Y10549141D01*
X22187000Y13450859D01*
X22194203Y13523993D01*
X22213744Y13588414D01*
X22245475Y13647776D01*
X22288183Y13699817D01*
X22340224Y13742525D01*
X22399586Y13774256D01*
X22464007Y13793797D01*
X22537141Y13801000D01*
X23462859Y13801000D01*
X23535993Y13793797D01*
X23535993Y13793797D01*
G37*
G36*
X-15465000Y10757000D02*
X-16167000Y10757000D01*
X-16167000Y14159000D01*
X-15465000Y14159000D01*
X-15465000Y10757000D01*
X-15465000Y10757000D01*
G37*
G36*
X-18265000Y10757000D02*
X-18967000Y10757000D01*
X-18967000Y14159000D01*
X-18265000Y14159000D01*
X-18265000Y10757000D01*
X-18265000Y10757000D01*
G37*
G36*
X-16515000Y10757000D02*
X-17917000Y10757000D01*
X-17917000Y14159000D01*
X-16515000Y14159000D01*
X-16515000Y10757000D01*
X-16515000Y10757000D01*
G37*
G36*
X16107000Y10839000D02*
X15405000Y10839000D01*
X15405000Y14241000D01*
X16107000Y14241000D01*
X16107000Y10839000D01*
X16107000Y10839000D01*
G37*
G36*
X17857000Y10839000D02*
X16455000Y10839000D01*
X16455000Y14241000D01*
X17857000Y14241000D01*
X17857000Y10839000D01*
X17857000Y10839000D01*
G37*
G36*
X18907000Y10839000D02*
X18205000Y10839000D01*
X18205000Y14241000D01*
X18907000Y14241000D01*
X18907000Y10839000D01*
X18907000Y10839000D01*
G37*
G36*
X-10479996Y16934456D02*
X-10392941Y16917140D01*
X-10256268Y16860528D01*
X-10134921Y16779446D01*
X-10133262Y16778338D01*
X-10028662Y16673738D01*
X-10028660Y16673735D01*
X-9946472Y16550732D01*
X-9889860Y16414059D01*
X-9872544Y16327004D01*
X-9861000Y16268969D01*
X-9861000Y16121031D01*
X-9872544Y16062996D01*
X-9889860Y15975941D01*
X-9946472Y15839268D01*
X-9977740Y15792472D01*
X-10028662Y15716262D01*
X-10133262Y15611662D01*
X-10133265Y15611660D01*
X-10256268Y15529472D01*
X-10392941Y15472860D01*
X-10479996Y15455544D01*
X-10538031Y15444000D01*
X-10685969Y15444000D01*
X-10744004Y15455544D01*
X-10831059Y15472860D01*
X-10967732Y15529472D01*
X-11090735Y15611660D01*
X-11090738Y15611662D01*
X-11195338Y15716262D01*
X-11246260Y15792472D01*
X-11277528Y15839268D01*
X-11334140Y15975941D01*
X-11351456Y16062996D01*
X-11363000Y16121031D01*
X-11363000Y16268969D01*
X-11351456Y16327004D01*
X-11334140Y16414059D01*
X-11277528Y16550732D01*
X-11195340Y16673735D01*
X-11195338Y16673738D01*
X-11090738Y16778338D01*
X-11089079Y16779446D01*
X-10967732Y16860528D01*
X-10831059Y16917140D01*
X-10744004Y16934456D01*
X-10685969Y16946000D01*
X-10538031Y16946000D01*
X-10479996Y16934456D01*
X-10479996Y16934456D01*
G37*
G36*
X-2479996Y16934456D02*
X-2392941Y16917140D01*
X-2256268Y16860528D01*
X-2134921Y16779446D01*
X-2133262Y16778338D01*
X-2028662Y16673738D01*
X-2028660Y16673735D01*
X-1946472Y16550732D01*
X-1889860Y16414059D01*
X-1872544Y16327004D01*
X-1861000Y16268969D01*
X-1861000Y16121031D01*
X-1872544Y16062996D01*
X-1889860Y15975941D01*
X-1946472Y15839268D01*
X-1977740Y15792472D01*
X-2028662Y15716262D01*
X-2133262Y15611662D01*
X-2133265Y15611660D01*
X-2256268Y15529472D01*
X-2392941Y15472860D01*
X-2479996Y15455544D01*
X-2538031Y15444000D01*
X-2685969Y15444000D01*
X-2744004Y15455544D01*
X-2831059Y15472860D01*
X-2967732Y15529472D01*
X-3090735Y15611660D01*
X-3090738Y15611662D01*
X-3195338Y15716262D01*
X-3246260Y15792472D01*
X-3277528Y15839268D01*
X-3334140Y15975941D01*
X-3351456Y16062996D01*
X-3363000Y16121031D01*
X-3363000Y16268969D01*
X-3351456Y16327004D01*
X-3334140Y16414059D01*
X-3277528Y16550732D01*
X-3195340Y16673735D01*
X-3195338Y16673738D01*
X-3090738Y16778338D01*
X-3089079Y16779446D01*
X-2967732Y16860528D01*
X-2831059Y16917140D01*
X-2744004Y16934456D01*
X-2685969Y16946000D01*
X-2538031Y16946000D01*
X-2479996Y16934456D01*
X-2479996Y16934456D01*
G37*
G36*
X10647004Y16966456D02*
X10734059Y16949140D01*
X10870732Y16892528D01*
X10870733Y16892527D01*
X10993738Y16810338D01*
X11098338Y16705738D01*
X11098340Y16705735D01*
X11180528Y16582732D01*
X11237140Y16446059D01*
X11249477Y16384033D01*
X11262027Y16320944D01*
X11266000Y16300967D01*
X11266000Y16153033D01*
X11237140Y16007941D01*
X11180528Y15871268D01*
X11144842Y15817860D01*
X11098338Y15748262D01*
X10993738Y15643662D01*
X10993735Y15643660D01*
X10870732Y15561472D01*
X10734059Y15504860D01*
X10647004Y15487544D01*
X10588969Y15476000D01*
X10441031Y15476000D01*
X10382996Y15487544D01*
X10295941Y15504860D01*
X10159268Y15561472D01*
X10036265Y15643660D01*
X10036262Y15643662D01*
X9931662Y15748262D01*
X9885158Y15817860D01*
X9849472Y15871268D01*
X9792860Y16007941D01*
X9764000Y16153033D01*
X9764000Y16300967D01*
X9767974Y16320944D01*
X9780523Y16384033D01*
X9792860Y16446059D01*
X9849472Y16582732D01*
X9931660Y16705735D01*
X9931662Y16705738D01*
X10036262Y16810338D01*
X10159267Y16892527D01*
X10159268Y16892528D01*
X10295941Y16949140D01*
X10382996Y16966456D01*
X10441031Y16978000D01*
X10588969Y16978000D01*
X10647004Y16966456D01*
X10647004Y16966456D01*
G37*
G36*
X2647004Y16966456D02*
X2734059Y16949140D01*
X2870732Y16892528D01*
X2870733Y16892527D01*
X2993738Y16810338D01*
X3098338Y16705738D01*
X3098340Y16705735D01*
X3180528Y16582732D01*
X3237140Y16446059D01*
X3249477Y16384033D01*
X3262027Y16320944D01*
X3266000Y16300967D01*
X3266000Y16153033D01*
X3237140Y16007941D01*
X3180528Y15871268D01*
X3144842Y15817860D01*
X3098338Y15748262D01*
X2993738Y15643662D01*
X2993735Y15643660D01*
X2870732Y15561472D01*
X2734059Y15504860D01*
X2647004Y15487544D01*
X2588969Y15476000D01*
X2441031Y15476000D01*
X2382996Y15487544D01*
X2295941Y15504860D01*
X2159268Y15561472D01*
X2036265Y15643660D01*
X2036262Y15643662D01*
X1931662Y15748262D01*
X1885158Y15817860D01*
X1849472Y15871268D01*
X1792860Y16007941D01*
X1764000Y16153033D01*
X1764000Y16300967D01*
X1767974Y16320944D01*
X1780523Y16384033D01*
X1792860Y16446059D01*
X1849472Y16582732D01*
X1931660Y16705735D01*
X1931662Y16705738D01*
X2036262Y16810338D01*
X2159267Y16892527D01*
X2159268Y16892528D01*
X2295941Y16949140D01*
X2382996Y16966456D01*
X2441031Y16978000D01*
X2588969Y16978000D01*
X2647004Y16966456D01*
X2647004Y16966456D01*
G37*
G36*
X-13083996Y17197456D02*
X-12996941Y17180140D01*
X-12860268Y17123528D01*
X-12860267Y17123527D01*
X-12737262Y17041338D01*
X-12632662Y16936738D01*
X-12632660Y16936735D01*
X-12550472Y16813732D01*
X-12493860Y16677059D01*
X-12476544Y16590004D01*
X-12468732Y16550732D01*
X-12465000Y16531967D01*
X-12465000Y16384033D01*
X-12493860Y16238941D01*
X-12550472Y16102268D01*
X-12613497Y16007944D01*
X-12632662Y15979262D01*
X-12737262Y15874662D01*
X-12737265Y15874660D01*
X-12860268Y15792472D01*
X-12996941Y15735860D01*
X-13083996Y15718544D01*
X-13142031Y15707000D01*
X-13289969Y15707000D01*
X-13348004Y15718544D01*
X-13435059Y15735860D01*
X-13571732Y15792472D01*
X-13694735Y15874660D01*
X-13694738Y15874662D01*
X-13799338Y15979262D01*
X-13818503Y16007944D01*
X-13881528Y16102268D01*
X-13938140Y16238941D01*
X-13967000Y16384033D01*
X-13967000Y16531967D01*
X-13963267Y16550732D01*
X-13955456Y16590004D01*
X-13938140Y16677059D01*
X-13881528Y16813732D01*
X-13799340Y16936735D01*
X-13799338Y16936738D01*
X-13694738Y17041338D01*
X-13571733Y17123527D01*
X-13571732Y17123528D01*
X-13435059Y17180140D01*
X-13348004Y17197456D01*
X-13289969Y17209000D01*
X-13142031Y17209000D01*
X-13083996Y17197456D01*
X-13083996Y17197456D01*
G37*
G36*
X-21083996Y17197456D02*
X-20996941Y17180140D01*
X-20860268Y17123528D01*
X-20860267Y17123527D01*
X-20737262Y17041338D01*
X-20632662Y16936738D01*
X-20632660Y16936735D01*
X-20550472Y16813732D01*
X-20493860Y16677059D01*
X-20476544Y16590004D01*
X-20468732Y16550732D01*
X-20465000Y16531967D01*
X-20465000Y16384033D01*
X-20493860Y16238941D01*
X-20550472Y16102268D01*
X-20613497Y16007944D01*
X-20632662Y15979262D01*
X-20737262Y15874662D01*
X-20737265Y15874660D01*
X-20860268Y15792472D01*
X-20996941Y15735860D01*
X-21083996Y15718544D01*
X-21142031Y15707000D01*
X-21289969Y15707000D01*
X-21348004Y15718544D01*
X-21435059Y15735860D01*
X-21571732Y15792472D01*
X-21694735Y15874660D01*
X-21694738Y15874662D01*
X-21799338Y15979262D01*
X-21818503Y16007944D01*
X-21881528Y16102268D01*
X-21938140Y16238941D01*
X-21967000Y16384033D01*
X-21967000Y16531967D01*
X-21963267Y16550732D01*
X-21955456Y16590004D01*
X-21938140Y16677059D01*
X-21881528Y16813732D01*
X-21799340Y16936735D01*
X-21799338Y16936738D01*
X-21694738Y17041338D01*
X-21571733Y17123527D01*
X-21571732Y17123528D01*
X-21435059Y17180140D01*
X-21348004Y17197456D01*
X-21289969Y17209000D01*
X-21142031Y17209000D01*
X-21083996Y17197456D01*
X-21083996Y17197456D01*
G37*
G36*
X13288004Y17279456D02*
X13375059Y17262140D01*
X13511732Y17205528D01*
X13633079Y17124446D01*
X13634738Y17123338D01*
X13739338Y17018738D01*
X13739340Y17018735D01*
X13821528Y16895732D01*
X13878140Y16759059D01*
X13894450Y16677059D01*
X13907000Y16613969D01*
X13907000Y16466031D01*
X13896662Y16414059D01*
X13878140Y16320941D01*
X13821528Y16184268D01*
X13821527Y16184267D01*
X13739338Y16061262D01*
X13634738Y15956662D01*
X13634735Y15956660D01*
X13511732Y15874472D01*
X13375059Y15817860D01*
X13288004Y15800544D01*
X13229969Y15789000D01*
X13082031Y15789000D01*
X13023996Y15800544D01*
X12936941Y15817860D01*
X12800268Y15874472D01*
X12677265Y15956660D01*
X12677262Y15956662D01*
X12572662Y16061262D01*
X12490473Y16184267D01*
X12490472Y16184268D01*
X12433860Y16320941D01*
X12415338Y16414059D01*
X12405000Y16466031D01*
X12405000Y16613969D01*
X12417550Y16677059D01*
X12433860Y16759059D01*
X12490472Y16895732D01*
X12572660Y17018735D01*
X12572662Y17018738D01*
X12677262Y17123338D01*
X12678921Y17124446D01*
X12800268Y17205528D01*
X12936941Y17262140D01*
X13023996Y17279456D01*
X13082031Y17291000D01*
X13229969Y17291000D01*
X13288004Y17279456D01*
X13288004Y17279456D01*
G37*
G36*
X21288004Y17279456D02*
X21375059Y17262140D01*
X21511732Y17205528D01*
X21633079Y17124446D01*
X21634738Y17123338D01*
X21739338Y17018738D01*
X21739340Y17018735D01*
X21821528Y16895732D01*
X21878140Y16759059D01*
X21894450Y16677059D01*
X21907000Y16613969D01*
X21907000Y16466031D01*
X21896662Y16414059D01*
X21878140Y16320941D01*
X21821528Y16184268D01*
X21821527Y16184267D01*
X21739338Y16061262D01*
X21634738Y15956662D01*
X21634735Y15956660D01*
X21511732Y15874472D01*
X21375059Y15817860D01*
X21288004Y15800544D01*
X21229969Y15789000D01*
X21082031Y15789000D01*
X21023996Y15800544D01*
X20936941Y15817860D01*
X20800268Y15874472D01*
X20677265Y15956660D01*
X20677262Y15956662D01*
X20572662Y16061262D01*
X20490473Y16184267D01*
X20490472Y16184268D01*
X20433860Y16320941D01*
X20415338Y16414059D01*
X20405000Y16466031D01*
X20405000Y16613969D01*
X20417550Y16677059D01*
X20433860Y16759059D01*
X20490472Y16895732D01*
X20572660Y17018735D01*
X20572662Y17018738D01*
X20677262Y17123338D01*
X20678921Y17124446D01*
X20800268Y17205528D01*
X20936941Y17262140D01*
X21023996Y17279456D01*
X21082031Y17291000D01*
X21229969Y17291000D01*
X21288004Y17279456D01*
X21288004Y17279456D01*
G37*
G36*
X-4861000Y18494000D02*
X-5563000Y18494000D01*
X-5563000Y21896000D01*
X-4861000Y21896000D01*
X-4861000Y18494000D01*
X-4861000Y18494000D01*
G37*
G36*
X-7661000Y18494000D02*
X-8363000Y18494000D01*
X-8363000Y21896000D01*
X-7661000Y21896000D01*
X-7661000Y18494000D01*
X-7661000Y18494000D01*
G37*
G36*
X-5911000Y18494000D02*
X-7313000Y18494000D01*
X-7313000Y21896000D01*
X-5911000Y21896000D01*
X-5911000Y18494000D01*
X-5911000Y18494000D01*
G37*
G36*
X7216000Y18526000D02*
X5814000Y18526000D01*
X5814000Y21928000D01*
X7216000Y21928000D01*
X7216000Y18526000D01*
X7216000Y18526000D01*
G37*
G36*
X8266000Y18526000D02*
X7564000Y18526000D01*
X7564000Y21928000D01*
X8266000Y21928000D01*
X8266000Y18526000D01*
X8266000Y18526000D01*
G37*
G36*
X5466000Y18526000D02*
X4764000Y18526000D01*
X4764000Y21928000D01*
X5466000Y21928000D01*
X5466000Y18526000D01*
X5466000Y18526000D01*
G37*
G36*
X-15072053Y22752700D02*
X-14909670Y22720400D01*
X-14603748Y22593683D01*
X-14328425Y22409718D01*
X-14094282Y22175575D01*
X-13910317Y21900252D01*
X-13783600Y21594330D01*
X-13783600Y21594329D01*
X-13733520Y21342564D01*
X-13719000Y21269564D01*
X-13719000Y20938436D01*
X-13783600Y20613670D01*
X-13910317Y20307748D01*
X-14094282Y20032425D01*
X-14328425Y19798282D01*
X-14603748Y19614317D01*
X-14909670Y19487600D01*
X-15072053Y19455300D01*
X-15234435Y19423000D01*
X-15565565Y19423000D01*
X-15727947Y19455300D01*
X-15890330Y19487600D01*
X-16196252Y19614317D01*
X-16471575Y19798282D01*
X-16705718Y20032425D01*
X-16889683Y20307748D01*
X-17016400Y20613670D01*
X-17081000Y20938436D01*
X-17081000Y21269564D01*
X-17066479Y21342564D01*
X-17016400Y21594329D01*
X-17016400Y21594330D01*
X-16889683Y21900252D01*
X-16705718Y22175575D01*
X-16471575Y22409718D01*
X-16196252Y22593683D01*
X-15890330Y22720400D01*
X-15727947Y22752700D01*
X-15565565Y22785000D01*
X-15234435Y22785000D01*
X-15072053Y22752700D01*
X-15072053Y22752700D01*
G37*
G36*
X15626947Y22825700D02*
X15789330Y22793400D01*
X16095252Y22666683D01*
X16370575Y22482718D01*
X16604718Y22248575D01*
X16788683Y21973252D01*
X16915400Y21667330D01*
X16929921Y21594329D01*
X16980000Y21342565D01*
X16980000Y21011435D01*
X16965479Y20938435D01*
X16915400Y20686670D01*
X16788683Y20380748D01*
X16604718Y20105425D01*
X16370575Y19871282D01*
X16095252Y19687317D01*
X15789330Y19560600D01*
X15626947Y19528300D01*
X15464565Y19496000D01*
X15133435Y19496000D01*
X14971053Y19528300D01*
X14808670Y19560600D01*
X14502748Y19687317D01*
X14227425Y19871282D01*
X13993282Y20105425D01*
X13809317Y20380748D01*
X13682600Y20686670D01*
X13632521Y20938435D01*
X13618000Y21011435D01*
X13618000Y21342565D01*
X13668079Y21594329D01*
X13682600Y21667330D01*
X13809317Y21973252D01*
X13993282Y22248575D01*
X14227425Y22482718D01*
X14502748Y22666683D01*
X14808670Y22793400D01*
X14971053Y22825700D01*
X15133435Y22858000D01*
X15464565Y22858000D01*
X15626947Y22825700D01*
X15626947Y22825700D01*
G37*
G36*
X-10479996Y24934456D02*
X-10392941Y24917140D01*
X-10256268Y24860528D01*
X-10134921Y24779446D01*
X-10133262Y24778338D01*
X-10028662Y24673738D01*
X-10028660Y24673735D01*
X-9946472Y24550732D01*
X-9889860Y24414059D01*
X-9861000Y24268967D01*
X-9861000Y24121033D01*
X-9889860Y23975941D01*
X-9946472Y23839268D01*
X-9946473Y23839267D01*
X-10028662Y23716262D01*
X-10133262Y23611662D01*
X-10133265Y23611660D01*
X-10256268Y23529472D01*
X-10392941Y23472860D01*
X-10479996Y23455544D01*
X-10538031Y23444000D01*
X-10685969Y23444000D01*
X-10744004Y23455544D01*
X-10831059Y23472860D01*
X-10967732Y23529472D01*
X-11090735Y23611660D01*
X-11090738Y23611662D01*
X-11195338Y23716262D01*
X-11277527Y23839267D01*
X-11277528Y23839268D01*
X-11334140Y23975941D01*
X-11363000Y24121033D01*
X-11363000Y24268967D01*
X-11334140Y24414059D01*
X-11277528Y24550732D01*
X-11195340Y24673735D01*
X-11195338Y24673738D01*
X-11090738Y24778338D01*
X-11089079Y24779446D01*
X-10967732Y24860528D01*
X-10831059Y24917140D01*
X-10744004Y24934456D01*
X-10685969Y24946000D01*
X-10538031Y24946000D01*
X-10479996Y24934456D01*
X-10479996Y24934456D01*
G37*
G36*
X-2479996Y24934456D02*
X-2392941Y24917140D01*
X-2256268Y24860528D01*
X-2134921Y24779446D01*
X-2133262Y24778338D01*
X-2028662Y24673738D01*
X-2028660Y24673735D01*
X-1946472Y24550732D01*
X-1889860Y24414059D01*
X-1861000Y24268967D01*
X-1861000Y24121033D01*
X-1889860Y23975941D01*
X-1946472Y23839268D01*
X-1946473Y23839267D01*
X-2028662Y23716262D01*
X-2133262Y23611662D01*
X-2133265Y23611660D01*
X-2256268Y23529472D01*
X-2392941Y23472860D01*
X-2479996Y23455544D01*
X-2538031Y23444000D01*
X-2685969Y23444000D01*
X-2744004Y23455544D01*
X-2831059Y23472860D01*
X-2967732Y23529472D01*
X-3090735Y23611660D01*
X-3090738Y23611662D01*
X-3195338Y23716262D01*
X-3277527Y23839267D01*
X-3277528Y23839268D01*
X-3334140Y23975941D01*
X-3363000Y24121033D01*
X-3363000Y24268967D01*
X-3334140Y24414059D01*
X-3277528Y24550732D01*
X-3195340Y24673735D01*
X-3195338Y24673738D01*
X-3090738Y24778338D01*
X-3089079Y24779446D01*
X-2967732Y24860528D01*
X-2831059Y24917140D01*
X-2744004Y24934456D01*
X-2685969Y24946000D01*
X-2538031Y24946000D01*
X-2479996Y24934456D01*
X-2479996Y24934456D01*
G37*
G36*
X2647004Y24966456D02*
X2734059Y24949140D01*
X2870732Y24892528D01*
X2870733Y24892527D01*
X2993738Y24810338D01*
X3098338Y24705738D01*
X3098340Y24705735D01*
X3180528Y24582732D01*
X3237140Y24446059D01*
X3266000Y24300967D01*
X3266000Y24153033D01*
X3237140Y24007941D01*
X3180528Y23871268D01*
X3099446Y23749921D01*
X3098338Y23748262D01*
X2993738Y23643662D01*
X2993735Y23643660D01*
X2870732Y23561472D01*
X2734059Y23504860D01*
X2647004Y23487544D01*
X2588969Y23476000D01*
X2441031Y23476000D01*
X2382996Y23487544D01*
X2295941Y23504860D01*
X2159268Y23561472D01*
X2036265Y23643660D01*
X2036262Y23643662D01*
X1931662Y23748262D01*
X1930554Y23749921D01*
X1849472Y23871268D01*
X1792860Y24007941D01*
X1764000Y24153033D01*
X1764000Y24300967D01*
X1792860Y24446059D01*
X1849472Y24582732D01*
X1931660Y24705735D01*
X1931662Y24705738D01*
X2036262Y24810338D01*
X2159267Y24892527D01*
X2159268Y24892528D01*
X2295941Y24949140D01*
X2382996Y24966456D01*
X2441031Y24978000D01*
X2588969Y24978000D01*
X2647004Y24966456D01*
X2647004Y24966456D01*
G37*
G36*
X10647004Y24966456D02*
X10734059Y24949140D01*
X10870732Y24892528D01*
X10870733Y24892527D01*
X10993738Y24810338D01*
X11098338Y24705738D01*
X11098340Y24705735D01*
X11180528Y24582732D01*
X11237140Y24446059D01*
X11266000Y24300967D01*
X11266000Y24153033D01*
X11237140Y24007941D01*
X11180528Y23871268D01*
X11099446Y23749921D01*
X11098338Y23748262D01*
X10993738Y23643662D01*
X10993735Y23643660D01*
X10870732Y23561472D01*
X10734059Y23504860D01*
X10647004Y23487544D01*
X10588969Y23476000D01*
X10441031Y23476000D01*
X10382996Y23487544D01*
X10295941Y23504860D01*
X10159268Y23561472D01*
X10036265Y23643660D01*
X10036262Y23643662D01*
X9931662Y23748262D01*
X9930554Y23749921D01*
X9849472Y23871268D01*
X9792860Y24007941D01*
X9764000Y24153033D01*
X9764000Y24300967D01*
X9792860Y24446059D01*
X9849472Y24582732D01*
X9931660Y24705735D01*
X9931662Y24705738D01*
X10036262Y24810338D01*
X10159267Y24892527D01*
X10159268Y24892528D01*
X10295941Y24949140D01*
X10382996Y24966456D01*
X10441031Y24978000D01*
X10588969Y24978000D01*
X10647004Y24966456D01*
X10647004Y24966456D01*
G37*
G36*
X327947Y27773700D02*
X490330Y27741400D01*
X796252Y27614683D01*
X1071575Y27430718D01*
X1305718Y27196575D01*
X1489683Y26921252D01*
X1616400Y26615330D01*
X1681000Y26290564D01*
X1681000Y25959436D01*
X1616400Y25634670D01*
X1489683Y25328748D01*
X1305718Y25053425D01*
X1071575Y24819282D01*
X796252Y24635317D01*
X490330Y24508600D01*
X327947Y24476300D01*
X165565Y24444000D01*
X-165565Y24444000D01*
X-327947Y24476300D01*
X-490330Y24508600D01*
X-796252Y24635317D01*
X-1071575Y24819282D01*
X-1305718Y25053425D01*
X-1489683Y25328748D01*
X-1616400Y25634670D01*
X-1681000Y25959436D01*
X-1681000Y26290564D01*
X-1616400Y26615330D01*
X-1489683Y26921252D01*
X-1305718Y27196575D01*
X-1071575Y27430718D01*
X-796252Y27614683D01*
X-490330Y27741400D01*
X-327947Y27773700D01*
X-165565Y27806000D01*
X165565Y27806000D01*
X327947Y27773700D01*
X327947Y27773700D01*
G37*
M02*
