M48
;DRILL file {KiCad (5.0.0)} date 06/16/19 21:50:48
;FORMAT={-:-/ absolute / inch / decimal}
FMAT,2
INCH,TZ
T1C0.0551
T2C0.1283
%
G90
G05
M72
T1
X-0.9941Y0.1575
X-0.9941Y-0.1575
X-0.6791Y0.1575
X-0.6791Y-0.1575
X-0.8337Y-0.3351
X-0.8337Y-0.6501
X-0.5187Y-0.3351
X-0.5187Y-0.6501
X0.5195Y-0.3341
X0.5195Y-0.649
X0.8345Y-0.3341
X0.8345Y-0.649
X-0.4178Y0.9526
X-0.4178Y0.6376
X-0.1028Y0.9526
X-0.1028Y0.6376
X0.099Y0.9538
X0.099Y0.6389
X0.414Y0.9538
X0.414Y0.6389
X-0.4152Y-0.6384
X-0.4152Y-0.9534
X-0.1003Y-0.6384
X-0.1003Y-0.9534
X0.518Y0.6512
X0.518Y0.3362
X0.8329Y0.6512
X0.8329Y0.3362
X0.1015Y-0.638
X0.1015Y-0.953
X0.4165Y-0.638
X0.4165Y-0.953
X-0.8353Y0.648
X-0.8353Y0.333
X-0.5203Y0.648
X-0.5203Y0.333
X0.6791Y0.1575
X0.6791Y-0.1575
X0.9941Y0.1575
X0.9941Y-0.1575
T2
X-0.9788Y0.3161
X0.6023Y0.8337
X0.6076Y-0.8299
X-0.6063Y0.8309
X0.Y-1.0285
X0.Y1.0285
X-0.9778Y-0.3193
X-0.6036Y-0.8328
X0.9793Y-0.3146
X0.9772Y0.3208
T0
M30
