G04 #@! TF.GenerationSoftware,KiCad,Pcbnew,(5.0.0)*
G04 #@! TF.CreationDate,2019-06-16T21:50:45-07:00*
G04 #@! TF.ProjectId,ring_illuminator,72696E675F696C6C756D696E61746F72,rev?*
G04 #@! TF.SameCoordinates,Original*
G04 #@! TF.FileFunction,Copper,L1,Top,Signal*
G04 #@! TF.FilePolarity,Positive*
%FSLAX46Y46*%
G04 Gerber Fmt 4.6, Leading zero omitted, Abs format (unit mm)*
G04 Created by KiCad (PCBNEW (5.0.0)) date 06/16/19 21:50:45*
%MOMM*%
%LPD*%
G01*
G04 APERTURE LIST*
G04 #@! TA.AperFunction,Conductor*
%ADD10C,0.100000*%
G04 #@! TD*
G04 #@! TA.AperFunction,SMDPad,CuDef*
%ADD11C,1.524000*%
G04 #@! TD*
G04 #@! TA.AperFunction,ComponentPad*
%ADD12C,1.400000*%
G04 #@! TD*
G04 #@! TA.AperFunction,SMDPad,CuDef*
%ADD13R,1.300000X3.300000*%
G04 #@! TD*
G04 #@! TA.AperFunction,SMDPad,CuDef*
%ADD14R,0.600000X3.300000*%
G04 #@! TD*
G04 #@! TA.AperFunction,ComponentPad*
%ADD15C,3.260000*%
G04 #@! TD*
G04 #@! TA.AperFunction,Conductor*
%ADD16C,1.000000*%
G04 #@! TD*
G04 #@! TA.AperFunction,Conductor*
%ADD17C,0.254000*%
G04 #@! TD*
G04 APERTURE END LIST*
D10*
G04 #@! TO.N,VLED1*
G04 #@! TO.C,J17*
G36*
X23418345Y-10251835D02*
X23455329Y-10257321D01*
X23491598Y-10266406D01*
X23526802Y-10279002D01*
X23560602Y-10294988D01*
X23592672Y-10314210D01*
X23622704Y-10336483D01*
X23650408Y-10361592D01*
X23675517Y-10389296D01*
X23697790Y-10419328D01*
X23717012Y-10451398D01*
X23732998Y-10485198D01*
X23745594Y-10520402D01*
X23754679Y-10556671D01*
X23760165Y-10593655D01*
X23762000Y-10631000D01*
X23762000Y-13369000D01*
X23760165Y-13406345D01*
X23754679Y-13443329D01*
X23745594Y-13479598D01*
X23732998Y-13514802D01*
X23717012Y-13548602D01*
X23697790Y-13580672D01*
X23675517Y-13610704D01*
X23650408Y-13638408D01*
X23622704Y-13663517D01*
X23592672Y-13685790D01*
X23560602Y-13705012D01*
X23526802Y-13720998D01*
X23491598Y-13733594D01*
X23455329Y-13742679D01*
X23418345Y-13748165D01*
X23381000Y-13750000D01*
X22619000Y-13750000D01*
X22581655Y-13748165D01*
X22544671Y-13742679D01*
X22508402Y-13733594D01*
X22473198Y-13720998D01*
X22439398Y-13705012D01*
X22407328Y-13685790D01*
X22377296Y-13663517D01*
X22349592Y-13638408D01*
X22324483Y-13610704D01*
X22302210Y-13580672D01*
X22282988Y-13548602D01*
X22267002Y-13514802D01*
X22254406Y-13479598D01*
X22245321Y-13443329D01*
X22239835Y-13406345D01*
X22238000Y-13369000D01*
X22238000Y-10631000D01*
X22239835Y-10593655D01*
X22245321Y-10556671D01*
X22254406Y-10520402D01*
X22267002Y-10485198D01*
X22282988Y-10451398D01*
X22302210Y-10419328D01*
X22324483Y-10389296D01*
X22349592Y-10361592D01*
X22377296Y-10336483D01*
X22407328Y-10314210D01*
X22439398Y-10294988D01*
X22473198Y-10279002D01*
X22508402Y-10266406D01*
X22544671Y-10257321D01*
X22581655Y-10251835D01*
X22619000Y-10250000D01*
X23381000Y-10250000D01*
X23418345Y-10251835D01*
X23418345Y-10251835D01*
G37*
D11*
G04 #@! TD*
G04 #@! TO.P,J17,1*
G04 #@! TO.N,VLED1*
X23000000Y-12000000D03*
D10*
G04 #@! TO.N,PGND*
G04 #@! TO.C,J1*
G36*
X-22581655Y-10251835D02*
X-22544671Y-10257321D01*
X-22508402Y-10266406D01*
X-22473198Y-10279002D01*
X-22439398Y-10294988D01*
X-22407328Y-10314210D01*
X-22377296Y-10336483D01*
X-22349592Y-10361592D01*
X-22324483Y-10389296D01*
X-22302210Y-10419328D01*
X-22282988Y-10451398D01*
X-22267002Y-10485198D01*
X-22254406Y-10520402D01*
X-22245321Y-10556671D01*
X-22239835Y-10593655D01*
X-22238000Y-10631000D01*
X-22238000Y-13369000D01*
X-22239835Y-13406345D01*
X-22245321Y-13443329D01*
X-22254406Y-13479598D01*
X-22267002Y-13514802D01*
X-22282988Y-13548602D01*
X-22302210Y-13580672D01*
X-22324483Y-13610704D01*
X-22349592Y-13638408D01*
X-22377296Y-13663517D01*
X-22407328Y-13685790D01*
X-22439398Y-13705012D01*
X-22473198Y-13720998D01*
X-22508402Y-13733594D01*
X-22544671Y-13742679D01*
X-22581655Y-13748165D01*
X-22619000Y-13750000D01*
X-23381000Y-13750000D01*
X-23418345Y-13748165D01*
X-23455329Y-13742679D01*
X-23491598Y-13733594D01*
X-23526802Y-13720998D01*
X-23560602Y-13705012D01*
X-23592672Y-13685790D01*
X-23622704Y-13663517D01*
X-23650408Y-13638408D01*
X-23675517Y-13610704D01*
X-23697790Y-13580672D01*
X-23717012Y-13548602D01*
X-23732998Y-13514802D01*
X-23745594Y-13479598D01*
X-23754679Y-13443329D01*
X-23760165Y-13406345D01*
X-23762000Y-13369000D01*
X-23762000Y-10631000D01*
X-23760165Y-10593655D01*
X-23754679Y-10556671D01*
X-23745594Y-10520402D01*
X-23732998Y-10485198D01*
X-23717012Y-10451398D01*
X-23697790Y-10419328D01*
X-23675517Y-10389296D01*
X-23650408Y-10361592D01*
X-23622704Y-10336483D01*
X-23592672Y-10314210D01*
X-23560602Y-10294988D01*
X-23526802Y-10279002D01*
X-23491598Y-10266406D01*
X-23455329Y-10257321D01*
X-23418345Y-10251835D01*
X-23381000Y-10250000D01*
X-22619000Y-10250000D01*
X-22581655Y-10251835D01*
X-22581655Y-10251835D01*
G37*
D11*
G04 #@! TD*
G04 #@! TO.P,J1,1*
G04 #@! TO.N,PGND*
X-23000000Y-12000000D03*
D12*
G04 #@! TO.P,D4,*
G04 #@! TO.N,*
X-10547000Y-24216000D03*
X-2547000Y-24216000D03*
X-2547000Y-16216000D03*
X-10547000Y-16216000D03*
D13*
G04 #@! TO.P,D4,3*
G04 #@! TO.N,N/C*
X-6547000Y-20216000D03*
D14*
G04 #@! TO.P,D4,2*
G04 #@! TO.N,Net-(D3-Pad1)*
X-7947000Y-20216000D03*
G04 #@! TO.P,D4,1*
G04 #@! TO.N,Net-(D4-Pad1)*
X-5147000Y-20216000D03*
G04 #@! TD*
D12*
G04 #@! TO.P,D9,*
G04 #@! TO.N,*
X2515000Y16227000D03*
X10515000Y16227000D03*
X10515000Y24227000D03*
X2515000Y24227000D03*
D13*
G04 #@! TO.P,D9,3*
G04 #@! TO.N,N/C*
X6515000Y20227000D03*
D14*
G04 #@! TO.P,D9,2*
G04 #@! TO.N,Net-(D8-Pad1)*
X5115000Y20227000D03*
G04 #@! TO.P,D9,1*
G04 #@! TO.N,Net-(D10-Pad2)*
X7915000Y20227000D03*
G04 #@! TD*
D12*
G04 #@! TO.P,D8,*
G04 #@! TO.N,*
X-10612000Y16195000D03*
X-2612000Y16195000D03*
X-2612000Y24195000D03*
X-10612000Y24195000D03*
D13*
G04 #@! TO.P,D8,3*
G04 #@! TO.N,N/C*
X-6612000Y20195000D03*
D14*
G04 #@! TO.P,D8,2*
G04 #@! TO.N,Net-(D7-Pad1)*
X-8012000Y20195000D03*
G04 #@! TO.P,D8,1*
G04 #@! TO.N,Net-(D8-Pad1)*
X-5212000Y20195000D03*
G04 #@! TD*
D12*
G04 #@! TO.P,D3,*
G04 #@! TO.N,*
X2579000Y-24206000D03*
X10579000Y-24206000D03*
X10579000Y-16206000D03*
X2579000Y-16206000D03*
D13*
G04 #@! TO.P,D3,3*
G04 #@! TO.N,N/C*
X6579000Y-20206000D03*
D14*
G04 #@! TO.P,D3,2*
G04 #@! TO.N,Net-(D2-Pad1)*
X5179000Y-20206000D03*
G04 #@! TO.P,D3,1*
G04 #@! TO.N,Net-(D3-Pad1)*
X7979000Y-20206000D03*
G04 #@! TD*
D12*
G04 #@! TO.P,D2,*
G04 #@! TO.N,*
X13196000Y-16485000D03*
X21196000Y-16485000D03*
X21196000Y-8485000D03*
X13196000Y-8485000D03*
D13*
G04 #@! TO.P,D2,3*
G04 #@! TO.N,N/C*
X17196000Y-12485000D03*
D14*
G04 #@! TO.P,D2,2*
G04 #@! TO.N,Net-(D1-Pad1)*
X15796000Y-12485000D03*
G04 #@! TO.P,D2,1*
G04 #@! TO.N,Net-(D2-Pad1)*
X18596000Y-12485000D03*
G04 #@! TD*
D12*
G04 #@! TO.P,D1,*
G04 #@! TO.N,*
X17250000Y-4000000D03*
X25250000Y-4000000D03*
X25250000Y4000000D03*
X17250000Y4000000D03*
D13*
G04 #@! TO.P,D1,3*
G04 #@! TO.N,N/C*
X21250000Y0D03*
D14*
G04 #@! TO.P,D1,2*
G04 #@! TO.N,VLED1*
X19850000Y0D03*
G04 #@! TO.P,D1,1*
G04 #@! TO.N,Net-(D1-Pad1)*
X22650000Y0D03*
G04 #@! TD*
D12*
G04 #@! TO.P,D5,*
G04 #@! TO.N,*
X-21176000Y-16512000D03*
X-13176000Y-16512000D03*
X-13176000Y-8512000D03*
X-21176000Y-8512000D03*
D13*
G04 #@! TO.P,D5,3*
G04 #@! TO.N,N/C*
X-17176000Y-12512000D03*
D14*
G04 #@! TO.P,D5,2*
G04 #@! TO.N,Net-(D4-Pad1)*
X-18576000Y-12512000D03*
G04 #@! TO.P,D5,1*
G04 #@! TO.N,PGND*
X-15776000Y-12512000D03*
G04 #@! TD*
D12*
G04 #@! TO.P,D6,*
G04 #@! TO.N,*
X-25250000Y-4000000D03*
X-17250000Y-4000000D03*
X-17250000Y4000000D03*
X-25250000Y4000000D03*
D13*
G04 #@! TO.P,D6,3*
G04 #@! TO.N,N/C*
X-21250000Y0D03*
D14*
G04 #@! TO.P,D6,2*
G04 #@! TO.N,VLED2*
X-22650000Y0D03*
G04 #@! TO.P,D6,1*
G04 #@! TO.N,Net-(D6-Pad1)*
X-19850000Y0D03*
G04 #@! TD*
D12*
G04 #@! TO.P,D7,*
G04 #@! TO.N,*
X-21216000Y8458000D03*
X-13216000Y8458000D03*
X-13216000Y16458000D03*
X-21216000Y16458000D03*
D13*
G04 #@! TO.P,D7,3*
G04 #@! TO.N,N/C*
X-17216000Y12458000D03*
D14*
G04 #@! TO.P,D7,2*
G04 #@! TO.N,Net-(D6-Pad1)*
X-18616000Y12458000D03*
G04 #@! TO.P,D7,1*
G04 #@! TO.N,Net-(D7-Pad1)*
X-15816000Y12458000D03*
G04 #@! TD*
D12*
G04 #@! TO.P,D10,*
G04 #@! TO.N,*
X13156000Y8540000D03*
X21156000Y8540000D03*
X21156000Y16540000D03*
X13156000Y16540000D03*
D13*
G04 #@! TO.P,D10,3*
G04 #@! TO.N,N/C*
X17156000Y12540000D03*
D14*
G04 #@! TO.P,D10,2*
G04 #@! TO.N,Net-(D10-Pad2)*
X15756000Y12540000D03*
G04 #@! TO.P,D10,1*
G04 #@! TO.N,PGND*
X18556000Y12540000D03*
G04 #@! TD*
D10*
G04 #@! TO.N,PGND*
G04 #@! TO.C,J15*
G36*
X23418345Y13748165D02*
X23455329Y13742679D01*
X23491598Y13733594D01*
X23526802Y13720998D01*
X23560602Y13705012D01*
X23592672Y13685790D01*
X23622704Y13663517D01*
X23650408Y13638408D01*
X23675517Y13610704D01*
X23697790Y13580672D01*
X23717012Y13548602D01*
X23732998Y13514802D01*
X23745594Y13479598D01*
X23754679Y13443329D01*
X23760165Y13406345D01*
X23762000Y13369000D01*
X23762000Y10631000D01*
X23760165Y10593655D01*
X23754679Y10556671D01*
X23745594Y10520402D01*
X23732998Y10485198D01*
X23717012Y10451398D01*
X23697790Y10419328D01*
X23675517Y10389296D01*
X23650408Y10361592D01*
X23622704Y10336483D01*
X23592672Y10314210D01*
X23560602Y10294988D01*
X23526802Y10279002D01*
X23491598Y10266406D01*
X23455329Y10257321D01*
X23418345Y10251835D01*
X23381000Y10250000D01*
X22619000Y10250000D01*
X22581655Y10251835D01*
X22544671Y10257321D01*
X22508402Y10266406D01*
X22473198Y10279002D01*
X22439398Y10294988D01*
X22407328Y10314210D01*
X22377296Y10336483D01*
X22349592Y10361592D01*
X22324483Y10389296D01*
X22302210Y10419328D01*
X22282988Y10451398D01*
X22267002Y10485198D01*
X22254406Y10520402D01*
X22245321Y10556671D01*
X22239835Y10593655D01*
X22238000Y10631000D01*
X22238000Y13369000D01*
X22239835Y13406345D01*
X22245321Y13443329D01*
X22254406Y13479598D01*
X22267002Y13514802D01*
X22282988Y13548602D01*
X22302210Y13580672D01*
X22324483Y13610704D01*
X22349592Y13638408D01*
X22377296Y13663517D01*
X22407328Y13685790D01*
X22439398Y13705012D01*
X22473198Y13720998D01*
X22508402Y13733594D01*
X22544671Y13742679D01*
X22581655Y13748165D01*
X22619000Y13750000D01*
X23381000Y13750000D01*
X23418345Y13748165D01*
X23418345Y13748165D01*
G37*
D11*
G04 #@! TD*
G04 #@! TO.P,J15,1*
G04 #@! TO.N,PGND*
X23000000Y12000000D03*
D10*
G04 #@! TO.N,VLED2*
G04 #@! TO.C,J13*
G36*
X-22581655Y13748165D02*
X-22544671Y13742679D01*
X-22508402Y13733594D01*
X-22473198Y13720998D01*
X-22439398Y13705012D01*
X-22407328Y13685790D01*
X-22377296Y13663517D01*
X-22349592Y13638408D01*
X-22324483Y13610704D01*
X-22302210Y13580672D01*
X-22282988Y13548602D01*
X-22267002Y13514802D01*
X-22254406Y13479598D01*
X-22245321Y13443329D01*
X-22239835Y13406345D01*
X-22238000Y13369000D01*
X-22238000Y10631000D01*
X-22239835Y10593655D01*
X-22245321Y10556671D01*
X-22254406Y10520402D01*
X-22267002Y10485198D01*
X-22282988Y10451398D01*
X-22302210Y10419328D01*
X-22324483Y10389296D01*
X-22349592Y10361592D01*
X-22377296Y10336483D01*
X-22407328Y10314210D01*
X-22439398Y10294988D01*
X-22473198Y10279002D01*
X-22508402Y10266406D01*
X-22544671Y10257321D01*
X-22581655Y10251835D01*
X-22619000Y10250000D01*
X-23381000Y10250000D01*
X-23418345Y10251835D01*
X-23455329Y10257321D01*
X-23491598Y10266406D01*
X-23526802Y10279002D01*
X-23560602Y10294988D01*
X-23592672Y10314210D01*
X-23622704Y10336483D01*
X-23650408Y10361592D01*
X-23675517Y10389296D01*
X-23697790Y10419328D01*
X-23717012Y10451398D01*
X-23732998Y10485198D01*
X-23745594Y10520402D01*
X-23754679Y10556671D01*
X-23760165Y10593655D01*
X-23762000Y10631000D01*
X-23762000Y13369000D01*
X-23760165Y13406345D01*
X-23754679Y13443329D01*
X-23745594Y13479598D01*
X-23732998Y13514802D01*
X-23717012Y13548602D01*
X-23697790Y13580672D01*
X-23675517Y13610704D01*
X-23650408Y13638408D01*
X-23622704Y13663517D01*
X-23592672Y13685790D01*
X-23560602Y13705012D01*
X-23526802Y13720998D01*
X-23491598Y13733594D01*
X-23455329Y13742679D01*
X-23418345Y13748165D01*
X-23381000Y13750000D01*
X-22619000Y13750000D01*
X-22581655Y13748165D01*
X-22581655Y13748165D01*
G37*
D11*
G04 #@! TD*
G04 #@! TO.P,J13,1*
G04 #@! TO.N,VLED2*
X-23000000Y12000000D03*
D15*
G04 #@! TO.P,J11,1*
G04 #@! TO.N,Net-(J11-Pad1)*
X-24835000Y-8109000D03*
G04 #@! TD*
G04 #@! TO.P,J10,1*
G04 #@! TO.N,Net-(J10-Pad1)*
X0Y-26125000D03*
G04 #@! TD*
G04 #@! TO.P,J9,1*
G04 #@! TO.N,Net-(J9-Pad1)*
X0Y26125000D03*
G04 #@! TD*
G04 #@! TO.P,J8,1*
G04 #@! TO.N,Net-(J8-Pad1)*
X-15400000Y21104000D03*
G04 #@! TD*
G04 #@! TO.P,J7,1*
G04 #@! TO.N,Net-(J7-Pad1)*
X15433000Y-21079000D03*
G04 #@! TD*
G04 #@! TO.P,J6,1*
G04 #@! TO.N,Net-(J6-Pad1)*
X-24860500Y8029500D03*
G04 #@! TD*
G04 #@! TO.P,J5,1*
G04 #@! TO.N,Net-(J5-Pad1)*
X15299000Y21177000D03*
G04 #@! TD*
G04 #@! TO.P,J4,1*
G04 #@! TO.N,Net-(J4-Pad1)*
X-15332000Y-21153000D03*
G04 #@! TD*
G04 #@! TO.P,J3,1*
G04 #@! TO.N,Net-(J3-Pad1)*
X24873000Y-7990000D03*
G04 #@! TD*
G04 #@! TO.P,J12,1*
G04 #@! TO.N,Net-(J12-Pad1)*
X24821000Y8148000D03*
G04 #@! TD*
D16*
G04 #@! TO.N,PGND*
X-22167290Y-11167290D02*
X-23000000Y-12000000D01*
X-21161999Y-10161999D02*
X-22167290Y-11167290D01*
X-15965999Y-10161999D02*
X-21161999Y-10161999D01*
X-15776000Y-10351998D02*
X-15965999Y-10161999D01*
X-15776000Y-12512000D02*
X-15776000Y-10351998D01*
X22460000Y12540000D02*
X23000000Y12000000D01*
X18556000Y12540000D02*
X22460000Y12540000D01*
G04 #@! TO.N,Net-(D7-Pad1)*
X-9312000Y20195000D02*
X-8012000Y20195000D01*
X-11551002Y20195000D02*
X-9312000Y20195000D01*
X-15816000Y15930002D02*
X-11551002Y20195000D01*
X-15816000Y12458000D02*
X-15816000Y15930002D01*
G04 #@! TO.N,Net-(D8-Pad1)*
X5083000Y20195000D02*
X5115000Y20227000D01*
X-5212000Y20195000D02*
X5083000Y20195000D01*
G04 #@! TO.N,VLED2*
X-19815999Y9677999D02*
X-19815999Y6600001D01*
X-22138000Y12000000D02*
X-19815999Y9677999D01*
X-23000000Y12000000D02*
X-22138000Y12000000D01*
X-22650000Y3766000D02*
X-22650000Y0D01*
X-19815999Y6600001D02*
X-22650000Y3766000D01*
G04 #@! TO.N,Net-(D6-Pad1)*
X-18615988Y6102941D02*
X-18615988Y9807988D01*
X-18616000Y9808000D02*
X-18616000Y12458000D01*
X-18615988Y9807988D02*
X-18616000Y9808000D01*
X-19850000Y4868930D02*
X-18615988Y6102941D01*
X-19850000Y0D02*
X-19850000Y4868930D01*
G04 #@! TO.N,Net-(D10-Pad2)*
X15756000Y15190000D02*
X15756000Y12540000D01*
X15756000Y16012002D02*
X15756000Y15190000D01*
X11541002Y20227000D02*
X15756000Y16012002D01*
X7915000Y20227000D02*
X11541002Y20227000D01*
G04 #@! TO.N,Net-(D2-Pad1)*
X12600001Y-10134999D02*
X5080000Y-17655000D01*
X18406001Y-10134999D02*
X12600001Y-10134999D01*
X18596000Y-12485000D02*
X18596000Y-10324998D01*
X18596000Y-10324998D02*
X18406001Y-10134999D01*
X5080000Y-17655000D02*
X5080000Y-20574000D01*
X5179000Y-20475000D02*
X5179000Y-20206000D01*
X5080000Y-20574000D02*
X5179000Y-20475000D01*
G04 #@! TO.N,Net-(D3-Pad1)*
X-7947000Y-22376002D02*
X-7947000Y-20216000D01*
X-7757001Y-22566001D02*
X-7947000Y-22376002D01*
X7779001Y-22566001D02*
X-7757001Y-22566001D01*
X7979000Y-22366002D02*
X7779001Y-22566001D01*
X7979000Y-20206000D02*
X7979000Y-22366002D01*
G04 #@! TO.N,Net-(D1-Pad1)*
X22650000Y0D02*
X22650000Y-3472002D01*
X15796000Y-14645002D02*
X15796000Y-12485000D01*
X15985999Y-14835001D02*
X15796000Y-14645002D01*
X24462010Y-13816772D02*
X23443781Y-14835001D01*
X24462010Y-13383990D02*
X24462010Y-13816772D01*
X27203001Y-10642999D02*
X24462010Y-13383990D01*
X27203001Y-6871599D02*
X27203001Y-10642999D01*
X25991401Y-5659999D02*
X27203001Y-6871599D01*
X23443781Y-14835001D02*
X15985999Y-14835001D01*
X24837997Y-5659999D02*
X25991401Y-5659999D01*
X22650000Y-3472002D02*
X24837997Y-5659999D01*
G04 #@! TO.N,VLED1*
X22167290Y-11167290D02*
X23000000Y-12000000D01*
X21806288Y-11167290D02*
X22167290Y-11167290D01*
X19795999Y-9157001D02*
X21806288Y-11167290D01*
X19795999Y-2704001D02*
X19795999Y-9157001D01*
X19850000Y-2650000D02*
X19795999Y-2704001D01*
X19850000Y0D02*
X19850000Y-2650000D01*
G04 #@! TO.N,Net-(D4-Pad1)*
X-18576000Y-15162000D02*
X-18576000Y-12512000D01*
X-15825999Y-17912001D02*
X-18576000Y-15162000D01*
X-12503999Y-17912001D02*
X-15825999Y-17912001D01*
X-12457997Y-17865999D02*
X-12503999Y-17912001D01*
X-5336999Y-17865999D02*
X-12457997Y-17865999D01*
X-5147000Y-18055998D02*
X-5336999Y-17865999D01*
X-5147000Y-20216000D02*
X-5147000Y-18055998D01*
G04 #@! TD*
D17*
G04 #@! TO.N,PGND*
G36*
X1992168Y29222173D02*
X4076380Y29004952D01*
X6139728Y28639271D01*
X8171649Y28127002D01*
X10161745Y27470767D01*
X12099829Y26673924D01*
X13975980Y25740553D01*
X15780596Y24675431D01*
X17504441Y23484009D01*
X19138689Y22172385D01*
X20674978Y20747274D01*
X22105444Y19215969D01*
X23422764Y17586308D01*
X24620196Y15866633D01*
X25691611Y14065746D01*
X26631526Y12192864D01*
X27435128Y10257574D01*
X28098306Y8269781D01*
X28617665Y6239660D01*
X28990546Y4177601D01*
X29215041Y2094160D01*
X29290000Y0D01*
X29241432Y-1686050D01*
X29046048Y-3772423D01*
X28701995Y-5839487D01*
X28338001Y-7349824D01*
X28338001Y-6983381D01*
X28360236Y-6871598D01*
X28272147Y-6428744D01*
X28021290Y-6053310D01*
X27926522Y-5989988D01*
X26873014Y-4936481D01*
X26809690Y-4841710D01*
X26446786Y-4599225D01*
X26585000Y-4265548D01*
X26585000Y-3734452D01*
X26381758Y-3243783D01*
X26006217Y-2868242D01*
X25515548Y-2665000D01*
X24984452Y-2665000D01*
X24493783Y-2868242D01*
X24118242Y-3243783D01*
X24091492Y-3308363D01*
X23785000Y-3001871D01*
X23785000Y111783D01*
X23719146Y442855D01*
X23597440Y625001D01*
X23597440Y1650000D01*
X23548157Y1897765D01*
X23407809Y2107809D01*
X23197765Y2248157D01*
X22950000Y2297440D01*
X22350000Y2297440D01*
X22125000Y2252685D01*
X21900000Y2297440D01*
X20600000Y2297440D01*
X20375000Y2252685D01*
X20150000Y2297440D01*
X19550000Y2297440D01*
X19302235Y2248157D01*
X19092191Y2107809D01*
X18951843Y1897765D01*
X18902560Y1650000D01*
X18902560Y625000D01*
X18780854Y442854D01*
X18715000Y111782D01*
X18715001Y-2320732D01*
X18638764Y-2704001D01*
X18660999Y-2815784D01*
X18661000Y-9028486D01*
X18517784Y-8999999D01*
X18406001Y-8977764D01*
X18294218Y-8999999D01*
X14427674Y-8999999D01*
X14531000Y-8750548D01*
X14531000Y-8219452D01*
X14327758Y-7728783D01*
X13952217Y-7353242D01*
X13461548Y-7150000D01*
X12930452Y-7150000D01*
X12842166Y-7186569D01*
X13414370Y-6085028D01*
X13985037Y-4625109D01*
X14227858Y-3734452D01*
X15915000Y-3734452D01*
X15915000Y-4265548D01*
X16118242Y-4756217D01*
X16493783Y-5131758D01*
X16984452Y-5335000D01*
X17515548Y-5335000D01*
X18006217Y-5131758D01*
X18381758Y-4756217D01*
X18585000Y-4265548D01*
X18585000Y-3734452D01*
X18381758Y-3243783D01*
X18006217Y-2868242D01*
X17515548Y-2665000D01*
X16984452Y-2665000D01*
X16493783Y-2868242D01*
X16118242Y-3243783D01*
X15915000Y-3734452D01*
X14227858Y-3734452D01*
X14397336Y-3112814D01*
X14646598Y-1565270D01*
X14730000Y0D01*
X14729978Y25709D01*
X14643844Y1590831D01*
X14391881Y3137938D01*
X14082345Y4265548D01*
X15915000Y4265548D01*
X15915000Y3734452D01*
X16118242Y3243783D01*
X16493783Y2868242D01*
X16984452Y2665000D01*
X17515548Y2665000D01*
X18006217Y2868242D01*
X18381758Y3243783D01*
X18585000Y3734452D01*
X18585000Y4265548D01*
X23915000Y4265548D01*
X23915000Y3734452D01*
X24118242Y3243783D01*
X24493783Y2868242D01*
X24984452Y2665000D01*
X25515548Y2665000D01*
X26006217Y2868242D01*
X26381758Y3243783D01*
X26585000Y3734452D01*
X26585000Y4265548D01*
X26381758Y4756217D01*
X26006217Y5131758D01*
X25515548Y5335000D01*
X24984452Y5335000D01*
X24493783Y5131758D01*
X24118242Y4756217D01*
X23915000Y4265548D01*
X18585000Y4265548D01*
X18381758Y4756217D01*
X18006217Y5131758D01*
X17515548Y5335000D01*
X16984452Y5335000D01*
X16493783Y5131758D01*
X16118242Y4756217D01*
X15915000Y4265548D01*
X14082345Y4265548D01*
X13976944Y4649510D01*
X13403730Y6108431D01*
X12815473Y7236057D01*
X12890452Y7205000D01*
X13421548Y7205000D01*
X13912217Y7408242D01*
X14287758Y7783783D01*
X14491000Y8274452D01*
X14491000Y8805548D01*
X19821000Y8805548D01*
X19821000Y8274452D01*
X20024242Y7783783D01*
X20399783Y7408242D01*
X20890452Y7205000D01*
X21421548Y7205000D01*
X21912217Y7408242D01*
X22287758Y7783783D01*
X22491000Y8274452D01*
X22491000Y8598537D01*
X22556000Y8598537D01*
X22556000Y7697463D01*
X22900826Y6864981D01*
X23537981Y6227826D01*
X24370463Y5883000D01*
X25271537Y5883000D01*
X26104019Y6227826D01*
X26741174Y6864981D01*
X27086000Y7697463D01*
X27086000Y8598537D01*
X26741174Y9431019D01*
X26104019Y10068174D01*
X25271537Y10413000D01*
X24397000Y10413000D01*
X24397000Y11714250D01*
X24238250Y11873000D01*
X23127000Y11873000D01*
X23127000Y9773750D01*
X23185279Y9715472D01*
X22900826Y9431019D01*
X22556000Y8598537D01*
X22491000Y8598537D01*
X22491000Y8805548D01*
X22287758Y9296217D01*
X21912217Y9671758D01*
X21421548Y9875000D01*
X20890452Y9875000D01*
X20399783Y9671758D01*
X20024242Y9296217D01*
X19821000Y8805548D01*
X14491000Y8805548D01*
X14287758Y9296217D01*
X13912217Y9671758D01*
X13421548Y9875000D01*
X12890452Y9875000D01*
X12399783Y9671758D01*
X12024242Y9296217D01*
X11821000Y8805548D01*
X11821000Y8786726D01*
X11810155Y8803018D01*
X10807841Y10008170D01*
X9683137Y11099989D01*
X8448781Y12066110D01*
X7118750Y12895592D01*
X5708105Y13579044D01*
X4232820Y14108725D01*
X2709603Y14478638D01*
X1155702Y14684592D01*
X-411286Y14724257D01*
X-1973617Y14597183D01*
X-3513598Y14304808D01*
X-5013791Y13850444D01*
X-6457207Y13239236D01*
X-7827501Y12478106D01*
X-9109156Y11575672D01*
X-10287657Y10542154D01*
X-11349660Y9389255D01*
X-11881000Y8672499D01*
X-11881000Y8723548D01*
X-12084242Y9214217D01*
X-12459783Y9589758D01*
X-12950452Y9793000D01*
X-13481548Y9793000D01*
X-13972217Y9589758D01*
X-14347758Y9214217D01*
X-14551000Y8723548D01*
X-14551000Y8192452D01*
X-14347758Y7701783D01*
X-13972217Y7326242D01*
X-13481548Y7123000D01*
X-12950452Y7123000D01*
X-12850901Y7164235D01*
X-13077521Y6778743D01*
X-13723812Y5350691D01*
X-14214693Y3862047D01*
X-14544605Y2329668D01*
X-14709813Y770909D01*
X-14708445Y-796581D01*
X-14540517Y-2355050D01*
X-14207931Y-3886850D01*
X-13714452Y-5374635D01*
X-13065670Y-6801557D01*
X-12822597Y-7213391D01*
X-12910452Y-7177000D01*
X-13441548Y-7177000D01*
X-13932217Y-7380242D01*
X-14307758Y-7755783D01*
X-14511000Y-8246452D01*
X-14511000Y-8777548D01*
X-14307758Y-9268217D01*
X-13932217Y-9643758D01*
X-13441548Y-9847000D01*
X-12910452Y-9847000D01*
X-12419783Y-9643758D01*
X-12044242Y-9268217D01*
X-11841000Y-8777548D01*
X-11841000Y-8726616D01*
X-11333255Y-9409050D01*
X-10269242Y-10560093D01*
X-9088938Y-11591553D01*
X-7805711Y-12491748D01*
X-6434090Y-13250486D01*
X-4989610Y-13859174D01*
X-3488626Y-14310919D01*
X-1948137Y-14600605D01*
X-385586Y-14724952D01*
X1181330Y-14682553D01*
X2734869Y-14473886D01*
X4257438Y-14101316D01*
X5731796Y-13569061D01*
X7141246Y-12883148D01*
X8469827Y-12051345D01*
X9702496Y-11083072D01*
X10825292Y-9989292D01*
X11825501Y-8782392D01*
X11861000Y-8728860D01*
X11861000Y-8750548D01*
X12027489Y-9152487D01*
X11781712Y-9316710D01*
X11718390Y-9411478D01*
X4356482Y-16773387D01*
X4261711Y-16836711D01*
X4010855Y-17212145D01*
X4010854Y-17212146D01*
X3922765Y-17655000D01*
X3945000Y-17766783D01*
X3945001Y-20462212D01*
X3922765Y-20574000D01*
X4010854Y-21016854D01*
X4010855Y-21016855D01*
X4231560Y-21347163D01*
X4231560Y-21431001D01*
X-4199560Y-21431001D01*
X-4199560Y-20841001D01*
X-4077854Y-20658855D01*
X-4012000Y-20327783D01*
X-4012000Y-18167780D01*
X-3989765Y-18055997D01*
X-4077854Y-17613144D01*
X-4077854Y-17613143D01*
X-4328711Y-17237709D01*
X-4423482Y-17174385D01*
X-4455386Y-17142481D01*
X-4518710Y-17047710D01*
X-4894144Y-16796853D01*
X-5225216Y-16730999D01*
X-5336999Y-16708764D01*
X-5448782Y-16730999D01*
X-9315326Y-16730999D01*
X-9212000Y-16481548D01*
X-9212000Y-15950452D01*
X-3882000Y-15950452D01*
X-3882000Y-16481548D01*
X-3678758Y-16972217D01*
X-3303217Y-17347758D01*
X-2812548Y-17551000D01*
X-2281452Y-17551000D01*
X-1790783Y-17347758D01*
X-1415242Y-16972217D01*
X-1212000Y-16481548D01*
X-1212000Y-15950452D01*
X-1216142Y-15940452D01*
X1244000Y-15940452D01*
X1244000Y-16471548D01*
X1447242Y-16962217D01*
X1822783Y-17337758D01*
X2313452Y-17541000D01*
X2844548Y-17541000D01*
X3335217Y-17337758D01*
X3710758Y-16962217D01*
X3914000Y-16471548D01*
X3914000Y-15940452D01*
X3710758Y-15449783D01*
X3335217Y-15074242D01*
X2844548Y-14871000D01*
X2313452Y-14871000D01*
X1822783Y-15074242D01*
X1447242Y-15449783D01*
X1244000Y-15940452D01*
X-1216142Y-15940452D01*
X-1415242Y-15459783D01*
X-1790783Y-15084242D01*
X-2281452Y-14881000D01*
X-2812548Y-14881000D01*
X-3303217Y-15084242D01*
X-3678758Y-15459783D01*
X-3882000Y-15950452D01*
X-9212000Y-15950452D01*
X-9415242Y-15459783D01*
X-9790783Y-15084242D01*
X-10281452Y-14881000D01*
X-10812548Y-14881000D01*
X-11303217Y-15084242D01*
X-11678758Y-15459783D01*
X-11882000Y-15950452D01*
X-11882000Y-16147469D01*
X-12044242Y-15755783D01*
X-12419783Y-15380242D01*
X-12910452Y-15177000D01*
X-13441548Y-15177000D01*
X-13932217Y-15380242D01*
X-14307758Y-15755783D01*
X-14511000Y-16246452D01*
X-14511000Y-16777001D01*
X-15355867Y-16777001D01*
X-17323429Y-14809440D01*
X-16526000Y-14809440D01*
X-16287032Y-14761907D01*
X-16202309Y-14797000D01*
X-16061750Y-14797000D01*
X-15903000Y-14638250D01*
X-15903000Y-14284869D01*
X-15878560Y-14162000D01*
X-15878560Y-12639000D01*
X-15649000Y-12639000D01*
X-15649000Y-14638250D01*
X-15490250Y-14797000D01*
X-15349691Y-14797000D01*
X-15116302Y-14700327D01*
X-14937673Y-14521699D01*
X-14841000Y-14288310D01*
X-14841000Y-12797750D01*
X-14999750Y-12639000D01*
X-15649000Y-12639000D01*
X-15878560Y-12639000D01*
X-15878560Y-10862000D01*
X-15903000Y-10739131D01*
X-15903000Y-10385750D01*
X-15649000Y-10385750D01*
X-15649000Y-12385000D01*
X-14999750Y-12385000D01*
X-14841000Y-12226250D01*
X-14841000Y-10735690D01*
X-14937673Y-10502301D01*
X-15116302Y-10323673D01*
X-15349691Y-10227000D01*
X-15490250Y-10227000D01*
X-15649000Y-10385750D01*
X-15903000Y-10385750D01*
X-16061750Y-10227000D01*
X-16202309Y-10227000D01*
X-16287032Y-10262093D01*
X-16526000Y-10214560D01*
X-17826000Y-10214560D01*
X-18051000Y-10259315D01*
X-18276000Y-10214560D01*
X-18876000Y-10214560D01*
X-19123765Y-10263843D01*
X-19333809Y-10404191D01*
X-19474157Y-10614235D01*
X-19523440Y-10862000D01*
X-19523440Y-11887001D01*
X-19645145Y-12069145D01*
X-19710999Y-12400217D01*
X-19711000Y-15050217D01*
X-19733235Y-15162000D01*
X-19661759Y-15521335D01*
X-19645146Y-15604854D01*
X-19394289Y-15980289D01*
X-19299518Y-16043613D01*
X-16707610Y-18635522D01*
X-16644288Y-18730290D01*
X-16268854Y-18981147D01*
X-16092230Y-19016279D01*
X-16615019Y-19232826D01*
X-17252174Y-19869981D01*
X-17597000Y-20702463D01*
X-17597000Y-21603537D01*
X-17252174Y-22436019D01*
X-16615019Y-23073174D01*
X-15782537Y-23418000D01*
X-14881463Y-23418000D01*
X-14048981Y-23073174D01*
X-13411826Y-22436019D01*
X-13067000Y-21603537D01*
X-13067000Y-20702463D01*
X-13411826Y-19869981D01*
X-14048981Y-19232826D01*
X-14497601Y-19047001D01*
X-12615782Y-19047001D01*
X-12503999Y-19069236D01*
X-12392216Y-19047001D01*
X-12160947Y-19000999D01*
X-8894440Y-19000999D01*
X-8894440Y-19591001D01*
X-9016145Y-19773145D01*
X-9081999Y-20104217D01*
X-9082000Y-22264218D01*
X-9104235Y-22376002D01*
X-9082000Y-22487784D01*
X-9016146Y-22818856D01*
X-8765289Y-23194291D01*
X-8670518Y-23257615D01*
X-8638614Y-23289519D01*
X-8575290Y-23384290D01*
X-8199856Y-23635147D01*
X-8017521Y-23671416D01*
X-7757002Y-23723236D01*
X-7645219Y-23701001D01*
X-3778674Y-23701001D01*
X-3882000Y-23950452D01*
X-3882000Y-24481548D01*
X-3678758Y-24972217D01*
X-3303217Y-25347758D01*
X-2812548Y-25551000D01*
X-2281452Y-25551000D01*
X-2199861Y-25517204D01*
X-2265000Y-25674463D01*
X-2265000Y-26575537D01*
X-1920174Y-27408019D01*
X-1283019Y-28045174D01*
X-450537Y-28390000D01*
X450537Y-28390000D01*
X1283019Y-28045174D01*
X1920174Y-27408019D01*
X2265000Y-26575537D01*
X2265000Y-25674463D01*
X2188234Y-25489133D01*
X2313452Y-25541000D01*
X2844548Y-25541000D01*
X3335217Y-25337758D01*
X3710758Y-24962217D01*
X3914000Y-24471548D01*
X3914000Y-23940452D01*
X9244000Y-23940452D01*
X9244000Y-24471548D01*
X9447242Y-24962217D01*
X9822783Y-25337758D01*
X10313452Y-25541000D01*
X10844548Y-25541000D01*
X11335217Y-25337758D01*
X11710758Y-24962217D01*
X11914000Y-24471548D01*
X11914000Y-23940452D01*
X11710758Y-23449783D01*
X11335217Y-23074242D01*
X10844548Y-22871000D01*
X10313452Y-22871000D01*
X9822783Y-23074242D01*
X9447242Y-23449783D01*
X9244000Y-23940452D01*
X3914000Y-23940452D01*
X3814816Y-23701001D01*
X7667218Y-23701001D01*
X7779001Y-23723236D01*
X7890784Y-23701001D01*
X8221856Y-23635147D01*
X8597290Y-23384290D01*
X8660614Y-23289519D01*
X8702518Y-23247615D01*
X8797289Y-23184291D01*
X9048146Y-22808857D01*
X9114000Y-22477785D01*
X9136235Y-22366003D01*
X9114000Y-22254221D01*
X9114000Y-20628463D01*
X13168000Y-20628463D01*
X13168000Y-21529537D01*
X13512826Y-22362019D01*
X14149981Y-22999174D01*
X14982463Y-23344000D01*
X15883537Y-23344000D01*
X16716019Y-22999174D01*
X17353174Y-22362019D01*
X17698000Y-21529537D01*
X17698000Y-20628463D01*
X17353174Y-19795981D01*
X16716019Y-19158826D01*
X15883537Y-18814000D01*
X14982463Y-18814000D01*
X14149981Y-19158826D01*
X13512826Y-19795981D01*
X13168000Y-20628463D01*
X9114000Y-20628463D01*
X9114000Y-20094217D01*
X9048146Y-19763145D01*
X8926440Y-19580999D01*
X8926440Y-18556000D01*
X8877157Y-18308235D01*
X8736809Y-18098191D01*
X8526765Y-17957843D01*
X8279000Y-17908560D01*
X7679000Y-17908560D01*
X7454000Y-17953315D01*
X7229000Y-17908560D01*
X6431571Y-17908560D01*
X8399679Y-15940452D01*
X9244000Y-15940452D01*
X9244000Y-16471548D01*
X9447242Y-16962217D01*
X9822783Y-17337758D01*
X10313452Y-17541000D01*
X10844548Y-17541000D01*
X11335217Y-17337758D01*
X11710758Y-16962217D01*
X11861000Y-16599501D01*
X11861000Y-16750548D01*
X12064242Y-17241217D01*
X12439783Y-17616758D01*
X12930452Y-17820000D01*
X13461548Y-17820000D01*
X13952217Y-17616758D01*
X14327758Y-17241217D01*
X14531000Y-16750548D01*
X14531000Y-16219452D01*
X14327758Y-15728783D01*
X13952217Y-15353242D01*
X13461548Y-15150000D01*
X12930452Y-15150000D01*
X12439783Y-15353242D01*
X12064242Y-15728783D01*
X11914000Y-16091499D01*
X11914000Y-15940452D01*
X11710758Y-15449783D01*
X11335217Y-15074242D01*
X10844548Y-14871000D01*
X10313452Y-14871000D01*
X9822783Y-15074242D01*
X9447242Y-15449783D01*
X9244000Y-15940452D01*
X8399679Y-15940452D01*
X13070133Y-11269999D01*
X14848560Y-11269999D01*
X14848560Y-11860001D01*
X14726855Y-12042145D01*
X14661001Y-12373217D01*
X14661000Y-14533218D01*
X14638765Y-14645002D01*
X14661000Y-14756784D01*
X14726854Y-15087856D01*
X14977711Y-15463291D01*
X15072482Y-15526615D01*
X15104386Y-15558519D01*
X15167710Y-15653290D01*
X15543144Y-15904147D01*
X15725479Y-15940416D01*
X15985998Y-15992236D01*
X16097781Y-15970001D01*
X19964326Y-15970001D01*
X19861000Y-16219452D01*
X19861000Y-16750548D01*
X20064242Y-17241217D01*
X20439783Y-17616758D01*
X20930452Y-17820000D01*
X21461548Y-17820000D01*
X21952217Y-17616758D01*
X22327758Y-17241217D01*
X22531000Y-16750548D01*
X22531000Y-16219452D01*
X22427674Y-15970001D01*
X23331998Y-15970001D01*
X23443781Y-15992236D01*
X23555564Y-15970001D01*
X23886636Y-15904147D01*
X24262070Y-15653290D01*
X24325394Y-15558520D01*
X25185531Y-14698383D01*
X25280299Y-14635061D01*
X25531156Y-14259626D01*
X25597010Y-13928554D01*
X25615492Y-13835639D01*
X26017100Y-13434031D01*
X25885495Y-13705664D01*
X24839329Y-15521335D01*
X23666024Y-17257561D01*
X22371586Y-18905456D01*
X20962640Y-20456584D01*
X19446399Y-21903006D01*
X17830622Y-23237319D01*
X16123581Y-24452694D01*
X14334012Y-25542909D01*
X12471075Y-26502384D01*
X10544307Y-27326209D01*
X8563567Y-28010166D01*
X6538996Y-28550755D01*
X4480955Y-28945209D01*
X2399979Y-29191509D01*
X306719Y-29288394D01*
X-1788112Y-29235368D01*
X-3873790Y-29032703D01*
X-5939640Y-28681436D01*
X-7975088Y-28183365D01*
X-9969717Y-27541039D01*
X-11913316Y-26757746D01*
X-13795938Y-25837496D01*
X-15607946Y-24784998D01*
X-16833640Y-23950452D01*
X-11882000Y-23950452D01*
X-11882000Y-24481548D01*
X-11678758Y-24972217D01*
X-11303217Y-25347758D01*
X-10812548Y-25551000D01*
X-10281452Y-25551000D01*
X-9790783Y-25347758D01*
X-9415242Y-24972217D01*
X-9212000Y-24481548D01*
X-9212000Y-23950452D01*
X-9415242Y-23459783D01*
X-9790783Y-23084242D01*
X-10281452Y-22881000D01*
X-10812548Y-22881000D01*
X-11303217Y-23084242D01*
X-11678758Y-23459783D01*
X-11882000Y-23950452D01*
X-16833640Y-23950452D01*
X-17340066Y-23605639D01*
X-18983432Y-22305457D01*
X-20529632Y-20891106D01*
X-21970753Y-19369825D01*
X-23299418Y-17749400D01*
X-24361597Y-16246452D01*
X-22511000Y-16246452D01*
X-22511000Y-16777548D01*
X-22307758Y-17268217D01*
X-21932217Y-17643758D01*
X-21441548Y-17847000D01*
X-20910452Y-17847000D01*
X-20419783Y-17643758D01*
X-20044242Y-17268217D01*
X-19841000Y-16777548D01*
X-19841000Y-16246452D01*
X-20044242Y-15755783D01*
X-20419783Y-15380242D01*
X-20910452Y-15177000D01*
X-21441548Y-15177000D01*
X-21932217Y-15380242D01*
X-22307758Y-15755783D01*
X-22511000Y-16246452D01*
X-24361597Y-16246452D01*
X-24508827Y-16038127D01*
X-25592788Y-14244763D01*
X-26545755Y-12378489D01*
X-26585024Y-12285750D01*
X-24397000Y-12285750D01*
X-24397000Y-13876310D01*
X-24300327Y-14109699D01*
X-24121698Y-14288327D01*
X-23888309Y-14385000D01*
X-23285750Y-14385000D01*
X-23127000Y-14226250D01*
X-23127000Y-12127000D01*
X-22873000Y-12127000D01*
X-22873000Y-14226250D01*
X-22714250Y-14385000D01*
X-22111691Y-14385000D01*
X-21878302Y-14288327D01*
X-21699673Y-14109699D01*
X-21603000Y-13876310D01*
X-21603000Y-12285750D01*
X-21761750Y-12127000D01*
X-22873000Y-12127000D01*
X-23127000Y-12127000D01*
X-24238250Y-12127000D01*
X-24397000Y-12285750D01*
X-26585024Y-12285750D01*
X-27362849Y-10448856D01*
X-28039888Y-8465741D01*
X-28252426Y-7658463D01*
X-27100000Y-7658463D01*
X-27100000Y-8559537D01*
X-26755174Y-9392019D01*
X-26118019Y-10029174D01*
X-25285537Y-10374000D01*
X-24397000Y-10374000D01*
X-24397000Y-11714250D01*
X-24238250Y-11873000D01*
X-23127000Y-11873000D01*
X-23127000Y-9773750D01*
X-22873000Y-9773750D01*
X-22873000Y-11873000D01*
X-21761750Y-11873000D01*
X-21603000Y-11714250D01*
X-21603000Y-10123690D01*
X-21699673Y-9890301D01*
X-21878302Y-9711673D01*
X-22111691Y-9615000D01*
X-22714250Y-9615000D01*
X-22873000Y-9773750D01*
X-23127000Y-9773750D01*
X-23211779Y-9688972D01*
X-22914826Y-9392019D01*
X-22570000Y-8559537D01*
X-22570000Y-8246452D01*
X-22511000Y-8246452D01*
X-22511000Y-8777548D01*
X-22307758Y-9268217D01*
X-21932217Y-9643758D01*
X-21441548Y-9847000D01*
X-20910452Y-9847000D01*
X-20419783Y-9643758D01*
X-20044242Y-9268217D01*
X-19841000Y-8777548D01*
X-19841000Y-8246452D01*
X-20044242Y-7755783D01*
X-20419783Y-7380242D01*
X-20910452Y-7177000D01*
X-21441548Y-7177000D01*
X-21932217Y-7380242D01*
X-22307758Y-7755783D01*
X-22511000Y-8246452D01*
X-22570000Y-8246452D01*
X-22570000Y-7658463D01*
X-22914826Y-6825981D01*
X-23551981Y-6188826D01*
X-24384463Y-5844000D01*
X-25285537Y-5844000D01*
X-26118019Y-6188826D01*
X-26755174Y-6825981D01*
X-27100000Y-7658463D01*
X-28252426Y-7658463D01*
X-28573407Y-6439295D01*
X-28960674Y-4379890D01*
X-29034783Y-3734452D01*
X-26585000Y-3734452D01*
X-26585000Y-4265548D01*
X-26381758Y-4756217D01*
X-26006217Y-5131758D01*
X-25515548Y-5335000D01*
X-24984452Y-5335000D01*
X-24493783Y-5131758D01*
X-24118242Y-4756217D01*
X-23915000Y-4265548D01*
X-23915000Y-3734452D01*
X-18585000Y-3734452D01*
X-18585000Y-4265548D01*
X-18381758Y-4756217D01*
X-18006217Y-5131758D01*
X-17515548Y-5335000D01*
X-16984452Y-5335000D01*
X-16493783Y-5131758D01*
X-16118242Y-4756217D01*
X-15915000Y-4265548D01*
X-15915000Y-3734452D01*
X-16118242Y-3243783D01*
X-16493783Y-2868242D01*
X-16984452Y-2665000D01*
X-17515548Y-2665000D01*
X-18006217Y-2868242D01*
X-18381758Y-3243783D01*
X-18585000Y-3734452D01*
X-23915000Y-3734452D01*
X-24118242Y-3243783D01*
X-24493783Y-2868242D01*
X-24984452Y-2665000D01*
X-25515548Y-2665000D01*
X-26006217Y-2868242D01*
X-26381758Y-3243783D01*
X-26585000Y-3734452D01*
X-29034783Y-3734452D01*
X-29199709Y-2298067D01*
X-29289286Y-204481D01*
X-29228948Y1890151D01*
X-29019004Y3975109D01*
X-28968576Y4265548D01*
X-26585000Y4265548D01*
X-26585000Y3734452D01*
X-26381758Y3243783D01*
X-26006217Y2868242D01*
X-25515548Y2665000D01*
X-24984452Y2665000D01*
X-24493783Y2868242D01*
X-24118242Y3243783D01*
X-23915000Y3734452D01*
X-23915000Y4265548D01*
X-24118242Y4756217D01*
X-24493783Y5131758D01*
X-24984452Y5335000D01*
X-25515548Y5335000D01*
X-26006217Y5131758D01*
X-26381758Y4756217D01*
X-26585000Y4265548D01*
X-28968576Y4265548D01*
X-28660528Y6039721D01*
X-28155355Y8073418D01*
X-28022845Y8480037D01*
X-27125500Y8480037D01*
X-27125500Y7578963D01*
X-26780674Y6746481D01*
X-26143519Y6109326D01*
X-25311037Y5764500D01*
X-24409963Y5764500D01*
X-23577481Y6109326D01*
X-22940326Y6746481D01*
X-22595500Y7578963D01*
X-22595500Y8480037D01*
X-22940326Y9312519D01*
X-23230367Y9602560D01*
X-22619000Y9602560D01*
X-22225433Y9680845D01*
X-21891783Y9903783D01*
X-21793702Y10050571D01*
X-21520144Y9777013D01*
X-21972217Y9589758D01*
X-22347758Y9214217D01*
X-22551000Y8723548D01*
X-22551000Y8192452D01*
X-22347758Y7701783D01*
X-21972217Y7326242D01*
X-21481548Y7123000D01*
X-20950998Y7123000D01*
X-20950998Y7070134D01*
X-23373518Y4647613D01*
X-23468289Y4584289D01*
X-23681264Y4265548D01*
X-23719146Y4208854D01*
X-23807235Y3766000D01*
X-23785000Y3654217D01*
X-23784999Y-111783D01*
X-23719145Y-442855D01*
X-23597440Y-624999D01*
X-23597440Y-1650000D01*
X-23548157Y-1897765D01*
X-23407809Y-2107809D01*
X-23197765Y-2248157D01*
X-22950000Y-2297440D01*
X-22350000Y-2297440D01*
X-22125000Y-2252685D01*
X-21900000Y-2297440D01*
X-20600000Y-2297440D01*
X-20375000Y-2252685D01*
X-20150000Y-2297440D01*
X-19550000Y-2297440D01*
X-19302235Y-2248157D01*
X-19092191Y-2107809D01*
X-18951843Y-1897765D01*
X-18902560Y-1650000D01*
X-18902560Y-625001D01*
X-18780854Y-442855D01*
X-18715000Y-111783D01*
X-18715000Y4398798D01*
X-18398854Y4714943D01*
X-18585000Y4265548D01*
X-18585000Y3734452D01*
X-18381758Y3243783D01*
X-18006217Y2868242D01*
X-17515548Y2665000D01*
X-16984452Y2665000D01*
X-16493783Y2868242D01*
X-16118242Y3243783D01*
X-15915000Y3734452D01*
X-15915000Y4265548D01*
X-16118242Y4756217D01*
X-16493783Y5131758D01*
X-16984452Y5335000D01*
X-17515548Y5335000D01*
X-17964943Y5148854D01*
X-17892467Y5221330D01*
X-17797699Y5284652D01*
X-17546842Y5660086D01*
X-17502502Y5883000D01*
X-17458753Y6102940D01*
X-17480988Y6214723D01*
X-17480988Y9696205D01*
X-17458753Y9807988D01*
X-17481000Y9919831D01*
X-17481000Y10160560D01*
X-16566000Y10160560D01*
X-16341000Y10205315D01*
X-16116000Y10160560D01*
X-15516000Y10160560D01*
X-15268235Y10209843D01*
X-15058191Y10350191D01*
X-14917843Y10560235D01*
X-14868560Y10808000D01*
X-14868560Y11832999D01*
X-14746854Y12015145D01*
X-14681000Y12346217D01*
X-14681000Y15459871D01*
X-14374508Y15766363D01*
X-14347758Y15701783D01*
X-13972217Y15326242D01*
X-13481548Y15123000D01*
X-12950452Y15123000D01*
X-12459783Y15326242D01*
X-12084242Y15701783D01*
X-11947000Y16033114D01*
X-11947000Y15929452D01*
X-11743758Y15438783D01*
X-11368217Y15063242D01*
X-10877548Y14860000D01*
X-10346452Y14860000D01*
X-9855783Y15063242D01*
X-9480242Y15438783D01*
X-9277000Y15929452D01*
X-9277000Y16460548D01*
X-3947000Y16460548D01*
X-3947000Y15929452D01*
X-3743758Y15438783D01*
X-3368217Y15063242D01*
X-2877548Y14860000D01*
X-2346452Y14860000D01*
X-1855783Y15063242D01*
X-1480242Y15438783D01*
X-1277000Y15929452D01*
X-1277000Y16460548D01*
X-1290254Y16492548D01*
X1180000Y16492548D01*
X1180000Y15961452D01*
X1383242Y15470783D01*
X1758783Y15095242D01*
X2249452Y14892000D01*
X2780548Y14892000D01*
X3271217Y15095242D01*
X3646758Y15470783D01*
X3850000Y15961452D01*
X3850000Y16492548D01*
X3646758Y16983217D01*
X3271217Y17358758D01*
X2780548Y17562000D01*
X2249452Y17562000D01*
X1758783Y17358758D01*
X1383242Y16983217D01*
X1180000Y16492548D01*
X-1290254Y16492548D01*
X-1480242Y16951217D01*
X-1855783Y17326758D01*
X-2346452Y17530000D01*
X-2877548Y17530000D01*
X-3368217Y17326758D01*
X-3743758Y16951217D01*
X-3947000Y16460548D01*
X-9277000Y16460548D01*
X-9480242Y16951217D01*
X-9855783Y17326758D01*
X-10346452Y17530000D01*
X-10877548Y17530000D01*
X-11368217Y17326758D01*
X-11743758Y16951217D01*
X-11881000Y16619886D01*
X-11881000Y16723548D01*
X-12084242Y17214217D01*
X-12459783Y17589758D01*
X-12524363Y17616508D01*
X-11080870Y19060000D01*
X-8959440Y19060000D01*
X-8959440Y18545000D01*
X-8910157Y18297235D01*
X-8769809Y18087191D01*
X-8559765Y17946843D01*
X-8312000Y17897560D01*
X-7712000Y17897560D01*
X-7487000Y17942315D01*
X-7262000Y17897560D01*
X-5962000Y17897560D01*
X-5737000Y17942315D01*
X-5512000Y17897560D01*
X-4912000Y17897560D01*
X-4664235Y17946843D01*
X-4454191Y18087191D01*
X-4313843Y18297235D01*
X-4264560Y18545000D01*
X-4264560Y19060000D01*
X4167560Y19060000D01*
X4167560Y18577000D01*
X4216843Y18329235D01*
X4357191Y18119191D01*
X4567235Y17978843D01*
X4815000Y17929560D01*
X5415000Y17929560D01*
X5640000Y17974315D01*
X5865000Y17929560D01*
X7165000Y17929560D01*
X7390000Y17974315D01*
X7615000Y17929560D01*
X8215000Y17929560D01*
X8462765Y17978843D01*
X8672809Y18119191D01*
X8813157Y18329235D01*
X8862440Y18577000D01*
X8862440Y19092000D01*
X11070871Y19092000D01*
X12464363Y17698508D01*
X12399783Y17671758D01*
X12024242Y17296217D01*
X11821000Y16805548D01*
X11821000Y16562560D01*
X11646758Y16983217D01*
X11271217Y17358758D01*
X10780548Y17562000D01*
X10249452Y17562000D01*
X9758783Y17358758D01*
X9383242Y16983217D01*
X9180000Y16492548D01*
X9180000Y15961452D01*
X9383242Y15470783D01*
X9758783Y15095242D01*
X10249452Y14892000D01*
X10780548Y14892000D01*
X11271217Y15095242D01*
X11646758Y15470783D01*
X11850000Y15961452D01*
X11850000Y16204440D01*
X12024242Y15783783D01*
X12399783Y15408242D01*
X12890452Y15205000D01*
X13421548Y15205000D01*
X13912217Y15408242D01*
X14287758Y15783783D01*
X14314508Y15848362D01*
X14621000Y15541870D01*
X14621000Y15301782D01*
X14621001Y12428217D01*
X14686855Y12097145D01*
X14808560Y11915001D01*
X14808560Y10890000D01*
X14857843Y10642235D01*
X14998191Y10432191D01*
X15208235Y10291843D01*
X15456000Y10242560D01*
X16056000Y10242560D01*
X16281000Y10287315D01*
X16506000Y10242560D01*
X17806000Y10242560D01*
X18044968Y10290093D01*
X18129691Y10255000D01*
X18270250Y10255000D01*
X18429000Y10413750D01*
X18429000Y10767131D01*
X18453440Y10890000D01*
X18453440Y12413000D01*
X18683000Y12413000D01*
X18683000Y10413750D01*
X18841750Y10255000D01*
X18982309Y10255000D01*
X19215698Y10351673D01*
X19394327Y10530301D01*
X19491000Y10763690D01*
X19491000Y11714250D01*
X21603000Y11714250D01*
X21603000Y10123690D01*
X21699673Y9890301D01*
X21878302Y9711673D01*
X22111691Y9615000D01*
X22714250Y9615000D01*
X22873000Y9773750D01*
X22873000Y11873000D01*
X21761750Y11873000D01*
X21603000Y11714250D01*
X19491000Y11714250D01*
X19491000Y12254250D01*
X19332250Y12413000D01*
X18683000Y12413000D01*
X18453440Y12413000D01*
X18453440Y14190000D01*
X18429000Y14312869D01*
X18429000Y14666250D01*
X18683000Y14666250D01*
X18683000Y12667000D01*
X19332250Y12667000D01*
X19491000Y12825750D01*
X19491000Y13876310D01*
X21603000Y13876310D01*
X21603000Y12285750D01*
X21761750Y12127000D01*
X22873000Y12127000D01*
X22873000Y14226250D01*
X23127000Y14226250D01*
X23127000Y12127000D01*
X24238250Y12127000D01*
X24397000Y12285750D01*
X24397000Y13876310D01*
X24300327Y14109699D01*
X24121698Y14288327D01*
X23888309Y14385000D01*
X23285750Y14385000D01*
X23127000Y14226250D01*
X22873000Y14226250D01*
X22714250Y14385000D01*
X22111691Y14385000D01*
X21878302Y14288327D01*
X21699673Y14109699D01*
X21603000Y13876310D01*
X19491000Y13876310D01*
X19491000Y14316310D01*
X19394327Y14549699D01*
X19215698Y14728327D01*
X18982309Y14825000D01*
X18841750Y14825000D01*
X18683000Y14666250D01*
X18429000Y14666250D01*
X18270250Y14825000D01*
X18129691Y14825000D01*
X18044968Y14789907D01*
X17806000Y14837440D01*
X16891000Y14837440D01*
X16891000Y15900221D01*
X16913235Y16012003D01*
X16864075Y16259146D01*
X16825146Y16454857D01*
X16590822Y16805548D01*
X19821000Y16805548D01*
X19821000Y16274452D01*
X20024242Y15783783D01*
X20399783Y15408242D01*
X20890452Y15205000D01*
X21421548Y15205000D01*
X21912217Y15408242D01*
X22287758Y15783783D01*
X22491000Y16274452D01*
X22491000Y16805548D01*
X22287758Y17296217D01*
X21912217Y17671758D01*
X21421548Y17875000D01*
X20890452Y17875000D01*
X20399783Y17671758D01*
X20024242Y17296217D01*
X19821000Y16805548D01*
X16590822Y16805548D01*
X16574289Y16830291D01*
X16479522Y16893612D01*
X14187249Y19185884D01*
X14848463Y18912000D01*
X15749537Y18912000D01*
X16582019Y19256826D01*
X17219174Y19893981D01*
X17564000Y20726463D01*
X17564000Y21627537D01*
X17219174Y22460019D01*
X16582019Y23097174D01*
X15749537Y23442000D01*
X14848463Y23442000D01*
X14015981Y23097174D01*
X13378826Y22460019D01*
X13034000Y21627537D01*
X13034000Y20726463D01*
X13307884Y20065249D01*
X12422615Y20950518D01*
X12359291Y21045289D01*
X11983857Y21296146D01*
X11652785Y21362000D01*
X11541002Y21384235D01*
X11429219Y21362000D01*
X8862440Y21362000D01*
X8862440Y21877000D01*
X8813157Y22124765D01*
X8672809Y22334809D01*
X8462765Y22475157D01*
X8215000Y22524440D01*
X7615000Y22524440D01*
X7390000Y22479685D01*
X7165000Y22524440D01*
X5865000Y22524440D01*
X5640000Y22479685D01*
X5415000Y22524440D01*
X4815000Y22524440D01*
X4567235Y22475157D01*
X4357191Y22334809D01*
X4216843Y22124765D01*
X4167560Y21877000D01*
X4167560Y21330000D01*
X-4264560Y21330000D01*
X-4264560Y21845000D01*
X-4313843Y22092765D01*
X-4454191Y22302809D01*
X-4664235Y22443157D01*
X-4912000Y22492440D01*
X-5512000Y22492440D01*
X-5737000Y22447685D01*
X-5962000Y22492440D01*
X-7262000Y22492440D01*
X-7487000Y22447685D01*
X-7712000Y22492440D01*
X-8312000Y22492440D01*
X-8559765Y22443157D01*
X-8769809Y22302809D01*
X-8910157Y22092765D01*
X-8959440Y21845000D01*
X-8959440Y21330000D01*
X-11439220Y21330000D01*
X-11551003Y21352235D01*
X-11993857Y21264146D01*
X-12369291Y21013289D01*
X-12432613Y20918521D01*
X-13444240Y19906894D01*
X-13135000Y20653463D01*
X-13135000Y21554537D01*
X-13479826Y22387019D01*
X-14116981Y23024174D01*
X-14949463Y23369000D01*
X-15850537Y23369000D01*
X-16683019Y23024174D01*
X-17320174Y22387019D01*
X-17665000Y21554537D01*
X-17665000Y20653463D01*
X-17320174Y19820981D01*
X-16683019Y19183826D01*
X-15850537Y18839000D01*
X-14949463Y18839000D01*
X-14202894Y19148240D01*
X-16539520Y16811613D01*
X-16634288Y16748291D01*
X-16805170Y16492548D01*
X-16885146Y16372856D01*
X-16973235Y15930002D01*
X-16950999Y15818214D01*
X-16950999Y14755440D01*
X-17866000Y14755440D01*
X-18091000Y14710685D01*
X-18316000Y14755440D01*
X-18916000Y14755440D01*
X-19163765Y14706157D01*
X-19373809Y14565809D01*
X-19514157Y14355765D01*
X-19563440Y14108000D01*
X-19563440Y13082999D01*
X-19685145Y12900855D01*
X-19750999Y12569783D01*
X-19750999Y11218131D01*
X-21256387Y12723518D01*
X-21319711Y12818289D01*
X-21590560Y12999265D01*
X-21590560Y13369000D01*
X-21668845Y13762567D01*
X-21891783Y14096217D01*
X-22225433Y14319155D01*
X-22619000Y14397440D01*
X-23381000Y14397440D01*
X-23774567Y14319155D01*
X-24108217Y14096217D01*
X-24331155Y13762567D01*
X-24409440Y13369000D01*
X-24409440Y10631000D01*
X-24336449Y10264050D01*
X-24409963Y10294500D01*
X-25311037Y10294500D01*
X-26143519Y9949674D01*
X-26780674Y9312519D01*
X-27125500Y8480037D01*
X-28022845Y8480037D01*
X-27506071Y10065792D01*
X-26715998Y12006646D01*
X-25789182Y13886044D01*
X-24730365Y15694367D01*
X-24024350Y16723548D01*
X-22551000Y16723548D01*
X-22551000Y16192452D01*
X-22347758Y15701783D01*
X-21972217Y15326242D01*
X-21481548Y15123000D01*
X-20950452Y15123000D01*
X-20459783Y15326242D01*
X-20084242Y15701783D01*
X-19881000Y16192452D01*
X-19881000Y16723548D01*
X-20084242Y17214217D01*
X-20459783Y17589758D01*
X-20950452Y17793000D01*
X-21481548Y17793000D01*
X-21972217Y17589758D01*
X-22347758Y17214217D01*
X-22551000Y16723548D01*
X-24024350Y16723548D01*
X-23544967Y17422359D01*
X-22239057Y19061177D01*
X-20819317Y20602431D01*
X-19293014Y22038233D01*
X-17667962Y23361233D01*
X-16100890Y24460548D01*
X-11947000Y24460548D01*
X-11947000Y23929452D01*
X-11743758Y23438783D01*
X-11368217Y23063242D01*
X-10877548Y22860000D01*
X-10346452Y22860000D01*
X-9855783Y23063242D01*
X-9480242Y23438783D01*
X-9277000Y23929452D01*
X-9277000Y24460548D01*
X-3947000Y24460548D01*
X-3947000Y23929452D01*
X-3743758Y23438783D01*
X-3368217Y23063242D01*
X-2877548Y22860000D01*
X-2346452Y22860000D01*
X-1855783Y23063242D01*
X-1480242Y23438783D01*
X-1277000Y23929452D01*
X-1277000Y24202333D01*
X-450537Y23860000D01*
X450537Y23860000D01*
X1180000Y24162154D01*
X1180000Y23961452D01*
X1383242Y23470783D01*
X1758783Y23095242D01*
X2249452Y22892000D01*
X2780548Y22892000D01*
X3271217Y23095242D01*
X3646758Y23470783D01*
X3850000Y23961452D01*
X3850000Y24492548D01*
X9180000Y24492548D01*
X9180000Y23961452D01*
X9383242Y23470783D01*
X9758783Y23095242D01*
X10249452Y22892000D01*
X10780548Y22892000D01*
X11271217Y23095242D01*
X11646758Y23470783D01*
X11850000Y23961452D01*
X11850000Y24492548D01*
X11646758Y24983217D01*
X11271217Y25358758D01*
X10780548Y25562000D01*
X10249452Y25562000D01*
X9758783Y25358758D01*
X9383242Y24983217D01*
X9180000Y24492548D01*
X3850000Y24492548D01*
X3646758Y24983217D01*
X3271217Y25358758D01*
X2780548Y25562000D01*
X2249452Y25562000D01*
X2211988Y25546482D01*
X2265000Y25674463D01*
X2265000Y26575537D01*
X1920174Y27408019D01*
X1283019Y28045174D01*
X450537Y28390000D01*
X-450537Y28390000D01*
X-1283019Y28045174D01*
X-1920174Y27408019D01*
X-2265000Y26575537D01*
X-2265000Y25674463D01*
X-2175899Y25459355D01*
X-2346452Y25530000D01*
X-2877548Y25530000D01*
X-3368217Y25326758D01*
X-3743758Y24951217D01*
X-3947000Y24460548D01*
X-9277000Y24460548D01*
X-9480242Y24951217D01*
X-9855783Y25326758D01*
X-10346452Y25530000D01*
X-10877548Y25530000D01*
X-11368217Y25326758D01*
X-11743758Y24951217D01*
X-11947000Y24460548D01*
X-16100890Y24460548D01*
X-15952477Y24564661D01*
X-14155341Y25642356D01*
X-12285751Y26588802D01*
X-10353278Y27399156D01*
X-8367812Y28069268D01*
X-6339516Y28595710D01*
X-4278772Y28975787D01*
X-2196127Y29207553D01*
X-102241Y29289822D01*
X1992168Y29222173D01*
X1992168Y29222173D01*
G37*
X1992168Y29222173D02*
X4076380Y29004952D01*
X6139728Y28639271D01*
X8171649Y28127002D01*
X10161745Y27470767D01*
X12099829Y26673924D01*
X13975980Y25740553D01*
X15780596Y24675431D01*
X17504441Y23484009D01*
X19138689Y22172385D01*
X20674978Y20747274D01*
X22105444Y19215969D01*
X23422764Y17586308D01*
X24620196Y15866633D01*
X25691611Y14065746D01*
X26631526Y12192864D01*
X27435128Y10257574D01*
X28098306Y8269781D01*
X28617665Y6239660D01*
X28990546Y4177601D01*
X29215041Y2094160D01*
X29290000Y0D01*
X29241432Y-1686050D01*
X29046048Y-3772423D01*
X28701995Y-5839487D01*
X28338001Y-7349824D01*
X28338001Y-6983381D01*
X28360236Y-6871598D01*
X28272147Y-6428744D01*
X28021290Y-6053310D01*
X27926522Y-5989988D01*
X26873014Y-4936481D01*
X26809690Y-4841710D01*
X26446786Y-4599225D01*
X26585000Y-4265548D01*
X26585000Y-3734452D01*
X26381758Y-3243783D01*
X26006217Y-2868242D01*
X25515548Y-2665000D01*
X24984452Y-2665000D01*
X24493783Y-2868242D01*
X24118242Y-3243783D01*
X24091492Y-3308363D01*
X23785000Y-3001871D01*
X23785000Y111783D01*
X23719146Y442855D01*
X23597440Y625001D01*
X23597440Y1650000D01*
X23548157Y1897765D01*
X23407809Y2107809D01*
X23197765Y2248157D01*
X22950000Y2297440D01*
X22350000Y2297440D01*
X22125000Y2252685D01*
X21900000Y2297440D01*
X20600000Y2297440D01*
X20375000Y2252685D01*
X20150000Y2297440D01*
X19550000Y2297440D01*
X19302235Y2248157D01*
X19092191Y2107809D01*
X18951843Y1897765D01*
X18902560Y1650000D01*
X18902560Y625000D01*
X18780854Y442854D01*
X18715000Y111782D01*
X18715001Y-2320732D01*
X18638764Y-2704001D01*
X18660999Y-2815784D01*
X18661000Y-9028486D01*
X18517784Y-8999999D01*
X18406001Y-8977764D01*
X18294218Y-8999999D01*
X14427674Y-8999999D01*
X14531000Y-8750548D01*
X14531000Y-8219452D01*
X14327758Y-7728783D01*
X13952217Y-7353242D01*
X13461548Y-7150000D01*
X12930452Y-7150000D01*
X12842166Y-7186569D01*
X13414370Y-6085028D01*
X13985037Y-4625109D01*
X14227858Y-3734452D01*
X15915000Y-3734452D01*
X15915000Y-4265548D01*
X16118242Y-4756217D01*
X16493783Y-5131758D01*
X16984452Y-5335000D01*
X17515548Y-5335000D01*
X18006217Y-5131758D01*
X18381758Y-4756217D01*
X18585000Y-4265548D01*
X18585000Y-3734452D01*
X18381758Y-3243783D01*
X18006217Y-2868242D01*
X17515548Y-2665000D01*
X16984452Y-2665000D01*
X16493783Y-2868242D01*
X16118242Y-3243783D01*
X15915000Y-3734452D01*
X14227858Y-3734452D01*
X14397336Y-3112814D01*
X14646598Y-1565270D01*
X14730000Y0D01*
X14729978Y25709D01*
X14643844Y1590831D01*
X14391881Y3137938D01*
X14082345Y4265548D01*
X15915000Y4265548D01*
X15915000Y3734452D01*
X16118242Y3243783D01*
X16493783Y2868242D01*
X16984452Y2665000D01*
X17515548Y2665000D01*
X18006217Y2868242D01*
X18381758Y3243783D01*
X18585000Y3734452D01*
X18585000Y4265548D01*
X23915000Y4265548D01*
X23915000Y3734452D01*
X24118242Y3243783D01*
X24493783Y2868242D01*
X24984452Y2665000D01*
X25515548Y2665000D01*
X26006217Y2868242D01*
X26381758Y3243783D01*
X26585000Y3734452D01*
X26585000Y4265548D01*
X26381758Y4756217D01*
X26006217Y5131758D01*
X25515548Y5335000D01*
X24984452Y5335000D01*
X24493783Y5131758D01*
X24118242Y4756217D01*
X23915000Y4265548D01*
X18585000Y4265548D01*
X18381758Y4756217D01*
X18006217Y5131758D01*
X17515548Y5335000D01*
X16984452Y5335000D01*
X16493783Y5131758D01*
X16118242Y4756217D01*
X15915000Y4265548D01*
X14082345Y4265548D01*
X13976944Y4649510D01*
X13403730Y6108431D01*
X12815473Y7236057D01*
X12890452Y7205000D01*
X13421548Y7205000D01*
X13912217Y7408242D01*
X14287758Y7783783D01*
X14491000Y8274452D01*
X14491000Y8805548D01*
X19821000Y8805548D01*
X19821000Y8274452D01*
X20024242Y7783783D01*
X20399783Y7408242D01*
X20890452Y7205000D01*
X21421548Y7205000D01*
X21912217Y7408242D01*
X22287758Y7783783D01*
X22491000Y8274452D01*
X22491000Y8598537D01*
X22556000Y8598537D01*
X22556000Y7697463D01*
X22900826Y6864981D01*
X23537981Y6227826D01*
X24370463Y5883000D01*
X25271537Y5883000D01*
X26104019Y6227826D01*
X26741174Y6864981D01*
X27086000Y7697463D01*
X27086000Y8598537D01*
X26741174Y9431019D01*
X26104019Y10068174D01*
X25271537Y10413000D01*
X24397000Y10413000D01*
X24397000Y11714250D01*
X24238250Y11873000D01*
X23127000Y11873000D01*
X23127000Y9773750D01*
X23185279Y9715472D01*
X22900826Y9431019D01*
X22556000Y8598537D01*
X22491000Y8598537D01*
X22491000Y8805548D01*
X22287758Y9296217D01*
X21912217Y9671758D01*
X21421548Y9875000D01*
X20890452Y9875000D01*
X20399783Y9671758D01*
X20024242Y9296217D01*
X19821000Y8805548D01*
X14491000Y8805548D01*
X14287758Y9296217D01*
X13912217Y9671758D01*
X13421548Y9875000D01*
X12890452Y9875000D01*
X12399783Y9671758D01*
X12024242Y9296217D01*
X11821000Y8805548D01*
X11821000Y8786726D01*
X11810155Y8803018D01*
X10807841Y10008170D01*
X9683137Y11099989D01*
X8448781Y12066110D01*
X7118750Y12895592D01*
X5708105Y13579044D01*
X4232820Y14108725D01*
X2709603Y14478638D01*
X1155702Y14684592D01*
X-411286Y14724257D01*
X-1973617Y14597183D01*
X-3513598Y14304808D01*
X-5013791Y13850444D01*
X-6457207Y13239236D01*
X-7827501Y12478106D01*
X-9109156Y11575672D01*
X-10287657Y10542154D01*
X-11349660Y9389255D01*
X-11881000Y8672499D01*
X-11881000Y8723548D01*
X-12084242Y9214217D01*
X-12459783Y9589758D01*
X-12950452Y9793000D01*
X-13481548Y9793000D01*
X-13972217Y9589758D01*
X-14347758Y9214217D01*
X-14551000Y8723548D01*
X-14551000Y8192452D01*
X-14347758Y7701783D01*
X-13972217Y7326242D01*
X-13481548Y7123000D01*
X-12950452Y7123000D01*
X-12850901Y7164235D01*
X-13077521Y6778743D01*
X-13723812Y5350691D01*
X-14214693Y3862047D01*
X-14544605Y2329668D01*
X-14709813Y770909D01*
X-14708445Y-796581D01*
X-14540517Y-2355050D01*
X-14207931Y-3886850D01*
X-13714452Y-5374635D01*
X-13065670Y-6801557D01*
X-12822597Y-7213391D01*
X-12910452Y-7177000D01*
X-13441548Y-7177000D01*
X-13932217Y-7380242D01*
X-14307758Y-7755783D01*
X-14511000Y-8246452D01*
X-14511000Y-8777548D01*
X-14307758Y-9268217D01*
X-13932217Y-9643758D01*
X-13441548Y-9847000D01*
X-12910452Y-9847000D01*
X-12419783Y-9643758D01*
X-12044242Y-9268217D01*
X-11841000Y-8777548D01*
X-11841000Y-8726616D01*
X-11333255Y-9409050D01*
X-10269242Y-10560093D01*
X-9088938Y-11591553D01*
X-7805711Y-12491748D01*
X-6434090Y-13250486D01*
X-4989610Y-13859174D01*
X-3488626Y-14310919D01*
X-1948137Y-14600605D01*
X-385586Y-14724952D01*
X1181330Y-14682553D01*
X2734869Y-14473886D01*
X4257438Y-14101316D01*
X5731796Y-13569061D01*
X7141246Y-12883148D01*
X8469827Y-12051345D01*
X9702496Y-11083072D01*
X10825292Y-9989292D01*
X11825501Y-8782392D01*
X11861000Y-8728860D01*
X11861000Y-8750548D01*
X12027489Y-9152487D01*
X11781712Y-9316710D01*
X11718390Y-9411478D01*
X4356482Y-16773387D01*
X4261711Y-16836711D01*
X4010855Y-17212145D01*
X4010854Y-17212146D01*
X3922765Y-17655000D01*
X3945000Y-17766783D01*
X3945001Y-20462212D01*
X3922765Y-20574000D01*
X4010854Y-21016854D01*
X4010855Y-21016855D01*
X4231560Y-21347163D01*
X4231560Y-21431001D01*
X-4199560Y-21431001D01*
X-4199560Y-20841001D01*
X-4077854Y-20658855D01*
X-4012000Y-20327783D01*
X-4012000Y-18167780D01*
X-3989765Y-18055997D01*
X-4077854Y-17613144D01*
X-4077854Y-17613143D01*
X-4328711Y-17237709D01*
X-4423482Y-17174385D01*
X-4455386Y-17142481D01*
X-4518710Y-17047710D01*
X-4894144Y-16796853D01*
X-5225216Y-16730999D01*
X-5336999Y-16708764D01*
X-5448782Y-16730999D01*
X-9315326Y-16730999D01*
X-9212000Y-16481548D01*
X-9212000Y-15950452D01*
X-3882000Y-15950452D01*
X-3882000Y-16481548D01*
X-3678758Y-16972217D01*
X-3303217Y-17347758D01*
X-2812548Y-17551000D01*
X-2281452Y-17551000D01*
X-1790783Y-17347758D01*
X-1415242Y-16972217D01*
X-1212000Y-16481548D01*
X-1212000Y-15950452D01*
X-1216142Y-15940452D01*
X1244000Y-15940452D01*
X1244000Y-16471548D01*
X1447242Y-16962217D01*
X1822783Y-17337758D01*
X2313452Y-17541000D01*
X2844548Y-17541000D01*
X3335217Y-17337758D01*
X3710758Y-16962217D01*
X3914000Y-16471548D01*
X3914000Y-15940452D01*
X3710758Y-15449783D01*
X3335217Y-15074242D01*
X2844548Y-14871000D01*
X2313452Y-14871000D01*
X1822783Y-15074242D01*
X1447242Y-15449783D01*
X1244000Y-15940452D01*
X-1216142Y-15940452D01*
X-1415242Y-15459783D01*
X-1790783Y-15084242D01*
X-2281452Y-14881000D01*
X-2812548Y-14881000D01*
X-3303217Y-15084242D01*
X-3678758Y-15459783D01*
X-3882000Y-15950452D01*
X-9212000Y-15950452D01*
X-9415242Y-15459783D01*
X-9790783Y-15084242D01*
X-10281452Y-14881000D01*
X-10812548Y-14881000D01*
X-11303217Y-15084242D01*
X-11678758Y-15459783D01*
X-11882000Y-15950452D01*
X-11882000Y-16147469D01*
X-12044242Y-15755783D01*
X-12419783Y-15380242D01*
X-12910452Y-15177000D01*
X-13441548Y-15177000D01*
X-13932217Y-15380242D01*
X-14307758Y-15755783D01*
X-14511000Y-16246452D01*
X-14511000Y-16777001D01*
X-15355867Y-16777001D01*
X-17323429Y-14809440D01*
X-16526000Y-14809440D01*
X-16287032Y-14761907D01*
X-16202309Y-14797000D01*
X-16061750Y-14797000D01*
X-15903000Y-14638250D01*
X-15903000Y-14284869D01*
X-15878560Y-14162000D01*
X-15878560Y-12639000D01*
X-15649000Y-12639000D01*
X-15649000Y-14638250D01*
X-15490250Y-14797000D01*
X-15349691Y-14797000D01*
X-15116302Y-14700327D01*
X-14937673Y-14521699D01*
X-14841000Y-14288310D01*
X-14841000Y-12797750D01*
X-14999750Y-12639000D01*
X-15649000Y-12639000D01*
X-15878560Y-12639000D01*
X-15878560Y-10862000D01*
X-15903000Y-10739131D01*
X-15903000Y-10385750D01*
X-15649000Y-10385750D01*
X-15649000Y-12385000D01*
X-14999750Y-12385000D01*
X-14841000Y-12226250D01*
X-14841000Y-10735690D01*
X-14937673Y-10502301D01*
X-15116302Y-10323673D01*
X-15349691Y-10227000D01*
X-15490250Y-10227000D01*
X-15649000Y-10385750D01*
X-15903000Y-10385750D01*
X-16061750Y-10227000D01*
X-16202309Y-10227000D01*
X-16287032Y-10262093D01*
X-16526000Y-10214560D01*
X-17826000Y-10214560D01*
X-18051000Y-10259315D01*
X-18276000Y-10214560D01*
X-18876000Y-10214560D01*
X-19123765Y-10263843D01*
X-19333809Y-10404191D01*
X-19474157Y-10614235D01*
X-19523440Y-10862000D01*
X-19523440Y-11887001D01*
X-19645145Y-12069145D01*
X-19710999Y-12400217D01*
X-19711000Y-15050217D01*
X-19733235Y-15162000D01*
X-19661759Y-15521335D01*
X-19645146Y-15604854D01*
X-19394289Y-15980289D01*
X-19299518Y-16043613D01*
X-16707610Y-18635522D01*
X-16644288Y-18730290D01*
X-16268854Y-18981147D01*
X-16092230Y-19016279D01*
X-16615019Y-19232826D01*
X-17252174Y-19869981D01*
X-17597000Y-20702463D01*
X-17597000Y-21603537D01*
X-17252174Y-22436019D01*
X-16615019Y-23073174D01*
X-15782537Y-23418000D01*
X-14881463Y-23418000D01*
X-14048981Y-23073174D01*
X-13411826Y-22436019D01*
X-13067000Y-21603537D01*
X-13067000Y-20702463D01*
X-13411826Y-19869981D01*
X-14048981Y-19232826D01*
X-14497601Y-19047001D01*
X-12615782Y-19047001D01*
X-12503999Y-19069236D01*
X-12392216Y-19047001D01*
X-12160947Y-19000999D01*
X-8894440Y-19000999D01*
X-8894440Y-19591001D01*
X-9016145Y-19773145D01*
X-9081999Y-20104217D01*
X-9082000Y-22264218D01*
X-9104235Y-22376002D01*
X-9082000Y-22487784D01*
X-9016146Y-22818856D01*
X-8765289Y-23194291D01*
X-8670518Y-23257615D01*
X-8638614Y-23289519D01*
X-8575290Y-23384290D01*
X-8199856Y-23635147D01*
X-8017521Y-23671416D01*
X-7757002Y-23723236D01*
X-7645219Y-23701001D01*
X-3778674Y-23701001D01*
X-3882000Y-23950452D01*
X-3882000Y-24481548D01*
X-3678758Y-24972217D01*
X-3303217Y-25347758D01*
X-2812548Y-25551000D01*
X-2281452Y-25551000D01*
X-2199861Y-25517204D01*
X-2265000Y-25674463D01*
X-2265000Y-26575537D01*
X-1920174Y-27408019D01*
X-1283019Y-28045174D01*
X-450537Y-28390000D01*
X450537Y-28390000D01*
X1283019Y-28045174D01*
X1920174Y-27408019D01*
X2265000Y-26575537D01*
X2265000Y-25674463D01*
X2188234Y-25489133D01*
X2313452Y-25541000D01*
X2844548Y-25541000D01*
X3335217Y-25337758D01*
X3710758Y-24962217D01*
X3914000Y-24471548D01*
X3914000Y-23940452D01*
X9244000Y-23940452D01*
X9244000Y-24471548D01*
X9447242Y-24962217D01*
X9822783Y-25337758D01*
X10313452Y-25541000D01*
X10844548Y-25541000D01*
X11335217Y-25337758D01*
X11710758Y-24962217D01*
X11914000Y-24471548D01*
X11914000Y-23940452D01*
X11710758Y-23449783D01*
X11335217Y-23074242D01*
X10844548Y-22871000D01*
X10313452Y-22871000D01*
X9822783Y-23074242D01*
X9447242Y-23449783D01*
X9244000Y-23940452D01*
X3914000Y-23940452D01*
X3814816Y-23701001D01*
X7667218Y-23701001D01*
X7779001Y-23723236D01*
X7890784Y-23701001D01*
X8221856Y-23635147D01*
X8597290Y-23384290D01*
X8660614Y-23289519D01*
X8702518Y-23247615D01*
X8797289Y-23184291D01*
X9048146Y-22808857D01*
X9114000Y-22477785D01*
X9136235Y-22366003D01*
X9114000Y-22254221D01*
X9114000Y-20628463D01*
X13168000Y-20628463D01*
X13168000Y-21529537D01*
X13512826Y-22362019D01*
X14149981Y-22999174D01*
X14982463Y-23344000D01*
X15883537Y-23344000D01*
X16716019Y-22999174D01*
X17353174Y-22362019D01*
X17698000Y-21529537D01*
X17698000Y-20628463D01*
X17353174Y-19795981D01*
X16716019Y-19158826D01*
X15883537Y-18814000D01*
X14982463Y-18814000D01*
X14149981Y-19158826D01*
X13512826Y-19795981D01*
X13168000Y-20628463D01*
X9114000Y-20628463D01*
X9114000Y-20094217D01*
X9048146Y-19763145D01*
X8926440Y-19580999D01*
X8926440Y-18556000D01*
X8877157Y-18308235D01*
X8736809Y-18098191D01*
X8526765Y-17957843D01*
X8279000Y-17908560D01*
X7679000Y-17908560D01*
X7454000Y-17953315D01*
X7229000Y-17908560D01*
X6431571Y-17908560D01*
X8399679Y-15940452D01*
X9244000Y-15940452D01*
X9244000Y-16471548D01*
X9447242Y-16962217D01*
X9822783Y-17337758D01*
X10313452Y-17541000D01*
X10844548Y-17541000D01*
X11335217Y-17337758D01*
X11710758Y-16962217D01*
X11861000Y-16599501D01*
X11861000Y-16750548D01*
X12064242Y-17241217D01*
X12439783Y-17616758D01*
X12930452Y-17820000D01*
X13461548Y-17820000D01*
X13952217Y-17616758D01*
X14327758Y-17241217D01*
X14531000Y-16750548D01*
X14531000Y-16219452D01*
X14327758Y-15728783D01*
X13952217Y-15353242D01*
X13461548Y-15150000D01*
X12930452Y-15150000D01*
X12439783Y-15353242D01*
X12064242Y-15728783D01*
X11914000Y-16091499D01*
X11914000Y-15940452D01*
X11710758Y-15449783D01*
X11335217Y-15074242D01*
X10844548Y-14871000D01*
X10313452Y-14871000D01*
X9822783Y-15074242D01*
X9447242Y-15449783D01*
X9244000Y-15940452D01*
X8399679Y-15940452D01*
X13070133Y-11269999D01*
X14848560Y-11269999D01*
X14848560Y-11860001D01*
X14726855Y-12042145D01*
X14661001Y-12373217D01*
X14661000Y-14533218D01*
X14638765Y-14645002D01*
X14661000Y-14756784D01*
X14726854Y-15087856D01*
X14977711Y-15463291D01*
X15072482Y-15526615D01*
X15104386Y-15558519D01*
X15167710Y-15653290D01*
X15543144Y-15904147D01*
X15725479Y-15940416D01*
X15985998Y-15992236D01*
X16097781Y-15970001D01*
X19964326Y-15970001D01*
X19861000Y-16219452D01*
X19861000Y-16750548D01*
X20064242Y-17241217D01*
X20439783Y-17616758D01*
X20930452Y-17820000D01*
X21461548Y-17820000D01*
X21952217Y-17616758D01*
X22327758Y-17241217D01*
X22531000Y-16750548D01*
X22531000Y-16219452D01*
X22427674Y-15970001D01*
X23331998Y-15970001D01*
X23443781Y-15992236D01*
X23555564Y-15970001D01*
X23886636Y-15904147D01*
X24262070Y-15653290D01*
X24325394Y-15558520D01*
X25185531Y-14698383D01*
X25280299Y-14635061D01*
X25531156Y-14259626D01*
X25597010Y-13928554D01*
X25615492Y-13835639D01*
X26017100Y-13434031D01*
X25885495Y-13705664D01*
X24839329Y-15521335D01*
X23666024Y-17257561D01*
X22371586Y-18905456D01*
X20962640Y-20456584D01*
X19446399Y-21903006D01*
X17830622Y-23237319D01*
X16123581Y-24452694D01*
X14334012Y-25542909D01*
X12471075Y-26502384D01*
X10544307Y-27326209D01*
X8563567Y-28010166D01*
X6538996Y-28550755D01*
X4480955Y-28945209D01*
X2399979Y-29191509D01*
X306719Y-29288394D01*
X-1788112Y-29235368D01*
X-3873790Y-29032703D01*
X-5939640Y-28681436D01*
X-7975088Y-28183365D01*
X-9969717Y-27541039D01*
X-11913316Y-26757746D01*
X-13795938Y-25837496D01*
X-15607946Y-24784998D01*
X-16833640Y-23950452D01*
X-11882000Y-23950452D01*
X-11882000Y-24481548D01*
X-11678758Y-24972217D01*
X-11303217Y-25347758D01*
X-10812548Y-25551000D01*
X-10281452Y-25551000D01*
X-9790783Y-25347758D01*
X-9415242Y-24972217D01*
X-9212000Y-24481548D01*
X-9212000Y-23950452D01*
X-9415242Y-23459783D01*
X-9790783Y-23084242D01*
X-10281452Y-22881000D01*
X-10812548Y-22881000D01*
X-11303217Y-23084242D01*
X-11678758Y-23459783D01*
X-11882000Y-23950452D01*
X-16833640Y-23950452D01*
X-17340066Y-23605639D01*
X-18983432Y-22305457D01*
X-20529632Y-20891106D01*
X-21970753Y-19369825D01*
X-23299418Y-17749400D01*
X-24361597Y-16246452D01*
X-22511000Y-16246452D01*
X-22511000Y-16777548D01*
X-22307758Y-17268217D01*
X-21932217Y-17643758D01*
X-21441548Y-17847000D01*
X-20910452Y-17847000D01*
X-20419783Y-17643758D01*
X-20044242Y-17268217D01*
X-19841000Y-16777548D01*
X-19841000Y-16246452D01*
X-20044242Y-15755783D01*
X-20419783Y-15380242D01*
X-20910452Y-15177000D01*
X-21441548Y-15177000D01*
X-21932217Y-15380242D01*
X-22307758Y-15755783D01*
X-22511000Y-16246452D01*
X-24361597Y-16246452D01*
X-24508827Y-16038127D01*
X-25592788Y-14244763D01*
X-26545755Y-12378489D01*
X-26585024Y-12285750D01*
X-24397000Y-12285750D01*
X-24397000Y-13876310D01*
X-24300327Y-14109699D01*
X-24121698Y-14288327D01*
X-23888309Y-14385000D01*
X-23285750Y-14385000D01*
X-23127000Y-14226250D01*
X-23127000Y-12127000D01*
X-22873000Y-12127000D01*
X-22873000Y-14226250D01*
X-22714250Y-14385000D01*
X-22111691Y-14385000D01*
X-21878302Y-14288327D01*
X-21699673Y-14109699D01*
X-21603000Y-13876310D01*
X-21603000Y-12285750D01*
X-21761750Y-12127000D01*
X-22873000Y-12127000D01*
X-23127000Y-12127000D01*
X-24238250Y-12127000D01*
X-24397000Y-12285750D01*
X-26585024Y-12285750D01*
X-27362849Y-10448856D01*
X-28039888Y-8465741D01*
X-28252426Y-7658463D01*
X-27100000Y-7658463D01*
X-27100000Y-8559537D01*
X-26755174Y-9392019D01*
X-26118019Y-10029174D01*
X-25285537Y-10374000D01*
X-24397000Y-10374000D01*
X-24397000Y-11714250D01*
X-24238250Y-11873000D01*
X-23127000Y-11873000D01*
X-23127000Y-9773750D01*
X-22873000Y-9773750D01*
X-22873000Y-11873000D01*
X-21761750Y-11873000D01*
X-21603000Y-11714250D01*
X-21603000Y-10123690D01*
X-21699673Y-9890301D01*
X-21878302Y-9711673D01*
X-22111691Y-9615000D01*
X-22714250Y-9615000D01*
X-22873000Y-9773750D01*
X-23127000Y-9773750D01*
X-23211779Y-9688972D01*
X-22914826Y-9392019D01*
X-22570000Y-8559537D01*
X-22570000Y-8246452D01*
X-22511000Y-8246452D01*
X-22511000Y-8777548D01*
X-22307758Y-9268217D01*
X-21932217Y-9643758D01*
X-21441548Y-9847000D01*
X-20910452Y-9847000D01*
X-20419783Y-9643758D01*
X-20044242Y-9268217D01*
X-19841000Y-8777548D01*
X-19841000Y-8246452D01*
X-20044242Y-7755783D01*
X-20419783Y-7380242D01*
X-20910452Y-7177000D01*
X-21441548Y-7177000D01*
X-21932217Y-7380242D01*
X-22307758Y-7755783D01*
X-22511000Y-8246452D01*
X-22570000Y-8246452D01*
X-22570000Y-7658463D01*
X-22914826Y-6825981D01*
X-23551981Y-6188826D01*
X-24384463Y-5844000D01*
X-25285537Y-5844000D01*
X-26118019Y-6188826D01*
X-26755174Y-6825981D01*
X-27100000Y-7658463D01*
X-28252426Y-7658463D01*
X-28573407Y-6439295D01*
X-28960674Y-4379890D01*
X-29034783Y-3734452D01*
X-26585000Y-3734452D01*
X-26585000Y-4265548D01*
X-26381758Y-4756217D01*
X-26006217Y-5131758D01*
X-25515548Y-5335000D01*
X-24984452Y-5335000D01*
X-24493783Y-5131758D01*
X-24118242Y-4756217D01*
X-23915000Y-4265548D01*
X-23915000Y-3734452D01*
X-18585000Y-3734452D01*
X-18585000Y-4265548D01*
X-18381758Y-4756217D01*
X-18006217Y-5131758D01*
X-17515548Y-5335000D01*
X-16984452Y-5335000D01*
X-16493783Y-5131758D01*
X-16118242Y-4756217D01*
X-15915000Y-4265548D01*
X-15915000Y-3734452D01*
X-16118242Y-3243783D01*
X-16493783Y-2868242D01*
X-16984452Y-2665000D01*
X-17515548Y-2665000D01*
X-18006217Y-2868242D01*
X-18381758Y-3243783D01*
X-18585000Y-3734452D01*
X-23915000Y-3734452D01*
X-24118242Y-3243783D01*
X-24493783Y-2868242D01*
X-24984452Y-2665000D01*
X-25515548Y-2665000D01*
X-26006217Y-2868242D01*
X-26381758Y-3243783D01*
X-26585000Y-3734452D01*
X-29034783Y-3734452D01*
X-29199709Y-2298067D01*
X-29289286Y-204481D01*
X-29228948Y1890151D01*
X-29019004Y3975109D01*
X-28968576Y4265548D01*
X-26585000Y4265548D01*
X-26585000Y3734452D01*
X-26381758Y3243783D01*
X-26006217Y2868242D01*
X-25515548Y2665000D01*
X-24984452Y2665000D01*
X-24493783Y2868242D01*
X-24118242Y3243783D01*
X-23915000Y3734452D01*
X-23915000Y4265548D01*
X-24118242Y4756217D01*
X-24493783Y5131758D01*
X-24984452Y5335000D01*
X-25515548Y5335000D01*
X-26006217Y5131758D01*
X-26381758Y4756217D01*
X-26585000Y4265548D01*
X-28968576Y4265548D01*
X-28660528Y6039721D01*
X-28155355Y8073418D01*
X-28022845Y8480037D01*
X-27125500Y8480037D01*
X-27125500Y7578963D01*
X-26780674Y6746481D01*
X-26143519Y6109326D01*
X-25311037Y5764500D01*
X-24409963Y5764500D01*
X-23577481Y6109326D01*
X-22940326Y6746481D01*
X-22595500Y7578963D01*
X-22595500Y8480037D01*
X-22940326Y9312519D01*
X-23230367Y9602560D01*
X-22619000Y9602560D01*
X-22225433Y9680845D01*
X-21891783Y9903783D01*
X-21793702Y10050571D01*
X-21520144Y9777013D01*
X-21972217Y9589758D01*
X-22347758Y9214217D01*
X-22551000Y8723548D01*
X-22551000Y8192452D01*
X-22347758Y7701783D01*
X-21972217Y7326242D01*
X-21481548Y7123000D01*
X-20950998Y7123000D01*
X-20950998Y7070134D01*
X-23373518Y4647613D01*
X-23468289Y4584289D01*
X-23681264Y4265548D01*
X-23719146Y4208854D01*
X-23807235Y3766000D01*
X-23785000Y3654217D01*
X-23784999Y-111783D01*
X-23719145Y-442855D01*
X-23597440Y-624999D01*
X-23597440Y-1650000D01*
X-23548157Y-1897765D01*
X-23407809Y-2107809D01*
X-23197765Y-2248157D01*
X-22950000Y-2297440D01*
X-22350000Y-2297440D01*
X-22125000Y-2252685D01*
X-21900000Y-2297440D01*
X-20600000Y-2297440D01*
X-20375000Y-2252685D01*
X-20150000Y-2297440D01*
X-19550000Y-2297440D01*
X-19302235Y-2248157D01*
X-19092191Y-2107809D01*
X-18951843Y-1897765D01*
X-18902560Y-1650000D01*
X-18902560Y-625001D01*
X-18780854Y-442855D01*
X-18715000Y-111783D01*
X-18715000Y4398798D01*
X-18398854Y4714943D01*
X-18585000Y4265548D01*
X-18585000Y3734452D01*
X-18381758Y3243783D01*
X-18006217Y2868242D01*
X-17515548Y2665000D01*
X-16984452Y2665000D01*
X-16493783Y2868242D01*
X-16118242Y3243783D01*
X-15915000Y3734452D01*
X-15915000Y4265548D01*
X-16118242Y4756217D01*
X-16493783Y5131758D01*
X-16984452Y5335000D01*
X-17515548Y5335000D01*
X-17964943Y5148854D01*
X-17892467Y5221330D01*
X-17797699Y5284652D01*
X-17546842Y5660086D01*
X-17502502Y5883000D01*
X-17458753Y6102940D01*
X-17480988Y6214723D01*
X-17480988Y9696205D01*
X-17458753Y9807988D01*
X-17481000Y9919831D01*
X-17481000Y10160560D01*
X-16566000Y10160560D01*
X-16341000Y10205315D01*
X-16116000Y10160560D01*
X-15516000Y10160560D01*
X-15268235Y10209843D01*
X-15058191Y10350191D01*
X-14917843Y10560235D01*
X-14868560Y10808000D01*
X-14868560Y11832999D01*
X-14746854Y12015145D01*
X-14681000Y12346217D01*
X-14681000Y15459871D01*
X-14374508Y15766363D01*
X-14347758Y15701783D01*
X-13972217Y15326242D01*
X-13481548Y15123000D01*
X-12950452Y15123000D01*
X-12459783Y15326242D01*
X-12084242Y15701783D01*
X-11947000Y16033114D01*
X-11947000Y15929452D01*
X-11743758Y15438783D01*
X-11368217Y15063242D01*
X-10877548Y14860000D01*
X-10346452Y14860000D01*
X-9855783Y15063242D01*
X-9480242Y15438783D01*
X-9277000Y15929452D01*
X-9277000Y16460548D01*
X-3947000Y16460548D01*
X-3947000Y15929452D01*
X-3743758Y15438783D01*
X-3368217Y15063242D01*
X-2877548Y14860000D01*
X-2346452Y14860000D01*
X-1855783Y15063242D01*
X-1480242Y15438783D01*
X-1277000Y15929452D01*
X-1277000Y16460548D01*
X-1290254Y16492548D01*
X1180000Y16492548D01*
X1180000Y15961452D01*
X1383242Y15470783D01*
X1758783Y15095242D01*
X2249452Y14892000D01*
X2780548Y14892000D01*
X3271217Y15095242D01*
X3646758Y15470783D01*
X3850000Y15961452D01*
X3850000Y16492548D01*
X3646758Y16983217D01*
X3271217Y17358758D01*
X2780548Y17562000D01*
X2249452Y17562000D01*
X1758783Y17358758D01*
X1383242Y16983217D01*
X1180000Y16492548D01*
X-1290254Y16492548D01*
X-1480242Y16951217D01*
X-1855783Y17326758D01*
X-2346452Y17530000D01*
X-2877548Y17530000D01*
X-3368217Y17326758D01*
X-3743758Y16951217D01*
X-3947000Y16460548D01*
X-9277000Y16460548D01*
X-9480242Y16951217D01*
X-9855783Y17326758D01*
X-10346452Y17530000D01*
X-10877548Y17530000D01*
X-11368217Y17326758D01*
X-11743758Y16951217D01*
X-11881000Y16619886D01*
X-11881000Y16723548D01*
X-12084242Y17214217D01*
X-12459783Y17589758D01*
X-12524363Y17616508D01*
X-11080870Y19060000D01*
X-8959440Y19060000D01*
X-8959440Y18545000D01*
X-8910157Y18297235D01*
X-8769809Y18087191D01*
X-8559765Y17946843D01*
X-8312000Y17897560D01*
X-7712000Y17897560D01*
X-7487000Y17942315D01*
X-7262000Y17897560D01*
X-5962000Y17897560D01*
X-5737000Y17942315D01*
X-5512000Y17897560D01*
X-4912000Y17897560D01*
X-4664235Y17946843D01*
X-4454191Y18087191D01*
X-4313843Y18297235D01*
X-4264560Y18545000D01*
X-4264560Y19060000D01*
X4167560Y19060000D01*
X4167560Y18577000D01*
X4216843Y18329235D01*
X4357191Y18119191D01*
X4567235Y17978843D01*
X4815000Y17929560D01*
X5415000Y17929560D01*
X5640000Y17974315D01*
X5865000Y17929560D01*
X7165000Y17929560D01*
X7390000Y17974315D01*
X7615000Y17929560D01*
X8215000Y17929560D01*
X8462765Y17978843D01*
X8672809Y18119191D01*
X8813157Y18329235D01*
X8862440Y18577000D01*
X8862440Y19092000D01*
X11070871Y19092000D01*
X12464363Y17698508D01*
X12399783Y17671758D01*
X12024242Y17296217D01*
X11821000Y16805548D01*
X11821000Y16562560D01*
X11646758Y16983217D01*
X11271217Y17358758D01*
X10780548Y17562000D01*
X10249452Y17562000D01*
X9758783Y17358758D01*
X9383242Y16983217D01*
X9180000Y16492548D01*
X9180000Y15961452D01*
X9383242Y15470783D01*
X9758783Y15095242D01*
X10249452Y14892000D01*
X10780548Y14892000D01*
X11271217Y15095242D01*
X11646758Y15470783D01*
X11850000Y15961452D01*
X11850000Y16204440D01*
X12024242Y15783783D01*
X12399783Y15408242D01*
X12890452Y15205000D01*
X13421548Y15205000D01*
X13912217Y15408242D01*
X14287758Y15783783D01*
X14314508Y15848362D01*
X14621000Y15541870D01*
X14621000Y15301782D01*
X14621001Y12428217D01*
X14686855Y12097145D01*
X14808560Y11915001D01*
X14808560Y10890000D01*
X14857843Y10642235D01*
X14998191Y10432191D01*
X15208235Y10291843D01*
X15456000Y10242560D01*
X16056000Y10242560D01*
X16281000Y10287315D01*
X16506000Y10242560D01*
X17806000Y10242560D01*
X18044968Y10290093D01*
X18129691Y10255000D01*
X18270250Y10255000D01*
X18429000Y10413750D01*
X18429000Y10767131D01*
X18453440Y10890000D01*
X18453440Y12413000D01*
X18683000Y12413000D01*
X18683000Y10413750D01*
X18841750Y10255000D01*
X18982309Y10255000D01*
X19215698Y10351673D01*
X19394327Y10530301D01*
X19491000Y10763690D01*
X19491000Y11714250D01*
X21603000Y11714250D01*
X21603000Y10123690D01*
X21699673Y9890301D01*
X21878302Y9711673D01*
X22111691Y9615000D01*
X22714250Y9615000D01*
X22873000Y9773750D01*
X22873000Y11873000D01*
X21761750Y11873000D01*
X21603000Y11714250D01*
X19491000Y11714250D01*
X19491000Y12254250D01*
X19332250Y12413000D01*
X18683000Y12413000D01*
X18453440Y12413000D01*
X18453440Y14190000D01*
X18429000Y14312869D01*
X18429000Y14666250D01*
X18683000Y14666250D01*
X18683000Y12667000D01*
X19332250Y12667000D01*
X19491000Y12825750D01*
X19491000Y13876310D01*
X21603000Y13876310D01*
X21603000Y12285750D01*
X21761750Y12127000D01*
X22873000Y12127000D01*
X22873000Y14226250D01*
X23127000Y14226250D01*
X23127000Y12127000D01*
X24238250Y12127000D01*
X24397000Y12285750D01*
X24397000Y13876310D01*
X24300327Y14109699D01*
X24121698Y14288327D01*
X23888309Y14385000D01*
X23285750Y14385000D01*
X23127000Y14226250D01*
X22873000Y14226250D01*
X22714250Y14385000D01*
X22111691Y14385000D01*
X21878302Y14288327D01*
X21699673Y14109699D01*
X21603000Y13876310D01*
X19491000Y13876310D01*
X19491000Y14316310D01*
X19394327Y14549699D01*
X19215698Y14728327D01*
X18982309Y14825000D01*
X18841750Y14825000D01*
X18683000Y14666250D01*
X18429000Y14666250D01*
X18270250Y14825000D01*
X18129691Y14825000D01*
X18044968Y14789907D01*
X17806000Y14837440D01*
X16891000Y14837440D01*
X16891000Y15900221D01*
X16913235Y16012003D01*
X16864075Y16259146D01*
X16825146Y16454857D01*
X16590822Y16805548D01*
X19821000Y16805548D01*
X19821000Y16274452D01*
X20024242Y15783783D01*
X20399783Y15408242D01*
X20890452Y15205000D01*
X21421548Y15205000D01*
X21912217Y15408242D01*
X22287758Y15783783D01*
X22491000Y16274452D01*
X22491000Y16805548D01*
X22287758Y17296217D01*
X21912217Y17671758D01*
X21421548Y17875000D01*
X20890452Y17875000D01*
X20399783Y17671758D01*
X20024242Y17296217D01*
X19821000Y16805548D01*
X16590822Y16805548D01*
X16574289Y16830291D01*
X16479522Y16893612D01*
X14187249Y19185884D01*
X14848463Y18912000D01*
X15749537Y18912000D01*
X16582019Y19256826D01*
X17219174Y19893981D01*
X17564000Y20726463D01*
X17564000Y21627537D01*
X17219174Y22460019D01*
X16582019Y23097174D01*
X15749537Y23442000D01*
X14848463Y23442000D01*
X14015981Y23097174D01*
X13378826Y22460019D01*
X13034000Y21627537D01*
X13034000Y20726463D01*
X13307884Y20065249D01*
X12422615Y20950518D01*
X12359291Y21045289D01*
X11983857Y21296146D01*
X11652785Y21362000D01*
X11541002Y21384235D01*
X11429219Y21362000D01*
X8862440Y21362000D01*
X8862440Y21877000D01*
X8813157Y22124765D01*
X8672809Y22334809D01*
X8462765Y22475157D01*
X8215000Y22524440D01*
X7615000Y22524440D01*
X7390000Y22479685D01*
X7165000Y22524440D01*
X5865000Y22524440D01*
X5640000Y22479685D01*
X5415000Y22524440D01*
X4815000Y22524440D01*
X4567235Y22475157D01*
X4357191Y22334809D01*
X4216843Y22124765D01*
X4167560Y21877000D01*
X4167560Y21330000D01*
X-4264560Y21330000D01*
X-4264560Y21845000D01*
X-4313843Y22092765D01*
X-4454191Y22302809D01*
X-4664235Y22443157D01*
X-4912000Y22492440D01*
X-5512000Y22492440D01*
X-5737000Y22447685D01*
X-5962000Y22492440D01*
X-7262000Y22492440D01*
X-7487000Y22447685D01*
X-7712000Y22492440D01*
X-8312000Y22492440D01*
X-8559765Y22443157D01*
X-8769809Y22302809D01*
X-8910157Y22092765D01*
X-8959440Y21845000D01*
X-8959440Y21330000D01*
X-11439220Y21330000D01*
X-11551003Y21352235D01*
X-11993857Y21264146D01*
X-12369291Y21013289D01*
X-12432613Y20918521D01*
X-13444240Y19906894D01*
X-13135000Y20653463D01*
X-13135000Y21554537D01*
X-13479826Y22387019D01*
X-14116981Y23024174D01*
X-14949463Y23369000D01*
X-15850537Y23369000D01*
X-16683019Y23024174D01*
X-17320174Y22387019D01*
X-17665000Y21554537D01*
X-17665000Y20653463D01*
X-17320174Y19820981D01*
X-16683019Y19183826D01*
X-15850537Y18839000D01*
X-14949463Y18839000D01*
X-14202894Y19148240D01*
X-16539520Y16811613D01*
X-16634288Y16748291D01*
X-16805170Y16492548D01*
X-16885146Y16372856D01*
X-16973235Y15930002D01*
X-16950999Y15818214D01*
X-16950999Y14755440D01*
X-17866000Y14755440D01*
X-18091000Y14710685D01*
X-18316000Y14755440D01*
X-18916000Y14755440D01*
X-19163765Y14706157D01*
X-19373809Y14565809D01*
X-19514157Y14355765D01*
X-19563440Y14108000D01*
X-19563440Y13082999D01*
X-19685145Y12900855D01*
X-19750999Y12569783D01*
X-19750999Y11218131D01*
X-21256387Y12723518D01*
X-21319711Y12818289D01*
X-21590560Y12999265D01*
X-21590560Y13369000D01*
X-21668845Y13762567D01*
X-21891783Y14096217D01*
X-22225433Y14319155D01*
X-22619000Y14397440D01*
X-23381000Y14397440D01*
X-23774567Y14319155D01*
X-24108217Y14096217D01*
X-24331155Y13762567D01*
X-24409440Y13369000D01*
X-24409440Y10631000D01*
X-24336449Y10264050D01*
X-24409963Y10294500D01*
X-25311037Y10294500D01*
X-26143519Y9949674D01*
X-26780674Y9312519D01*
X-27125500Y8480037D01*
X-28022845Y8480037D01*
X-27506071Y10065792D01*
X-26715998Y12006646D01*
X-25789182Y13886044D01*
X-24730365Y15694367D01*
X-24024350Y16723548D01*
X-22551000Y16723548D01*
X-22551000Y16192452D01*
X-22347758Y15701783D01*
X-21972217Y15326242D01*
X-21481548Y15123000D01*
X-20950452Y15123000D01*
X-20459783Y15326242D01*
X-20084242Y15701783D01*
X-19881000Y16192452D01*
X-19881000Y16723548D01*
X-20084242Y17214217D01*
X-20459783Y17589758D01*
X-20950452Y17793000D01*
X-21481548Y17793000D01*
X-21972217Y17589758D01*
X-22347758Y17214217D01*
X-22551000Y16723548D01*
X-24024350Y16723548D01*
X-23544967Y17422359D01*
X-22239057Y19061177D01*
X-20819317Y20602431D01*
X-19293014Y22038233D01*
X-17667962Y23361233D01*
X-16100890Y24460548D01*
X-11947000Y24460548D01*
X-11947000Y23929452D01*
X-11743758Y23438783D01*
X-11368217Y23063242D01*
X-10877548Y22860000D01*
X-10346452Y22860000D01*
X-9855783Y23063242D01*
X-9480242Y23438783D01*
X-9277000Y23929452D01*
X-9277000Y24460548D01*
X-3947000Y24460548D01*
X-3947000Y23929452D01*
X-3743758Y23438783D01*
X-3368217Y23063242D01*
X-2877548Y22860000D01*
X-2346452Y22860000D01*
X-1855783Y23063242D01*
X-1480242Y23438783D01*
X-1277000Y23929452D01*
X-1277000Y24202333D01*
X-450537Y23860000D01*
X450537Y23860000D01*
X1180000Y24162154D01*
X1180000Y23961452D01*
X1383242Y23470783D01*
X1758783Y23095242D01*
X2249452Y22892000D01*
X2780548Y22892000D01*
X3271217Y23095242D01*
X3646758Y23470783D01*
X3850000Y23961452D01*
X3850000Y24492548D01*
X9180000Y24492548D01*
X9180000Y23961452D01*
X9383242Y23470783D01*
X9758783Y23095242D01*
X10249452Y22892000D01*
X10780548Y22892000D01*
X11271217Y23095242D01*
X11646758Y23470783D01*
X11850000Y23961452D01*
X11850000Y24492548D01*
X11646758Y24983217D01*
X11271217Y25358758D01*
X10780548Y25562000D01*
X10249452Y25562000D01*
X9758783Y25358758D01*
X9383242Y24983217D01*
X9180000Y24492548D01*
X3850000Y24492548D01*
X3646758Y24983217D01*
X3271217Y25358758D01*
X2780548Y25562000D01*
X2249452Y25562000D01*
X2211988Y25546482D01*
X2265000Y25674463D01*
X2265000Y26575537D01*
X1920174Y27408019D01*
X1283019Y28045174D01*
X450537Y28390000D01*
X-450537Y28390000D01*
X-1283019Y28045174D01*
X-1920174Y27408019D01*
X-2265000Y26575537D01*
X-2265000Y25674463D01*
X-2175899Y25459355D01*
X-2346452Y25530000D01*
X-2877548Y25530000D01*
X-3368217Y25326758D01*
X-3743758Y24951217D01*
X-3947000Y24460548D01*
X-9277000Y24460548D01*
X-9480242Y24951217D01*
X-9855783Y25326758D01*
X-10346452Y25530000D01*
X-10877548Y25530000D01*
X-11368217Y25326758D01*
X-11743758Y24951217D01*
X-11947000Y24460548D01*
X-16100890Y24460548D01*
X-15952477Y24564661D01*
X-14155341Y25642356D01*
X-12285751Y26588802D01*
X-10353278Y27399156D01*
X-8367812Y28069268D01*
X-6339516Y28595710D01*
X-4278772Y28975787D01*
X-2196127Y29207553D01*
X-102241Y29289822D01*
X1992168Y29222173D01*
G04 #@! TD*
M02*
